G04*
G04 #@! TF.GenerationSoftware,Altium Limited,Altium Designer,23.1.1 (15)*
G04*
G04 Layer_Color=32768*
%FSLAX25Y25*%
%MOIN*%
G70*
G04*
G04 #@! TF.SameCoordinates,610C7C08-74D4-44FC-BCD4-38041F97A8CA*
G04*
G04*
G04 #@! TF.FilePolarity,Positive*
G04*
G01*
G75*
%ADD10C,0.00394*%
%ADD14C,0.00787*%
%ADD15C,0.01500*%
D10*
X95284Y70449D02*
G03*
X95284Y70449I-1969J0D01*
G01*
X60563Y139638D02*
X68437D01*
Y144362D01*
X60563D02*
X68437D01*
X60563Y139638D02*
Y144362D01*
X142650Y51646D02*
X151350D01*
X142650Y57354D02*
X151350D01*
X142650Y51646D02*
Y57354D01*
X151350Y51646D02*
Y57354D01*
D14*
X162492Y92008D02*
Y117992D01*
X136508D02*
X162492D01*
X136508Y92008D02*
Y117992D01*
Y92008D02*
X162492D01*
X60063Y175961D02*
X67937D01*
X60063Y171039D02*
Y175961D01*
Y171039D02*
X67937D01*
Y175961D01*
X60063Y160461D02*
X67937D01*
X60063Y155539D02*
Y160461D01*
Y155539D02*
X67937D01*
Y160461D01*
X61063Y105539D02*
X68937D01*
Y110461D01*
X61063D02*
X68937D01*
X61063Y105539D02*
Y110461D01*
Y125961D02*
X68937D01*
X61063Y121039D02*
Y125961D01*
Y121039D02*
X68937D01*
Y125961D01*
X152331Y68146D02*
Y73854D01*
X143669Y68146D02*
X152331D01*
X143669D02*
Y73854D01*
X152331D01*
D15*
X143563Y39362D02*
X151437D01*
X143563Y34638D02*
Y39362D01*
Y34638D02*
X151437D01*
Y39362D01*
X79142Y48008D02*
X96858D01*
X79142Y73992D02*
X96858D01*
X79142Y48008D02*
Y73992D01*
X96858Y48008D02*
Y73992D01*
X41055Y68504D02*
X47945D01*
X41055Y56496D02*
Y68504D01*
Y56496D02*
X47945D01*
Y68504D01*
X41941Y89209D02*
X47059D01*
X41941Y77791D02*
Y89209D01*
Y77791D02*
X47059D01*
Y89209D01*
X43280D02*
X47059Y85429D01*
M02*
