G04*
G04 #@! TF.GenerationSoftware,Altium Limited,Altium Designer,23.1.1 (15)*
G04*
G04 Layer_Color=65535*
%FSLAX25Y25*%
%MOIN*%
G70*
G04*
G04 #@! TF.SameCoordinates,B1DE690B-BA36-4FB7-BAA6-9E49350ABFFB*
G04*
G04*
G04 #@! TF.FilePolarity,Positive*
G04*
G01*
G75*
%ADD10C,0.00984*%
%ADD11C,0.00394*%
%ADD12C,0.00591*%
%ADD13C,0.00787*%
%ADD14C,0.01000*%
%ADD15C,0.01500*%
D10*
X78421Y139000D02*
G03*
X78421Y139000I-492J0D01*
G01*
X141850Y38500D02*
G03*
X141850Y38500I-492J0D01*
G01*
X51008Y50000D02*
G03*
X51008Y50000I-492J0D01*
G01*
X52653Y167000D02*
G03*
X52653Y167000I-492J0D01*
G01*
X41508Y31000D02*
G03*
X41508Y31000I-492J0D01*
G01*
D11*
X151500Y127626D02*
G03*
X151500Y127232I0J-197D01*
G01*
D02*
G03*
X151500Y127626I0J197D01*
G01*
X175500Y82126D02*
G03*
X175500Y81732I0J-197D01*
G01*
D02*
G03*
X175500Y82126I0J197D01*
G01*
D12*
X71512Y94000D02*
G03*
X71512Y94000I-20669J0D01*
G01*
X130795Y9000D02*
G03*
X130795Y9000I-5295J0D01*
G01*
X39795Y34500D02*
G03*
X39795Y34500I-5295J0D01*
G01*
D13*
X75567Y119709D02*
Y133291D01*
X66709Y119709D02*
X75567D01*
X18874D02*
X55291D01*
X75567Y144709D02*
Y156717D01*
X18874Y119709D02*
Y156717D01*
X75567D01*
X139689Y129713D02*
Y161287D01*
X164492D01*
Y129713D02*
Y161287D01*
X139689Y129713D02*
X164492D01*
X33421Y83567D02*
Y104433D01*
X127161Y59669D02*
X136839D01*
X127161Y68331D02*
X136839D01*
X132714Y80461D02*
X133286D01*
X132714Y75539D02*
X133286D01*
X149957Y33811D02*
Y35189D01*
X151827Y28398D02*
X157043D01*
Y37551D02*
Y40602D01*
Y28398D02*
Y31449D01*
X151827Y40602D02*
X157043D01*
X95500Y13500D02*
Y23500D01*
X55500Y13500D02*
X95500D01*
X55500Y23500D02*
X95500D01*
X55500Y13500D02*
Y23500D01*
X64279Y185256D02*
X75721D01*
X64279Y176744D02*
X75721D01*
X163689Y84213D02*
Y105787D01*
X188492D01*
Y84213D02*
Y105787D01*
X163689Y84213D02*
X188492D01*
X127201Y112646D02*
X139799D01*
Y93354D02*
Y112646D01*
X127201Y93354D02*
X139799D01*
X127201D02*
Y112646D01*
X119819Y113157D02*
X125823D01*
X127279Y27756D02*
X138721D01*
X127279Y19244D02*
X138721D01*
X128366Y34661D02*
X136634D01*
X128366Y42339D02*
X136634D01*
X38606Y46063D02*
X46874D01*
X38606Y53937D02*
X46874D01*
X42114Y60843D02*
X43886D01*
X42114Y66157D02*
X43886D01*
X16100Y51252D02*
Y102748D01*
X25900Y51252D02*
Y102748D01*
X16100Y51252D02*
X25900D01*
X16100Y102748D02*
X25900D01*
X168803Y50835D02*
X169197D01*
X168803Y55165D02*
X169197D01*
X69803Y166335D02*
X70197D01*
X69803Y170665D02*
X70197D01*
X163279Y61744D02*
X174721D01*
X163279Y70256D02*
X174721D01*
D14*
X80750Y186500D02*
X104000D01*
X80500Y191500D02*
X104000D01*
X80500Y128508D02*
X104000D01*
Y191500D01*
X80500Y128508D02*
Y191500D01*
X106750Y186500D02*
X130000D01*
X106500Y191500D02*
X130000D01*
X106500Y128508D02*
X130000D01*
Y191500D01*
X106500Y128508D02*
Y191500D01*
X15500Y140999D02*
X14167D01*
X14833D01*
Y137667D01*
X14167Y137001D01*
X13501D01*
X12834Y137667D01*
X16833Y137001D02*
X18166D01*
X17499D01*
Y140999D01*
X16833Y140333D01*
X140337Y168666D02*
Y164667D01*
X143003D01*
X144335D02*
X145668D01*
X145002D01*
Y167333D01*
X144335D01*
X150333Y163334D02*
Y167333D01*
X148334D01*
X147668Y166666D01*
Y165333D01*
X148334Y164667D01*
X150333D01*
X151666Y167333D02*
Y165333D01*
X152333Y164667D01*
X154332D01*
Y167333D01*
X155665Y164667D02*
X156998D01*
X156332D01*
Y167333D01*
X155665D01*
X161663Y168666D02*
Y164667D01*
X159664D01*
X158997Y165333D01*
Y166666D01*
X159664Y167333D01*
X161663D01*
X170166Y134332D02*
X169499Y134999D01*
X168166D01*
X167500Y134332D01*
Y131667D01*
X168166Y131000D01*
X169499D01*
X170166Y131667D01*
Y132999D01*
X168833D01*
X168000Y157499D02*
Y154833D01*
X169333Y153500D01*
X170666Y154833D01*
Y157499D01*
X92666Y11332D02*
X91999Y11999D01*
X90666D01*
X90000Y11332D01*
Y8666D01*
X90666Y8000D01*
X91999D01*
X92666Y8666D01*
Y9999D01*
X91333D01*
X79500Y8000D02*
Y11999D01*
X81499D01*
X82166Y11332D01*
Y9999D01*
X81499Y9333D01*
X79500D01*
X80833D02*
X82166Y8000D01*
X69000Y11999D02*
X71666D01*
X70333D01*
Y8000D01*
X59000Y12499D02*
Y9833D01*
X60333Y8500D01*
X61666Y9833D01*
Y12499D01*
X13681Y103999D02*
X11015D01*
Y100001D01*
X13681D01*
X11015Y102000D02*
X12348D01*
X17680Y103999D02*
X15014D01*
Y100001D01*
X17680D01*
X15014Y102000D02*
X16347D01*
X19013Y103999D02*
Y100667D01*
X19679Y100001D01*
X21012D01*
X21678Y100667D01*
Y103999D01*
X23011D02*
X25677D01*
X24344D01*
Y100001D01*
X27010D02*
Y102666D01*
X28343Y103999D01*
X29676Y102666D01*
Y100001D01*
Y102000D01*
X27010D01*
X31009Y100001D02*
X32342D01*
X31675D01*
Y103999D01*
X31009Y103333D01*
X34341Y100001D02*
Y102666D01*
X35674Y103999D01*
X37007Y102666D01*
Y100001D01*
Y102000D01*
X34341D01*
X40339Y100001D02*
Y103999D01*
X38340Y102000D01*
X41006D01*
X42338Y103999D02*
X45004D01*
Y103333D01*
X42338Y100667D01*
Y100001D01*
X46337D02*
X47670D01*
X47004D01*
Y103999D01*
X46337Y103333D01*
X127400Y72400D02*
Y76399D01*
X129399D01*
X130066Y75732D01*
Y74399D01*
X129399Y73733D01*
X127400D01*
X128733D02*
X130066Y72400D01*
X131399Y71734D02*
X134064D01*
X135397Y76399D02*
Y72400D01*
X137397D01*
X138063Y73066D01*
Y75732D01*
X137397Y76399D01*
X135397D01*
X139396D02*
Y72400D01*
X141395D01*
X142062Y73066D01*
Y75732D01*
X141395Y76399D01*
X139396D01*
X146061Y72400D02*
X143395D01*
X146061Y75066D01*
Y75732D01*
X145394Y76399D01*
X144061D01*
X143395Y75732D01*
X126900Y85800D02*
Y89799D01*
X128899D01*
X129566Y89132D01*
Y87799D01*
X128899Y87133D01*
X126900D01*
X128233D02*
X129566Y85800D01*
X130899Y85134D02*
X133564D01*
X134897Y89799D02*
Y85800D01*
X136897D01*
X137563Y86466D01*
Y89132D01*
X136897Y89799D01*
X134897D01*
X138896D02*
Y85800D01*
X140895D01*
X141562Y86466D01*
Y89132D01*
X140895Y89799D01*
X138896D01*
X142895Y85800D02*
X144228D01*
X143561D01*
Y89799D01*
X142895Y89132D01*
X150066Y45566D02*
Y48232D01*
X149399Y48899D01*
X148066D01*
X147400Y48232D01*
Y45566D01*
X148066Y44900D01*
X149399D01*
X148733Y46233D02*
X150066Y44900D01*
X149399D02*
X150066Y45566D01*
X154065Y44900D02*
X151399D01*
X154065Y47566D01*
Y48232D01*
X153398Y48899D01*
X152065D01*
X151399Y48232D01*
X92500Y112000D02*
Y112666D01*
X93166D01*
Y112000D01*
X92500D01*
X191500Y103333D02*
X194166D01*
X192833Y104666D02*
Y102000D01*
X186500Y124500D02*
X189166D01*
X13000Y95000D02*
Y98999D01*
X14999D01*
X15666Y98332D01*
Y96999D01*
X14999Y96333D01*
X13000D01*
X14333D02*
X15666Y95000D01*
X15166Y88332D02*
X14499Y88999D01*
X13167D01*
X12500Y88332D01*
Y85666D01*
X13167Y85000D01*
X14499D01*
X15166Y85666D01*
X12500Y78999D02*
Y75000D01*
X14499D01*
X15166Y75666D01*
Y78332D01*
X14499Y78999D01*
X12500D01*
X15166Y67832D02*
X14499Y68499D01*
X13167D01*
X12500Y67832D01*
Y65166D01*
X13167Y64500D01*
X14499D01*
X15166Y65166D01*
Y66499D01*
X13833D01*
X13000Y58999D02*
Y56333D01*
X14333Y55000D01*
X15666Y56333D01*
Y58999D01*
X5835Y67000D02*
X9833D01*
Y69666D01*
Y70999D02*
X5835D01*
Y72998D01*
X6501Y73664D01*
X7834D01*
X8501Y72998D01*
Y70999D01*
X6501Y77663D02*
X5835Y76997D01*
Y75664D01*
X6501Y74997D01*
X9167D01*
X9833Y75664D01*
Y76997D01*
X9167Y77663D01*
X5835Y80996D02*
Y79663D01*
X6501Y78996D01*
X9167D01*
X9833Y79663D01*
Y80996D01*
X9167Y81662D01*
X6501D01*
X5835Y80996D01*
X10500Y82995D02*
Y85661D01*
X6501Y89659D02*
X5835Y88993D01*
Y87660D01*
X6501Y86994D01*
X7168D01*
X7834Y87660D01*
Y88993D01*
X8501Y89659D01*
X9167D01*
X9833Y88993D01*
Y87660D01*
X9167Y86994D01*
X5835Y93658D02*
Y90992D01*
X9833D01*
Y93658D01*
X7834Y90992D02*
Y92325D01*
X9833Y94991D02*
X5835D01*
X9833Y97657D01*
X5835D01*
X6501Y101655D02*
X5835Y100989D01*
Y99656D01*
X6501Y98990D01*
X7168D01*
X7834Y99656D01*
Y100989D01*
X8501Y101655D01*
X9167D01*
X9833Y100989D01*
Y99656D01*
X9167Y98990D01*
X5835Y104988D02*
Y103655D01*
X6501Y102988D01*
X9167D01*
X9833Y103655D01*
Y104988D01*
X9167Y105654D01*
X6501D01*
X5835Y104988D01*
X9833Y106987D02*
X5835D01*
Y108986D01*
X6501Y109653D01*
X7834D01*
X8501Y108986D01*
Y106987D01*
Y108320D02*
X9833Y109653D01*
X10500Y110986D02*
Y113652D01*
X5835Y114985D02*
X8501D01*
X9833Y116317D01*
X8501Y117650D01*
X5835D01*
Y121649D02*
Y118983D01*
X7834D01*
X7168Y120316D01*
Y120983D01*
X7834Y121649D01*
X9167D01*
X9833Y120983D01*
Y119650D01*
X9167Y118983D01*
X9833Y122982D02*
X9167D01*
Y123648D01*
X9833D01*
Y122982D01*
Y126314D02*
Y127647D01*
Y126981D01*
X5835D01*
X6501Y126314D01*
X9833Y129647D02*
X9167D01*
Y130313D01*
X9833D01*
Y129647D01*
X6501Y132979D02*
X5835Y133645D01*
Y134978D01*
X6501Y135644D01*
X9167D01*
X9833Y134978D01*
Y133645D01*
X9167Y132979D01*
X6501D01*
X43668Y20999D02*
Y17001D01*
X45668D01*
X46334Y17667D01*
Y18334D01*
X45668Y19000D01*
X43668D01*
X45668D01*
X46334Y19667D01*
Y20333D01*
X45668Y20999D01*
X43668D01*
X47667D02*
Y17001D01*
X50333D01*
X54332Y20999D02*
X51666D01*
Y17001D01*
X54332D01*
X51666Y19000D02*
X52999D01*
X111674Y119499D02*
X114340Y115501D01*
Y119499D02*
X111674Y115501D01*
X115673Y119499D02*
Y115501D01*
X118338D01*
X119671D02*
X121004D01*
X120338D01*
Y119499D01*
X119671Y118833D01*
X125669Y119499D02*
X123003D01*
Y117500D01*
X124336Y118166D01*
X125003D01*
X125669Y117500D01*
Y116167D01*
X125003Y115501D01*
X123670D01*
X123003Y116167D01*
X127002Y118833D02*
X127669Y119499D01*
X129002D01*
X129668Y118833D01*
Y116167D01*
X129002Y115501D01*
X127669D01*
X127002Y116167D01*
Y118833D01*
X131001Y116167D02*
X131667Y115501D01*
X133000D01*
X133667Y116167D01*
Y118833D01*
X133000Y119499D01*
X131667D01*
X131001Y118833D01*
Y118166D01*
X131667Y117500D01*
X133667D01*
X135000D02*
X137665D01*
X138998Y115501D02*
Y118166D01*
X140331Y119499D01*
X141664Y118166D01*
Y115501D01*
Y117500D01*
X138998D01*
X142997Y119499D02*
Y115501D01*
X144997D01*
X145663Y116167D01*
Y118833D01*
X144997Y119499D01*
X142997D01*
X149662D02*
X148329D01*
X148995D01*
Y116167D01*
X148329Y115501D01*
X147662D01*
X146996Y116167D01*
X153660Y119499D02*
X150995D01*
Y115501D01*
X153660D01*
X150995Y117500D02*
X152327D01*
X154993Y115501D02*
X156326D01*
X155660D01*
Y119499D01*
X154993Y118833D01*
X34009Y172501D02*
Y176499D01*
X36008D01*
X36674Y175833D01*
Y174500D01*
X36008Y173834D01*
X34009D01*
X35342D02*
X36674Y172501D01*
X38007D02*
Y176499D01*
X39340Y175166D01*
X40673Y176499D01*
Y172501D01*
X44672Y175833D02*
X44006Y176499D01*
X42673D01*
X42006Y175833D01*
Y173167D01*
X42673Y172501D01*
X44006D01*
X44672Y173167D01*
X48671Y176499D02*
X46005D01*
Y174500D01*
X47338D01*
X46005D01*
Y172501D01*
X50004Y175833D02*
X50670Y176499D01*
X52003D01*
X52669Y175833D01*
Y173167D01*
X52003Y172501D01*
X50670D01*
X50004Y173167D01*
Y175833D01*
X54002D02*
X54669Y176499D01*
X56002D01*
X56668Y175833D01*
Y175166D01*
X56002Y174500D01*
X56668Y173834D01*
Y173167D01*
X56002Y172501D01*
X54669D01*
X54002Y173167D01*
Y173834D01*
X54669Y174500D01*
X54002Y175166D01*
Y175833D01*
X54669Y174500D02*
X56002D01*
X58001Y175833D02*
X58667Y176499D01*
X60000D01*
X60667Y175833D01*
Y173167D01*
X60000Y172501D01*
X58667D01*
X58001Y173167D01*
Y175833D01*
X64666Y176499D02*
X62000D01*
Y174500D01*
X63333Y175166D01*
X63999D01*
X64666Y174500D01*
Y173167D01*
X63999Y172501D01*
X62666D01*
X62000Y173167D01*
X68664Y176499D02*
X67331D01*
X67998D01*
Y173167D01*
X67331Y172501D01*
X66665D01*
X65998Y173167D01*
X69997Y176499D02*
X72663D01*
X71330D01*
Y172501D01*
X73996D02*
X75329D01*
X74662D01*
Y176499D01*
X73996Y175833D01*
X77328D02*
X77995Y176499D01*
X79327D01*
X79994Y175833D01*
Y175166D01*
X79327Y174500D01*
X79994Y173834D01*
Y173167D01*
X79327Y172501D01*
X77995D01*
X77328Y173167D01*
Y173834D01*
X77995Y174500D01*
X77328Y175166D01*
Y175833D01*
X77995Y174500D02*
X79327D01*
X81327Y175833D02*
X81993Y176499D01*
X83326D01*
X83993Y175833D01*
Y173167D01*
X83326Y172501D01*
X81993D01*
X81327Y173167D01*
Y175833D01*
X85325Y172501D02*
Y176499D01*
X87325D01*
X87991Y175833D01*
Y174500D01*
X87325Y173834D01*
X85325D01*
X86658D02*
X87991Y172501D01*
X20177Y68501D02*
Y72499D01*
X22176D01*
X22843Y71833D01*
Y70500D01*
X22176Y69834D01*
X20177D01*
X21510D02*
X22843Y68501D01*
X24175Y72499D02*
X26841D01*
X25508D01*
Y68501D01*
X28174Y71833D02*
X28841Y72499D01*
X30174D01*
X30840Y71833D01*
Y69167D01*
X30174Y68501D01*
X28841D01*
X28174Y69167D01*
Y71833D01*
X32173D02*
X32839Y72499D01*
X34172D01*
X34839Y71833D01*
Y71166D01*
X34172Y70500D01*
X34839Y69834D01*
Y69167D01*
X34172Y68501D01*
X32839D01*
X32173Y69167D01*
Y69834D01*
X32839Y70500D01*
X32173Y71166D01*
Y71833D01*
X32839Y70500D02*
X34172D01*
X36172Y71833D02*
X36838Y72499D01*
X38171D01*
X38837Y71833D01*
Y69167D01*
X38171Y68501D01*
X36838D01*
X36172Y69167D01*
Y71833D01*
X42836Y72499D02*
X40170D01*
Y70500D01*
X41503Y71166D01*
X42170D01*
X42836Y70500D01*
Y69167D01*
X42170Y68501D01*
X40837D01*
X40170Y69167D01*
X44169Y72499D02*
Y68501D01*
X46168D01*
X46835Y69167D01*
Y69834D01*
X46168Y70500D01*
X44169D01*
X46168D01*
X46835Y71166D01*
Y71833D01*
X46168Y72499D01*
X44169D01*
X48168Y68501D02*
Y72499D01*
X50167D01*
X50834Y71833D01*
Y70500D01*
X50167Y69834D01*
X48168D01*
X49501D02*
X50834Y68501D01*
X52166Y72499D02*
Y68501D01*
X54166D01*
X54832Y69167D01*
Y69834D01*
X54166Y70500D01*
X52166D01*
X54166D01*
X54832Y71166D01*
Y71833D01*
X54166Y72499D01*
X52166D01*
X56165Y71833D02*
X56832Y72499D01*
X58165D01*
X58831Y71833D01*
Y69167D01*
X58165Y68501D01*
X56832D01*
X56165Y69167D01*
Y71833D01*
X60164Y72499D02*
X62830D01*
Y71833D01*
X60164Y69167D01*
Y68501D01*
X66162D02*
Y72499D01*
X64163Y70500D01*
X66828D01*
X68161Y72499D02*
X70827D01*
Y71833D01*
X68161Y69167D01*
Y68501D01*
X72160Y71833D02*
X72826Y72499D01*
X74159D01*
X74826Y71833D01*
Y69167D01*
X74159Y68501D01*
X72826D01*
X72160Y69167D01*
Y71833D01*
X76159Y68501D02*
Y72499D01*
X78158D01*
X78825Y71833D01*
Y70500D01*
X78158Y69834D01*
X76159D01*
X77492D02*
X78825Y68501D01*
X80157Y72499D02*
Y68501D01*
X82823D01*
X97509Y28501D02*
Y32499D01*
X99508D01*
X100174Y31833D01*
Y30500D01*
X99508Y29834D01*
X97509D01*
X98842D02*
X100174Y28501D01*
X101507D02*
Y32499D01*
X102840Y31166D01*
X104173Y32499D01*
Y28501D01*
X108172Y31833D02*
X107506Y32499D01*
X106173D01*
X105506Y31833D01*
Y29167D01*
X106173Y28501D01*
X107506D01*
X108172Y29167D01*
X112171Y32499D02*
X109505D01*
Y30500D01*
X110838D01*
X109505D01*
Y28501D01*
X113504Y31833D02*
X114170Y32499D01*
X115503D01*
X116169Y31833D01*
Y29167D01*
X115503Y28501D01*
X114170D01*
X113504Y29167D01*
Y31833D01*
X117502D02*
X118169Y32499D01*
X119502D01*
X120168Y31833D01*
Y31166D01*
X119502Y30500D01*
X120168Y29834D01*
Y29167D01*
X119502Y28501D01*
X118169D01*
X117502Y29167D01*
Y29834D01*
X118169Y30500D01*
X117502Y31166D01*
Y31833D01*
X118169Y30500D02*
X119502D01*
X121501Y31833D02*
X122167Y32499D01*
X123500D01*
X124167Y31833D01*
Y29167D01*
X123500Y28501D01*
X122167D01*
X121501Y29167D01*
Y31833D01*
X128165Y32499D02*
X125500D01*
Y30500D01*
X126833Y31166D01*
X127499D01*
X128165Y30500D01*
Y29167D01*
X127499Y28501D01*
X126166D01*
X125500Y29167D01*
X132164Y32499D02*
X130831D01*
X131498D01*
Y29167D01*
X130831Y28501D01*
X130165D01*
X129498Y29167D01*
X133497Y32499D02*
X136163D01*
X134830D01*
Y28501D01*
X137496D02*
X138829D01*
X138162D01*
Y32499D01*
X137496Y31833D01*
X140828D02*
X141495Y32499D01*
X142827D01*
X143494Y31833D01*
Y31166D01*
X142827Y30500D01*
X143494Y29834D01*
Y29167D01*
X142827Y28501D01*
X141495D01*
X140828Y29167D01*
Y29834D01*
X141495Y30500D01*
X140828Y31166D01*
Y31833D01*
X141495Y30500D02*
X142827D01*
X144827Y31833D02*
X145493Y32499D01*
X146826D01*
X147493Y31833D01*
Y29167D01*
X146826Y28501D01*
X145493D01*
X144827Y29167D01*
Y31833D01*
X148826Y28501D02*
Y32499D01*
X150825D01*
X151491Y31833D01*
Y30500D01*
X150825Y29834D01*
X148826D01*
X150158D02*
X151491Y28501D01*
X162510Y56667D02*
X163843D01*
X163177D01*
Y60666D01*
X162510Y60000D01*
X165843D02*
X166509Y60666D01*
X167842D01*
X168508Y60000D01*
Y57334D01*
X167842Y56667D01*
X166509D01*
X165843Y57334D01*
Y60000D01*
X169841Y60666D02*
Y56667D01*
Y58000D01*
X172507Y60666D01*
X170508Y58667D01*
X172507Y56667D01*
X180505Y60666D02*
X177839D01*
Y58667D01*
X179172Y59333D01*
X179838D01*
X180505Y58667D01*
Y57334D01*
X179838Y56667D01*
X178505D01*
X177839Y57334D01*
X181837D02*
X185170Y60666D01*
X181837D02*
Y61333D01*
X182504D01*
Y60666D01*
X181837D01*
X184503Y56667D02*
Y57334D01*
X185170D01*
Y56667D01*
X184503D01*
X190501Y60000D02*
X191168Y60666D01*
X192501D01*
X193167Y60000D01*
Y57334D01*
X192501Y56667D01*
X191168D01*
X190501Y57334D01*
Y60000D01*
X194500D02*
X195167Y60666D01*
X196499D01*
X197166Y60000D01*
Y59333D01*
X196499Y58667D01*
X197166Y58000D01*
Y57334D01*
X196499Y56667D01*
X195167D01*
X194500Y57334D01*
Y58000D01*
X195167Y58667D01*
X194500Y59333D01*
Y60000D01*
X195167Y58667D02*
X196499D01*
X198499Y60000D02*
X199165Y60666D01*
X200498D01*
X201165Y60000D01*
Y57334D01*
X200498Y56667D01*
X199165D01*
X198499Y57334D01*
Y60000D01*
X205163Y60666D02*
X202497D01*
Y58667D01*
X203830Y59333D01*
X204497D01*
X205163Y58667D01*
Y57334D01*
X204497Y56667D01*
X203164D01*
X202497Y57334D01*
X207829Y56667D02*
X206496Y58000D01*
Y59333D01*
X207829Y60666D01*
X212494Y56667D02*
X209828D01*
X212494Y59333D01*
Y60000D01*
X211828Y60666D01*
X210495D01*
X209828Y60000D01*
X213827D02*
X214494Y60666D01*
X215827D01*
X216493Y60000D01*
Y57334D01*
X215827Y56667D01*
X214494D01*
X213827Y57334D01*
Y60000D01*
X217826Y56667D02*
X219159D01*
X218492D01*
Y60666D01*
X217826Y60000D01*
X223824Y56667D02*
X221158D01*
X223824Y59333D01*
Y60000D01*
X223157Y60666D01*
X221825D01*
X221158Y60000D01*
X225157Y56667D02*
X226490Y58000D01*
Y59333D01*
X225157Y60666D01*
X162343Y113833D02*
X159677D01*
Y111833D01*
X161010D01*
X159677D01*
Y109834D01*
X163676Y113833D02*
X165009D01*
X164342D01*
Y109834D01*
X163676D01*
X165009D01*
X167008D02*
Y113833D01*
X169007D01*
X169674Y113166D01*
Y111833D01*
X169007Y111167D01*
X167008D01*
X168341D02*
X169674Y109834D01*
X173673Y113833D02*
X171007D01*
Y109834D01*
X173673D01*
X171007Y111833D02*
X172340D01*
X175005Y109167D02*
X177671D01*
X181670Y113833D02*
X179004D01*
Y109834D01*
X181670D01*
X179004Y111833D02*
X180337D01*
X183003Y113833D02*
X185669Y109834D01*
Y113833D02*
X183003Y109834D01*
X187002Y113833D02*
X189667D01*
X188335D01*
Y109834D01*
X191000Y113833D02*
X192333D01*
X191667D01*
Y109834D01*
X191000D01*
X192333D01*
X194333D02*
Y113833D01*
X196998Y109834D01*
Y113833D01*
X200997Y113166D02*
X200331Y113833D01*
X198998D01*
X198331Y113166D01*
Y110500D01*
X198998Y109834D01*
X200331D01*
X200997Y110500D01*
Y111833D01*
X199664D01*
X202330Y113833D02*
Y110500D01*
X202996Y109834D01*
X204329D01*
X204996Y110500D01*
Y113833D01*
X206329D02*
X207662D01*
X206995D01*
Y109834D01*
X206329D01*
X207662D01*
X212327Y113166D02*
X211660Y113833D01*
X210327D01*
X209661Y113166D01*
Y112500D01*
X210327Y111833D01*
X211660D01*
X212327Y111167D01*
Y110500D01*
X211660Y109834D01*
X210327D01*
X209661Y110500D01*
X213660Y113833D02*
Y109834D01*
Y111833D01*
X216325D01*
Y113833D01*
Y109834D01*
X220324Y113833D02*
X217658D01*
Y109834D01*
X220324D01*
X217658Y111833D02*
X218991D01*
X221657Y109834D02*
Y113833D01*
X223657D01*
X224323Y113166D01*
Y111833D01*
X223657Y111167D01*
X221657D01*
X222990D02*
X224323Y109834D01*
X95170Y10833D02*
X97836D01*
X96503D01*
Y6834D01*
X99169D02*
Y10833D01*
X101168D01*
X101835Y10166D01*
Y8833D01*
X101168Y8167D01*
X99169D01*
X103168Y6167D02*
X105833D01*
X109832Y10166D02*
X109166Y10833D01*
X107833D01*
X107167Y10166D01*
Y7500D01*
X107833Y6834D01*
X109166D01*
X109832Y7500D01*
Y8833D01*
X108499D01*
X111165Y6834D02*
Y10833D01*
X113831Y6834D01*
Y10833D01*
X115164D02*
Y6834D01*
X117163D01*
X117830Y7500D01*
Y10166D01*
X117163Y10833D01*
X115164D01*
X137009Y70501D02*
Y74499D01*
X139008D01*
X139674Y73833D01*
Y72500D01*
X139008Y71834D01*
X137009D01*
X138342D02*
X139674Y70501D01*
X141007D02*
Y74499D01*
X142340Y73166D01*
X143673Y74499D01*
Y70501D01*
X147672Y73833D02*
X147005Y74499D01*
X145673D01*
X145006Y73833D01*
Y71167D01*
X145673Y70501D01*
X147005D01*
X147672Y71167D01*
X151671Y74499D02*
X149005D01*
Y72500D01*
X150338D01*
X149005D01*
Y70501D01*
X153004Y73833D02*
X153670Y74499D01*
X155003D01*
X155669Y73833D01*
Y71167D01*
X155003Y70501D01*
X153670D01*
X153004Y71167D01*
Y73833D01*
X157002D02*
X157669Y74499D01*
X159002D01*
X159668Y73833D01*
Y73166D01*
X159002Y72500D01*
X159668Y71834D01*
Y71167D01*
X159002Y70501D01*
X157669D01*
X157002Y71167D01*
Y71834D01*
X157669Y72500D01*
X157002Y73166D01*
Y73833D01*
X157669Y72500D02*
X159002D01*
X161001Y73833D02*
X161667Y74499D01*
X163000D01*
X163667Y73833D01*
Y71167D01*
X163000Y70501D01*
X161667D01*
X161001Y71167D01*
Y73833D01*
X167666Y74499D02*
X165000D01*
Y72500D01*
X166333Y73166D01*
X166999D01*
X167666Y72500D01*
Y71167D01*
X166999Y70501D01*
X165666D01*
X165000Y71167D01*
X171664Y74499D02*
X170331D01*
X170998D01*
Y71167D01*
X170331Y70501D01*
X169665D01*
X168998Y71167D01*
X172997Y74499D02*
X175663D01*
X174330D01*
Y70501D01*
X176996D02*
X178329D01*
X177662D01*
Y74499D01*
X176996Y73833D01*
X180328D02*
X180994Y74499D01*
X182327D01*
X182994Y73833D01*
Y73166D01*
X182327Y72500D01*
X182994Y71834D01*
Y71167D01*
X182327Y70501D01*
X180994D01*
X180328Y71167D01*
Y71834D01*
X180994Y72500D01*
X180328Y73166D01*
Y73833D01*
X180994Y72500D02*
X182327D01*
X184327Y73833D02*
X184993Y74499D01*
X186326D01*
X186993Y73833D01*
Y71167D01*
X186326Y70501D01*
X184993D01*
X184327Y71167D01*
Y73833D01*
X188326Y70501D02*
Y74499D01*
X190325D01*
X190991Y73833D01*
Y72500D01*
X190325Y71834D01*
X188326D01*
X189658D02*
X190991Y70501D01*
X18670Y45833D02*
X21336D01*
X20003D01*
Y41834D01*
X22669D02*
Y45833D01*
X24668D01*
X25335Y45166D01*
Y43833D01*
X24668Y43167D01*
X22669D01*
X26668Y41167D02*
X29334D01*
X30667Y45166D02*
X31333Y45833D01*
X32666D01*
X33332Y45166D01*
Y44500D01*
X32666Y43833D01*
X31999D01*
X32666D01*
X33332Y43167D01*
Y42500D01*
X32666Y41834D01*
X31333D01*
X30667Y42500D01*
X34665Y45833D02*
Y43167D01*
X35998Y41834D01*
X37331Y43167D01*
Y45833D01*
X38664Y45166D02*
X39330Y45833D01*
X40663D01*
X41330Y45166D01*
Y44500D01*
X40663Y43833D01*
X39997D01*
X40663D01*
X41330Y43167D01*
Y42500D01*
X40663Y41834D01*
X39330D01*
X38664Y42500D01*
X63510Y160167D02*
X64843D01*
X64177D01*
Y164166D01*
X63510Y163500D01*
X66843D02*
X67509Y164166D01*
X68842D01*
X69508Y163500D01*
Y160834D01*
X68842Y160167D01*
X67509D01*
X66843Y160834D01*
Y163500D01*
X70841Y164166D02*
Y160167D01*
Y161500D01*
X73507Y164166D01*
X71508Y162167D01*
X73507Y160167D01*
X81504Y164166D02*
X78839D01*
Y162167D01*
X80172Y162833D01*
X80838D01*
X81504Y162167D01*
Y160834D01*
X80838Y160167D01*
X79505D01*
X78839Y160834D01*
X82837D02*
X86170Y164166D01*
X82837D02*
Y164833D01*
X83504D01*
Y164166D01*
X82837D01*
X85503Y160167D02*
Y160834D01*
X86170D01*
Y160167D01*
X85503D01*
X91501Y163500D02*
X92168Y164166D01*
X93501D01*
X94167Y163500D01*
Y160834D01*
X93501Y160167D01*
X92168D01*
X91501Y160834D01*
Y163500D01*
X95500D02*
X96166Y164166D01*
X97499D01*
X98166Y163500D01*
Y162833D01*
X97499Y162167D01*
X98166Y161500D01*
Y160834D01*
X97499Y160167D01*
X96166D01*
X95500Y160834D01*
Y161500D01*
X96166Y162167D01*
X95500Y162833D01*
Y163500D01*
X96166Y162167D02*
X97499D01*
X99499Y163500D02*
X100165Y164166D01*
X101498D01*
X102164Y163500D01*
Y160834D01*
X101498Y160167D01*
X100165D01*
X99499Y160834D01*
Y163500D01*
X106163Y164166D02*
X103497D01*
Y162167D01*
X104830Y162833D01*
X105497D01*
X106163Y162167D01*
Y160834D01*
X105497Y160167D01*
X104164D01*
X103497Y160834D01*
X108829Y160167D02*
X107496Y161500D01*
Y162833D01*
X108829Y164166D01*
X113494Y160167D02*
X110828D01*
X113494Y162833D01*
Y163500D01*
X112828Y164166D01*
X111495D01*
X110828Y163500D01*
X114827D02*
X115494Y164166D01*
X116826D01*
X117493Y163500D01*
Y160834D01*
X116826Y160167D01*
X115494D01*
X114827Y160834D01*
Y163500D01*
X118826Y160167D02*
X120159D01*
X119492D01*
Y164166D01*
X118826Y163500D01*
X124824Y160167D02*
X122158D01*
X124824Y162833D01*
Y163500D01*
X124157Y164166D01*
X122825D01*
X122158Y163500D01*
X126157Y160167D02*
X127490Y161500D01*
Y162833D01*
X126157Y164166D01*
X98177Y43501D02*
Y46166D01*
X99510Y47499D01*
X100843Y46166D01*
Y43501D01*
Y45500D01*
X98177D01*
X102176Y43501D02*
Y47499D01*
X104175D01*
X104842Y46833D01*
Y45500D01*
X104175Y44834D01*
X102176D01*
X106175Y47499D02*
Y43501D01*
Y45500D01*
X108840D01*
Y47499D01*
Y43501D01*
X112839Y46833D02*
X112173Y47499D01*
X110840D01*
X110173Y46833D01*
Y44167D01*
X110840Y43501D01*
X112173D01*
X112839Y44167D01*
X114172Y43501D02*
Y47499D01*
X115505Y46166D01*
X116838Y47499D01*
Y43501D01*
X120836D02*
X118171D01*
X120836Y46166D01*
Y46833D01*
X120170Y47499D01*
X118837D01*
X118171Y46833D01*
X122169D02*
X122836Y47499D01*
X124169D01*
X124835Y46833D01*
Y44167D01*
X124169Y43501D01*
X122836D01*
X122169Y44167D01*
Y46833D01*
X126168Y43501D02*
X127501D01*
X126834D01*
Y47499D01*
X126168Y46833D01*
X132166Y43501D02*
X129500D01*
X132166Y46166D01*
Y46833D01*
X131500Y47499D01*
X130167D01*
X129500Y46833D01*
X136165D02*
X135498Y47499D01*
X134166D01*
X133499Y46833D01*
Y44167D01*
X134166Y43501D01*
X135498D01*
X136165Y44167D01*
X140164Y46833D02*
X139497Y47499D01*
X138164D01*
X137498Y46833D01*
Y44167D01*
X138164Y43501D01*
X139497D01*
X140164Y44167D01*
Y45500D01*
X138831D01*
X144162Y46833D02*
X143496Y47499D01*
X142163D01*
X141497Y46833D01*
Y44167D01*
X142163Y43501D01*
X143496D01*
X144162Y44167D01*
X145495Y47499D02*
Y43501D01*
Y44834D01*
X148161Y47499D01*
X146162Y45500D01*
X148161Y43501D01*
X149494Y45500D02*
X152160D01*
X156158Y47499D02*
X153493D01*
Y45500D01*
X154825D01*
X153493D01*
Y43501D01*
X157491Y46833D02*
X158158Y47499D01*
X159491D01*
X160157Y46833D01*
Y44167D01*
X159491Y43501D01*
X158158D01*
X157491Y44167D01*
Y46833D01*
X161490Y43501D02*
X162823D01*
X162156D01*
Y47499D01*
X161490Y46833D01*
X44000Y44299D02*
Y40966D01*
X44666Y40300D01*
X45999D01*
X46666Y40966D01*
Y44299D01*
X47999Y40300D02*
Y42966D01*
X49332Y44299D01*
X50665Y42966D01*
Y40300D01*
Y42299D01*
X47999D01*
X51997Y40300D02*
Y44299D01*
X53997D01*
X54663Y43632D01*
Y42299D01*
X53997Y41633D01*
X51997D01*
X53330D02*
X54663Y40300D01*
X55996Y44299D02*
X58662D01*
X57329D01*
Y40300D01*
X62661D02*
X59995D01*
X62661Y42966D01*
Y43632D01*
X61994Y44299D01*
X60661D01*
X59995Y43632D01*
X101676Y58333D02*
X101009Y58999D01*
X99676D01*
X99010Y58333D01*
Y55667D01*
X99676Y55001D01*
X101009D01*
X101676Y55667D01*
X103009Y58333D02*
X103675Y58999D01*
X105008D01*
X105675Y58333D01*
Y55667D01*
X105008Y55001D01*
X103675D01*
X103009Y55667D01*
Y58333D01*
X107007D02*
X107674Y58999D01*
X109007D01*
X109673Y58333D01*
Y57666D01*
X109007Y57000D01*
X109673Y56334D01*
Y55667D01*
X109007Y55001D01*
X107674D01*
X107007Y55667D01*
Y56334D01*
X107674Y57000D01*
X107007Y57666D01*
Y58333D01*
X107674Y57000D02*
X109007D01*
X111006Y58333D02*
X111673Y58999D01*
X113005D01*
X113672Y58333D01*
Y55667D01*
X113005Y55001D01*
X111673D01*
X111006Y55667D01*
Y58333D01*
X117671Y58999D02*
X115005D01*
Y57000D01*
X116338Y57666D01*
X117004D01*
X117671Y57000D01*
Y55667D01*
X117004Y55001D01*
X115671D01*
X115005Y55667D01*
X121669Y58333D02*
X121003Y58999D01*
X119670D01*
X119003Y58333D01*
Y55667D01*
X119670Y55001D01*
X121003D01*
X121669Y55667D01*
X123002Y55001D02*
X124335D01*
X123669D01*
Y58999D01*
X123002Y58333D01*
X126335D02*
X127001Y58999D01*
X128334D01*
X129000Y58333D01*
Y55667D01*
X128334Y55001D01*
X127001D01*
X126335Y55667D01*
Y58333D01*
X132333Y55001D02*
Y58999D01*
X130333Y57000D01*
X132999D01*
X134332Y58999D02*
Y55001D01*
Y56334D01*
X136998Y58999D01*
X134998Y57000D01*
X136998Y55001D01*
X140997Y58999D02*
X138331D01*
Y57000D01*
X139664Y57666D01*
X140330D01*
X140997Y57000D01*
Y55667D01*
X140330Y55001D01*
X138997D01*
X138331Y55667D01*
X142329Y55001D02*
Y58999D01*
X144329D01*
X144995Y58333D01*
Y57000D01*
X144329Y56334D01*
X142329D01*
X143662D02*
X144995Y55001D01*
X146328D02*
Y57666D01*
X147661Y58999D01*
X148994Y57666D01*
Y55001D01*
Y57000D01*
X146328D01*
X150327Y58999D02*
Y55001D01*
X152993D01*
X154325Y58999D02*
X156991D01*
X155658D01*
Y55001D01*
X158324Y58999D02*
Y55667D01*
X158991Y55001D01*
X160324D01*
X160990Y55667D01*
Y58999D01*
X21674Y161999D02*
Y158001D01*
X23007Y159334D01*
X24340Y158001D01*
Y161999D01*
X29672D02*
Y158001D01*
X32337D01*
X36336Y161999D02*
X33670D01*
Y158001D01*
X36336D01*
X33670Y160000D02*
X35003D01*
X37669Y161999D02*
Y158001D01*
X39668D01*
X40335Y158667D01*
Y161333D01*
X39668Y161999D01*
X37669D01*
X45667Y161333D02*
X46333Y161999D01*
X47666D01*
X48332Y161333D01*
Y160667D01*
X47666Y160000D01*
X46999D01*
X47666D01*
X48332Y159334D01*
Y158667D01*
X47666Y158001D01*
X46333D01*
X45667Y158667D01*
X49665Y160667D02*
X50998Y158001D01*
X52331Y160667D01*
X56330Y158001D02*
X53664D01*
X56330Y160667D01*
Y161333D01*
X55663Y161999D01*
X54330D01*
X53664Y161333D01*
X57663D02*
X58329Y161999D01*
X59662D01*
X60328Y161333D01*
Y158667D01*
X59662Y158001D01*
X58329D01*
X57663Y158667D01*
Y161333D01*
X61661Y158001D02*
Y160667D01*
X62328D01*
X62994Y160000D01*
Y158001D01*
Y160000D01*
X63661Y160667D01*
X64327Y160000D01*
Y158001D01*
X66326Y160667D02*
X67659D01*
X68326Y160000D01*
Y158001D01*
X66326D01*
X65660Y158667D01*
X66326Y159334D01*
X68326D01*
X30416Y58833D02*
X29750Y59499D01*
X28417D01*
X27750Y58833D01*
Y58166D01*
X28417Y57500D01*
X29750D01*
X30416Y56834D01*
Y56167D01*
X29750Y55501D01*
X28417D01*
X27750Y56167D01*
X31749Y55501D02*
Y59499D01*
X33082Y58166D01*
X34415Y59499D01*
Y55501D01*
X35748Y59499D02*
Y55501D01*
X38413D01*
X39746Y57500D02*
X42412D01*
X43745Y59499D02*
Y55501D01*
X46411D01*
X47744Y59499D02*
X50410Y55501D01*
Y59499D02*
X47744Y55501D01*
X51743Y59499D02*
X54408D01*
X53075D01*
Y55501D01*
X55741Y58833D02*
X56408Y59499D01*
X57740D01*
X58407Y58833D01*
Y56167D01*
X57740Y55501D01*
X56408D01*
X55741Y56167D01*
Y58833D01*
X59740D02*
X60406Y59499D01*
X61739D01*
X62406Y58833D01*
Y58166D01*
X61739Y57500D01*
X62406Y56834D01*
Y56167D01*
X61739Y55501D01*
X60406D01*
X59740Y56167D01*
Y56834D01*
X60406Y57500D01*
X59740Y58166D01*
Y58833D01*
X60406Y57500D02*
X61739D01*
X63739Y58833D02*
X64405Y59499D01*
X65738D01*
X66404Y58833D01*
Y56167D01*
X65738Y55501D01*
X64405D01*
X63739Y56167D01*
Y58833D01*
X70403Y59499D02*
X67737D01*
Y57500D01*
X69070Y58166D01*
X69737D01*
X70403Y57500D01*
Y56167D01*
X69737Y55501D01*
X68404D01*
X67737Y56167D01*
X71736Y59499D02*
X73069D01*
X72403D01*
Y55501D01*
X71736D01*
X73069D01*
X75068Y59499D02*
Y55501D01*
X76401Y56834D01*
X77734Y55501D01*
Y59499D01*
X79067Y57500D02*
X81733D01*
X83066Y59499D02*
X85732D01*
X84399D01*
Y55501D01*
X87064D02*
Y59499D01*
X89064D01*
X89730Y58833D01*
Y57500D01*
X89064Y56834D01*
X87064D01*
X88397D02*
X89730Y55501D01*
D15*
X43500Y164047D02*
Y169953D01*
X43516Y36197D02*
X65484D01*
Y25803D02*
Y36197D01*
X43516Y25803D02*
X65484D01*
X43516D02*
Y36197D01*
M02*
