G04*
G04 #@! TF.GenerationSoftware,Altium Limited,Altium Designer,23.1.1 (15)*
G04*
G04 Layer_Color=16711935*
%FSLAX25Y25*%
%MOIN*%
G70*
G04*
G04 #@! TF.SameCoordinates,2A32F405-7E1A-4497-8D0E-C4D04B09633D*
G04*
G04*
G04 #@! TF.FilePolarity,Positive*
G04*
G01*
G75*
%ADD12C,0.00787*%
%ADD13C,0.01500*%
G36*
X58379Y99186D02*
X58376D01*
X58371D01*
X58360Y99183D01*
X58346Y99181D01*
X58330Y99178D01*
X58314Y99175D01*
X58267Y99164D01*
X58218Y99151D01*
X58166Y99134D01*
X58114Y99112D01*
X58065Y99085D01*
X58060Y99082D01*
X58046Y99069D01*
X58024Y99050D01*
X57997Y99022D01*
X57964Y98987D01*
X57934Y98943D01*
X57901Y98891D01*
X57871Y98831D01*
Y98828D01*
X57868Y98823D01*
X57866Y98815D01*
X57860Y98801D01*
X57855Y98785D01*
X57847Y98766D01*
X57841Y98744D01*
X57836Y98719D01*
X57822Y98662D01*
X57809Y98594D01*
X57800Y98523D01*
X57797Y98444D01*
Y98411D01*
X57800Y98394D01*
Y98375D01*
X57806Y98332D01*
X57811Y98280D01*
X57819Y98222D01*
X57833Y98165D01*
X57852Y98111D01*
Y98108D01*
X57855Y98105D01*
X57858Y98097D01*
X57863Y98086D01*
X57877Y98061D01*
X57893Y98029D01*
X57915Y97993D01*
X57942Y97955D01*
X57972Y97922D01*
X58008Y97892D01*
X58013Y97889D01*
X58024Y97881D01*
X58046Y97868D01*
X58073Y97854D01*
X58106Y97843D01*
X58141Y97829D01*
X58183Y97821D01*
X58223Y97818D01*
X58226D01*
X58229D01*
X58242D01*
X58267Y97821D01*
X58294Y97826D01*
X58327Y97835D01*
X58363Y97848D01*
X58398Y97865D01*
X58431Y97889D01*
X58434Y97892D01*
X58445Y97903D01*
X58461Y97919D01*
X58483Y97944D01*
X58505Y97974D01*
X58529Y98015D01*
X58554Y98061D01*
X58578Y98116D01*
X58581Y98121D01*
X58584Y98127D01*
X58587Y98138D01*
X58589Y98149D01*
X58595Y98165D01*
X58603Y98187D01*
X58608Y98209D01*
X58617Y98239D01*
X58627Y98269D01*
X58636Y98307D01*
X58647Y98348D01*
X58660Y98394D01*
X58671Y98444D01*
X58688Y98501D01*
X58701Y98564D01*
Y98566D01*
X58704Y98577D01*
X58709Y98596D01*
X58715Y98618D01*
X58723Y98648D01*
X58731Y98681D01*
X58742Y98714D01*
X58753Y98752D01*
X58778Y98834D01*
X58805Y98913D01*
X58819Y98951D01*
X58832Y98987D01*
X58846Y99020D01*
X58859Y99047D01*
Y99050D01*
X58865Y99055D01*
X58870Y99063D01*
X58876Y99077D01*
X58895Y99110D01*
X58922Y99148D01*
X58958Y99194D01*
X58996Y99238D01*
X59042Y99282D01*
X59092Y99317D01*
X59094D01*
X59097Y99320D01*
X59105Y99325D01*
X59116Y99331D01*
X59146Y99344D01*
X59184Y99361D01*
X59231Y99377D01*
X59285Y99391D01*
X59346Y99402D01*
X59408Y99405D01*
X59411D01*
X59416D01*
X59427D01*
X59441Y99402D01*
X59457D01*
X59477Y99399D01*
X59526Y99391D01*
X59580Y99377D01*
X59638Y99361D01*
X59700Y99334D01*
X59763Y99298D01*
X59766D01*
X59771Y99293D01*
X59780Y99287D01*
X59790Y99279D01*
X59820Y99252D01*
X59859Y99216D01*
X59900Y99172D01*
X59941Y99118D01*
X59982Y99055D01*
X60017Y98981D01*
Y98979D01*
X60020Y98973D01*
X60025Y98959D01*
X60031Y98946D01*
X60036Y98927D01*
X60044Y98902D01*
X60053Y98875D01*
X60061Y98845D01*
X60069Y98812D01*
X60077Y98777D01*
X60091Y98700D01*
X60102Y98613D01*
X60104Y98520D01*
Y98474D01*
X60102Y98449D01*
X60099Y98419D01*
X60096Y98389D01*
X60093Y98353D01*
X60083Y98277D01*
X60066Y98192D01*
X60042Y98108D01*
X60012Y98026D01*
Y98023D01*
X60006Y98018D01*
X60003Y98004D01*
X59995Y97990D01*
X59984Y97974D01*
X59973Y97952D01*
X59946Y97906D01*
X59908Y97851D01*
X59861Y97796D01*
X59810Y97745D01*
X59747Y97698D01*
X59744Y97695D01*
X59739Y97693D01*
X59730Y97687D01*
X59717Y97679D01*
X59700Y97671D01*
X59681Y97660D01*
X59657Y97652D01*
X59632Y97638D01*
X59575Y97616D01*
X59506Y97597D01*
X59433Y97581D01*
X59351Y97573D01*
X59326Y97892D01*
X59329D01*
X59337Y97895D01*
X59348D01*
X59365Y97897D01*
X59386Y97903D01*
X59408Y97908D01*
X59460Y97925D01*
X59517Y97947D01*
X59578Y97979D01*
X59635Y98018D01*
X59659Y98042D01*
X59684Y98070D01*
X59687Y98072D01*
X59689Y98075D01*
X59695Y98086D01*
X59703Y98097D01*
X59711Y98113D01*
X59722Y98132D01*
X59733Y98154D01*
X59747Y98179D01*
X59758Y98209D01*
X59769Y98242D01*
X59780Y98277D01*
X59788Y98315D01*
X59796Y98359D01*
X59801Y98405D01*
X59807Y98454D01*
Y98534D01*
X59804Y98555D01*
Y98580D01*
X59801Y98607D01*
X59799Y98640D01*
X59793Y98673D01*
X59780Y98747D01*
X59760Y98817D01*
X59733Y98886D01*
X59714Y98918D01*
X59695Y98946D01*
Y98949D01*
X59689Y98951D01*
X59676Y98968D01*
X59651Y98989D01*
X59618Y99014D01*
X59580Y99039D01*
X59534Y99060D01*
X59485Y99077D01*
X59457Y99080D01*
X59427Y99082D01*
X59425D01*
X59422D01*
X59405Y99080D01*
X59381Y99077D01*
X59351Y99071D01*
X59315Y99058D01*
X59277Y99041D01*
X59242Y99020D01*
X59206Y98987D01*
X59203Y98981D01*
X59198Y98976D01*
X59190Y98965D01*
X59182Y98951D01*
X59174Y98935D01*
X59162Y98913D01*
X59149Y98888D01*
X59135Y98858D01*
X59122Y98823D01*
X59108Y98782D01*
X59092Y98736D01*
X59075Y98681D01*
X59059Y98624D01*
X59040Y98558D01*
X59023Y98484D01*
Y98479D01*
X59021Y98465D01*
X59015Y98446D01*
X59007Y98419D01*
X59001Y98386D01*
X58991Y98348D01*
X58982Y98307D01*
X58969Y98263D01*
X58944Y98171D01*
X58920Y98078D01*
X58906Y98034D01*
X58892Y97996D01*
X58879Y97958D01*
X58865Y97927D01*
Y97925D01*
X58859Y97917D01*
X58854Y97906D01*
X58846Y97892D01*
X58838Y97873D01*
X58824Y97851D01*
X58794Y97805D01*
X58758Y97750D01*
X58715Y97698D01*
X58663Y97646D01*
X58636Y97624D01*
X58608Y97603D01*
X58606D01*
X58600Y97597D01*
X58592Y97592D01*
X58581Y97586D01*
X58567Y97578D01*
X58548Y97570D01*
X58505Y97548D01*
X58453Y97529D01*
X58393Y97513D01*
X58324Y97502D01*
X58251Y97496D01*
X58248D01*
X58242D01*
X58232D01*
X58218Y97499D01*
X58199D01*
X58180Y97502D01*
X58128Y97510D01*
X58070Y97523D01*
X58008Y97545D01*
X57942Y97575D01*
X57907Y97592D01*
X57874Y97614D01*
X57871D01*
X57866Y97619D01*
X57858Y97624D01*
X57844Y97635D01*
X57814Y97660D01*
X57773Y97698D01*
X57729Y97745D01*
X57683Y97802D01*
X57639Y97868D01*
X57598Y97944D01*
Y97947D01*
X57593Y97955D01*
X57590Y97966D01*
X57582Y97982D01*
X57576Y98001D01*
X57568Y98026D01*
X57557Y98053D01*
X57549Y98086D01*
X57541Y98119D01*
X57530Y98157D01*
X57516Y98239D01*
X57505Y98329D01*
X57500Y98427D01*
Y98460D01*
X57503Y98484D01*
Y98514D01*
X57505Y98547D01*
X57508Y98585D01*
X57514Y98629D01*
X57525Y98719D01*
X57541Y98815D01*
X57565Y98910D01*
X57598Y99003D01*
Y99006D01*
X57604Y99014D01*
X57609Y99025D01*
X57617Y99041D01*
X57628Y99060D01*
X57639Y99082D01*
X57672Y99134D01*
X57713Y99191D01*
X57765Y99252D01*
X57825Y99312D01*
X57896Y99363D01*
X57899Y99366D01*
X57904Y99369D01*
X57915Y99375D01*
X57931Y99383D01*
X57950Y99394D01*
X57972Y99405D01*
X58000Y99418D01*
X58030Y99429D01*
X58060Y99443D01*
X58095Y99454D01*
X58174Y99476D01*
X58259Y99492D01*
X58305Y99497D01*
X58352Y99500D01*
X58379Y99186D01*
D02*
G37*
G36*
X60061Y96006D02*
X60058Y95951D01*
X60055Y95888D01*
X60050Y95825D01*
X60044Y95765D01*
X60042Y95735D01*
X60036Y95711D01*
Y95708D01*
X60033Y95703D01*
Y95692D01*
X60031Y95681D01*
X60025Y95664D01*
X60022Y95645D01*
X60009Y95602D01*
X59992Y95552D01*
X59971Y95501D01*
X59946Y95449D01*
X59916Y95400D01*
Y95397D01*
X59913Y95394D01*
X59900Y95378D01*
X59881Y95356D01*
X59853Y95326D01*
X59820Y95296D01*
X59777Y95260D01*
X59730Y95228D01*
X59673Y95198D01*
X59670D01*
X59665Y95195D01*
X59657Y95189D01*
X59646Y95184D01*
X59632Y95178D01*
X59613Y95173D01*
X59572Y95157D01*
X59520Y95143D01*
X59463Y95129D01*
X59397Y95121D01*
X59329Y95118D01*
X59326D01*
X59315D01*
X59299D01*
X59275Y95121D01*
X59247Y95124D01*
X59217Y95129D01*
X59182Y95135D01*
X59141Y95143D01*
X59100Y95154D01*
X59056Y95167D01*
X59012Y95184D01*
X58966Y95206D01*
X58920Y95228D01*
X58873Y95255D01*
X58829Y95288D01*
X58786Y95323D01*
X58783Y95326D01*
X58778Y95334D01*
X58767Y95345D01*
X58750Y95364D01*
X58734Y95386D01*
X58715Y95416D01*
X58696Y95451D01*
X58677Y95492D01*
X58655Y95542D01*
X58636Y95593D01*
X58617Y95656D01*
X58600Y95722D01*
X58587Y95798D01*
X58576Y95880D01*
X58567Y95967D01*
X58565Y96066D01*
Y96710D01*
X57541D01*
Y97043D01*
X60061D01*
Y96006D01*
D02*
G37*
G36*
Y94305D02*
X57541D01*
Y94638D01*
X60061D01*
Y94305D01*
D02*
G37*
G36*
X94888Y102000D02*
X94579D01*
Y103968D01*
X94574Y103963D01*
X94560Y103949D01*
X94536Y103930D01*
X94500Y103903D01*
X94459Y103870D01*
X94407Y103834D01*
X94350Y103796D01*
X94285Y103755D01*
X94282D01*
X94276Y103750D01*
X94268Y103744D01*
X94254Y103739D01*
X94238Y103728D01*
X94219Y103720D01*
X94175Y103695D01*
X94126Y103671D01*
X94072Y103643D01*
X94014Y103619D01*
X93960Y103597D01*
Y103895D01*
X93962Y103897D01*
X93971Y103900D01*
X93984Y103908D01*
X94003Y103916D01*
X94025Y103927D01*
X94052Y103944D01*
X94082Y103960D01*
X94113Y103977D01*
X94183Y104020D01*
X94260Y104072D01*
X94339Y104127D01*
X94413Y104189D01*
X94416Y104192D01*
X94421Y104198D01*
X94432Y104206D01*
X94446Y104219D01*
X94459Y104236D01*
X94478Y104252D01*
X94519Y104299D01*
X94566Y104348D01*
X94612Y104405D01*
X94653Y104465D01*
X94689Y104528D01*
X94888D01*
Y102000D01*
D02*
G37*
G36*
X92592Y104517D02*
X92655Y104514D01*
X92717Y104509D01*
X92778Y104503D01*
X92808Y104501D01*
X92832Y104495D01*
X92835D01*
X92840Y104492D01*
X92851D01*
X92862Y104490D01*
X92879Y104484D01*
X92898Y104481D01*
X92941Y104468D01*
X92990Y104452D01*
X93042Y104430D01*
X93094Y104405D01*
X93143Y104375D01*
X93146D01*
X93149Y104372D01*
X93165Y104359D01*
X93187Y104340D01*
X93217Y104312D01*
X93247Y104279D01*
X93283Y104236D01*
X93315Y104189D01*
X93345Y104132D01*
Y104129D01*
X93348Y104124D01*
X93354Y104116D01*
X93359Y104105D01*
X93365Y104091D01*
X93370Y104072D01*
X93386Y104031D01*
X93400Y103979D01*
X93414Y103922D01*
X93422Y103856D01*
X93425Y103788D01*
Y103785D01*
Y103774D01*
Y103758D01*
X93422Y103734D01*
X93419Y103706D01*
X93414Y103676D01*
X93408Y103641D01*
X93400Y103600D01*
X93389Y103559D01*
X93375Y103515D01*
X93359Y103471D01*
X93337Y103425D01*
X93315Y103379D01*
X93288Y103332D01*
X93255Y103288D01*
X93220Y103245D01*
X93217Y103242D01*
X93209Y103237D01*
X93198Y103226D01*
X93179Y103209D01*
X93157Y103193D01*
X93127Y103174D01*
X93091Y103155D01*
X93051Y103136D01*
X93001Y103114D01*
X92950Y103095D01*
X92887Y103076D01*
X92821Y103059D01*
X92745Y103045D01*
X92663Y103035D01*
X92576Y103026D01*
X92477Y103024D01*
X91833D01*
Y102000D01*
X91500D01*
Y104520D01*
X92537D01*
X92592Y104517D01*
D02*
G37*
G36*
X144769Y95183D02*
X143313D01*
X143311D01*
X143300D01*
X143283D01*
X143259D01*
X143231Y95180D01*
X143201D01*
X143166Y95177D01*
X143130Y95174D01*
X143051Y95169D01*
X142972Y95158D01*
X142896Y95142D01*
X142860Y95134D01*
X142830Y95123D01*
X142827D01*
X142825Y95120D01*
X142816Y95117D01*
X142806Y95112D01*
X142775Y95095D01*
X142743Y95073D01*
X142702Y95046D01*
X142664Y95011D01*
X142625Y94967D01*
X142590Y94915D01*
Y94912D01*
X142587Y94907D01*
X142582Y94899D01*
X142576Y94888D01*
X142571Y94874D01*
X142565Y94855D01*
X142557Y94836D01*
X142549Y94814D01*
X142535Y94760D01*
X142522Y94697D01*
X142511Y94626D01*
X142508Y94549D01*
Y94514D01*
X142511Y94489D01*
X142514Y94459D01*
X142516Y94424D01*
X142522Y94385D01*
X142530Y94345D01*
X142549Y94260D01*
X142563Y94216D01*
X142579Y94173D01*
X142598Y94132D01*
X142620Y94093D01*
X142645Y94058D01*
X142675Y94025D01*
X142677Y94022D01*
X142683Y94017D01*
X142694Y94011D01*
X142707Y94001D01*
X142726Y93990D01*
X142751Y93976D01*
X142781Y93960D01*
X142816Y93946D01*
X142857Y93932D01*
X142904Y93916D01*
X142956Y93902D01*
X143013Y93891D01*
X143079Y93880D01*
X143150Y93872D01*
X143229Y93870D01*
X143313Y93867D01*
X144769D01*
Y93534D01*
X143313D01*
X143308D01*
X143297D01*
X143278D01*
X143251D01*
X143218Y93537D01*
X143182Y93539D01*
X143141Y93542D01*
X143095Y93545D01*
X142999Y93556D01*
X142898Y93569D01*
X142800Y93591D01*
X142754Y93605D01*
X142710Y93621D01*
X142707D01*
X142699Y93624D01*
X142688Y93629D01*
X142672Y93638D01*
X142653Y93648D01*
X142631Y93659D01*
X142582Y93692D01*
X142552Y93711D01*
X142524Y93733D01*
X142492Y93760D01*
X142462Y93788D01*
X142432Y93820D01*
X142402Y93853D01*
X142374Y93891D01*
X142347Y93932D01*
X142344Y93935D01*
X142341Y93943D01*
X142333Y93954D01*
X142325Y93973D01*
X142314Y93995D01*
X142303Y94022D01*
X142290Y94052D01*
X142279Y94091D01*
X142265Y94129D01*
X142251Y94173D01*
X142241Y94222D01*
X142229Y94274D01*
X142221Y94331D01*
X142213Y94391D01*
X142210Y94454D01*
X142208Y94519D01*
Y94555D01*
X142210Y94579D01*
Y94609D01*
X142213Y94642D01*
X142219Y94683D01*
X142224Y94724D01*
X142238Y94817D01*
X142260Y94915D01*
X142290Y95011D01*
X142306Y95057D01*
X142328Y95101D01*
X142331Y95104D01*
X142333Y95112D01*
X142341Y95123D01*
X142350Y95136D01*
X142363Y95155D01*
X142380Y95177D01*
X142396Y95199D01*
X142418Y95224D01*
X142467Y95278D01*
X142527Y95330D01*
X142598Y95379D01*
X142639Y95401D01*
X142680Y95420D01*
X142683D01*
X142691Y95423D01*
X142705Y95428D01*
X142724Y95434D01*
X142745Y95442D01*
X142775Y95450D01*
X142808Y95458D01*
X142847Y95467D01*
X142890Y95477D01*
X142937Y95486D01*
X142989Y95494D01*
X143046Y95499D01*
X143106Y95508D01*
X143171Y95510D01*
X143240Y95516D01*
X143313D01*
X144769D01*
Y95183D01*
D02*
G37*
G36*
X143087Y92775D02*
X143084D01*
X143079D01*
X143068Y92772D01*
X143054Y92769D01*
X143038Y92767D01*
X143021Y92764D01*
X142975Y92753D01*
X142926Y92739D01*
X142874Y92723D01*
X142822Y92701D01*
X142773Y92674D01*
X142767Y92671D01*
X142754Y92657D01*
X142732Y92638D01*
X142705Y92611D01*
X142672Y92576D01*
X142642Y92532D01*
X142609Y92480D01*
X142579Y92420D01*
Y92417D01*
X142576Y92412D01*
X142573Y92404D01*
X142568Y92390D01*
X142563Y92374D01*
X142554Y92354D01*
X142549Y92333D01*
X142543Y92308D01*
X142530Y92251D01*
X142516Y92182D01*
X142508Y92111D01*
X142505Y92032D01*
Y92000D01*
X142508Y91983D01*
Y91964D01*
X142514Y91920D01*
X142519Y91869D01*
X142527Y91811D01*
X142541Y91754D01*
X142560Y91699D01*
Y91697D01*
X142563Y91694D01*
X142565Y91686D01*
X142571Y91675D01*
X142584Y91650D01*
X142601Y91617D01*
X142623Y91582D01*
X142650Y91544D01*
X142680Y91511D01*
X142716Y91481D01*
X142721Y91478D01*
X142732Y91470D01*
X142754Y91456D01*
X142781Y91443D01*
X142814Y91432D01*
X142849Y91418D01*
X142890Y91410D01*
X142931Y91407D01*
X142934D01*
X142937D01*
X142950D01*
X142975Y91410D01*
X143002Y91415D01*
X143035Y91423D01*
X143070Y91437D01*
X143106Y91453D01*
X143139Y91478D01*
X143141Y91481D01*
X143152Y91492D01*
X143169Y91508D01*
X143191Y91533D01*
X143212Y91563D01*
X143237Y91604D01*
X143262Y91650D01*
X143286Y91705D01*
X143289Y91710D01*
X143291Y91716D01*
X143294Y91726D01*
X143297Y91737D01*
X143302Y91754D01*
X143311Y91776D01*
X143316Y91798D01*
X143324Y91827D01*
X143335Y91857D01*
X143343Y91896D01*
X143354Y91937D01*
X143368Y91983D01*
X143379Y92032D01*
X143395Y92090D01*
X143409Y92152D01*
Y92155D01*
X143412Y92166D01*
X143417Y92185D01*
X143423Y92207D01*
X143431Y92237D01*
X143439Y92270D01*
X143450Y92303D01*
X143461Y92341D01*
X143485Y92423D01*
X143513Y92502D01*
X143526Y92540D01*
X143540Y92576D01*
X143554Y92608D01*
X143567Y92636D01*
Y92638D01*
X143573Y92644D01*
X143578Y92652D01*
X143584Y92666D01*
X143603Y92698D01*
X143630Y92737D01*
X143666Y92783D01*
X143704Y92827D01*
X143750Y92870D01*
X143799Y92906D01*
X143802D01*
X143805Y92909D01*
X143813Y92914D01*
X143824Y92919D01*
X143854Y92933D01*
X143892Y92949D01*
X143939Y92966D01*
X143993Y92980D01*
X144053Y92990D01*
X144116Y92993D01*
X144119D01*
X144124D01*
X144135D01*
X144149Y92990D01*
X144165D01*
X144184Y92988D01*
X144233Y92980D01*
X144288Y92966D01*
X144345Y92949D01*
X144408Y92922D01*
X144471Y92887D01*
X144474D01*
X144479Y92881D01*
X144487Y92876D01*
X144498Y92868D01*
X144528Y92840D01*
X144566Y92805D01*
X144607Y92761D01*
X144648Y92707D01*
X144689Y92644D01*
X144725Y92570D01*
Y92567D01*
X144728Y92562D01*
X144733Y92548D01*
X144738Y92535D01*
X144744Y92515D01*
X144752Y92491D01*
X144760Y92464D01*
X144769Y92434D01*
X144777Y92401D01*
X144785Y92365D01*
X144799Y92289D01*
X144809Y92202D01*
X144812Y92109D01*
Y92062D01*
X144809Y92038D01*
X144807Y92008D01*
X144804Y91978D01*
X144801Y91942D01*
X144790Y91866D01*
X144774Y91781D01*
X144749Y91697D01*
X144719Y91615D01*
Y91612D01*
X144714Y91606D01*
X144711Y91593D01*
X144703Y91579D01*
X144692Y91563D01*
X144681Y91541D01*
X144654Y91494D01*
X144616Y91440D01*
X144569Y91385D01*
X144517Y91333D01*
X144455Y91287D01*
X144452Y91284D01*
X144446Y91281D01*
X144438Y91276D01*
X144424Y91268D01*
X144408Y91260D01*
X144389Y91249D01*
X144364Y91241D01*
X144340Y91227D01*
X144282Y91205D01*
X144214Y91186D01*
X144141Y91170D01*
X144059Y91161D01*
X144034Y91481D01*
X144037D01*
X144045Y91483D01*
X144056D01*
X144072Y91486D01*
X144094Y91492D01*
X144116Y91497D01*
X144168Y91514D01*
X144225Y91535D01*
X144285Y91568D01*
X144343Y91606D01*
X144367Y91631D01*
X144392Y91658D01*
X144394Y91661D01*
X144397Y91664D01*
X144403Y91675D01*
X144411Y91686D01*
X144419Y91702D01*
X144430Y91721D01*
X144441Y91743D01*
X144455Y91767D01*
X144465Y91798D01*
X144476Y91830D01*
X144487Y91866D01*
X144495Y91904D01*
X144504Y91948D01*
X144509Y91994D01*
X144515Y92043D01*
Y92122D01*
X144512Y92144D01*
Y92169D01*
X144509Y92196D01*
X144506Y92229D01*
X144501Y92262D01*
X144487Y92335D01*
X144468Y92406D01*
X144441Y92475D01*
X144422Y92507D01*
X144403Y92535D01*
Y92537D01*
X144397Y92540D01*
X144384Y92556D01*
X144359Y92578D01*
X144326Y92603D01*
X144288Y92627D01*
X144242Y92649D01*
X144192Y92666D01*
X144165Y92668D01*
X144135Y92671D01*
X144132D01*
X144130D01*
X144113Y92668D01*
X144089Y92666D01*
X144059Y92660D01*
X144023Y92646D01*
X143985Y92630D01*
X143949Y92608D01*
X143914Y92576D01*
X143911Y92570D01*
X143906Y92565D01*
X143898Y92554D01*
X143889Y92540D01*
X143881Y92524D01*
X143870Y92502D01*
X143857Y92477D01*
X143843Y92447D01*
X143829Y92412D01*
X143816Y92371D01*
X143799Y92324D01*
X143783Y92270D01*
X143766Y92212D01*
X143747Y92147D01*
X143731Y92073D01*
Y92068D01*
X143728Y92054D01*
X143723Y92035D01*
X143715Y92008D01*
X143709Y91975D01*
X143698Y91937D01*
X143690Y91896D01*
X143676Y91852D01*
X143652Y91759D01*
X143627Y91666D01*
X143614Y91623D01*
X143600Y91584D01*
X143586Y91546D01*
X143573Y91516D01*
Y91514D01*
X143567Y91505D01*
X143562Y91494D01*
X143554Y91481D01*
X143545Y91462D01*
X143532Y91440D01*
X143502Y91393D01*
X143466Y91339D01*
X143423Y91287D01*
X143371Y91235D01*
X143343Y91213D01*
X143316Y91191D01*
X143313D01*
X143308Y91186D01*
X143300Y91180D01*
X143289Y91175D01*
X143275Y91167D01*
X143256Y91159D01*
X143212Y91137D01*
X143160Y91118D01*
X143100Y91101D01*
X143032Y91090D01*
X142958Y91085D01*
X142956D01*
X142950D01*
X142939D01*
X142926Y91088D01*
X142907D01*
X142887Y91090D01*
X142836Y91099D01*
X142778Y91112D01*
X142716Y91134D01*
X142650Y91164D01*
X142614Y91180D01*
X142582Y91202D01*
X142579D01*
X142573Y91208D01*
X142565Y91213D01*
X142552Y91224D01*
X142522Y91249D01*
X142481Y91287D01*
X142437Y91333D01*
X142391Y91391D01*
X142347Y91456D01*
X142306Y91533D01*
Y91535D01*
X142300Y91544D01*
X142298Y91554D01*
X142290Y91571D01*
X142284Y91590D01*
X142276Y91615D01*
X142265Y91642D01*
X142257Y91675D01*
X142249Y91707D01*
X142238Y91746D01*
X142224Y91827D01*
X142213Y91918D01*
X142208Y92016D01*
Y92049D01*
X142210Y92073D01*
Y92103D01*
X142213Y92136D01*
X142216Y92174D01*
X142221Y92218D01*
X142232Y92308D01*
X142249Y92404D01*
X142273Y92499D01*
X142306Y92592D01*
Y92595D01*
X142311Y92603D01*
X142317Y92614D01*
X142325Y92630D01*
X142336Y92649D01*
X142347Y92671D01*
X142380Y92723D01*
X142421Y92780D01*
X142473Y92840D01*
X142533Y92900D01*
X142604Y92952D01*
X142606Y92955D01*
X142612Y92958D01*
X142623Y92963D01*
X142639Y92971D01*
X142658Y92982D01*
X142680Y92993D01*
X142707Y93007D01*
X142737Y93018D01*
X142767Y93031D01*
X142803Y93042D01*
X142882Y93064D01*
X142967Y93081D01*
X143013Y93086D01*
X143060Y93089D01*
X143087Y92775D01*
D02*
G37*
G36*
X144769Y89654D02*
X144766Y89630D01*
Y89600D01*
X144763Y89570D01*
X144757Y89534D01*
X144749Y89463D01*
X144736Y89384D01*
X144717Y89310D01*
X144689Y89240D01*
Y89237D01*
X144687Y89231D01*
X144681Y89223D01*
X144676Y89209D01*
X144657Y89179D01*
X144632Y89139D01*
X144599Y89095D01*
X144558Y89051D01*
X144509Y89007D01*
X144455Y88967D01*
X144452D01*
X144446Y88961D01*
X144438Y88958D01*
X144427Y88950D01*
X144414Y88942D01*
X144394Y88934D01*
X144353Y88915D01*
X144304Y88898D01*
X144247Y88882D01*
X144187Y88871D01*
X144121Y88866D01*
X144119D01*
X144113D01*
X144105D01*
X144094D01*
X144064Y88871D01*
X144023Y88876D01*
X143977Y88887D01*
X143925Y88904D01*
X143873Y88925D01*
X143818Y88956D01*
X143816D01*
X143813Y88958D01*
X143805Y88964D01*
X143794Y88972D01*
X143769Y88991D01*
X143737Y89021D01*
X143701Y89057D01*
X143663Y89103D01*
X143625Y89155D01*
X143589Y89218D01*
Y89215D01*
X143586Y89207D01*
X143581Y89196D01*
X143575Y89179D01*
X143567Y89160D01*
X143559Y89139D01*
X143535Y89089D01*
X143505Y89032D01*
X143464Y88975D01*
X143417Y88917D01*
X143360Y88868D01*
X143357Y88866D01*
X143352Y88863D01*
X143343Y88857D01*
X143333Y88849D01*
X143316Y88838D01*
X143297Y88827D01*
X143275Y88816D01*
X143251Y88805D01*
X143196Y88784D01*
X143130Y88762D01*
X143057Y88748D01*
X143018Y88743D01*
X142978D01*
X142975D01*
X142969D01*
X142961D01*
X142947D01*
X142931Y88745D01*
X142915D01*
X142871Y88751D01*
X142819Y88762D01*
X142765Y88775D01*
X142705Y88794D01*
X142647Y88819D01*
X142645D01*
X142642Y88822D01*
X142634Y88827D01*
X142623Y88833D01*
X142595Y88849D01*
X142563Y88871D01*
X142524Y88895D01*
X142486Y88928D01*
X142448Y88964D01*
X142412Y89005D01*
X142410Y89010D01*
X142399Y89024D01*
X142385Y89048D01*
X142366Y89081D01*
X142347Y89119D01*
X142325Y89166D01*
X142306Y89220D01*
X142290Y89280D01*
Y89283D01*
X142287Y89289D01*
Y89297D01*
X142284Y89310D01*
X142281Y89327D01*
X142276Y89346D01*
X142273Y89368D01*
X142271Y89392D01*
X142265Y89420D01*
X142262Y89452D01*
X142254Y89521D01*
X142251Y89600D01*
X142249Y89687D01*
Y90645D01*
X144769D01*
Y89654D01*
D02*
G37*
G36*
X144146Y88169D02*
X144149Y88161D01*
X144157Y88147D01*
X144165Y88128D01*
X144176Y88107D01*
X144192Y88079D01*
X144209Y88049D01*
X144225Y88019D01*
X144269Y87948D01*
X144321Y87872D01*
X144375Y87793D01*
X144438Y87719D01*
X144441Y87716D01*
X144446Y87711D01*
X144455Y87700D01*
X144468Y87686D01*
X144484Y87673D01*
X144501Y87653D01*
X144547Y87612D01*
X144597Y87566D01*
X144654Y87520D01*
X144714Y87479D01*
X144777Y87443D01*
Y87244D01*
X142249D01*
Y87552D01*
X144217D01*
X144211Y87558D01*
X144198Y87571D01*
X144179Y87596D01*
X144151Y87631D01*
X144119Y87673D01*
X144083Y87724D01*
X144045Y87782D01*
X144004Y87847D01*
Y87850D01*
X143999Y87855D01*
X143993Y87863D01*
X143988Y87877D01*
X143977Y87894D01*
X143969Y87913D01*
X143944Y87956D01*
X143919Y88006D01*
X143892Y88060D01*
X143868Y88117D01*
X143846Y88172D01*
X144143D01*
X144146Y88169D01*
D02*
G37*
G36*
X107044Y73731D02*
X107039D01*
X107025D01*
X107003D01*
X106975Y73734D01*
X106942Y73737D01*
X106906Y73745D01*
X106867Y73753D01*
X106828Y73767D01*
X106826D01*
X106820Y73770D01*
X106812Y73773D01*
X106798Y73778D01*
X106784Y73787D01*
X106765Y73795D01*
X106720Y73817D01*
X106668Y73845D01*
X106609Y73881D01*
X106549Y73922D01*
X106488Y73972D01*
X106485Y73975D01*
X106479Y73978D01*
X106471Y73986D01*
X106457Y74000D01*
X106443Y74014D01*
X106424Y74033D01*
X106402Y74053D01*
X106377Y74077D01*
X106349Y74105D01*
X106322Y74136D01*
X106288Y74169D01*
X106255Y74208D01*
X106219Y74246D01*
X106183Y74291D01*
X106144Y74335D01*
X106103Y74385D01*
X106100Y74391D01*
X106086Y74404D01*
X106069Y74424D01*
X106044Y74451D01*
X106017Y74485D01*
X105983Y74523D01*
X105947Y74568D01*
X105906Y74612D01*
X105820Y74706D01*
X105729Y74798D01*
X105684Y74842D01*
X105640Y74884D01*
X105598Y74919D01*
X105560Y74950D01*
X105557Y74953D01*
X105551Y74956D01*
X105540Y74964D01*
X105526Y74972D01*
X105507Y74986D01*
X105488Y74997D01*
X105438Y75025D01*
X105380Y75052D01*
X105316Y75077D01*
X105250Y75094D01*
X105216Y75097D01*
X105183Y75100D01*
X105180D01*
X105175D01*
X105164D01*
X105152Y75097D01*
X105136D01*
X105116Y75091D01*
X105075Y75083D01*
X105025Y75066D01*
X104973Y75041D01*
X104945Y75028D01*
X104920Y75008D01*
X104895Y74989D01*
X104870Y74964D01*
X104867Y74961D01*
X104865Y74958D01*
X104859Y74950D01*
X104851Y74939D01*
X104840Y74925D01*
X104828Y74909D01*
X104804Y74870D01*
X104781Y74817D01*
X104759Y74759D01*
X104745Y74690D01*
X104740Y74651D01*
Y74590D01*
X104743Y74573D01*
Y74554D01*
X104748Y74532D01*
X104756Y74482D01*
X104773Y74424D01*
X104798Y74363D01*
X104815Y74332D01*
X104831Y74302D01*
X104853Y74274D01*
X104878Y74246D01*
X104881Y74244D01*
X104884Y74241D01*
X104892Y74235D01*
X104903Y74224D01*
X104917Y74216D01*
X104934Y74205D01*
X104953Y74191D01*
X104975Y74180D01*
X105000Y74166D01*
X105028Y74155D01*
X105094Y74133D01*
X105166Y74116D01*
X105208Y74114D01*
X105252Y74111D01*
X105219Y73789D01*
X105213D01*
X105202Y73792D01*
X105186Y73795D01*
X105161Y73798D01*
X105130Y73803D01*
X105094Y73812D01*
X105056Y73820D01*
X105014Y73834D01*
X104973Y73848D01*
X104925Y73864D01*
X104881Y73886D01*
X104837Y73909D01*
X104790Y73936D01*
X104748Y73967D01*
X104707Y74000D01*
X104671Y74039D01*
X104668Y74041D01*
X104662Y74050D01*
X104654Y74061D01*
X104640Y74077D01*
X104626Y74100D01*
X104610Y74127D01*
X104593Y74158D01*
X104574Y74194D01*
X104557Y74233D01*
X104540Y74277D01*
X104524Y74324D01*
X104510Y74377D01*
X104496Y74432D01*
X104488Y74490D01*
X104482Y74554D01*
X104479Y74620D01*
Y74656D01*
X104482Y74681D01*
X104485Y74712D01*
X104490Y74748D01*
X104496Y74789D01*
X104504Y74831D01*
X104515Y74878D01*
X104529Y74925D01*
X104546Y74975D01*
X104565Y75022D01*
X104590Y75072D01*
X104618Y75119D01*
X104648Y75163D01*
X104684Y75205D01*
X104687Y75208D01*
X104693Y75213D01*
X104707Y75224D01*
X104720Y75238D01*
X104740Y75255D01*
X104765Y75274D01*
X104792Y75293D01*
X104826Y75313D01*
X104859Y75332D01*
X104898Y75352D01*
X104939Y75371D01*
X104984Y75388D01*
X105033Y75402D01*
X105083Y75413D01*
X105136Y75418D01*
X105191Y75421D01*
X105194D01*
X105197D01*
X105205D01*
X105216D01*
X105247Y75418D01*
X105286Y75413D01*
X105333Y75404D01*
X105382Y75393D01*
X105438Y75379D01*
X105493Y75357D01*
X105496D01*
X105499Y75354D01*
X105507Y75352D01*
X105518Y75346D01*
X105549Y75330D01*
X105587Y75307D01*
X105634Y75277D01*
X105687Y75241D01*
X105743Y75199D01*
X105804Y75147D01*
X105806Y75144D01*
X105812Y75141D01*
X105820Y75130D01*
X105834Y75119D01*
X105851Y75102D01*
X105870Y75083D01*
X105895Y75061D01*
X105920Y75033D01*
X105950Y75000D01*
X105983Y74964D01*
X106022Y74925D01*
X106061Y74881D01*
X106105Y74834D01*
X106150Y74781D01*
X106200Y74723D01*
X106252Y74662D01*
X106255Y74659D01*
X106263Y74651D01*
X106274Y74634D01*
X106291Y74618D01*
X106310Y74593D01*
X106333Y74568D01*
X106382Y74510D01*
X106435Y74449D01*
X106490Y74391D01*
X106515Y74363D01*
X106537Y74338D01*
X106560Y74316D01*
X106576Y74299D01*
X106579Y74296D01*
X106590Y74285D01*
X106607Y74271D01*
X106629Y74252D01*
X106654Y74230D01*
X106682Y74208D01*
X106743Y74163D01*
Y75424D01*
X107044D01*
Y73731D01*
D02*
G37*
G36*
X107241Y73393D02*
Y73391D01*
X107236Y73382D01*
X107230Y73366D01*
X107222Y73346D01*
X107211Y73321D01*
X107200Y73291D01*
X107183Y73257D01*
X107164Y73221D01*
X107144Y73183D01*
X107122Y73138D01*
X107069Y73047D01*
X107006Y72947D01*
X106931Y72845D01*
X106934Y72842D01*
X106936Y72831D01*
X106945Y72817D01*
X106956Y72795D01*
X106967Y72767D01*
X106981Y72737D01*
X106995Y72701D01*
X107008Y72659D01*
X107022Y72615D01*
X107036Y72565D01*
X107050Y72515D01*
X107061Y72460D01*
X107080Y72341D01*
X107083Y72280D01*
X107086Y72216D01*
Y72183D01*
X107083Y72158D01*
X107080Y72127D01*
X107078Y72091D01*
X107072Y72053D01*
X107064Y72008D01*
X107055Y71961D01*
X107044Y71911D01*
X107031Y71859D01*
X107017Y71806D01*
X106997Y71751D01*
X106975Y71695D01*
X106950Y71640D01*
X106920Y71587D01*
X106917Y71584D01*
X106912Y71576D01*
X106903Y71560D01*
X106889Y71540D01*
X106873Y71518D01*
X106851Y71490D01*
X106826Y71460D01*
X106798Y71427D01*
X106767Y71393D01*
X106731Y71357D01*
X106693Y71321D01*
X106651Y71285D01*
X106607Y71249D01*
X106560Y71216D01*
X106507Y71183D01*
X106452Y71152D01*
X106449Y71150D01*
X106438Y71147D01*
X106421Y71139D01*
X106399Y71127D01*
X106369Y71116D01*
X106335Y71105D01*
X106297Y71091D01*
X106252Y71078D01*
X106202Y71061D01*
X106150Y71047D01*
X106094Y71036D01*
X106033Y71025D01*
X105973Y71014D01*
X105906Y71005D01*
X105837Y71003D01*
X105768Y71000D01*
X105762D01*
X105751D01*
X105731D01*
X105704Y71003D01*
X105670Y71005D01*
X105632Y71008D01*
X105587Y71014D01*
X105538Y71019D01*
X105488Y71028D01*
X105432Y71036D01*
X105316Y71064D01*
X105258Y71083D01*
X105197Y71102D01*
X105136Y71125D01*
X105078Y71152D01*
X105075Y71155D01*
X105064Y71161D01*
X105047Y71169D01*
X105028Y71180D01*
X105000Y71197D01*
X104970Y71216D01*
X104939Y71238D01*
X104903Y71263D01*
X104865Y71294D01*
X104826Y71327D01*
X104787Y71360D01*
X104748Y71399D01*
X104709Y71443D01*
X104673Y71487D01*
X104637Y71535D01*
X104607Y71587D01*
X104604Y71590D01*
X104598Y71601D01*
X104593Y71615D01*
X104582Y71637D01*
X104568Y71665D01*
X104554Y71695D01*
X104540Y71734D01*
X104524Y71773D01*
X104510Y71820D01*
X104496Y71867D01*
X104482Y71920D01*
X104468Y71978D01*
X104457Y72036D01*
X104452Y72097D01*
X104446Y72161D01*
X104443Y72224D01*
Y72258D01*
X104446Y72282D01*
X104449Y72316D01*
X104452Y72352D01*
X104457Y72391D01*
X104466Y72435D01*
X104474Y72485D01*
X104485Y72535D01*
X104499Y72587D01*
X104515Y72643D01*
X104535Y72698D01*
X104557Y72753D01*
X104582Y72806D01*
X104612Y72861D01*
X104615Y72864D01*
X104621Y72875D01*
X104629Y72889D01*
X104643Y72909D01*
X104659Y72934D01*
X104682Y72958D01*
X104707Y72989D01*
X104734Y73022D01*
X104768Y73058D01*
X104801Y73094D01*
X104840Y73130D01*
X104881Y73166D01*
X104928Y73199D01*
X104975Y73235D01*
X105028Y73266D01*
X105083Y73296D01*
X105086Y73299D01*
X105097Y73302D01*
X105114Y73310D01*
X105136Y73318D01*
X105164Y73332D01*
X105200Y73343D01*
X105238Y73357D01*
X105283Y73371D01*
X105330Y73385D01*
X105382Y73399D01*
X105438Y73413D01*
X105499Y73424D01*
X105560Y73432D01*
X105626Y73440D01*
X105695Y73443D01*
X105765Y73446D01*
X105768D01*
X105779D01*
X105795D01*
X105817Y73443D01*
X105845D01*
X105878Y73440D01*
X105914Y73438D01*
X105953Y73435D01*
X105997Y73429D01*
X106042Y73421D01*
X106139Y73404D01*
X106236Y73382D01*
X106333Y73349D01*
X106335D01*
X106344Y73343D01*
X106358Y73338D01*
X106374Y73330D01*
X106396Y73321D01*
X106421Y73307D01*
X106452Y73294D01*
X106482Y73277D01*
X106551Y73235D01*
X106623Y73185D01*
X106698Y73127D01*
X106770Y73058D01*
X106773Y73061D01*
X106779Y73069D01*
X106787Y73080D01*
X106798Y73100D01*
X106809Y73119D01*
X106826Y73144D01*
X106842Y73172D01*
X106862Y73202D01*
X106900Y73269D01*
X106939Y73343D01*
X106978Y73421D01*
X107008Y73496D01*
X107241Y73393D01*
D02*
G37*
G36*
X67256Y134273D02*
X65176D01*
Y134500D01*
X67256D01*
Y134273D01*
D02*
G37*
G36*
X61708Y133833D02*
X61730D01*
X61761Y133830D01*
X61794Y133824D01*
X61830Y133819D01*
X61871Y133810D01*
X61916Y133799D01*
X61960Y133785D01*
X62007Y133772D01*
X62054Y133752D01*
X62101Y133727D01*
X62146Y133702D01*
X62193Y133672D01*
X62234Y133636D01*
X62237Y133633D01*
X62243Y133627D01*
X62254Y133616D01*
X62270Y133600D01*
X62287Y133580D01*
X62306Y133555D01*
X62326Y133528D01*
X62348Y133494D01*
X62370Y133461D01*
X62392Y133420D01*
X62414Y133378D01*
X62434Y133331D01*
X62450Y133281D01*
X62467Y133229D01*
X62478Y133173D01*
X62486Y133115D01*
X62173Y133073D01*
Y133076D01*
X62171Y133085D01*
X62168Y133098D01*
X62162Y133118D01*
X62157Y133140D01*
X62151Y133165D01*
X62132Y133223D01*
X62107Y133287D01*
X62076Y133351D01*
X62038Y133409D01*
X62015Y133434D01*
X61993Y133458D01*
X61991D01*
X61988Y133464D01*
X61980Y133470D01*
X61971Y133478D01*
X61944Y133494D01*
X61905Y133517D01*
X61858Y133539D01*
X61805Y133555D01*
X61741Y133569D01*
X61675Y133575D01*
X61653D01*
X61636Y133572D01*
X61619Y133569D01*
X61594Y133566D01*
X61545Y133555D01*
X61484Y133539D01*
X61420Y133511D01*
X61389Y133492D01*
X61359Y133472D01*
X61329Y133450D01*
X61298Y133423D01*
X61295Y133420D01*
X61292Y133414D01*
X61284Y133406D01*
X61273Y133395D01*
X61262Y133381D01*
X61251Y133362D01*
X61237Y133342D01*
X61221Y133317D01*
X61193Y133262D01*
X61171Y133198D01*
X61151Y133123D01*
X61149Y133085D01*
X61146Y133043D01*
Y133040D01*
Y133035D01*
Y133021D01*
X61149Y133007D01*
X61151Y132988D01*
X61154Y132968D01*
X61162Y132918D01*
X61182Y132860D01*
X61207Y132802D01*
X61223Y132772D01*
X61243Y132744D01*
X61265Y132716D01*
X61290Y132688D01*
X61292Y132686D01*
X61295Y132683D01*
X61304Y132675D01*
X61315Y132666D01*
X61329Y132655D01*
X61345Y132644D01*
X61387Y132616D01*
X61439Y132591D01*
X61500Y132569D01*
X61569Y132553D01*
X61608Y132550D01*
X61647Y132547D01*
X61664D01*
X61683Y132550D01*
X61708D01*
X61741Y132555D01*
X61777Y132561D01*
X61822Y132569D01*
X61869Y132580D01*
X61835Y132306D01*
X61830D01*
X61816Y132309D01*
X61799Y132312D01*
X61763D01*
X61750Y132309D01*
X61730D01*
X61711Y132306D01*
X61664Y132298D01*
X61608Y132287D01*
X61547Y132267D01*
X61484Y132243D01*
X61423Y132206D01*
X61420D01*
X61414Y132201D01*
X61409Y132195D01*
X61398Y132187D01*
X61370Y132162D01*
X61340Y132126D01*
X61312Y132082D01*
X61284Y132026D01*
X61273Y131996D01*
X61268Y131960D01*
X61262Y131924D01*
X61259Y131885D01*
Y131882D01*
Y131877D01*
Y131869D01*
X61262Y131855D01*
X61265Y131824D01*
X61273Y131783D01*
X61287Y131738D01*
X61309Y131691D01*
X61340Y131641D01*
X61356Y131619D01*
X61378Y131597D01*
X61384Y131591D01*
X61401Y131580D01*
X61426Y131561D01*
X61459Y131539D01*
X61503Y131519D01*
X61556Y131500D01*
X61614Y131489D01*
X61680Y131483D01*
X61697D01*
X61711Y131486D01*
X61727D01*
X61744Y131489D01*
X61788Y131497D01*
X61835Y131511D01*
X61888Y131533D01*
X61938Y131561D01*
X61988Y131600D01*
X61993Y131605D01*
X62007Y131622D01*
X62029Y131647D01*
X62051Y131686D01*
X62079Y131733D01*
X62104Y131794D01*
X62126Y131863D01*
X62143Y131943D01*
X62456Y131888D01*
Y131885D01*
X62453Y131874D01*
X62450Y131857D01*
X62445Y131835D01*
X62436Y131810D01*
X62428Y131780D01*
X62417Y131747D01*
X62403Y131711D01*
X62367Y131630D01*
X62348Y131591D01*
X62323Y131550D01*
X62295Y131511D01*
X62265Y131472D01*
X62232Y131434D01*
X62195Y131400D01*
X62193Y131398D01*
X62187Y131392D01*
X62173Y131384D01*
X62160Y131373D01*
X62137Y131359D01*
X62115Y131345D01*
X62088Y131328D01*
X62054Y131312D01*
X62021Y131298D01*
X61982Y131281D01*
X61941Y131267D01*
X61896Y131254D01*
X61847Y131243D01*
X61797Y131234D01*
X61744Y131229D01*
X61689Y131226D01*
X61653D01*
X61633Y131229D01*
X61614Y131231D01*
X61561Y131237D01*
X61503Y131248D01*
X61437Y131265D01*
X61370Y131287D01*
X61304Y131317D01*
X61301D01*
X61295Y131320D01*
X61287Y131326D01*
X61273Y131334D01*
X61243Y131353D01*
X61204Y131381D01*
X61160Y131417D01*
X61115Y131459D01*
X61071Y131506D01*
X61032Y131561D01*
Y131564D01*
X61029Y131567D01*
X61024Y131578D01*
X61018Y131589D01*
X61010Y131603D01*
X61002Y131619D01*
X60985Y131661D01*
X60968Y131711D01*
X60952Y131766D01*
X60941Y131827D01*
X60938Y131891D01*
Y131894D01*
Y131899D01*
Y131907D01*
Y131918D01*
X60944Y131952D01*
X60949Y131990D01*
X60960Y132037D01*
X60977Y132087D01*
X60999Y132140D01*
X61029Y132193D01*
Y132195D01*
X61032Y132198D01*
X61046Y132215D01*
X61065Y132240D01*
X61096Y132270D01*
X61132Y132306D01*
X61179Y132342D01*
X61232Y132375D01*
X61292Y132409D01*
X61290D01*
X61281Y132411D01*
X61270Y132414D01*
X61254Y132420D01*
X61237Y132425D01*
X61215Y132434D01*
X61162Y132456D01*
X61107Y132486D01*
X61049Y132522D01*
X60991Y132569D01*
X60941Y132627D01*
X60938Y132630D01*
X60935Y132636D01*
X60930Y132644D01*
X60921Y132658D01*
X60910Y132672D01*
X60899Y132691D01*
X60888Y132713D01*
X60877Y132741D01*
X60866Y132769D01*
X60855Y132799D01*
X60833Y132869D01*
X60819Y132949D01*
X60813Y132993D01*
Y133037D01*
Y133040D01*
Y133051D01*
X60816Y133071D01*
Y133093D01*
X60822Y133123D01*
X60827Y133157D01*
X60833Y133193D01*
X60844Y133234D01*
X60858Y133279D01*
X60874Y133323D01*
X60894Y133370D01*
X60919Y133417D01*
X60946Y133467D01*
X60979Y133514D01*
X61015Y133561D01*
X61060Y133605D01*
X61063Y133608D01*
X61071Y133616D01*
X61085Y133627D01*
X61104Y133641D01*
X61126Y133658D01*
X61157Y133677D01*
X61190Y133700D01*
X61229Y133719D01*
X61270Y133741D01*
X61317Y133763D01*
X61367Y133783D01*
X61423Y133799D01*
X61481Y133813D01*
X61542Y133824D01*
X61606Y133833D01*
X61675Y133835D01*
X61689D01*
X61708Y133833D01*
D02*
G37*
G36*
X69500Y131234D02*
X68312D01*
X68281Y131237D01*
X68251D01*
X68215Y131240D01*
X68173Y131243D01*
X68090Y131251D01*
X68004Y131265D01*
X67921Y131281D01*
X67885Y131292D01*
X67849Y131303D01*
X67846D01*
X67841Y131306D01*
X67832Y131312D01*
X67819Y131317D01*
X67785Y131334D01*
X67747Y131359D01*
X67699Y131392D01*
X67652Y131436D01*
X67605Y131486D01*
X67564Y131547D01*
Y131550D01*
X67558Y131555D01*
X67553Y131564D01*
X67547Y131578D01*
X67539Y131594D01*
X67531Y131614D01*
X67519Y131636D01*
X67508Y131661D01*
X67489Y131719D01*
X67472Y131783D01*
X67461Y131855D01*
X67456Y131932D01*
Y131935D01*
Y131943D01*
Y131960D01*
X67458Y131977D01*
X67461Y132001D01*
X67464Y132029D01*
X67470Y132060D01*
X67478Y132093D01*
X67500Y132165D01*
X67514Y132204D01*
X67531Y132243D01*
X67550Y132281D01*
X67575Y132320D01*
X67603Y132356D01*
X67633Y132392D01*
X67636Y132395D01*
X67641Y132400D01*
X67652Y132409D01*
X67666Y132422D01*
X67686Y132436D01*
X67708Y132453D01*
X67735Y132472D01*
X67769Y132492D01*
X67805Y132511D01*
X67844Y132531D01*
X67888Y132550D01*
X67938Y132569D01*
X67990Y132586D01*
X68049Y132603D01*
X68112Y132616D01*
X68179Y132627D01*
X68176D01*
X68173Y132630D01*
X68157Y132639D01*
X68132Y132652D01*
X68101Y132669D01*
X68068Y132688D01*
X68035Y132708D01*
X68002Y132733D01*
X67974Y132755D01*
X67971Y132758D01*
X67968Y132761D01*
X67960Y132769D01*
X67949Y132780D01*
X67935Y132794D01*
X67918Y132810D01*
X67882Y132849D01*
X67841Y132899D01*
X67794Y132957D01*
X67744Y133024D01*
X67694Y133096D01*
X67251Y133791D01*
X67675D01*
X68012Y133259D01*
X68015Y133256D01*
X68018Y133248D01*
X68026Y133237D01*
X68037Y133220D01*
X68049Y133201D01*
X68065Y133179D01*
X68098Y133129D01*
X68137Y133071D01*
X68176Y133012D01*
X68217Y132957D01*
X68256Y132907D01*
Y132905D01*
X68262Y132902D01*
X68273Y132888D01*
X68290Y132866D01*
X68314Y132841D01*
X68339Y132813D01*
X68370Y132785D01*
X68400Y132758D01*
X68428Y132738D01*
X68431Y132736D01*
X68442Y132730D01*
X68456Y132722D01*
X68475Y132711D01*
X68500Y132700D01*
X68525Y132688D01*
X68553Y132677D01*
X68583Y132669D01*
X68586D01*
X68594Y132666D01*
X68608Y132664D01*
X68628Y132661D01*
X68655D01*
X68688Y132658D01*
X68727Y132655D01*
X69162D01*
Y133791D01*
X69500D01*
Y131234D01*
D02*
G37*
G36*
X64941D02*
X63988D01*
X63960Y131237D01*
X63927D01*
X63894Y131240D01*
X63819Y131243D01*
X63744Y131251D01*
X63669Y131259D01*
X63636Y131267D01*
X63605Y131273D01*
X63603D01*
X63594Y131276D01*
X63583Y131279D01*
X63569Y131284D01*
X63550Y131290D01*
X63528Y131295D01*
X63475Y131315D01*
X63417Y131340D01*
X63356Y131370D01*
X63292Y131409D01*
X63231Y131456D01*
X63229Y131459D01*
X63223Y131464D01*
X63212Y131472D01*
X63198Y131486D01*
X63182Y131503D01*
X63162Y131525D01*
X63140Y131547D01*
X63118Y131575D01*
X63093Y131605D01*
X63068Y131639D01*
X63043Y131675D01*
X63018Y131713D01*
X62971Y131799D01*
X62930Y131894D01*
Y131896D01*
X62924Y131904D01*
X62921Y131921D01*
X62913Y131941D01*
X62905Y131965D01*
X62896Y131996D01*
X62888Y132029D01*
X62877Y132068D01*
X62869Y132112D01*
X62860Y132159D01*
X62852Y132209D01*
X62844Y132262D01*
X62835Y132317D01*
X62833Y132375D01*
X62827Y132500D01*
Y132503D01*
Y132514D01*
Y132528D01*
Y132550D01*
X62830Y132575D01*
Y132605D01*
X62833Y132639D01*
X62835Y132675D01*
X62844Y132755D01*
X62858Y132841D01*
X62874Y132929D01*
X62896Y133018D01*
Y133021D01*
X62899Y133029D01*
X62905Y133040D01*
X62907Y133054D01*
X62916Y133073D01*
X62924Y133096D01*
X62943Y133148D01*
X62968Y133206D01*
X62999Y133270D01*
X63032Y133331D01*
X63071Y133389D01*
Y133392D01*
X63076Y133395D01*
X63082Y133403D01*
X63090Y133414D01*
X63110Y133439D01*
X63140Y133472D01*
X63173Y133511D01*
X63212Y133550D01*
X63256Y133586D01*
X63304Y133622D01*
X63306D01*
X63309Y133625D01*
X63326Y133636D01*
X63353Y133650D01*
X63389Y133669D01*
X63434Y133688D01*
X63486Y133711D01*
X63547Y133730D01*
X63611Y133749D01*
X63614D01*
X63619Y133752D01*
X63628D01*
X63642Y133755D01*
X63658Y133758D01*
X63680Y133763D01*
X63702Y133766D01*
X63727Y133769D01*
X63788Y133777D01*
X63858Y133785D01*
X63935Y133788D01*
X64018Y133791D01*
X64941D01*
Y131234D01*
D02*
G37*
G36*
X127756Y62773D02*
X125676D01*
Y63000D01*
X127756D01*
Y62773D01*
D02*
G37*
G36*
X130000Y59734D02*
X128812D01*
X128781Y59737D01*
X128751D01*
X128715Y59740D01*
X128673Y59742D01*
X128590Y59751D01*
X128504Y59765D01*
X128421Y59781D01*
X128385Y59792D01*
X128349Y59803D01*
X128346D01*
X128341Y59806D01*
X128332Y59812D01*
X128319Y59817D01*
X128285Y59834D01*
X128247Y59859D01*
X128200Y59892D01*
X128152Y59936D01*
X128105Y59986D01*
X128064Y60047D01*
Y60050D01*
X128058Y60056D01*
X128053Y60064D01*
X128047Y60078D01*
X128039Y60094D01*
X128031Y60114D01*
X128019Y60136D01*
X128008Y60161D01*
X127989Y60219D01*
X127972Y60283D01*
X127961Y60355D01*
X127956Y60432D01*
Y60435D01*
Y60443D01*
Y60460D01*
X127959Y60477D01*
X127961Y60501D01*
X127964Y60529D01*
X127970Y60560D01*
X127978Y60593D01*
X128000Y60665D01*
X128014Y60704D01*
X128031Y60742D01*
X128050Y60781D01*
X128075Y60820D01*
X128103Y60856D01*
X128133Y60892D01*
X128136Y60895D01*
X128141Y60900D01*
X128152Y60909D01*
X128166Y60922D01*
X128186Y60936D01*
X128208Y60953D01*
X128235Y60972D01*
X128269Y60992D01*
X128305Y61011D01*
X128344Y61031D01*
X128388Y61050D01*
X128438Y61069D01*
X128490Y61086D01*
X128549Y61103D01*
X128612Y61116D01*
X128679Y61128D01*
X128676D01*
X128673Y61130D01*
X128657Y61139D01*
X128632Y61152D01*
X128601Y61169D01*
X128568Y61189D01*
X128535Y61208D01*
X128501Y61233D01*
X128474Y61255D01*
X128471Y61258D01*
X128468Y61260D01*
X128460Y61269D01*
X128449Y61280D01*
X128435Y61294D01*
X128418Y61310D01*
X128382Y61349D01*
X128341Y61399D01*
X128294Y61457D01*
X128244Y61524D01*
X128194Y61596D01*
X127751Y62291D01*
X128175D01*
X128513Y61759D01*
X128515Y61756D01*
X128518Y61748D01*
X128526Y61737D01*
X128537Y61720D01*
X128549Y61701D01*
X128565Y61679D01*
X128598Y61629D01*
X128637Y61571D01*
X128676Y61513D01*
X128718Y61457D01*
X128756Y61407D01*
Y61405D01*
X128762Y61402D01*
X128773Y61388D01*
X128789Y61366D01*
X128814Y61341D01*
X128839Y61313D01*
X128870Y61285D01*
X128900Y61258D01*
X128928Y61238D01*
X128931Y61235D01*
X128942Y61230D01*
X128956Y61222D01*
X128975Y61211D01*
X129000Y61199D01*
X129025Y61189D01*
X129053Y61177D01*
X129083Y61169D01*
X129086D01*
X129094Y61166D01*
X129108Y61164D01*
X129128Y61161D01*
X129155D01*
X129188Y61158D01*
X129227Y61155D01*
X129662D01*
Y62291D01*
X130000D01*
Y59734D01*
D02*
G37*
G36*
X122263D02*
X121075D01*
X121045Y59737D01*
X121014D01*
X120978Y59740D01*
X120937Y59742D01*
X120853Y59751D01*
X120768Y59765D01*
X120685Y59781D01*
X120649Y59792D01*
X120613Y59803D01*
X120610D01*
X120604Y59806D01*
X120596Y59812D01*
X120582Y59817D01*
X120549Y59834D01*
X120510Y59859D01*
X120463Y59892D01*
X120416Y59936D01*
X120369Y59986D01*
X120327Y60047D01*
Y60050D01*
X120322Y60056D01*
X120316Y60064D01*
X120310Y60078D01*
X120302Y60094D01*
X120294Y60114D01*
X120283Y60136D01*
X120272Y60161D01*
X120252Y60219D01*
X120236Y60283D01*
X120225Y60355D01*
X120219Y60432D01*
Y60435D01*
Y60443D01*
Y60460D01*
X120222Y60477D01*
X120225Y60501D01*
X120227Y60529D01*
X120233Y60560D01*
X120241Y60593D01*
X120264Y60665D01*
X120277Y60704D01*
X120294Y60742D01*
X120313Y60781D01*
X120338Y60820D01*
X120366Y60856D01*
X120396Y60892D01*
X120399Y60895D01*
X120405Y60900D01*
X120416Y60909D01*
X120430Y60922D01*
X120449Y60936D01*
X120471Y60953D01*
X120499Y60972D01*
X120532Y60992D01*
X120568Y61011D01*
X120607Y61031D01*
X120651Y61050D01*
X120701Y61069D01*
X120754Y61086D01*
X120812Y61103D01*
X120876Y61116D01*
X120942Y61128D01*
X120939D01*
X120937Y61130D01*
X120920Y61139D01*
X120895Y61152D01*
X120865Y61169D01*
X120831Y61189D01*
X120798Y61208D01*
X120765Y61233D01*
X120737Y61255D01*
X120734Y61258D01*
X120732Y61260D01*
X120723Y61269D01*
X120712Y61280D01*
X120698Y61294D01*
X120682Y61310D01*
X120646Y61349D01*
X120604Y61399D01*
X120557Y61457D01*
X120507Y61524D01*
X120457Y61596D01*
X120014Y62291D01*
X120438D01*
X120776Y61759D01*
X120779Y61756D01*
X120781Y61748D01*
X120790Y61737D01*
X120801Y61720D01*
X120812Y61701D01*
X120828Y61679D01*
X120862Y61629D01*
X120901Y61571D01*
X120939Y61513D01*
X120981Y61457D01*
X121020Y61407D01*
Y61405D01*
X121025Y61402D01*
X121036Y61388D01*
X121053Y61366D01*
X121078Y61341D01*
X121103Y61313D01*
X121133Y61285D01*
X121164Y61258D01*
X121191Y61238D01*
X121194Y61235D01*
X121205Y61230D01*
X121219Y61222D01*
X121239Y61211D01*
X121263Y61199D01*
X121288Y61189D01*
X121316Y61177D01*
X121346Y61169D01*
X121349D01*
X121358Y61166D01*
X121371Y61164D01*
X121391Y61161D01*
X121419D01*
X121452Y61158D01*
X121491Y61155D01*
X121925D01*
Y62291D01*
X122263D01*
Y59734D01*
D02*
G37*
G36*
X116275Y62330D02*
X116308Y62327D01*
X116349Y62324D01*
X116394Y62319D01*
X116444Y62310D01*
X116496Y62302D01*
X116552Y62291D01*
X116607Y62277D01*
X116663Y62263D01*
X116721Y62244D01*
X116776Y62222D01*
X116829Y62197D01*
X116878Y62166D01*
X116881Y62164D01*
X116890Y62158D01*
X116903Y62150D01*
X116920Y62136D01*
X116942Y62116D01*
X116967Y62097D01*
X116995Y62072D01*
X117025Y62042D01*
X117056Y62008D01*
X117089Y61972D01*
X117120Y61934D01*
X117153Y61889D01*
X117186Y61842D01*
X117217Y61792D01*
X117244Y61737D01*
X117272Y61679D01*
X117275Y61676D01*
X117277Y61665D01*
X117283Y61646D01*
X117291Y61623D01*
X117302Y61593D01*
X117313Y61560D01*
X117324Y61518D01*
X117338Y61474D01*
X117349Y61424D01*
X117363Y61371D01*
X117374Y61316D01*
X117383Y61255D01*
X117399Y61128D01*
X117402Y61061D01*
X117405Y60995D01*
Y60989D01*
Y60978D01*
Y60956D01*
X117402Y60928D01*
X117399Y60892D01*
X117396Y60851D01*
X117391Y60806D01*
X117385Y60756D01*
X117377Y60704D01*
X117369Y60648D01*
X117341Y60529D01*
X117322Y60471D01*
X117302Y60413D01*
X117280Y60352D01*
X117253Y60296D01*
X117250Y60294D01*
X117244Y60283D01*
X117236Y60269D01*
X117225Y60247D01*
X117208Y60222D01*
X117189Y60194D01*
X117167Y60163D01*
X117142Y60128D01*
X117111Y60094D01*
X117081Y60056D01*
X117045Y60019D01*
X117006Y59981D01*
X116964Y59945D01*
X116920Y59909D01*
X116870Y59876D01*
X116820Y59845D01*
X116818Y59842D01*
X116806Y59839D01*
X116793Y59831D01*
X116771Y59820D01*
X116746Y59809D01*
X116712Y59795D01*
X116676Y59781D01*
X116638Y59767D01*
X116593Y59754D01*
X116543Y59740D01*
X116493Y59726D01*
X116438Y59715D01*
X116324Y59695D01*
X116264Y59693D01*
X116200Y59690D01*
X116164D01*
X116136Y59693D01*
X116103Y59695D01*
X116064Y59701D01*
X116023Y59706D01*
X115975Y59715D01*
X115926Y59726D01*
X115873Y59737D01*
X115820Y59754D01*
X115765Y59773D01*
X115710Y59795D01*
X115657Y59823D01*
X115604Y59851D01*
X115554Y59886D01*
X115552Y59889D01*
X115543Y59895D01*
X115530Y59906D01*
X115513Y59923D01*
X115491Y59942D01*
X115466Y59967D01*
X115441Y59995D01*
X115410Y60028D01*
X115380Y60064D01*
X115349Y60105D01*
X115319Y60150D01*
X115291Y60200D01*
X115261Y60252D01*
X115236Y60310D01*
X115211Y60371D01*
X115189Y60435D01*
X115521Y60513D01*
Y60510D01*
X115527Y60501D01*
X115530Y60485D01*
X115538Y60466D01*
X115546Y60443D01*
X115560Y60418D01*
X115588Y60357D01*
X115624Y60291D01*
X115671Y60222D01*
X115721Y60158D01*
X115751Y60130D01*
X115782Y60105D01*
X115784Y60103D01*
X115790Y60100D01*
X115798Y60094D01*
X115812Y60086D01*
X115829Y60075D01*
X115848Y60064D01*
X115870Y60053D01*
X115898Y60042D01*
X115928Y60031D01*
X115959Y60019D01*
X116031Y59997D01*
X116114Y59983D01*
X116158Y59978D01*
X116233D01*
X116255Y59981D01*
X116280Y59983D01*
X116311Y59986D01*
X116344Y59989D01*
X116377Y59995D01*
X116457Y60014D01*
X116541Y60039D01*
X116582Y60056D01*
X116624Y60075D01*
X116663Y60097D01*
X116701Y60122D01*
X116704Y60125D01*
X116709Y60128D01*
X116721Y60136D01*
X116735Y60147D01*
X116748Y60161D01*
X116768Y60180D01*
X116787Y60200D01*
X116809Y60222D01*
X116831Y60249D01*
X116856Y60277D01*
X116901Y60341D01*
X116942Y60416D01*
X116978Y60501D01*
Y60504D01*
X116981Y60513D01*
X116987Y60526D01*
X116989Y60543D01*
X116995Y60565D01*
X117003Y60590D01*
X117009Y60621D01*
X117017Y60651D01*
X117025Y60687D01*
X117031Y60726D01*
X117045Y60809D01*
X117053Y60898D01*
X117056Y60992D01*
Y60995D01*
Y61006D01*
Y61022D01*
X117053Y61047D01*
Y61075D01*
X117050Y61108D01*
X117048Y61144D01*
X117045Y61186D01*
X117039Y61230D01*
X117034Y61274D01*
X117017Y61371D01*
X116992Y61468D01*
X116962Y61562D01*
Y61565D01*
X116956Y61573D01*
X116951Y61585D01*
X116945Y61601D01*
X116934Y61623D01*
X116920Y61646D01*
X116890Y61698D01*
X116848Y61759D01*
X116798Y61817D01*
X116737Y61875D01*
X116704Y61900D01*
X116668Y61925D01*
X116665D01*
X116660Y61931D01*
X116649Y61936D01*
X116632Y61945D01*
X116613Y61953D01*
X116590Y61964D01*
X116566Y61972D01*
X116538Y61983D01*
X116474Y62006D01*
X116399Y62025D01*
X116319Y62039D01*
X116277Y62042D01*
X116233Y62044D01*
X116205D01*
X116186Y62042D01*
X116161Y62039D01*
X116133Y62036D01*
X116100Y62031D01*
X116067Y62025D01*
X115989Y62006D01*
X115951Y61992D01*
X115909Y61975D01*
X115867Y61956D01*
X115829Y61934D01*
X115790Y61909D01*
X115751Y61881D01*
X115748Y61878D01*
X115743Y61873D01*
X115732Y61864D01*
X115718Y61851D01*
X115704Y61834D01*
X115685Y61812D01*
X115665Y61787D01*
X115643Y61759D01*
X115621Y61726D01*
X115599Y61690D01*
X115577Y61651D01*
X115554Y61607D01*
X115535Y61560D01*
X115516Y61507D01*
X115496Y61452D01*
X115482Y61393D01*
X115145Y61479D01*
Y61485D01*
X115150Y61499D01*
X115156Y61518D01*
X115167Y61549D01*
X115178Y61582D01*
X115194Y61623D01*
X115211Y61668D01*
X115233Y61715D01*
X115258Y61767D01*
X115286Y61817D01*
X115316Y61873D01*
X115352Y61925D01*
X115391Y61975D01*
X115433Y62025D01*
X115480Y62072D01*
X115530Y62116D01*
X115532Y62119D01*
X115543Y62125D01*
X115557Y62136D01*
X115579Y62150D01*
X115604Y62166D01*
X115638Y62186D01*
X115674Y62205D01*
X115718Y62224D01*
X115765Y62244D01*
X115815Y62263D01*
X115870Y62283D01*
X115931Y62299D01*
X115995Y62313D01*
X116061Y62324D01*
X116131Y62330D01*
X116205Y62332D01*
X116244D01*
X116275Y62330D01*
D02*
G37*
G36*
X125421Y59734D02*
X123698D01*
Y60036D01*
X125083D01*
Y60828D01*
X123884D01*
Y61130D01*
X125083D01*
Y62291D01*
X125421D01*
Y59734D01*
D02*
G37*
G36*
X123202D02*
X122864D01*
Y62291D01*
X123202D01*
Y59734D01*
D02*
G37*
G36*
X119682D02*
X117831D01*
Y60036D01*
X119344D01*
Y60817D01*
X117928D01*
Y61119D01*
X119344D01*
Y61989D01*
X117773D01*
Y62291D01*
X119682D01*
Y59734D01*
D02*
G37*
G36*
X114078Y60036D02*
X114920D01*
Y59734D01*
X112898D01*
Y60036D01*
X113740D01*
Y62291D01*
X114078D01*
Y60036D01*
D02*
G37*
G36*
X112563Y59734D02*
X112225D01*
Y61989D01*
X110965D01*
Y62291D01*
X112563D01*
Y59734D01*
D02*
G37*
G36*
X109821Y60294D02*
X109826Y60299D01*
X109840Y60313D01*
X109865Y60333D01*
X109901Y60360D01*
X109942Y60394D01*
X109995Y60430D01*
X110053Y60468D01*
X110120Y60510D01*
X110123D01*
X110128Y60515D01*
X110136Y60521D01*
X110150Y60526D01*
X110167Y60537D01*
X110186Y60546D01*
X110231Y60571D01*
X110280Y60596D01*
X110336Y60623D01*
X110394Y60648D01*
X110449Y60671D01*
Y60369D01*
X110447Y60366D01*
X110438Y60363D01*
X110424Y60355D01*
X110405Y60346D01*
X110383Y60335D01*
X110355Y60319D01*
X110325Y60302D01*
X110294Y60285D01*
X110222Y60241D01*
X110145Y60189D01*
X110064Y60133D01*
X109990Y60069D01*
X109987Y60067D01*
X109981Y60061D01*
X109970Y60053D01*
X109956Y60039D01*
X109942Y60022D01*
X109923Y60006D01*
X109881Y59959D01*
X109834Y59909D01*
X109787Y59851D01*
X109746Y59790D01*
X109710Y59726D01*
X109508D01*
Y62291D01*
X109821D01*
Y60294D01*
D02*
G37*
G36*
X101646Y146773D02*
X99566D01*
Y147000D01*
X101646D01*
Y146773D01*
D02*
G37*
G36*
X96555Y143734D02*
X96209D01*
X94865Y145742D01*
Y143734D01*
X94541D01*
Y146291D01*
X94890D01*
X96231Y144285D01*
Y146291D01*
X96555D01*
Y143734D01*
D02*
G37*
G36*
X108278D02*
X107940D01*
Y145989D01*
X106679D01*
Y146291D01*
X108278D01*
Y143734D01*
D02*
G37*
G36*
X106269D02*
X104419D01*
Y144036D01*
X105931D01*
Y144817D01*
X104516D01*
Y145119D01*
X105931D01*
Y145989D01*
X104361D01*
Y146291D01*
X106269D01*
Y143734D01*
D02*
G37*
G36*
X103895D02*
X102943D01*
X102915Y143737D01*
X102882D01*
X102848Y143740D01*
X102774Y143743D01*
X102699Y143751D01*
X102624Y143759D01*
X102591Y143767D01*
X102560Y143773D01*
X102558D01*
X102549Y143776D01*
X102538Y143779D01*
X102524Y143784D01*
X102505Y143790D01*
X102483Y143795D01*
X102430Y143815D01*
X102372Y143839D01*
X102311Y143870D01*
X102247Y143909D01*
X102186Y143956D01*
X102184Y143958D01*
X102178Y143964D01*
X102167Y143972D01*
X102153Y143986D01*
X102137Y144003D01*
X102117Y144025D01*
X102095Y144047D01*
X102073Y144075D01*
X102048Y144105D01*
X102023Y144139D01*
X101998Y144175D01*
X101973Y144213D01*
X101926Y144299D01*
X101884Y144393D01*
Y144396D01*
X101879Y144404D01*
X101876Y144421D01*
X101868Y144440D01*
X101859Y144465D01*
X101851Y144496D01*
X101843Y144529D01*
X101832Y144568D01*
X101823Y144612D01*
X101815Y144659D01*
X101807Y144709D01*
X101799Y144762D01*
X101790Y144817D01*
X101787Y144875D01*
X101782Y145000D01*
Y145003D01*
Y145014D01*
Y145028D01*
Y145050D01*
X101785Y145075D01*
Y145105D01*
X101787Y145139D01*
X101790Y145175D01*
X101799Y145255D01*
X101812Y145341D01*
X101829Y145429D01*
X101851Y145518D01*
Y145521D01*
X101854Y145529D01*
X101859Y145540D01*
X101862Y145554D01*
X101871Y145573D01*
X101879Y145596D01*
X101898Y145648D01*
X101923Y145706D01*
X101954Y145770D01*
X101987Y145831D01*
X102026Y145889D01*
Y145892D01*
X102031Y145895D01*
X102037Y145903D01*
X102045Y145914D01*
X102065Y145939D01*
X102095Y145972D01*
X102128Y146011D01*
X102167Y146050D01*
X102211Y146086D01*
X102258Y146122D01*
X102261D01*
X102264Y146125D01*
X102280Y146136D01*
X102308Y146150D01*
X102344Y146169D01*
X102389Y146188D01*
X102441Y146211D01*
X102502Y146230D01*
X102566Y146249D01*
X102569D01*
X102574Y146252D01*
X102583D01*
X102596Y146255D01*
X102613Y146258D01*
X102635Y146263D01*
X102657Y146266D01*
X102682Y146269D01*
X102743Y146277D01*
X102812Y146285D01*
X102890Y146288D01*
X102973Y146291D01*
X103895D01*
Y143734D01*
D02*
G37*
G36*
X98272Y146330D02*
X98303Y146327D01*
X98342Y146324D01*
X98380Y146319D01*
X98427Y146310D01*
X98475Y146302D01*
X98527Y146291D01*
X98580Y146277D01*
X98635Y146260D01*
X98691Y146241D01*
X98746Y146216D01*
X98801Y146191D01*
X98857Y146161D01*
X98860Y146158D01*
X98868Y146152D01*
X98884Y146141D01*
X98904Y146127D01*
X98926Y146111D01*
X98954Y146089D01*
X98984Y146064D01*
X99018Y146036D01*
X99054Y146003D01*
X99087Y145967D01*
X99123Y145928D01*
X99159Y145887D01*
X99195Y145839D01*
X99228Y145792D01*
X99259Y145740D01*
X99289Y145684D01*
X99292Y145682D01*
X99295Y145670D01*
X99303Y145654D01*
X99311Y145632D01*
X99322Y145604D01*
X99333Y145571D01*
X99347Y145535D01*
X99361Y145490D01*
X99375Y145446D01*
X99389Y145396D01*
X99400Y145343D01*
X99411Y145288D01*
X99427Y145172D01*
X99430Y145108D01*
X99433Y145047D01*
Y145044D01*
Y145039D01*
Y145030D01*
Y145019D01*
X99430Y145003D01*
Y144986D01*
X99427Y144942D01*
X99422Y144889D01*
X99414Y144825D01*
X99405Y144759D01*
X99391Y144684D01*
X99372Y144604D01*
X99350Y144524D01*
X99322Y144440D01*
X99289Y144357D01*
X99250Y144274D01*
X99206Y144197D01*
X99153Y144119D01*
X99092Y144050D01*
X99089Y144047D01*
X99076Y144033D01*
X99056Y144017D01*
X99031Y143995D01*
X98995Y143967D01*
X98957Y143936D01*
X98909Y143903D01*
X98854Y143870D01*
X98793Y143837D01*
X98727Y143803D01*
X98655Y143773D01*
X98574Y143745D01*
X98491Y143723D01*
X98403Y143707D01*
X98308Y143693D01*
X98209Y143690D01*
X98175D01*
X98150Y143693D01*
X98117Y143695D01*
X98081Y143698D01*
X98042Y143704D01*
X97998Y143712D01*
X97948Y143720D01*
X97898Y143731D01*
X97846Y143745D01*
X97790Y143762D01*
X97735Y143781D01*
X97680Y143803D01*
X97627Y143828D01*
X97571Y143859D01*
X97569Y143862D01*
X97558Y143867D01*
X97544Y143875D01*
X97524Y143889D01*
X97500Y143906D01*
X97475Y143928D01*
X97444Y143953D01*
X97411Y143981D01*
X97375Y144014D01*
X97339Y144050D01*
X97303Y144089D01*
X97267Y144130D01*
X97234Y144175D01*
X97198Y144225D01*
X97167Y144277D01*
X97137Y144333D01*
X97134Y144335D01*
X97131Y144346D01*
X97123Y144363D01*
X97114Y144385D01*
X97101Y144413D01*
X97089Y144449D01*
X97076Y144488D01*
X97062Y144532D01*
X97048Y144579D01*
X97034Y144632D01*
X97020Y144690D01*
X97009Y144748D01*
X97001Y144812D01*
X96993Y144878D01*
X96990Y144945D01*
X96987Y145017D01*
Y145022D01*
Y145033D01*
Y145055D01*
X96990Y145083D01*
X96993Y145116D01*
X96995Y145155D01*
X97001Y145200D01*
X97006Y145249D01*
X97015Y145302D01*
X97026Y145357D01*
X97037Y145416D01*
X97053Y145474D01*
X97073Y145535D01*
X97092Y145593D01*
X97117Y145654D01*
X97145Y145712D01*
X97148Y145715D01*
X97153Y145726D01*
X97162Y145742D01*
X97173Y145762D01*
X97189Y145787D01*
X97209Y145817D01*
X97234Y145851D01*
X97259Y145887D01*
X97289Y145923D01*
X97322Y145961D01*
X97361Y146000D01*
X97400Y146039D01*
X97441Y146075D01*
X97488Y146111D01*
X97538Y146147D01*
X97591Y146177D01*
X97594Y146180D01*
X97605Y146183D01*
X97619Y146191D01*
X97641Y146202D01*
X97668Y146213D01*
X97699Y146227D01*
X97735Y146241D01*
X97777Y146255D01*
X97821Y146269D01*
X97868Y146283D01*
X97921Y146296D01*
X97973Y146308D01*
X98089Y146327D01*
X98150Y146330D01*
X98211Y146332D01*
X98247D01*
X98272Y146330D01*
D02*
G37*
%LPC*%
G36*
X59763Y96710D02*
X58862D01*
Y96030D01*
X58865Y96008D01*
Y95981D01*
X58868Y95951D01*
X58873Y95916D01*
X58879Y95880D01*
X58892Y95804D01*
X58914Y95727D01*
X58928Y95692D01*
X58944Y95659D01*
X58960Y95626D01*
X58982Y95599D01*
X58985Y95596D01*
X58988Y95593D01*
X58996Y95585D01*
X59004Y95577D01*
X59031Y95555D01*
X59070Y95531D01*
X59119Y95506D01*
X59176Y95484D01*
X59244Y95468D01*
X59280Y95465D01*
X59321Y95462D01*
X59324D01*
X59329D01*
X59337D01*
X59348D01*
X59378Y95468D01*
X59414Y95473D01*
X59457Y95481D01*
X59501Y95498D01*
X59548Y95517D01*
X59591Y95544D01*
X59597Y95547D01*
X59610Y95558D01*
X59629Y95577D01*
X59651Y95599D01*
X59676Y95632D01*
X59700Y95667D01*
X59722Y95708D01*
X59739Y95754D01*
Y95757D01*
X59741Y95771D01*
X59747Y95793D01*
X59752Y95825D01*
Y95845D01*
X59755Y95866D01*
X59758Y95894D01*
X59760Y95921D01*
Y95954D01*
X59763Y95986D01*
Y96710D01*
D02*
G37*
G36*
X92557Y104222D02*
X91833D01*
Y103321D01*
X92513D01*
X92535Y103324D01*
X92562D01*
X92592Y103327D01*
X92627Y103332D01*
X92663Y103338D01*
X92739Y103351D01*
X92816Y103373D01*
X92851Y103387D01*
X92884Y103403D01*
X92917Y103420D01*
X92944Y103441D01*
X92947Y103444D01*
X92950Y103447D01*
X92958Y103455D01*
X92966Y103463D01*
X92988Y103490D01*
X93012Y103529D01*
X93037Y103578D01*
X93059Y103635D01*
X93075Y103703D01*
X93078Y103739D01*
X93081Y103780D01*
Y103783D01*
Y103788D01*
Y103796D01*
Y103807D01*
X93075Y103837D01*
X93070Y103873D01*
X93062Y103916D01*
X93045Y103960D01*
X93026Y104007D01*
X92999Y104050D01*
X92996Y104056D01*
X92985Y104069D01*
X92966Y104088D01*
X92944Y104110D01*
X92911Y104135D01*
X92876Y104159D01*
X92835Y104181D01*
X92788Y104198D01*
X92786D01*
X92772Y104200D01*
X92750Y104206D01*
X92717Y104211D01*
X92698D01*
X92677Y104214D01*
X92649Y104217D01*
X92622Y104219D01*
X92589D01*
X92557Y104222D01*
D02*
G37*
G36*
X144471Y90312D02*
X143709D01*
Y89714D01*
X143712Y89693D01*
Y89646D01*
X143715Y89594D01*
X143720Y89540D01*
X143728Y89491D01*
X143731Y89469D01*
X143737Y89450D01*
Y89447D01*
X143739Y89444D01*
X143745Y89428D01*
X143753Y89406D01*
X143766Y89379D01*
X143783Y89349D01*
X143805Y89316D01*
X143832Y89286D01*
X143862Y89259D01*
X143868Y89256D01*
X143878Y89248D01*
X143898Y89237D01*
X143922Y89226D01*
X143955Y89215D01*
X143993Y89204D01*
X144034Y89196D01*
X144083Y89193D01*
X144086D01*
X144089D01*
X144105D01*
X144127Y89196D01*
X144157Y89201D01*
X144192Y89209D01*
X144231Y89220D01*
X144269Y89234D01*
X144304Y89256D01*
X144310Y89259D01*
X144321Y89267D01*
X144337Y89280D01*
X144356Y89299D01*
X144378Y89324D01*
X144400Y89354D01*
X144419Y89387D01*
X144435Y89428D01*
X144438Y89433D01*
Y89439D01*
X144441Y89450D01*
X144444Y89461D01*
X144446Y89477D01*
X144449Y89496D01*
X144455Y89515D01*
X144457Y89540D01*
X144460Y89570D01*
X144463Y89600D01*
X144465Y89635D01*
X144468Y89674D01*
Y89714D01*
X144471Y89761D01*
Y90312D01*
D02*
G37*
G36*
X143412D02*
X142546D01*
Y89630D01*
X142549Y89594D01*
Y89559D01*
X142552Y89521D01*
X142554Y89485D01*
X142557Y89458D01*
Y89452D01*
X142560Y89439D01*
X142565Y89417D01*
X142573Y89390D01*
X142582Y89360D01*
X142595Y89330D01*
X142609Y89297D01*
X142625Y89267D01*
X142628Y89264D01*
X142634Y89253D01*
X142645Y89240D01*
X142661Y89220D01*
X142680Y89201D01*
X142705Y89179D01*
X142732Y89158D01*
X142765Y89139D01*
X142770Y89136D01*
X142781Y89130D01*
X142800Y89122D01*
X142827Y89111D01*
X142857Y89103D01*
X142893Y89095D01*
X142934Y89089D01*
X142978Y89087D01*
X142980D01*
X142983D01*
X142991D01*
X143002D01*
X143027Y89089D01*
X143062Y89095D01*
X143100Y89106D01*
X143141Y89117D01*
X143182Y89136D01*
X143223Y89160D01*
X143229Y89163D01*
X143240Y89174D01*
X143259Y89190D01*
X143281Y89212D01*
X143305Y89242D01*
X143327Y89278D01*
X143349Y89316D01*
X143368Y89362D01*
Y89365D01*
X143371Y89368D01*
X143373Y89376D01*
X143376Y89387D01*
X143379Y89401D01*
X143382Y89414D01*
X143387Y89433D01*
X143390Y89455D01*
X143395Y89482D01*
X143398Y89510D01*
X143401Y89540D01*
X143406Y89573D01*
X143409Y89646D01*
X143412Y89731D01*
Y90312D01*
D02*
G37*
G36*
X105765Y73097D02*
X105762D01*
X105751D01*
X105734D01*
X105712Y73094D01*
X105684D01*
X105654Y73091D01*
X105618Y73089D01*
X105582Y73083D01*
X105496Y73072D01*
X105405Y73053D01*
X105313Y73025D01*
X105225Y72989D01*
X105222D01*
X105213Y72983D01*
X105202Y72978D01*
X105186Y72970D01*
X105166Y72958D01*
X105144Y72944D01*
X105092Y72911D01*
X105033Y72867D01*
X104975Y72814D01*
X104917Y72753D01*
X104865Y72681D01*
X104862Y72679D01*
X104859Y72673D01*
X104853Y72662D01*
X104845Y72645D01*
X104834Y72626D01*
X104823Y72604D01*
X104812Y72579D01*
X104798Y72548D01*
X104787Y72515D01*
X104776Y72482D01*
X104754Y72404D01*
X104740Y72319D01*
X104734Y72271D01*
Y72208D01*
X104737Y72188D01*
Y72161D01*
X104743Y72130D01*
X104748Y72091D01*
X104756Y72050D01*
X104768Y72005D01*
X104781Y71956D01*
X104798Y71906D01*
X104820Y71853D01*
X104845Y71801D01*
X104873Y71748D01*
X104909Y71698D01*
X104948Y71645D01*
X104995Y71598D01*
X104997Y71596D01*
X105006Y71587D01*
X105022Y71576D01*
X105042Y71560D01*
X105069Y71540D01*
X105103Y71521D01*
X105141Y71496D01*
X105189Y71474D01*
X105238Y71451D01*
X105297Y71429D01*
X105360Y71407D01*
X105429Y71388D01*
X105504Y71371D01*
X105587Y71360D01*
X105673Y71352D01*
X105768Y71349D01*
X105773D01*
X105790D01*
X105815Y71352D01*
X105851D01*
X105892Y71357D01*
X105939Y71363D01*
X105992Y71368D01*
X106050Y71380D01*
X106111Y71393D01*
X106172Y71410D01*
X106236Y71429D01*
X106299Y71454D01*
X106363Y71482D01*
X106424Y71515D01*
X106479Y71551D01*
X106532Y71596D01*
X106535Y71598D01*
X106543Y71607D01*
X106557Y71621D01*
X106573Y71640D01*
X106593Y71665D01*
X106615Y71693D01*
X106640Y71728D01*
X106665Y71767D01*
X106690Y71809D01*
X106715Y71859D01*
X106737Y71909D01*
X106756Y71964D01*
X106773Y72025D01*
X106787Y72089D01*
X106795Y72155D01*
X106798Y72224D01*
Y72255D01*
X106795Y72271D01*
Y72291D01*
X106790Y72335D01*
X106781Y72388D01*
X106770Y72446D01*
X106754Y72507D01*
X106731Y72568D01*
Y72565D01*
X106726Y72559D01*
X106720Y72551D01*
X106715Y72540D01*
X106707Y72526D01*
X106695Y72507D01*
X106673Y72465D01*
X106651Y72416D01*
X106626Y72360D01*
X106604Y72296D01*
X106585Y72233D01*
X106338Y72313D01*
Y72316D01*
X106341Y72327D01*
X106346Y72341D01*
X106355Y72363D01*
X106363Y72388D01*
X106374Y72416D01*
X106385Y72449D01*
X106399Y72485D01*
X106435Y72559D01*
X106477Y72643D01*
X106526Y72723D01*
X106582Y72798D01*
X106579Y72800D01*
X106568Y72812D01*
X106554Y72825D01*
X106532Y72845D01*
X106501Y72867D01*
X106468Y72892D01*
X106427Y72920D01*
X106377Y72947D01*
X106324Y72975D01*
X106263Y73003D01*
X106197Y73028D01*
X106122Y73050D01*
X106042Y73069D01*
X105956Y73083D01*
X105864Y73094D01*
X105765Y73097D01*
D02*
G37*
G36*
X69162Y132362D02*
X68398D01*
X68378Y132359D01*
X68356D01*
X68303Y132356D01*
X68245Y132351D01*
X68184Y132342D01*
X68126Y132331D01*
X68073Y132315D01*
X68071D01*
X68068Y132312D01*
X68051Y132306D01*
X68029Y132295D01*
X67999Y132279D01*
X67968Y132256D01*
X67935Y132231D01*
X67902Y132198D01*
X67874Y132162D01*
X67871Y132157D01*
X67863Y132143D01*
X67852Y132123D01*
X67838Y132093D01*
X67827Y132060D01*
X67816Y132021D01*
X67808Y131977D01*
X67805Y131932D01*
Y131930D01*
Y131924D01*
Y131916D01*
X67808Y131902D01*
Y131888D01*
X67810Y131869D01*
X67821Y131827D01*
X67838Y131780D01*
X67860Y131730D01*
X67893Y131683D01*
X67916Y131658D01*
X67938Y131636D01*
X67940Y131633D01*
X67943Y131630D01*
X67952Y131625D01*
X67963Y131616D01*
X67976Y131608D01*
X67996Y131597D01*
X68015Y131586D01*
X68040Y131575D01*
X68068Y131564D01*
X68098Y131555D01*
X68132Y131544D01*
X68168Y131536D01*
X68209Y131528D01*
X68253Y131522D01*
X68301Y131517D01*
X69162D01*
Y132362D01*
D02*
G37*
G36*
X64603Y133489D02*
X64015D01*
X63993Y133486D01*
X63968D01*
X63913Y133483D01*
X63849Y133478D01*
X63783Y133470D01*
X63719Y133458D01*
X63661Y133445D01*
X63658D01*
X63655Y133442D01*
X63647Y133439D01*
X63636Y133436D01*
X63611Y133425D01*
X63578Y133411D01*
X63542Y133392D01*
X63503Y133370D01*
X63464Y133342D01*
X63431Y133312D01*
X63428Y133309D01*
X63425Y133306D01*
X63412Y133290D01*
X63389Y133262D01*
X63362Y133226D01*
X63334Y133179D01*
X63304Y133123D01*
X63273Y133060D01*
X63245Y132988D01*
Y132985D01*
X63243Y132979D01*
X63240Y132968D01*
X63234Y132952D01*
X63229Y132932D01*
X63223Y132907D01*
X63218Y132880D01*
X63209Y132849D01*
X63204Y132816D01*
X63198Y132777D01*
X63193Y132738D01*
X63187Y132694D01*
X63179Y132600D01*
X63176Y132495D01*
Y132489D01*
Y132478D01*
Y132456D01*
X63179Y132428D01*
Y132395D01*
X63182Y132356D01*
X63187Y132315D01*
X63193Y132267D01*
X63209Y132168D01*
X63231Y132065D01*
X63265Y131968D01*
X63287Y131921D01*
X63309Y131880D01*
X63312Y131877D01*
X63315Y131871D01*
X63323Y131860D01*
X63334Y131844D01*
X63345Y131827D01*
X63362Y131808D01*
X63398Y131763D01*
X63445Y131713D01*
X63500Y131666D01*
X63561Y131622D01*
X63594Y131605D01*
X63630Y131589D01*
X63633D01*
X63636Y131586D01*
X63644Y131583D01*
X63655Y131580D01*
X63672Y131578D01*
X63689Y131572D01*
X63711Y131567D01*
X63736Y131561D01*
X63763Y131558D01*
X63797Y131553D01*
X63833Y131547D01*
X63871Y131544D01*
X63916Y131542D01*
X63963Y131539D01*
X64013Y131536D01*
X64603D01*
Y133489D01*
D02*
G37*
G36*
X129662Y60862D02*
X128898D01*
X128878Y60859D01*
X128856D01*
X128803Y60856D01*
X128745Y60851D01*
X128684Y60842D01*
X128626Y60831D01*
X128574Y60814D01*
X128571D01*
X128568Y60812D01*
X128551Y60806D01*
X128529Y60795D01*
X128499Y60778D01*
X128468Y60756D01*
X128435Y60731D01*
X128402Y60698D01*
X128374Y60662D01*
X128371Y60657D01*
X128363Y60643D01*
X128352Y60623D01*
X128338Y60593D01*
X128327Y60560D01*
X128316Y60521D01*
X128307Y60477D01*
X128305Y60432D01*
Y60430D01*
Y60424D01*
Y60416D01*
X128307Y60402D01*
Y60388D01*
X128310Y60369D01*
X128321Y60327D01*
X128338Y60280D01*
X128360Y60230D01*
X128393Y60183D01*
X128416Y60158D01*
X128438Y60136D01*
X128440Y60133D01*
X128443Y60130D01*
X128452Y60125D01*
X128463Y60116D01*
X128477Y60108D01*
X128496Y60097D01*
X128515Y60086D01*
X128540Y60075D01*
X128568Y60064D01*
X128598Y60056D01*
X128632Y60044D01*
X128668Y60036D01*
X128709Y60028D01*
X128753Y60022D01*
X128801Y60017D01*
X129662D01*
Y60862D01*
D02*
G37*
G36*
X121925D02*
X121161D01*
X121142Y60859D01*
X121119D01*
X121067Y60856D01*
X121009Y60851D01*
X120948Y60842D01*
X120889Y60831D01*
X120837Y60814D01*
X120834D01*
X120831Y60812D01*
X120815Y60806D01*
X120792Y60795D01*
X120762Y60778D01*
X120732Y60756D01*
X120698Y60731D01*
X120665Y60698D01*
X120637Y60662D01*
X120635Y60657D01*
X120626Y60643D01*
X120615Y60623D01*
X120601Y60593D01*
X120590Y60560D01*
X120579Y60521D01*
X120571Y60477D01*
X120568Y60432D01*
Y60430D01*
Y60424D01*
Y60416D01*
X120571Y60402D01*
Y60388D01*
X120574Y60369D01*
X120585Y60327D01*
X120601Y60280D01*
X120624Y60230D01*
X120657Y60183D01*
X120679Y60158D01*
X120701Y60136D01*
X120704Y60133D01*
X120707Y60130D01*
X120715Y60125D01*
X120726Y60116D01*
X120740Y60108D01*
X120759Y60097D01*
X120779Y60086D01*
X120804Y60075D01*
X120831Y60064D01*
X120862Y60056D01*
X120895Y60044D01*
X120931Y60036D01*
X120973Y60028D01*
X121017Y60022D01*
X121064Y60017D01*
X121925D01*
Y60862D01*
D02*
G37*
G36*
X103558Y145989D02*
X102970D01*
X102948Y145986D01*
X102923D01*
X102868Y145983D01*
X102804Y145978D01*
X102738Y145970D01*
X102674Y145958D01*
X102616Y145945D01*
X102613D01*
X102610Y145942D01*
X102602Y145939D01*
X102591Y145936D01*
X102566Y145925D01*
X102533Y145911D01*
X102497Y145892D01*
X102458Y145870D01*
X102419Y145842D01*
X102386Y145812D01*
X102383Y145809D01*
X102380Y145806D01*
X102366Y145790D01*
X102344Y145762D01*
X102316Y145726D01*
X102289Y145679D01*
X102258Y145623D01*
X102228Y145560D01*
X102200Y145488D01*
Y145485D01*
X102197Y145479D01*
X102195Y145468D01*
X102189Y145452D01*
X102184Y145432D01*
X102178Y145407D01*
X102173Y145379D01*
X102164Y145349D01*
X102159Y145316D01*
X102153Y145277D01*
X102148Y145238D01*
X102142Y145194D01*
X102134Y145100D01*
X102131Y144994D01*
Y144989D01*
Y144978D01*
Y144956D01*
X102134Y144928D01*
Y144895D01*
X102137Y144856D01*
X102142Y144815D01*
X102148Y144767D01*
X102164Y144668D01*
X102186Y144565D01*
X102220Y144468D01*
X102242Y144421D01*
X102264Y144380D01*
X102267Y144377D01*
X102269Y144371D01*
X102278Y144360D01*
X102289Y144344D01*
X102300Y144327D01*
X102316Y144308D01*
X102352Y144263D01*
X102400Y144213D01*
X102455Y144166D01*
X102516Y144122D01*
X102549Y144105D01*
X102585Y144089D01*
X102588D01*
X102591Y144086D01*
X102599Y144083D01*
X102610Y144080D01*
X102627Y144078D01*
X102643Y144072D01*
X102666Y144067D01*
X102690Y144061D01*
X102718Y144058D01*
X102751Y144053D01*
X102787Y144047D01*
X102826Y144044D01*
X102871Y144042D01*
X102918Y144039D01*
X102968Y144036D01*
X103558D01*
Y145989D01*
D02*
G37*
G36*
X98214Y146044D02*
X98198D01*
X98178Y146042D01*
X98150Y146039D01*
X98117Y146036D01*
X98081Y146030D01*
X98037Y146022D01*
X97993Y146011D01*
X97943Y145997D01*
X97893Y145981D01*
X97840Y145958D01*
X97788Y145931D01*
X97735Y145900D01*
X97682Y145867D01*
X97632Y145826D01*
X97585Y145778D01*
X97583Y145776D01*
X97574Y145765D01*
X97563Y145751D01*
X97547Y145729D01*
X97527Y145701D01*
X97505Y145668D01*
X97483Y145629D01*
X97461Y145582D01*
X97439Y145532D01*
X97414Y145474D01*
X97394Y145413D01*
X97375Y145343D01*
X97358Y145269D01*
X97347Y145191D01*
X97339Y145105D01*
X97336Y145017D01*
Y145014D01*
Y145003D01*
Y144986D01*
X97339Y144964D01*
Y144936D01*
X97342Y144906D01*
X97344Y144870D01*
X97350Y144831D01*
X97361Y144745D01*
X97380Y144654D01*
X97408Y144562D01*
X97444Y144471D01*
Y144468D01*
X97450Y144460D01*
X97455Y144449D01*
X97464Y144432D01*
X97475Y144413D01*
X97488Y144391D01*
X97522Y144338D01*
X97566Y144280D01*
X97619Y144222D01*
X97680Y144164D01*
X97752Y144111D01*
X97754Y144108D01*
X97760Y144105D01*
X97771Y144100D01*
X97788Y144091D01*
X97807Y144080D01*
X97829Y144069D01*
X97854Y144058D01*
X97885Y144044D01*
X97918Y144033D01*
X97951Y144022D01*
X98029Y144000D01*
X98114Y143986D01*
X98162Y143981D01*
X98225D01*
X98242Y143983D01*
X98270D01*
X98300Y143989D01*
X98336Y143995D01*
X98375Y144003D01*
X98419Y144011D01*
X98466Y144025D01*
X98516Y144042D01*
X98569Y144061D01*
X98619Y144086D01*
X98671Y144114D01*
X98724Y144147D01*
X98777Y144186D01*
X98826Y144230D01*
X98829Y144233D01*
X98837Y144241D01*
X98851Y144258D01*
X98865Y144277D01*
X98887Y144305D01*
X98907Y144338D01*
X98932Y144380D01*
X98954Y144424D01*
X98979Y144479D01*
X99004Y144540D01*
X99023Y144607D01*
X99042Y144682D01*
X99059Y144762D01*
X99073Y144851D01*
X99081Y144947D01*
X99084Y145053D01*
Y145058D01*
Y145072D01*
X99081Y145097D01*
Y145130D01*
X99076Y145169D01*
X99070Y145213D01*
X99065Y145263D01*
X99054Y145316D01*
X99040Y145374D01*
X99023Y145435D01*
X99004Y145493D01*
X98979Y145554D01*
X98951Y145615D01*
X98918Y145673D01*
X98882Y145729D01*
X98837Y145781D01*
X98835Y145784D01*
X98826Y145792D01*
X98813Y145806D01*
X98793Y145823D01*
X98768Y145842D01*
X98738Y145864D01*
X98704Y145889D01*
X98666Y145911D01*
X98624Y145936D01*
X98574Y145961D01*
X98524Y145983D01*
X98469Y146003D01*
X98411Y146019D01*
X98347Y146033D01*
X98283Y146042D01*
X98214Y146044D01*
D02*
G37*
%LPD*%
D12*
X52106Y130144D02*
X62894D01*
X52106Y68856D02*
Y130144D01*
Y68856D02*
X62894D01*
Y130144D01*
X75555Y88417D02*
Y115583D01*
Y88417D02*
X107445D01*
Y115583D01*
X75555D02*
X107445D01*
X135587Y114886D02*
X150311D01*
X135587Y76146D02*
Y114886D01*
Y76146D02*
X150311D01*
Y114886D01*
X99504Y64307D02*
X113496D01*
Y77693D01*
X99504D02*
X113496D01*
X99504Y64307D02*
Y77693D01*
X62795Y130834D02*
X76205D01*
X62795D02*
Y138166D01*
X76205D01*
Y130834D02*
Y138166D01*
X136705Y59334D02*
Y66666D01*
X123295D02*
X136705D01*
X123295Y59334D02*
Y66666D01*
Y59334D02*
X136705D01*
D13*
X88610Y144654D02*
X102390D01*
X88610D02*
Y151346D01*
X102390D01*
Y144654D02*
Y151346D01*
M02*
