G04*
G04 #@! TF.GenerationSoftware,Altium Limited,Altium Designer,23.1.1 (15)*
G04*
G04 Layer_Color=16711935*
%FSLAX25Y25*%
%MOIN*%
G70*
G04*
G04 #@! TF.SameCoordinates,610C7C08-74D4-44FC-BCD4-38041F97A8CA*
G04*
G04*
G04 #@! TF.FilePolarity,Positive*
G04*
G01*
G75*
%ADD14C,0.00787*%
%ADD15C,0.01500*%
G36*
X61756Y170773D02*
X59676D01*
Y171000D01*
X61756D01*
Y170773D01*
D02*
G37*
G36*
X56208Y170333D02*
X56230D01*
X56261Y170330D01*
X56294Y170324D01*
X56330Y170319D01*
X56371Y170310D01*
X56416Y170299D01*
X56460Y170285D01*
X56507Y170272D01*
X56554Y170252D01*
X56601Y170227D01*
X56646Y170202D01*
X56693Y170172D01*
X56734Y170136D01*
X56737Y170133D01*
X56743Y170127D01*
X56754Y170116D01*
X56770Y170100D01*
X56787Y170080D01*
X56806Y170055D01*
X56826Y170028D01*
X56848Y169994D01*
X56870Y169961D01*
X56892Y169920D01*
X56914Y169878D01*
X56934Y169831D01*
X56950Y169781D01*
X56967Y169729D01*
X56978Y169673D01*
X56986Y169615D01*
X56673Y169573D01*
Y169576D01*
X56671Y169585D01*
X56668Y169598D01*
X56662Y169618D01*
X56657Y169640D01*
X56651Y169665D01*
X56632Y169723D01*
X56607Y169787D01*
X56576Y169851D01*
X56538Y169909D01*
X56516Y169934D01*
X56493Y169958D01*
X56491D01*
X56488Y169964D01*
X56480Y169970D01*
X56471Y169978D01*
X56444Y169994D01*
X56405Y170017D01*
X56358Y170039D01*
X56305Y170055D01*
X56241Y170069D01*
X56175Y170075D01*
X56153D01*
X56136Y170072D01*
X56119Y170069D01*
X56094Y170066D01*
X56045Y170055D01*
X55984Y170039D01*
X55920Y170011D01*
X55889Y169992D01*
X55859Y169972D01*
X55828Y169950D01*
X55798Y169922D01*
X55795Y169920D01*
X55792Y169914D01*
X55784Y169906D01*
X55773Y169895D01*
X55762Y169881D01*
X55751Y169862D01*
X55737Y169842D01*
X55721Y169817D01*
X55693Y169762D01*
X55671Y169698D01*
X55651Y169623D01*
X55648Y169585D01*
X55646Y169543D01*
Y169540D01*
Y169535D01*
Y169521D01*
X55648Y169507D01*
X55651Y169488D01*
X55654Y169468D01*
X55662Y169418D01*
X55682Y169360D01*
X55707Y169302D01*
X55723Y169272D01*
X55743Y169244D01*
X55765Y169216D01*
X55790Y169188D01*
X55792Y169186D01*
X55795Y169183D01*
X55804Y169175D01*
X55815Y169166D01*
X55828Y169155D01*
X55845Y169144D01*
X55887Y169116D01*
X55939Y169091D01*
X56000Y169069D01*
X56069Y169053D01*
X56108Y169050D01*
X56147Y169047D01*
X56164D01*
X56183Y169050D01*
X56208D01*
X56241Y169055D01*
X56277Y169061D01*
X56322Y169069D01*
X56369Y169080D01*
X56335Y168806D01*
X56330D01*
X56316Y168809D01*
X56299Y168812D01*
X56263D01*
X56250Y168809D01*
X56230D01*
X56211Y168806D01*
X56164Y168798D01*
X56108Y168787D01*
X56047Y168767D01*
X55984Y168743D01*
X55923Y168707D01*
X55920D01*
X55914Y168701D01*
X55909Y168695D01*
X55898Y168687D01*
X55870Y168662D01*
X55840Y168626D01*
X55812Y168582D01*
X55784Y168526D01*
X55773Y168496D01*
X55768Y168460D01*
X55762Y168424D01*
X55759Y168385D01*
Y168382D01*
Y168377D01*
Y168368D01*
X55762Y168355D01*
X55765Y168324D01*
X55773Y168283D01*
X55787Y168238D01*
X55809Y168191D01*
X55840Y168141D01*
X55856Y168119D01*
X55878Y168097D01*
X55884Y168091D01*
X55901Y168080D01*
X55926Y168061D01*
X55959Y168039D01*
X56003Y168019D01*
X56056Y168000D01*
X56114Y167989D01*
X56180Y167983D01*
X56197D01*
X56211Y167986D01*
X56227D01*
X56244Y167989D01*
X56288Y167997D01*
X56335Y168011D01*
X56388Y168033D01*
X56438Y168061D01*
X56488Y168100D01*
X56493Y168105D01*
X56507Y168122D01*
X56529Y168147D01*
X56551Y168186D01*
X56579Y168233D01*
X56604Y168294D01*
X56626Y168363D01*
X56643Y168443D01*
X56956Y168388D01*
Y168385D01*
X56953Y168374D01*
X56950Y168357D01*
X56945Y168335D01*
X56937Y168310D01*
X56928Y168280D01*
X56917Y168247D01*
X56903Y168211D01*
X56867Y168130D01*
X56848Y168091D01*
X56823Y168050D01*
X56795Y168011D01*
X56765Y167972D01*
X56732Y167934D01*
X56695Y167900D01*
X56693Y167898D01*
X56687Y167892D01*
X56673Y167884D01*
X56660Y167873D01*
X56637Y167859D01*
X56615Y167845D01*
X56587Y167828D01*
X56554Y167812D01*
X56521Y167798D01*
X56482Y167781D01*
X56441Y167767D01*
X56396Y167754D01*
X56346Y167743D01*
X56297Y167734D01*
X56244Y167729D01*
X56189Y167726D01*
X56153D01*
X56133Y167729D01*
X56114Y167731D01*
X56061Y167737D01*
X56003Y167748D01*
X55937Y167765D01*
X55870Y167787D01*
X55804Y167817D01*
X55801D01*
X55795Y167820D01*
X55787Y167826D01*
X55773Y167834D01*
X55743Y167853D01*
X55704Y167881D01*
X55660Y167917D01*
X55615Y167959D01*
X55571Y168006D01*
X55532Y168061D01*
Y168064D01*
X55529Y168067D01*
X55524Y168078D01*
X55518Y168089D01*
X55510Y168103D01*
X55502Y168119D01*
X55485Y168161D01*
X55468Y168211D01*
X55452Y168266D01*
X55441Y168327D01*
X55438Y168391D01*
Y168394D01*
Y168399D01*
Y168407D01*
Y168418D01*
X55444Y168452D01*
X55449Y168490D01*
X55460Y168537D01*
X55477Y168587D01*
X55499Y168640D01*
X55529Y168693D01*
Y168695D01*
X55532Y168698D01*
X55546Y168715D01*
X55565Y168740D01*
X55596Y168770D01*
X55632Y168806D01*
X55679Y168842D01*
X55732Y168875D01*
X55792Y168909D01*
X55790D01*
X55781Y168911D01*
X55770Y168914D01*
X55754Y168920D01*
X55737Y168925D01*
X55715Y168934D01*
X55662Y168956D01*
X55607Y168986D01*
X55549Y169022D01*
X55491Y169069D01*
X55441Y169128D01*
X55438Y169130D01*
X55435Y169136D01*
X55430Y169144D01*
X55421Y169158D01*
X55410Y169172D01*
X55399Y169191D01*
X55388Y169213D01*
X55377Y169241D01*
X55366Y169269D01*
X55355Y169299D01*
X55333Y169369D01*
X55319Y169449D01*
X55313Y169493D01*
Y169537D01*
Y169540D01*
Y169551D01*
X55316Y169571D01*
Y169593D01*
X55322Y169623D01*
X55327Y169657D01*
X55333Y169693D01*
X55344Y169734D01*
X55358Y169779D01*
X55374Y169823D01*
X55394Y169870D01*
X55419Y169917D01*
X55446Y169967D01*
X55480Y170014D01*
X55515Y170061D01*
X55560Y170105D01*
X55563Y170108D01*
X55571Y170116D01*
X55585Y170127D01*
X55604Y170141D01*
X55626Y170158D01*
X55657Y170177D01*
X55690Y170200D01*
X55729Y170219D01*
X55770Y170241D01*
X55817Y170263D01*
X55867Y170283D01*
X55923Y170299D01*
X55981Y170313D01*
X56042Y170324D01*
X56106Y170333D01*
X56175Y170335D01*
X56189D01*
X56208Y170333D01*
D02*
G37*
G36*
X64000Y167734D02*
X62812D01*
X62781Y167737D01*
X62751D01*
X62715Y167740D01*
X62673Y167743D01*
X62590Y167751D01*
X62504Y167765D01*
X62421Y167781D01*
X62385Y167792D01*
X62349Y167803D01*
X62346D01*
X62341Y167806D01*
X62332Y167812D01*
X62319Y167817D01*
X62285Y167834D01*
X62247Y167859D01*
X62199Y167892D01*
X62152Y167936D01*
X62105Y167986D01*
X62064Y168047D01*
Y168050D01*
X62058Y168055D01*
X62053Y168064D01*
X62047Y168078D01*
X62039Y168094D01*
X62031Y168114D01*
X62019Y168136D01*
X62008Y168161D01*
X61989Y168219D01*
X61972Y168283D01*
X61961Y168355D01*
X61956Y168432D01*
Y168435D01*
Y168443D01*
Y168460D01*
X61958Y168477D01*
X61961Y168501D01*
X61964Y168529D01*
X61970Y168560D01*
X61978Y168593D01*
X62000Y168665D01*
X62014Y168704D01*
X62031Y168743D01*
X62050Y168781D01*
X62075Y168820D01*
X62103Y168856D01*
X62133Y168892D01*
X62136Y168895D01*
X62141Y168900D01*
X62152Y168909D01*
X62166Y168922D01*
X62186Y168936D01*
X62208Y168953D01*
X62235Y168972D01*
X62269Y168992D01*
X62305Y169011D01*
X62344Y169031D01*
X62388Y169050D01*
X62438Y169069D01*
X62490Y169086D01*
X62549Y169103D01*
X62612Y169116D01*
X62679Y169128D01*
X62676D01*
X62673Y169130D01*
X62657Y169139D01*
X62632Y169152D01*
X62601Y169169D01*
X62568Y169188D01*
X62535Y169208D01*
X62502Y169233D01*
X62474Y169255D01*
X62471Y169258D01*
X62468Y169261D01*
X62460Y169269D01*
X62449Y169280D01*
X62435Y169294D01*
X62418Y169310D01*
X62382Y169349D01*
X62341Y169399D01*
X62294Y169457D01*
X62244Y169524D01*
X62194Y169596D01*
X61751Y170291D01*
X62175D01*
X62512Y169759D01*
X62515Y169756D01*
X62518Y169748D01*
X62526Y169737D01*
X62537Y169720D01*
X62549Y169701D01*
X62565Y169679D01*
X62598Y169629D01*
X62637Y169571D01*
X62676Y169512D01*
X62717Y169457D01*
X62756Y169407D01*
Y169404D01*
X62762Y169402D01*
X62773Y169388D01*
X62789Y169366D01*
X62814Y169341D01*
X62839Y169313D01*
X62870Y169285D01*
X62900Y169258D01*
X62928Y169238D01*
X62931Y169236D01*
X62942Y169230D01*
X62956Y169222D01*
X62975Y169211D01*
X63000Y169200D01*
X63025Y169188D01*
X63053Y169177D01*
X63083Y169169D01*
X63086D01*
X63094Y169166D01*
X63108Y169164D01*
X63127Y169161D01*
X63155D01*
X63188Y169158D01*
X63227Y169155D01*
X63662D01*
Y170291D01*
X64000D01*
Y167734D01*
D02*
G37*
G36*
X59441D02*
X58488D01*
X58460Y167737D01*
X58427D01*
X58394Y167740D01*
X58319Y167743D01*
X58244Y167751D01*
X58169Y167759D01*
X58136Y167767D01*
X58105Y167773D01*
X58103D01*
X58094Y167776D01*
X58083Y167779D01*
X58069Y167784D01*
X58050Y167790D01*
X58028Y167795D01*
X57975Y167815D01*
X57917Y167840D01*
X57856Y167870D01*
X57793Y167909D01*
X57731Y167956D01*
X57729Y167959D01*
X57723Y167964D01*
X57712Y167972D01*
X57698Y167986D01*
X57682Y168003D01*
X57662Y168025D01*
X57640Y168047D01*
X57618Y168075D01*
X57593Y168105D01*
X57568Y168139D01*
X57543Y168175D01*
X57518Y168213D01*
X57471Y168299D01*
X57430Y168394D01*
Y168396D01*
X57424Y168404D01*
X57421Y168421D01*
X57413Y168441D01*
X57405Y168465D01*
X57396Y168496D01*
X57388Y168529D01*
X57377Y168568D01*
X57369Y168612D01*
X57360Y168659D01*
X57352Y168709D01*
X57344Y168762D01*
X57335Y168817D01*
X57333Y168875D01*
X57327Y169000D01*
Y169003D01*
Y169014D01*
Y169028D01*
Y169050D01*
X57330Y169075D01*
Y169105D01*
X57333Y169139D01*
X57335Y169175D01*
X57344Y169255D01*
X57358Y169341D01*
X57374Y169429D01*
X57396Y169518D01*
Y169521D01*
X57399Y169529D01*
X57405Y169540D01*
X57407Y169554D01*
X57416Y169573D01*
X57424Y169596D01*
X57443Y169648D01*
X57468Y169706D01*
X57499Y169770D01*
X57532Y169831D01*
X57571Y169889D01*
Y169892D01*
X57576Y169895D01*
X57582Y169903D01*
X57590Y169914D01*
X57610Y169939D01*
X57640Y169972D01*
X57673Y170011D01*
X57712Y170050D01*
X57756Y170086D01*
X57803Y170122D01*
X57806D01*
X57809Y170125D01*
X57826Y170136D01*
X57853Y170150D01*
X57889Y170169D01*
X57934Y170188D01*
X57986Y170211D01*
X58047Y170230D01*
X58111Y170249D01*
X58114D01*
X58119Y170252D01*
X58128D01*
X58141Y170255D01*
X58158Y170258D01*
X58180Y170263D01*
X58202Y170266D01*
X58227Y170269D01*
X58288Y170277D01*
X58358Y170285D01*
X58435Y170288D01*
X58518Y170291D01*
X59441D01*
Y167734D01*
D02*
G37*
G36*
X44756Y77273D02*
X42676D01*
Y77500D01*
X44756D01*
Y77273D01*
D02*
G37*
G36*
X47000Y74234D02*
X45812D01*
X45781Y74237D01*
X45751D01*
X45715Y74240D01*
X45673Y74243D01*
X45590Y74251D01*
X45504Y74265D01*
X45421Y74281D01*
X45385Y74292D01*
X45349Y74303D01*
X45346D01*
X45341Y74306D01*
X45333Y74312D01*
X45319Y74317D01*
X45285Y74334D01*
X45247Y74359D01*
X45199Y74392D01*
X45153Y74436D01*
X45105Y74486D01*
X45064Y74547D01*
Y74550D01*
X45058Y74555D01*
X45053Y74564D01*
X45047Y74578D01*
X45039Y74594D01*
X45031Y74614D01*
X45020Y74636D01*
X45008Y74661D01*
X44989Y74719D01*
X44972Y74783D01*
X44961Y74855D01*
X44956Y74932D01*
Y74935D01*
Y74943D01*
Y74960D01*
X44959Y74977D01*
X44961Y75002D01*
X44964Y75029D01*
X44970Y75060D01*
X44978Y75093D01*
X45000Y75165D01*
X45014Y75204D01*
X45031Y75243D01*
X45050Y75281D01*
X45075Y75320D01*
X45103Y75356D01*
X45133Y75392D01*
X45136Y75395D01*
X45141Y75400D01*
X45153Y75409D01*
X45166Y75423D01*
X45186Y75436D01*
X45208Y75453D01*
X45236Y75472D01*
X45269Y75492D01*
X45305Y75511D01*
X45344Y75531D01*
X45388Y75550D01*
X45438Y75569D01*
X45490Y75586D01*
X45549Y75603D01*
X45612Y75616D01*
X45679Y75627D01*
X45676D01*
X45673Y75630D01*
X45657Y75639D01*
X45632Y75652D01*
X45601Y75669D01*
X45568Y75688D01*
X45535Y75708D01*
X45502Y75733D01*
X45474Y75755D01*
X45471Y75758D01*
X45468Y75761D01*
X45460Y75769D01*
X45449Y75780D01*
X45435Y75794D01*
X45418Y75810D01*
X45382Y75849D01*
X45341Y75899D01*
X45294Y75957D01*
X45244Y76024D01*
X45194Y76096D01*
X44751Y76791D01*
X45175D01*
X45513Y76259D01*
X45515Y76256D01*
X45518Y76248D01*
X45526Y76237D01*
X45537Y76220D01*
X45549Y76201D01*
X45565Y76179D01*
X45598Y76129D01*
X45637Y76071D01*
X45676Y76012D01*
X45717Y75957D01*
X45756Y75907D01*
Y75905D01*
X45762Y75902D01*
X45773Y75888D01*
X45790Y75866D01*
X45814Y75841D01*
X45839Y75813D01*
X45870Y75785D01*
X45900Y75758D01*
X45928Y75738D01*
X45931Y75735D01*
X45942Y75730D01*
X45956Y75722D01*
X45975Y75711D01*
X46000Y75700D01*
X46025Y75688D01*
X46053Y75677D01*
X46083Y75669D01*
X46086D01*
X46094Y75666D01*
X46108Y75664D01*
X46128Y75661D01*
X46155D01*
X46188Y75658D01*
X46227Y75655D01*
X46662D01*
Y76791D01*
X47000D01*
Y74234D01*
D02*
G37*
G36*
X42441D02*
X41488D01*
X41460Y74237D01*
X41427D01*
X41394Y74240D01*
X41319Y74243D01*
X41244Y74251D01*
X41169Y74259D01*
X41136Y74267D01*
X41105Y74273D01*
X41103D01*
X41094Y74276D01*
X41083Y74278D01*
X41069Y74284D01*
X41050Y74290D01*
X41028Y74295D01*
X40975Y74314D01*
X40917Y74339D01*
X40856Y74370D01*
X40793Y74409D01*
X40731Y74456D01*
X40729Y74459D01*
X40723Y74464D01*
X40712Y74472D01*
X40698Y74486D01*
X40682Y74503D01*
X40662Y74525D01*
X40640Y74547D01*
X40618Y74575D01*
X40593Y74605D01*
X40568Y74639D01*
X40543Y74675D01*
X40518Y74713D01*
X40471Y74799D01*
X40430Y74893D01*
Y74896D01*
X40424Y74905D01*
X40421Y74921D01*
X40413Y74941D01*
X40405Y74966D01*
X40396Y74996D01*
X40388Y75029D01*
X40377Y75068D01*
X40369Y75112D01*
X40360Y75159D01*
X40352Y75209D01*
X40344Y75262D01*
X40335Y75317D01*
X40333Y75375D01*
X40327Y75500D01*
Y75503D01*
Y75514D01*
Y75528D01*
Y75550D01*
X40330Y75575D01*
Y75605D01*
X40333Y75639D01*
X40335Y75675D01*
X40344Y75755D01*
X40358Y75841D01*
X40374Y75929D01*
X40396Y76018D01*
Y76021D01*
X40399Y76029D01*
X40405Y76040D01*
X40407Y76054D01*
X40416Y76073D01*
X40424Y76096D01*
X40444Y76148D01*
X40468Y76206D01*
X40499Y76270D01*
X40532Y76331D01*
X40571Y76389D01*
Y76392D01*
X40576Y76395D01*
X40582Y76403D01*
X40590Y76414D01*
X40610Y76439D01*
X40640Y76472D01*
X40673Y76511D01*
X40712Y76550D01*
X40756Y76586D01*
X40804Y76622D01*
X40806D01*
X40809Y76625D01*
X40826Y76636D01*
X40853Y76650D01*
X40889Y76669D01*
X40934Y76688D01*
X40986Y76711D01*
X41047Y76730D01*
X41111Y76749D01*
X41114D01*
X41119Y76752D01*
X41128D01*
X41142Y76755D01*
X41158Y76758D01*
X41180Y76763D01*
X41202Y76766D01*
X41227Y76769D01*
X41288Y76777D01*
X41358Y76785D01*
X41435Y76788D01*
X41518Y76791D01*
X42441D01*
Y74234D01*
D02*
G37*
G36*
X40031Y76785D02*
Y76771D01*
Y76749D01*
X40028Y76722D01*
X40025Y76688D01*
X40017Y76652D01*
X40009Y76614D01*
X39995Y76575D01*
Y76572D01*
X39992Y76566D01*
X39989Y76558D01*
X39984Y76544D01*
X39975Y76530D01*
X39967Y76511D01*
X39945Y76467D01*
X39917Y76414D01*
X39881Y76356D01*
X39840Y76295D01*
X39790Y76234D01*
X39787Y76231D01*
X39784Y76226D01*
X39776Y76218D01*
X39762Y76204D01*
X39748Y76190D01*
X39729Y76170D01*
X39709Y76148D01*
X39685Y76123D01*
X39657Y76096D01*
X39626Y76068D01*
X39593Y76035D01*
X39554Y76002D01*
X39516Y75965D01*
X39471Y75929D01*
X39427Y75891D01*
X39377Y75849D01*
X39371Y75846D01*
X39358Y75832D01*
X39338Y75816D01*
X39311Y75791D01*
X39277Y75763D01*
X39239Y75730D01*
X39194Y75694D01*
X39150Y75652D01*
X39056Y75567D01*
X38964Y75475D01*
X38920Y75431D01*
X38878Y75387D01*
X38842Y75345D01*
X38812Y75306D01*
X38809Y75303D01*
X38806Y75298D01*
X38798Y75287D01*
X38790Y75273D01*
X38776Y75254D01*
X38765Y75234D01*
X38737Y75184D01*
X38709Y75126D01*
X38684Y75062D01*
X38668Y74996D01*
X38665Y74963D01*
X38662Y74929D01*
Y74927D01*
Y74921D01*
Y74910D01*
X38665Y74899D01*
Y74882D01*
X38671Y74863D01*
X38679Y74821D01*
X38696Y74772D01*
X38721Y74719D01*
X38734Y74691D01*
X38754Y74666D01*
X38773Y74641D01*
X38798Y74616D01*
X38801Y74614D01*
X38804Y74611D01*
X38812Y74605D01*
X38823Y74597D01*
X38837Y74586D01*
X38853Y74575D01*
X38892Y74550D01*
X38945Y74528D01*
X39003Y74506D01*
X39072Y74492D01*
X39111Y74486D01*
X39172D01*
X39189Y74489D01*
X39208D01*
X39230Y74495D01*
X39280Y74503D01*
X39338Y74519D01*
X39399Y74544D01*
X39430Y74561D01*
X39460Y74578D01*
X39488Y74600D01*
X39516Y74625D01*
X39518Y74628D01*
X39521Y74630D01*
X39527Y74639D01*
X39538Y74650D01*
X39546Y74664D01*
X39557Y74680D01*
X39571Y74700D01*
X39582Y74722D01*
X39596Y74747D01*
X39607Y74774D01*
X39629Y74841D01*
X39646Y74913D01*
X39649Y74954D01*
X39651Y74999D01*
X39973Y74966D01*
Y74960D01*
X39970Y74949D01*
X39967Y74932D01*
X39964Y74907D01*
X39959Y74877D01*
X39950Y74841D01*
X39942Y74802D01*
X39928Y74761D01*
X39914Y74719D01*
X39898Y74672D01*
X39876Y74628D01*
X39853Y74583D01*
X39826Y74536D01*
X39795Y74495D01*
X39762Y74453D01*
X39723Y74417D01*
X39720Y74414D01*
X39712Y74409D01*
X39701Y74400D01*
X39685Y74387D01*
X39662Y74373D01*
X39635Y74356D01*
X39604Y74339D01*
X39568Y74320D01*
X39529Y74303D01*
X39485Y74287D01*
X39438Y74270D01*
X39385Y74256D01*
X39330Y74243D01*
X39272Y74234D01*
X39208Y74229D01*
X39142Y74226D01*
X39105D01*
X39081Y74229D01*
X39050Y74231D01*
X39014Y74237D01*
X38973Y74243D01*
X38931Y74251D01*
X38884Y74262D01*
X38837Y74276D01*
X38787Y74292D01*
X38740Y74312D01*
X38690Y74337D01*
X38643Y74364D01*
X38599Y74395D01*
X38557Y74431D01*
X38554Y74434D01*
X38549Y74439D01*
X38538Y74453D01*
X38524Y74467D01*
X38507Y74486D01*
X38488Y74511D01*
X38469Y74539D01*
X38449Y74572D01*
X38430Y74605D01*
X38410Y74644D01*
X38391Y74686D01*
X38374Y74730D01*
X38360Y74780D01*
X38349Y74830D01*
X38344Y74882D01*
X38341Y74938D01*
Y74941D01*
Y74943D01*
Y74952D01*
Y74963D01*
X38344Y74993D01*
X38349Y75032D01*
X38358Y75079D01*
X38369Y75129D01*
X38383Y75184D01*
X38405Y75240D01*
Y75243D01*
X38407Y75245D01*
X38410Y75254D01*
X38416Y75265D01*
X38432Y75295D01*
X38455Y75334D01*
X38485Y75381D01*
X38521Y75434D01*
X38563Y75489D01*
X38615Y75550D01*
X38618Y75553D01*
X38621Y75558D01*
X38632Y75567D01*
X38643Y75580D01*
X38660Y75597D01*
X38679Y75616D01*
X38701Y75641D01*
X38729Y75666D01*
X38762Y75697D01*
X38798Y75730D01*
X38837Y75769D01*
X38881Y75808D01*
X38928Y75852D01*
X38981Y75896D01*
X39039Y75946D01*
X39100Y75999D01*
X39103Y76002D01*
X39111Y76010D01*
X39128Y76021D01*
X39144Y76038D01*
X39169Y76057D01*
X39194Y76079D01*
X39252Y76129D01*
X39313Y76182D01*
X39371Y76237D01*
X39399Y76262D01*
X39424Y76284D01*
X39446Y76306D01*
X39463Y76323D01*
X39466Y76326D01*
X39477Y76337D01*
X39491Y76353D01*
X39510Y76375D01*
X39532Y76400D01*
X39554Y76428D01*
X39599Y76489D01*
X38338D01*
Y76791D01*
X40031D01*
Y76785D01*
D02*
G37*
G36*
X130756Y23273D02*
X128676D01*
Y23500D01*
X130756D01*
Y23273D01*
D02*
G37*
G36*
X133000Y20234D02*
X131812D01*
X131781Y20237D01*
X131751D01*
X131715Y20240D01*
X131673Y20243D01*
X131590Y20251D01*
X131504Y20265D01*
X131421Y20281D01*
X131385Y20292D01*
X131349Y20303D01*
X131346D01*
X131341Y20306D01*
X131333Y20312D01*
X131319Y20317D01*
X131285Y20334D01*
X131247Y20359D01*
X131200Y20392D01*
X131152Y20436D01*
X131105Y20486D01*
X131064Y20547D01*
Y20550D01*
X131058Y20556D01*
X131053Y20564D01*
X131047Y20578D01*
X131039Y20594D01*
X131031Y20614D01*
X131019Y20636D01*
X131008Y20661D01*
X130989Y20719D01*
X130972Y20783D01*
X130961Y20855D01*
X130956Y20932D01*
Y20935D01*
Y20943D01*
Y20960D01*
X130958Y20977D01*
X130961Y21001D01*
X130964Y21029D01*
X130970Y21060D01*
X130978Y21093D01*
X131000Y21165D01*
X131014Y21204D01*
X131031Y21242D01*
X131050Y21281D01*
X131075Y21320D01*
X131103Y21356D01*
X131133Y21392D01*
X131136Y21395D01*
X131141Y21400D01*
X131152Y21409D01*
X131166Y21422D01*
X131186Y21436D01*
X131208Y21453D01*
X131236Y21472D01*
X131269Y21492D01*
X131305Y21511D01*
X131344Y21531D01*
X131388Y21550D01*
X131438Y21569D01*
X131490Y21586D01*
X131549Y21603D01*
X131612Y21616D01*
X131679Y21628D01*
X131676D01*
X131673Y21630D01*
X131657Y21639D01*
X131632Y21652D01*
X131601Y21669D01*
X131568Y21689D01*
X131535Y21708D01*
X131501Y21733D01*
X131474Y21755D01*
X131471Y21758D01*
X131468Y21760D01*
X131460Y21769D01*
X131449Y21780D01*
X131435Y21794D01*
X131418Y21810D01*
X131382Y21849D01*
X131341Y21899D01*
X131294Y21957D01*
X131244Y22024D01*
X131194Y22096D01*
X130751Y22791D01*
X131175D01*
X131512Y22259D01*
X131515Y22256D01*
X131518Y22248D01*
X131526Y22237D01*
X131537Y22220D01*
X131549Y22201D01*
X131565Y22179D01*
X131598Y22129D01*
X131637Y22071D01*
X131676Y22013D01*
X131718Y21957D01*
X131756Y21907D01*
Y21904D01*
X131762Y21902D01*
X131773Y21888D01*
X131790Y21866D01*
X131815Y21841D01*
X131839Y21813D01*
X131870Y21785D01*
X131900Y21758D01*
X131928Y21738D01*
X131931Y21735D01*
X131942Y21730D01*
X131956Y21722D01*
X131975Y21711D01*
X132000Y21700D01*
X132025Y21689D01*
X132053Y21677D01*
X132083Y21669D01*
X132086D01*
X132094Y21666D01*
X132108Y21664D01*
X132127Y21661D01*
X132155D01*
X132188Y21658D01*
X132227Y21655D01*
X132662D01*
Y22791D01*
X133000D01*
Y20234D01*
D02*
G37*
G36*
X128441D02*
X127488D01*
X127460Y20237D01*
X127427D01*
X127394Y20240D01*
X127319Y20243D01*
X127244Y20251D01*
X127169Y20259D01*
X127136Y20267D01*
X127105Y20273D01*
X127103D01*
X127094Y20276D01*
X127083Y20279D01*
X127069Y20284D01*
X127050Y20290D01*
X127028Y20295D01*
X126975Y20314D01*
X126917Y20339D01*
X126856Y20370D01*
X126793Y20409D01*
X126732Y20456D01*
X126729Y20459D01*
X126723Y20464D01*
X126712Y20472D01*
X126698Y20486D01*
X126682Y20503D01*
X126662Y20525D01*
X126640Y20547D01*
X126618Y20575D01*
X126593Y20605D01*
X126568Y20639D01*
X126543Y20675D01*
X126518Y20713D01*
X126471Y20799D01*
X126430Y20893D01*
Y20896D01*
X126424Y20904D01*
X126421Y20921D01*
X126413Y20941D01*
X126405Y20966D01*
X126396Y20996D01*
X126388Y21029D01*
X126377Y21068D01*
X126369Y21112D01*
X126360Y21159D01*
X126352Y21209D01*
X126344Y21262D01*
X126335Y21317D01*
X126333Y21375D01*
X126327Y21500D01*
Y21503D01*
Y21514D01*
Y21528D01*
Y21550D01*
X126330Y21575D01*
Y21605D01*
X126333Y21639D01*
X126335Y21675D01*
X126344Y21755D01*
X126358Y21841D01*
X126374Y21929D01*
X126396Y22018D01*
Y22021D01*
X126399Y22029D01*
X126405Y22040D01*
X126407Y22054D01*
X126416Y22073D01*
X126424Y22096D01*
X126443Y22148D01*
X126468Y22206D01*
X126499Y22270D01*
X126532Y22331D01*
X126571Y22389D01*
Y22392D01*
X126576Y22395D01*
X126582Y22403D01*
X126590Y22414D01*
X126610Y22439D01*
X126640Y22472D01*
X126673Y22511D01*
X126712Y22550D01*
X126756Y22586D01*
X126804Y22622D01*
X126806D01*
X126809Y22625D01*
X126826Y22636D01*
X126853Y22650D01*
X126889Y22669D01*
X126934Y22688D01*
X126986Y22711D01*
X127047Y22730D01*
X127111Y22749D01*
X127114D01*
X127119Y22752D01*
X127128D01*
X127141Y22755D01*
X127158Y22758D01*
X127180Y22763D01*
X127202Y22766D01*
X127227Y22769D01*
X127288Y22777D01*
X127357Y22785D01*
X127435Y22788D01*
X127518Y22791D01*
X128441D01*
Y20234D01*
D02*
G37*
G36*
X125119Y20794D02*
X125125Y20799D01*
X125139Y20813D01*
X125164Y20832D01*
X125200Y20860D01*
X125241Y20893D01*
X125294Y20930D01*
X125352Y20968D01*
X125418Y21010D01*
X125421D01*
X125427Y21015D01*
X125435Y21021D01*
X125449Y21026D01*
X125466Y21037D01*
X125485Y21046D01*
X125529Y21071D01*
X125579Y21096D01*
X125635Y21123D01*
X125693Y21148D01*
X125748Y21170D01*
Y20868D01*
X125745Y20866D01*
X125737Y20863D01*
X125723Y20855D01*
X125704Y20846D01*
X125682Y20835D01*
X125654Y20819D01*
X125624Y20802D01*
X125593Y20785D01*
X125521Y20741D01*
X125443Y20688D01*
X125363Y20633D01*
X125288Y20569D01*
X125286Y20567D01*
X125280Y20561D01*
X125269Y20553D01*
X125255Y20539D01*
X125241Y20522D01*
X125222Y20506D01*
X125180Y20459D01*
X125133Y20409D01*
X125086Y20350D01*
X125045Y20290D01*
X125009Y20226D01*
X124806D01*
Y22791D01*
X125119D01*
Y20794D01*
D02*
G37*
G36*
X145611Y99107D02*
X145630Y99104D01*
X145683Y99098D01*
X145741Y99087D01*
X145807Y99071D01*
X145874Y99048D01*
X145940Y99018D01*
X145943D01*
X145949Y99015D01*
X145957Y99010D01*
X145971Y99001D01*
X146001Y98982D01*
X146040Y98954D01*
X146084Y98918D01*
X146129Y98877D01*
X146173Y98830D01*
X146212Y98774D01*
Y98771D01*
X146214Y98769D01*
X146220Y98757D01*
X146226Y98746D01*
X146234Y98733D01*
X146242Y98716D01*
X146259Y98674D01*
X146275Y98624D01*
X146292Y98569D01*
X146303Y98508D01*
X146306Y98444D01*
Y98442D01*
Y98436D01*
Y98428D01*
Y98417D01*
X146300Y98384D01*
X146295Y98345D01*
X146284Y98298D01*
X146267Y98248D01*
X146245Y98195D01*
X146214Y98143D01*
Y98140D01*
X146212Y98137D01*
X146198Y98120D01*
X146178Y98096D01*
X146148Y98065D01*
X146112Y98029D01*
X146065Y97993D01*
X146012Y97960D01*
X145951Y97926D01*
X145954D01*
X145963Y97924D01*
X145974Y97921D01*
X145990Y97915D01*
X146007Y97910D01*
X146029Y97902D01*
X146082Y97879D01*
X146137Y97849D01*
X146195Y97813D01*
X146253Y97766D01*
X146303Y97708D01*
X146306Y97705D01*
X146309Y97699D01*
X146314Y97691D01*
X146323Y97677D01*
X146334Y97663D01*
X146345Y97644D01*
X146356Y97622D01*
X146367Y97594D01*
X146378Y97566D01*
X146389Y97536D01*
X146411Y97467D01*
X146425Y97386D01*
X146431Y97342D01*
Y97298D01*
Y97295D01*
Y97284D01*
X146428Y97264D01*
Y97242D01*
X146422Y97212D01*
X146417Y97179D01*
X146411Y97143D01*
X146400Y97101D01*
X146386Y97057D01*
X146370Y97012D01*
X146350Y96965D01*
X146325Y96918D01*
X146298Y96868D01*
X146264Y96821D01*
X146228Y96774D01*
X146184Y96730D01*
X146181Y96727D01*
X146173Y96719D01*
X146159Y96708D01*
X146140Y96694D01*
X146118Y96677D01*
X146087Y96658D01*
X146054Y96636D01*
X146015Y96616D01*
X145974Y96594D01*
X145926Y96572D01*
X145877Y96553D01*
X145821Y96536D01*
X145763Y96522D01*
X145702Y96511D01*
X145638Y96503D01*
X145569Y96500D01*
X145555D01*
X145536Y96503D01*
X145514D01*
X145483Y96505D01*
X145450Y96511D01*
X145414Y96517D01*
X145372Y96525D01*
X145328Y96536D01*
X145284Y96550D01*
X145237Y96564D01*
X145190Y96583D01*
X145142Y96608D01*
X145098Y96633D01*
X145051Y96663D01*
X145010Y96699D01*
X145007Y96702D01*
X145001Y96708D01*
X144990Y96719D01*
X144974Y96735D01*
X144957Y96755D01*
X144938Y96780D01*
X144918Y96807D01*
X144896Y96841D01*
X144874Y96874D01*
X144852Y96916D01*
X144829Y96957D01*
X144810Y97004D01*
X144793Y97054D01*
X144777Y97107D01*
X144766Y97162D01*
X144757Y97220D01*
X145071Y97262D01*
Y97259D01*
X145073Y97251D01*
X145076Y97237D01*
X145082Y97217D01*
X145087Y97195D01*
X145093Y97170D01*
X145112Y97112D01*
X145137Y97048D01*
X145168Y96985D01*
X145206Y96926D01*
X145228Y96902D01*
X145251Y96877D01*
X145253D01*
X145256Y96871D01*
X145264Y96866D01*
X145273Y96857D01*
X145300Y96841D01*
X145339Y96819D01*
X145386Y96796D01*
X145439Y96780D01*
X145503Y96766D01*
X145569Y96760D01*
X145591D01*
X145608Y96763D01*
X145624Y96766D01*
X145650Y96769D01*
X145699Y96780D01*
X145760Y96796D01*
X145824Y96824D01*
X145854Y96843D01*
X145885Y96863D01*
X145915Y96885D01*
X145946Y96913D01*
X145949Y96916D01*
X145951Y96921D01*
X145960Y96929D01*
X145971Y96940D01*
X145982Y96954D01*
X145993Y96974D01*
X146007Y96993D01*
X146023Y97018D01*
X146051Y97073D01*
X146073Y97137D01*
X146093Y97212D01*
X146095Y97251D01*
X146098Y97292D01*
Y97295D01*
Y97300D01*
Y97314D01*
X146095Y97328D01*
X146093Y97348D01*
X146090Y97367D01*
X146082Y97417D01*
X146062Y97475D01*
X146037Y97533D01*
X146021Y97564D01*
X146001Y97591D01*
X145979Y97619D01*
X145954Y97647D01*
X145951Y97650D01*
X145949Y97652D01*
X145940Y97661D01*
X145929Y97669D01*
X145915Y97680D01*
X145899Y97691D01*
X145857Y97719D01*
X145805Y97744D01*
X145744Y97766D01*
X145674Y97782D01*
X145636Y97785D01*
X145597Y97788D01*
X145580D01*
X145561Y97785D01*
X145536D01*
X145503Y97780D01*
X145467Y97774D01*
X145422Y97766D01*
X145375Y97755D01*
X145408Y98029D01*
X145414D01*
X145428Y98026D01*
X145445Y98023D01*
X145481D01*
X145494Y98026D01*
X145514D01*
X145533Y98029D01*
X145580Y98037D01*
X145636Y98048D01*
X145696Y98068D01*
X145760Y98093D01*
X145821Y98129D01*
X145824D01*
X145829Y98134D01*
X145835Y98140D01*
X145846Y98148D01*
X145874Y98173D01*
X145904Y98209D01*
X145932Y98253D01*
X145960Y98309D01*
X145971Y98339D01*
X145976Y98375D01*
X145982Y98411D01*
X145985Y98450D01*
Y98453D01*
Y98458D01*
Y98467D01*
X145982Y98480D01*
X145979Y98511D01*
X145971Y98553D01*
X145957Y98597D01*
X145935Y98644D01*
X145904Y98694D01*
X145888Y98716D01*
X145865Y98738D01*
X145860Y98744D01*
X145843Y98755D01*
X145818Y98774D01*
X145785Y98796D01*
X145741Y98816D01*
X145688Y98835D01*
X145630Y98846D01*
X145564Y98852D01*
X145547D01*
X145533Y98849D01*
X145517D01*
X145500Y98846D01*
X145456Y98838D01*
X145408Y98824D01*
X145356Y98802D01*
X145306Y98774D01*
X145256Y98735D01*
X145251Y98730D01*
X145237Y98713D01*
X145215Y98688D01*
X145192Y98650D01*
X145165Y98602D01*
X145140Y98541D01*
X145118Y98472D01*
X145101Y98392D01*
X144788Y98447D01*
Y98450D01*
X144791Y98461D01*
X144793Y98478D01*
X144799Y98500D01*
X144807Y98525D01*
X144816Y98555D01*
X144827Y98589D01*
X144841Y98624D01*
X144877Y98705D01*
X144896Y98744D01*
X144921Y98785D01*
X144949Y98824D01*
X144979Y98863D01*
X145012Y98901D01*
X145048Y98935D01*
X145051Y98938D01*
X145057Y98943D01*
X145071Y98951D01*
X145084Y98962D01*
X145106Y98976D01*
X145129Y98990D01*
X145156Y99007D01*
X145190Y99023D01*
X145223Y99037D01*
X145262Y99054D01*
X145303Y99068D01*
X145347Y99082D01*
X145397Y99093D01*
X145447Y99101D01*
X145500Y99107D01*
X145555Y99109D01*
X145591D01*
X145611Y99107D01*
D02*
G37*
G36*
X143608Y99098D02*
X143672Y99095D01*
X143735Y99090D01*
X143796Y99084D01*
X143827Y99082D01*
X143852Y99076D01*
X143854D01*
X143860Y99073D01*
X143871D01*
X143882Y99071D01*
X143899Y99065D01*
X143918Y99062D01*
X143963Y99048D01*
X144012Y99032D01*
X144065Y99010D01*
X144118Y98985D01*
X144167Y98954D01*
X144170D01*
X144173Y98951D01*
X144190Y98938D01*
X144212Y98918D01*
X144242Y98891D01*
X144273Y98857D01*
X144309Y98813D01*
X144342Y98766D01*
X144372Y98708D01*
Y98705D01*
X144375Y98699D01*
X144381Y98691D01*
X144386Y98680D01*
X144392Y98666D01*
X144397Y98647D01*
X144414Y98605D01*
X144428Y98553D01*
X144442Y98494D01*
X144450Y98428D01*
X144453Y98359D01*
Y98356D01*
Y98345D01*
Y98328D01*
X144450Y98303D01*
X144447Y98276D01*
X144442Y98245D01*
X144436Y98209D01*
X144428Y98168D01*
X144417Y98126D01*
X144403Y98082D01*
X144386Y98037D01*
X144364Y97990D01*
X144342Y97943D01*
X144314Y97896D01*
X144281Y97852D01*
X144245Y97807D01*
X144242Y97805D01*
X144234Y97799D01*
X144223Y97788D01*
X144203Y97771D01*
X144181Y97755D01*
X144151Y97735D01*
X144115Y97716D01*
X144073Y97697D01*
X144024Y97674D01*
X143971Y97655D01*
X143907Y97636D01*
X143841Y97619D01*
X143763Y97605D01*
X143680Y97594D01*
X143591Y97586D01*
X143492Y97583D01*
X142838D01*
Y96544D01*
X142500D01*
Y99101D01*
X143553D01*
X143608Y99098D01*
D02*
G37*
G36*
X158679Y155393D02*
X159291D01*
Y155080D01*
X158679D01*
Y153966D01*
X158391D01*
X156734Y155135D01*
Y155393D01*
X158391D01*
Y155739D01*
X158679D01*
Y155393D01*
D02*
G37*
G36*
X158939Y153698D02*
X158945Y153689D01*
X158956Y153675D01*
X158970Y153656D01*
X158986Y153634D01*
X159003Y153606D01*
X159025Y153576D01*
X159047Y153543D01*
X159069Y153507D01*
X159094Y153465D01*
X159144Y153379D01*
X159191Y153285D01*
X159233Y153185D01*
Y153182D01*
X159238Y153174D01*
X159241Y153160D01*
X159249Y153138D01*
X159255Y153116D01*
X159263Y153085D01*
X159274Y153055D01*
X159283Y153019D01*
X159291Y152978D01*
X159302Y152936D01*
X159316Y152845D01*
X159327Y152745D01*
X159333Y152642D01*
Y152606D01*
X159330Y152579D01*
X159327Y152545D01*
X159324Y152507D01*
X159319Y152462D01*
X159313Y152415D01*
X159305Y152365D01*
X159294Y152310D01*
X159280Y152254D01*
X159263Y152194D01*
X159247Y152135D01*
X159224Y152077D01*
X159200Y152016D01*
X159172Y151958D01*
X159169Y151955D01*
X159163Y151944D01*
X159155Y151928D01*
X159141Y151908D01*
X159125Y151883D01*
X159105Y151853D01*
X159080Y151820D01*
X159053Y151784D01*
X159022Y151748D01*
X158986Y151709D01*
X158950Y151670D01*
X158909Y151631D01*
X158862Y151595D01*
X158815Y151559D01*
X158762Y151523D01*
X158706Y151493D01*
X158704Y151490D01*
X158693Y151487D01*
X158676Y151479D01*
X158654Y151468D01*
X158623Y151457D01*
X158590Y151443D01*
X158551Y151429D01*
X158507Y151415D01*
X158460Y151401D01*
X158407Y151388D01*
X158349Y151374D01*
X158291Y151363D01*
X158227Y151351D01*
X158163Y151343D01*
X158094Y151340D01*
X158025Y151338D01*
X158019D01*
X158008D01*
X157989D01*
X157961Y151340D01*
X157928Y151343D01*
X157889Y151346D01*
X157845Y151351D01*
X157798Y151357D01*
X157745Y151365D01*
X157690Y151376D01*
X157573Y151404D01*
X157513Y151421D01*
X157452Y151443D01*
X157391Y151465D01*
X157330Y151493D01*
X157327Y151496D01*
X157316Y151501D01*
X157299Y151509D01*
X157277Y151521D01*
X157249Y151537D01*
X157219Y151557D01*
X157186Y151581D01*
X157147Y151606D01*
X157108Y151637D01*
X157069Y151670D01*
X157031Y151706D01*
X156989Y151748D01*
X156950Y151789D01*
X156914Y151836D01*
X156878Y151886D01*
X156848Y151939D01*
X156845Y151942D01*
X156842Y151953D01*
X156834Y151969D01*
X156823Y151991D01*
X156812Y152019D01*
X156798Y152052D01*
X156784Y152091D01*
X156767Y152133D01*
X156754Y152180D01*
X156740Y152232D01*
X156726Y152288D01*
X156715Y152349D01*
X156704Y152410D01*
X156695Y152476D01*
X156693Y152545D01*
X156690Y152615D01*
Y152662D01*
X156693Y152687D01*
X156695Y152714D01*
X156698Y152745D01*
X156701Y152781D01*
X156712Y152858D01*
X156729Y152944D01*
X156751Y153030D01*
X156781Y153116D01*
Y153119D01*
X156784Y153127D01*
X156790Y153138D01*
X156798Y153152D01*
X156806Y153171D01*
X156817Y153193D01*
X156845Y153243D01*
X156881Y153302D01*
X156923Y153360D01*
X156972Y153415D01*
X157031Y153468D01*
X157033Y153471D01*
X157039Y153473D01*
X157047Y153479D01*
X157058Y153490D01*
X157075Y153498D01*
X157094Y153512D01*
X157116Y153526D01*
X157144Y153540D01*
X157172Y153556D01*
X157202Y153570D01*
X157238Y153587D01*
X157274Y153603D01*
X157358Y153634D01*
X157449Y153662D01*
X157532Y153354D01*
X157529D01*
X157524Y153351D01*
X157513Y153349D01*
X157499Y153343D01*
X157485Y153338D01*
X157466Y153332D01*
X157421Y153315D01*
X157371Y153293D01*
X157322Y153268D01*
X157272Y153241D01*
X157227Y153210D01*
X157222Y153207D01*
X157208Y153193D01*
X157188Y153174D01*
X157161Y153149D01*
X157133Y153113D01*
X157103Y153072D01*
X157075Y153022D01*
X157047Y152966D01*
Y152964D01*
X157044Y152958D01*
X157042Y152950D01*
X157036Y152939D01*
X157031Y152925D01*
X157025Y152905D01*
X157011Y152864D01*
X157000Y152811D01*
X156989Y152753D01*
X156981Y152687D01*
X156978Y152617D01*
Y152579D01*
X156981Y152559D01*
Y152534D01*
X156983Y152509D01*
X156986Y152479D01*
X156995Y152418D01*
X157008Y152349D01*
X157025Y152282D01*
X157050Y152216D01*
Y152213D01*
X157053Y152207D01*
X157058Y152199D01*
X157064Y152188D01*
X157078Y152157D01*
X157100Y152119D01*
X157127Y152075D01*
X157161Y152030D01*
X157197Y151983D01*
X157238Y151942D01*
X157244Y151936D01*
X157258Y151925D01*
X157283Y151906D01*
X157313Y151883D01*
X157349Y151858D01*
X157394Y151831D01*
X157441Y151806D01*
X157490Y151784D01*
X157493D01*
X157501Y151781D01*
X157513Y151775D01*
X157532Y151770D01*
X157554Y151761D01*
X157579Y151753D01*
X157609Y151745D01*
X157643Y151736D01*
X157679Y151725D01*
X157720Y151717D01*
X157806Y151703D01*
X157903Y151692D01*
X158006Y151687D01*
X158008D01*
X158019D01*
X158039D01*
X158061Y151689D01*
X158091D01*
X158125Y151692D01*
X158163Y151698D01*
X158205Y151700D01*
X158297Y151714D01*
X158391Y151736D01*
X158488Y151764D01*
X158579Y151803D01*
X158582Y151806D01*
X158590Y151809D01*
X158601Y151814D01*
X158618Y151825D01*
X158634Y151836D01*
X158657Y151853D01*
X158706Y151889D01*
X158762Y151939D01*
X158820Y151997D01*
X158873Y152063D01*
X158898Y152102D01*
X158920Y152144D01*
Y152146D01*
X158925Y152155D01*
X158931Y152166D01*
X158936Y152182D01*
X158945Y152205D01*
X158956Y152230D01*
X158964Y152257D01*
X158975Y152288D01*
X158986Y152321D01*
X158994Y152360D01*
X159014Y152440D01*
X159025Y152529D01*
X159030Y152623D01*
Y152645D01*
X159028Y152662D01*
Y152681D01*
X159025Y152703D01*
X159022Y152728D01*
X159019Y152759D01*
X159011Y152822D01*
X158994Y152894D01*
X158975Y152972D01*
X158947Y153050D01*
Y153052D01*
X158945Y153058D01*
X158939Y153069D01*
X158934Y153085D01*
X158925Y153102D01*
X158914Y153121D01*
X158892Y153169D01*
X158864Y153221D01*
X158834Y153274D01*
X158803Y153324D01*
X158767Y153368D01*
X158288D01*
Y152617D01*
X157986D01*
Y153700D01*
X158936D01*
X158939Y153698D01*
D02*
G37*
G36*
X159291Y150673D02*
X158759Y150335D01*
X158756Y150332D01*
X158748Y150329D01*
X158737Y150321D01*
X158720Y150310D01*
X158701Y150299D01*
X158679Y150282D01*
X158629Y150249D01*
X158571Y150210D01*
X158513Y150171D01*
X158457Y150130D01*
X158407Y150091D01*
X158405D01*
X158402Y150086D01*
X158388Y150075D01*
X158366Y150058D01*
X158341Y150033D01*
X158313Y150008D01*
X158285Y149978D01*
X158258Y149947D01*
X158238Y149919D01*
X158236Y149917D01*
X158230Y149906D01*
X158222Y149892D01*
X158211Y149872D01*
X158200Y149847D01*
X158188Y149822D01*
X158177Y149795D01*
X158169Y149764D01*
Y149761D01*
X158166Y149753D01*
X158163Y149739D01*
X158161Y149720D01*
Y149692D01*
X158158Y149659D01*
X158155Y149620D01*
Y149185D01*
X159291D01*
Y148847D01*
X156734D01*
Y150036D01*
X156737Y150066D01*
Y150097D01*
X156740Y150133D01*
X156743Y150174D01*
X156751Y150257D01*
X156765Y150343D01*
X156781Y150426D01*
X156792Y150462D01*
X156804Y150498D01*
Y150501D01*
X156806Y150507D01*
X156812Y150515D01*
X156817Y150529D01*
X156834Y150562D01*
X156859Y150601D01*
X156892Y150648D01*
X156936Y150695D01*
X156986Y150742D01*
X157047Y150784D01*
X157050D01*
X157055Y150789D01*
X157064Y150795D01*
X157078Y150800D01*
X157094Y150809D01*
X157114Y150817D01*
X157136Y150828D01*
X157161Y150839D01*
X157219Y150858D01*
X157283Y150875D01*
X157355Y150886D01*
X157432Y150892D01*
X157435D01*
X157443D01*
X157460D01*
X157477Y150889D01*
X157501Y150886D01*
X157529Y150883D01*
X157560Y150878D01*
X157593Y150870D01*
X157665Y150847D01*
X157704Y150833D01*
X157743Y150817D01*
X157781Y150797D01*
X157820Y150773D01*
X157856Y150745D01*
X157892Y150714D01*
X157895Y150712D01*
X157900Y150706D01*
X157909Y150695D01*
X157922Y150681D01*
X157936Y150662D01*
X157953Y150640D01*
X157972Y150612D01*
X157992Y150579D01*
X158011Y150543D01*
X158031Y150504D01*
X158050Y150460D01*
X158069Y150410D01*
X158086Y150357D01*
X158103Y150299D01*
X158116Y150235D01*
X158127Y150169D01*
Y150171D01*
X158130Y150174D01*
X158139Y150191D01*
X158152Y150216D01*
X158169Y150246D01*
X158188Y150279D01*
X158208Y150313D01*
X158233Y150346D01*
X158255Y150374D01*
X158258Y150376D01*
X158261Y150379D01*
X158269Y150388D01*
X158280Y150399D01*
X158294Y150412D01*
X158310Y150429D01*
X158349Y150465D01*
X158399Y150507D01*
X158457Y150554D01*
X158524Y150604D01*
X158596Y150653D01*
X159291Y151097D01*
Y150673D01*
D02*
G37*
G36*
X157036Y147651D02*
X159291D01*
Y147313D01*
X157036D01*
Y146471D01*
X156734D01*
Y148493D01*
X157036D01*
Y147651D01*
D02*
G37*
G36*
X160000Y144346D02*
X159773D01*
Y146426D01*
X160000D01*
Y144346D01*
D02*
G37*
G36*
X158499Y144255D02*
X158518Y144249D01*
X158549Y144238D01*
X158582Y144227D01*
X158623Y144210D01*
X158668Y144194D01*
X158715Y144172D01*
X158767Y144147D01*
X158817Y144119D01*
X158873Y144088D01*
X158925Y144053D01*
X158975Y144014D01*
X159025Y143972D01*
X159072Y143925D01*
X159116Y143875D01*
X159119Y143872D01*
X159125Y143861D01*
X159136Y143848D01*
X159150Y143825D01*
X159166Y143800D01*
X159186Y143767D01*
X159205Y143731D01*
X159224Y143687D01*
X159244Y143640D01*
X159263Y143590D01*
X159283Y143535D01*
X159299Y143474D01*
X159313Y143410D01*
X159324Y143343D01*
X159330Y143274D01*
X159333Y143199D01*
Y143161D01*
X159330Y143130D01*
X159327Y143097D01*
X159324Y143055D01*
X159319Y143011D01*
X159310Y142961D01*
X159302Y142909D01*
X159291Y142853D01*
X159277Y142798D01*
X159263Y142742D01*
X159244Y142684D01*
X159222Y142629D01*
X159197Y142576D01*
X159166Y142526D01*
X159163Y142524D01*
X159158Y142515D01*
X159150Y142501D01*
X159136Y142485D01*
X159116Y142463D01*
X159097Y142438D01*
X159072Y142410D01*
X159042Y142379D01*
X159008Y142349D01*
X158972Y142316D01*
X158934Y142285D01*
X158889Y142252D01*
X158842Y142219D01*
X158792Y142188D01*
X158737Y142161D01*
X158679Y142133D01*
X158676Y142130D01*
X158665Y142127D01*
X158645Y142122D01*
X158623Y142113D01*
X158593Y142102D01*
X158560Y142091D01*
X158518Y142080D01*
X158474Y142066D01*
X158424Y142055D01*
X158371Y142042D01*
X158316Y142030D01*
X158255Y142022D01*
X158127Y142006D01*
X158061Y142003D01*
X157995Y142000D01*
X157989D01*
X157978D01*
X157956D01*
X157928Y142003D01*
X157892Y142006D01*
X157851Y142008D01*
X157806Y142014D01*
X157756Y142019D01*
X157704Y142028D01*
X157648Y142036D01*
X157529Y142064D01*
X157471Y142083D01*
X157413Y142102D01*
X157352Y142125D01*
X157297Y142152D01*
X157294Y142155D01*
X157283Y142161D01*
X157269Y142169D01*
X157247Y142180D01*
X157222Y142197D01*
X157194Y142216D01*
X157164Y142238D01*
X157127Y142263D01*
X157094Y142294D01*
X157055Y142324D01*
X157019Y142360D01*
X156981Y142399D01*
X156945Y142440D01*
X156909Y142485D01*
X156876Y142535D01*
X156845Y142584D01*
X156842Y142587D01*
X156840Y142598D01*
X156831Y142612D01*
X156820Y142634D01*
X156809Y142659D01*
X156795Y142692D01*
X156781Y142728D01*
X156767Y142767D01*
X156754Y142812D01*
X156740Y142861D01*
X156726Y142911D01*
X156715Y142967D01*
X156695Y143080D01*
X156693Y143141D01*
X156690Y143205D01*
Y143241D01*
X156693Y143269D01*
X156695Y143302D01*
X156701Y143341D01*
X156707Y143382D01*
X156715Y143429D01*
X156726Y143479D01*
X156737Y143532D01*
X156754Y143584D01*
X156773Y143640D01*
X156795Y143695D01*
X156823Y143748D01*
X156851Y143800D01*
X156887Y143850D01*
X156889Y143853D01*
X156895Y143861D01*
X156906Y143875D01*
X156923Y143892D01*
X156942Y143914D01*
X156967Y143939D01*
X156995Y143964D01*
X157028Y143994D01*
X157064Y144025D01*
X157105Y144055D01*
X157150Y144086D01*
X157200Y144114D01*
X157252Y144144D01*
X157310Y144169D01*
X157371Y144194D01*
X157435Y144216D01*
X157513Y143884D01*
X157510D01*
X157501Y143878D01*
X157485Y143875D01*
X157466Y143867D01*
X157443Y143859D01*
X157418Y143845D01*
X157358Y143817D01*
X157291Y143781D01*
X157222Y143734D01*
X157158Y143684D01*
X157130Y143654D01*
X157105Y143623D01*
X157103Y143620D01*
X157100Y143615D01*
X157094Y143607D01*
X157086Y143593D01*
X157075Y143576D01*
X157064Y143557D01*
X157053Y143535D01*
X157042Y143507D01*
X157031Y143476D01*
X157019Y143446D01*
X156997Y143374D01*
X156983Y143291D01*
X156978Y143246D01*
Y143172D01*
X156981Y143149D01*
X156983Y143125D01*
X156986Y143094D01*
X156989Y143061D01*
X156995Y143028D01*
X157014Y142947D01*
X157039Y142864D01*
X157055Y142823D01*
X157075Y142781D01*
X157097Y142742D01*
X157122Y142703D01*
X157125Y142701D01*
X157127Y142695D01*
X157136Y142684D01*
X157147Y142670D01*
X157161Y142656D01*
X157180Y142637D01*
X157200Y142618D01*
X157222Y142596D01*
X157249Y142573D01*
X157277Y142548D01*
X157341Y142504D01*
X157416Y142463D01*
X157501Y142427D01*
X157504D01*
X157513Y142424D01*
X157526Y142418D01*
X157543Y142415D01*
X157565Y142410D01*
X157590Y142402D01*
X157621Y142396D01*
X157651Y142388D01*
X157687Y142379D01*
X157726Y142374D01*
X157809Y142360D01*
X157898Y142352D01*
X157992Y142349D01*
X157995D01*
X158006D01*
X158022D01*
X158047Y142352D01*
X158075D01*
X158108Y142355D01*
X158144Y142357D01*
X158186Y142360D01*
X158230Y142366D01*
X158274Y142371D01*
X158371Y142388D01*
X158468Y142413D01*
X158562Y142443D01*
X158565D01*
X158573Y142449D01*
X158585Y142454D01*
X158601Y142460D01*
X158623Y142471D01*
X158645Y142485D01*
X158698Y142515D01*
X158759Y142557D01*
X158817Y142607D01*
X158875Y142667D01*
X158900Y142701D01*
X158925Y142737D01*
Y142740D01*
X158931Y142745D01*
X158936Y142756D01*
X158945Y142773D01*
X158953Y142792D01*
X158964Y142814D01*
X158972Y142839D01*
X158983Y142867D01*
X159006Y142931D01*
X159025Y143006D01*
X159039Y143086D01*
X159042Y143127D01*
X159044Y143172D01*
Y143199D01*
X159042Y143219D01*
X159039Y143244D01*
X159036Y143271D01*
X159030Y143305D01*
X159025Y143338D01*
X159006Y143415D01*
X158992Y143454D01*
X158975Y143496D01*
X158956Y143537D01*
X158934Y143576D01*
X158909Y143615D01*
X158881Y143654D01*
X158878Y143656D01*
X158873Y143662D01*
X158864Y143673D01*
X158851Y143687D01*
X158834Y143701D01*
X158812Y143720D01*
X158787Y143739D01*
X158759Y143762D01*
X158726Y143784D01*
X158690Y143806D01*
X158651Y143828D01*
X158607Y143850D01*
X158560Y143870D01*
X158507Y143889D01*
X158452Y143909D01*
X158393Y143922D01*
X158479Y144260D01*
X158485D01*
X158499Y144255D01*
D02*
G37*
G36*
X133505Y12307D02*
X133533Y12305D01*
X133563Y12302D01*
X133599Y12299D01*
X133677Y12288D01*
X133763Y12271D01*
X133849Y12249D01*
X133935Y12219D01*
X133937D01*
X133946Y12216D01*
X133957Y12210D01*
X133971Y12202D01*
X133990Y12194D01*
X134012Y12183D01*
X134062Y12155D01*
X134120Y12119D01*
X134178Y12077D01*
X134234Y12028D01*
X134286Y11969D01*
X134289Y11967D01*
X134292Y11961D01*
X134298Y11953D01*
X134309Y11942D01*
X134317Y11925D01*
X134331Y11906D01*
X134345Y11884D01*
X134358Y11856D01*
X134375Y11828D01*
X134389Y11798D01*
X134406Y11762D01*
X134422Y11726D01*
X134453Y11643D01*
X134480Y11551D01*
X134173Y11468D01*
Y11471D01*
X134170Y11476D01*
X134167Y11487D01*
X134162Y11501D01*
X134156Y11515D01*
X134151Y11535D01*
X134134Y11579D01*
X134112Y11629D01*
X134087Y11678D01*
X134059Y11728D01*
X134029Y11773D01*
X134026Y11778D01*
X134012Y11792D01*
X133993Y11812D01*
X133968Y11839D01*
X133932Y11867D01*
X133890Y11897D01*
X133840Y11925D01*
X133785Y11953D01*
X133782D01*
X133777Y11955D01*
X133768Y11958D01*
X133757Y11964D01*
X133744Y11969D01*
X133724Y11975D01*
X133683Y11989D01*
X133630Y12000D01*
X133572Y12011D01*
X133505Y12019D01*
X133436Y12022D01*
X133397D01*
X133378Y12019D01*
X133353D01*
X133328Y12016D01*
X133298Y12014D01*
X133237Y12005D01*
X133167Y11992D01*
X133101Y11975D01*
X133034Y11950D01*
X133032D01*
X133026Y11947D01*
X133018Y11942D01*
X133007Y11936D01*
X132976Y11922D01*
X132937Y11900D01*
X132893Y11872D01*
X132849Y11839D01*
X132802Y11803D01*
X132760Y11762D01*
X132755Y11756D01*
X132744Y11742D01*
X132724Y11717D01*
X132702Y11687D01*
X132677Y11651D01*
X132649Y11607D01*
X132624Y11559D01*
X132602Y11510D01*
Y11507D01*
X132599Y11498D01*
X132594Y11487D01*
X132588Y11468D01*
X132580Y11446D01*
X132572Y11421D01*
X132563Y11390D01*
X132555Y11357D01*
X132544Y11321D01*
X132536Y11280D01*
X132522Y11194D01*
X132511Y11097D01*
X132505Y10994D01*
Y10992D01*
Y10981D01*
Y10961D01*
X132508Y10939D01*
Y10909D01*
X132511Y10875D01*
X132516Y10836D01*
X132519Y10795D01*
X132533Y10704D01*
X132555Y10609D01*
X132583Y10512D01*
X132622Y10421D01*
X132624Y10418D01*
X132627Y10410D01*
X132633Y10399D01*
X132644Y10382D01*
X132655Y10366D01*
X132671Y10343D01*
X132708Y10294D01*
X132757Y10238D01*
X132816Y10180D01*
X132882Y10127D01*
X132921Y10102D01*
X132962Y10080D01*
X132965D01*
X132973Y10075D01*
X132984Y10069D01*
X133001Y10064D01*
X133023Y10055D01*
X133048Y10044D01*
X133076Y10036D01*
X133106Y10025D01*
X133140Y10014D01*
X133178Y10006D01*
X133259Y9986D01*
X133347Y9975D01*
X133441Y9969D01*
X133464D01*
X133480Y9972D01*
X133500D01*
X133522Y9975D01*
X133547Y9978D01*
X133577Y9980D01*
X133641Y9989D01*
X133713Y10006D01*
X133791Y10025D01*
X133868Y10052D01*
X133871D01*
X133876Y10055D01*
X133888Y10061D01*
X133904Y10066D01*
X133921Y10075D01*
X133940Y10086D01*
X133987Y10108D01*
X134040Y10136D01*
X134092Y10166D01*
X134142Y10197D01*
X134187Y10233D01*
Y10712D01*
X133436D01*
Y11014D01*
X134519D01*
Y10064D01*
X134516Y10061D01*
X134508Y10055D01*
X134494Y10044D01*
X134475Y10030D01*
X134453Y10014D01*
X134425Y9997D01*
X134394Y9975D01*
X134361Y9953D01*
X134325Y9931D01*
X134284Y9906D01*
X134198Y9856D01*
X134104Y9809D01*
X134004Y9767D01*
X134001D01*
X133993Y9762D01*
X133979Y9759D01*
X133957Y9751D01*
X133935Y9745D01*
X133904Y9737D01*
X133874Y9726D01*
X133838Y9717D01*
X133796Y9709D01*
X133755Y9698D01*
X133663Y9684D01*
X133563Y9673D01*
X133461Y9668D01*
X133425D01*
X133397Y9670D01*
X133364Y9673D01*
X133325Y9676D01*
X133281Y9681D01*
X133234Y9687D01*
X133184Y9695D01*
X133128Y9706D01*
X133073Y9720D01*
X133012Y9737D01*
X132954Y9753D01*
X132896Y9775D01*
X132835Y9800D01*
X132777Y9828D01*
X132774Y9831D01*
X132763Y9837D01*
X132746Y9845D01*
X132727Y9859D01*
X132702Y9875D01*
X132671Y9895D01*
X132638Y9920D01*
X132602Y9947D01*
X132566Y9978D01*
X132527Y10014D01*
X132489Y10050D01*
X132450Y10091D01*
X132414Y10138D01*
X132378Y10186D01*
X132342Y10238D01*
X132311Y10294D01*
X132309Y10296D01*
X132306Y10307D01*
X132298Y10324D01*
X132286Y10346D01*
X132275Y10377D01*
X132262Y10410D01*
X132248Y10449D01*
X132234Y10493D01*
X132220Y10540D01*
X132206Y10593D01*
X132192Y10651D01*
X132181Y10709D01*
X132170Y10773D01*
X132162Y10836D01*
X132159Y10906D01*
X132156Y10975D01*
Y10981D01*
Y10992D01*
Y11011D01*
X132159Y11039D01*
X132162Y11072D01*
X132165Y11111D01*
X132170Y11155D01*
X132176Y11202D01*
X132184Y11255D01*
X132195Y11310D01*
X132223Y11427D01*
X132239Y11487D01*
X132262Y11548D01*
X132284Y11609D01*
X132311Y11670D01*
X132314Y11673D01*
X132320Y11684D01*
X132328Y11701D01*
X132339Y11723D01*
X132356Y11751D01*
X132375Y11781D01*
X132400Y11814D01*
X132425Y11853D01*
X132455Y11892D01*
X132489Y11931D01*
X132525Y11969D01*
X132566Y12011D01*
X132608Y12050D01*
X132655Y12086D01*
X132705Y12122D01*
X132757Y12152D01*
X132760Y12155D01*
X132771Y12158D01*
X132788Y12166D01*
X132810Y12177D01*
X132838Y12188D01*
X132871Y12202D01*
X132910Y12216D01*
X132951Y12233D01*
X132998Y12246D01*
X133051Y12260D01*
X133106Y12274D01*
X133167Y12285D01*
X133228Y12296D01*
X133295Y12305D01*
X133364Y12307D01*
X133433Y12310D01*
X133480D01*
X133505Y12307D01*
D02*
G37*
G36*
X137029Y9709D02*
X136680D01*
X135339Y11715D01*
Y9709D01*
X135015D01*
Y12266D01*
X135361D01*
X136705Y10257D01*
Y12266D01*
X137029D01*
Y9709D01*
D02*
G37*
G36*
X138577Y12263D02*
X138610D01*
X138644Y12260D01*
X138718Y12257D01*
X138793Y12249D01*
X138868Y12241D01*
X138901Y12233D01*
X138932Y12227D01*
X138934D01*
X138943Y12224D01*
X138954Y12222D01*
X138968Y12216D01*
X138987Y12210D01*
X139009Y12205D01*
X139062Y12185D01*
X139120Y12161D01*
X139181Y12130D01*
X139245Y12091D01*
X139306Y12044D01*
X139308Y12041D01*
X139314Y12036D01*
X139325Y12028D01*
X139339Y12014D01*
X139356Y11997D01*
X139375Y11975D01*
X139397Y11953D01*
X139419Y11925D01*
X139444Y11895D01*
X139469Y11861D01*
X139494Y11825D01*
X139519Y11787D01*
X139566Y11701D01*
X139608Y11607D01*
Y11604D01*
X139613Y11595D01*
X139616Y11579D01*
X139624Y11559D01*
X139632Y11535D01*
X139641Y11504D01*
X139649Y11471D01*
X139660Y11432D01*
X139669Y11388D01*
X139677Y11341D01*
X139685Y11291D01*
X139693Y11238D01*
X139702Y11183D01*
X139705Y11124D01*
X139710Y11000D01*
Y10997D01*
Y10986D01*
Y10972D01*
Y10950D01*
X139707Y10925D01*
Y10895D01*
X139705Y10861D01*
X139702Y10825D01*
X139693Y10745D01*
X139680Y10659D01*
X139663Y10571D01*
X139641Y10482D01*
Y10479D01*
X139638Y10471D01*
X139632Y10460D01*
X139630Y10446D01*
X139621Y10426D01*
X139613Y10404D01*
X139594Y10352D01*
X139569Y10294D01*
X139538Y10230D01*
X139505Y10169D01*
X139466Y10111D01*
Y10108D01*
X139461Y10105D01*
X139455Y10097D01*
X139447Y10086D01*
X139427Y10061D01*
X139397Y10028D01*
X139364Y9989D01*
X139325Y9950D01*
X139281Y9914D01*
X139234Y9878D01*
X139231D01*
X139228Y9875D01*
X139211Y9864D01*
X139184Y9850D01*
X139148Y9831D01*
X139103Y9812D01*
X139051Y9789D01*
X138990Y9770D01*
X138926Y9751D01*
X138923D01*
X138918Y9748D01*
X138909D01*
X138896Y9745D01*
X138879Y9742D01*
X138857Y9737D01*
X138835Y9734D01*
X138810Y9731D01*
X138749Y9723D01*
X138680Y9715D01*
X138602Y9712D01*
X138519Y9709D01*
X137596D01*
Y12266D01*
X138549D01*
X138577Y12263D01*
D02*
G37*
G36*
X128979D02*
X129043Y12260D01*
X129106Y12255D01*
X129167Y12249D01*
X129198Y12246D01*
X129223Y12241D01*
X129226D01*
X129231Y12238D01*
X129242D01*
X129253Y12235D01*
X129270Y12230D01*
X129289Y12227D01*
X129334Y12213D01*
X129384Y12196D01*
X129436Y12174D01*
X129489Y12149D01*
X129539Y12119D01*
X129541D01*
X129544Y12116D01*
X129561Y12102D01*
X129583Y12083D01*
X129613Y12055D01*
X129644Y12022D01*
X129680Y11978D01*
X129713Y11931D01*
X129744Y11872D01*
Y11870D01*
X129746Y11864D01*
X129752Y11856D01*
X129757Y11845D01*
X129763Y11831D01*
X129769Y11812D01*
X129785Y11770D01*
X129799Y11717D01*
X129813Y11659D01*
X129821Y11593D01*
X129824Y11523D01*
Y11521D01*
Y11510D01*
Y11493D01*
X129821Y11468D01*
X129818Y11440D01*
X129813Y11410D01*
X129807Y11374D01*
X129799Y11332D01*
X129788Y11291D01*
X129774Y11246D01*
X129757Y11202D01*
X129735Y11155D01*
X129713Y11108D01*
X129685Y11061D01*
X129652Y11016D01*
X129616Y10972D01*
X129613Y10969D01*
X129605Y10964D01*
X129594Y10953D01*
X129575Y10936D01*
X129552Y10920D01*
X129522Y10900D01*
X129486Y10881D01*
X129444Y10861D01*
X129395Y10839D01*
X129342Y10820D01*
X129278Y10800D01*
X129212Y10784D01*
X129134Y10770D01*
X129051Y10759D01*
X128962Y10751D01*
X128863Y10748D01*
X128209D01*
Y9709D01*
X127871D01*
Y12266D01*
X128924D01*
X128979Y12263D01*
D02*
G37*
G36*
X127522Y11964D02*
X126680D01*
Y9709D01*
X126342D01*
Y11964D01*
X125500D01*
Y12266D01*
X127522D01*
Y11964D01*
D02*
G37*
G36*
X132004Y9000D02*
X129924D01*
Y9227D01*
X132004D01*
Y9000D01*
D02*
G37*
G36*
X166756Y65773D02*
X164676D01*
Y66000D01*
X166756D01*
Y65773D01*
D02*
G37*
G36*
X169000Y62734D02*
X167812D01*
X167781Y62737D01*
X167751D01*
X167715Y62740D01*
X167673Y62743D01*
X167590Y62751D01*
X167504Y62765D01*
X167421Y62781D01*
X167385Y62792D01*
X167349Y62803D01*
X167346D01*
X167341Y62806D01*
X167332Y62812D01*
X167319Y62817D01*
X167285Y62834D01*
X167247Y62859D01*
X167200Y62892D01*
X167152Y62936D01*
X167105Y62986D01*
X167064Y63047D01*
Y63050D01*
X167058Y63055D01*
X167053Y63064D01*
X167047Y63078D01*
X167039Y63094D01*
X167031Y63114D01*
X167019Y63136D01*
X167008Y63161D01*
X166989Y63219D01*
X166972Y63283D01*
X166961Y63355D01*
X166956Y63432D01*
Y63435D01*
Y63443D01*
Y63460D01*
X166958Y63477D01*
X166961Y63502D01*
X166964Y63529D01*
X166970Y63560D01*
X166978Y63593D01*
X167000Y63665D01*
X167014Y63704D01*
X167031Y63743D01*
X167050Y63781D01*
X167075Y63820D01*
X167103Y63856D01*
X167133Y63892D01*
X167136Y63895D01*
X167141Y63900D01*
X167152Y63909D01*
X167166Y63923D01*
X167186Y63936D01*
X167208Y63953D01*
X167236Y63972D01*
X167269Y63992D01*
X167305Y64011D01*
X167344Y64031D01*
X167388Y64050D01*
X167438Y64069D01*
X167490Y64086D01*
X167549Y64103D01*
X167612Y64116D01*
X167679Y64127D01*
X167676D01*
X167673Y64130D01*
X167657Y64139D01*
X167632Y64152D01*
X167601Y64169D01*
X167568Y64188D01*
X167535Y64208D01*
X167501Y64233D01*
X167474Y64255D01*
X167471Y64258D01*
X167468Y64261D01*
X167460Y64269D01*
X167449Y64280D01*
X167435Y64294D01*
X167418Y64310D01*
X167382Y64349D01*
X167341Y64399D01*
X167294Y64457D01*
X167244Y64524D01*
X167194Y64596D01*
X166751Y65291D01*
X167175D01*
X167513Y64759D01*
X167515Y64756D01*
X167518Y64748D01*
X167526Y64737D01*
X167537Y64720D01*
X167549Y64701D01*
X167565Y64679D01*
X167598Y64629D01*
X167637Y64571D01*
X167676Y64512D01*
X167718Y64457D01*
X167756Y64407D01*
Y64404D01*
X167762Y64402D01*
X167773Y64388D01*
X167789Y64366D01*
X167815Y64341D01*
X167839Y64313D01*
X167870Y64285D01*
X167900Y64258D01*
X167928Y64238D01*
X167931Y64236D01*
X167942Y64230D01*
X167956Y64222D01*
X167975Y64211D01*
X168000Y64200D01*
X168025Y64188D01*
X168053Y64177D01*
X168083Y64169D01*
X168086D01*
X168094Y64166D01*
X168108Y64164D01*
X168128Y64161D01*
X168155D01*
X168188Y64158D01*
X168227Y64155D01*
X168662D01*
Y65291D01*
X169000D01*
Y62734D01*
D02*
G37*
G36*
X161263D02*
X160075D01*
X160045Y62737D01*
X160014D01*
X159978Y62740D01*
X159937Y62743D01*
X159853Y62751D01*
X159768Y62765D01*
X159685Y62781D01*
X159649Y62792D01*
X159613Y62803D01*
X159610D01*
X159604Y62806D01*
X159596Y62812D01*
X159582Y62817D01*
X159549Y62834D01*
X159510Y62859D01*
X159463Y62892D01*
X159416Y62936D01*
X159369Y62986D01*
X159327Y63047D01*
Y63050D01*
X159322Y63055D01*
X159316Y63064D01*
X159310Y63078D01*
X159302Y63094D01*
X159294Y63114D01*
X159283Y63136D01*
X159272Y63161D01*
X159252Y63219D01*
X159236Y63283D01*
X159225Y63355D01*
X159219Y63432D01*
Y63435D01*
Y63443D01*
Y63460D01*
X159222Y63477D01*
X159225Y63502D01*
X159227Y63529D01*
X159233Y63560D01*
X159241Y63593D01*
X159264Y63665D01*
X159277Y63704D01*
X159294Y63743D01*
X159313Y63781D01*
X159338Y63820D01*
X159366Y63856D01*
X159396Y63892D01*
X159399Y63895D01*
X159405Y63900D01*
X159416Y63909D01*
X159430Y63923D01*
X159449Y63936D01*
X159471Y63953D01*
X159499Y63972D01*
X159532Y63992D01*
X159568Y64011D01*
X159607Y64031D01*
X159651Y64050D01*
X159701Y64069D01*
X159754Y64086D01*
X159812Y64103D01*
X159876Y64116D01*
X159942Y64127D01*
X159939D01*
X159937Y64130D01*
X159920Y64139D01*
X159895Y64152D01*
X159865Y64169D01*
X159831Y64188D01*
X159798Y64208D01*
X159765Y64233D01*
X159737Y64255D01*
X159734Y64258D01*
X159732Y64261D01*
X159723Y64269D01*
X159712Y64280D01*
X159698Y64294D01*
X159682Y64310D01*
X159646Y64349D01*
X159604Y64399D01*
X159557Y64457D01*
X159507Y64524D01*
X159457Y64596D01*
X159014Y65291D01*
X159438D01*
X159776Y64759D01*
X159779Y64756D01*
X159781Y64748D01*
X159790Y64737D01*
X159801Y64720D01*
X159812Y64701D01*
X159828Y64679D01*
X159862Y64629D01*
X159901Y64571D01*
X159939Y64512D01*
X159981Y64457D01*
X160020Y64407D01*
Y64404D01*
X160025Y64402D01*
X160036Y64388D01*
X160053Y64366D01*
X160078Y64341D01*
X160103Y64313D01*
X160133Y64285D01*
X160164Y64258D01*
X160191Y64238D01*
X160194Y64236D01*
X160205Y64230D01*
X160219Y64222D01*
X160239Y64211D01*
X160263Y64200D01*
X160288Y64188D01*
X160316Y64177D01*
X160346Y64169D01*
X160349D01*
X160358Y64166D01*
X160371Y64164D01*
X160391Y64161D01*
X160419D01*
X160452Y64158D01*
X160491Y64155D01*
X160925D01*
Y65291D01*
X161263D01*
Y62734D01*
D02*
G37*
G36*
X155275Y65330D02*
X155308Y65327D01*
X155350Y65324D01*
X155394Y65319D01*
X155444Y65310D01*
X155496Y65302D01*
X155552Y65291D01*
X155607Y65277D01*
X155663Y65263D01*
X155721Y65244D01*
X155776Y65222D01*
X155829Y65197D01*
X155878Y65166D01*
X155881Y65163D01*
X155890Y65158D01*
X155903Y65150D01*
X155920Y65136D01*
X155942Y65116D01*
X155967Y65097D01*
X155995Y65072D01*
X156025Y65042D01*
X156056Y65008D01*
X156089Y64972D01*
X156120Y64934D01*
X156153Y64889D01*
X156186Y64842D01*
X156217Y64792D01*
X156244Y64737D01*
X156272Y64679D01*
X156275Y64676D01*
X156277Y64665D01*
X156283Y64645D01*
X156291Y64623D01*
X156302Y64593D01*
X156313Y64560D01*
X156325Y64518D01*
X156338Y64474D01*
X156349Y64424D01*
X156363Y64371D01*
X156374Y64316D01*
X156383Y64255D01*
X156399Y64127D01*
X156402Y64061D01*
X156405Y63995D01*
Y63989D01*
Y63978D01*
Y63956D01*
X156402Y63928D01*
X156399Y63892D01*
X156396Y63850D01*
X156391Y63806D01*
X156385Y63756D01*
X156377Y63704D01*
X156369Y63648D01*
X156341Y63529D01*
X156322Y63471D01*
X156302Y63413D01*
X156280Y63352D01*
X156253Y63297D01*
X156250Y63294D01*
X156244Y63283D01*
X156236Y63269D01*
X156225Y63247D01*
X156208Y63222D01*
X156189Y63194D01*
X156167Y63164D01*
X156142Y63127D01*
X156111Y63094D01*
X156081Y63055D01*
X156045Y63020D01*
X156006Y62981D01*
X155964Y62945D01*
X155920Y62909D01*
X155870Y62875D01*
X155820Y62845D01*
X155818Y62842D01*
X155807Y62840D01*
X155793Y62831D01*
X155771Y62820D01*
X155746Y62809D01*
X155712Y62795D01*
X155676Y62781D01*
X155638Y62767D01*
X155593Y62754D01*
X155543Y62740D01*
X155493Y62726D01*
X155438Y62715D01*
X155324Y62695D01*
X155264Y62693D01*
X155200Y62690D01*
X155164D01*
X155136Y62693D01*
X155103Y62695D01*
X155064Y62701D01*
X155023Y62707D01*
X154975Y62715D01*
X154926Y62726D01*
X154873Y62737D01*
X154820Y62754D01*
X154765Y62773D01*
X154710Y62795D01*
X154657Y62823D01*
X154604Y62850D01*
X154554Y62887D01*
X154552Y62889D01*
X154543Y62895D01*
X154530Y62906D01*
X154513Y62923D01*
X154491Y62942D01*
X154466Y62967D01*
X154441Y62995D01*
X154410Y63028D01*
X154380Y63064D01*
X154350Y63105D01*
X154319Y63150D01*
X154291Y63200D01*
X154261Y63252D01*
X154236Y63310D01*
X154211Y63371D01*
X154189Y63435D01*
X154521Y63513D01*
Y63510D01*
X154527Y63502D01*
X154530Y63485D01*
X154538Y63465D01*
X154546Y63443D01*
X154560Y63418D01*
X154588Y63357D01*
X154624Y63291D01*
X154671Y63222D01*
X154721Y63158D01*
X154751Y63130D01*
X154782Y63105D01*
X154784Y63103D01*
X154790Y63100D01*
X154798Y63094D01*
X154812Y63086D01*
X154829Y63075D01*
X154848Y63064D01*
X154870Y63053D01*
X154898Y63042D01*
X154928Y63031D01*
X154959Y63020D01*
X155031Y62997D01*
X155114Y62984D01*
X155158Y62978D01*
X155233D01*
X155255Y62981D01*
X155280Y62984D01*
X155311Y62986D01*
X155344Y62989D01*
X155377Y62995D01*
X155457Y63014D01*
X155541Y63039D01*
X155582Y63055D01*
X155624Y63075D01*
X155663Y63097D01*
X155701Y63122D01*
X155704Y63125D01*
X155710Y63127D01*
X155721Y63136D01*
X155735Y63147D01*
X155748Y63161D01*
X155768Y63180D01*
X155787Y63200D01*
X155809Y63222D01*
X155831Y63249D01*
X155856Y63277D01*
X155901Y63341D01*
X155942Y63416D01*
X155978Y63502D01*
Y63504D01*
X155981Y63513D01*
X155987Y63526D01*
X155989Y63543D01*
X155995Y63565D01*
X156003Y63590D01*
X156009Y63621D01*
X156017Y63651D01*
X156025Y63687D01*
X156031Y63726D01*
X156045Y63809D01*
X156053Y63898D01*
X156056Y63992D01*
Y63995D01*
Y64006D01*
Y64022D01*
X156053Y64047D01*
Y64075D01*
X156050Y64108D01*
X156047Y64144D01*
X156045Y64186D01*
X156039Y64230D01*
X156034Y64274D01*
X156017Y64371D01*
X155992Y64468D01*
X155962Y64562D01*
Y64565D01*
X155956Y64574D01*
X155950Y64585D01*
X155945Y64601D01*
X155934Y64623D01*
X155920Y64645D01*
X155890Y64698D01*
X155848Y64759D01*
X155798Y64817D01*
X155737Y64875D01*
X155704Y64900D01*
X155668Y64925D01*
X155665D01*
X155660Y64931D01*
X155649Y64936D01*
X155632Y64945D01*
X155613Y64953D01*
X155590Y64964D01*
X155566Y64972D01*
X155538Y64983D01*
X155474Y65006D01*
X155399Y65025D01*
X155319Y65039D01*
X155277Y65042D01*
X155233Y65044D01*
X155205D01*
X155186Y65042D01*
X155161Y65039D01*
X155133Y65036D01*
X155100Y65030D01*
X155067Y65025D01*
X154989Y65006D01*
X154951Y64992D01*
X154909Y64975D01*
X154867Y64956D01*
X154829Y64934D01*
X154790Y64909D01*
X154751Y64881D01*
X154748Y64878D01*
X154743Y64873D01*
X154732Y64864D01*
X154718Y64850D01*
X154704Y64834D01*
X154685Y64812D01*
X154665Y64787D01*
X154643Y64759D01*
X154621Y64726D01*
X154599Y64690D01*
X154577Y64651D01*
X154554Y64607D01*
X154535Y64560D01*
X154516Y64507D01*
X154496Y64452D01*
X154482Y64393D01*
X154145Y64479D01*
Y64485D01*
X154150Y64499D01*
X154156Y64518D01*
X154167Y64549D01*
X154178Y64582D01*
X154194Y64623D01*
X154211Y64668D01*
X154233Y64715D01*
X154258Y64767D01*
X154286Y64817D01*
X154316Y64873D01*
X154352Y64925D01*
X154391Y64975D01*
X154433Y65025D01*
X154480Y65072D01*
X154530Y65116D01*
X154532Y65119D01*
X154543Y65125D01*
X154557Y65136D01*
X154579Y65150D01*
X154604Y65166D01*
X154638Y65186D01*
X154674Y65205D01*
X154718Y65224D01*
X154765Y65244D01*
X154815Y65263D01*
X154870Y65283D01*
X154931Y65299D01*
X154995Y65313D01*
X155061Y65324D01*
X155131Y65330D01*
X155205Y65333D01*
X155244D01*
X155275Y65330D01*
D02*
G37*
G36*
X164421Y62734D02*
X162698D01*
Y63036D01*
X164083D01*
Y63828D01*
X162884D01*
Y64130D01*
X164083D01*
Y65291D01*
X164421D01*
Y62734D01*
D02*
G37*
G36*
X162202D02*
X161864D01*
Y65291D01*
X162202D01*
Y62734D01*
D02*
G37*
G36*
X158682D02*
X156831D01*
Y63036D01*
X158344D01*
Y63817D01*
X156928D01*
Y64119D01*
X158344D01*
Y64989D01*
X156773D01*
Y65291D01*
X158682D01*
Y62734D01*
D02*
G37*
G36*
X153078Y63036D02*
X153920D01*
Y62734D01*
X151898D01*
Y63036D01*
X152740D01*
Y65291D01*
X153078D01*
Y63036D01*
D02*
G37*
G36*
X151563Y62734D02*
X151225D01*
Y64989D01*
X149965D01*
Y65291D01*
X151563D01*
Y62734D01*
D02*
G37*
G36*
X148821Y63294D02*
X148826Y63299D01*
X148840Y63313D01*
X148865Y63332D01*
X148901Y63360D01*
X148942Y63393D01*
X148995Y63429D01*
X149053Y63468D01*
X149120Y63510D01*
X149123D01*
X149128Y63515D01*
X149136Y63521D01*
X149150Y63526D01*
X149167Y63538D01*
X149186Y63546D01*
X149231Y63571D01*
X149280Y63596D01*
X149336Y63623D01*
X149394Y63648D01*
X149449Y63670D01*
Y63368D01*
X149447Y63366D01*
X149438Y63363D01*
X149424Y63355D01*
X149405Y63346D01*
X149383Y63335D01*
X149355Y63319D01*
X149325Y63302D01*
X149294Y63285D01*
X149222Y63241D01*
X149145Y63188D01*
X149064Y63133D01*
X148989Y63069D01*
X148987Y63067D01*
X148981Y63061D01*
X148970Y63053D01*
X148956Y63039D01*
X148942Y63022D01*
X148923Y63006D01*
X148881Y62959D01*
X148834Y62909D01*
X148787Y62850D01*
X148746Y62790D01*
X148710Y62726D01*
X148507D01*
Y65291D01*
X148821D01*
Y63294D01*
D02*
G37*
G36*
X36571Y44153D02*
X36593D01*
X36623Y44148D01*
X36656Y44142D01*
X36693Y44137D01*
X36734Y44126D01*
X36778Y44112D01*
X36823Y44095D01*
X36870Y44076D01*
X36917Y44051D01*
X36967Y44023D01*
X37014Y43990D01*
X37061Y43954D01*
X37105Y43910D01*
X37108Y43907D01*
X37116Y43898D01*
X37127Y43885D01*
X37141Y43865D01*
X37158Y43843D01*
X37177Y43813D01*
X37200Y43779D01*
X37219Y43741D01*
X37241Y43699D01*
X37263Y43652D01*
X37283Y43602D01*
X37299Y43547D01*
X37313Y43489D01*
X37324Y43428D01*
X37332Y43364D01*
X37335Y43295D01*
Y43281D01*
X37332Y43261D01*
Y43239D01*
X37330Y43209D01*
X37324Y43176D01*
X37319Y43139D01*
X37310Y43098D01*
X37299Y43054D01*
X37285Y43009D01*
X37271Y42962D01*
X37252Y42915D01*
X37227Y42868D01*
X37202Y42824D01*
X37172Y42777D01*
X37136Y42735D01*
X37133Y42732D01*
X37127Y42727D01*
X37116Y42716D01*
X37100Y42699D01*
X37080Y42682D01*
X37055Y42663D01*
X37028Y42644D01*
X36994Y42622D01*
X36961Y42599D01*
X36920Y42577D01*
X36878Y42555D01*
X36831Y42536D01*
X36781Y42519D01*
X36729Y42502D01*
X36673Y42491D01*
X36615Y42483D01*
X36573Y42796D01*
X36576D01*
X36584Y42799D01*
X36598Y42802D01*
X36618Y42807D01*
X36640Y42813D01*
X36665Y42818D01*
X36723Y42838D01*
X36787Y42862D01*
X36851Y42893D01*
X36909Y42932D01*
X36934Y42954D01*
X36959Y42976D01*
Y42979D01*
X36964Y42982D01*
X36970Y42990D01*
X36978Y42998D01*
X36994Y43026D01*
X37017Y43065D01*
X37039Y43112D01*
X37055Y43165D01*
X37069Y43228D01*
X37075Y43295D01*
Y43317D01*
X37072Y43333D01*
X37069Y43350D01*
X37067Y43375D01*
X37055Y43425D01*
X37039Y43486D01*
X37011Y43549D01*
X36992Y43580D01*
X36972Y43610D01*
X36950Y43641D01*
X36922Y43671D01*
X36920Y43674D01*
X36914Y43677D01*
X36906Y43685D01*
X36895Y43696D01*
X36881Y43707D01*
X36862Y43718D01*
X36842Y43732D01*
X36817Y43749D01*
X36762Y43777D01*
X36698Y43799D01*
X36623Y43818D01*
X36584Y43821D01*
X36543Y43824D01*
X36540D01*
X36535D01*
X36521D01*
X36507Y43821D01*
X36488Y43818D01*
X36468Y43815D01*
X36418Y43807D01*
X36360Y43788D01*
X36302Y43763D01*
X36272Y43746D01*
X36244Y43727D01*
X36216Y43705D01*
X36188Y43680D01*
X36186Y43677D01*
X36183Y43674D01*
X36175Y43666D01*
X36166Y43655D01*
X36155Y43641D01*
X36144Y43624D01*
X36116Y43583D01*
X36092Y43530D01*
X36069Y43469D01*
X36053Y43400D01*
X36050Y43361D01*
X36047Y43322D01*
Y43306D01*
X36050Y43286D01*
Y43261D01*
X36055Y43228D01*
X36061Y43192D01*
X36069Y43148D01*
X36080Y43101D01*
X35806Y43134D01*
Y43139D01*
X35809Y43153D01*
X35812Y43170D01*
Y43206D01*
X35809Y43220D01*
Y43239D01*
X35806Y43259D01*
X35798Y43306D01*
X35787Y43361D01*
X35767Y43422D01*
X35743Y43486D01*
X35706Y43547D01*
Y43549D01*
X35701Y43555D01*
X35695Y43561D01*
X35687Y43572D01*
X35662Y43599D01*
X35626Y43630D01*
X35582Y43657D01*
X35526Y43685D01*
X35496Y43696D01*
X35460Y43702D01*
X35424Y43707D01*
X35385Y43710D01*
X35382D01*
X35377D01*
X35368D01*
X35355Y43707D01*
X35324Y43705D01*
X35283Y43696D01*
X35238Y43683D01*
X35191Y43660D01*
X35141Y43630D01*
X35119Y43613D01*
X35097Y43591D01*
X35092Y43586D01*
X35080Y43569D01*
X35061Y43544D01*
X35039Y43511D01*
X35019Y43466D01*
X35000Y43414D01*
X34989Y43356D01*
X34984Y43289D01*
Y43273D01*
X34986Y43259D01*
Y43242D01*
X34989Y43225D01*
X34997Y43181D01*
X35011Y43134D01*
X35033Y43081D01*
X35061Y43031D01*
X35100Y42982D01*
X35105Y42976D01*
X35122Y42962D01*
X35147Y42940D01*
X35186Y42918D01*
X35233Y42890D01*
X35294Y42865D01*
X35363Y42843D01*
X35443Y42827D01*
X35388Y42513D01*
X35385D01*
X35374Y42516D01*
X35357Y42519D01*
X35335Y42525D01*
X35310Y42533D01*
X35280Y42541D01*
X35247Y42552D01*
X35211Y42566D01*
X35130Y42602D01*
X35092Y42622D01*
X35050Y42647D01*
X35011Y42674D01*
X34972Y42705D01*
X34934Y42738D01*
X34900Y42774D01*
X34898Y42777D01*
X34892Y42782D01*
X34884Y42796D01*
X34873Y42810D01*
X34859Y42832D01*
X34845Y42854D01*
X34828Y42882D01*
X34812Y42915D01*
X34798Y42948D01*
X34781Y42987D01*
X34767Y43029D01*
X34754Y43073D01*
X34743Y43123D01*
X34734Y43173D01*
X34729Y43225D01*
X34726Y43281D01*
Y43317D01*
X34729Y43336D01*
X34731Y43356D01*
X34737Y43408D01*
X34748Y43466D01*
X34765Y43533D01*
X34787Y43599D01*
X34817Y43666D01*
Y43669D01*
X34820Y43674D01*
X34826Y43683D01*
X34834Y43696D01*
X34853Y43727D01*
X34881Y43766D01*
X34917Y43810D01*
X34958Y43854D01*
X35006Y43898D01*
X35061Y43937D01*
X35064D01*
X35067Y43940D01*
X35078Y43946D01*
X35089Y43951D01*
X35103Y43960D01*
X35119Y43968D01*
X35161Y43984D01*
X35211Y44001D01*
X35266Y44018D01*
X35327Y44029D01*
X35391Y44032D01*
X35393D01*
X35399D01*
X35407D01*
X35418D01*
X35452Y44026D01*
X35490Y44020D01*
X35537Y44009D01*
X35587Y43993D01*
X35640Y43971D01*
X35693Y43940D01*
X35695D01*
X35698Y43937D01*
X35715Y43924D01*
X35740Y43904D01*
X35770Y43874D01*
X35806Y43838D01*
X35842Y43791D01*
X35875Y43738D01*
X35909Y43677D01*
Y43680D01*
X35911Y43688D01*
X35914Y43699D01*
X35920Y43716D01*
X35925Y43732D01*
X35934Y43755D01*
X35956Y43807D01*
X35986Y43863D01*
X36022Y43921D01*
X36069Y43979D01*
X36127Y44029D01*
X36130Y44032D01*
X36136Y44034D01*
X36144Y44040D01*
X36158Y44048D01*
X36172Y44059D01*
X36191Y44070D01*
X36213Y44081D01*
X36241Y44092D01*
X36269Y44104D01*
X36299Y44115D01*
X36369Y44137D01*
X36449Y44151D01*
X36493Y44156D01*
X36537D01*
X36540D01*
X36551D01*
X36571Y44153D01*
D02*
G37*
G36*
X37291Y41306D02*
Y40957D01*
X34734Y39965D01*
Y40334D01*
X36593Y40998D01*
X36596D01*
X36604Y41001D01*
X36615Y41007D01*
X36632Y41012D01*
X36651Y41018D01*
X36673Y41026D01*
X36698Y41034D01*
X36729Y41045D01*
X36792Y41065D01*
X36862Y41087D01*
X36936Y41109D01*
X37011Y41131D01*
X37008D01*
X37003Y41134D01*
X36989Y41137D01*
X36975Y41142D01*
X36956Y41148D01*
X36934Y41153D01*
X36909Y41162D01*
X36881Y41170D01*
X36817Y41190D01*
X36745Y41214D01*
X36670Y41242D01*
X36593Y41270D01*
X34734Y41960D01*
Y42303D01*
X37291Y41306D01*
D02*
G37*
G36*
X36571Y39785D02*
X36593D01*
X36623Y39779D01*
X36656Y39774D01*
X36693Y39768D01*
X36734Y39757D01*
X36778Y39744D01*
X36823Y39727D01*
X36870Y39707D01*
X36917Y39683D01*
X36967Y39655D01*
X37014Y39622D01*
X37061Y39586D01*
X37105Y39541D01*
X37108Y39538D01*
X37116Y39530D01*
X37127Y39516D01*
X37141Y39497D01*
X37158Y39475D01*
X37177Y39444D01*
X37200Y39411D01*
X37219Y39372D01*
X37241Y39331D01*
X37263Y39284D01*
X37283Y39234D01*
X37299Y39178D01*
X37313Y39120D01*
X37324Y39059D01*
X37332Y38996D01*
X37335Y38926D01*
Y38912D01*
X37332Y38893D01*
Y38871D01*
X37330Y38840D01*
X37324Y38807D01*
X37319Y38771D01*
X37310Y38730D01*
X37299Y38685D01*
X37285Y38641D01*
X37271Y38594D01*
X37252Y38547D01*
X37227Y38500D01*
X37202Y38456D01*
X37172Y38408D01*
X37136Y38367D01*
X37133Y38364D01*
X37127Y38359D01*
X37116Y38347D01*
X37100Y38331D01*
X37080Y38314D01*
X37055Y38295D01*
X37028Y38275D01*
X36994Y38253D01*
X36961Y38231D01*
X36920Y38209D01*
X36878Y38187D01*
X36831Y38167D01*
X36781Y38151D01*
X36729Y38134D01*
X36673Y38123D01*
X36615Y38115D01*
X36573Y38428D01*
X36576D01*
X36584Y38431D01*
X36598Y38433D01*
X36618Y38439D01*
X36640Y38444D01*
X36665Y38450D01*
X36723Y38469D01*
X36787Y38494D01*
X36851Y38525D01*
X36909Y38563D01*
X36934Y38586D01*
X36959Y38608D01*
Y38611D01*
X36964Y38613D01*
X36970Y38622D01*
X36978Y38630D01*
X36994Y38658D01*
X37017Y38697D01*
X37039Y38743D01*
X37055Y38796D01*
X37069Y38860D01*
X37075Y38926D01*
Y38949D01*
X37072Y38965D01*
X37069Y38982D01*
X37067Y39007D01*
X37055Y39057D01*
X37039Y39118D01*
X37011Y39181D01*
X36992Y39212D01*
X36972Y39242D01*
X36950Y39273D01*
X36922Y39303D01*
X36920Y39306D01*
X36914Y39309D01*
X36906Y39317D01*
X36895Y39328D01*
X36881Y39339D01*
X36862Y39350D01*
X36842Y39364D01*
X36817Y39381D01*
X36762Y39408D01*
X36698Y39430D01*
X36623Y39450D01*
X36584Y39453D01*
X36543Y39455D01*
X36540D01*
X36535D01*
X36521D01*
X36507Y39453D01*
X36488Y39450D01*
X36468Y39447D01*
X36418Y39439D01*
X36360Y39419D01*
X36302Y39395D01*
X36272Y39378D01*
X36244Y39358D01*
X36216Y39336D01*
X36188Y39311D01*
X36186Y39309D01*
X36183Y39306D01*
X36175Y39298D01*
X36166Y39287D01*
X36155Y39273D01*
X36144Y39256D01*
X36116Y39214D01*
X36092Y39162D01*
X36069Y39101D01*
X36053Y39032D01*
X36050Y38993D01*
X36047Y38954D01*
Y38938D01*
X36050Y38918D01*
Y38893D01*
X36055Y38860D01*
X36061Y38824D01*
X36069Y38780D01*
X36080Y38732D01*
X35806Y38766D01*
Y38771D01*
X35809Y38785D01*
X35812Y38802D01*
Y38838D01*
X35809Y38852D01*
Y38871D01*
X35806Y38890D01*
X35798Y38938D01*
X35787Y38993D01*
X35767Y39054D01*
X35743Y39118D01*
X35706Y39178D01*
Y39181D01*
X35701Y39187D01*
X35695Y39192D01*
X35687Y39203D01*
X35662Y39231D01*
X35626Y39261D01*
X35582Y39289D01*
X35526Y39317D01*
X35496Y39328D01*
X35460Y39334D01*
X35424Y39339D01*
X35385Y39342D01*
X35382D01*
X35377D01*
X35368D01*
X35355Y39339D01*
X35324Y39336D01*
X35283Y39328D01*
X35238Y39314D01*
X35191Y39292D01*
X35141Y39261D01*
X35119Y39245D01*
X35097Y39223D01*
X35092Y39217D01*
X35080Y39201D01*
X35061Y39176D01*
X35039Y39142D01*
X35019Y39098D01*
X35000Y39046D01*
X34989Y38987D01*
X34984Y38921D01*
Y38904D01*
X34986Y38890D01*
Y38874D01*
X34989Y38857D01*
X34997Y38813D01*
X35011Y38766D01*
X35033Y38713D01*
X35061Y38663D01*
X35100Y38613D01*
X35105Y38608D01*
X35122Y38594D01*
X35147Y38572D01*
X35186Y38550D01*
X35233Y38522D01*
X35294Y38497D01*
X35363Y38475D01*
X35443Y38458D01*
X35388Y38145D01*
X35385D01*
X35374Y38148D01*
X35357Y38151D01*
X35335Y38156D01*
X35310Y38165D01*
X35280Y38173D01*
X35247Y38184D01*
X35211Y38198D01*
X35130Y38234D01*
X35092Y38253D01*
X35050Y38278D01*
X35011Y38306D01*
X34972Y38336D01*
X34934Y38370D01*
X34900Y38406D01*
X34898Y38408D01*
X34892Y38414D01*
X34884Y38428D01*
X34873Y38442D01*
X34859Y38464D01*
X34845Y38486D01*
X34828Y38514D01*
X34812Y38547D01*
X34798Y38580D01*
X34781Y38619D01*
X34767Y38660D01*
X34754Y38705D01*
X34743Y38755D01*
X34734Y38805D01*
X34729Y38857D01*
X34726Y38912D01*
Y38949D01*
X34729Y38968D01*
X34731Y38987D01*
X34737Y39040D01*
X34748Y39098D01*
X34765Y39165D01*
X34787Y39231D01*
X34817Y39298D01*
Y39300D01*
X34820Y39306D01*
X34826Y39314D01*
X34834Y39328D01*
X34853Y39358D01*
X34881Y39397D01*
X34917Y39442D01*
X34958Y39486D01*
X35006Y39530D01*
X35061Y39569D01*
X35064D01*
X35067Y39572D01*
X35078Y39577D01*
X35089Y39583D01*
X35103Y39591D01*
X35119Y39599D01*
X35161Y39616D01*
X35211Y39633D01*
X35266Y39649D01*
X35327Y39660D01*
X35391Y39663D01*
X35393D01*
X35399D01*
X35407D01*
X35418D01*
X35452Y39658D01*
X35490Y39652D01*
X35537Y39641D01*
X35587Y39624D01*
X35640Y39602D01*
X35693Y39572D01*
X35695D01*
X35698Y39569D01*
X35715Y39555D01*
X35740Y39536D01*
X35770Y39505D01*
X35806Y39469D01*
X35842Y39422D01*
X35875Y39370D01*
X35909Y39309D01*
Y39311D01*
X35911Y39320D01*
X35914Y39331D01*
X35920Y39347D01*
X35925Y39364D01*
X35934Y39386D01*
X35956Y39439D01*
X35986Y39494D01*
X36022Y39552D01*
X36069Y39611D01*
X36127Y39660D01*
X36130Y39663D01*
X36136Y39666D01*
X36144Y39671D01*
X36158Y39680D01*
X36172Y39691D01*
X36191Y39702D01*
X36213Y39713D01*
X36241Y39724D01*
X36269Y39735D01*
X36299Y39746D01*
X36369Y39768D01*
X36449Y39782D01*
X36493Y39788D01*
X36537D01*
X36540D01*
X36551D01*
X36571Y39785D01*
D02*
G37*
G36*
X38000Y35924D02*
X37773D01*
Y38004D01*
X38000D01*
Y35924D01*
D02*
G37*
G36*
X35532Y35821D02*
X35560Y35818D01*
X35590Y35813D01*
X35626Y35807D01*
X35668Y35799D01*
X35709Y35788D01*
X35754Y35774D01*
X35798Y35757D01*
X35845Y35735D01*
X35892Y35713D01*
X35939Y35686D01*
X35983Y35652D01*
X36028Y35616D01*
X36031Y35614D01*
X36036Y35605D01*
X36047Y35594D01*
X36064Y35575D01*
X36080Y35552D01*
X36100Y35522D01*
X36119Y35486D01*
X36139Y35445D01*
X36161Y35395D01*
X36180Y35342D01*
X36200Y35278D01*
X36216Y35212D01*
X36230Y35134D01*
X36241Y35051D01*
X36249Y34962D01*
X36252Y34863D01*
Y34209D01*
X37291D01*
Y33871D01*
X34734D01*
Y34924D01*
X34737Y34979D01*
X34740Y35043D01*
X34745Y35107D01*
X34751Y35168D01*
X34754Y35198D01*
X34759Y35223D01*
Y35226D01*
X34762Y35231D01*
Y35242D01*
X34765Y35253D01*
X34770Y35270D01*
X34773Y35289D01*
X34787Y35334D01*
X34803Y35383D01*
X34826Y35436D01*
X34850Y35489D01*
X34881Y35539D01*
Y35541D01*
X34884Y35544D01*
X34898Y35561D01*
X34917Y35583D01*
X34945Y35614D01*
X34978Y35644D01*
X35022Y35680D01*
X35069Y35713D01*
X35127Y35744D01*
X35130D01*
X35136Y35746D01*
X35144Y35752D01*
X35155Y35757D01*
X35169Y35763D01*
X35188Y35769D01*
X35230Y35785D01*
X35283Y35799D01*
X35341Y35813D01*
X35407Y35821D01*
X35476Y35824D01*
X35479D01*
X35490D01*
X35507D01*
X35532Y35821D01*
D02*
G37*
G36*
X35036Y32680D02*
X37291D01*
Y32342D01*
X35036D01*
Y31500D01*
X34734D01*
Y33522D01*
X35036D01*
Y32680D01*
D02*
G37*
G36*
X125869Y39014D02*
X123788D01*
Y39241D01*
X125869D01*
Y39014D01*
D02*
G37*
G36*
X122852Y35975D02*
X122486D01*
X121439Y38532D01*
X121824D01*
X122121Y37759D01*
X123196D01*
X123473Y38532D01*
X123830D01*
X122852Y35975D01*
D02*
G37*
G36*
X120138Y38571D02*
X120171Y38568D01*
X120212Y38565D01*
X120257Y38560D01*
X120306Y38551D01*
X120359Y38543D01*
X120414Y38532D01*
X120470Y38518D01*
X120525Y38504D01*
X120583Y38485D01*
X120639Y38463D01*
X120692Y38438D01*
X120741Y38407D01*
X120744Y38405D01*
X120752Y38399D01*
X120766Y38391D01*
X120783Y38377D01*
X120805Y38357D01*
X120830Y38338D01*
X120858Y38313D01*
X120888Y38283D01*
X120919Y38249D01*
X120952Y38213D01*
X120982Y38175D01*
X121016Y38130D01*
X121049Y38083D01*
X121079Y38033D01*
X121107Y37978D01*
X121135Y37920D01*
X121137Y37917D01*
X121140Y37906D01*
X121146Y37887D01*
X121154Y37864D01*
X121165Y37834D01*
X121176Y37801D01*
X121187Y37759D01*
X121201Y37715D01*
X121212Y37665D01*
X121226Y37612D01*
X121237Y37557D01*
X121246Y37496D01*
X121262Y37369D01*
X121265Y37302D01*
X121268Y37236D01*
Y37230D01*
Y37219D01*
Y37197D01*
X121265Y37169D01*
X121262Y37133D01*
X121259Y37092D01*
X121254Y37047D01*
X121248Y36997D01*
X121240Y36945D01*
X121232Y36889D01*
X121204Y36770D01*
X121185Y36712D01*
X121165Y36654D01*
X121143Y36593D01*
X121115Y36538D01*
X121113Y36535D01*
X121107Y36524D01*
X121099Y36510D01*
X121088Y36488D01*
X121071Y36463D01*
X121052Y36435D01*
X121029Y36405D01*
X121004Y36369D01*
X120974Y36335D01*
X120943Y36297D01*
X120907Y36261D01*
X120869Y36222D01*
X120827Y36186D01*
X120783Y36150D01*
X120733Y36116D01*
X120683Y36086D01*
X120680Y36083D01*
X120669Y36081D01*
X120656Y36072D01*
X120633Y36061D01*
X120608Y36050D01*
X120575Y36036D01*
X120539Y36022D01*
X120500Y36009D01*
X120456Y35995D01*
X120406Y35981D01*
X120356Y35967D01*
X120301Y35956D01*
X120187Y35936D01*
X120126Y35934D01*
X120063Y35931D01*
X120027D01*
X119999Y35934D01*
X119966Y35936D01*
X119927Y35942D01*
X119885Y35948D01*
X119838Y35956D01*
X119788Y35967D01*
X119736Y35978D01*
X119683Y35995D01*
X119628Y36014D01*
X119572Y36036D01*
X119520Y36064D01*
X119467Y36092D01*
X119417Y36128D01*
X119414Y36130D01*
X119406Y36136D01*
X119392Y36147D01*
X119376Y36164D01*
X119354Y36183D01*
X119329Y36208D01*
X119304Y36236D01*
X119273Y36269D01*
X119243Y36305D01*
X119212Y36346D01*
X119182Y36391D01*
X119154Y36441D01*
X119124Y36493D01*
X119099Y36551D01*
X119074Y36612D01*
X119052Y36676D01*
X119384Y36754D01*
Y36751D01*
X119390Y36743D01*
X119392Y36726D01*
X119401Y36707D01*
X119409Y36684D01*
X119423Y36660D01*
X119450Y36599D01*
X119486Y36532D01*
X119534Y36463D01*
X119583Y36399D01*
X119614Y36371D01*
X119644Y36346D01*
X119647Y36344D01*
X119653Y36341D01*
X119661Y36335D01*
X119675Y36327D01*
X119692Y36316D01*
X119711Y36305D01*
X119733Y36294D01*
X119761Y36283D01*
X119791Y36272D01*
X119822Y36261D01*
X119894Y36238D01*
X119977Y36225D01*
X120021Y36219D01*
X120096D01*
X120118Y36222D01*
X120143Y36225D01*
X120174Y36227D01*
X120207Y36230D01*
X120240Y36236D01*
X120320Y36255D01*
X120403Y36280D01*
X120445Y36297D01*
X120486Y36316D01*
X120525Y36338D01*
X120564Y36363D01*
X120567Y36366D01*
X120572Y36369D01*
X120583Y36377D01*
X120597Y36388D01*
X120611Y36402D01*
X120631Y36421D01*
X120650Y36441D01*
X120672Y36463D01*
X120694Y36490D01*
X120719Y36518D01*
X120764Y36582D01*
X120805Y36657D01*
X120841Y36743D01*
Y36745D01*
X120844Y36754D01*
X120849Y36768D01*
X120852Y36784D01*
X120858Y36806D01*
X120866Y36831D01*
X120871Y36862D01*
X120880Y36892D01*
X120888Y36928D01*
X120894Y36967D01*
X120907Y37050D01*
X120916Y37139D01*
X120919Y37233D01*
Y37236D01*
Y37247D01*
Y37263D01*
X120916Y37288D01*
Y37316D01*
X120913Y37349D01*
X120910Y37385D01*
X120907Y37427D01*
X120902Y37471D01*
X120896Y37515D01*
X120880Y37612D01*
X120855Y37709D01*
X120824Y37804D01*
Y37806D01*
X120819Y37815D01*
X120813Y37826D01*
X120808Y37842D01*
X120797Y37864D01*
X120783Y37887D01*
X120752Y37939D01*
X120711Y38000D01*
X120661Y38058D01*
X120600Y38116D01*
X120567Y38141D01*
X120531Y38166D01*
X120528D01*
X120522Y38172D01*
X120511Y38177D01*
X120495Y38186D01*
X120475Y38194D01*
X120453Y38205D01*
X120428Y38213D01*
X120401Y38225D01*
X120337Y38247D01*
X120262Y38266D01*
X120182Y38280D01*
X120140Y38283D01*
X120096Y38285D01*
X120068D01*
X120049Y38283D01*
X120024Y38280D01*
X119996Y38277D01*
X119963Y38272D01*
X119930Y38266D01*
X119852Y38247D01*
X119813Y38233D01*
X119772Y38216D01*
X119730Y38197D01*
X119692Y38175D01*
X119653Y38150D01*
X119614Y38122D01*
X119611Y38119D01*
X119606Y38114D01*
X119595Y38105D01*
X119581Y38092D01*
X119567Y38075D01*
X119547Y38053D01*
X119528Y38028D01*
X119506Y38000D01*
X119484Y37967D01*
X119462Y37931D01*
X119439Y37892D01*
X119417Y37848D01*
X119398Y37801D01*
X119378Y37748D01*
X119359Y37693D01*
X119345Y37635D01*
X119007Y37720D01*
Y37726D01*
X119013Y37740D01*
X119018Y37759D01*
X119029Y37790D01*
X119041Y37823D01*
X119057Y37864D01*
X119074Y37909D01*
X119096Y37956D01*
X119121Y38008D01*
X119149Y38058D01*
X119179Y38114D01*
X119215Y38166D01*
X119254Y38216D01*
X119295Y38266D01*
X119343Y38313D01*
X119392Y38357D01*
X119395Y38360D01*
X119406Y38366D01*
X119420Y38377D01*
X119442Y38391D01*
X119467Y38407D01*
X119500Y38427D01*
X119536Y38446D01*
X119581Y38465D01*
X119628Y38485D01*
X119678Y38504D01*
X119733Y38524D01*
X119794Y38540D01*
X119858Y38554D01*
X119924Y38565D01*
X119993Y38571D01*
X120068Y38574D01*
X120107D01*
X120138Y38571D01*
D02*
G37*
G36*
X132500Y35975D02*
X132162D01*
Y38230D01*
X130902D01*
Y38532D01*
X132500D01*
Y35975D01*
D02*
G37*
G36*
X130492D02*
X128641D01*
Y36277D01*
X130154D01*
Y37058D01*
X128738D01*
Y37360D01*
X130154D01*
Y38230D01*
X128583D01*
Y38532D01*
X130492D01*
Y35975D01*
D02*
G37*
G36*
X128118D02*
X127165D01*
X127137Y35978D01*
X127104D01*
X127071Y35981D01*
X126996Y35984D01*
X126921Y35992D01*
X126846Y36000D01*
X126813Y36009D01*
X126783Y36014D01*
X126780D01*
X126772Y36017D01*
X126760Y36020D01*
X126747Y36025D01*
X126727Y36031D01*
X126705Y36036D01*
X126653Y36056D01*
X126594Y36081D01*
X126533Y36111D01*
X126470Y36150D01*
X126409Y36197D01*
X126406Y36200D01*
X126400Y36205D01*
X126389Y36213D01*
X126375Y36227D01*
X126359Y36244D01*
X126339Y36266D01*
X126317Y36288D01*
X126295Y36316D01*
X126270Y36346D01*
X126245Y36380D01*
X126220Y36416D01*
X126196Y36454D01*
X126148Y36540D01*
X126107Y36634D01*
Y36637D01*
X126101Y36646D01*
X126099Y36662D01*
X126090Y36682D01*
X126082Y36707D01*
X126074Y36737D01*
X126065Y36770D01*
X126054Y36809D01*
X126046Y36853D01*
X126038Y36900D01*
X126029Y36950D01*
X126021Y37003D01*
X126013Y37058D01*
X126010Y37117D01*
X126004Y37241D01*
Y37244D01*
Y37255D01*
Y37269D01*
Y37291D01*
X126007Y37316D01*
Y37346D01*
X126010Y37380D01*
X126013Y37416D01*
X126021Y37496D01*
X126035Y37582D01*
X126051Y37670D01*
X126074Y37759D01*
Y37762D01*
X126076Y37770D01*
X126082Y37781D01*
X126085Y37795D01*
X126093Y37815D01*
X126101Y37837D01*
X126121Y37889D01*
X126146Y37947D01*
X126176Y38011D01*
X126209Y38072D01*
X126248Y38130D01*
Y38133D01*
X126254Y38136D01*
X126259Y38144D01*
X126268Y38155D01*
X126287Y38180D01*
X126317Y38213D01*
X126351Y38252D01*
X126389Y38291D01*
X126434Y38327D01*
X126481Y38363D01*
X126484D01*
X126486Y38366D01*
X126503Y38377D01*
X126531Y38391D01*
X126567Y38410D01*
X126611Y38429D01*
X126664Y38452D01*
X126725Y38471D01*
X126788Y38490D01*
X126791D01*
X126797Y38493D01*
X126805D01*
X126819Y38496D01*
X126835Y38499D01*
X126857Y38504D01*
X126880Y38507D01*
X126905Y38510D01*
X126965Y38518D01*
X127035Y38526D01*
X127112Y38529D01*
X127195Y38532D01*
X128118D01*
Y35975D01*
D02*
G37*
G36*
X117941Y36277D02*
X118783D01*
Y35975D01*
X116761D01*
Y36277D01*
X117603D01*
Y38532D01*
X117941D01*
Y36277D01*
D02*
G37*
G36*
X59511Y34622D02*
Y34616D01*
Y34605D01*
Y34586D01*
Y34558D01*
X59508Y34525D01*
X59505Y34489D01*
X59503Y34447D01*
X59500Y34400D01*
X59489Y34303D01*
X59475Y34201D01*
X59453Y34101D01*
X59439Y34054D01*
X59422Y34010D01*
Y34007D01*
X59420Y33999D01*
X59414Y33988D01*
X59406Y33971D01*
X59395Y33952D01*
X59384Y33929D01*
X59350Y33880D01*
X59331Y33849D01*
X59309Y33821D01*
X59281Y33788D01*
X59253Y33758D01*
X59220Y33727D01*
X59187Y33697D01*
X59148Y33669D01*
X59107Y33641D01*
X59104Y33639D01*
X59096Y33636D01*
X59084Y33627D01*
X59065Y33619D01*
X59043Y33608D01*
X59015Y33597D01*
X58985Y33583D01*
X58946Y33572D01*
X58907Y33558D01*
X58863Y33544D01*
X58813Y33533D01*
X58760Y33522D01*
X58702Y33514D01*
X58641Y33505D01*
X58578Y33503D01*
X58511Y33500D01*
X58475D01*
X58450Y33503D01*
X58420D01*
X58386Y33505D01*
X58345Y33511D01*
X58303Y33517D01*
X58209Y33530D01*
X58109Y33553D01*
X58012Y33583D01*
X57965Y33600D01*
X57921Y33622D01*
X57918Y33625D01*
X57910Y33627D01*
X57899Y33636D01*
X57885Y33644D01*
X57866Y33658D01*
X57843Y33674D01*
X57821Y33691D01*
X57796Y33713D01*
X57741Y33763D01*
X57688Y33824D01*
X57639Y33896D01*
X57616Y33938D01*
X57597Y33979D01*
Y33982D01*
X57594Y33990D01*
X57589Y34004D01*
X57583Y34023D01*
X57575Y34046D01*
X57566Y34076D01*
X57558Y34109D01*
X57550Y34148D01*
X57539Y34192D01*
X57530Y34240D01*
X57522Y34292D01*
X57517Y34350D01*
X57508Y34411D01*
X57506Y34478D01*
X57500Y34547D01*
Y34622D01*
Y36098D01*
X57838D01*
Y34622D01*
Y34619D01*
Y34608D01*
Y34591D01*
Y34566D01*
X57841Y34539D01*
Y34508D01*
X57843Y34472D01*
X57846Y34436D01*
X57852Y34356D01*
X57863Y34276D01*
X57879Y34198D01*
X57888Y34162D01*
X57899Y34132D01*
Y34129D01*
X57902Y34126D01*
X57904Y34118D01*
X57910Y34107D01*
X57926Y34076D01*
X57949Y34043D01*
X57976Y34001D01*
X58012Y33963D01*
X58057Y33924D01*
X58109Y33888D01*
X58112D01*
X58118Y33885D01*
X58126Y33880D01*
X58137Y33874D01*
X58151Y33868D01*
X58170Y33863D01*
X58190Y33854D01*
X58212Y33846D01*
X58267Y33832D01*
X58331Y33819D01*
X58403Y33807D01*
X58481Y33805D01*
X58517D01*
X58542Y33807D01*
X58572Y33810D01*
X58608Y33813D01*
X58647Y33819D01*
X58688Y33827D01*
X58774Y33846D01*
X58819Y33860D01*
X58863Y33877D01*
X58904Y33896D01*
X58943Y33918D01*
X58979Y33943D01*
X59012Y33974D01*
X59015Y33976D01*
X59021Y33982D01*
X59026Y33993D01*
X59037Y34007D01*
X59048Y34026D01*
X59062Y34051D01*
X59079Y34082D01*
X59093Y34118D01*
X59107Y34159D01*
X59123Y34206D01*
X59137Y34259D01*
X59148Y34317D01*
X59159Y34384D01*
X59167Y34456D01*
X59170Y34536D01*
X59173Y34622D01*
Y36098D01*
X59511D01*
Y34622D01*
D02*
G37*
G36*
X67996Y36104D02*
X68026Y36101D01*
X68062Y36095D01*
X68103Y36090D01*
X68145Y36082D01*
X68192Y36070D01*
X68239Y36057D01*
X68289Y36040D01*
X68336Y36021D01*
X68386Y35996D01*
X68433Y35968D01*
X68477Y35938D01*
X68519Y35901D01*
X68522Y35899D01*
X68527Y35893D01*
X68538Y35879D01*
X68552Y35866D01*
X68569Y35846D01*
X68588Y35821D01*
X68608Y35794D01*
X68627Y35760D01*
X68646Y35727D01*
X68666Y35688D01*
X68685Y35647D01*
X68702Y35602D01*
X68716Y35552D01*
X68727Y35503D01*
X68732Y35450D01*
X68735Y35395D01*
Y35392D01*
Y35389D01*
Y35381D01*
Y35370D01*
X68732Y35339D01*
X68727Y35300D01*
X68718Y35253D01*
X68707Y35203D01*
X68694Y35148D01*
X68671Y35093D01*
Y35090D01*
X68669Y35087D01*
X68666Y35079D01*
X68660Y35068D01*
X68644Y35037D01*
X68621Y34999D01*
X68591Y34951D01*
X68555Y34899D01*
X68514Y34843D01*
X68461Y34782D01*
X68458Y34780D01*
X68455Y34774D01*
X68444Y34766D01*
X68433Y34752D01*
X68417Y34735D01*
X68397Y34716D01*
X68375Y34691D01*
X68347Y34666D01*
X68314Y34636D01*
X68278Y34602D01*
X68239Y34564D01*
X68195Y34525D01*
X68148Y34481D01*
X68095Y34436D01*
X68037Y34386D01*
X67976Y34334D01*
X67973Y34331D01*
X67965Y34323D01*
X67948Y34312D01*
X67932Y34295D01*
X67907Y34276D01*
X67882Y34253D01*
X67824Y34203D01*
X67763Y34151D01*
X67705Y34095D01*
X67677Y34071D01*
X67652Y34048D01*
X67630Y34026D01*
X67613Y34010D01*
X67611Y34007D01*
X67599Y33996D01*
X67585Y33979D01*
X67566Y33957D01*
X67544Y33932D01*
X67522Y33904D01*
X67478Y33843D01*
X68738D01*
Y33542D01*
X67045D01*
Y33547D01*
Y33561D01*
Y33583D01*
X67048Y33611D01*
X67051Y33644D01*
X67059Y33680D01*
X67067Y33719D01*
X67081Y33758D01*
Y33760D01*
X67084Y33766D01*
X67087Y33774D01*
X67093Y33788D01*
X67101Y33802D01*
X67109Y33821D01*
X67131Y33866D01*
X67159Y33918D01*
X67195Y33976D01*
X67237Y34037D01*
X67286Y34098D01*
X67289Y34101D01*
X67292Y34107D01*
X67300Y34115D01*
X67314Y34129D01*
X67328Y34143D01*
X67347Y34162D01*
X67367Y34184D01*
X67392Y34209D01*
X67419Y34237D01*
X67450Y34264D01*
X67483Y34298D01*
X67522Y34331D01*
X67561Y34367D01*
X67605Y34403D01*
X67649Y34442D01*
X67699Y34483D01*
X67705Y34486D01*
X67718Y34500D01*
X67738Y34517D01*
X67766Y34541D01*
X67799Y34569D01*
X67838Y34602D01*
X67882Y34638D01*
X67926Y34680D01*
X68020Y34766D01*
X68112Y34857D01*
X68156Y34902D01*
X68198Y34946D01*
X68234Y34988D01*
X68264Y35026D01*
X68267Y35029D01*
X68270Y35034D01*
X68278Y35046D01*
X68286Y35059D01*
X68300Y35079D01*
X68311Y35098D01*
X68339Y35148D01*
X68367Y35206D01*
X68392Y35270D01*
X68408Y35337D01*
X68411Y35370D01*
X68414Y35403D01*
Y35406D01*
Y35411D01*
Y35422D01*
X68411Y35433D01*
Y35450D01*
X68405Y35469D01*
X68397Y35511D01*
X68380Y35561D01*
X68356Y35614D01*
X68342Y35641D01*
X68322Y35666D01*
X68303Y35691D01*
X68278Y35716D01*
X68275Y35719D01*
X68273Y35721D01*
X68264Y35727D01*
X68253Y35735D01*
X68239Y35746D01*
X68223Y35757D01*
X68184Y35782D01*
X68131Y35805D01*
X68073Y35827D01*
X68004Y35841D01*
X67965Y35846D01*
X67904D01*
X67888Y35843D01*
X67868D01*
X67846Y35838D01*
X67796Y35829D01*
X67738Y35813D01*
X67677Y35788D01*
X67646Y35771D01*
X67616Y35755D01*
X67588Y35733D01*
X67561Y35708D01*
X67558Y35705D01*
X67555Y35702D01*
X67550Y35694D01*
X67538Y35683D01*
X67530Y35669D01*
X67519Y35652D01*
X67505Y35633D01*
X67494Y35611D01*
X67480Y35586D01*
X67469Y35558D01*
X67447Y35492D01*
X67430Y35420D01*
X67428Y35378D01*
X67425Y35334D01*
X67103Y35367D01*
Y35372D01*
X67106Y35384D01*
X67109Y35400D01*
X67112Y35425D01*
X67117Y35456D01*
X67126Y35492D01*
X67134Y35530D01*
X67148Y35572D01*
X67162Y35614D01*
X67178Y35661D01*
X67200Y35705D01*
X67223Y35749D01*
X67250Y35796D01*
X67281Y35838D01*
X67314Y35879D01*
X67353Y35915D01*
X67356Y35918D01*
X67364Y35924D01*
X67375Y35932D01*
X67392Y35946D01*
X67414Y35960D01*
X67441Y35976D01*
X67472Y35993D01*
X67508Y36012D01*
X67547Y36029D01*
X67591Y36046D01*
X67638Y36062D01*
X67691Y36076D01*
X67746Y36090D01*
X67804Y36098D01*
X67868Y36104D01*
X67935Y36107D01*
X67971D01*
X67996Y36104D01*
D02*
G37*
G36*
X66865Y35796D02*
X66023D01*
Y33542D01*
X65685D01*
Y35796D01*
X64843D01*
Y36098D01*
X66865D01*
Y35796D01*
D02*
G37*
G36*
X63680Y36095D02*
X63710D01*
X63746Y36093D01*
X63788Y36090D01*
X63871Y36082D01*
X63957Y36068D01*
X64040Y36051D01*
X64076Y36040D01*
X64112Y36029D01*
X64115D01*
X64120Y36026D01*
X64129Y36021D01*
X64142Y36015D01*
X64176Y35998D01*
X64214Y35974D01*
X64262Y35940D01*
X64309Y35896D01*
X64356Y35846D01*
X64397Y35785D01*
Y35782D01*
X64403Y35777D01*
X64408Y35769D01*
X64414Y35755D01*
X64422Y35738D01*
X64430Y35719D01*
X64442Y35697D01*
X64453Y35672D01*
X64472Y35614D01*
X64489Y35550D01*
X64500Y35478D01*
X64505Y35400D01*
Y35397D01*
Y35389D01*
Y35372D01*
X64503Y35356D01*
X64500Y35331D01*
X64497Y35303D01*
X64491Y35273D01*
X64483Y35239D01*
X64461Y35168D01*
X64447Y35129D01*
X64430Y35090D01*
X64411Y35051D01*
X64386Y35012D01*
X64359Y34976D01*
X64328Y34940D01*
X64325Y34938D01*
X64320Y34932D01*
X64309Y34924D01*
X64295Y34910D01*
X64275Y34896D01*
X64253Y34879D01*
X64226Y34860D01*
X64192Y34841D01*
X64156Y34821D01*
X64117Y34802D01*
X64073Y34782D01*
X64023Y34763D01*
X63971Y34747D01*
X63912Y34730D01*
X63849Y34716D01*
X63782Y34705D01*
X63785D01*
X63788Y34702D01*
X63805Y34694D01*
X63829Y34680D01*
X63860Y34663D01*
X63893Y34644D01*
X63926Y34625D01*
X63960Y34600D01*
X63987Y34578D01*
X63990Y34575D01*
X63993Y34572D01*
X64001Y34564D01*
X64012Y34553D01*
X64026Y34539D01*
X64043Y34522D01*
X64079Y34483D01*
X64120Y34433D01*
X64167Y34375D01*
X64217Y34309D01*
X64267Y34237D01*
X64710Y33542D01*
X64287D01*
X63949Y34073D01*
X63946Y34076D01*
X63943Y34084D01*
X63935Y34095D01*
X63924Y34112D01*
X63912Y34132D01*
X63896Y34154D01*
X63863Y34203D01*
X63824Y34262D01*
X63785Y34320D01*
X63744Y34375D01*
X63705Y34425D01*
Y34428D01*
X63699Y34431D01*
X63688Y34444D01*
X63671Y34467D01*
X63647Y34492D01*
X63622Y34519D01*
X63591Y34547D01*
X63561Y34575D01*
X63533Y34594D01*
X63530Y34597D01*
X63519Y34602D01*
X63505Y34611D01*
X63486Y34622D01*
X63461Y34633D01*
X63436Y34644D01*
X63408Y34655D01*
X63378Y34663D01*
X63375D01*
X63367Y34666D01*
X63353Y34669D01*
X63334Y34672D01*
X63306D01*
X63273Y34674D01*
X63234Y34677D01*
X62799D01*
Y33542D01*
X62461D01*
Y36098D01*
X63649D01*
X63680Y36095D01*
D02*
G37*
G36*
X62187Y33542D02*
X61802D01*
X61505Y34314D01*
X60431D01*
X60154Y33542D01*
X59796D01*
X60774Y36098D01*
X61140D01*
X62187Y33542D01*
D02*
G37*
G36*
X15497Y138273D02*
X13417D01*
Y138500D01*
X15497D01*
Y138273D01*
D02*
G37*
G36*
X12262Y137830D02*
X12293D01*
X12326Y137827D01*
X12365Y137824D01*
X12409Y137819D01*
X12500Y137808D01*
X12597Y137791D01*
X12694Y137766D01*
X12788Y137733D01*
X12791D01*
X12799Y137727D01*
X12811Y137722D01*
X12827Y137713D01*
X12847Y137702D01*
X12869Y137691D01*
X12921Y137658D01*
X12980Y137616D01*
X13040Y137564D01*
X13101Y137503D01*
X13154Y137431D01*
X13157Y137428D01*
X13160Y137423D01*
X13165Y137411D01*
X13173Y137395D01*
X13184Y137375D01*
X13196Y137353D01*
X13209Y137326D01*
X13221Y137295D01*
X13234Y137265D01*
X13246Y137229D01*
X13268Y137148D01*
X13284Y137062D01*
X13290Y137015D01*
X13293Y136968D01*
X12974Y136941D01*
Y136943D01*
Y136949D01*
X12971Y136960D01*
X12968Y136974D01*
X12966Y136990D01*
X12963Y137007D01*
X12952Y137054D01*
X12938Y137104D01*
X12921Y137157D01*
X12899Y137209D01*
X12871Y137259D01*
X12869Y137265D01*
X12855Y137278D01*
X12835Y137301D01*
X12808Y137328D01*
X12772Y137362D01*
X12728Y137392D01*
X12675Y137425D01*
X12614Y137456D01*
X12611D01*
X12606Y137459D01*
X12597Y137461D01*
X12584Y137467D01*
X12567Y137472D01*
X12548Y137481D01*
X12525Y137486D01*
X12500Y137492D01*
X12442Y137506D01*
X12373Y137520D01*
X12301Y137528D01*
X12221Y137531D01*
X12187D01*
X12171Y137528D01*
X12151D01*
X12107Y137522D01*
X12054Y137517D01*
X11996Y137508D01*
X11938Y137495D01*
X11883Y137475D01*
X11880D01*
X11877Y137472D01*
X11869Y137470D01*
X11858Y137464D01*
X11833Y137450D01*
X11800Y137434D01*
X11763Y137411D01*
X11725Y137384D01*
X11692Y137353D01*
X11661Y137317D01*
X11658Y137312D01*
X11650Y137301D01*
X11636Y137278D01*
X11622Y137251D01*
X11611Y137217D01*
X11597Y137181D01*
X11589Y137140D01*
X11586Y137098D01*
Y137096D01*
Y137093D01*
Y137079D01*
X11589Y137054D01*
X11595Y137026D01*
X11603Y136993D01*
X11617Y136957D01*
X11633Y136921D01*
X11658Y136888D01*
X11661Y136885D01*
X11672Y136874D01*
X11689Y136857D01*
X11714Y136835D01*
X11744Y136813D01*
X11786Y136788D01*
X11833Y136763D01*
X11888Y136738D01*
X11894Y136735D01*
X11899Y136733D01*
X11910Y136730D01*
X11921Y136727D01*
X11938Y136722D01*
X11960Y136713D01*
X11982Y136708D01*
X12013Y136699D01*
X12043Y136688D01*
X12082Y136680D01*
X12124Y136669D01*
X12171Y136655D01*
X12221Y136644D01*
X12279Y136627D01*
X12342Y136614D01*
X12345D01*
X12356Y136611D01*
X12376Y136605D01*
X12398Y136600D01*
X12428Y136591D01*
X12462Y136583D01*
X12495Y136572D01*
X12534Y136561D01*
X12617Y136536D01*
X12697Y136508D01*
X12736Y136495D01*
X12772Y136481D01*
X12805Y136467D01*
X12833Y136453D01*
X12835D01*
X12841Y136448D01*
X12849Y136442D01*
X12863Y136436D01*
X12897Y136417D01*
X12935Y136389D01*
X12982Y136353D01*
X13027Y136314D01*
X13071Y136267D01*
X13107Y136218D01*
Y136215D01*
X13110Y136212D01*
X13115Y136204D01*
X13121Y136193D01*
X13135Y136162D01*
X13151Y136123D01*
X13168Y136076D01*
X13182Y136021D01*
X13193Y135960D01*
X13196Y135896D01*
Y135893D01*
Y135888D01*
Y135877D01*
X13193Y135863D01*
Y135846D01*
X13190Y135827D01*
X13182Y135777D01*
X13168Y135722D01*
X13151Y135664D01*
X13124Y135600D01*
X13088Y135536D01*
Y135533D01*
X13082Y135528D01*
X13077Y135520D01*
X13068Y135508D01*
X13040Y135478D01*
X13004Y135439D01*
X12960Y135398D01*
X12905Y135356D01*
X12841Y135315D01*
X12766Y135278D01*
X12764D01*
X12758Y135276D01*
X12744Y135270D01*
X12730Y135265D01*
X12711Y135259D01*
X12686Y135251D01*
X12658Y135242D01*
X12628Y135234D01*
X12595Y135226D01*
X12559Y135218D01*
X12481Y135204D01*
X12392Y135193D01*
X12298Y135190D01*
X12251D01*
X12226Y135193D01*
X12196Y135195D01*
X12165Y135198D01*
X12129Y135201D01*
X12052Y135212D01*
X11966Y135229D01*
X11880Y135254D01*
X11797Y135284D01*
X11794D01*
X11789Y135290D01*
X11775Y135292D01*
X11761Y135301D01*
X11744Y135312D01*
X11722Y135323D01*
X11675Y135351D01*
X11620Y135389D01*
X11564Y135436D01*
X11512Y135489D01*
X11464Y135553D01*
X11462Y135556D01*
X11459Y135561D01*
X11453Y135569D01*
X11445Y135583D01*
X11437Y135600D01*
X11426Y135619D01*
X11417Y135644D01*
X11403Y135669D01*
X11381Y135727D01*
X11362Y135796D01*
X11345Y135871D01*
X11337Y135954D01*
X11661Y135979D01*
Y135977D01*
X11664Y135968D01*
Y135957D01*
X11667Y135941D01*
X11672Y135918D01*
X11678Y135896D01*
X11694Y135844D01*
X11716Y135785D01*
X11750Y135724D01*
X11789Y135666D01*
X11813Y135641D01*
X11841Y135617D01*
X11844Y135614D01*
X11847Y135611D01*
X11858Y135605D01*
X11869Y135597D01*
X11885Y135589D01*
X11905Y135578D01*
X11927Y135567D01*
X11952Y135553D01*
X11982Y135542D01*
X12016Y135531D01*
X12052Y135520D01*
X12090Y135511D01*
X12135Y135503D01*
X12182Y135497D01*
X12232Y135492D01*
X12312D01*
X12334Y135495D01*
X12359D01*
X12387Y135497D01*
X12420Y135500D01*
X12453Y135506D01*
X12528Y135520D01*
X12600Y135539D01*
X12669Y135567D01*
X12703Y135586D01*
X12730Y135605D01*
X12733D01*
X12736Y135611D01*
X12752Y135625D01*
X12775Y135650D01*
X12799Y135683D01*
X12824Y135722D01*
X12847Y135769D01*
X12863Y135819D01*
X12866Y135846D01*
X12869Y135877D01*
Y135880D01*
Y135882D01*
X12866Y135899D01*
X12863Y135924D01*
X12858Y135954D01*
X12844Y135990D01*
X12827Y136029D01*
X12805Y136065D01*
X12772Y136101D01*
X12766Y136104D01*
X12761Y136109D01*
X12750Y136118D01*
X12736Y136126D01*
X12719Y136134D01*
X12697Y136145D01*
X12672Y136159D01*
X12642Y136173D01*
X12606Y136187D01*
X12564Y136201D01*
X12517Y136218D01*
X12462Y136234D01*
X12403Y136251D01*
X12337Y136270D01*
X12262Y136287D01*
X12257D01*
X12243Y136290D01*
X12223Y136295D01*
X12196Y136303D01*
X12162Y136309D01*
X12124Y136320D01*
X12082Y136328D01*
X12038Y136342D01*
X11944Y136367D01*
X11849Y136392D01*
X11805Y136406D01*
X11766Y136420D01*
X11727Y136434D01*
X11697Y136448D01*
X11694D01*
X11686Y136453D01*
X11675Y136459D01*
X11661Y136467D01*
X11642Y136475D01*
X11620Y136489D01*
X11572Y136520D01*
X11517Y136556D01*
X11464Y136600D01*
X11412Y136652D01*
X11390Y136680D01*
X11367Y136708D01*
Y136711D01*
X11362Y136716D01*
X11356Y136724D01*
X11351Y136735D01*
X11343Y136749D01*
X11334Y136769D01*
X11312Y136813D01*
X11293Y136866D01*
X11276Y136927D01*
X11265Y136996D01*
X11259Y137071D01*
Y137074D01*
Y137079D01*
Y137090D01*
X11262Y137104D01*
Y137123D01*
X11265Y137143D01*
X11273Y137195D01*
X11287Y137253D01*
X11309Y137317D01*
X11340Y137384D01*
X11356Y137420D01*
X11378Y137453D01*
Y137456D01*
X11384Y137461D01*
X11390Y137470D01*
X11401Y137483D01*
X11426Y137514D01*
X11464Y137556D01*
X11512Y137600D01*
X11570Y137647D01*
X11636Y137691D01*
X11714Y137733D01*
X11716D01*
X11725Y137738D01*
X11736Y137741D01*
X11752Y137749D01*
X11772Y137755D01*
X11797Y137763D01*
X11824Y137774D01*
X11858Y137783D01*
X11891Y137791D01*
X11930Y137802D01*
X12013Y137816D01*
X12104Y137827D01*
X12204Y137832D01*
X12237D01*
X12262Y137830D01*
D02*
G37*
G36*
X17741Y135234D02*
X16553D01*
X16522Y135237D01*
X16492D01*
X16456Y135240D01*
X16414Y135242D01*
X16331Y135251D01*
X16245Y135265D01*
X16162Y135281D01*
X16126Y135292D01*
X16090Y135303D01*
X16087D01*
X16082Y135306D01*
X16074Y135312D01*
X16060Y135317D01*
X16027Y135334D01*
X15988Y135359D01*
X15941Y135392D01*
X15894Y135436D01*
X15846Y135486D01*
X15805Y135547D01*
Y135550D01*
X15799Y135556D01*
X15794Y135564D01*
X15788Y135578D01*
X15780Y135594D01*
X15772Y135614D01*
X15761Y135636D01*
X15750Y135661D01*
X15730Y135719D01*
X15714Y135783D01*
X15702Y135855D01*
X15697Y135932D01*
Y135935D01*
Y135943D01*
Y135960D01*
X15700Y135977D01*
X15702Y136002D01*
X15705Y136029D01*
X15711Y136060D01*
X15719Y136093D01*
X15741Y136165D01*
X15755Y136204D01*
X15772Y136242D01*
X15791Y136281D01*
X15816Y136320D01*
X15844Y136356D01*
X15874Y136392D01*
X15877Y136395D01*
X15882Y136400D01*
X15894Y136409D01*
X15908Y136423D01*
X15927Y136436D01*
X15949Y136453D01*
X15977Y136472D01*
X16010Y136492D01*
X16046Y136511D01*
X16085Y136531D01*
X16129Y136550D01*
X16179Y136569D01*
X16231Y136586D01*
X16290Y136603D01*
X16353Y136616D01*
X16420Y136627D01*
X16417D01*
X16414Y136630D01*
X16398Y136639D01*
X16373Y136652D01*
X16342Y136669D01*
X16309Y136688D01*
X16276Y136708D01*
X16243Y136733D01*
X16215Y136755D01*
X16212Y136758D01*
X16209Y136760D01*
X16201Y136769D01*
X16190Y136780D01*
X16176Y136794D01*
X16160Y136810D01*
X16124Y136849D01*
X16082Y136899D01*
X16035Y136957D01*
X15985Y137024D01*
X15935Y137096D01*
X15492Y137791D01*
X15916D01*
X16254Y137259D01*
X16256Y137256D01*
X16259Y137248D01*
X16268Y137237D01*
X16279Y137220D01*
X16290Y137201D01*
X16306Y137179D01*
X16340Y137129D01*
X16378Y137071D01*
X16417Y137013D01*
X16459Y136957D01*
X16498Y136907D01*
Y136905D01*
X16503Y136902D01*
X16514Y136888D01*
X16531Y136866D01*
X16556Y136841D01*
X16581Y136813D01*
X16611Y136785D01*
X16642Y136758D01*
X16669Y136738D01*
X16672Y136735D01*
X16683Y136730D01*
X16697Y136722D01*
X16716Y136711D01*
X16741Y136699D01*
X16766Y136688D01*
X16794Y136677D01*
X16824Y136669D01*
X16827D01*
X16835Y136666D01*
X16849Y136663D01*
X16869Y136661D01*
X16896D01*
X16930Y136658D01*
X16968Y136655D01*
X17403D01*
Y137791D01*
X17741D01*
Y135234D01*
D02*
G37*
G36*
X21348D02*
X20999D01*
X20614Y136913D01*
Y136916D01*
X20611Y136924D01*
X20608Y136938D01*
X20603Y136957D01*
X20597Y136982D01*
X20592Y137010D01*
X20583Y137040D01*
X20575Y137076D01*
X20567Y137115D01*
X20558Y137157D01*
X20542Y137242D01*
X20522Y137337D01*
X20506Y137434D01*
Y137428D01*
X20500Y137417D01*
X20497Y137395D01*
X20489Y137370D01*
X20483Y137337D01*
X20475Y137301D01*
X20464Y137262D01*
X20456Y137223D01*
X20434Y137140D01*
X20425Y137101D01*
X20414Y137062D01*
X20406Y137029D01*
X20400Y137002D01*
X20395Y136979D01*
X20389Y136963D01*
X19902Y135234D01*
X19495D01*
X19132Y136531D01*
X19129Y136536D01*
X19126Y136553D01*
X19118Y136578D01*
X19110Y136614D01*
X19098Y136655D01*
X19085Y136705D01*
X19071Y136760D01*
X19054Y136824D01*
X19038Y136891D01*
X19021Y136963D01*
X19004Y137038D01*
X18988Y137115D01*
X18957Y137273D01*
X18929Y137434D01*
Y137431D01*
X18927Y137423D01*
X18924Y137409D01*
X18921Y137392D01*
X18916Y137367D01*
X18910Y137339D01*
X18902Y137309D01*
X18893Y137273D01*
X18885Y137234D01*
X18877Y137193D01*
X18866Y137145D01*
X18855Y137098D01*
X18830Y136993D01*
X18802Y136880D01*
X18401Y135234D01*
X18060D01*
X18761Y137791D01*
X19090D01*
X19625Y135844D01*
Y135841D01*
X19628Y135833D01*
X19630Y135821D01*
X19636Y135805D01*
X19641Y135785D01*
X19647Y135763D01*
X19661Y135713D01*
X19675Y135664D01*
X19689Y135614D01*
X19694Y135591D01*
X19700Y135572D01*
X19705Y135556D01*
X19708Y135544D01*
Y135547D01*
X19711Y135553D01*
Y135561D01*
X19716Y135575D01*
X19719Y135589D01*
X19722Y135608D01*
X19733Y135647D01*
X19744Y135694D01*
X19758Y135747D01*
X19772Y135796D01*
X19785Y135844D01*
X20323Y137791D01*
X20675D01*
X21348Y135234D01*
D02*
G37*
G36*
X11029D02*
X10680D01*
X10295Y136913D01*
Y136916D01*
X10293Y136924D01*
X10290Y136938D01*
X10284Y136957D01*
X10279Y136982D01*
X10273Y137010D01*
X10265Y137040D01*
X10257Y137076D01*
X10248Y137115D01*
X10240Y137157D01*
X10223Y137242D01*
X10204Y137337D01*
X10187Y137434D01*
Y137428D01*
X10182Y137417D01*
X10179Y137395D01*
X10171Y137370D01*
X10165Y137337D01*
X10157Y137301D01*
X10146Y137262D01*
X10138Y137223D01*
X10115Y137140D01*
X10107Y137101D01*
X10096Y137062D01*
X10088Y137029D01*
X10082Y137002D01*
X10077Y136979D01*
X10071Y136963D01*
X9584Y135234D01*
X9176D01*
X8813Y136531D01*
X8811Y136536D01*
X8808Y136553D01*
X8800Y136578D01*
X8791Y136614D01*
X8780Y136655D01*
X8766Y136705D01*
X8753Y136760D01*
X8736Y136824D01*
X8719Y136891D01*
X8703Y136963D01*
X8686Y137038D01*
X8670Y137115D01*
X8639Y137273D01*
X8611Y137434D01*
Y137431D01*
X8608Y137423D01*
X8606Y137409D01*
X8603Y137392D01*
X8597Y137367D01*
X8592Y137339D01*
X8584Y137309D01*
X8575Y137273D01*
X8567Y137234D01*
X8559Y137193D01*
X8548Y137145D01*
X8536Y137098D01*
X8512Y136993D01*
X8484Y136880D01*
X8082Y135234D01*
X7741D01*
X8442Y137791D01*
X8772D01*
X9307Y135844D01*
Y135841D01*
X9309Y135833D01*
X9312Y135821D01*
X9318Y135805D01*
X9323Y135785D01*
X9329Y135763D01*
X9343Y135713D01*
X9356Y135664D01*
X9370Y135614D01*
X9376Y135591D01*
X9381Y135572D01*
X9387Y135556D01*
X9390Y135544D01*
Y135547D01*
X9392Y135553D01*
Y135561D01*
X9398Y135575D01*
X9401Y135589D01*
X9403Y135608D01*
X9415Y135647D01*
X9426Y135694D01*
X9439Y135747D01*
X9453Y135796D01*
X9467Y135844D01*
X10005Y137791D01*
X10356D01*
X11029Y135234D01*
D02*
G37*
G36*
X23500D02*
X22447D01*
X22392Y135237D01*
X22328Y135240D01*
X22265Y135245D01*
X22204Y135251D01*
X22173Y135254D01*
X22148Y135259D01*
X22145D01*
X22140Y135262D01*
X22129D01*
X22118Y135265D01*
X22101Y135270D01*
X22082Y135273D01*
X22038Y135287D01*
X21988Y135303D01*
X21935Y135326D01*
X21882Y135351D01*
X21833Y135381D01*
X21830D01*
X21827Y135384D01*
X21810Y135398D01*
X21788Y135417D01*
X21758Y135445D01*
X21727Y135478D01*
X21691Y135522D01*
X21658Y135569D01*
X21628Y135627D01*
Y135630D01*
X21625Y135636D01*
X21619Y135644D01*
X21614Y135655D01*
X21608Y135669D01*
X21603Y135688D01*
X21586Y135730D01*
X21572Y135783D01*
X21558Y135841D01*
X21550Y135907D01*
X21547Y135977D01*
Y135979D01*
Y135990D01*
Y136007D01*
X21550Y136032D01*
X21553Y136060D01*
X21558Y136090D01*
X21564Y136126D01*
X21572Y136168D01*
X21583Y136209D01*
X21597Y136254D01*
X21614Y136298D01*
X21636Y136345D01*
X21658Y136392D01*
X21686Y136439D01*
X21719Y136484D01*
X21755Y136528D01*
X21758Y136531D01*
X21766Y136536D01*
X21777Y136547D01*
X21797Y136564D01*
X21819Y136580D01*
X21849Y136600D01*
X21885Y136619D01*
X21927Y136639D01*
X21976Y136661D01*
X22029Y136680D01*
X22093Y136699D01*
X22159Y136716D01*
X22237Y136730D01*
X22320Y136741D01*
X22409Y136749D01*
X22508Y136752D01*
X23162D01*
Y137791D01*
X23500D01*
Y135234D01*
D02*
G37*
G36*
X42146Y154273D02*
X40066D01*
Y154500D01*
X42146D01*
Y154273D01*
D02*
G37*
G36*
X37055Y151234D02*
X36709D01*
X35365Y153242D01*
Y151234D01*
X35041D01*
Y153791D01*
X35390D01*
X36731Y151785D01*
Y153791D01*
X37055D01*
Y151234D01*
D02*
G37*
G36*
X48778D02*
X48440D01*
Y153489D01*
X47179D01*
Y153791D01*
X48778D01*
Y151234D01*
D02*
G37*
G36*
X46769D02*
X44919D01*
Y151536D01*
X46431D01*
Y152317D01*
X45016D01*
Y152619D01*
X46431D01*
Y153489D01*
X44861D01*
Y153791D01*
X46769D01*
Y151234D01*
D02*
G37*
G36*
X44395D02*
X43443D01*
X43415Y151237D01*
X43382D01*
X43348Y151240D01*
X43274Y151242D01*
X43199Y151251D01*
X43124Y151259D01*
X43091Y151267D01*
X43060Y151273D01*
X43058D01*
X43049Y151276D01*
X43038Y151278D01*
X43024Y151284D01*
X43005Y151290D01*
X42983Y151295D01*
X42930Y151314D01*
X42872Y151339D01*
X42811Y151370D01*
X42747Y151409D01*
X42686Y151456D01*
X42684Y151459D01*
X42678Y151464D01*
X42667Y151472D01*
X42653Y151486D01*
X42636Y151503D01*
X42617Y151525D01*
X42595Y151547D01*
X42573Y151575D01*
X42548Y151605D01*
X42523Y151639D01*
X42498Y151675D01*
X42473Y151713D01*
X42426Y151799D01*
X42384Y151893D01*
Y151896D01*
X42379Y151904D01*
X42376Y151921D01*
X42368Y151941D01*
X42360Y151965D01*
X42351Y151996D01*
X42343Y152029D01*
X42332Y152068D01*
X42323Y152112D01*
X42315Y152159D01*
X42307Y152209D01*
X42299Y152262D01*
X42290Y152317D01*
X42287Y152375D01*
X42282Y152500D01*
Y152503D01*
Y152514D01*
Y152528D01*
Y152550D01*
X42285Y152575D01*
Y152605D01*
X42287Y152639D01*
X42290Y152675D01*
X42299Y152755D01*
X42312Y152841D01*
X42329Y152929D01*
X42351Y153018D01*
Y153021D01*
X42354Y153029D01*
X42360Y153040D01*
X42362Y153054D01*
X42371Y153074D01*
X42379Y153096D01*
X42398Y153148D01*
X42423Y153206D01*
X42454Y153270D01*
X42487Y153331D01*
X42526Y153389D01*
Y153392D01*
X42531Y153395D01*
X42537Y153403D01*
X42545Y153414D01*
X42564Y153439D01*
X42595Y153472D01*
X42628Y153511D01*
X42667Y153550D01*
X42711Y153586D01*
X42758Y153622D01*
X42761D01*
X42764Y153625D01*
X42781Y153636D01*
X42808Y153650D01*
X42844Y153669D01*
X42889Y153688D01*
X42941Y153710D01*
X43002Y153730D01*
X43066Y153749D01*
X43069D01*
X43074Y153752D01*
X43082D01*
X43096Y153755D01*
X43113Y153758D01*
X43135Y153763D01*
X43157Y153766D01*
X43182Y153769D01*
X43243Y153777D01*
X43312Y153785D01*
X43390Y153788D01*
X43473Y153791D01*
X44395D01*
Y151234D01*
D02*
G37*
G36*
X38772Y153830D02*
X38803Y153827D01*
X38842Y153824D01*
X38880Y153819D01*
X38928Y153810D01*
X38974Y153802D01*
X39027Y153791D01*
X39080Y153777D01*
X39135Y153760D01*
X39191Y153741D01*
X39246Y153716D01*
X39301Y153691D01*
X39357Y153661D01*
X39360Y153658D01*
X39368Y153652D01*
X39384Y153641D01*
X39404Y153627D01*
X39426Y153611D01*
X39454Y153589D01*
X39484Y153564D01*
X39518Y153536D01*
X39553Y153503D01*
X39587Y153467D01*
X39623Y153428D01*
X39659Y153386D01*
X39695Y153339D01*
X39728Y153292D01*
X39759Y153240D01*
X39789Y153184D01*
X39792Y153182D01*
X39794Y153170D01*
X39803Y153154D01*
X39811Y153132D01*
X39822Y153104D01*
X39833Y153071D01*
X39847Y153035D01*
X39861Y152990D01*
X39875Y152946D01*
X39889Y152896D01*
X39900Y152843D01*
X39911Y152788D01*
X39927Y152672D01*
X39930Y152608D01*
X39933Y152547D01*
Y152544D01*
Y152539D01*
Y152531D01*
Y152520D01*
X39930Y152503D01*
Y152486D01*
X39927Y152442D01*
X39922Y152389D01*
X39914Y152325D01*
X39905Y152259D01*
X39891Y152184D01*
X39872Y152104D01*
X39850Y152024D01*
X39822Y151941D01*
X39789Y151857D01*
X39750Y151774D01*
X39706Y151697D01*
X39653Y151619D01*
X39592Y151550D01*
X39590Y151547D01*
X39576Y151533D01*
X39556Y151517D01*
X39531Y151495D01*
X39495Y151467D01*
X39456Y151436D01*
X39409Y151403D01*
X39354Y151370D01*
X39293Y151337D01*
X39227Y151303D01*
X39155Y151273D01*
X39074Y151245D01*
X38991Y151223D01*
X38903Y151207D01*
X38808Y151193D01*
X38709Y151190D01*
X38675D01*
X38651Y151193D01*
X38617Y151195D01*
X38581Y151198D01*
X38542Y151204D01*
X38498Y151212D01*
X38448Y151220D01*
X38398Y151231D01*
X38346Y151245D01*
X38290Y151262D01*
X38235Y151281D01*
X38180Y151303D01*
X38127Y151328D01*
X38072Y151359D01*
X38069Y151362D01*
X38058Y151367D01*
X38044Y151375D01*
X38024Y151389D01*
X37999Y151406D01*
X37975Y151428D01*
X37944Y151453D01*
X37911Y151481D01*
X37875Y151514D01*
X37839Y151550D01*
X37803Y151589D01*
X37767Y151630D01*
X37734Y151675D01*
X37698Y151725D01*
X37667Y151777D01*
X37637Y151832D01*
X37634Y151835D01*
X37631Y151846D01*
X37623Y151863D01*
X37615Y151885D01*
X37601Y151913D01*
X37590Y151949D01*
X37576Y151988D01*
X37562Y152032D01*
X37548Y152079D01*
X37534Y152132D01*
X37520Y152190D01*
X37509Y152248D01*
X37501Y152312D01*
X37493Y152378D01*
X37490Y152445D01*
X37487Y152517D01*
Y152522D01*
Y152533D01*
Y152556D01*
X37490Y152583D01*
X37493Y152616D01*
X37495Y152655D01*
X37501Y152699D01*
X37506Y152749D01*
X37515Y152802D01*
X37526Y152857D01*
X37537Y152916D01*
X37554Y152974D01*
X37573Y153035D01*
X37592Y153093D01*
X37617Y153154D01*
X37645Y153212D01*
X37648Y153215D01*
X37653Y153226D01*
X37662Y153242D01*
X37673Y153262D01*
X37689Y153287D01*
X37709Y153317D01*
X37734Y153350D01*
X37758Y153386D01*
X37789Y153422D01*
X37822Y153461D01*
X37861Y153500D01*
X37900Y153539D01*
X37941Y153575D01*
X37988Y153611D01*
X38038Y153647D01*
X38091Y153677D01*
X38094Y153680D01*
X38105Y153683D01*
X38119Y153691D01*
X38141Y153702D01*
X38168Y153713D01*
X38199Y153727D01*
X38235Y153741D01*
X38276Y153755D01*
X38321Y153769D01*
X38368Y153783D01*
X38421Y153796D01*
X38473Y153807D01*
X38590Y153827D01*
X38651Y153830D01*
X38711Y153832D01*
X38747D01*
X38772Y153830D01*
D02*
G37*
G36*
X38369Y57014D02*
X36288D01*
Y57241D01*
X38369D01*
Y57014D01*
D02*
G37*
G36*
X33172Y53975D02*
X32806D01*
X31759Y56532D01*
X32144D01*
X32441Y55759D01*
X33516D01*
X33793Y56532D01*
X34150D01*
X33172Y53975D01*
D02*
G37*
G36*
X45000D02*
X44662D01*
Y56230D01*
X43402D01*
Y56532D01*
X45000D01*
Y53975D01*
D02*
G37*
G36*
X42992D02*
X41141D01*
Y54277D01*
X42654D01*
Y55058D01*
X41238D01*
Y55360D01*
X42654D01*
Y56230D01*
X41083D01*
Y56532D01*
X42992D01*
Y53975D01*
D02*
G37*
G36*
X40618D02*
X39665D01*
X39637Y53978D01*
X39604D01*
X39571Y53981D01*
X39496Y53984D01*
X39421Y53992D01*
X39346Y54000D01*
X39313Y54009D01*
X39283Y54014D01*
X39280D01*
X39272Y54017D01*
X39261Y54020D01*
X39247Y54025D01*
X39227Y54031D01*
X39205Y54036D01*
X39153Y54056D01*
X39094Y54080D01*
X39033Y54111D01*
X38970Y54150D01*
X38909Y54197D01*
X38906Y54200D01*
X38900Y54205D01*
X38889Y54214D01*
X38875Y54227D01*
X38859Y54244D01*
X38840Y54266D01*
X38817Y54288D01*
X38795Y54316D01*
X38770Y54347D01*
X38745Y54380D01*
X38720Y54416D01*
X38695Y54454D01*
X38648Y54540D01*
X38607Y54634D01*
Y54637D01*
X38601Y54646D01*
X38598Y54662D01*
X38590Y54682D01*
X38582Y54707D01*
X38574Y54737D01*
X38565Y54770D01*
X38554Y54809D01*
X38546Y54853D01*
X38538Y54900D01*
X38529Y54950D01*
X38521Y55003D01*
X38513Y55058D01*
X38510Y55116D01*
X38504Y55241D01*
Y55244D01*
Y55255D01*
Y55269D01*
Y55291D01*
X38507Y55316D01*
Y55346D01*
X38510Y55380D01*
X38513Y55416D01*
X38521Y55496D01*
X38535Y55582D01*
X38551Y55670D01*
X38574Y55759D01*
Y55762D01*
X38576Y55770D01*
X38582Y55781D01*
X38585Y55795D01*
X38593Y55814D01*
X38601Y55837D01*
X38621Y55889D01*
X38646Y55948D01*
X38676Y56011D01*
X38709Y56072D01*
X38748Y56130D01*
Y56133D01*
X38754Y56136D01*
X38759Y56144D01*
X38767Y56155D01*
X38787Y56180D01*
X38817Y56213D01*
X38851Y56252D01*
X38889Y56291D01*
X38934Y56327D01*
X38981Y56363D01*
X38984D01*
X38986Y56366D01*
X39003Y56377D01*
X39031Y56391D01*
X39067Y56410D01*
X39111Y56429D01*
X39164Y56452D01*
X39224Y56471D01*
X39288Y56490D01*
X39291D01*
X39297Y56493D01*
X39305D01*
X39319Y56496D01*
X39335Y56499D01*
X39358Y56504D01*
X39380Y56507D01*
X39405Y56510D01*
X39465Y56518D01*
X39535Y56526D01*
X39612Y56529D01*
X39695Y56532D01*
X40618D01*
Y53975D01*
D02*
G37*
G36*
X36033D02*
X34311D01*
Y54277D01*
X35695D01*
Y55069D01*
X34496D01*
Y55371D01*
X35695D01*
Y56532D01*
X36033D01*
Y53975D01*
D02*
G37*
G36*
X30535Y56571D02*
X30566D01*
X30599Y56568D01*
X30640Y56563D01*
X30682Y56557D01*
X30776Y56543D01*
X30876Y56521D01*
X30973Y56490D01*
X31020Y56474D01*
X31064Y56452D01*
X31067Y56449D01*
X31075Y56446D01*
X31086Y56438D01*
X31100Y56429D01*
X31119Y56416D01*
X31142Y56399D01*
X31164Y56382D01*
X31189Y56360D01*
X31244Y56310D01*
X31297Y56249D01*
X31347Y56177D01*
X31369Y56136D01*
X31388Y56094D01*
Y56091D01*
X31391Y56083D01*
X31396Y56069D01*
X31402Y56050D01*
X31410Y56028D01*
X31419Y55997D01*
X31427Y55964D01*
X31435Y55925D01*
X31446Y55881D01*
X31455Y55834D01*
X31463Y55781D01*
X31468Y55723D01*
X31477Y55662D01*
X31480Y55596D01*
X31485Y55527D01*
Y55452D01*
Y53975D01*
X31147D01*
Y55452D01*
Y55454D01*
Y55466D01*
Y55482D01*
Y55507D01*
X31144Y55535D01*
Y55565D01*
X31142Y55601D01*
X31139Y55637D01*
X31133Y55718D01*
X31122Y55798D01*
X31106Y55875D01*
X31097Y55911D01*
X31086Y55942D01*
Y55945D01*
X31084Y55948D01*
X31081Y55956D01*
X31075Y55967D01*
X31059Y55997D01*
X31036Y56031D01*
X31009Y56072D01*
X30973Y56111D01*
X30928Y56150D01*
X30876Y56186D01*
X30873D01*
X30867Y56188D01*
X30859Y56194D01*
X30848Y56200D01*
X30834Y56205D01*
X30815Y56211D01*
X30795Y56219D01*
X30773Y56227D01*
X30718Y56241D01*
X30654Y56255D01*
X30582Y56266D01*
X30505Y56269D01*
X30469D01*
X30444Y56266D01*
X30413Y56263D01*
X30377Y56261D01*
X30338Y56255D01*
X30297Y56247D01*
X30211Y56227D01*
X30167Y56213D01*
X30122Y56197D01*
X30081Y56177D01*
X30042Y56155D01*
X30006Y56130D01*
X29973Y56100D01*
X29970Y56097D01*
X29964Y56091D01*
X29959Y56081D01*
X29948Y56067D01*
X29937Y56047D01*
X29923Y56022D01*
X29906Y55992D01*
X29892Y55956D01*
X29879Y55914D01*
X29862Y55867D01*
X29848Y55814D01*
X29837Y55756D01*
X29826Y55690D01*
X29818Y55618D01*
X29815Y55537D01*
X29812Y55452D01*
Y53975D01*
X29474D01*
Y55452D01*
Y55457D01*
Y55468D01*
Y55488D01*
Y55515D01*
X29477Y55549D01*
X29480Y55585D01*
X29482Y55626D01*
X29485Y55673D01*
X29496Y55770D01*
X29510Y55873D01*
X29532Y55972D01*
X29546Y56020D01*
X29563Y56064D01*
Y56067D01*
X29566Y56075D01*
X29571Y56086D01*
X29579Y56103D01*
X29590Y56122D01*
X29601Y56144D01*
X29635Y56194D01*
X29654Y56225D01*
X29676Y56252D01*
X29704Y56286D01*
X29732Y56316D01*
X29765Y56346D01*
X29798Y56377D01*
X29837Y56405D01*
X29879Y56432D01*
X29881Y56435D01*
X29890Y56438D01*
X29901Y56446D01*
X29920Y56454D01*
X29942Y56466D01*
X29970Y56477D01*
X30000Y56490D01*
X30039Y56502D01*
X30078Y56515D01*
X30122Y56529D01*
X30172Y56540D01*
X30225Y56551D01*
X30283Y56560D01*
X30344Y56568D01*
X30408Y56571D01*
X30474Y56573D01*
X30510D01*
X30535Y56571D01*
D02*
G37*
G36*
X28926Y53975D02*
X28588D01*
Y56230D01*
X27327D01*
Y56532D01*
X28926D01*
Y53975D01*
D02*
G37*
G36*
X26275Y54277D02*
X27117D01*
Y53975D01*
X25095D01*
Y54277D01*
X25937D01*
Y56532D01*
X26275D01*
Y54277D01*
D02*
G37*
%LPC*%
G36*
X63662Y168862D02*
X62898D01*
X62878Y168859D01*
X62856D01*
X62803Y168856D01*
X62745Y168851D01*
X62684Y168842D01*
X62626Y168831D01*
X62573Y168815D01*
X62571D01*
X62568Y168812D01*
X62551Y168806D01*
X62529Y168795D01*
X62499Y168779D01*
X62468Y168756D01*
X62435Y168731D01*
X62402Y168698D01*
X62374Y168662D01*
X62371Y168657D01*
X62363Y168643D01*
X62352Y168623D01*
X62338Y168593D01*
X62327Y168560D01*
X62316Y168521D01*
X62308Y168477D01*
X62305Y168432D01*
Y168430D01*
Y168424D01*
Y168416D01*
X62308Y168402D01*
Y168388D01*
X62310Y168368D01*
X62321Y168327D01*
X62338Y168280D01*
X62360Y168230D01*
X62393Y168183D01*
X62416Y168158D01*
X62438Y168136D01*
X62441Y168133D01*
X62443Y168130D01*
X62452Y168125D01*
X62463Y168116D01*
X62476Y168108D01*
X62496Y168097D01*
X62515Y168086D01*
X62540Y168075D01*
X62568Y168064D01*
X62598Y168055D01*
X62632Y168044D01*
X62668Y168036D01*
X62709Y168028D01*
X62753Y168022D01*
X62801Y168017D01*
X63662D01*
Y168862D01*
D02*
G37*
G36*
X59103Y169989D02*
X58515D01*
X58493Y169986D01*
X58468D01*
X58413Y169983D01*
X58349Y169978D01*
X58283Y169970D01*
X58219Y169958D01*
X58161Y169945D01*
X58158D01*
X58155Y169942D01*
X58147Y169939D01*
X58136Y169936D01*
X58111Y169925D01*
X58078Y169911D01*
X58042Y169892D01*
X58003Y169870D01*
X57964Y169842D01*
X57931Y169812D01*
X57928Y169809D01*
X57925Y169806D01*
X57912Y169790D01*
X57889Y169762D01*
X57862Y169726D01*
X57834Y169679D01*
X57803Y169623D01*
X57773Y169560D01*
X57745Y169488D01*
Y169485D01*
X57743Y169479D01*
X57740Y169468D01*
X57734Y169452D01*
X57729Y169432D01*
X57723Y169407D01*
X57718Y169380D01*
X57709Y169349D01*
X57704Y169316D01*
X57698Y169277D01*
X57693Y169238D01*
X57687Y169194D01*
X57679Y169100D01*
X57676Y168995D01*
Y168989D01*
Y168978D01*
Y168956D01*
X57679Y168928D01*
Y168895D01*
X57682Y168856D01*
X57687Y168815D01*
X57693Y168767D01*
X57709Y168668D01*
X57731Y168565D01*
X57765Y168468D01*
X57787Y168421D01*
X57809Y168380D01*
X57812Y168377D01*
X57815Y168371D01*
X57823Y168360D01*
X57834Y168344D01*
X57845Y168327D01*
X57862Y168308D01*
X57898Y168263D01*
X57945Y168213D01*
X58000Y168166D01*
X58061Y168122D01*
X58094Y168105D01*
X58130Y168089D01*
X58133D01*
X58136Y168086D01*
X58144Y168083D01*
X58155Y168080D01*
X58172Y168078D01*
X58189Y168072D01*
X58211Y168067D01*
X58236Y168061D01*
X58263Y168058D01*
X58297Y168053D01*
X58333Y168047D01*
X58371Y168044D01*
X58416Y168042D01*
X58463Y168039D01*
X58513Y168036D01*
X59103D01*
Y169989D01*
D02*
G37*
G36*
X46662Y75362D02*
X45898D01*
X45878Y75359D01*
X45856D01*
X45803Y75356D01*
X45745Y75350D01*
X45684Y75342D01*
X45626Y75331D01*
X45573Y75314D01*
X45571D01*
X45568Y75312D01*
X45551Y75306D01*
X45529Y75295D01*
X45499Y75279D01*
X45468Y75256D01*
X45435Y75231D01*
X45402Y75198D01*
X45374Y75162D01*
X45371Y75157D01*
X45363Y75143D01*
X45352Y75123D01*
X45338Y75093D01*
X45327Y75060D01*
X45316Y75021D01*
X45308Y74977D01*
X45305Y74932D01*
Y74929D01*
Y74924D01*
Y74916D01*
X45308Y74902D01*
Y74888D01*
X45310Y74869D01*
X45321Y74827D01*
X45338Y74780D01*
X45360Y74730D01*
X45393Y74683D01*
X45416Y74658D01*
X45438Y74636D01*
X45441Y74633D01*
X45443Y74630D01*
X45452Y74625D01*
X45463Y74616D01*
X45476Y74608D01*
X45496Y74597D01*
X45515Y74586D01*
X45540Y74575D01*
X45568Y74564D01*
X45598Y74555D01*
X45632Y74544D01*
X45668Y74536D01*
X45709Y74528D01*
X45754Y74522D01*
X45801Y74517D01*
X46662D01*
Y75362D01*
D02*
G37*
G36*
X42103Y76489D02*
X41515D01*
X41493Y76486D01*
X41468D01*
X41413Y76483D01*
X41349Y76478D01*
X41283Y76470D01*
X41219Y76459D01*
X41161Y76445D01*
X41158D01*
X41155Y76442D01*
X41147Y76439D01*
X41136Y76436D01*
X41111Y76425D01*
X41078Y76411D01*
X41042Y76392D01*
X41003Y76370D01*
X40964Y76342D01*
X40931Y76312D01*
X40928Y76309D01*
X40925Y76306D01*
X40912Y76289D01*
X40889Y76262D01*
X40862Y76226D01*
X40834Y76179D01*
X40804Y76123D01*
X40773Y76060D01*
X40745Y75988D01*
Y75985D01*
X40743Y75979D01*
X40740Y75968D01*
X40734Y75952D01*
X40729Y75932D01*
X40723Y75907D01*
X40718Y75880D01*
X40709Y75849D01*
X40704Y75816D01*
X40698Y75777D01*
X40693Y75738D01*
X40687Y75694D01*
X40679Y75600D01*
X40676Y75495D01*
Y75489D01*
Y75478D01*
Y75456D01*
X40679Y75428D01*
Y75395D01*
X40682Y75356D01*
X40687Y75314D01*
X40693Y75267D01*
X40709Y75168D01*
X40731Y75065D01*
X40765Y74968D01*
X40787Y74921D01*
X40809Y74880D01*
X40812Y74877D01*
X40815Y74871D01*
X40823Y74860D01*
X40834Y74844D01*
X40845Y74827D01*
X40862Y74808D01*
X40898Y74763D01*
X40945Y74713D01*
X41000Y74666D01*
X41061Y74622D01*
X41094Y74605D01*
X41130Y74589D01*
X41133D01*
X41136Y74586D01*
X41144Y74583D01*
X41155Y74580D01*
X41172Y74578D01*
X41189Y74572D01*
X41211Y74567D01*
X41236Y74561D01*
X41263Y74558D01*
X41297Y74553D01*
X41333Y74547D01*
X41371Y74544D01*
X41416Y74542D01*
X41463Y74539D01*
X41513Y74536D01*
X42103D01*
Y76489D01*
D02*
G37*
G36*
X132662Y21362D02*
X131898D01*
X131878Y21359D01*
X131856D01*
X131803Y21356D01*
X131745Y21350D01*
X131684Y21342D01*
X131626Y21331D01*
X131573Y21315D01*
X131571D01*
X131568Y21312D01*
X131551Y21306D01*
X131529Y21295D01*
X131499Y21279D01*
X131468Y21256D01*
X131435Y21231D01*
X131402Y21198D01*
X131374Y21162D01*
X131371Y21157D01*
X131363Y21143D01*
X131352Y21123D01*
X131338Y21093D01*
X131327Y21060D01*
X131316Y21021D01*
X131308Y20977D01*
X131305Y20932D01*
Y20930D01*
Y20924D01*
Y20916D01*
X131308Y20902D01*
Y20888D01*
X131310Y20868D01*
X131321Y20827D01*
X131338Y20780D01*
X131360Y20730D01*
X131393Y20683D01*
X131416Y20658D01*
X131438Y20636D01*
X131440Y20633D01*
X131443Y20630D01*
X131452Y20625D01*
X131463Y20617D01*
X131476Y20608D01*
X131496Y20597D01*
X131515Y20586D01*
X131540Y20575D01*
X131568Y20564D01*
X131598Y20556D01*
X131632Y20544D01*
X131668Y20536D01*
X131709Y20528D01*
X131754Y20522D01*
X131801Y20517D01*
X132662D01*
Y21362D01*
D02*
G37*
G36*
X128103Y22489D02*
X127515D01*
X127493Y22486D01*
X127468D01*
X127413Y22483D01*
X127349Y22478D01*
X127283Y22470D01*
X127219Y22458D01*
X127161Y22445D01*
X127158D01*
X127155Y22442D01*
X127147Y22439D01*
X127136Y22436D01*
X127111Y22425D01*
X127078Y22411D01*
X127042Y22392D01*
X127003Y22370D01*
X126964Y22342D01*
X126931Y22312D01*
X126928Y22309D01*
X126925Y22306D01*
X126912Y22289D01*
X126889Y22262D01*
X126862Y22226D01*
X126834Y22179D01*
X126804Y22123D01*
X126773Y22060D01*
X126745Y21988D01*
Y21985D01*
X126743Y21979D01*
X126740Y21968D01*
X126734Y21952D01*
X126729Y21932D01*
X126723Y21907D01*
X126718Y21880D01*
X126709Y21849D01*
X126704Y21816D01*
X126698Y21777D01*
X126693Y21738D01*
X126687Y21694D01*
X126679Y21600D01*
X126676Y21495D01*
Y21489D01*
Y21478D01*
Y21456D01*
X126679Y21428D01*
Y21395D01*
X126682Y21356D01*
X126687Y21315D01*
X126693Y21267D01*
X126709Y21168D01*
X126732Y21065D01*
X126765Y20968D01*
X126787Y20921D01*
X126809Y20880D01*
X126812Y20877D01*
X126815Y20871D01*
X126823Y20860D01*
X126834Y20844D01*
X126845Y20827D01*
X126862Y20808D01*
X126898Y20763D01*
X126945Y20713D01*
X127000Y20666D01*
X127061Y20622D01*
X127094Y20605D01*
X127130Y20589D01*
X127133D01*
X127136Y20586D01*
X127144Y20583D01*
X127155Y20580D01*
X127172Y20578D01*
X127189Y20572D01*
X127211Y20567D01*
X127236Y20561D01*
X127263Y20558D01*
X127297Y20553D01*
X127333Y20547D01*
X127371Y20544D01*
X127416Y20542D01*
X127463Y20539D01*
X127513Y20536D01*
X128103D01*
Y22489D01*
D02*
G37*
G36*
X143572Y98799D02*
X142838D01*
Y97885D01*
X143528D01*
X143550Y97888D01*
X143578D01*
X143608Y97891D01*
X143644Y97896D01*
X143680Y97902D01*
X143757Y97915D01*
X143835Y97938D01*
X143871Y97951D01*
X143904Y97968D01*
X143938Y97985D01*
X143965Y98007D01*
X143968Y98010D01*
X143971Y98012D01*
X143979Y98021D01*
X143987Y98029D01*
X144010Y98057D01*
X144035Y98096D01*
X144060Y98145D01*
X144082Y98203D01*
X144098Y98273D01*
X144101Y98309D01*
X144104Y98350D01*
Y98353D01*
Y98359D01*
Y98367D01*
Y98378D01*
X144098Y98409D01*
X144093Y98444D01*
X144084Y98489D01*
X144068Y98533D01*
X144048Y98580D01*
X144021Y98624D01*
X144018Y98630D01*
X144007Y98644D01*
X143987Y98663D01*
X143965Y98685D01*
X143932Y98710D01*
X143896Y98735D01*
X143854Y98757D01*
X143807Y98774D01*
X143805D01*
X143791Y98777D01*
X143769Y98782D01*
X143735Y98788D01*
X143716D01*
X143694Y98791D01*
X143666Y98794D01*
X143638Y98796D01*
X143605D01*
X143572Y98799D01*
D02*
G37*
G36*
X158391Y155080D02*
X157238D01*
X158391Y154274D01*
Y155080D01*
D02*
G37*
G36*
X157432Y150543D02*
X157430D01*
X157424D01*
X157416D01*
X157402Y150540D01*
X157388D01*
X157369Y150537D01*
X157327Y150526D01*
X157280Y150509D01*
X157230Y150487D01*
X157183Y150454D01*
X157158Y150432D01*
X157136Y150410D01*
X157133Y150407D01*
X157130Y150404D01*
X157125Y150396D01*
X157116Y150385D01*
X157108Y150371D01*
X157097Y150352D01*
X157086Y150332D01*
X157075Y150307D01*
X157064Y150279D01*
X157055Y150249D01*
X157044Y150216D01*
X157036Y150180D01*
X157028Y150138D01*
X157022Y150094D01*
X157017Y150047D01*
Y149185D01*
X157862D01*
Y149950D01*
X157859Y149969D01*
Y149991D01*
X157856Y150044D01*
X157851Y150102D01*
X157842Y150163D01*
X157831Y150221D01*
X157815Y150274D01*
Y150277D01*
X157812Y150279D01*
X157806Y150296D01*
X157795Y150318D01*
X157779Y150349D01*
X157756Y150379D01*
X157731Y150412D01*
X157698Y150446D01*
X157662Y150473D01*
X157657Y150476D01*
X157643Y150485D01*
X157623Y150496D01*
X157593Y150509D01*
X157560Y150521D01*
X157521Y150532D01*
X157477Y150540D01*
X157432Y150543D01*
D02*
G37*
G36*
X138524Y11964D02*
X137935D01*
Y10011D01*
X138522D01*
X138544Y10014D01*
X138569D01*
X138624Y10017D01*
X138688Y10022D01*
X138754Y10030D01*
X138818Y10041D01*
X138876Y10055D01*
X138879D01*
X138882Y10058D01*
X138890Y10061D01*
X138901Y10064D01*
X138926Y10075D01*
X138959Y10089D01*
X138995Y10108D01*
X139034Y10130D01*
X139073Y10158D01*
X139106Y10188D01*
X139109Y10191D01*
X139112Y10194D01*
X139126Y10210D01*
X139148Y10238D01*
X139175Y10274D01*
X139203Y10321D01*
X139234Y10377D01*
X139264Y10440D01*
X139292Y10512D01*
Y10515D01*
X139295Y10521D01*
X139297Y10532D01*
X139303Y10548D01*
X139308Y10568D01*
X139314Y10593D01*
X139320Y10620D01*
X139328Y10651D01*
X139333Y10684D01*
X139339Y10723D01*
X139344Y10762D01*
X139350Y10806D01*
X139358Y10900D01*
X139361Y11005D01*
Y11011D01*
Y11022D01*
Y11044D01*
X139358Y11072D01*
Y11105D01*
X139356Y11144D01*
X139350Y11186D01*
X139344Y11233D01*
X139328Y11332D01*
X139306Y11435D01*
X139272Y11532D01*
X139250Y11579D01*
X139228Y11620D01*
X139225Y11623D01*
X139223Y11629D01*
X139214Y11640D01*
X139203Y11656D01*
X139192Y11673D01*
X139175Y11692D01*
X139139Y11737D01*
X139092Y11787D01*
X139037Y11834D01*
X138976Y11878D01*
X138943Y11895D01*
X138907Y11911D01*
X138904D01*
X138901Y11914D01*
X138893Y11917D01*
X138882Y11919D01*
X138865Y11922D01*
X138849Y11928D01*
X138826Y11933D01*
X138802Y11939D01*
X138774Y11942D01*
X138741Y11947D01*
X138705Y11953D01*
X138666Y11955D01*
X138621Y11958D01*
X138574Y11961D01*
X138524Y11964D01*
D02*
G37*
G36*
X128943D02*
X128209D01*
Y11050D01*
X128899D01*
X128921Y11052D01*
X128949D01*
X128979Y11055D01*
X129015Y11061D01*
X129051Y11066D01*
X129129Y11080D01*
X129206Y11102D01*
X129242Y11116D01*
X129276Y11133D01*
X129309Y11150D01*
X129336Y11172D01*
X129339Y11174D01*
X129342Y11177D01*
X129350Y11186D01*
X129359Y11194D01*
X129381Y11221D01*
X129406Y11260D01*
X129431Y11310D01*
X129453Y11368D01*
X129469Y11438D01*
X129472Y11474D01*
X129475Y11515D01*
Y11518D01*
Y11523D01*
Y11532D01*
Y11543D01*
X129469Y11573D01*
X129464Y11609D01*
X129455Y11654D01*
X129439Y11698D01*
X129420Y11745D01*
X129392Y11789D01*
X129389Y11795D01*
X129378Y11809D01*
X129359Y11828D01*
X129336Y11850D01*
X129303Y11875D01*
X129267Y11900D01*
X129226Y11922D01*
X129179Y11939D01*
X129176D01*
X129162Y11942D01*
X129140Y11947D01*
X129106Y11953D01*
X129087D01*
X129065Y11955D01*
X129037Y11958D01*
X129009Y11961D01*
X128976D01*
X128943Y11964D01*
D02*
G37*
G36*
X168662Y63862D02*
X167898D01*
X167878Y63859D01*
X167856D01*
X167803Y63856D01*
X167745Y63850D01*
X167684Y63842D01*
X167626Y63831D01*
X167573Y63815D01*
X167571D01*
X167568Y63812D01*
X167551Y63806D01*
X167529Y63795D01*
X167499Y63779D01*
X167468Y63756D01*
X167435Y63731D01*
X167402Y63698D01*
X167374Y63662D01*
X167371Y63657D01*
X167363Y63643D01*
X167352Y63623D01*
X167338Y63593D01*
X167327Y63560D01*
X167316Y63521D01*
X167307Y63477D01*
X167305Y63432D01*
Y63429D01*
Y63424D01*
Y63416D01*
X167307Y63402D01*
Y63388D01*
X167310Y63368D01*
X167321Y63327D01*
X167338Y63280D01*
X167360Y63230D01*
X167393Y63183D01*
X167416Y63158D01*
X167438Y63136D01*
X167440Y63133D01*
X167443Y63130D01*
X167452Y63125D01*
X167463Y63117D01*
X167476Y63108D01*
X167496Y63097D01*
X167515Y63086D01*
X167540Y63075D01*
X167568Y63064D01*
X167598Y63055D01*
X167632Y63044D01*
X167668Y63036D01*
X167709Y63028D01*
X167754Y63022D01*
X167801Y63017D01*
X168662D01*
Y63862D01*
D02*
G37*
G36*
X160925D02*
X160161D01*
X160142Y63859D01*
X160119D01*
X160067Y63856D01*
X160009Y63850D01*
X159948Y63842D01*
X159889Y63831D01*
X159837Y63815D01*
X159834D01*
X159831Y63812D01*
X159815Y63806D01*
X159792Y63795D01*
X159762Y63779D01*
X159732Y63756D01*
X159698Y63731D01*
X159665Y63698D01*
X159637Y63662D01*
X159635Y63657D01*
X159626Y63643D01*
X159615Y63623D01*
X159601Y63593D01*
X159590Y63560D01*
X159579Y63521D01*
X159571Y63477D01*
X159568Y63432D01*
Y63429D01*
Y63424D01*
Y63416D01*
X159571Y63402D01*
Y63388D01*
X159574Y63368D01*
X159585Y63327D01*
X159601Y63280D01*
X159624Y63230D01*
X159657Y63183D01*
X159679Y63158D01*
X159701Y63136D01*
X159704Y63133D01*
X159707Y63130D01*
X159715Y63125D01*
X159726Y63117D01*
X159740Y63108D01*
X159759Y63097D01*
X159779Y63086D01*
X159804Y63075D01*
X159831Y63064D01*
X159862Y63055D01*
X159895Y63044D01*
X159931Y63036D01*
X159973Y63028D01*
X160017Y63022D01*
X160064Y63017D01*
X160925D01*
Y63862D01*
D02*
G37*
G36*
X35485Y35475D02*
X35482D01*
X35476D01*
X35468D01*
X35457D01*
X35427Y35469D01*
X35391Y35464D01*
X35346Y35456D01*
X35302Y35439D01*
X35255Y35419D01*
X35211Y35392D01*
X35205Y35389D01*
X35191Y35378D01*
X35172Y35359D01*
X35150Y35337D01*
X35125Y35303D01*
X35100Y35267D01*
X35078Y35226D01*
X35061Y35179D01*
Y35176D01*
X35058Y35162D01*
X35053Y35140D01*
X35047Y35107D01*
Y35087D01*
X35044Y35065D01*
X35042Y35037D01*
X35039Y35010D01*
Y34976D01*
X35036Y34943D01*
Y34209D01*
X35950D01*
Y34899D01*
X35947Y34921D01*
Y34949D01*
X35945Y34979D01*
X35939Y35015D01*
X35934Y35051D01*
X35920Y35129D01*
X35898Y35206D01*
X35884Y35242D01*
X35867Y35276D01*
X35851Y35309D01*
X35828Y35337D01*
X35825Y35339D01*
X35823Y35342D01*
X35814Y35350D01*
X35806Y35359D01*
X35778Y35381D01*
X35740Y35406D01*
X35690Y35431D01*
X35632Y35453D01*
X35562Y35469D01*
X35526Y35472D01*
X35485Y35475D01*
D02*
G37*
G36*
X123099Y37485D02*
X122226D01*
X122495Y36776D01*
Y36773D01*
X122500Y36762D01*
X122506Y36745D01*
X122514Y36720D01*
X122525Y36696D01*
X122536Y36662D01*
X122550Y36626D01*
X122564Y36587D01*
X122592Y36502D01*
X122622Y36413D01*
X122653Y36324D01*
X122678Y36241D01*
Y36244D01*
X122680Y36252D01*
X122683Y36266D01*
X122686Y36283D01*
X122691Y36308D01*
X122697Y36333D01*
X122705Y36363D01*
X122714Y36396D01*
X122722Y36432D01*
X122733Y36471D01*
X122758Y36554D01*
X122786Y36643D01*
X122816Y36734D01*
X123099Y37485D01*
D02*
G37*
G36*
X127780Y38230D02*
X127193D01*
X127171Y38227D01*
X127146D01*
X127090Y38225D01*
X127026Y38219D01*
X126960Y38211D01*
X126896Y38200D01*
X126838Y38186D01*
X126835D01*
X126833Y38183D01*
X126824Y38180D01*
X126813Y38177D01*
X126788Y38166D01*
X126755Y38153D01*
X126719Y38133D01*
X126680Y38111D01*
X126641Y38083D01*
X126608Y38053D01*
X126605Y38050D01*
X126603Y38047D01*
X126589Y38031D01*
X126567Y38003D01*
X126539Y37967D01*
X126511Y37920D01*
X126481Y37864D01*
X126450Y37801D01*
X126423Y37729D01*
Y37726D01*
X126420Y37720D01*
X126417Y37709D01*
X126411Y37693D01*
X126406Y37673D01*
X126400Y37648D01*
X126395Y37621D01*
X126387Y37590D01*
X126381Y37557D01*
X126375Y37518D01*
X126370Y37479D01*
X126364Y37435D01*
X126356Y37341D01*
X126353Y37236D01*
Y37230D01*
Y37219D01*
Y37197D01*
X126356Y37169D01*
Y37136D01*
X126359Y37097D01*
X126364Y37056D01*
X126370Y37009D01*
X126387Y36909D01*
X126409Y36806D01*
X126442Y36709D01*
X126464Y36662D01*
X126486Y36621D01*
X126489Y36618D01*
X126492Y36612D01*
X126500Y36601D01*
X126511Y36585D01*
X126522Y36568D01*
X126539Y36549D01*
X126575Y36504D01*
X126622Y36454D01*
X126677Y36407D01*
X126738Y36363D01*
X126772Y36346D01*
X126808Y36330D01*
X126810D01*
X126813Y36327D01*
X126821Y36324D01*
X126833Y36321D01*
X126849Y36319D01*
X126866Y36313D01*
X126888Y36308D01*
X126913Y36302D01*
X126941Y36299D01*
X126974Y36294D01*
X127010Y36288D01*
X127049Y36285D01*
X127093Y36283D01*
X127140Y36280D01*
X127190Y36277D01*
X127780D01*
Y38230D01*
D02*
G37*
G36*
X63660Y35816D02*
X62799D01*
Y34971D01*
X63564D01*
X63583Y34974D01*
X63605D01*
X63658Y34976D01*
X63716Y34982D01*
X63777Y34990D01*
X63835Y35001D01*
X63888Y35018D01*
X63890D01*
X63893Y35021D01*
X63910Y35026D01*
X63932Y35037D01*
X63962Y35054D01*
X63993Y35076D01*
X64026Y35101D01*
X64059Y35134D01*
X64087Y35170D01*
X64090Y35176D01*
X64098Y35190D01*
X64109Y35209D01*
X64123Y35239D01*
X64134Y35273D01*
X64145Y35311D01*
X64153Y35356D01*
X64156Y35400D01*
Y35403D01*
Y35408D01*
Y35417D01*
X64153Y35431D01*
Y35445D01*
X64151Y35464D01*
X64140Y35505D01*
X64123Y35552D01*
X64101Y35602D01*
X64068Y35649D01*
X64046Y35674D01*
X64023Y35697D01*
X64021Y35699D01*
X64018Y35702D01*
X64009Y35708D01*
X63998Y35716D01*
X63985Y35724D01*
X63965Y35735D01*
X63946Y35746D01*
X63921Y35757D01*
X63893Y35769D01*
X63863Y35777D01*
X63829Y35788D01*
X63793Y35796D01*
X63752Y35805D01*
X63708Y35810D01*
X63660Y35816D01*
D02*
G37*
G36*
X60949Y35832D02*
Y35829D01*
X60946Y35821D01*
X60943Y35807D01*
X60940Y35791D01*
X60935Y35766D01*
X60929Y35741D01*
X60921Y35710D01*
X60913Y35677D01*
X60904Y35641D01*
X60893Y35602D01*
X60868Y35519D01*
X60841Y35431D01*
X60810Y35339D01*
X60528Y34589D01*
X61400D01*
X61131Y35298D01*
Y35300D01*
X61126Y35311D01*
X61120Y35328D01*
X61112Y35353D01*
X61101Y35378D01*
X61090Y35411D01*
X61076Y35447D01*
X61062Y35486D01*
X61035Y35572D01*
X61004Y35661D01*
X60974Y35749D01*
X60949Y35832D01*
D02*
G37*
G36*
X17403Y136362D02*
X16639D01*
X16619Y136359D01*
X16597D01*
X16545Y136356D01*
X16486Y136351D01*
X16425Y136342D01*
X16367Y136331D01*
X16315Y136314D01*
X16312D01*
X16309Y136312D01*
X16293Y136306D01*
X16270Y136295D01*
X16240Y136278D01*
X16209Y136256D01*
X16176Y136231D01*
X16143Y136198D01*
X16115Y136162D01*
X16112Y136157D01*
X16104Y136143D01*
X16093Y136123D01*
X16079Y136093D01*
X16068Y136060D01*
X16057Y136021D01*
X16049Y135977D01*
X16046Y135932D01*
Y135930D01*
Y135924D01*
Y135916D01*
X16049Y135902D01*
Y135888D01*
X16051Y135869D01*
X16063Y135827D01*
X16079Y135780D01*
X16101Y135730D01*
X16135Y135683D01*
X16157Y135658D01*
X16179Y135636D01*
X16182Y135633D01*
X16184Y135630D01*
X16193Y135625D01*
X16204Y135617D01*
X16218Y135608D01*
X16237Y135597D01*
X16256Y135586D01*
X16281Y135575D01*
X16309Y135564D01*
X16340Y135556D01*
X16373Y135544D01*
X16409Y135536D01*
X16450Y135528D01*
X16495Y135522D01*
X16542Y135517D01*
X17403D01*
Y136362D01*
D02*
G37*
G36*
X23162Y136450D02*
X22472D01*
X22450Y136448D01*
X22422D01*
X22392Y136445D01*
X22356Y136439D01*
X22320Y136434D01*
X22242Y136420D01*
X22165Y136398D01*
X22129Y136384D01*
X22096Y136367D01*
X22062Y136351D01*
X22035Y136328D01*
X22032Y136326D01*
X22029Y136323D01*
X22021Y136314D01*
X22013Y136306D01*
X21990Y136278D01*
X21966Y136240D01*
X21940Y136190D01*
X21918Y136132D01*
X21902Y136062D01*
X21899Y136026D01*
X21896Y135985D01*
Y135982D01*
Y135977D01*
Y135968D01*
Y135957D01*
X21902Y135927D01*
X21907Y135891D01*
X21916Y135846D01*
X21932Y135802D01*
X21952Y135755D01*
X21979Y135711D01*
X21982Y135705D01*
X21993Y135691D01*
X22013Y135672D01*
X22035Y135650D01*
X22068Y135625D01*
X22104Y135600D01*
X22145Y135578D01*
X22193Y135561D01*
X22195D01*
X22209Y135558D01*
X22231Y135553D01*
X22265Y135547D01*
X22284D01*
X22306Y135544D01*
X22334Y135542D01*
X22362Y135539D01*
X22395D01*
X22428Y135536D01*
X23162D01*
Y136450D01*
D02*
G37*
G36*
X44058Y153489D02*
X43470D01*
X43448Y153486D01*
X43423D01*
X43368Y153483D01*
X43304Y153478D01*
X43238Y153470D01*
X43174Y153458D01*
X43116Y153445D01*
X43113D01*
X43110Y153442D01*
X43102Y153439D01*
X43091Y153436D01*
X43066Y153425D01*
X43033Y153411D01*
X42997Y153392D01*
X42958Y153370D01*
X42919Y153342D01*
X42886Y153312D01*
X42883Y153309D01*
X42880Y153306D01*
X42866Y153289D01*
X42844Y153262D01*
X42816Y153226D01*
X42789Y153179D01*
X42758Y153123D01*
X42728Y153060D01*
X42700Y152988D01*
Y152985D01*
X42697Y152979D01*
X42695Y152968D01*
X42689Y152952D01*
X42684Y152932D01*
X42678Y152907D01*
X42673Y152880D01*
X42664Y152849D01*
X42659Y152816D01*
X42653Y152777D01*
X42648Y152738D01*
X42642Y152694D01*
X42634Y152600D01*
X42631Y152495D01*
Y152489D01*
Y152478D01*
Y152456D01*
X42634Y152428D01*
Y152395D01*
X42636Y152356D01*
X42642Y152314D01*
X42648Y152267D01*
X42664Y152168D01*
X42686Y152065D01*
X42720Y151968D01*
X42742Y151921D01*
X42764Y151880D01*
X42767Y151877D01*
X42770Y151871D01*
X42778Y151860D01*
X42789Y151844D01*
X42800Y151827D01*
X42816Y151808D01*
X42853Y151763D01*
X42900Y151713D01*
X42955Y151666D01*
X43016Y151622D01*
X43049Y151605D01*
X43085Y151589D01*
X43088D01*
X43091Y151586D01*
X43099Y151583D01*
X43110Y151580D01*
X43127Y151578D01*
X43143Y151572D01*
X43166Y151567D01*
X43191Y151561D01*
X43218Y151558D01*
X43251Y151553D01*
X43287Y151547D01*
X43326Y151544D01*
X43371Y151542D01*
X43418Y151539D01*
X43468Y151536D01*
X44058D01*
Y153489D01*
D02*
G37*
G36*
X38714Y153544D02*
X38698D01*
X38678Y153542D01*
X38651Y153539D01*
X38617Y153536D01*
X38581Y153531D01*
X38537Y153522D01*
X38493Y153511D01*
X38443Y153497D01*
X38393Y153481D01*
X38340Y153458D01*
X38288Y153431D01*
X38235Y153400D01*
X38182Y153367D01*
X38133Y153325D01*
X38085Y153278D01*
X38083Y153276D01*
X38074Y153265D01*
X38063Y153251D01*
X38047Y153229D01*
X38027Y153201D01*
X38005Y153168D01*
X37983Y153129D01*
X37961Y153082D01*
X37939Y153032D01*
X37914Y152974D01*
X37894Y152913D01*
X37875Y152843D01*
X37858Y152769D01*
X37847Y152691D01*
X37839Y152605D01*
X37836Y152517D01*
Y152514D01*
Y152503D01*
Y152486D01*
X37839Y152464D01*
Y152436D01*
X37842Y152406D01*
X37844Y152370D01*
X37850Y152331D01*
X37861Y152245D01*
X37880Y152154D01*
X37908Y152062D01*
X37944Y151971D01*
Y151968D01*
X37950Y151960D01*
X37955Y151949D01*
X37964Y151932D01*
X37975Y151913D01*
X37988Y151891D01*
X38022Y151838D01*
X38066Y151780D01*
X38119Y151722D01*
X38180Y151663D01*
X38252Y151611D01*
X38254Y151608D01*
X38260Y151605D01*
X38271Y151600D01*
X38288Y151592D01*
X38307Y151580D01*
X38329Y151569D01*
X38354Y151558D01*
X38385Y151544D01*
X38418Y151533D01*
X38451Y151522D01*
X38529Y151500D01*
X38614Y151486D01*
X38662Y151481D01*
X38725D01*
X38742Y151484D01*
X38770D01*
X38800Y151489D01*
X38836Y151495D01*
X38875Y151503D01*
X38919Y151511D01*
X38966Y151525D01*
X39016Y151542D01*
X39069Y151561D01*
X39119Y151586D01*
X39171Y151614D01*
X39224Y151647D01*
X39276Y151686D01*
X39326Y151730D01*
X39329Y151733D01*
X39337Y151741D01*
X39351Y151758D01*
X39365Y151777D01*
X39387Y151805D01*
X39407Y151838D01*
X39432Y151880D01*
X39454Y151924D01*
X39479Y151979D01*
X39504Y152040D01*
X39523Y152107D01*
X39542Y152181D01*
X39559Y152262D01*
X39573Y152350D01*
X39581Y152447D01*
X39584Y152553D01*
Y152558D01*
Y152572D01*
X39581Y152597D01*
Y152630D01*
X39576Y152669D01*
X39570Y152713D01*
X39565Y152763D01*
X39553Y152816D01*
X39540Y152874D01*
X39523Y152935D01*
X39504Y152993D01*
X39479Y153054D01*
X39451Y153115D01*
X39418Y153173D01*
X39382Y153229D01*
X39337Y153281D01*
X39335Y153284D01*
X39326Y153292D01*
X39312Y153306D01*
X39293Y153323D01*
X39268Y153342D01*
X39238Y153364D01*
X39204Y153389D01*
X39166Y153411D01*
X39124Y153436D01*
X39074Y153461D01*
X39024Y153483D01*
X38969Y153503D01*
X38911Y153519D01*
X38847Y153533D01*
X38783Y153542D01*
X38714Y153544D01*
D02*
G37*
G36*
X33419Y55485D02*
X32546D01*
X32815Y54776D01*
Y54773D01*
X32820Y54762D01*
X32826Y54745D01*
X32834Y54720D01*
X32845Y54695D01*
X32856Y54662D01*
X32870Y54626D01*
X32884Y54587D01*
X32912Y54502D01*
X32942Y54413D01*
X32973Y54324D01*
X32998Y54241D01*
Y54244D01*
X33000Y54252D01*
X33003Y54266D01*
X33006Y54283D01*
X33011Y54308D01*
X33017Y54333D01*
X33025Y54363D01*
X33034Y54396D01*
X33042Y54432D01*
X33053Y54471D01*
X33078Y54554D01*
X33106Y54643D01*
X33136Y54734D01*
X33419Y55485D01*
D02*
G37*
G36*
X40280Y56230D02*
X39693D01*
X39671Y56227D01*
X39646D01*
X39590Y56225D01*
X39527Y56219D01*
X39460Y56211D01*
X39396Y56200D01*
X39338Y56186D01*
X39335D01*
X39333Y56183D01*
X39324Y56180D01*
X39313Y56177D01*
X39288Y56166D01*
X39255Y56152D01*
X39219Y56133D01*
X39180Y56111D01*
X39141Y56083D01*
X39108Y56053D01*
X39105Y56050D01*
X39103Y56047D01*
X39089Y56031D01*
X39067Y56003D01*
X39039Y55967D01*
X39011Y55920D01*
X38981Y55864D01*
X38950Y55801D01*
X38923Y55729D01*
Y55726D01*
X38920Y55720D01*
X38917Y55709D01*
X38912Y55693D01*
X38906Y55673D01*
X38900Y55648D01*
X38895Y55621D01*
X38887Y55590D01*
X38881Y55557D01*
X38875Y55518D01*
X38870Y55479D01*
X38864Y55435D01*
X38856Y55341D01*
X38853Y55236D01*
Y55230D01*
Y55219D01*
Y55197D01*
X38856Y55169D01*
Y55136D01*
X38859Y55097D01*
X38864Y55056D01*
X38870Y55009D01*
X38887Y54909D01*
X38909Y54806D01*
X38942Y54709D01*
X38964Y54662D01*
X38986Y54621D01*
X38989Y54618D01*
X38992Y54612D01*
X39000Y54601D01*
X39011Y54585D01*
X39022Y54568D01*
X39039Y54549D01*
X39075Y54504D01*
X39122Y54454D01*
X39177Y54407D01*
X39238Y54363D01*
X39272Y54347D01*
X39308Y54330D01*
X39310D01*
X39313Y54327D01*
X39322Y54324D01*
X39333Y54321D01*
X39349Y54319D01*
X39366Y54313D01*
X39388Y54308D01*
X39413Y54302D01*
X39441Y54299D01*
X39474Y54294D01*
X39510Y54288D01*
X39549Y54286D01*
X39593Y54283D01*
X39640Y54280D01*
X39690Y54277D01*
X40280D01*
Y56230D01*
D02*
G37*
%LPD*%
D14*
X57295Y167334D02*
X70705D01*
X57295D02*
Y174666D01*
X70705D01*
Y167334D02*
Y174666D01*
X126295Y19834D02*
X139705D01*
X126295D02*
Y27166D01*
X139705D01*
Y19834D02*
Y27166D01*
X125610Y35449D02*
X139390D01*
X125610D02*
Y41551D01*
X139390D01*
Y35449D02*
Y41551D01*
X126555Y82917D02*
Y110083D01*
Y82917D02*
X158445D01*
Y110083D01*
X126555D02*
X158445D01*
X39094Y53350D02*
X50906D01*
X39094D02*
Y59650D01*
X50906D01*
Y53350D02*
Y59650D01*
X40701Y74449D02*
X53299D01*
X40701D02*
Y80551D01*
X53299D01*
Y74449D02*
Y80551D01*
X12122Y132909D02*
X34878D01*
X12122D02*
Y144091D01*
X34878D01*
Y132909D02*
Y144091D01*
X175705Y62334D02*
Y69666D01*
X162295D02*
X175705D01*
X162295Y62334D02*
Y69666D01*
Y62334D02*
X175705D01*
D15*
X29110Y152154D02*
X42890D01*
X29110D02*
Y158846D01*
X42890D01*
Y152154D02*
Y158846D01*
X46122Y39091D02*
X68878D01*
Y27909D02*
Y39091D01*
X46122Y27909D02*
X68878D01*
X46122D02*
Y39091D01*
M02*
