G04*
G04 #@! TF.GenerationSoftware,Altium Limited,Altium Designer,23.1.1 (15)*
G04*
G04 Layer_Color=32896*
%FSLAX25Y25*%
%MOIN*%
G70*
G04*
G04 #@! TF.SameCoordinates,4416291F-A030-49B4-A21B-4109523D90D4*
G04*
G04*
G04 #@! TF.FilePolarity,Positive*
G04*
G01*
G75*
%ADD76C,0.00197*%
D76*
X46973Y138204D02*
X44349D01*
Y140172D01*
X45661D01*
X44349D01*
Y142140D01*
X48285Y138204D02*
Y142140D01*
X50252D01*
X50908Y141484D01*
Y140828D01*
X50252Y140172D01*
X48285D01*
X50252D01*
X50908Y139516D01*
Y138860D01*
X50252Y138204D01*
X48285D01*
X52220Y142796D02*
X54844D01*
X56156Y142140D02*
Y138204D01*
X58124D01*
X58780Y138860D01*
Y140172D01*
X58124Y140828D01*
X56156D01*
X60092Y138204D02*
Y142140D01*
X61404Y140828D01*
X62716Y142140D01*
Y138204D01*
X64027Y142140D02*
Y138204D01*
X65995D01*
X66651Y138860D01*
Y140172D01*
X65995Y140828D01*
X64027D01*
X65339D02*
X66651Y142140D01*
X161214Y39296D02*
X163838D01*
Y37328D01*
X162526D01*
X163838D01*
Y35360D01*
X159902Y39296D02*
Y35360D01*
X157934D01*
X157278Y36016D01*
Y36672D01*
X157934Y37328D01*
X159902D01*
X157934D01*
X157278Y37984D01*
Y38640D01*
X157934Y39296D01*
X159902D01*
X155966Y34704D02*
X153342D01*
X152031Y39296D02*
Y36672D01*
X150719Y35360D01*
X149407Y36672D01*
Y39296D01*
X148095D02*
Y35360D01*
X146127D01*
X145471Y36016D01*
Y38640D01*
X146127Y39296D01*
X148095D01*
X144159D02*
Y35360D01*
X142191D01*
X141535Y36016D01*
Y38640D01*
X142191Y39296D01*
X144159D01*
X140223Y35360D02*
Y37984D01*
X138911Y39296D01*
X137600Y37984D01*
Y35360D01*
Y37328D01*
X140223D01*
M02*
