M48
;Layer_Color=9474304
;FILE_FORMAT=2:5
INCH,TZ
;TYPE=PLATED
T1F00S00C0.01000
T2F00S00C0.03150
T3F00S00C0.03543
T5F00S00C0.04016
T6F00S00C0.05118
T7F00S00C0.08661
%
T01
X23000Y45000
X56900Y41200
X62000Y43500
X73000Y32500
X92129Y46706
X102500Y27500
X110500Y24500
X114000Y21500
X115280Y27781
X120900Y58700
X120800Y68600
X120775Y76500
X116077Y73423
X119985Y86015
X132300Y90400
X148500Y82752
X95050Y82750
X94250Y103189
X95600Y113400
Y125100
X104800Y147700
X66654Y148789
X51500Y154000
X69000Y108000
X60015Y79015
X132000Y126000
X171500Y77500
X93200Y157400
T02
X41000Y94000
X60685
T03
X60500Y18500
X70500
X80500
X90500
T05
X34500Y34500
X49500Y31000
X59500
X21000Y57000
Y67000
Y77000
Y87000
Y97000
X125500Y9000
T06
X151500Y135500
Y145500
Y155500
X175500Y100000
Y90000
T07
X92500Y143500
X118500
Y175000
X92500
M30
