G04*
G04 #@! TF.GenerationSoftware,Altium Limited,Altium Designer,23.1.1 (15)*
G04*
G04 Layer_Color=8388736*
%FSLAX25Y25*%
%MOIN*%
G70*
G04*
G04 #@! TF.SameCoordinates,4416291F-A030-49B4-A21B-4109523D90D4*
G04*
G04*
G04 #@! TF.FilePolarity,Negative*
G04*
G01*
G75*
%ADD16R,0.04546X0.05363*%
%ADD17R,0.11811X0.13780*%
%ADD19R,0.04724X0.04724*%
%ADD20R,0.05906X0.12992*%
%ADD21R,0.05906X0.04724*%
%ADD22R,0.03543X0.04331*%
%ADD23R,0.03543X0.04724*%
%ADD24R,0.03367X0.04969*%
%ADD29R,0.03359X0.06804*%
%ADD30R,0.04800X0.06115*%
%ADD31R,0.05131X0.06115*%
%ADD32R,0.05131X0.03359*%
%ADD33R,0.04147X0.05918*%
%ADD34R,0.06824X0.06824*%
%ADD35C,0.06824*%
%ADD36R,0.08477X0.08477*%
%ADD37C,0.08477*%
%ADD38C,0.06181*%
%ADD39C,0.12611*%
%ADD40R,0.06784X0.06784*%
%ADD41C,0.06784*%
%ADD42R,0.05118X0.05118*%
%ADD43C,0.05118*%
%ADD44R,0.06181X0.06181*%
%ADD45C,0.03800*%
D16*
X67448Y171000D02*
D03*
X60552D02*
D03*
X136448Y23500D02*
D03*
X129552D02*
D03*
X154052Y63500D02*
D03*
X160948D02*
D03*
D17*
X86346Y167500D02*
D03*
X106032D02*
D03*
D19*
X136634Y38500D02*
D03*
X128366D02*
D03*
X40134Y155500D02*
D03*
X31866D02*
D03*
D20*
X155098Y96500D02*
D03*
D21*
X129902Y87445D02*
D03*
Y96500D02*
D03*
Y105555D02*
D03*
D22*
X48740Y56500D02*
D03*
X41260D02*
D03*
D23*
X51134Y77500D02*
D03*
X42866D02*
D03*
D24*
X67250Y153000D02*
D03*
X60750D02*
D03*
D29*
X52500Y96823D02*
D03*
X57500D02*
D03*
X62500D02*
D03*
X67500D02*
D03*
Y118177D02*
D03*
X62500D02*
D03*
X57500D02*
D03*
X52500D02*
D03*
X106500Y109177D02*
D03*
X101500D02*
D03*
X96500D02*
D03*
X91500D02*
D03*
Y87823D02*
D03*
X96500D02*
D03*
X101500D02*
D03*
X106500D02*
D03*
D30*
X128744Y55500D02*
D03*
X134756Y70000D02*
D03*
X129244D02*
D03*
D31*
X134256Y55500D02*
D03*
D32*
X149366Y32280D02*
D03*
Y24720D02*
D03*
X157634Y28500D02*
D03*
D33*
X159346Y47500D02*
D03*
X152654D02*
D03*
X66846Y137000D02*
D03*
X60154D02*
D03*
D34*
X79236Y19134D02*
D03*
D35*
X94000Y65000D02*
D03*
X108764Y19134D02*
D03*
D36*
X175500Y90000D02*
D03*
X22500Y114500D02*
D03*
D37*
X175500Y100000D02*
D03*
X22500Y124500D02*
D03*
D38*
X100500Y6500D02*
D03*
X34500Y34500D02*
D03*
X18500Y138500D02*
D03*
X177500Y67000D02*
D03*
X58000Y27000D02*
D03*
D39*
X125000Y137000D02*
D03*
Y168500D02*
D03*
D40*
X21500Y57000D02*
D03*
D41*
Y67000D02*
D03*
Y77000D02*
D03*
Y87000D02*
D03*
Y97000D02*
D03*
D42*
X160000Y132157D02*
D03*
D43*
Y151843D02*
D03*
D44*
X28500Y138500D02*
D03*
X48000Y27000D02*
D03*
D45*
X137399Y77800D02*
D03*
X64500Y36500D02*
D03*
X68500Y40800D02*
D03*
X97000Y35500D02*
D03*
X110500Y66000D02*
D03*
X118000Y83510D02*
D03*
X125250Y13050D02*
D03*
X119000Y12000D02*
D03*
X97500Y42000D02*
D03*
X44000Y90500D02*
D03*
X38000Y91000D02*
D03*
X41000Y110000D02*
D03*
X62330Y107670D02*
D03*
X88690Y23009D02*
D03*
X81019Y64019D02*
D03*
X84650Y67179D02*
D03*
X154000Y113000D02*
D03*
X144500Y108000D02*
D03*
X135039Y114039D02*
D03*
X139360Y91500D02*
D03*
X156700Y82900D02*
D03*
X98900Y97400D02*
D03*
X103700Y74256D02*
D03*
Y63200D02*
D03*
X69800Y12900D02*
D03*
X71500Y107700D02*
D03*
X59200Y70700D02*
D03*
X77300Y114000D02*
D03*
X82400Y84300D02*
D03*
X117700Y153400D02*
D03*
Y114000D02*
D03*
X45216Y167050D02*
D03*
X31866Y162300D02*
D03*
X48100D02*
D03*
X77500Y154100D02*
D03*
X140600Y173500D02*
D03*
M02*
