G04*
G04 #@! TF.GenerationSoftware,Altium Limited,Altium Designer,23.1.1 (15)*
G04*
G04 Layer_Color=16711935*
%FSLAX25Y25*%
%MOIN*%
G70*
G04*
G04 #@! TF.SameCoordinates,B1DE690B-BA36-4FB7-BAA6-9E49350ABFFB*
G04*
G04*
G04 #@! TF.FilePolarity,Negative*
G04*
G01*
G75*
%ADD26R,0.06804X0.03359*%
%ADD27R,0.04800X0.06115*%
%ADD29R,0.06706X0.09068*%
%ADD30R,0.09068X0.06706*%
%ADD31R,0.08477X0.08477*%
%ADD32C,0.08477*%
%ADD33C,0.05118*%
%ADD34R,0.05118X0.05118*%
%ADD35C,0.12611*%
%ADD36C,0.06706*%
%ADD37R,0.06706X0.06706*%
%ADD38C,0.06181*%
%ADD39R,0.06784X0.06784*%
%ADD40C,0.06784*%
%ADD41R,0.06181X0.06181*%
%ADD42C,0.03800*%
%ADD53R,0.13780X0.11811*%
%ADD56R,0.04152X0.05339*%
%ADD57R,0.03740X0.05512*%
%ADD59R,0.06312X0.04737*%
%ADD60O,0.09068X0.01800*%
%ADD61R,0.05328X0.06115*%
D26*
X85323Y97500D02*
D03*
Y92500D02*
D03*
Y87500D02*
D03*
Y82500D02*
D03*
X106677D02*
D03*
Y87500D02*
D03*
Y92500D02*
D03*
Y97500D02*
D03*
X83823Y125000D02*
D03*
Y120000D02*
D03*
Y115000D02*
D03*
Y110000D02*
D03*
X105177D02*
D03*
Y115000D02*
D03*
Y120000D02*
D03*
Y125000D02*
D03*
D27*
X144146Y54500D02*
D03*
D29*
X72811Y139000D02*
D03*
X49189D02*
D03*
D30*
X61000Y120496D02*
D03*
D31*
X151500Y135500D02*
D03*
X175500Y90000D02*
D03*
D32*
X151500Y145500D02*
D03*
Y155500D02*
D03*
X175500Y100000D02*
D03*
D33*
X60685Y94000D02*
D03*
D34*
X41000D02*
D03*
D35*
X92500Y143500D02*
D03*
Y175000D02*
D03*
X118500Y143500D02*
D03*
Y175000D02*
D03*
D36*
X60500Y18500D02*
D03*
X70500D02*
D03*
X80500D02*
D03*
D37*
X90500D02*
D03*
D38*
X125500Y9000D02*
D03*
X34500Y34500D02*
D03*
X59500Y31000D02*
D03*
D39*
X21000Y57000D02*
D03*
D40*
Y67000D02*
D03*
Y77000D02*
D03*
Y87000D02*
D03*
Y97000D02*
D03*
D41*
X49500Y31000D02*
D03*
D42*
X62000Y43500D02*
D03*
X120800Y68600D02*
D03*
X120775Y76500D02*
D03*
X119985Y86015D02*
D03*
X116077Y73423D02*
D03*
X23000Y45000D02*
D03*
X73000Y32500D02*
D03*
X115280Y27781D02*
D03*
X110500Y24500D02*
D03*
X102500Y27500D02*
D03*
X114000Y21500D02*
D03*
X92129Y46706D02*
D03*
X148500Y82752D02*
D03*
X171500Y77500D02*
D03*
X95050Y82750D02*
D03*
X94250Y103189D02*
D03*
X132000Y126000D02*
D03*
X66654Y148789D02*
D03*
X51500Y154000D02*
D03*
X69000Y108000D02*
D03*
X60015Y79015D02*
D03*
X93200Y157400D02*
D03*
X95600Y125100D02*
D03*
Y113400D02*
D03*
X104800Y147700D02*
D03*
X120900Y58700D02*
D03*
X56900Y41200D02*
D03*
X132300Y90400D02*
D03*
D53*
X149500Y114843D02*
D03*
Y95157D02*
D03*
D56*
X66857Y158000D02*
D03*
X61143D02*
D03*
D57*
X144358Y71000D02*
D03*
X151642D02*
D03*
D59*
X152618Y37000D02*
D03*
X142382D02*
D03*
D60*
X81583Y40484D02*
D03*
Y43043D02*
D03*
Y45602D02*
D03*
Y48161D02*
D03*
Y50720D02*
D03*
Y53280D02*
D03*
Y55839D02*
D03*
Y58398D02*
D03*
Y60957D02*
D03*
Y63516D02*
D03*
X104417Y40484D02*
D03*
Y43043D02*
D03*
Y45602D02*
D03*
Y48161D02*
D03*
Y50720D02*
D03*
Y53280D02*
D03*
Y55839D02*
D03*
Y58398D02*
D03*
Y60957D02*
D03*
Y63516D02*
D03*
D61*
X149854Y54500D02*
D03*
M02*
