G04*
G04 #@! TF.GenerationSoftware,Altium Limited,Altium Designer,23.1.1 (15)*
G04*
G04 Layer_Color=16711935*
%FSLAX25Y25*%
%MOIN*%
G70*
G04*
G04 #@! TF.SameCoordinates,610C7C08-74D4-44FC-BCD4-38041F97A8CA*
G04*
G04*
G04 #@! TF.FilePolarity,Positive*
G04*
G01*
G75*
%ADD10C,0.00394*%
%ADD14C,0.00787*%
%ADD15C,0.01500*%
%ADD64C,0.00197*%
D10*
X147000Y52532D02*
Y56469D01*
X145032Y54500D02*
X148969D01*
D14*
X162886Y88858D02*
Y121142D01*
X136114D02*
X162886D01*
X136114Y88858D02*
Y121142D01*
Y88858D02*
X162886D01*
X58673Y176748D02*
X69327D01*
X58673Y170252D02*
Y176748D01*
Y170252D02*
X69327D01*
Y176748D01*
X58673Y161248D02*
X69327D01*
X58673Y154752D02*
Y161248D01*
Y154752D02*
X69327D01*
Y161248D01*
X59673Y104752D02*
X70327D01*
Y111248D01*
X59673D02*
X70327D01*
X59673Y104752D02*
Y111248D01*
Y126748D02*
X70327D01*
X59673Y120252D02*
Y126748D01*
Y120252D02*
X70327D01*
Y126748D01*
X154299Y66866D02*
Y75134D01*
X141701Y66866D02*
X154299D01*
X141701D02*
Y75134D01*
X154299D01*
D15*
X156161Y33457D02*
Y40543D01*
X138839Y33457D02*
X156161D01*
X138839D02*
Y40543D01*
X156161D01*
X147500Y35031D02*
Y38968D01*
X145531Y37000D02*
X149469D01*
X88000Y59031D02*
Y62969D01*
X86031Y61000D02*
X89969D01*
X70579Y46039D02*
X105421D01*
X70579Y75961D02*
X105421D01*
X70579Y46039D02*
Y75961D01*
X105421Y46039D02*
Y75961D01*
X36823Y69488D02*
X52177D01*
X36823Y55512D02*
Y69488D01*
Y55512D02*
X52177D01*
Y69488D01*
X37217Y90390D02*
X51783D01*
X37217Y76610D02*
Y90390D01*
Y76610D02*
X51783D01*
Y90390D01*
D64*
X55838Y138457D02*
Y145543D01*
X73161D01*
Y138457D02*
Y145543D01*
X55838Y138457D02*
X73161D01*
X64500Y140032D02*
Y143969D01*
X62531Y142000D02*
X66468D01*
X141488Y51154D02*
X152512D01*
X141488Y57846D02*
X152512D01*
X141488Y51154D02*
Y57846D01*
X152512Y51154D02*
Y57846D01*
M02*
