G04*
G04 #@! TF.GenerationSoftware,Altium Limited,Altium Designer,23.1.1 (15)*
G04*
G04 Layer_Color=32896*
%FSLAX25Y25*%
%MOIN*%
G70*
G04*
G04 #@! TF.SameCoordinates,B1DE690B-BA36-4FB7-BAA6-9E49350ABFFB*
G04*
G04*
G04 #@! TF.FilePolarity,Positive*
G04*
G01*
G75*
%ADD13C,0.00787*%
G36*
X150511Y117581D02*
X150572Y117626D01*
X150600Y117648D01*
X150625Y117670D01*
X150647Y117689D01*
X150663Y117703D01*
X150674Y117714D01*
X150677Y117717D01*
X150694Y117734D01*
X150716Y117756D01*
X150738Y117781D01*
X150763Y117808D01*
X150819Y117867D01*
X150871Y117928D01*
X150921Y117986D01*
X150943Y118011D01*
X150962Y118036D01*
X150979Y118052D01*
X150990Y118069D01*
X150999Y118077D01*
X151001Y118080D01*
X151054Y118141D01*
X151104Y118199D01*
X151148Y118252D01*
X151192Y118299D01*
X151231Y118343D01*
X151270Y118382D01*
X151303Y118418D01*
X151334Y118451D01*
X151359Y118479D01*
X151384Y118501D01*
X151403Y118520D01*
X151420Y118537D01*
X151433Y118548D01*
X151442Y118559D01*
X151447Y118562D01*
X151450Y118565D01*
X151511Y118617D01*
X151566Y118659D01*
X151619Y118695D01*
X151666Y118725D01*
X151705Y118747D01*
X151735Y118764D01*
X151746Y118770D01*
X151755Y118772D01*
X151758Y118775D01*
X151760D01*
X151816Y118797D01*
X151871Y118811D01*
X151921Y118822D01*
X151968Y118831D01*
X152007Y118836D01*
X152037Y118839D01*
X152048D01*
X152057D01*
X152059D01*
X152062D01*
X152118Y118836D01*
X152170Y118831D01*
X152220Y118819D01*
X152270Y118806D01*
X152314Y118789D01*
X152356Y118770D01*
X152395Y118750D01*
X152428Y118731D01*
X152461Y118711D01*
X152489Y118692D01*
X152514Y118673D01*
X152533Y118656D01*
X152547Y118642D01*
X152561Y118631D01*
X152566Y118626D01*
X152569Y118623D01*
X152605Y118581D01*
X152636Y118537D01*
X152663Y118490D01*
X152688Y118440D01*
X152708Y118393D01*
X152724Y118343D01*
X152738Y118296D01*
X152749Y118249D01*
X152758Y118207D01*
X152763Y118166D01*
X152769Y118130D01*
X152771Y118099D01*
X152774Y118074D01*
Y118038D01*
X152771Y117972D01*
X152766Y117908D01*
X152758Y117850D01*
X152744Y117795D01*
X152730Y117742D01*
X152713Y117695D01*
X152697Y117650D01*
X152680Y117612D01*
X152661Y117576D01*
X152644Y117545D01*
X152627Y117518D01*
X152613Y117495D01*
X152600Y117479D01*
X152591Y117468D01*
X152586Y117459D01*
X152583Y117457D01*
X152547Y117418D01*
X152505Y117385D01*
X152464Y117354D01*
X152417Y117326D01*
X152373Y117304D01*
X152328Y117282D01*
X152281Y117265D01*
X152240Y117252D01*
X152198Y117238D01*
X152159Y117229D01*
X152123Y117221D01*
X152093Y117216D01*
X152068Y117213D01*
X152051Y117210D01*
X152040Y117207D01*
X152034D01*
X152001Y117529D01*
X152046Y117531D01*
X152087Y117534D01*
X152159Y117551D01*
X152226Y117573D01*
X152253Y117584D01*
X152278Y117598D01*
X152301Y117609D01*
X152320Y117623D01*
X152337Y117634D01*
X152350Y117642D01*
X152361Y117653D01*
X152370Y117659D01*
X152373Y117662D01*
X152375Y117664D01*
X152400Y117692D01*
X152422Y117720D01*
X152439Y117750D01*
X152456Y117781D01*
X152480Y117842D01*
X152497Y117900D01*
X152505Y117950D01*
X152511Y117972D01*
Y117991D01*
X152514Y118008D01*
Y118069D01*
X152508Y118108D01*
X152494Y118177D01*
X152472Y118235D01*
X152450Y118288D01*
X152425Y118326D01*
X152414Y118343D01*
X152403Y118357D01*
X152395Y118368D01*
X152389Y118376D01*
X152386Y118379D01*
X152383Y118382D01*
X152359Y118407D01*
X152334Y118426D01*
X152309Y118446D01*
X152281Y118459D01*
X152228Y118484D01*
X152179Y118501D01*
X152137Y118509D01*
X152118Y118515D01*
X152101D01*
X152090Y118518D01*
X152079D01*
X152073D01*
X152070D01*
X152037Y118515D01*
X152004Y118512D01*
X151938Y118495D01*
X151874Y118471D01*
X151816Y118443D01*
X151766Y118415D01*
X151746Y118404D01*
X151727Y118390D01*
X151713Y118382D01*
X151702Y118374D01*
X151697Y118371D01*
X151694Y118368D01*
X151655Y118338D01*
X151613Y118301D01*
X151569Y118260D01*
X151525Y118216D01*
X151433Y118124D01*
X151348Y118030D01*
X151306Y117986D01*
X151270Y117941D01*
X151237Y117903D01*
X151209Y117869D01*
X151184Y117842D01*
X151168Y117822D01*
X151154Y117808D01*
X151151Y117803D01*
X151109Y117753D01*
X151071Y117709D01*
X151035Y117664D01*
X150999Y117626D01*
X150965Y117587D01*
X150932Y117554D01*
X150904Y117523D01*
X150877Y117495D01*
X150852Y117471D01*
X150830Y117451D01*
X150810Y117432D01*
X150796Y117418D01*
X150783Y117404D01*
X150774Y117396D01*
X150769Y117393D01*
X150766Y117390D01*
X150705Y117340D01*
X150644Y117299D01*
X150586Y117263D01*
X150533Y117235D01*
X150489Y117213D01*
X150470Y117205D01*
X150456Y117196D01*
X150442Y117191D01*
X150434Y117188D01*
X150428Y117185D01*
X150425D01*
X150386Y117171D01*
X150348Y117163D01*
X150312Y117155D01*
X150278Y117152D01*
X150251Y117149D01*
X150229D01*
X150215D01*
X150209D01*
Y118842D01*
X150511D01*
Y117581D01*
D02*
G37*
G36*
X150904Y116551D02*
X150976Y116501D01*
X151043Y116451D01*
X151101Y116404D01*
X151151Y116363D01*
X151190Y116326D01*
X151206Y116310D01*
X151220Y116296D01*
X151231Y116285D01*
X151240Y116277D01*
X151242Y116274D01*
X151245Y116271D01*
X151267Y116243D01*
X151292Y116210D01*
X151312Y116177D01*
X151331Y116144D01*
X151348Y116113D01*
X151361Y116088D01*
X151370Y116072D01*
X151373Y116069D01*
Y116066D01*
X151384Y116133D01*
X151397Y116196D01*
X151414Y116254D01*
X151431Y116307D01*
X151450Y116357D01*
X151470Y116401D01*
X151489Y116440D01*
X151508Y116476D01*
X151528Y116509D01*
X151547Y116537D01*
X151564Y116559D01*
X151577Y116579D01*
X151591Y116592D01*
X151600Y116604D01*
X151605Y116609D01*
X151608Y116612D01*
X151644Y116642D01*
X151680Y116670D01*
X151719Y116695D01*
X151758Y116714D01*
X151796Y116731D01*
X151835Y116745D01*
X151907Y116767D01*
X151940Y116775D01*
X151971Y116781D01*
X151998Y116783D01*
X152023Y116786D01*
X152040Y116789D01*
X152057D01*
X152065D01*
X152068D01*
X152145Y116783D01*
X152217Y116772D01*
X152281Y116756D01*
X152339Y116736D01*
X152364Y116725D01*
X152386Y116714D01*
X152406Y116706D01*
X152422Y116698D01*
X152436Y116692D01*
X152445Y116687D01*
X152450Y116681D01*
X152453D01*
X152514Y116639D01*
X152564Y116592D01*
X152608Y116545D01*
X152641Y116498D01*
X152666Y116459D01*
X152683Y116426D01*
X152688Y116412D01*
X152694Y116404D01*
X152697Y116399D01*
Y116396D01*
X152708Y116360D01*
X152719Y116324D01*
X152735Y116241D01*
X152749Y116155D01*
X152758Y116072D01*
X152760Y116030D01*
X152763Y115994D01*
Y115964D01*
X152766Y115933D01*
Y114745D01*
X150209D01*
Y115083D01*
X151345D01*
Y115518D01*
X151342Y115556D01*
X151339Y115590D01*
Y115617D01*
X151337Y115637D01*
X151334Y115651D01*
X151331Y115659D01*
Y115662D01*
X151323Y115692D01*
X151312Y115720D01*
X151301Y115745D01*
X151289Y115770D01*
X151278Y115789D01*
X151270Y115803D01*
X151265Y115814D01*
X151262Y115817D01*
X151242Y115845D01*
X151215Y115875D01*
X151187Y115905D01*
X151159Y115930D01*
X151134Y115955D01*
X151112Y115972D01*
X151098Y115983D01*
X151095Y115989D01*
X151093D01*
X151043Y116027D01*
X150988Y116069D01*
X150929Y116108D01*
X150871Y116146D01*
X150821Y116180D01*
X150799Y116196D01*
X150780Y116207D01*
X150763Y116218D01*
X150752Y116227D01*
X150744Y116229D01*
X150741Y116232D01*
X150209Y116570D01*
Y116994D01*
X150904Y116551D01*
D02*
G37*
G36*
X152766Y114086D02*
X151120Y113684D01*
X151007Y113656D01*
X150902Y113631D01*
X150855Y113620D01*
X150807Y113609D01*
X150766Y113601D01*
X150727Y113593D01*
X150691Y113584D01*
X150661Y113576D01*
X150633Y113570D01*
X150608Y113565D01*
X150591Y113562D01*
X150577Y113559D01*
X150569Y113557D01*
X150566D01*
X150727Y113529D01*
X150885Y113498D01*
X150962Y113482D01*
X151037Y113465D01*
X151109Y113449D01*
X151176Y113432D01*
X151240Y113415D01*
X151295Y113401D01*
X151345Y113388D01*
X151386Y113376D01*
X151422Y113368D01*
X151447Y113360D01*
X151464Y113357D01*
X151470Y113354D01*
X152766Y112991D01*
Y112584D01*
X151037Y112097D01*
X151021Y112091D01*
X150999Y112086D01*
X150971Y112080D01*
X150938Y112072D01*
X150899Y112061D01*
X150860Y112052D01*
X150777Y112030D01*
X150738Y112022D01*
X150699Y112011D01*
X150663Y112003D01*
X150630Y111997D01*
X150605Y111989D01*
X150583Y111986D01*
X150572Y111980D01*
X150566D01*
X150663Y111964D01*
X150758Y111944D01*
X150843Y111928D01*
X150885Y111919D01*
X150924Y111911D01*
X150960Y111903D01*
X150990Y111895D01*
X151018Y111889D01*
X151043Y111883D01*
X151062Y111878D01*
X151076Y111875D01*
X151084Y111872D01*
X151087D01*
X152766Y111487D01*
Y111138D01*
X150209Y111811D01*
Y112163D01*
X152156Y112701D01*
X152204Y112714D01*
X152253Y112728D01*
X152306Y112742D01*
X152353Y112753D01*
X152392Y112764D01*
X152411Y112767D01*
X152425Y112770D01*
X152439Y112775D01*
X152447D01*
X152453Y112778D01*
X152456D01*
X152445Y112781D01*
X152428Y112786D01*
X152409Y112792D01*
X152386Y112797D01*
X152337Y112811D01*
X152287Y112825D01*
X152237Y112839D01*
X152215Y112845D01*
X152195Y112850D01*
X152179Y112856D01*
X152167Y112858D01*
X152159Y112861D01*
X152156D01*
X150209Y113396D01*
Y113725D01*
X152766Y114426D01*
Y114086D01*
D02*
G37*
G36*
X152093Y110936D02*
X152159Y110928D01*
X152217Y110914D01*
X152270Y110900D01*
X152312Y110883D01*
X152331Y110878D01*
X152345Y110872D01*
X152356Y110867D01*
X152364Y110861D01*
X152370Y110859D01*
X152373D01*
X152431Y110828D01*
X152478Y110795D01*
X152522Y110759D01*
X152555Y110728D01*
X152583Y110698D01*
X152602Y110676D01*
X152616Y110659D01*
X152619Y110656D01*
Y110653D01*
X152649Y110604D01*
X152674Y110551D01*
X152697Y110498D01*
X152713Y110449D01*
X152727Y110404D01*
X152730Y110385D01*
X152735Y110368D01*
X152738Y110357D01*
Y110346D01*
X152741Y110340D01*
Y110338D01*
X152746Y110313D01*
X152749Y110282D01*
X152755Y110221D01*
X152760Y110158D01*
X152763Y110094D01*
X152766Y110039D01*
Y108986D01*
X150209D01*
Y109324D01*
X151248D01*
Y109978D01*
X151251Y110077D01*
X151259Y110166D01*
X151270Y110249D01*
X151284Y110327D01*
X151301Y110393D01*
X151320Y110457D01*
X151339Y110510D01*
X151361Y110559D01*
X151381Y110601D01*
X151400Y110637D01*
X151420Y110667D01*
X151436Y110689D01*
X151453Y110709D01*
X151464Y110720D01*
X151470Y110728D01*
X151472Y110731D01*
X151516Y110767D01*
X151561Y110800D01*
X151608Y110828D01*
X151655Y110850D01*
X151702Y110872D01*
X151746Y110889D01*
X151791Y110903D01*
X151832Y110914D01*
X151874Y110922D01*
X151910Y110928D01*
X151940Y110933D01*
X151968Y110936D01*
X151993Y110939D01*
X152010D01*
X152021D01*
X152023D01*
X152093Y110936D01*
D02*
G37*
G36*
X149727Y106670D02*
X149500D01*
Y108750D01*
X149727D01*
Y106670D01*
D02*
G37*
G36*
X150511Y105338D02*
X152766D01*
Y105000D01*
X150209D01*
Y106598D01*
X150511D01*
Y105338D01*
D02*
G37*
G36*
X50352Y161271D02*
X50416Y161266D01*
X50474Y161258D01*
X50529Y161244D01*
X50582Y161230D01*
X50629Y161213D01*
X50674Y161196D01*
X50712Y161180D01*
X50748Y161161D01*
X50779Y161144D01*
X50806Y161127D01*
X50829Y161113D01*
X50845Y161100D01*
X50856Y161091D01*
X50865Y161086D01*
X50867Y161083D01*
X50906Y161047D01*
X50940Y161005D01*
X50970Y160964D01*
X50998Y160917D01*
X51020Y160872D01*
X51042Y160828D01*
X51059Y160781D01*
X51073Y160740D01*
X51086Y160698D01*
X51095Y160659D01*
X51103Y160623D01*
X51108Y160593D01*
X51111Y160568D01*
X51114Y160551D01*
X51117Y160540D01*
Y160535D01*
X50796Y160501D01*
X50793Y160546D01*
X50790Y160587D01*
X50773Y160659D01*
X50751Y160726D01*
X50740Y160753D01*
X50726Y160778D01*
X50715Y160800D01*
X50701Y160820D01*
X50690Y160836D01*
X50682Y160850D01*
X50671Y160861D01*
X50665Y160870D01*
X50662Y160872D01*
X50660Y160875D01*
X50632Y160900D01*
X50604Y160922D01*
X50574Y160939D01*
X50543Y160956D01*
X50482Y160980D01*
X50424Y160997D01*
X50374Y161005D01*
X50352Y161011D01*
X50333D01*
X50316Y161014D01*
X50255D01*
X50217Y161008D01*
X50147Y160994D01*
X50089Y160972D01*
X50037Y160950D01*
X49998Y160925D01*
X49981Y160914D01*
X49967Y160903D01*
X49956Y160895D01*
X49948Y160889D01*
X49945Y160886D01*
X49942Y160883D01*
X49917Y160859D01*
X49898Y160834D01*
X49879Y160809D01*
X49865Y160781D01*
X49840Y160728D01*
X49823Y160679D01*
X49815Y160637D01*
X49809Y160618D01*
Y160601D01*
X49807Y160590D01*
Y160579D01*
Y160573D01*
Y160571D01*
X49809Y160537D01*
X49812Y160504D01*
X49829Y160438D01*
X49854Y160374D01*
X49881Y160316D01*
X49909Y160266D01*
X49920Y160246D01*
X49934Y160227D01*
X49942Y160213D01*
X49951Y160202D01*
X49953Y160197D01*
X49956Y160194D01*
X49987Y160155D01*
X50023Y160114D01*
X50064Y160069D01*
X50108Y160025D01*
X50200Y159933D01*
X50294Y159847D01*
X50338Y159806D01*
X50383Y159770D01*
X50422Y159737D01*
X50455Y159709D01*
X50482Y159684D01*
X50502Y159668D01*
X50516Y159654D01*
X50521Y159651D01*
X50571Y159609D01*
X50615Y159571D01*
X50660Y159535D01*
X50699Y159499D01*
X50737Y159465D01*
X50770Y159432D01*
X50801Y159404D01*
X50829Y159377D01*
X50854Y159352D01*
X50873Y159329D01*
X50892Y159310D01*
X50906Y159296D01*
X50920Y159283D01*
X50928Y159274D01*
X50931Y159269D01*
X50934Y159266D01*
X50984Y159205D01*
X51025Y159144D01*
X51061Y159086D01*
X51089Y159033D01*
X51111Y158989D01*
X51120Y158969D01*
X51128Y158956D01*
X51133Y158942D01*
X51136Y158933D01*
X51139Y158928D01*
Y158925D01*
X51153Y158886D01*
X51161Y158848D01*
X51169Y158812D01*
X51172Y158778D01*
X51175Y158751D01*
Y158729D01*
Y158715D01*
Y158709D01*
X49483D01*
Y159011D01*
X50743D01*
X50699Y159072D01*
X50676Y159100D01*
X50654Y159125D01*
X50635Y159147D01*
X50621Y159163D01*
X50610Y159174D01*
X50607Y159177D01*
X50590Y159194D01*
X50568Y159216D01*
X50543Y159238D01*
X50516Y159263D01*
X50458Y159318D01*
X50397Y159371D01*
X50338Y159421D01*
X50314Y159443D01*
X50288Y159462D01*
X50272Y159479D01*
X50255Y159490D01*
X50247Y159499D01*
X50244Y159501D01*
X50183Y159554D01*
X50125Y159604D01*
X50072Y159648D01*
X50025Y159692D01*
X49981Y159731D01*
X49942Y159770D01*
X49906Y159803D01*
X49873Y159834D01*
X49845Y159859D01*
X49823Y159883D01*
X49804Y159903D01*
X49787Y159920D01*
X49776Y159933D01*
X49765Y159942D01*
X49762Y159947D01*
X49760Y159950D01*
X49707Y160011D01*
X49665Y160066D01*
X49629Y160119D01*
X49599Y160166D01*
X49577Y160205D01*
X49560Y160235D01*
X49554Y160246D01*
X49552Y160255D01*
X49549Y160257D01*
Y160260D01*
X49527Y160316D01*
X49513Y160371D01*
X49502Y160421D01*
X49494Y160468D01*
X49488Y160507D01*
X49485Y160537D01*
Y160548D01*
Y160557D01*
Y160559D01*
Y160562D01*
X49488Y160618D01*
X49494Y160670D01*
X49505Y160720D01*
X49518Y160770D01*
X49535Y160814D01*
X49554Y160856D01*
X49574Y160895D01*
X49593Y160928D01*
X49613Y160961D01*
X49632Y160989D01*
X49651Y161014D01*
X49668Y161033D01*
X49682Y161047D01*
X49693Y161061D01*
X49698Y161066D01*
X49701Y161069D01*
X49743Y161105D01*
X49787Y161136D01*
X49834Y161163D01*
X49884Y161188D01*
X49931Y161208D01*
X49981Y161224D01*
X50028Y161238D01*
X50075Y161249D01*
X50117Y161258D01*
X50158Y161263D01*
X50194Y161269D01*
X50225Y161271D01*
X50250Y161274D01*
X50286D01*
X50352Y161271D01*
D02*
G37*
G36*
X56513Y158709D02*
X56161D01*
X55624Y160656D01*
X55610Y160704D01*
X55596Y160753D01*
X55582Y160806D01*
X55571Y160853D01*
X55560Y160892D01*
X55557Y160911D01*
X55554Y160925D01*
X55549Y160939D01*
Y160947D01*
X55546Y160953D01*
Y160956D01*
X55543Y160944D01*
X55538Y160928D01*
X55532Y160908D01*
X55527Y160886D01*
X55513Y160836D01*
X55499Y160787D01*
X55485Y160737D01*
X55480Y160715D01*
X55474Y160695D01*
X55468Y160679D01*
X55466Y160668D01*
X55463Y160659D01*
Y160656D01*
X54928Y158709D01*
X54599D01*
X53898Y161266D01*
X54239D01*
X54640Y159620D01*
X54668Y159507D01*
X54693Y159402D01*
X54704Y159354D01*
X54715Y159307D01*
X54723Y159266D01*
X54732Y159227D01*
X54740Y159191D01*
X54748Y159161D01*
X54754Y159133D01*
X54759Y159108D01*
X54762Y159091D01*
X54765Y159078D01*
X54768Y159069D01*
Y159066D01*
X54795Y159227D01*
X54826Y159385D01*
X54842Y159462D01*
X54859Y159537D01*
X54876Y159609D01*
X54892Y159676D01*
X54909Y159739D01*
X54923Y159795D01*
X54937Y159845D01*
X54948Y159886D01*
X54956Y159922D01*
X54964Y159947D01*
X54967Y159964D01*
X54970Y159969D01*
X55333Y161266D01*
X55740D01*
X56227Y159537D01*
X56233Y159521D01*
X56239Y159499D01*
X56244Y159471D01*
X56252Y159438D01*
X56263Y159399D01*
X56272Y159360D01*
X56294Y159277D01*
X56302Y159238D01*
X56313Y159199D01*
X56322Y159163D01*
X56327Y159130D01*
X56336Y159105D01*
X56338Y159083D01*
X56344Y159072D01*
Y159066D01*
X56360Y159163D01*
X56380Y159257D01*
X56396Y159343D01*
X56405Y159385D01*
X56413Y159424D01*
X56421Y159460D01*
X56430Y159490D01*
X56435Y159518D01*
X56441Y159543D01*
X56446Y159562D01*
X56449Y159576D01*
X56452Y159584D01*
Y159587D01*
X56837Y161266D01*
X57186D01*
X56513Y158709D01*
D02*
G37*
G36*
X62859Y161307D02*
X62920Y161305D01*
X63033Y161285D01*
X63089Y161274D01*
X63139Y161260D01*
X63188Y161246D01*
X63233Y161232D01*
X63271Y161219D01*
X63308Y161205D01*
X63341Y161191D01*
X63366Y161180D01*
X63388Y161169D01*
X63402Y161161D01*
X63413Y161158D01*
X63416Y161155D01*
X63465Y161125D01*
X63515Y161091D01*
X63560Y161055D01*
X63601Y161019D01*
X63640Y160980D01*
X63676Y160944D01*
X63706Y160906D01*
X63737Y160872D01*
X63762Y160836D01*
X63784Y160806D01*
X63803Y160778D01*
X63820Y160753D01*
X63831Y160731D01*
X63839Y160717D01*
X63845Y160706D01*
X63848Y160704D01*
X63875Y160648D01*
X63898Y160587D01*
X63917Y160529D01*
X63936Y160471D01*
X63964Y160352D01*
X63972Y160296D01*
X63981Y160244D01*
X63986Y160194D01*
X63992Y160150D01*
X63994Y160108D01*
X63997Y160072D01*
X64000Y160044D01*
Y160022D01*
Y160011D01*
Y160005D01*
X63997Y159939D01*
X63994Y159872D01*
X63978Y159745D01*
X63970Y159684D01*
X63959Y159629D01*
X63945Y159576D01*
X63934Y159526D01*
X63920Y159482D01*
X63909Y159440D01*
X63898Y159407D01*
X63886Y159377D01*
X63878Y159354D01*
X63873Y159335D01*
X63870Y159324D01*
X63867Y159321D01*
X63839Y159263D01*
X63812Y159208D01*
X63781Y159158D01*
X63748Y159111D01*
X63715Y159066D01*
X63684Y159028D01*
X63651Y158992D01*
X63621Y158958D01*
X63590Y158928D01*
X63562Y158903D01*
X63538Y158884D01*
X63515Y158864D01*
X63499Y158850D01*
X63485Y158842D01*
X63477Y158836D01*
X63474Y158834D01*
X63424Y158803D01*
X63371Y158778D01*
X63316Y158756D01*
X63258Y158737D01*
X63202Y158723D01*
X63147Y158709D01*
X63091Y158698D01*
X63039Y158690D01*
X62989Y158681D01*
X62945Y158676D01*
X62903Y158673D01*
X62870Y158670D01*
X62839Y158668D01*
X62801D01*
X62726Y158670D01*
X62657Y158676D01*
X62590Y158687D01*
X62526Y158701D01*
X62466Y158717D01*
X62410Y158737D01*
X62360Y158756D01*
X62313Y158775D01*
X62269Y158795D01*
X62233Y158814D01*
X62199Y158834D01*
X62175Y158850D01*
X62152Y158864D01*
X62139Y158875D01*
X62128Y158881D01*
X62125Y158884D01*
X62075Y158928D01*
X62028Y158975D01*
X61986Y159025D01*
X61948Y159075D01*
X61911Y159127D01*
X61881Y159183D01*
X61853Y159233D01*
X61828Y159285D01*
X61806Y159332D01*
X61790Y159377D01*
X61773Y159418D01*
X61762Y159451D01*
X61751Y159482D01*
X61745Y159501D01*
X61740Y159515D01*
Y159521D01*
X62078Y159607D01*
X62091Y159548D01*
X62111Y159493D01*
X62130Y159440D01*
X62150Y159393D01*
X62172Y159349D01*
X62194Y159310D01*
X62216Y159274D01*
X62238Y159241D01*
X62261Y159213D01*
X62280Y159188D01*
X62299Y159166D01*
X62313Y159150D01*
X62327Y159136D01*
X62338Y159127D01*
X62344Y159122D01*
X62346Y159119D01*
X62385Y159091D01*
X62424Y159066D01*
X62463Y159044D01*
X62504Y159025D01*
X62546Y159008D01*
X62585Y158994D01*
X62662Y158975D01*
X62695Y158969D01*
X62729Y158964D01*
X62756Y158961D01*
X62781Y158958D01*
X62801Y158956D01*
X62828D01*
X62873Y158958D01*
X62914Y158961D01*
X62994Y158975D01*
X63069Y158994D01*
X63133Y159017D01*
X63161Y159028D01*
X63186Y159036D01*
X63208Y159047D01*
X63227Y159055D01*
X63244Y159064D01*
X63255Y159069D01*
X63261Y159075D01*
X63263D01*
X63299Y159100D01*
X63332Y159125D01*
X63393Y159183D01*
X63443Y159241D01*
X63485Y159302D01*
X63515Y159354D01*
X63529Y159377D01*
X63540Y159399D01*
X63546Y159415D01*
X63551Y159426D01*
X63557Y159435D01*
Y159438D01*
X63587Y159532D01*
X63612Y159629D01*
X63629Y159726D01*
X63634Y159770D01*
X63640Y159814D01*
X63643Y159856D01*
X63645Y159892D01*
X63648Y159925D01*
Y159953D01*
X63651Y159978D01*
Y159994D01*
Y160005D01*
Y160008D01*
X63648Y160102D01*
X63640Y160191D01*
X63626Y160274D01*
X63621Y160313D01*
X63612Y160349D01*
X63604Y160379D01*
X63598Y160410D01*
X63590Y160435D01*
X63585Y160457D01*
X63582Y160474D01*
X63576Y160487D01*
X63573Y160496D01*
Y160498D01*
X63538Y160584D01*
X63496Y160659D01*
X63452Y160723D01*
X63427Y160751D01*
X63405Y160778D01*
X63382Y160800D01*
X63363Y160820D01*
X63344Y160839D01*
X63330Y160853D01*
X63316Y160864D01*
X63305Y160872D01*
X63299Y160875D01*
X63297Y160878D01*
X63258Y160903D01*
X63219Y160925D01*
X63177Y160944D01*
X63136Y160961D01*
X63053Y160986D01*
X62972Y161005D01*
X62939Y161011D01*
X62906Y161014D01*
X62875Y161016D01*
X62850Y161019D01*
X62828Y161022D01*
X62753D01*
X62709Y161016D01*
X62626Y161003D01*
X62554Y160980D01*
X62524Y160969D01*
X62493Y160958D01*
X62466Y160947D01*
X62443Y160936D01*
X62424Y160925D01*
X62407Y160914D01*
X62393Y160906D01*
X62385Y160900D01*
X62380Y160897D01*
X62377Y160895D01*
X62346Y160870D01*
X62316Y160842D01*
X62266Y160778D01*
X62219Y160709D01*
X62183Y160643D01*
X62155Y160582D01*
X62141Y160557D01*
X62133Y160535D01*
X62125Y160515D01*
X62122Y160498D01*
X62116Y160490D01*
Y160487D01*
X61784Y160565D01*
X61806Y160629D01*
X61831Y160690D01*
X61856Y160748D01*
X61887Y160800D01*
X61914Y160850D01*
X61945Y160895D01*
X61975Y160936D01*
X62006Y160972D01*
X62036Y161005D01*
X62061Y161033D01*
X62086Y161058D01*
X62108Y161077D01*
X62125Y161094D01*
X62139Y161105D01*
X62147Y161111D01*
X62150Y161113D01*
X62199Y161149D01*
X62252Y161177D01*
X62305Y161205D01*
X62360Y161227D01*
X62416Y161246D01*
X62468Y161263D01*
X62521Y161274D01*
X62571Y161285D01*
X62618Y161293D01*
X62659Y161299D01*
X62698Y161305D01*
X62731Y161307D01*
X62759Y161310D01*
X62795D01*
X62859Y161307D01*
D02*
G37*
G36*
X59338Y158709D02*
X59000D01*
Y159748D01*
X58346D01*
X58247Y159751D01*
X58158Y159759D01*
X58075Y159770D01*
X57998Y159784D01*
X57931Y159801D01*
X57867Y159820D01*
X57815Y159839D01*
X57765Y159861D01*
X57723Y159881D01*
X57687Y159900D01*
X57657Y159920D01*
X57635Y159936D01*
X57615Y159953D01*
X57604Y159964D01*
X57596Y159969D01*
X57593Y159972D01*
X57557Y160017D01*
X57524Y160061D01*
X57496Y160108D01*
X57474Y160155D01*
X57452Y160202D01*
X57435Y160246D01*
X57421Y160291D01*
X57410Y160332D01*
X57402Y160374D01*
X57396Y160410D01*
X57391Y160440D01*
X57388Y160468D01*
X57385Y160493D01*
Y160510D01*
Y160521D01*
Y160523D01*
X57388Y160593D01*
X57396Y160659D01*
X57410Y160717D01*
X57424Y160770D01*
X57441Y160811D01*
X57446Y160831D01*
X57452Y160845D01*
X57457Y160856D01*
X57463Y160864D01*
X57466Y160870D01*
Y160872D01*
X57496Y160931D01*
X57529Y160978D01*
X57565Y161022D01*
X57596Y161055D01*
X57626Y161083D01*
X57648Y161102D01*
X57665Y161116D01*
X57668Y161119D01*
X57671D01*
X57721Y161149D01*
X57773Y161174D01*
X57826Y161196D01*
X57876Y161213D01*
X57920Y161227D01*
X57939Y161230D01*
X57956Y161235D01*
X57967Y161238D01*
X57978D01*
X57984Y161241D01*
X57986D01*
X58011Y161246D01*
X58042Y161249D01*
X58103Y161255D01*
X58166Y161260D01*
X58230Y161263D01*
X58285Y161266D01*
X59338D01*
Y158709D01*
D02*
G37*
G36*
X53579D02*
X53241D01*
Y159845D01*
X52807D01*
X52768Y159842D01*
X52735Y159839D01*
X52707D01*
X52687Y159836D01*
X52674Y159834D01*
X52665Y159831D01*
X52662D01*
X52632Y159823D01*
X52604Y159811D01*
X52579Y159801D01*
X52554Y159789D01*
X52535Y159778D01*
X52521Y159770D01*
X52510Y159764D01*
X52507Y159762D01*
X52480Y159742D01*
X52449Y159715D01*
X52419Y159687D01*
X52394Y159659D01*
X52369Y159634D01*
X52352Y159612D01*
X52341Y159598D01*
X52336Y159596D01*
Y159593D01*
X52297Y159543D01*
X52255Y159487D01*
X52217Y159429D01*
X52178Y159371D01*
X52144Y159321D01*
X52128Y159299D01*
X52117Y159280D01*
X52106Y159263D01*
X52097Y159252D01*
X52095Y159244D01*
X52092Y159241D01*
X51754Y158709D01*
X51330D01*
X51773Y159404D01*
X51823Y159476D01*
X51873Y159543D01*
X51920Y159601D01*
X51962Y159651D01*
X51998Y159690D01*
X52014Y159706D01*
X52028Y159720D01*
X52039Y159731D01*
X52047Y159739D01*
X52050Y159742D01*
X52053Y159745D01*
X52081Y159767D01*
X52114Y159792D01*
X52147Y159811D01*
X52180Y159831D01*
X52211Y159847D01*
X52236Y159861D01*
X52253Y159870D01*
X52255Y159872D01*
X52258D01*
X52192Y159883D01*
X52128Y159897D01*
X52070Y159914D01*
X52017Y159931D01*
X51967Y159950D01*
X51923Y159969D01*
X51884Y159989D01*
X51848Y160008D01*
X51815Y160028D01*
X51787Y160047D01*
X51765Y160064D01*
X51746Y160077D01*
X51732Y160091D01*
X51721Y160100D01*
X51715Y160105D01*
X51712Y160108D01*
X51682Y160144D01*
X51654Y160180D01*
X51629Y160219D01*
X51610Y160257D01*
X51593Y160296D01*
X51579Y160335D01*
X51557Y160407D01*
X51549Y160440D01*
X51543Y160471D01*
X51541Y160498D01*
X51538Y160523D01*
X51535Y160540D01*
Y160557D01*
Y160565D01*
Y160568D01*
X51541Y160645D01*
X51552Y160717D01*
X51568Y160781D01*
X51588Y160839D01*
X51599Y160864D01*
X51610Y160886D01*
X51618Y160906D01*
X51626Y160922D01*
X51632Y160936D01*
X51638Y160944D01*
X51643Y160950D01*
Y160953D01*
X51685Y161014D01*
X51732Y161064D01*
X51779Y161108D01*
X51826Y161141D01*
X51865Y161166D01*
X51898Y161183D01*
X51912Y161188D01*
X51920Y161194D01*
X51926Y161196D01*
X51928D01*
X51964Y161208D01*
X52000Y161219D01*
X52083Y161235D01*
X52169Y161249D01*
X52253Y161258D01*
X52294Y161260D01*
X52330Y161263D01*
X52360D01*
X52391Y161266D01*
X53579D01*
Y158709D01*
D02*
G37*
G36*
X61654Y158000D02*
X59574D01*
Y158227D01*
X61654D01*
Y158000D01*
D02*
G37*
G36*
X134388Y74271D02*
X134441Y74266D01*
X134491Y74257D01*
X134541Y74246D01*
X134585Y74233D01*
X134626Y74219D01*
X134665Y74202D01*
X134698Y74188D01*
X134732Y74172D01*
X134759Y74155D01*
X134782Y74141D01*
X134804Y74127D01*
X134818Y74116D01*
X134832Y74108D01*
X134837Y74102D01*
X134840Y74100D01*
X134876Y74066D01*
X134909Y74028D01*
X134940Y73989D01*
X134967Y73950D01*
X134992Y73909D01*
X135011Y73870D01*
X135047Y73789D01*
X135061Y73753D01*
X135073Y73720D01*
X135081Y73690D01*
X135089Y73665D01*
X135095Y73642D01*
X135097Y73626D01*
X135100Y73615D01*
Y73612D01*
X134787Y73557D01*
X134771Y73637D01*
X134748Y73706D01*
X134723Y73767D01*
X134696Y73814D01*
X134674Y73853D01*
X134651Y73878D01*
X134638Y73895D01*
X134632Y73900D01*
X134582Y73939D01*
X134532Y73967D01*
X134480Y73989D01*
X134433Y74003D01*
X134388Y74011D01*
X134372Y74014D01*
X134355D01*
X134341Y74016D01*
X134325D01*
X134258Y74011D01*
X134200Y74000D01*
X134147Y73980D01*
X134103Y73961D01*
X134070Y73939D01*
X134045Y73919D01*
X134028Y73909D01*
X134023Y73903D01*
X134001Y73881D01*
X133984Y73859D01*
X133953Y73809D01*
X133931Y73762D01*
X133917Y73717D01*
X133909Y73676D01*
X133906Y73645D01*
X133904Y73631D01*
Y73623D01*
Y73618D01*
Y73615D01*
X133906Y73576D01*
X133912Y73540D01*
X133917Y73504D01*
X133928Y73474D01*
X133956Y73418D01*
X133984Y73374D01*
X134014Y73338D01*
X134042Y73313D01*
X134053Y73305D01*
X134059Y73299D01*
X134064Y73294D01*
X134067D01*
X134128Y73257D01*
X134192Y73233D01*
X134253Y73213D01*
X134308Y73202D01*
X134355Y73194D01*
X134374Y73191D01*
X134394D01*
X134408Y73188D01*
X134444D01*
X134460Y73191D01*
X134474Y73194D01*
X134480D01*
X134513Y72920D01*
X134466Y72931D01*
X134422Y72939D01*
X134386Y72944D01*
X134352Y72950D01*
X134327D01*
X134308Y72953D01*
X134291D01*
X134253Y72950D01*
X134214Y72947D01*
X134144Y72931D01*
X134084Y72909D01*
X134031Y72884D01*
X133989Y72856D01*
X133973Y72845D01*
X133959Y72834D01*
X133948Y72825D01*
X133940Y72817D01*
X133937Y72814D01*
X133934Y72812D01*
X133909Y72784D01*
X133887Y72756D01*
X133868Y72728D01*
X133851Y72698D01*
X133826Y72640D01*
X133807Y72582D01*
X133798Y72532D01*
X133795Y72512D01*
X133793Y72493D01*
X133790Y72479D01*
Y72465D01*
Y72460D01*
Y72457D01*
X133793Y72415D01*
X133795Y72377D01*
X133815Y72302D01*
X133837Y72238D01*
X133865Y72183D01*
X133881Y72158D01*
X133895Y72138D01*
X133906Y72119D01*
X133917Y72105D01*
X133928Y72094D01*
X133937Y72086D01*
X133940Y72080D01*
X133942Y72078D01*
X133973Y72050D01*
X134003Y72028D01*
X134034Y72008D01*
X134064Y71989D01*
X134128Y71961D01*
X134189Y71944D01*
X134239Y71933D01*
X134264Y71931D01*
X134280Y71928D01*
X134297Y71925D01*
X134319D01*
X134386Y71931D01*
X134449Y71944D01*
X134502Y71961D01*
X134549Y71983D01*
X134588Y72005D01*
X134615Y72022D01*
X134624Y72030D01*
X134632Y72036D01*
X134635Y72041D01*
X134638D01*
X134660Y72066D01*
X134682Y72091D01*
X134721Y72149D01*
X134751Y72213D01*
X134776Y72277D01*
X134795Y72335D01*
X134801Y72360D01*
X134807Y72382D01*
X134812Y72402D01*
X134815Y72415D01*
X134818Y72424D01*
Y72426D01*
X135131Y72385D01*
X135122Y72327D01*
X135111Y72271D01*
X135095Y72219D01*
X135078Y72169D01*
X135059Y72122D01*
X135036Y72080D01*
X135014Y72039D01*
X134992Y72005D01*
X134970Y71972D01*
X134951Y71944D01*
X134931Y71920D01*
X134915Y71900D01*
X134898Y71884D01*
X134887Y71873D01*
X134881Y71867D01*
X134879Y71864D01*
X134837Y71828D01*
X134790Y71798D01*
X134746Y71773D01*
X134698Y71748D01*
X134651Y71728D01*
X134604Y71715D01*
X134560Y71701D01*
X134516Y71690D01*
X134474Y71681D01*
X134438Y71676D01*
X134405Y71670D01*
X134374Y71667D01*
X134352D01*
X134333Y71665D01*
X134319D01*
X134250Y71667D01*
X134186Y71676D01*
X134125Y71687D01*
X134067Y71701D01*
X134012Y71717D01*
X133962Y71737D01*
X133915Y71759D01*
X133873Y71781D01*
X133834Y71801D01*
X133801Y71823D01*
X133771Y71842D01*
X133748Y71859D01*
X133729Y71873D01*
X133715Y71884D01*
X133707Y71892D01*
X133704Y71895D01*
X133660Y71939D01*
X133624Y71986D01*
X133590Y72033D01*
X133563Y72083D01*
X133538Y72130D01*
X133519Y72177D01*
X133502Y72221D01*
X133488Y72266D01*
X133477Y72307D01*
X133471Y72343D01*
X133466Y72377D01*
X133460Y72407D01*
Y72429D01*
X133458Y72449D01*
Y72460D01*
Y72462D01*
Y72507D01*
X133463Y72551D01*
X133477Y72632D01*
X133499Y72701D01*
X133510Y72731D01*
X133521Y72759D01*
X133532Y72787D01*
X133543Y72809D01*
X133554Y72828D01*
X133566Y72842D01*
X133574Y72856D01*
X133579Y72864D01*
X133582Y72870D01*
X133585Y72873D01*
X133635Y72931D01*
X133693Y72978D01*
X133751Y73014D01*
X133807Y73044D01*
X133859Y73066D01*
X133881Y73075D01*
X133898Y73080D01*
X133915Y73086D01*
X133926Y73089D01*
X133934Y73091D01*
X133937D01*
X133876Y73124D01*
X133823Y73158D01*
X133776Y73194D01*
X133740Y73230D01*
X133710Y73260D01*
X133690Y73285D01*
X133676Y73302D01*
X133674Y73305D01*
Y73307D01*
X133643Y73360D01*
X133621Y73413D01*
X133604Y73462D01*
X133593Y73510D01*
X133588Y73548D01*
X133582Y73582D01*
Y73593D01*
Y73601D01*
Y73606D01*
Y73609D01*
X133585Y73673D01*
X133596Y73734D01*
X133613Y73789D01*
X133629Y73839D01*
X133646Y73881D01*
X133654Y73897D01*
X133662Y73911D01*
X133668Y73922D01*
X133674Y73933D01*
X133676Y73936D01*
Y73939D01*
X133715Y73994D01*
X133759Y74041D01*
X133804Y74083D01*
X133848Y74119D01*
X133887Y74147D01*
X133917Y74166D01*
X133931Y74174D01*
X133940Y74180D01*
X133945Y74183D01*
X133948D01*
X134014Y74213D01*
X134081Y74235D01*
X134147Y74252D01*
X134205Y74263D01*
X134258Y74269D01*
X134277Y74271D01*
X134297Y74274D01*
X134333D01*
X134388Y74271D01*
D02*
G37*
G36*
X140513Y71709D02*
X140161D01*
X139624Y73656D01*
X139610Y73703D01*
X139596Y73753D01*
X139582Y73806D01*
X139571Y73853D01*
X139560Y73892D01*
X139557Y73911D01*
X139554Y73925D01*
X139549Y73939D01*
Y73947D01*
X139546Y73953D01*
Y73956D01*
X139543Y73944D01*
X139538Y73928D01*
X139532Y73909D01*
X139527Y73886D01*
X139513Y73836D01*
X139499Y73787D01*
X139485Y73737D01*
X139479Y73715D01*
X139474Y73695D01*
X139469Y73678D01*
X139466Y73668D01*
X139463Y73659D01*
Y73656D01*
X138928Y71709D01*
X138599D01*
X137898Y74266D01*
X138239D01*
X138640Y72620D01*
X138668Y72507D01*
X138693Y72402D01*
X138704Y72355D01*
X138715Y72307D01*
X138723Y72266D01*
X138732Y72227D01*
X138740Y72191D01*
X138748Y72161D01*
X138754Y72133D01*
X138759Y72108D01*
X138762Y72091D01*
X138765Y72078D01*
X138768Y72069D01*
Y72066D01*
X138795Y72227D01*
X138826Y72385D01*
X138842Y72462D01*
X138859Y72537D01*
X138876Y72609D01*
X138892Y72676D01*
X138909Y72739D01*
X138923Y72795D01*
X138937Y72845D01*
X138948Y72886D01*
X138956Y72922D01*
X138964Y72947D01*
X138967Y72964D01*
X138970Y72969D01*
X139333Y74266D01*
X139740D01*
X140227Y72537D01*
X140233Y72521D01*
X140238Y72499D01*
X140244Y72471D01*
X140252Y72438D01*
X140263Y72399D01*
X140272Y72360D01*
X140294Y72277D01*
X140302Y72238D01*
X140313Y72199D01*
X140322Y72163D01*
X140327Y72130D01*
X140336Y72105D01*
X140338Y72083D01*
X140344Y72072D01*
Y72066D01*
X140360Y72163D01*
X140380Y72258D01*
X140396Y72343D01*
X140405Y72385D01*
X140413Y72424D01*
X140421Y72460D01*
X140430Y72490D01*
X140435Y72518D01*
X140441Y72543D01*
X140446Y72562D01*
X140449Y72576D01*
X140452Y72584D01*
Y72587D01*
X140837Y74266D01*
X141186D01*
X140513Y71709D01*
D02*
G37*
G36*
X146859Y74307D02*
X146920Y74305D01*
X147033Y74285D01*
X147089Y74274D01*
X147139Y74260D01*
X147188Y74246D01*
X147233Y74233D01*
X147272Y74219D01*
X147308Y74205D01*
X147341Y74191D01*
X147366Y74180D01*
X147388Y74169D01*
X147402Y74160D01*
X147413Y74158D01*
X147416Y74155D01*
X147465Y74124D01*
X147515Y74091D01*
X147560Y74055D01*
X147601Y74019D01*
X147640Y73980D01*
X147676Y73944D01*
X147706Y73906D01*
X147737Y73872D01*
X147762Y73836D01*
X147784Y73806D01*
X147803Y73778D01*
X147820Y73753D01*
X147831Y73731D01*
X147839Y73717D01*
X147845Y73706D01*
X147848Y73703D01*
X147875Y73648D01*
X147898Y73587D01*
X147917Y73529D01*
X147936Y73471D01*
X147964Y73352D01*
X147972Y73296D01*
X147981Y73244D01*
X147986Y73194D01*
X147992Y73150D01*
X147994Y73108D01*
X147997Y73072D01*
X148000Y73044D01*
Y73022D01*
Y73011D01*
Y73005D01*
X147997Y72939D01*
X147994Y72873D01*
X147978Y72745D01*
X147970Y72684D01*
X147959Y72629D01*
X147945Y72576D01*
X147934Y72526D01*
X147920Y72482D01*
X147909Y72440D01*
X147898Y72407D01*
X147887Y72377D01*
X147878Y72355D01*
X147873Y72335D01*
X147870Y72324D01*
X147867Y72321D01*
X147839Y72263D01*
X147812Y72208D01*
X147781Y72158D01*
X147748Y72111D01*
X147715Y72066D01*
X147684Y72028D01*
X147651Y71992D01*
X147621Y71958D01*
X147590Y71928D01*
X147562Y71903D01*
X147538Y71884D01*
X147515Y71864D01*
X147499Y71850D01*
X147485Y71842D01*
X147476Y71837D01*
X147474Y71834D01*
X147424Y71803D01*
X147371Y71778D01*
X147316Y71756D01*
X147258Y71737D01*
X147202Y71723D01*
X147147Y71709D01*
X147091Y71698D01*
X147039Y71690D01*
X146989Y71681D01*
X146945Y71676D01*
X146903Y71673D01*
X146870Y71670D01*
X146839Y71667D01*
X146801D01*
X146726Y71670D01*
X146657Y71676D01*
X146590Y71687D01*
X146526Y71701D01*
X146466Y71717D01*
X146410Y71737D01*
X146360Y71756D01*
X146313Y71776D01*
X146269Y71795D01*
X146233Y71814D01*
X146200Y71834D01*
X146175Y71850D01*
X146152Y71864D01*
X146139Y71875D01*
X146127Y71881D01*
X146125Y71884D01*
X146075Y71928D01*
X146028Y71975D01*
X145986Y72025D01*
X145948Y72075D01*
X145912Y72127D01*
X145881Y72183D01*
X145853Y72233D01*
X145828Y72285D01*
X145806Y72332D01*
X145790Y72377D01*
X145773Y72418D01*
X145762Y72451D01*
X145751Y72482D01*
X145745Y72501D01*
X145740Y72515D01*
Y72521D01*
X146078Y72607D01*
X146091Y72548D01*
X146111Y72493D01*
X146130Y72440D01*
X146150Y72393D01*
X146172Y72349D01*
X146194Y72310D01*
X146216Y72274D01*
X146238Y72241D01*
X146260Y72213D01*
X146280Y72188D01*
X146299Y72166D01*
X146313Y72149D01*
X146327Y72136D01*
X146338Y72127D01*
X146344Y72122D01*
X146346Y72119D01*
X146385Y72091D01*
X146424Y72066D01*
X146463Y72044D01*
X146504Y72025D01*
X146546Y72008D01*
X146585Y71994D01*
X146662Y71975D01*
X146695Y71969D01*
X146729Y71964D01*
X146756Y71961D01*
X146781Y71958D01*
X146801Y71956D01*
X146828D01*
X146873Y71958D01*
X146914Y71961D01*
X146994Y71975D01*
X147069Y71994D01*
X147133Y72017D01*
X147161Y72028D01*
X147186Y72036D01*
X147208Y72047D01*
X147227Y72055D01*
X147244Y72064D01*
X147255Y72069D01*
X147260Y72075D01*
X147263D01*
X147299Y72100D01*
X147333Y72125D01*
X147393Y72183D01*
X147443Y72241D01*
X147485Y72302D01*
X147515Y72355D01*
X147529Y72377D01*
X147540Y72399D01*
X147546Y72415D01*
X147551Y72426D01*
X147557Y72435D01*
Y72438D01*
X147587Y72532D01*
X147612Y72629D01*
X147629Y72726D01*
X147634Y72770D01*
X147640Y72814D01*
X147643Y72856D01*
X147645Y72892D01*
X147648Y72925D01*
Y72953D01*
X147651Y72978D01*
Y72994D01*
Y73005D01*
Y73008D01*
X147648Y73102D01*
X147640Y73191D01*
X147626Y73274D01*
X147621Y73313D01*
X147612Y73349D01*
X147604Y73379D01*
X147598Y73410D01*
X147590Y73435D01*
X147584Y73457D01*
X147582Y73474D01*
X147576Y73487D01*
X147573Y73496D01*
Y73498D01*
X147538Y73584D01*
X147496Y73659D01*
X147452Y73723D01*
X147427Y73751D01*
X147405Y73778D01*
X147382Y73800D01*
X147363Y73820D01*
X147344Y73839D01*
X147330Y73853D01*
X147316Y73864D01*
X147305Y73872D01*
X147299Y73875D01*
X147297Y73878D01*
X147258Y73903D01*
X147219Y73925D01*
X147177Y73944D01*
X147136Y73961D01*
X147053Y73986D01*
X146972Y74005D01*
X146939Y74011D01*
X146906Y74014D01*
X146875Y74016D01*
X146851Y74019D01*
X146828Y74022D01*
X146754D01*
X146709Y74016D01*
X146626Y74003D01*
X146554Y73980D01*
X146524Y73969D01*
X146493Y73958D01*
X146466Y73947D01*
X146443Y73936D01*
X146424Y73925D01*
X146407Y73914D01*
X146394Y73906D01*
X146385Y73900D01*
X146380Y73897D01*
X146377Y73895D01*
X146346Y73870D01*
X146316Y73842D01*
X146266Y73778D01*
X146219Y73709D01*
X146183Y73642D01*
X146155Y73582D01*
X146141Y73557D01*
X146133Y73535D01*
X146125Y73515D01*
X146122Y73498D01*
X146116Y73490D01*
Y73487D01*
X145784Y73565D01*
X145806Y73629D01*
X145831Y73690D01*
X145856Y73748D01*
X145887Y73800D01*
X145914Y73850D01*
X145945Y73895D01*
X145975Y73936D01*
X146006Y73972D01*
X146036Y74005D01*
X146061Y74033D01*
X146086Y74058D01*
X146108Y74077D01*
X146125Y74094D01*
X146139Y74105D01*
X146147Y74111D01*
X146150Y74113D01*
X146200Y74149D01*
X146252Y74177D01*
X146305Y74205D01*
X146360Y74227D01*
X146416Y74246D01*
X146468Y74263D01*
X146521Y74274D01*
X146571Y74285D01*
X146618Y74294D01*
X146659Y74299D01*
X146698Y74305D01*
X146731Y74307D01*
X146759Y74310D01*
X146795D01*
X146859Y74307D01*
D02*
G37*
G36*
X143338Y71709D02*
X143000D01*
Y72748D01*
X142347D01*
X142247Y72751D01*
X142158Y72759D01*
X142075Y72770D01*
X141998Y72784D01*
X141931Y72800D01*
X141867Y72820D01*
X141815Y72839D01*
X141765Y72861D01*
X141723Y72881D01*
X141687Y72900D01*
X141657Y72920D01*
X141635Y72936D01*
X141615Y72953D01*
X141604Y72964D01*
X141596Y72969D01*
X141593Y72972D01*
X141557Y73017D01*
X141524Y73061D01*
X141496Y73108D01*
X141474Y73155D01*
X141452Y73202D01*
X141435Y73246D01*
X141421Y73291D01*
X141410Y73332D01*
X141402Y73374D01*
X141396Y73410D01*
X141391Y73440D01*
X141388Y73468D01*
X141385Y73493D01*
Y73510D01*
Y73521D01*
Y73523D01*
X141388Y73593D01*
X141396Y73659D01*
X141410Y73717D01*
X141424Y73770D01*
X141441Y73812D01*
X141446Y73831D01*
X141452Y73845D01*
X141457Y73856D01*
X141463Y73864D01*
X141466Y73870D01*
Y73872D01*
X141496Y73931D01*
X141529Y73978D01*
X141565Y74022D01*
X141596Y74055D01*
X141626Y74083D01*
X141648Y74102D01*
X141665Y74116D01*
X141668Y74119D01*
X141671D01*
X141720Y74149D01*
X141773Y74174D01*
X141826Y74196D01*
X141876Y74213D01*
X141920Y74227D01*
X141939Y74230D01*
X141956Y74235D01*
X141967Y74238D01*
X141978D01*
X141984Y74241D01*
X141986D01*
X142011Y74246D01*
X142042Y74249D01*
X142103Y74255D01*
X142166Y74260D01*
X142230Y74263D01*
X142286Y74266D01*
X143338D01*
Y71709D01*
D02*
G37*
G36*
X137579D02*
X137241D01*
Y72845D01*
X136806D01*
X136768Y72842D01*
X136734Y72839D01*
X136707D01*
X136687Y72837D01*
X136673Y72834D01*
X136665Y72831D01*
X136662D01*
X136632Y72823D01*
X136604Y72812D01*
X136579Y72800D01*
X136554Y72789D01*
X136535Y72778D01*
X136521Y72770D01*
X136510Y72764D01*
X136507Y72762D01*
X136480Y72742D01*
X136449Y72715D01*
X136419Y72687D01*
X136394Y72659D01*
X136369Y72634D01*
X136352Y72612D01*
X136341Y72598D01*
X136336Y72596D01*
Y72593D01*
X136297Y72543D01*
X136255Y72487D01*
X136216Y72429D01*
X136178Y72371D01*
X136144Y72321D01*
X136128Y72299D01*
X136117Y72280D01*
X136106Y72263D01*
X136097Y72252D01*
X136095Y72244D01*
X136092Y72241D01*
X135754Y71709D01*
X135330D01*
X135773Y72404D01*
X135823Y72476D01*
X135873Y72543D01*
X135920Y72601D01*
X135962Y72651D01*
X135998Y72690D01*
X136014Y72706D01*
X136028Y72720D01*
X136039Y72731D01*
X136047Y72739D01*
X136050Y72742D01*
X136053Y72745D01*
X136081Y72767D01*
X136114Y72792D01*
X136147Y72812D01*
X136180Y72831D01*
X136211Y72847D01*
X136236Y72861D01*
X136252Y72870D01*
X136255Y72873D01*
X136258D01*
X136191Y72884D01*
X136128Y72897D01*
X136070Y72914D01*
X136017Y72931D01*
X135967Y72950D01*
X135923Y72969D01*
X135884Y72989D01*
X135848Y73008D01*
X135815Y73028D01*
X135787Y73047D01*
X135765Y73064D01*
X135746Y73077D01*
X135732Y73091D01*
X135721Y73100D01*
X135715Y73105D01*
X135712Y73108D01*
X135682Y73144D01*
X135654Y73180D01*
X135629Y73219D01*
X135610Y73257D01*
X135593Y73296D01*
X135579Y73335D01*
X135557Y73407D01*
X135549Y73440D01*
X135543Y73471D01*
X135541Y73498D01*
X135538Y73523D01*
X135535Y73540D01*
Y73557D01*
Y73565D01*
Y73568D01*
X135541Y73645D01*
X135552Y73717D01*
X135568Y73781D01*
X135588Y73839D01*
X135599Y73864D01*
X135610Y73886D01*
X135618Y73906D01*
X135626Y73922D01*
X135632Y73936D01*
X135637Y73944D01*
X135643Y73950D01*
Y73953D01*
X135685Y74014D01*
X135732Y74064D01*
X135779Y74108D01*
X135826Y74141D01*
X135865Y74166D01*
X135898Y74183D01*
X135912Y74188D01*
X135920Y74194D01*
X135926Y74196D01*
X135928D01*
X135964Y74208D01*
X136000Y74219D01*
X136083Y74235D01*
X136169Y74249D01*
X136252Y74257D01*
X136294Y74260D01*
X136330Y74263D01*
X136361D01*
X136391Y74266D01*
X137579D01*
Y71709D01*
D02*
G37*
G36*
X145654Y71000D02*
X143574D01*
Y71227D01*
X145654D01*
Y71000D01*
D02*
G37*
%LPC*%
G36*
X152084Y116440D02*
X152076D01*
X152070D01*
X152068D01*
X152023Y116437D01*
X151979Y116429D01*
X151940Y116418D01*
X151907Y116407D01*
X151877Y116393D01*
X151857Y116382D01*
X151843Y116374D01*
X151838Y116371D01*
X151802Y116343D01*
X151769Y116310D01*
X151744Y116277D01*
X151722Y116246D01*
X151705Y116216D01*
X151694Y116193D01*
X151688Y116177D01*
X151686Y116174D01*
Y116171D01*
X151669Y116119D01*
X151658Y116061D01*
X151649Y116000D01*
X151644Y115942D01*
X151641Y115889D01*
Y115867D01*
X151638Y115847D01*
Y115083D01*
X152483D01*
Y115944D01*
X152478Y115991D01*
X152472Y116036D01*
X152464Y116077D01*
X152456Y116113D01*
X152445Y116146D01*
X152436Y116177D01*
X152425Y116205D01*
X152414Y116229D01*
X152403Y116249D01*
X152392Y116268D01*
X152383Y116282D01*
X152375Y116293D01*
X152370Y116302D01*
X152367Y116304D01*
X152364Y116307D01*
X152342Y116329D01*
X152317Y116351D01*
X152270Y116385D01*
X152220Y116407D01*
X152173Y116423D01*
X152131Y116435D01*
X152112Y116437D01*
X152098D01*
X152084Y116440D01*
D02*
G37*
G36*
X152043Y110590D02*
X152032D01*
X152023D01*
X152018D01*
X152015D01*
X151974Y110587D01*
X151938Y110584D01*
X151868Y110568D01*
X151810Y110546D01*
X151760Y110521D01*
X151722Y110496D01*
X151694Y110474D01*
X151686Y110465D01*
X151677Y110457D01*
X151674Y110454D01*
X151672Y110451D01*
X151649Y110424D01*
X151633Y110390D01*
X151616Y110357D01*
X151602Y110321D01*
X151580Y110244D01*
X151566Y110166D01*
X151561Y110130D01*
X151555Y110094D01*
X151552Y110064D01*
Y110036D01*
X151550Y110014D01*
Y109324D01*
X152464D01*
Y110058D01*
X152461Y110091D01*
Y110125D01*
X152458Y110152D01*
X152456Y110180D01*
X152453Y110202D01*
Y110221D01*
X152447Y110255D01*
X152442Y110277D01*
X152439Y110291D01*
Y110293D01*
X152422Y110340D01*
X152400Y110382D01*
X152375Y110418D01*
X152350Y110451D01*
X152328Y110474D01*
X152309Y110493D01*
X152295Y110504D01*
X152289Y110507D01*
X152245Y110534D01*
X152198Y110554D01*
X152154Y110570D01*
X152109Y110579D01*
X152073Y110584D01*
X152043Y110590D01*
D02*
G37*
G36*
X59000Y160964D02*
X58266D01*
X58233Y160961D01*
X58200D01*
X58172Y160958D01*
X58144Y160956D01*
X58122Y160953D01*
X58103D01*
X58069Y160947D01*
X58047Y160942D01*
X58034Y160939D01*
X58031D01*
X57984Y160922D01*
X57942Y160900D01*
X57906Y160875D01*
X57873Y160850D01*
X57851Y160828D01*
X57831Y160809D01*
X57820Y160795D01*
X57817Y160789D01*
X57790Y160745D01*
X57770Y160698D01*
X57754Y160654D01*
X57745Y160609D01*
X57740Y160573D01*
X57734Y160543D01*
Y160532D01*
Y160523D01*
Y160518D01*
Y160515D01*
X57737Y160474D01*
X57740Y160438D01*
X57757Y160368D01*
X57779Y160310D01*
X57804Y160260D01*
X57828Y160222D01*
X57851Y160194D01*
X57859Y160186D01*
X57867Y160177D01*
X57870Y160174D01*
X57873Y160172D01*
X57901Y160150D01*
X57934Y160133D01*
X57967Y160116D01*
X58003Y160102D01*
X58081Y160080D01*
X58158Y160066D01*
X58194Y160061D01*
X58230Y160055D01*
X58261Y160053D01*
X58288D01*
X58311Y160050D01*
X59000D01*
Y160964D01*
D02*
G37*
G36*
X53241Y160983D02*
X52380D01*
X52333Y160978D01*
X52289Y160972D01*
X52247Y160964D01*
X52211Y160956D01*
X52178Y160944D01*
X52147Y160936D01*
X52119Y160925D01*
X52095Y160914D01*
X52075Y160903D01*
X52056Y160892D01*
X52042Y160883D01*
X52031Y160875D01*
X52023Y160870D01*
X52020Y160867D01*
X52017Y160864D01*
X51995Y160842D01*
X51973Y160817D01*
X51939Y160770D01*
X51917Y160720D01*
X51901Y160673D01*
X51890Y160631D01*
X51887Y160612D01*
Y160598D01*
X51884Y160584D01*
Y160576D01*
Y160571D01*
Y160568D01*
X51887Y160523D01*
X51895Y160479D01*
X51906Y160440D01*
X51917Y160407D01*
X51931Y160377D01*
X51942Y160357D01*
X51951Y160343D01*
X51953Y160338D01*
X51981Y160302D01*
X52014Y160269D01*
X52047Y160244D01*
X52078Y160222D01*
X52108Y160205D01*
X52131Y160194D01*
X52147Y160188D01*
X52150Y160186D01*
X52153D01*
X52205Y160169D01*
X52264Y160158D01*
X52324Y160150D01*
X52383Y160144D01*
X52435Y160141D01*
X52457D01*
X52477Y160138D01*
X53241D01*
Y160983D01*
D02*
G37*
G36*
X143000Y73964D02*
X142266D01*
X142233Y73961D01*
X142200D01*
X142172Y73958D01*
X142144Y73956D01*
X142122Y73953D01*
X142103D01*
X142069Y73947D01*
X142047Y73942D01*
X142034Y73939D01*
X142031D01*
X141984Y73922D01*
X141942Y73900D01*
X141906Y73875D01*
X141873Y73850D01*
X141851Y73828D01*
X141831Y73809D01*
X141820Y73795D01*
X141817Y73789D01*
X141790Y73745D01*
X141770Y73698D01*
X141754Y73654D01*
X141745Y73609D01*
X141740Y73573D01*
X141734Y73543D01*
Y73532D01*
Y73523D01*
Y73518D01*
Y73515D01*
X141737Y73474D01*
X141740Y73438D01*
X141756Y73368D01*
X141779Y73310D01*
X141804Y73260D01*
X141829Y73221D01*
X141851Y73194D01*
X141859Y73185D01*
X141867Y73177D01*
X141870Y73174D01*
X141873Y73172D01*
X141901Y73150D01*
X141934Y73133D01*
X141967Y73116D01*
X142003Y73102D01*
X142081Y73080D01*
X142158Y73066D01*
X142194Y73061D01*
X142230Y73055D01*
X142261Y73053D01*
X142288D01*
X142311Y73050D01*
X143000D01*
Y73964D01*
D02*
G37*
G36*
X137241Y73983D02*
X136380D01*
X136333Y73978D01*
X136288Y73972D01*
X136247Y73964D01*
X136211Y73956D01*
X136178Y73944D01*
X136147Y73936D01*
X136119Y73925D01*
X136095Y73914D01*
X136075Y73903D01*
X136056Y73892D01*
X136042Y73883D01*
X136031Y73875D01*
X136023Y73870D01*
X136020Y73867D01*
X136017Y73864D01*
X135995Y73842D01*
X135973Y73817D01*
X135940Y73770D01*
X135917Y73720D01*
X135901Y73673D01*
X135890Y73631D01*
X135887Y73612D01*
Y73598D01*
X135884Y73584D01*
Y73576D01*
Y73571D01*
Y73568D01*
X135887Y73523D01*
X135895Y73479D01*
X135906Y73440D01*
X135917Y73407D01*
X135931Y73377D01*
X135942Y73357D01*
X135951Y73343D01*
X135953Y73338D01*
X135981Y73302D01*
X136014Y73269D01*
X136047Y73244D01*
X136078Y73221D01*
X136108Y73205D01*
X136131Y73194D01*
X136147Y73188D01*
X136150Y73185D01*
X136153D01*
X136205Y73169D01*
X136264Y73158D01*
X136325Y73150D01*
X136383Y73144D01*
X136435Y73141D01*
X136458D01*
X136477Y73138D01*
X137241D01*
Y73983D01*
D02*
G37*
%LPD*%
D13*
X136114Y88858D02*
X162886D01*
X136114D02*
Y121142D01*
X162886D01*
Y88858D02*
Y121142D01*
X58673Y161248D02*
X69327D01*
X58673Y154752D02*
Y161248D01*
Y154752D02*
X69327D01*
Y161248D01*
X154299Y66866D02*
Y75134D01*
X141701Y66866D02*
X154299D01*
X141701D02*
Y75134D01*
X154299D01*
M02*
