G04*
G04 #@! TF.GenerationSoftware,Altium Limited,Altium Designer,23.1.1 (15)*
G04*
G04 Layer_Color=2752767*
%FSLAX25Y25*%
%MOIN*%
G70*
G04*
G04 #@! TF.SameCoordinates,4416291F-A030-49B4-A21B-4109523D90D4*
G04*
G04*
G04 #@! TF.FilePolarity,Positive*
G04*
G01*
G75*
%ADD77C,0.00500*%
%ADD78C,0.00667*%
D77*
X77236Y17134D02*
Y21134D01*
X81236D01*
Y17134D01*
X77236D01*
X92000Y63000D02*
Y67000D01*
X96000D01*
Y63000D01*
X92000D01*
X106764Y17134D02*
Y21134D01*
X110764D01*
Y17134D01*
X106764D01*
X173500Y90000D02*
X175500Y92000D01*
X177500Y90000D01*
X175500Y88000D01*
X173500Y90000D01*
Y100000D02*
X175500Y102000D01*
X177500Y100000D01*
X175500Y98000D01*
X173500Y100000D01*
X98500Y4500D02*
Y8500D01*
X102500D01*
Y4500D01*
X98500D01*
X20500Y124500D02*
X22500Y126500D01*
X24500Y124500D01*
X22500Y122500D01*
X20500Y124500D01*
Y114500D02*
X22500Y116500D01*
X24500Y114500D01*
X22500Y112500D01*
X20500Y114500D01*
X125000Y135000D02*
X123000Y139000D01*
X127000D01*
X125000Y135000D01*
Y166500D02*
X123000Y170500D01*
X127000D01*
X125000Y166500D01*
X32500Y32500D02*
Y36500D01*
X36500D01*
Y32500D01*
X32500D01*
X19500Y55000D02*
Y59000D01*
X23500D01*
Y55000D01*
X19500D01*
Y65000D02*
Y69000D01*
X23500D01*
Y65000D01*
X19500D01*
Y75000D02*
Y79000D01*
X23500D01*
Y75000D01*
X19500D01*
Y85000D02*
Y89000D01*
X23500D01*
Y85000D01*
X19500D01*
Y95000D02*
Y99000D01*
X23500D01*
Y95000D01*
X19500D01*
X26500Y136500D02*
Y140500D01*
X30500D01*
Y136500D01*
X26500D01*
X16500D02*
Y140500D01*
X20500D01*
Y136500D01*
X16500D01*
X175500Y65000D02*
Y69000D01*
X179500D01*
Y65000D01*
X175500D01*
X46000Y25000D02*
Y29000D01*
X50000D01*
Y25000D01*
X46000D01*
X56000D02*
Y29000D01*
X60000D01*
Y25000D01*
X56000D01*
X137399Y75800D02*
X138399Y76800D01*
X139399D01*
X138399Y77800D01*
X139399Y78800D01*
X138399D01*
X137399Y79800D01*
X136399Y78800D01*
X135399D01*
X136399Y77800D01*
X135399Y76800D01*
X136399D01*
X137399Y75800D01*
X64500Y34500D02*
X65500Y35500D01*
X66500D01*
X65500Y36500D01*
X66500Y37500D01*
X65500D01*
X64500Y38500D01*
X63500Y37500D01*
X62500D01*
X63500Y36500D01*
X62500Y35500D01*
X63500D01*
X64500Y34500D01*
X68500Y38800D02*
X69500Y39800D01*
X70500D01*
X69500Y40800D01*
X70500Y41800D01*
X69500D01*
X68500Y42800D01*
X67500Y41800D01*
X66500D01*
X67500Y40800D01*
X66500Y39800D01*
X67500D01*
X68500Y38800D01*
X97000Y33500D02*
X98000Y34500D01*
X99000D01*
X98000Y35500D01*
X99000Y36500D01*
X98000D01*
X97000Y37500D01*
X96000Y36500D01*
X95000D01*
X96000Y35500D01*
X95000Y34500D01*
X96000D01*
X97000Y33500D01*
X110500Y64000D02*
X111500Y65000D01*
X112500D01*
X111500Y66000D01*
X112500Y67000D01*
X111500D01*
X110500Y68000D01*
X109500Y67000D01*
X108500D01*
X109500Y66000D01*
X108500Y65000D01*
X109500D01*
X110500Y64000D01*
X118000Y81510D02*
X119000Y82510D01*
X120000D01*
X119000Y83510D01*
X120000Y84510D01*
X119000D01*
X118000Y85510D01*
X117000Y84510D01*
X116000D01*
X117000Y83510D01*
X116000Y82510D01*
X117000D01*
X118000Y81510D01*
X125250Y11050D02*
X126250Y12050D01*
X127250D01*
X126250Y13050D01*
X127250Y14050D01*
X126250D01*
X125250Y15050D01*
X124250Y14050D01*
X123250D01*
X124250Y13050D01*
X123250Y12050D01*
X124250D01*
X125250Y11050D01*
X119000Y10000D02*
X120000Y11000D01*
X121000D01*
X120000Y12000D01*
X121000Y13000D01*
X120000D01*
X119000Y14000D01*
X118000Y13000D01*
X117000D01*
X118000Y12000D01*
X117000Y11000D01*
X118000D01*
X119000Y10000D01*
X97500Y40000D02*
X98500Y41000D01*
X99500D01*
X98500Y42000D01*
X99500Y43000D01*
X98500D01*
X97500Y44000D01*
X96500Y43000D01*
X95500D01*
X96500Y42000D01*
X95500Y41000D01*
X96500D01*
X97500Y40000D01*
X44000Y88500D02*
X45000Y89500D01*
X46000D01*
X45000Y90500D01*
X46000Y91500D01*
X45000D01*
X44000Y92500D01*
X43000Y91500D01*
X42000D01*
X43000Y90500D01*
X42000Y89500D01*
X43000D01*
X44000Y88500D01*
X38000Y89000D02*
X39000Y90000D01*
X40000D01*
X39000Y91000D01*
X40000Y92000D01*
X39000D01*
X38000Y93000D01*
X37000Y92000D01*
X36000D01*
X37000Y91000D01*
X36000Y90000D01*
X37000D01*
X38000Y89000D01*
X41000Y108000D02*
X42000Y109000D01*
X43000D01*
X42000Y110000D01*
X43000Y111000D01*
X42000D01*
X41000Y112000D01*
X40000Y111000D01*
X39000D01*
X40000Y110000D01*
X39000Y109000D01*
X40000D01*
X41000Y108000D01*
X62330Y105670D02*
X63330Y106670D01*
X64330D01*
X63330Y107670D01*
X64330Y108670D01*
X63330D01*
X62330Y109670D01*
X61330Y108670D01*
X60330D01*
X61330Y107670D01*
X60330Y106670D01*
X61330D01*
X62330Y105670D01*
X88690Y21009D02*
X89690Y22009D01*
X90690D01*
X89690Y23009D01*
X90690Y24009D01*
X89690D01*
X88690Y25009D01*
X87690Y24009D01*
X86690D01*
X87690Y23009D01*
X86690Y22009D01*
X87690D01*
X88690Y21009D01*
X81019Y62019D02*
X82019Y63019D01*
X83019D01*
X82019Y64019D01*
X83019Y65019D01*
X82019D01*
X81019Y66019D01*
X80019Y65019D01*
X79019D01*
X80019Y64019D01*
X79019Y63019D01*
X80019D01*
X81019Y62019D01*
X84650Y65179D02*
X85650Y66179D01*
X86650D01*
X85650Y67179D01*
X86650Y68179D01*
X85650D01*
X84650Y69179D01*
X83650Y68179D01*
X82650D01*
X83650Y67179D01*
X82650Y66179D01*
X83650D01*
X84650Y65179D01*
X154000Y111000D02*
X155000Y112000D01*
X156000D01*
X155000Y113000D01*
X156000Y114000D01*
X155000D01*
X154000Y115000D01*
X153000Y114000D01*
X152000D01*
X153000Y113000D01*
X152000Y112000D01*
X153000D01*
X154000Y111000D01*
X144500Y106000D02*
X145500Y107000D01*
X146500D01*
X145500Y108000D01*
X146500Y109000D01*
X145500D01*
X144500Y110000D01*
X143500Y109000D01*
X142500D01*
X143500Y108000D01*
X142500Y107000D01*
X143500D01*
X144500Y106000D01*
X135039Y112039D02*
X136039Y113039D01*
X137039D01*
X136039Y114039D01*
X137039Y115039D01*
X136039D01*
X135039Y116039D01*
X134039Y115039D01*
X133039D01*
X134039Y114039D01*
X133039Y113039D01*
X134039D01*
X135039Y112039D01*
X139360Y89500D02*
X140360Y90500D01*
X141360D01*
X140360Y91500D01*
X141360Y92500D01*
X140360D01*
X139360Y93500D01*
X138360Y92500D01*
X137360D01*
X138360Y91500D01*
X137360Y90500D01*
X138360D01*
X139360Y89500D01*
X156700Y80900D02*
X157700Y81900D01*
X158700D01*
X157700Y82900D01*
X158700Y83900D01*
X157700D01*
X156700Y84900D01*
X155700Y83900D01*
X154700D01*
X155700Y82900D01*
X154700Y81900D01*
X155700D01*
X156700Y80900D01*
X98900Y95400D02*
X99900Y96400D01*
X100900D01*
X99900Y97400D01*
X100900Y98400D01*
X99900D01*
X98900Y99400D01*
X97900Y98400D01*
X96900D01*
X97900Y97400D01*
X96900Y96400D01*
X97900D01*
X98900Y95400D01*
X103700Y72256D02*
X104700Y73256D01*
X105700D01*
X104700Y74256D01*
X105700Y75256D01*
X104700D01*
X103700Y76256D01*
X102700Y75256D01*
X101700D01*
X102700Y74256D01*
X101700Y73256D01*
X102700D01*
X103700Y72256D01*
Y61200D02*
X104700Y62200D01*
X105700D01*
X104700Y63200D01*
X105700Y64200D01*
X104700D01*
X103700Y65200D01*
X102700Y64200D01*
X101700D01*
X102700Y63200D01*
X101700Y62200D01*
X102700D01*
X103700Y61200D01*
X69800Y10900D02*
X70800Y11900D01*
X71800D01*
X70800Y12900D01*
X71800Y13900D01*
X70800D01*
X69800Y14900D01*
X68800Y13900D01*
X67800D01*
X68800Y12900D01*
X67800Y11900D01*
X68800D01*
X69800Y10900D01*
X71500Y105700D02*
X72500Y106700D01*
X73500D01*
X72500Y107700D01*
X73500Y108700D01*
X72500D01*
X71500Y109700D01*
X70500Y108700D01*
X69500D01*
X70500Y107700D01*
X69500Y106700D01*
X70500D01*
X71500Y105700D01*
X59200Y68700D02*
X60200Y69700D01*
X61200D01*
X60200Y70700D01*
X61200Y71700D01*
X60200D01*
X59200Y72700D01*
X58200Y71700D01*
X57200D01*
X58200Y70700D01*
X57200Y69700D01*
X58200D01*
X59200Y68700D01*
X77300Y112000D02*
X78300Y113000D01*
X79300D01*
X78300Y114000D01*
X79300Y115000D01*
X78300D01*
X77300Y116000D01*
X76300Y115000D01*
X75300D01*
X76300Y114000D01*
X75300Y113000D01*
X76300D01*
X77300Y112000D01*
X82400Y82300D02*
X83400Y83300D01*
X84400D01*
X83400Y84300D01*
X84400Y85300D01*
X83400D01*
X82400Y86300D01*
X81400Y85300D01*
X80400D01*
X81400Y84300D01*
X80400Y83300D01*
X81400D01*
X82400Y82300D01*
X117700Y151400D02*
X118700Y152400D01*
X119700D01*
X118700Y153400D01*
X119700Y154400D01*
X118700D01*
X117700Y155400D01*
X116700Y154400D01*
X115700D01*
X116700Y153400D01*
X115700Y152400D01*
X116700D01*
X117700Y151400D01*
Y112000D02*
X118700Y113000D01*
X119700D01*
X118700Y114000D01*
X119700Y115000D01*
X118700D01*
X117700Y116000D01*
X116700Y115000D01*
X115700D01*
X116700Y114000D01*
X115700Y113000D01*
X116700D01*
X117700Y112000D01*
X45216Y165050D02*
X46216Y166050D01*
X47216D01*
X46216Y167050D01*
X47216Y168050D01*
X46216D01*
X45216Y169050D01*
X44216Y168050D01*
X43216D01*
X44216Y167050D01*
X43216Y166050D01*
X44216D01*
X45216Y165050D01*
X31866Y160300D02*
X32866Y161300D01*
X33866D01*
X32866Y162300D01*
X33866Y163300D01*
X32866D01*
X31866Y164300D01*
X30866Y163300D01*
X29866D01*
X30866Y162300D01*
X29866Y161300D01*
X30866D01*
X31866Y160300D01*
X48100D02*
X49100Y161300D01*
X50100D01*
X49100Y162300D01*
X50100Y163300D01*
X49100D01*
X48100Y164300D01*
X47100Y163300D01*
X46100D01*
X47100Y162300D01*
X46100Y161300D01*
X47100D01*
X48100Y160300D01*
X77500Y152100D02*
X78500Y153100D01*
X79500D01*
X78500Y154100D01*
X79500Y155100D01*
X78500D01*
X77500Y156100D01*
X76500Y155100D01*
X75500D01*
X76500Y154100D01*
X75500Y153100D01*
X76500D01*
X77500Y152100D01*
X140600Y171500D02*
X141600Y172500D01*
X142600D01*
X141600Y173500D01*
X142600Y174500D01*
X141600D01*
X140600Y175500D01*
X139600Y174500D01*
X138600D01*
X139600Y173500D01*
X138600Y172500D01*
X139600D01*
X140600Y171500D01*
D78*
X162000Y132157D02*
G03*
X162000Y132157I-2000J0D01*
G01*
Y151843D02*
G03*
X162000Y151843I-2000J0D01*
G01*
M02*
