G04*
G04 #@! TF.GenerationSoftware,Altium Limited,Altium Designer,23.1.1 (15)*
G04*
G04 Layer_Color=32768*
%FSLAX25Y25*%
%MOIN*%
G70*
G04*
G04 #@! TF.SameCoordinates,21B55FED-B8B4-48E4-904C-F60C8F1E3AA0*
G04*
G04*
G04 #@! TF.FilePolarity,Positive*
G04*
G01*
G75*
%ADD12C,0.00394*%
%ADD13C,0.00787*%
%ADD14C,0.01500*%
%ADD67C,0.00197*%
D12*
X110252Y112276D02*
X142929D01*
Y141724D01*
X110252D02*
X142929D01*
X110252Y112276D02*
Y141724D01*
X69075Y141823D02*
X115925D01*
Y111311D02*
Y141823D01*
X69075Y111311D02*
X115925D01*
X69075D02*
Y141823D01*
X65031Y135000D02*
X68969D01*
X67000Y133031D02*
Y136969D01*
X128500Y63031D02*
Y66969D01*
X126531Y65000D02*
X130469D01*
X69252Y58776D02*
Y88224D01*
X101929D01*
Y58776D02*
Y88224D01*
X69252Y58776D02*
X101929D01*
D13*
X74055Y114083D02*
X105945D01*
Y86917D02*
Y114083D01*
X74055Y86917D02*
X105945D01*
X74055D02*
Y114083D01*
X106630Y114398D02*
X135370D01*
X106630Y76602D02*
Y114398D01*
Y76602D02*
X135370D01*
Y114398D01*
X60606Y131644D02*
X71394D01*
X60606Y70356D02*
Y131644D01*
Y70356D02*
X71394D01*
Y131644D01*
X136087Y116543D02*
X150811D01*
X136087Y77803D02*
Y116543D01*
Y77803D02*
X150811D01*
Y116543D01*
X100504Y61307D02*
X114496D01*
Y74693D01*
X100504D02*
X114496D01*
X100504Y61307D02*
Y74693D01*
X98334Y89705D02*
X105666D01*
X98334Y76295D02*
Y89705D01*
Y76295D02*
X105666D01*
Y89705D01*
D14*
X120610Y68154D02*
X134390D01*
X120610D02*
Y74846D01*
X134390D01*
Y68154D02*
Y74846D01*
D67*
X61488Y132047D02*
Y137953D01*
X72512Y132047D02*
Y137953D01*
X61488D02*
X72512D01*
X61488Y132047D02*
X72512D01*
X122988Y67953D02*
X134012D01*
X122988Y62047D02*
X134012D01*
X122988D02*
Y67953D01*
X134012Y62047D02*
Y67953D01*
X70366Y48213D02*
X123634D01*
X70366Y59787D02*
X123634D01*
Y48213D02*
Y59787D01*
X70366Y48213D02*
Y59787D01*
M02*
