G04*
G04 #@! TF.GenerationSoftware,Altium Limited,Altium Designer,23.1.1 (15)*
G04*
G04 Layer_Color=16711935*
%FSLAX25Y25*%
%MOIN*%
G70*
G04*
G04 #@! TF.SameCoordinates,B1DE690B-BA36-4FB7-BAA6-9E49350ABFFB*
G04*
G04*
G04 #@! TF.FilePolarity,Positive*
G04*
G01*
G75*
%ADD11C,0.00394*%
%ADD13C,0.00787*%
%ADD15C,0.01500*%
%ADD63C,0.00197*%
D11*
X147000Y52532D02*
Y56469D01*
X145032Y54500D02*
X148969D01*
D13*
X136114Y88858D02*
X162886D01*
X136114D02*
Y121142D01*
X162886D01*
Y88858D02*
Y121142D01*
X58673Y161248D02*
X69327D01*
X58673Y154752D02*
Y161248D01*
Y154752D02*
X69327D01*
Y161248D01*
X154299Y66866D02*
Y75134D01*
X141701Y66866D02*
X154299D01*
X141701D02*
Y75134D01*
X154299D01*
D15*
X156162Y33457D02*
Y40543D01*
X138839Y33457D02*
X156162D01*
X138839D02*
Y40543D01*
X156162D01*
X147500Y35031D02*
Y38968D01*
X145532Y37000D02*
X149469D01*
X93000Y50031D02*
Y53969D01*
X91031Y52000D02*
X94969D01*
X75579Y37039D02*
X110421D01*
X75579Y66961D02*
X110421D01*
X75579Y37039D02*
Y66961D01*
X110421Y37039D02*
Y66961D01*
D63*
X110665Y79173D02*
Y100827D01*
X81335Y79173D02*
X110665D01*
X81335D02*
Y100827D01*
X110665D01*
X109165Y106673D02*
Y128327D01*
X79835Y106673D02*
X109165D01*
X79835D02*
Y128327D01*
X109165D01*
X141488Y51154D02*
X152512D01*
X141488Y57846D02*
X152512D01*
X141488Y51154D02*
Y57846D01*
X152512Y51154D02*
Y57846D01*
M02*
