G04*
G04 #@! TF.GenerationSoftware,Altium Limited,Altium Designer,23.1.1 (15)*
G04*
G04 Layer_Color=255*
%FSLAX25Y25*%
%MOIN*%
G70*
G04*
G04 #@! TF.SameCoordinates,21B55FED-B8B4-48E4-904C-F60C8F1E3AA0*
G04*
G04*
G04 #@! TF.FilePolarity,Positive*
G04*
G01*
G75*
%ADD18R,0.03347X0.05118*%
%ADD31C,0.06181*%
%ADD32R,0.06181X0.06181*%
G04:AMPARAMS|DCode=33|XSize=39.37mil|YSize=66.93mil|CornerRadius=19.68mil|HoleSize=0mil|Usage=FLASHONLY|Rotation=270.000|XOffset=0mil|YOffset=0mil|HoleType=Round|Shape=RoundedRectangle|*
%AMROUNDEDRECTD33*
21,1,0.03937,0.02756,0,0,270.0*
21,1,0.00000,0.06693,0,0,270.0*
1,1,0.03937,-0.01378,0.00000*
1,1,0.03937,-0.01378,0.00000*
1,1,0.03937,0.01378,0.00000*
1,1,0.03937,0.01378,0.00000*
%
%ADD33ROUNDEDRECTD33*%
%ADD38C,0.05906*%
%ADD39R,0.05906X0.05906*%
%ADD40C,0.07677*%
%ADD41R,0.07677X0.07677*%
%ADD42C,0.05512*%
%ADD43R,0.05906X0.05906*%
%ADD44R,0.05984X0.05984*%
%ADD45C,0.05984*%
%ADD47R,0.05118X0.03347*%
%ADD48R,0.04546X0.05363*%
%ADD49R,0.04152X0.05339*%
%ADD50R,0.03150X0.03150*%
%ADD51R,0.05807X0.01772*%
%ADD52R,0.05118X0.05709*%
%ADD53R,0.05709X0.03740*%
%ADD54R,0.03740X0.05709*%
%ADD55R,0.02559X0.06004*%
%ADD56R,0.05512X0.03937*%
%ADD57R,0.04000X0.05315*%
%ADD58R,0.04528X0.05315*%
D18*
X141654Y106000D02*
D03*
X148346D02*
D03*
X95154Y73000D02*
D03*
X101846D02*
D03*
X95654Y65500D02*
D03*
X102346D02*
D03*
D31*
X66000Y76000D02*
D03*
Y86000D02*
D03*
Y96000D02*
D03*
Y106000D02*
D03*
Y116000D02*
D03*
D32*
Y126000D02*
D03*
D33*
X143370Y80165D02*
D03*
Y114181D02*
D03*
D38*
X113000Y144500D02*
D03*
X103000D02*
D03*
X93000D02*
D03*
X54500Y88000D02*
D03*
Y98000D02*
D03*
Y108000D02*
D03*
D39*
X83000Y144500D02*
D03*
D40*
X126000Y132000D02*
D03*
X85000Y78500D02*
D03*
D41*
X126000Y122000D02*
D03*
X85000Y68500D02*
D03*
D42*
X82657Y124500D02*
D03*
X92500D02*
D03*
X102343D02*
D03*
D43*
X54500Y118000D02*
D03*
D44*
X117000Y54000D02*
D03*
D45*
X107000D02*
D03*
X97000D02*
D03*
X87000D02*
D03*
X77000D02*
D03*
D47*
X56000Y78846D02*
D03*
Y72154D02*
D03*
X75500Y75154D02*
D03*
Y81846D02*
D03*
D48*
X135052Y121500D02*
D03*
X141948D02*
D03*
X101948Y82000D02*
D03*
X95052D02*
D03*
D49*
X147857Y91000D02*
D03*
X142143D02*
D03*
D50*
X68000Y57776D02*
D03*
X71740Y67224D02*
D03*
X64260D02*
D03*
D51*
X79433Y90984D02*
D03*
Y93543D02*
D03*
Y96102D02*
D03*
Y98661D02*
D03*
Y101220D02*
D03*
Y103780D02*
D03*
Y106339D02*
D03*
Y108898D02*
D03*
Y111457D02*
D03*
Y114016D02*
D03*
X102567D02*
D03*
Y111457D02*
D03*
Y108898D02*
D03*
Y106339D02*
D03*
Y103780D02*
D03*
Y101220D02*
D03*
Y98661D02*
D03*
Y96102D02*
D03*
Y93543D02*
D03*
Y90984D02*
D03*
D52*
X112752Y63500D02*
D03*
X119248D02*
D03*
X112252Y71000D02*
D03*
X118748D02*
D03*
D53*
X114000Y124339D02*
D03*
Y116661D02*
D03*
D54*
X132839Y72000D02*
D03*
X125161D02*
D03*
D55*
X116500Y106177D02*
D03*
X121500D02*
D03*
X126500D02*
D03*
X131500D02*
D03*
Y84823D02*
D03*
X126500D02*
D03*
X121500D02*
D03*
X116500D02*
D03*
D56*
X114618Y134000D02*
D03*
X104382D02*
D03*
D57*
X147854Y99000D02*
D03*
D58*
X142146D02*
D03*
M02*
