G04*
G04 #@! TF.GenerationSoftware,Altium Limited,Altium Designer,23.1.1 (15)*
G04*
G04 Layer_Color=128*
%FSLAX25Y25*%
%MOIN*%
G70*
G04*
G04 #@! TF.SameCoordinates,21B55FED-B8B4-48E4-904C-F60C8F1E3AA0*
G04*
G04*
G04 #@! TF.FilePolarity,Positive*
G04*
G01*
G75*
%ADD18R,0.03347X0.05118*%
%ADD47R,0.05118X0.03347*%
%ADD48R,0.04546X0.05363*%
%ADD49R,0.04152X0.05339*%
%ADD50R,0.03150X0.03150*%
%ADD51R,0.05807X0.01772*%
%ADD52R,0.05118X0.05709*%
%ADD53R,0.05709X0.03740*%
%ADD54R,0.03740X0.05709*%
%ADD55R,0.02559X0.06004*%
%ADD56R,0.05512X0.03937*%
%ADD57R,0.04000X0.05315*%
%ADD58R,0.04528X0.05315*%
D18*
X141654Y106000D02*
D03*
X148346D02*
D03*
X95154Y73000D02*
D03*
X101846D02*
D03*
X95654Y65500D02*
D03*
X102346D02*
D03*
D47*
X56000Y78846D02*
D03*
Y72154D02*
D03*
X75500Y75154D02*
D03*
Y81846D02*
D03*
D48*
X135052Y121500D02*
D03*
X141948D02*
D03*
X101948Y82000D02*
D03*
X95052D02*
D03*
D49*
X147857Y91000D02*
D03*
X142143D02*
D03*
D50*
X68000Y57776D02*
D03*
X71740Y67224D02*
D03*
X64260D02*
D03*
D51*
X79433Y90984D02*
D03*
Y93543D02*
D03*
Y96102D02*
D03*
Y98661D02*
D03*
Y101220D02*
D03*
Y103780D02*
D03*
Y106339D02*
D03*
Y108898D02*
D03*
Y111457D02*
D03*
Y114016D02*
D03*
X102567D02*
D03*
Y111457D02*
D03*
Y108898D02*
D03*
Y106339D02*
D03*
Y103780D02*
D03*
Y101220D02*
D03*
Y98661D02*
D03*
Y96102D02*
D03*
Y93543D02*
D03*
Y90984D02*
D03*
D52*
X112752Y63500D02*
D03*
X119248D02*
D03*
X112252Y71000D02*
D03*
X118748D02*
D03*
D53*
X114000Y124339D02*
D03*
Y116661D02*
D03*
D54*
X132839Y72000D02*
D03*
X125161D02*
D03*
D55*
X116500Y106177D02*
D03*
X121500D02*
D03*
X126500D02*
D03*
X131500D02*
D03*
Y84823D02*
D03*
X126500D02*
D03*
X121500D02*
D03*
X116500D02*
D03*
D56*
X114618Y134000D02*
D03*
X104382D02*
D03*
D57*
X147854Y99000D02*
D03*
D58*
X142146D02*
D03*
M02*
