G04*
G04 #@! TF.GenerationSoftware,Altium Limited,Altium Designer,23.1.1 (15)*
G04*
G04 Layer_Color=32768*
%FSLAX25Y25*%
%MOIN*%
G70*
G04*
G04 #@! TF.SameCoordinates,21B55FED-B8B4-48E4-904C-F60C8F1E3AA0*
G04*
G04*
G04 #@! TF.FilePolarity,Positive*
G04*
G01*
G75*
%ADD12C,0.00394*%
%ADD13C,0.00787*%
%ADD14C,0.01500*%
D12*
X53343Y71169D02*
Y79831D01*
X58657Y71169D02*
Y79831D01*
X53343D02*
X58657D01*
X53343Y71169D02*
X58657D01*
X140669Y103343D02*
X149331D01*
X140669Y108657D02*
X149331D01*
X140669Y103343D02*
Y108657D01*
X149331Y103343D02*
Y108657D01*
X74102Y58957D02*
Y66043D01*
X61898Y58957D02*
Y66043D01*
Y58957D02*
X74102D01*
X61898Y66043D02*
X74102D01*
X82339Y89705D02*
X99661D01*
Y115295D01*
X82339D02*
X99661D01*
X82339Y89705D02*
Y115295D01*
Y92264D02*
X84898Y89705D01*
X111669Y60646D02*
X120331D01*
X111669Y66354D02*
X120331D01*
X111669Y60646D02*
Y66354D01*
X120331Y60646D02*
Y66354D01*
X111169Y68146D02*
X119831D01*
X111169Y73854D02*
X119831D01*
X111169Y68146D02*
Y73854D01*
X119831Y68146D02*
Y73854D01*
X94169Y70343D02*
X102831D01*
X94169Y75657D02*
X102831D01*
X94169Y70343D02*
Y75657D01*
X102831Y70343D02*
Y75657D01*
X94669Y62843D02*
X103331D01*
X94669Y68157D02*
X103331D01*
X94669Y62843D02*
Y68157D01*
X103331Y62843D02*
Y68157D01*
X114354Y87823D02*
Y103177D01*
Y87823D02*
X133646D01*
Y103177D01*
X114354D02*
X133646D01*
X114354Y98177D02*
X119354Y103177D01*
X78157Y74169D02*
Y82831D01*
X72843Y74169D02*
Y82831D01*
Y74169D02*
X78157D01*
X72843Y82831D02*
X78157D01*
X140650Y101854D02*
X149350D01*
X140650Y96146D02*
X149350D01*
Y101854D01*
X140650Y96146D02*
Y101854D01*
D13*
X134563Y119039D02*
X142437D01*
Y123961D01*
X134563D02*
X142437D01*
X134563Y119039D02*
Y123961D01*
X141063Y93461D02*
X148937D01*
X141063Y88539D02*
Y93461D01*
Y88539D02*
X148937D01*
Y93461D01*
X94563Y79539D02*
Y84461D01*
X102437D01*
Y79539D02*
Y84461D01*
X94563Y79539D02*
X102437D01*
X111244Y116268D02*
X116756D01*
X111244D02*
Y124732D01*
X116756D01*
Y116268D02*
Y124732D01*
X124768Y69244D02*
Y74756D01*
X133232D01*
Y69244D02*
Y74756D01*
X124768Y69244D02*
X133232D01*
D14*
X105563Y136362D02*
X113437D01*
X105563Y131638D02*
Y136362D01*
Y131638D02*
X113437D01*
Y136362D01*
M02*
