G04*
G04 #@! TF.GenerationSoftware,Altium Limited,Altium Designer,23.1.1 (15)*
G04*
G04 Layer_Color=8421504*
%FSLAX25Y25*%
%MOIN*%
G70*
G04*
G04 #@! TF.SameCoordinates,21B55FED-B8B4-48E4-904C-F60C8F1E3AA0*
G04*
G04*
G04 #@! TF.FilePolarity,Positive*
G04*
G01*
G75*
%ADD15R,0.05906X0.04724*%
%ADD16R,0.05906X0.12992*%
%ADD17R,0.06299X0.13780*%
%ADD18R,0.03347X0.05118*%
%ADD19R,0.07835X0.02756*%
%ADD20R,0.07835X0.03150*%
%ADD21R,0.07835X0.03543*%
%ADD22R,0.03150X0.03150*%
%ADD23R,0.04724X0.04724*%
%ADD24R,0.05363X0.04546*%
D15*
X77402Y109555D02*
D03*
Y100500D02*
D03*
Y91445D02*
D03*
D16*
X102598Y100500D02*
D03*
D17*
X121000Y84476D02*
D03*
Y106524D02*
D03*
D18*
X63654Y135000D02*
D03*
X70346D02*
D03*
X125154Y65000D02*
D03*
X131846D02*
D03*
D19*
X146500Y95205D02*
D03*
Y99142D02*
D03*
D20*
Y91189D02*
D03*
Y103157D02*
D03*
D21*
Y86346D02*
D03*
Y108000D02*
D03*
D22*
X107500Y72724D02*
D03*
X111240Y63276D02*
D03*
X103760D02*
D03*
D23*
X131634Y71500D02*
D03*
X123366D02*
D03*
D24*
X102000Y79552D02*
D03*
Y86448D02*
D03*
M02*
