G04*
G04 #@! TF.GenerationSoftware,Altium Limited,Altium Designer,23.1.1 (15)*
G04*
G04 Layer_Color=2752767*
%FSLAX25Y25*%
%MOIN*%
G70*
G04*
G04 #@! TF.SameCoordinates,2A32F405-7E1A-4497-8D0E-C4D04B09633D*
G04*
G04*
G04 #@! TF.FilePolarity,Positive*
G04*
G01*
G75*
%ADD63C,0.00500*%
%ADD64C,0.00667*%
D63*
X55500Y72500D02*
Y76500D01*
X59500D01*
Y72500D01*
X55500D01*
Y82500D02*
Y86500D01*
X59500D01*
Y82500D01*
X55500D01*
Y92500D02*
Y96500D01*
X59500D01*
Y92500D01*
X55500D01*
Y102500D02*
Y106500D01*
X59500D01*
Y102500D01*
X55500D01*
Y112500D02*
Y116500D01*
X59500D01*
Y112500D01*
X55500D01*
Y122500D02*
Y126500D01*
X59500D01*
Y122500D01*
X55500D01*
X124500Y121500D02*
X126500Y123500D01*
X128500Y121500D01*
X126500Y119500D01*
X124500Y121500D01*
Y131500D02*
X126500Y133500D01*
X128500Y131500D01*
X126500Y129500D01*
X124500Y131500D01*
X140870Y76508D02*
X141870D01*
X142870Y77508D01*
X143870Y76508D01*
X144870D01*
Y77508D01*
X143870Y78508D01*
X144870Y79508D01*
Y80508D01*
X143870D01*
X142870Y79508D01*
X141870Y80508D01*
X140870D01*
Y79508D01*
X141870Y78508D01*
X140870Y77508D01*
Y76508D01*
Y110524D02*
X141870D01*
X142870Y111524D01*
X143870Y110524D01*
X144870D01*
Y111524D01*
X143870Y112524D01*
X144870Y113524D01*
Y114524D01*
X143870D01*
X142870Y113524D01*
X141870Y114524D01*
X140870D01*
Y113524D01*
X141870Y112524D01*
X140870Y111524D01*
Y110524D01*
X102500Y130000D02*
X104500Y132000D01*
X106500Y130000D01*
X104500Y128000D01*
X102500Y130000D01*
X92500D02*
X94500Y132000D01*
X96500Y130000D01*
X94500Y128000D01*
X92500Y130000D01*
X82500D02*
X84500Y132000D01*
X86500Y130000D01*
X84500Y128000D01*
X82500Y130000D01*
X67000Y82000D02*
X68000Y84000D01*
X67000Y86000D01*
X69000Y85000D01*
X71000Y86000D01*
X70000Y84000D01*
X71000Y82000D01*
X69000Y83000D01*
X67000Y82000D01*
Y92000D02*
X68000Y94000D01*
X67000Y96000D01*
X69000Y95000D01*
X71000Y96000D01*
X70000Y94000D01*
X71000Y92000D01*
X69000Y93000D01*
X67000Y92000D01*
Y102000D02*
X68000Y104000D01*
X67000Y106000D01*
X69000Y105000D01*
X71000Y106000D01*
X70000Y104000D01*
X71000Y102000D01*
X69000Y103000D01*
X67000Y102000D01*
Y112000D02*
X68000Y114000D01*
X67000Y116000D01*
X69000Y115000D01*
X71000Y116000D01*
X70000Y114000D01*
X71000Y112000D01*
X69000Y113000D01*
X67000Y112000D01*
X90000Y74000D02*
X92000Y76000D01*
X94000Y74000D01*
X92000Y72000D01*
X90000Y74000D01*
X80000D02*
X82000Y76000D01*
X84000Y74000D01*
X82000Y72000D01*
X80000Y74000D01*
X115000Y53500D02*
Y57500D01*
X119000D01*
Y53500D01*
X115000D01*
X105000D02*
Y57500D01*
X109000D01*
Y53500D01*
X105000D01*
X95000D02*
Y57500D01*
X99000D01*
Y53500D01*
X95000D01*
X85000D02*
Y57500D01*
X89000D01*
Y53500D01*
X85000D01*
X75000D02*
Y57500D01*
X79000D01*
Y53500D01*
X75000D01*
D64*
X124000Y95100D02*
G03*
X124000Y95100I-2000J0D01*
G01*
X120000Y67500D02*
G03*
X120000Y67500I-2000J0D01*
G01*
Y71500D02*
G03*
X120000Y71500I-2000J0D01*
G01*
X113500Y80000D02*
G03*
X113500Y80000I-2000J0D01*
G01*
X94500Y103812D02*
G03*
X94500Y103812I-2000J0D01*
G01*
X90345Y102055D02*
G03*
X90345Y102055I-2000J0D01*
G01*
X94256Y98612D02*
G03*
X94256Y98612I-2000J0D01*
G01*
X114500Y105500D02*
G03*
X114500Y105500I-2000J0D01*
G01*
X114737Y111166D02*
G03*
X114737Y111166I-2000J0D01*
G01*
X132500Y113000D02*
G03*
X132500Y113000I-2000J0D01*
G01*
X108146Y144796D02*
G03*
X108146Y144796I-2000J0D01*
G01*
X106990Y140966D02*
G03*
X106990Y140966I-2000J0D01*
G01*
X91500Y137800D02*
G03*
X91500Y137800I-2000J0D01*
G01*
X62333Y68000D02*
G03*
X62333Y68000I-2000J0D01*
G01*
X140100Y93800D02*
G03*
X140100Y93800I-2000J0D01*
G01*
X127750Y56050D02*
G03*
X127750Y56050I-2000J0D01*
G01*
X52400Y119300D02*
G03*
X52400Y119300I-2000J0D01*
G01*
X80000Y88700D02*
G03*
X80000Y88700I-2000J0D01*
G01*
X129700Y95100D02*
G03*
X129700Y95100I-2000J0D01*
G01*
X132600Y87800D02*
G03*
X132600Y87800I-2000J0D01*
G01*
X139400D02*
G03*
X139400Y87800I-2000J0D01*
G01*
X115000Y95100D02*
G03*
X115000Y95100I-2000J0D01*
G01*
X53000Y99500D02*
G03*
X53000Y99500I-2000J0D01*
G01*
M02*
