G04*
G04 #@! TF.GenerationSoftware,Altium Limited,Altium Designer,23.1.1 (15)*
G04*
G04 Layer_Physical_Order=1*
G04 Layer_Color=255*
%FSLAX25Y25*%
%MOIN*%
G70*
G04*
G04 #@! TF.SameCoordinates,4416291F-A030-49B4-A21B-4109523D90D4*
G04*
G04*
G04 #@! TF.FilePolarity,Positive*
G04*
G01*
G75*
%ADD14C,0.01500*%
%ADD16R,0.04546X0.05363*%
%ADD17R,0.11811X0.13780*%
%ADD18R,0.02559X0.06004*%
%ADD19R,0.04724X0.04724*%
%ADD20R,0.05906X0.12992*%
%ADD21R,0.05906X0.04724*%
%ADD22R,0.03543X0.04331*%
%ADD23R,0.03543X0.04724*%
%ADD24R,0.03367X0.04969*%
%ADD25R,0.04000X0.05315*%
%ADD26R,0.04331X0.05315*%
%ADD27R,0.04331X0.02559*%
%ADD28R,0.03347X0.05118*%
%ADD38C,0.06181*%
%ADD42R,0.05118X0.05118*%
%ADD43C,0.05118*%
%ADD44R,0.06181X0.06181*%
%ADD46R,0.06024X0.06024*%
%ADD47C,0.06024*%
%ADD48R,0.07677X0.07677*%
%ADD49C,0.07677*%
%ADD50C,0.11811*%
%ADD51R,0.05984X0.05984*%
%ADD52C,0.05984*%
%ADD53C,0.03000*%
D14*
X132600Y34700D02*
X140121D01*
X141000Y35579D01*
Y80200D01*
X137500Y83700D02*
X141000Y80200D01*
X134878Y75018D02*
X137399Y77539D01*
Y77800D01*
X134878Y70122D02*
Y75018D01*
X136448Y27148D02*
X144300Y35000D01*
X136448Y23500D02*
Y27148D01*
X64500Y36500D02*
Y59100D01*
X91500Y86100D01*
X59000Y37500D02*
X66879Y29621D01*
X68121D01*
X59000Y37500D02*
Y53620D01*
X68121Y29621D02*
X75000Y36500D01*
X48740Y43760D02*
X63000Y29500D01*
Y26500D02*
Y29500D01*
X48740Y43760D02*
Y51640D01*
X68500Y40800D02*
Y58500D01*
X89400Y79400D01*
X46500Y66120D02*
X59000Y53620D01*
X94250Y38250D02*
Y45000D01*
Y38250D02*
X97000Y35500D01*
X105000Y77300D02*
X110500Y71800D01*
Y66000D02*
Y71800D01*
X34500Y34500D02*
Y44000D01*
X134756Y70000D02*
X134878Y70122D01*
X118000Y73444D02*
X128744Y62700D01*
X118000Y73444D02*
Y83510D01*
X128744Y55500D02*
Y62700D01*
X125100Y83700D02*
X137500D01*
X120000Y88800D02*
X125100Y83700D01*
X121350Y9150D02*
X125250Y13050D01*
X104850Y9150D02*
X121350D01*
X97500Y16500D02*
X104850Y9150D01*
X136448Y18458D02*
Y23500D01*
X108430Y29100D02*
X119073Y18458D01*
X136448D01*
X102609Y36891D02*
X103609D01*
X108430Y32070D01*
X97500Y42000D02*
X102609Y36891D01*
X44000Y90500D02*
X47200Y87300D01*
X74900D01*
X38000Y91000D02*
X41571Y94571D01*
X51970D02*
X52500Y95100D01*
X41571Y94571D02*
X51970D01*
X52500Y95100D02*
Y98545D01*
X41000Y110000D02*
X41045D01*
X52500Y98545D01*
X35000Y113400D02*
X57700Y136100D01*
X35879Y83500D02*
X46500D01*
X35000Y84379D02*
Y113400D01*
Y84379D02*
X35879Y83500D01*
X63481Y110550D02*
X69211Y104820D01*
X62415Y96908D02*
X62500Y96823D01*
X62415Y96908D02*
Y107585D01*
X62330Y107670D02*
X62415Y107585D01*
X57500Y110550D02*
X63481D01*
X69211Y104820D02*
X78420D01*
X62500Y92400D02*
Y96823D01*
X28000Y84500D02*
Y109000D01*
X21500Y77000D02*
Y78000D01*
X28000Y84500D01*
X22500Y114500D02*
X28000Y109000D01*
X89400Y79400D02*
X89800D01*
X96500Y86100D01*
Y87823D01*
X91500Y86100D02*
Y87823D01*
X75000Y36500D02*
Y62031D01*
X63000Y26500D02*
X83000Y6500D01*
X89500Y44300D02*
X96200Y51000D01*
X113800D02*
X116600Y48200D01*
X96200Y51000D02*
X113800D01*
X89500Y35850D02*
X102000Y23350D01*
X89500Y35850D02*
Y44300D01*
X81019Y30681D02*
Y64019D01*
Y30681D02*
X88690Y23009D01*
X97500Y16500D02*
Y22452D01*
X84650Y35302D02*
Y67179D01*
Y35302D02*
X97500Y22452D01*
X90270Y77300D02*
X105000D01*
X75000Y62031D02*
X90270Y77300D01*
X102000Y15651D02*
Y23350D01*
X108430Y29100D02*
Y32070D01*
X83000Y6500D02*
X100500D01*
X20000Y61400D02*
X25000D01*
X52500Y23300D02*
Y33900D01*
X25000Y61400D02*
X52500Y33900D01*
X100500Y6500D02*
X124000D01*
X102879Y14772D02*
X112772D01*
X102000Y15651D02*
X102879Y14772D01*
X127700Y10200D02*
X133146D01*
X124000Y6500D02*
X127700Y10200D01*
X133146D02*
X138846Y15900D01*
X113900D02*
X138846D01*
X147667Y24720D02*
X149366D01*
X138746Y15800D02*
X147667Y24720D01*
Y24720D02*
X148516Y25570D01*
X149296Y32280D02*
X149366D01*
X149645Y46094D02*
X151730D01*
X148766Y32809D02*
Y45216D01*
X151730Y46094D02*
X152654Y47017D01*
X148766Y45216D02*
X149645Y46094D01*
X148766Y32809D02*
X149296Y32280D01*
X152654Y47017D02*
Y54800D01*
X143100Y91500D02*
X164600Y70000D01*
X156700Y78800D02*
Y82900D01*
X129902Y96500D02*
X155098D01*
X177500Y78800D02*
X184000Y85300D01*
X172100Y113000D02*
X184000Y101100D01*
Y85300D02*
Y101100D01*
X154000Y113000D02*
X172100D01*
X149500Y141343D02*
X160000Y151843D01*
X149500Y102098D02*
X155098Y96500D01*
X149500Y102098D02*
Y141343D01*
X141649Y105555D02*
X144094Y108000D01*
X144500D01*
X109095Y105555D02*
X141649D01*
X135039Y114039D02*
X140600Y119600D01*
Y173500D01*
X148516Y25570D02*
X159346Y36400D01*
X136634Y45000D02*
Y50034D01*
X40134Y132134D02*
Y150000D01*
X59100Y118100D02*
X62500D01*
X67250Y154100D02*
X77500D01*
X74900Y87300D02*
X80000Y92400D01*
X57700Y136100D02*
X60154D01*
X164600Y52754D02*
Y70000D01*
X139360Y91500D02*
X143100D01*
X159346Y47500D02*
X164600Y52754D01*
X106500Y108150D02*
X109095Y105555D01*
X106500Y108150D02*
Y109177D01*
X65000Y115677D02*
X67500Y118177D01*
X62500D02*
X65000Y115677D01*
X52500Y118177D02*
X55000Y115677D01*
X57500Y118177D01*
X91500Y103900D02*
Y109177D01*
Y103900D02*
X98900Y97400D01*
X60154Y136100D02*
Y137000D01*
X46500Y66120D02*
Y83500D01*
X103700Y63200D02*
Y74256D01*
X62900Y12900D02*
X69800D01*
X52500Y23300D02*
X62900Y12900D01*
X17100Y64300D02*
X20000Y61400D01*
X17100Y64300D02*
Y92600D01*
X21500Y97000D01*
X158598Y100000D02*
X175500D01*
X155098Y96500D02*
X158598Y100000D01*
X70300Y108900D02*
X71500Y107700D01*
X70300Y108900D02*
Y142461D01*
X64356D02*
X70300D01*
X57700Y149116D02*
X64356Y142461D01*
X57700Y149116D02*
Y157500D01*
X67448Y167248D01*
Y171000D01*
X59200Y70700D02*
X64000D01*
X87800Y94500D01*
X118445D01*
X125500Y87445D01*
X129902D01*
X101500Y81900D02*
Y87823D01*
Y81900D02*
X107300D01*
X114200Y88800D01*
X120000D01*
X132600Y34700D02*
Y42800D01*
X130000Y45400D02*
X132600Y42800D01*
X115200Y45400D02*
X130000D01*
X113000Y47600D02*
X115200Y45400D01*
X96850Y47600D02*
X113000D01*
X94250Y45000D02*
X96850Y47600D01*
X94000Y59400D02*
Y65000D01*
Y59400D02*
X109200D01*
X117200Y51400D01*
X134256D01*
Y55500D01*
X136634Y38500D02*
Y45000D01*
X133434Y48200D02*
X136634Y45000D01*
X116600Y48200D02*
X133434D01*
X112772Y14772D02*
X113900Y15900D01*
X159346Y36400D02*
Y47500D01*
X60750Y150000D02*
Y153000D01*
Y150000D02*
X64550Y146200D01*
X71623D01*
X77300Y140523D01*
Y114000D02*
Y140523D01*
X65900Y67800D02*
X82400Y84300D01*
X55000Y67800D02*
X65900D01*
X51134Y71666D02*
X55000Y67800D01*
X51134Y71666D02*
Y77500D01*
X117700Y114000D02*
Y153400D01*
X62500Y92400D02*
X80000D01*
X91500Y103900D01*
X45216Y160583D02*
Y167050D01*
X40134Y155500D02*
X45216Y160583D01*
X31866Y155500D02*
Y162300D01*
X48100D02*
X52252Y166452D01*
X60552D01*
Y171000D01*
X144300Y35000D02*
Y65900D01*
X150000Y71600D01*
X157500D01*
X160948Y68152D01*
Y63500D02*
Y68152D01*
X177500Y67000D02*
Y78800D01*
X22500Y114500D02*
X40134Y132134D01*
X86346Y112746D02*
Y167500D01*
X78420Y104820D02*
X86346Y112746D01*
X57500Y96823D02*
Y110550D01*
X67250Y153000D02*
Y154100D01*
X101500Y109177D02*
Y133246D01*
X112077Y143823D01*
Y155577D01*
X125000Y168500D01*
X91500Y109177D02*
Y138750D01*
X106032Y153281D01*
Y167500D01*
X96500Y109177D02*
Y136700D01*
X109600Y149800D01*
Y156300D01*
X113300Y160000D01*
Y170000D01*
X123900Y180600D01*
X126700D01*
X132300Y175000D01*
Y144300D02*
Y175000D01*
X125000Y137000D02*
X132300Y144300D01*
X21500Y57000D02*
X34500Y44000D01*
X57500Y118177D02*
X59023D01*
X59100Y118100D01*
X62500D02*
Y118177D01*
X40134Y150000D02*
Y155500D01*
Y150000D02*
X42634Y147500D01*
X56346D01*
X66846Y137000D01*
X21500Y77000D02*
X36500Y62000D01*
Y55000D02*
Y62000D01*
Y55000D02*
X39860Y51640D01*
X48740D01*
Y56500D01*
X157634Y28500D02*
X163900D01*
X168900Y33500D01*
Y83400D01*
X175500Y90000D01*
X136634Y50034D02*
X137800Y51200D01*
Y60000D01*
X135000Y62800D02*
X137800Y60000D01*
X132500Y62800D02*
X135000D01*
X129244Y66056D02*
X132500Y62800D01*
X129244Y66056D02*
Y70000D01*
X66846Y127854D02*
Y137000D01*
Y127854D02*
X67500Y127200D01*
Y118177D02*
Y127200D01*
X128366Y31586D02*
Y38500D01*
Y31586D02*
X129552Y30400D01*
Y23500D02*
Y30400D01*
X42866Y67706D02*
Y77500D01*
X41260Y66100D02*
X42866Y67706D01*
X41260Y56500D02*
Y66100D01*
X154052Y56198D02*
Y63500D01*
X152654Y54800D02*
X154052Y56198D01*
X18500Y133500D02*
Y138500D01*
Y133500D02*
X22500Y129500D01*
Y124500D02*
Y129500D01*
D16*
X67448Y171000D02*
D03*
X60552D02*
D03*
X136448Y23500D02*
D03*
X129552D02*
D03*
X154052Y63500D02*
D03*
X160948D02*
D03*
D17*
X86346Y167500D02*
D03*
X106032D02*
D03*
D18*
X52500Y96823D02*
D03*
X57500D02*
D03*
X62500D02*
D03*
X67500D02*
D03*
Y118177D02*
D03*
X62500D02*
D03*
X57500D02*
D03*
X52500D02*
D03*
X106500Y109177D02*
D03*
X101500D02*
D03*
X96500D02*
D03*
X91500D02*
D03*
Y87823D02*
D03*
X96500D02*
D03*
X101500D02*
D03*
X106500D02*
D03*
D19*
X136634Y38500D02*
D03*
X128366D02*
D03*
X40134Y155500D02*
D03*
X31866D02*
D03*
D20*
X155098Y96500D02*
D03*
D21*
X129902Y87445D02*
D03*
Y96500D02*
D03*
Y105555D02*
D03*
D22*
X48740Y56500D02*
D03*
X41260D02*
D03*
D23*
X51134Y77500D02*
D03*
X42866D02*
D03*
D24*
X67250Y153000D02*
D03*
X60750D02*
D03*
D25*
X128744Y55500D02*
D03*
X134756Y70000D02*
D03*
X129244D02*
D03*
D26*
X134256Y55500D02*
D03*
D27*
X149366Y32280D02*
D03*
Y24720D02*
D03*
X157634Y28500D02*
D03*
D28*
X159346Y47500D02*
D03*
X152654D02*
D03*
X66846Y137000D02*
D03*
X60154D02*
D03*
D38*
X100500Y6500D02*
D03*
X34500Y34500D02*
D03*
X18500Y138500D02*
D03*
X177500Y67000D02*
D03*
X58000Y27000D02*
D03*
D42*
X160000Y132157D02*
D03*
D43*
Y151843D02*
D03*
D44*
X28500Y138500D02*
D03*
X48000Y27000D02*
D03*
D46*
X79236Y19134D02*
D03*
D47*
X94000Y65000D02*
D03*
X108764Y19134D02*
D03*
D48*
X175500Y90000D02*
D03*
X22500Y114500D02*
D03*
D49*
X175500Y100000D02*
D03*
X22500Y124500D02*
D03*
D50*
X125000Y137000D02*
D03*
Y168500D02*
D03*
D51*
X21500Y57000D02*
D03*
D52*
Y67000D02*
D03*
Y77000D02*
D03*
Y87000D02*
D03*
Y97000D02*
D03*
D53*
X137399Y77800D02*
D03*
X64500Y36500D02*
D03*
X68500Y40800D02*
D03*
X97000Y35500D02*
D03*
X110500Y66000D02*
D03*
X118000Y83510D02*
D03*
X125250Y13050D02*
D03*
X119000Y12000D02*
D03*
X97500Y42000D02*
D03*
X44000Y90500D02*
D03*
X38000Y91000D02*
D03*
X41000Y110000D02*
D03*
X62330Y107670D02*
D03*
X88690Y23009D02*
D03*
X81019Y64019D02*
D03*
X84650Y67179D02*
D03*
X154000Y113000D02*
D03*
X144500Y108000D02*
D03*
X135039Y114039D02*
D03*
X139360Y91500D02*
D03*
X156700Y82900D02*
D03*
X98900Y97400D02*
D03*
X103700Y74256D02*
D03*
Y63200D02*
D03*
X69800Y12900D02*
D03*
X71500Y107700D02*
D03*
X59200Y70700D02*
D03*
X77300Y114000D02*
D03*
X82400Y84300D02*
D03*
X117700Y153400D02*
D03*
Y114000D02*
D03*
X45216Y167050D02*
D03*
X31866Y162300D02*
D03*
X48100D02*
D03*
X77500Y154100D02*
D03*
X140600Y173500D02*
D03*
M02*
