G04*
G04 #@! TF.GenerationSoftware,Altium Limited,Altium Designer,23.1.1 (15)*
G04*
G04 Layer_Color=65535*
%FSLAX25Y25*%
%MOIN*%
G70*
G04*
G04 #@! TF.SameCoordinates,2A32F405-7E1A-4497-8D0E-C4D04B09633D*
G04*
G04*
G04 #@! TF.FilePolarity,Positive*
G04*
G01*
G75*
%ADD10C,0.00984*%
%ADD11C,0.00394*%
%ADD12C,0.00787*%
%ADD13C,0.01500*%
%ADD14C,0.01000*%
D10*
X57992Y131823D02*
G03*
X57992Y131823I-492J0D01*
G01*
X73488Y111252D02*
G03*
X73488Y111252I-492J0D01*
G01*
X153697Y84768D02*
G03*
X153697Y84768I-492J0D01*
G01*
X104654Y148000D02*
G03*
X104654Y148000I-492J0D01*
G01*
D11*
X126500Y113626D02*
G03*
X126500Y113232I0J-197D01*
G01*
D02*
G03*
X126500Y113626I0J197D01*
G01*
X112374Y130000D02*
G03*
X112768Y130000I197J0D01*
G01*
D02*
G03*
X112374Y130000I-197J0D01*
G01*
X99874Y74000D02*
G03*
X100268Y74000I197J0D01*
G01*
D02*
G03*
X99874Y74000I-197J0D01*
G01*
D12*
X135386Y106614D02*
G03*
X133614Y108386I-1772J0D01*
G01*
X110386D02*
G03*
X108614Y106614I0J-1772D01*
G01*
X52500Y129750D02*
X62500D01*
X52500Y69250D02*
Y129750D01*
Y69250D02*
X62500D01*
Y129750D01*
X69303Y72335D02*
X69697D01*
X69303Y76665D02*
X69697D01*
X68803Y62835D02*
X69197D01*
X68803Y67165D02*
X69197D01*
X84217Y88811D02*
Y115189D01*
Y88811D02*
X98783D01*
Y115189D01*
X84217D02*
X98783D01*
X128803Y74165D02*
X129197D01*
X128803Y69835D02*
X129197D01*
X114689Y115713D02*
Y137287D01*
X139492D01*
Y115713D02*
Y137287D01*
X114689Y115713D02*
X139492D01*
X135386Y87913D02*
Y106614D01*
X126528Y108386D02*
X133614D01*
X126528Y81614D02*
X129087D01*
X135386Y87913D01*
X108614D02*
Y106614D01*
X110386Y108386D02*
X117472D01*
X114913Y81614D02*
X117472D01*
X108614Y87913D02*
X114913Y81614D01*
X147693Y112917D02*
X148421D01*
X135980D02*
X138047D01*
X135980Y78114D02*
Y112917D01*
X147693Y78114D02*
X148421D01*
X135980D02*
X138047D01*
X148421D02*
Y81441D01*
Y109591D02*
Y112917D01*
X78713Y118189D02*
X110287D01*
X78713D02*
Y142992D01*
X110287D01*
Y118189D02*
Y142992D01*
X105811Y67457D02*
X107189D01*
X112602Y69327D02*
Y74543D01*
X100398D02*
X103449D01*
X109551D02*
X112602D01*
X100398Y69327D02*
Y74543D01*
X64000Y119000D02*
X74000D01*
Y79000D02*
Y119000D01*
X64000Y79000D02*
Y119000D01*
Y79000D02*
X74000D01*
X63779Y138756D02*
X75221D01*
X63779Y130244D02*
X75221D01*
X76213Y62189D02*
X97787D01*
X76213D02*
Y86992D01*
X97787D01*
Y62189D02*
Y86992D01*
X71252Y50600D02*
X122748D01*
X71252Y60400D02*
X122748D01*
Y50600D02*
Y60400D01*
X71252Y50600D02*
Y60400D01*
X124279Y58744D02*
X135721D01*
X124279Y67256D02*
X135721D01*
X122000Y75708D02*
Y71772D01*
X123968Y73740D02*
X120032D01*
D13*
X95500Y145047D02*
Y150953D01*
D14*
X130166Y105332D02*
X129499Y105999D01*
X128166D01*
X127500Y105332D01*
Y102666D01*
X128166Y102000D01*
X129499D01*
X130166Y102666D01*
Y103999D01*
X128833D01*
X92500Y112000D02*
Y112666D01*
X93166D01*
Y112000D01*
X92500D01*
X72500Y68833D02*
X75166D01*
X73833Y70166D02*
Y67500D01*
X140500Y129000D02*
X143166D01*
X75500Y105000D02*
Y108999D01*
X77499D01*
X78166Y108332D01*
Y106999D01*
X77499Y106333D01*
X75500D01*
X76833D02*
X78166Y105000D01*
X62666Y134832D02*
X61999Y135499D01*
X60666D01*
X60000Y134832D01*
Y132167D01*
X60666Y131500D01*
X61999D01*
X62666Y132167D01*
Y133499D01*
X61333D01*
X68500Y77499D02*
Y74833D01*
X69833Y73500D01*
X71166Y74833D01*
Y77499D01*
X44835Y77500D02*
X48834D01*
Y80166D01*
Y81499D02*
X44835D01*
Y83498D01*
X45501Y84165D01*
X46834D01*
X47501Y83498D01*
Y81499D01*
X45501Y88163D02*
X44835Y87497D01*
Y86164D01*
X45501Y85497D01*
X48167D01*
X48834Y86164D01*
Y87497D01*
X48167Y88163D01*
X44835Y91496D02*
Y90163D01*
X45501Y89496D01*
X48167D01*
X48834Y90163D01*
Y91496D01*
X48167Y92162D01*
X45501D01*
X44835Y91496D01*
X49500Y93495D02*
Y96161D01*
X44835Y97494D02*
X47501D01*
X48834Y98826D01*
X47501Y100159D01*
X44835D01*
Y104158D02*
X45501Y102825D01*
X46834Y101492D01*
X48167D01*
X48834Y102159D01*
Y103492D01*
X48167Y104158D01*
X47501D01*
X46834Y103492D01*
Y101492D01*
X48834Y105491D02*
X48167D01*
Y106157D01*
X48834D01*
Y105491D01*
X45501Y108823D02*
X44835Y109490D01*
Y110823D01*
X45501Y111489D01*
X48167D01*
X48834Y110823D01*
Y109490D01*
X48167Y108823D01*
X45501D01*
X48834Y112822D02*
X48167D01*
Y113488D01*
X48834D01*
Y112822D01*
Y116154D02*
Y117487D01*
Y116821D01*
X44835D01*
X45501Y116154D01*
X82800Y72400D02*
Y73733D01*
Y73067D01*
X78801D01*
X79468Y72400D01*
Y75732D02*
X78801Y76399D01*
Y77732D01*
X79468Y78398D01*
X82134D01*
X82800Y77732D01*
Y76399D01*
X82134Y75732D01*
X79468D01*
X78801Y79731D02*
X82800D01*
X81467D01*
X78801Y82397D01*
X80801Y80397D01*
X82800Y82397D01*
X78801Y90394D02*
Y87728D01*
X80801D01*
X80134Y89061D01*
Y89728D01*
X80801Y90394D01*
X82134D01*
X82800Y89728D01*
Y88395D01*
X82134Y87728D01*
Y91727D02*
X78801Y95059D01*
Y91727D02*
X78135D01*
Y92394D01*
X78801D01*
Y91727D01*
X82800Y94393D02*
X82134D01*
Y95059D01*
X82800D01*
Y94393D01*
X79468Y100391D02*
X78801Y101058D01*
Y102390D01*
X79468Y103057D01*
X82134D01*
X82800Y102390D01*
Y101058D01*
X82134Y100391D01*
X79468D01*
Y104390D02*
X78801Y105056D01*
Y106389D01*
X79468Y107055D01*
X80134D01*
X80801Y106389D01*
X81467Y107055D01*
X82134D01*
X82800Y106389D01*
Y105056D01*
X82134Y104390D01*
X81467D01*
X80801Y105056D01*
X80134Y104390D01*
X79468D01*
X80801Y105056D02*
Y106389D01*
X79468Y108388D02*
X78801Y109055D01*
Y110388D01*
X79468Y111054D01*
X82134D01*
X82800Y110388D01*
Y109055D01*
X82134Y108388D01*
X79468D01*
X78801Y115053D02*
Y112387D01*
X80801D01*
X80134Y113720D01*
Y114386D01*
X80801Y115053D01*
X82134D01*
X82800Y114386D01*
Y113054D01*
X82134Y112387D01*
X82800Y117719D02*
X81467Y116386D01*
X80134D01*
X78801Y117719D01*
X82800Y122384D02*
Y119718D01*
X80134Y122384D01*
X79468D01*
X78801Y121718D01*
Y120385D01*
X79468Y119718D01*
Y123717D02*
X78801Y124383D01*
Y125716D01*
X79468Y126383D01*
X82134D01*
X82800Y125716D01*
Y124383D01*
X82134Y123717D01*
X79468D01*
X82800Y127716D02*
Y129048D01*
Y128382D01*
X78801D01*
X79468Y127716D01*
X82800Y133714D02*
Y131048D01*
X80134Y133714D01*
X79468D01*
X78801Y133047D01*
Y131714D01*
X79468Y131048D01*
X82800Y135047D02*
X81467Y136379D01*
X80134D01*
X78801Y135047D01*
X82300Y62900D02*
Y64233D01*
Y63566D01*
X78301D01*
X78968Y62900D01*
Y66232D02*
X78301Y66899D01*
Y68232D01*
X78968Y68898D01*
X81634D01*
X82300Y68232D01*
Y66899D01*
X81634Y66232D01*
X78968D01*
X78301Y70231D02*
X82300D01*
X80967D01*
X78301Y72897D01*
X80301Y70898D01*
X82300Y72897D01*
X78301Y80894D02*
Y78228D01*
X80301D01*
X79634Y79561D01*
Y80228D01*
X80301Y80894D01*
X81634D01*
X82300Y80228D01*
Y78895D01*
X81634Y78228D01*
Y82227D02*
X78301Y85559D01*
Y82227D02*
X77635D01*
Y82894D01*
X78301D01*
Y82227D01*
X82300Y84893D02*
X81634D01*
Y85559D01*
X82300D01*
Y84893D01*
X78968Y90891D02*
X78301Y91558D01*
Y92890D01*
X78968Y93557D01*
X81634D01*
X82300Y92890D01*
Y91558D01*
X81634Y90891D01*
X78968D01*
Y94890D02*
X78301Y95556D01*
Y96889D01*
X78968Y97556D01*
X79634D01*
X80301Y96889D01*
X80967Y97556D01*
X81634D01*
X82300Y96889D01*
Y95556D01*
X81634Y94890D01*
X80967D01*
X80301Y95556D01*
X79634Y94890D01*
X78968D01*
X80301Y95556D02*
Y96889D01*
X78968Y98888D02*
X78301Y99555D01*
Y100888D01*
X78968Y101554D01*
X81634D01*
X82300Y100888D01*
Y99555D01*
X81634Y98888D01*
X78968D01*
X78301Y105553D02*
Y102887D01*
X80301D01*
X79634Y104220D01*
Y104886D01*
X80301Y105553D01*
X81634D01*
X82300Y104886D01*
Y103554D01*
X81634Y102887D01*
X82300Y108219D02*
X80967Y106886D01*
X79634D01*
X78301Y108219D01*
X82300Y112884D02*
Y110218D01*
X79634Y112884D01*
X78968D01*
X78301Y112217D01*
Y110885D01*
X78968Y110218D01*
Y114217D02*
X78301Y114883D01*
Y116216D01*
X78968Y116883D01*
X81634D01*
X82300Y116216D01*
Y114883D01*
X81634Y114217D01*
X78968D01*
X82300Y118216D02*
Y119548D01*
Y118882D01*
X78301D01*
X78968Y118216D01*
X82300Y124214D02*
Y121548D01*
X79634Y124214D01*
X78968D01*
X78301Y123547D01*
Y122214D01*
X78968Y121548D01*
X82300Y125547D02*
X80967Y126879D01*
X79634D01*
X78301Y125547D01*
X56501Y66333D02*
X55834Y66999D01*
X54501D01*
X53835Y66333D01*
Y65666D01*
X54501Y65000D01*
X55834D01*
X56501Y64334D01*
Y63667D01*
X55834Y63001D01*
X54501D01*
X53835Y63667D01*
X57834Y63001D02*
Y66999D01*
X59833D01*
X60499Y66333D01*
Y65000D01*
X59833Y64334D01*
X57834D01*
X61832Y66999D02*
X63165D01*
X62499D01*
Y63001D01*
X61832D01*
X63165D01*
X62830Y124161D02*
Y120162D01*
X64829D01*
X65496Y120828D01*
Y121495D01*
X64829Y122161D01*
X62830D01*
X64829D01*
X65496Y122828D01*
Y123494D01*
X64829Y124161D01*
X62830D01*
X66829D02*
Y120162D01*
X69494D01*
X73493Y124161D02*
X70827D01*
Y120162D01*
X73493D01*
X70827Y122161D02*
X72160D01*
X24509Y139501D02*
Y143499D01*
X26508D01*
X27174Y142833D01*
Y141500D01*
X26508Y140833D01*
X24509D01*
X25842D02*
X27174Y139501D01*
X28507D02*
Y143499D01*
X29840Y142166D01*
X31173Y143499D01*
Y139501D01*
X35172Y142833D02*
X34506Y143499D01*
X33173D01*
X32506Y142833D01*
Y140167D01*
X33173Y139501D01*
X34506D01*
X35172Y140167D01*
X39171Y143499D02*
X36505D01*
Y141500D01*
X37838D01*
X36505D01*
Y139501D01*
X40504Y142833D02*
X41170Y143499D01*
X42503D01*
X43169Y142833D01*
Y140167D01*
X42503Y139501D01*
X41170D01*
X40504Y140167D01*
Y142833D01*
X44502D02*
X45169Y143499D01*
X46502D01*
X47168Y142833D01*
Y142166D01*
X46502Y141500D01*
X47168Y140833D01*
Y140167D01*
X46502Y139501D01*
X45169D01*
X44502Y140167D01*
Y140833D01*
X45169Y141500D01*
X44502Y142166D01*
Y142833D01*
X45169Y141500D02*
X46502D01*
X48501Y142833D02*
X49167Y143499D01*
X50500D01*
X51167Y142833D01*
Y140167D01*
X50500Y139501D01*
X49167D01*
X48501Y140167D01*
Y142833D01*
X55165Y143499D02*
X52500D01*
Y141500D01*
X53833Y142166D01*
X54499D01*
X55165Y141500D01*
Y140167D01*
X54499Y139501D01*
X53166D01*
X52500Y140167D01*
X59164Y143499D02*
X57831D01*
X58498D01*
Y140167D01*
X57831Y139501D01*
X57165D01*
X56498Y140167D01*
X60497Y143499D02*
X63163D01*
X61830D01*
Y139501D01*
X64496D02*
X65829D01*
X65162D01*
Y143499D01*
X64496Y142833D01*
X67828D02*
X68494Y143499D01*
X69827D01*
X70494Y142833D01*
Y142166D01*
X69827Y141500D01*
X70494Y140833D01*
Y140167D01*
X69827Y139501D01*
X68494D01*
X67828Y140167D01*
Y140833D01*
X68494Y141500D01*
X67828Y142166D01*
Y142833D01*
X68494Y141500D02*
X69827D01*
X71827Y142833D02*
X72493Y143499D01*
X73826D01*
X74493Y142833D01*
Y140167D01*
X73826Y139501D01*
X72493D01*
X71827Y140167D01*
Y142833D01*
X75826Y139501D02*
Y143499D01*
X77825D01*
X78491Y142833D01*
Y141500D01*
X77825Y140833D01*
X75826D01*
X77158D02*
X78491Y139501D01*
X119010Y75667D02*
X120343D01*
X119677D01*
Y79666D01*
X119010Y79000D01*
X122343D02*
X123009Y79666D01*
X124342D01*
X125008Y79000D01*
Y76334D01*
X124342Y75667D01*
X123009D01*
X122343Y76334D01*
Y79000D01*
X126341Y79666D02*
Y75667D01*
Y77000D01*
X129007Y79666D01*
X127008Y77667D01*
X129007Y75667D01*
X137004Y79666D02*
X134339D01*
Y77667D01*
X135672Y78333D01*
X136338D01*
X137004Y77667D01*
Y76334D01*
X136338Y75667D01*
X135005D01*
X134339Y76334D01*
X138337D02*
X141670Y79666D01*
X138337D02*
Y80333D01*
X139004D01*
Y79666D01*
X138337D01*
X141003Y75667D02*
Y76334D01*
X141670D01*
Y75667D01*
X141003D01*
X147001Y79000D02*
X147668Y79666D01*
X149001D01*
X149667Y79000D01*
Y76334D01*
X149001Y75667D01*
X147668D01*
X147001Y76334D01*
Y79000D01*
X151000D02*
X151666Y79666D01*
X152999D01*
X153666Y79000D01*
Y78333D01*
X152999Y77667D01*
X153666Y77000D01*
Y76334D01*
X152999Y75667D01*
X151666D01*
X151000Y76334D01*
Y77000D01*
X151666Y77667D01*
X151000Y78333D01*
Y79000D01*
X151666Y77667D02*
X152999D01*
X154999Y79000D02*
X155665Y79666D01*
X156998D01*
X157665Y79000D01*
Y76334D01*
X156998Y75667D01*
X155665D01*
X154999Y76334D01*
Y79000D01*
X161663Y79666D02*
X158997D01*
Y77667D01*
X160330Y78333D01*
X160997D01*
X161663Y77667D01*
Y76334D01*
X160997Y75667D01*
X159664D01*
X158997Y76334D01*
X164329Y75667D02*
X162996Y77000D01*
Y78333D01*
X164329Y79666D01*
X168994Y75667D02*
X166328D01*
X168994Y78333D01*
Y79000D01*
X168328Y79666D01*
X166995D01*
X166328Y79000D01*
X170327D02*
X170994Y79666D01*
X172326D01*
X172993Y79000D01*
Y76334D01*
X172326Y75667D01*
X170994D01*
X170327Y76334D01*
Y79000D01*
X174326Y75667D02*
X175659D01*
X174992D01*
Y79666D01*
X174326Y79000D01*
X180324Y75667D02*
X177658D01*
X180324Y78333D01*
Y79000D01*
X179657Y79666D01*
X178324D01*
X177658Y79000D01*
X181657Y75667D02*
X182990Y77000D01*
Y78333D01*
X181657Y79666D01*
X98009Y67501D02*
Y71499D01*
X100008D01*
X100674Y70833D01*
Y69500D01*
X100008Y68834D01*
X98009D01*
X99342D02*
X100674Y67501D01*
X102007D02*
Y71499D01*
X103340Y70166D01*
X104673Y71499D01*
Y67501D01*
X108672Y70833D02*
X108005Y71499D01*
X106673D01*
X106006Y70833D01*
Y68167D01*
X106673Y67501D01*
X108005D01*
X108672Y68167D01*
X112671Y71499D02*
X110005D01*
Y69500D01*
X111338D01*
X110005D01*
Y67501D01*
X114004Y70833D02*
X114670Y71499D01*
X116003D01*
X116669Y70833D01*
Y68167D01*
X116003Y67501D01*
X114670D01*
X114004Y68167D01*
Y70833D01*
X118002D02*
X118669Y71499D01*
X120002D01*
X120668Y70833D01*
Y70166D01*
X120002Y69500D01*
X120668Y68834D01*
Y68167D01*
X120002Y67501D01*
X118669D01*
X118002Y68167D01*
Y68834D01*
X118669Y69500D01*
X118002Y70166D01*
Y70833D01*
X118669Y69500D02*
X120002D01*
X122001Y70833D02*
X122667Y71499D01*
X124000D01*
X124667Y70833D01*
Y68167D01*
X124000Y67501D01*
X122667D01*
X122001Y68167D01*
Y70833D01*
X128665Y71499D02*
X126000D01*
Y69500D01*
X127333Y70166D01*
X127999D01*
X128665Y69500D01*
Y68167D01*
X127999Y67501D01*
X126666D01*
X126000Y68167D01*
X132664Y71499D02*
X131331D01*
X131998D01*
Y68167D01*
X131331Y67501D01*
X130665D01*
X129998Y68167D01*
X133997Y71499D02*
X136663D01*
X135330D01*
Y67501D01*
X137996D02*
X139329D01*
X138662D01*
Y71499D01*
X137996Y70833D01*
X141328D02*
X141995Y71499D01*
X143327D01*
X143994Y70833D01*
Y70166D01*
X143327Y69500D01*
X143994Y68834D01*
Y68167D01*
X143327Y67501D01*
X141995D01*
X141328Y68167D01*
Y68834D01*
X141995Y69500D01*
X141328Y70166D01*
Y70833D01*
X141995Y69500D02*
X143327D01*
X145327Y70833D02*
X145993Y71499D01*
X147326D01*
X147993Y70833D01*
Y68167D01*
X147326Y67501D01*
X145993D01*
X145327Y68167D01*
Y70833D01*
X149326Y67501D02*
Y71499D01*
X151325D01*
X151991Y70833D01*
Y69500D01*
X151325Y68834D01*
X149326D01*
X150658D02*
X151991Y67501D01*
M02*
