G04*
G04 #@! TF.GenerationSoftware,Altium Limited,Altium Designer,23.1.1 (15)*
G04*
G04 Layer_Color=32896*
%FSLAX25Y25*%
%MOIN*%
G70*
G04*
G04 #@! TF.SameCoordinates,2A32F405-7E1A-4497-8D0E-C4D04B09633D*
G04*
G04*
G04 #@! TF.FilePolarity,Positive*
G04*
G01*
G75*
%ADD12C,0.00787*%
G36*
X133262Y61276D02*
X131211D01*
Y61500D01*
X133262D01*
Y61276D01*
D02*
G37*
G36*
X137195Y60839D02*
X137264Y60834D01*
X137329Y60823D01*
X137392Y60809D01*
X137452Y60793D01*
X137507Y60774D01*
X137556Y60755D01*
X137602Y60736D01*
X137646Y60716D01*
X137681Y60697D01*
X137714Y60678D01*
X137739Y60662D01*
X137760Y60648D01*
X137774Y60637D01*
X137785Y60632D01*
X137788Y60629D01*
X137837Y60585D01*
X137883Y60539D01*
X137924Y60490D01*
X137962Y60441D01*
X137998Y60389D01*
X138028Y60334D01*
X138055Y60285D01*
X138080Y60233D01*
X138102Y60187D01*
X138118Y60143D01*
X138135Y60102D01*
X138145Y60070D01*
X138156Y60040D01*
X138162Y60020D01*
X138167Y60007D01*
Y60001D01*
X137834Y59917D01*
X137821Y59974D01*
X137801Y60029D01*
X137782Y60080D01*
X137763Y60127D01*
X137741Y60171D01*
X137720Y60209D01*
X137698Y60244D01*
X137676Y60277D01*
X137654Y60304D01*
X137635Y60329D01*
X137616Y60351D01*
X137602Y60367D01*
X137589Y60381D01*
X137578Y60389D01*
X137572Y60394D01*
X137569Y60397D01*
X137531Y60424D01*
X137493Y60449D01*
X137455Y60471D01*
X137414Y60490D01*
X137373Y60506D01*
X137335Y60520D01*
X137258Y60539D01*
X137225Y60545D01*
X137193Y60550D01*
X137165Y60553D01*
X137141Y60555D01*
X137122Y60558D01*
X137094D01*
X137051Y60555D01*
X137010Y60553D01*
X136931Y60539D01*
X136857Y60520D01*
X136794Y60498D01*
X136767Y60487D01*
X136742Y60479D01*
X136720Y60468D01*
X136701Y60460D01*
X136685Y60452D01*
X136674Y60446D01*
X136669Y60441D01*
X136666D01*
X136630Y60416D01*
X136598Y60392D01*
X136538Y60334D01*
X136488Y60277D01*
X136447Y60217D01*
X136417Y60165D01*
X136404Y60143D01*
X136393Y60121D01*
X136387Y60105D01*
X136382Y60094D01*
X136376Y60086D01*
Y60083D01*
X136346Y59990D01*
X136322Y59895D01*
X136305Y59799D01*
X136300Y59756D01*
X136294Y59712D01*
X136292Y59671D01*
X136289Y59636D01*
X136286Y59603D01*
Y59575D01*
X136284Y59551D01*
Y59535D01*
Y59523D01*
Y59521D01*
X136286Y59428D01*
X136294Y59341D01*
X136308Y59259D01*
X136314Y59220D01*
X136322Y59185D01*
X136330Y59155D01*
X136335Y59125D01*
X136344Y59100D01*
X136349Y59079D01*
X136352Y59062D01*
X136357Y59048D01*
X136360Y59040D01*
Y59038D01*
X136396Y58953D01*
X136436Y58879D01*
X136480Y58816D01*
X136505Y58789D01*
X136527Y58762D01*
X136548Y58740D01*
X136567Y58721D01*
X136587Y58702D01*
X136600Y58688D01*
X136614Y58677D01*
X136625Y58669D01*
X136630Y58666D01*
X136633Y58664D01*
X136671Y58639D01*
X136709Y58617D01*
X136750Y58598D01*
X136791Y58582D01*
X136873Y58557D01*
X136952Y58538D01*
X136985Y58533D01*
X137018Y58530D01*
X137048Y58527D01*
X137073Y58524D01*
X137094Y58522D01*
X137168D01*
X137212Y58527D01*
X137294Y58541D01*
X137365Y58563D01*
X137395Y58574D01*
X137425Y58584D01*
X137452Y58595D01*
X137474Y58606D01*
X137493Y58617D01*
X137509Y58628D01*
X137523Y58636D01*
X137531Y58642D01*
X137537Y58644D01*
X137539Y58647D01*
X137569Y58672D01*
X137599Y58699D01*
X137649Y58762D01*
X137695Y58830D01*
X137731Y58896D01*
X137758Y58956D01*
X137771Y58980D01*
X137780Y59002D01*
X137788Y59021D01*
X137791Y59038D01*
X137796Y59046D01*
Y59048D01*
X138124Y58972D01*
X138102Y58909D01*
X138077Y58849D01*
X138053Y58792D01*
X138023Y58740D01*
X137995Y58691D01*
X137965Y58647D01*
X137935Y58606D01*
X137905Y58571D01*
X137875Y58538D01*
X137851Y58511D01*
X137826Y58486D01*
X137804Y58467D01*
X137788Y58451D01*
X137774Y58440D01*
X137766Y58434D01*
X137763Y58432D01*
X137714Y58396D01*
X137662Y58369D01*
X137610Y58341D01*
X137556Y58320D01*
X137501Y58301D01*
X137449Y58284D01*
X137397Y58273D01*
X137348Y58262D01*
X137302Y58254D01*
X137261Y58249D01*
X137223Y58243D01*
X137190Y58240D01*
X137163Y58238D01*
X137127D01*
X137064Y58240D01*
X137004Y58243D01*
X136892Y58262D01*
X136838Y58273D01*
X136789Y58287D01*
X136740Y58301D01*
X136696Y58314D01*
X136658Y58328D01*
X136622Y58341D01*
X136589Y58355D01*
X136565Y58366D01*
X136543Y58377D01*
X136529Y58385D01*
X136518Y58388D01*
X136516Y58391D01*
X136467Y58421D01*
X136417Y58453D01*
X136374Y58489D01*
X136333Y58524D01*
X136294Y58563D01*
X136259Y58598D01*
X136229Y58636D01*
X136199Y58669D01*
X136174Y58705D01*
X136153Y58735D01*
X136133Y58762D01*
X136117Y58786D01*
X136106Y58808D01*
X136098Y58822D01*
X136092Y58833D01*
X136090Y58836D01*
X136062Y58890D01*
X136041Y58950D01*
X136021Y59008D01*
X136002Y59065D01*
X135975Y59182D01*
X135967Y59237D01*
X135959Y59289D01*
X135953Y59338D01*
X135948Y59382D01*
X135945Y59422D01*
X135942Y59458D01*
X135940Y59485D01*
Y59507D01*
Y59518D01*
Y59523D01*
X135942Y59589D01*
X135945Y59655D01*
X135961Y59780D01*
X135970Y59840D01*
X135980Y59895D01*
X135994Y59947D01*
X136005Y59996D01*
X136019Y60040D01*
X136030Y60080D01*
X136041Y60113D01*
X136051Y60143D01*
X136060Y60165D01*
X136065Y60184D01*
X136068Y60195D01*
X136071Y60198D01*
X136098Y60255D01*
X136125Y60310D01*
X136155Y60359D01*
X136188Y60405D01*
X136221Y60449D01*
X136251Y60487D01*
X136284Y60523D01*
X136314Y60555D01*
X136344Y60585D01*
X136371Y60610D01*
X136396Y60629D01*
X136417Y60648D01*
X136434Y60662D01*
X136447Y60670D01*
X136456Y60676D01*
X136458Y60678D01*
X136507Y60708D01*
X136559Y60733D01*
X136614Y60755D01*
X136671Y60774D01*
X136726Y60787D01*
X136780Y60801D01*
X136835Y60812D01*
X136887Y60820D01*
X136936Y60829D01*
X136980Y60834D01*
X137021Y60837D01*
X137053Y60839D01*
X137083Y60842D01*
X137122D01*
X137195Y60839D01*
D02*
G37*
G36*
X134654D02*
X134722Y60834D01*
X134787Y60823D01*
X134850Y60809D01*
X134910Y60793D01*
X134965Y60774D01*
X135014Y60755D01*
X135061Y60736D01*
X135104Y60716D01*
X135140Y60697D01*
X135172Y60678D01*
X135197Y60662D01*
X135219Y60648D01*
X135232Y60637D01*
X135243Y60632D01*
X135246Y60629D01*
X135295Y60585D01*
X135342Y60539D01*
X135383Y60490D01*
X135421Y60441D01*
X135456Y60389D01*
X135486Y60334D01*
X135514Y60285D01*
X135538Y60233D01*
X135560Y60187D01*
X135576Y60143D01*
X135593Y60102D01*
X135604Y60070D01*
X135615Y60040D01*
X135620Y60020D01*
X135626Y60007D01*
Y60001D01*
X135293Y59917D01*
X135279Y59974D01*
X135260Y60029D01*
X135241Y60080D01*
X135222Y60127D01*
X135200Y60171D01*
X135178Y60209D01*
X135156Y60244D01*
X135134Y60277D01*
X135112Y60304D01*
X135093Y60329D01*
X135074Y60351D01*
X135061Y60367D01*
X135047Y60381D01*
X135036Y60389D01*
X135030Y60394D01*
X135028Y60397D01*
X134990Y60424D01*
X134951Y60449D01*
X134913Y60471D01*
X134872Y60490D01*
X134831Y60506D01*
X134793Y60520D01*
X134717Y60539D01*
X134684Y60545D01*
X134651Y60550D01*
X134624Y60553D01*
X134599Y60555D01*
X134580Y60558D01*
X134553D01*
X134509Y60555D01*
X134468Y60553D01*
X134389Y60539D01*
X134315Y60520D01*
X134252Y60498D01*
X134225Y60487D01*
X134201Y60479D01*
X134179Y60468D01*
X134160Y60460D01*
X134143Y60452D01*
X134132Y60446D01*
X134127Y60441D01*
X134124D01*
X134089Y60416D01*
X134056Y60392D01*
X133996Y60334D01*
X133947Y60277D01*
X133906Y60217D01*
X133876Y60165D01*
X133862Y60143D01*
X133851Y60121D01*
X133846Y60105D01*
X133840Y60094D01*
X133835Y60086D01*
Y60083D01*
X133805Y59990D01*
X133780Y59895D01*
X133764Y59799D01*
X133758Y59756D01*
X133753Y59712D01*
X133750Y59671D01*
X133747Y59636D01*
X133745Y59603D01*
Y59575D01*
X133742Y59551D01*
Y59535D01*
Y59523D01*
Y59521D01*
X133745Y59428D01*
X133753Y59341D01*
X133766Y59259D01*
X133772Y59220D01*
X133780Y59185D01*
X133788Y59155D01*
X133794Y59125D01*
X133802Y59100D01*
X133808Y59079D01*
X133810Y59062D01*
X133816Y59048D01*
X133818Y59040D01*
Y59038D01*
X133854Y58953D01*
X133895Y58879D01*
X133939Y58816D01*
X133963Y58789D01*
X133985Y58762D01*
X134007Y58740D01*
X134026Y58721D01*
X134045Y58702D01*
X134059Y58688D01*
X134072Y58677D01*
X134083Y58669D01*
X134089Y58666D01*
X134091Y58664D01*
X134130Y58639D01*
X134168Y58617D01*
X134209Y58598D01*
X134250Y58582D01*
X134332Y58557D01*
X134411Y58538D01*
X134444Y58533D01*
X134476Y58530D01*
X134506Y58527D01*
X134531Y58524D01*
X134553Y58522D01*
X134626D01*
X134670Y58527D01*
X134752Y58541D01*
X134823Y58563D01*
X134853Y58574D01*
X134883Y58584D01*
X134910Y58595D01*
X134932Y58606D01*
X134951Y58617D01*
X134968Y58628D01*
X134981Y58636D01*
X134990Y58642D01*
X134995Y58644D01*
X134998Y58647D01*
X135028Y58672D01*
X135058Y58699D01*
X135107Y58762D01*
X135153Y58830D01*
X135189Y58896D01*
X135216Y58956D01*
X135230Y58980D01*
X135238Y59002D01*
X135246Y59021D01*
X135249Y59038D01*
X135254Y59046D01*
Y59048D01*
X135582Y58972D01*
X135560Y58909D01*
X135536Y58849D01*
X135511Y58792D01*
X135481Y58740D01*
X135454Y58691D01*
X135424Y58647D01*
X135394Y58606D01*
X135364Y58571D01*
X135334Y58538D01*
X135309Y58511D01*
X135284Y58486D01*
X135263Y58467D01*
X135246Y58451D01*
X135232Y58440D01*
X135224Y58434D01*
X135222Y58432D01*
X135172Y58396D01*
X135121Y58369D01*
X135069Y58341D01*
X135014Y58320D01*
X134959Y58301D01*
X134908Y58284D01*
X134856Y58273D01*
X134807Y58262D01*
X134760Y58254D01*
X134719Y58249D01*
X134681Y58243D01*
X134648Y58240D01*
X134621Y58238D01*
X134585D01*
X134523Y58240D01*
X134463Y58243D01*
X134351Y58262D01*
X134296Y58273D01*
X134247Y58287D01*
X134198Y58301D01*
X134154Y58314D01*
X134116Y58328D01*
X134081Y58341D01*
X134048Y58355D01*
X134023Y58366D01*
X134001Y58377D01*
X133988Y58385D01*
X133977Y58388D01*
X133974Y58391D01*
X133925Y58421D01*
X133876Y58453D01*
X133832Y58489D01*
X133791Y58524D01*
X133753Y58563D01*
X133717Y58598D01*
X133687Y58636D01*
X133657Y58669D01*
X133633Y58705D01*
X133611Y58735D01*
X133592Y58762D01*
X133575Y58786D01*
X133564Y58808D01*
X133556Y58822D01*
X133551Y58833D01*
X133548Y58836D01*
X133521Y58890D01*
X133499Y58950D01*
X133480Y59008D01*
X133461Y59065D01*
X133433Y59182D01*
X133425Y59237D01*
X133417Y59289D01*
X133412Y59338D01*
X133406Y59382D01*
X133403Y59422D01*
X133401Y59458D01*
X133398Y59485D01*
Y59507D01*
Y59518D01*
Y59523D01*
X133401Y59589D01*
X133403Y59655D01*
X133420Y59780D01*
X133428Y59840D01*
X133439Y59895D01*
X133453Y59947D01*
X133464Y59996D01*
X133477Y60040D01*
X133488Y60080D01*
X133499Y60113D01*
X133510Y60143D01*
X133518Y60165D01*
X133523Y60184D01*
X133526Y60195D01*
X133529Y60198D01*
X133556Y60255D01*
X133584Y60310D01*
X133614Y60359D01*
X133646Y60405D01*
X133679Y60449D01*
X133709Y60487D01*
X133742Y60523D01*
X133772Y60555D01*
X133802Y60585D01*
X133829Y60610D01*
X133854Y60629D01*
X133876Y60648D01*
X133892Y60662D01*
X133906Y60670D01*
X133914Y60676D01*
X133917Y60678D01*
X133966Y60708D01*
X134018Y60733D01*
X134072Y60755D01*
X134130Y60774D01*
X134184Y60787D01*
X134239Y60801D01*
X134293Y60812D01*
X134345Y60820D01*
X134394Y60829D01*
X134438Y60834D01*
X134479Y60837D01*
X134512Y60839D01*
X134542Y60842D01*
X134580D01*
X134654Y60839D01*
D02*
G37*
G36*
X130780Y60116D02*
X130731Y60045D01*
X130682Y59979D01*
X130635Y59922D01*
X130594Y59873D01*
X130559Y59835D01*
X130542Y59818D01*
X130529Y59805D01*
X130518Y59794D01*
X130510Y59786D01*
X130507Y59783D01*
X130504Y59780D01*
X130477Y59758D01*
X130444Y59734D01*
X130411Y59715D01*
X130379Y59696D01*
X130349Y59679D01*
X130324Y59666D01*
X130308Y59657D01*
X130305Y59655D01*
X130302D01*
X130368Y59644D01*
X130430Y59630D01*
X130488Y59614D01*
X130540Y59597D01*
X130589Y59578D01*
X130632Y59559D01*
X130671Y59540D01*
X130706Y59521D01*
X130739Y59502D01*
X130766Y59483D01*
X130788Y59466D01*
X130807Y59452D01*
X130821Y59439D01*
X130832Y59431D01*
X130837Y59425D01*
X130840Y59422D01*
X130870Y59387D01*
X130897Y59351D01*
X130922Y59313D01*
X130941Y59275D01*
X130957Y59237D01*
X130971Y59199D01*
X130993Y59128D01*
X131001Y59095D01*
X131007Y59065D01*
X131009Y59038D01*
X131012Y59013D01*
X131015Y58997D01*
Y58980D01*
Y58972D01*
Y58969D01*
X131009Y58893D01*
X130998Y58822D01*
X130982Y58759D01*
X130963Y58702D01*
X130952Y58677D01*
X130941Y58655D01*
X130933Y58636D01*
X130925Y58620D01*
X130919Y58606D01*
X130914Y58598D01*
X130908Y58593D01*
Y58590D01*
X130867Y58530D01*
X130821Y58481D01*
X130774Y58437D01*
X130728Y58404D01*
X130690Y58380D01*
X130657Y58363D01*
X130643Y58358D01*
X130635Y58352D01*
X130630Y58350D01*
X130627D01*
X130591Y58339D01*
X130556Y58328D01*
X130474Y58311D01*
X130389Y58298D01*
X130308Y58290D01*
X130267Y58287D01*
X130231Y58284D01*
X130201D01*
X130171Y58281D01*
X129000D01*
Y60801D01*
X129333D01*
Y59682D01*
X129762D01*
X129800Y59685D01*
X129833Y59687D01*
X129860D01*
X129879Y59690D01*
X129893Y59693D01*
X129901Y59696D01*
X129904D01*
X129934Y59704D01*
X129961Y59715D01*
X129985Y59725D01*
X130010Y59737D01*
X130029Y59747D01*
X130043Y59756D01*
X130054Y59761D01*
X130056Y59764D01*
X130084Y59783D01*
X130114Y59810D01*
X130144Y59838D01*
X130168Y59865D01*
X130193Y59889D01*
X130209Y59911D01*
X130220Y59925D01*
X130226Y59928D01*
Y59930D01*
X130264Y59979D01*
X130305Y60034D01*
X130343Y60091D01*
X130381Y60149D01*
X130414Y60198D01*
X130430Y60220D01*
X130441Y60239D01*
X130452Y60255D01*
X130461Y60266D01*
X130463Y60274D01*
X130466Y60277D01*
X130799Y60801D01*
X131217D01*
X130780Y60116D01*
D02*
G37*
G36*
X140078Y60504D02*
X138836D01*
X138880Y60444D01*
X138902Y60416D01*
X138924Y60392D01*
X138943Y60370D01*
X138956Y60353D01*
X138967Y60343D01*
X138970Y60340D01*
X138986Y60323D01*
X139008Y60302D01*
X139033Y60280D01*
X139060Y60255D01*
X139117Y60201D01*
X139177Y60149D01*
X139235Y60100D01*
X139259Y60078D01*
X139284Y60059D01*
X139300Y60042D01*
X139317Y60031D01*
X139325Y60023D01*
X139328Y60020D01*
X139388Y59969D01*
X139445Y59919D01*
X139497Y59876D01*
X139543Y59832D01*
X139587Y59794D01*
X139625Y59756D01*
X139661Y59723D01*
X139693Y59693D01*
X139721Y59668D01*
X139743Y59644D01*
X139762Y59624D01*
X139778Y59608D01*
X139789Y59595D01*
X139800Y59586D01*
X139803Y59581D01*
X139805Y59578D01*
X139857Y59518D01*
X139898Y59464D01*
X139934Y59412D01*
X139964Y59365D01*
X139985Y59327D01*
X140002Y59297D01*
X140007Y59286D01*
X140010Y59278D01*
X140013Y59275D01*
Y59272D01*
X140035Y59218D01*
X140048Y59163D01*
X140059Y59114D01*
X140067Y59068D01*
X140073Y59029D01*
X140076Y58999D01*
Y58988D01*
Y58980D01*
Y58978D01*
Y58975D01*
X140073Y58920D01*
X140067Y58868D01*
X140056Y58819D01*
X140043Y58770D01*
X140026Y58726D01*
X140007Y58685D01*
X139988Y58647D01*
X139969Y58614D01*
X139950Y58582D01*
X139931Y58554D01*
X139912Y58530D01*
X139895Y58511D01*
X139882Y58497D01*
X139871Y58483D01*
X139865Y58478D01*
X139863Y58475D01*
X139822Y58440D01*
X139778Y58410D01*
X139732Y58382D01*
X139682Y58358D01*
X139636Y58339D01*
X139587Y58322D01*
X139541Y58309D01*
X139494Y58298D01*
X139453Y58290D01*
X139412Y58284D01*
X139377Y58279D01*
X139347Y58276D01*
X139322Y58273D01*
X139287D01*
X139221Y58276D01*
X139158Y58281D01*
X139101Y58290D01*
X139046Y58303D01*
X138995Y58317D01*
X138948Y58333D01*
X138904Y58350D01*
X138866Y58366D01*
X138831Y58385D01*
X138801Y58402D01*
X138773Y58418D01*
X138751Y58432D01*
X138735Y58445D01*
X138724Y58453D01*
X138716Y58459D01*
X138713Y58462D01*
X138675Y58497D01*
X138642Y58538D01*
X138612Y58579D01*
X138585Y58625D01*
X138563Y58669D01*
X138541Y58713D01*
X138525Y58759D01*
X138511Y58800D01*
X138498Y58841D01*
X138489Y58879D01*
X138481Y58915D01*
X138476Y58945D01*
X138473Y58969D01*
X138470Y58986D01*
X138468Y58997D01*
Y59002D01*
X138784Y59035D01*
X138787Y58991D01*
X138790Y58950D01*
X138806Y58879D01*
X138828Y58814D01*
X138839Y58786D01*
X138853Y58762D01*
X138863Y58740D01*
X138877Y58721D01*
X138888Y58705D01*
X138896Y58691D01*
X138907Y58680D01*
X138913Y58672D01*
X138915Y58669D01*
X138918Y58666D01*
X138945Y58642D01*
X138973Y58620D01*
X139003Y58604D01*
X139033Y58587D01*
X139093Y58563D01*
X139150Y58546D01*
X139199Y58538D01*
X139221Y58533D01*
X139240D01*
X139257Y58530D01*
X139317D01*
X139355Y58535D01*
X139423Y58549D01*
X139480Y58571D01*
X139532Y58593D01*
X139570Y58617D01*
X139587Y58628D01*
X139601Y58639D01*
X139611Y58647D01*
X139620Y58653D01*
X139622Y58655D01*
X139625Y58658D01*
X139650Y58683D01*
X139669Y58707D01*
X139688Y58732D01*
X139701Y58759D01*
X139726Y58811D01*
X139743Y58860D01*
X139751Y58901D01*
X139756Y58920D01*
Y58937D01*
X139759Y58947D01*
Y58958D01*
Y58964D01*
Y58967D01*
X139756Y58999D01*
X139753Y59032D01*
X139737Y59098D01*
X139712Y59160D01*
X139685Y59218D01*
X139658Y59267D01*
X139647Y59286D01*
X139633Y59305D01*
X139625Y59319D01*
X139617Y59330D01*
X139614Y59335D01*
X139611Y59338D01*
X139581Y59376D01*
X139546Y59417D01*
X139505Y59461D01*
X139461Y59504D01*
X139371Y59595D01*
X139278Y59679D01*
X139235Y59720D01*
X139191Y59756D01*
X139153Y59788D01*
X139120Y59816D01*
X139093Y59840D01*
X139074Y59857D01*
X139060Y59870D01*
X139055Y59873D01*
X139005Y59914D01*
X138962Y59952D01*
X138918Y59988D01*
X138880Y60023D01*
X138842Y60056D01*
X138809Y60089D01*
X138779Y60116D01*
X138751Y60143D01*
X138727Y60168D01*
X138708Y60190D01*
X138689Y60209D01*
X138675Y60222D01*
X138661Y60236D01*
X138653Y60244D01*
X138651Y60250D01*
X138648Y60252D01*
X138599Y60312D01*
X138558Y60373D01*
X138522Y60430D01*
X138495Y60482D01*
X138473Y60525D01*
X138465Y60545D01*
X138457Y60558D01*
X138451Y60572D01*
X138449Y60580D01*
X138446Y60585D01*
Y60588D01*
X138432Y60626D01*
X138424Y60665D01*
X138416Y60700D01*
X138413Y60733D01*
X138410Y60760D01*
Y60782D01*
Y60796D01*
Y60801D01*
X140078D01*
Y60504D01*
D02*
G37*
G36*
X136761Y70276D02*
X134711D01*
Y70500D01*
X136761D01*
Y70276D01*
D02*
G37*
G36*
X140695Y69839D02*
X140764Y69834D01*
X140829Y69823D01*
X140892Y69809D01*
X140952Y69793D01*
X141007Y69774D01*
X141056Y69755D01*
X141102Y69736D01*
X141146Y69717D01*
X141181Y69697D01*
X141214Y69678D01*
X141239Y69662D01*
X141261Y69648D01*
X141274Y69637D01*
X141285Y69632D01*
X141288Y69629D01*
X141337Y69586D01*
X141383Y69539D01*
X141424Y69490D01*
X141463Y69441D01*
X141498Y69389D01*
X141528Y69334D01*
X141555Y69285D01*
X141580Y69233D01*
X141602Y69187D01*
X141618Y69143D01*
X141635Y69102D01*
X141646Y69069D01*
X141656Y69039D01*
X141662Y69020D01*
X141667Y69007D01*
Y69001D01*
X141334Y68917D01*
X141321Y68974D01*
X141302Y69029D01*
X141282Y69080D01*
X141263Y69127D01*
X141241Y69170D01*
X141220Y69209D01*
X141198Y69244D01*
X141176Y69277D01*
X141154Y69304D01*
X141135Y69329D01*
X141116Y69351D01*
X141102Y69367D01*
X141088Y69381D01*
X141078Y69389D01*
X141072Y69394D01*
X141069Y69397D01*
X141031Y69424D01*
X140993Y69449D01*
X140955Y69471D01*
X140914Y69490D01*
X140873Y69506D01*
X140835Y69520D01*
X140758Y69539D01*
X140725Y69545D01*
X140693Y69550D01*
X140665Y69553D01*
X140641Y69555D01*
X140622Y69558D01*
X140594D01*
X140551Y69555D01*
X140510Y69553D01*
X140431Y69539D01*
X140357Y69520D01*
X140294Y69498D01*
X140267Y69487D01*
X140242Y69479D01*
X140220Y69468D01*
X140201Y69460D01*
X140185Y69452D01*
X140174Y69446D01*
X140168Y69441D01*
X140166D01*
X140130Y69416D01*
X140097Y69392D01*
X140038Y69334D01*
X139988Y69277D01*
X139947Y69217D01*
X139917Y69165D01*
X139904Y69143D01*
X139893Y69121D01*
X139887Y69105D01*
X139882Y69094D01*
X139876Y69086D01*
Y69083D01*
X139846Y68990D01*
X139822Y68895D01*
X139805Y68799D01*
X139800Y68756D01*
X139795Y68712D01*
X139792Y68671D01*
X139789Y68635D01*
X139786Y68603D01*
Y68575D01*
X139784Y68551D01*
Y68534D01*
Y68524D01*
Y68521D01*
X139786Y68428D01*
X139795Y68341D01*
X139808Y68259D01*
X139814Y68221D01*
X139822Y68185D01*
X139830Y68155D01*
X139836Y68125D01*
X139844Y68100D01*
X139849Y68079D01*
X139852Y68062D01*
X139857Y68049D01*
X139860Y68040D01*
Y68038D01*
X139895Y67953D01*
X139936Y67879D01*
X139980Y67817D01*
X140005Y67789D01*
X140027Y67762D01*
X140048Y67740D01*
X140068Y67721D01*
X140087Y67702D01*
X140100Y67688D01*
X140114Y67677D01*
X140125Y67669D01*
X140130Y67666D01*
X140133Y67664D01*
X140171Y67639D01*
X140209Y67617D01*
X140250Y67598D01*
X140291Y67582D01*
X140373Y67557D01*
X140452Y67538D01*
X140485Y67532D01*
X140518Y67530D01*
X140548Y67527D01*
X140573Y67524D01*
X140594Y67522D01*
X140668D01*
X140712Y67527D01*
X140794Y67541D01*
X140865Y67563D01*
X140895Y67573D01*
X140925Y67584D01*
X140952Y67595D01*
X140974Y67606D01*
X140993Y67617D01*
X141009Y67628D01*
X141023Y67636D01*
X141031Y67642D01*
X141037Y67645D01*
X141039Y67647D01*
X141069Y67672D01*
X141100Y67699D01*
X141149Y67762D01*
X141195Y67830D01*
X141230Y67896D01*
X141258Y67956D01*
X141271Y67980D01*
X141280Y68002D01*
X141288Y68021D01*
X141291Y68038D01*
X141296Y68046D01*
Y68049D01*
X141624Y67972D01*
X141602Y67909D01*
X141577Y67849D01*
X141553Y67792D01*
X141523Y67740D01*
X141495Y67691D01*
X141465Y67647D01*
X141435Y67606D01*
X141405Y67571D01*
X141375Y67538D01*
X141351Y67511D01*
X141326Y67486D01*
X141304Y67467D01*
X141288Y67451D01*
X141274Y67440D01*
X141266Y67434D01*
X141263Y67431D01*
X141214Y67396D01*
X141162Y67369D01*
X141110Y67341D01*
X141056Y67320D01*
X141001Y67300D01*
X140949Y67284D01*
X140897Y67273D01*
X140848Y67262D01*
X140802Y67254D01*
X140761Y67249D01*
X140723Y67243D01*
X140690Y67240D01*
X140663Y67238D01*
X140627D01*
X140564Y67240D01*
X140504Y67243D01*
X140392Y67262D01*
X140338Y67273D01*
X140289Y67287D01*
X140240Y67300D01*
X140196Y67314D01*
X140158Y67328D01*
X140122Y67341D01*
X140089Y67355D01*
X140065Y67366D01*
X140043Y67377D01*
X140029Y67385D01*
X140018Y67388D01*
X140016Y67391D01*
X139966Y67421D01*
X139917Y67453D01*
X139874Y67489D01*
X139833Y67524D01*
X139795Y67563D01*
X139759Y67598D01*
X139729Y67636D01*
X139699Y67669D01*
X139674Y67704D01*
X139653Y67735D01*
X139633Y67762D01*
X139617Y67786D01*
X139606Y67808D01*
X139598Y67822D01*
X139593Y67833D01*
X139590Y67836D01*
X139562Y67890D01*
X139541Y67950D01*
X139522Y68008D01*
X139502Y68065D01*
X139475Y68182D01*
X139467Y68237D01*
X139459Y68289D01*
X139453Y68338D01*
X139448Y68382D01*
X139445Y68423D01*
X139442Y68458D01*
X139440Y68485D01*
Y68507D01*
Y68518D01*
Y68524D01*
X139442Y68589D01*
X139445Y68655D01*
X139461Y68780D01*
X139470Y68840D01*
X139481Y68895D01*
X139494Y68947D01*
X139505Y68996D01*
X139519Y69039D01*
X139530Y69080D01*
X139541Y69113D01*
X139551Y69143D01*
X139560Y69165D01*
X139565Y69184D01*
X139568Y69195D01*
X139571Y69198D01*
X139598Y69255D01*
X139625Y69310D01*
X139655Y69359D01*
X139688Y69405D01*
X139721Y69449D01*
X139751Y69487D01*
X139784Y69523D01*
X139814Y69555D01*
X139844Y69586D01*
X139871Y69610D01*
X139895Y69629D01*
X139917Y69648D01*
X139934Y69662D01*
X139947Y69670D01*
X139956Y69676D01*
X139958Y69678D01*
X140007Y69708D01*
X140059Y69733D01*
X140114Y69755D01*
X140171Y69774D01*
X140226Y69788D01*
X140280Y69801D01*
X140335Y69812D01*
X140387Y69820D01*
X140436Y69828D01*
X140480Y69834D01*
X140521Y69837D01*
X140553Y69839D01*
X140584Y69842D01*
X140622D01*
X140695Y69839D01*
D02*
G37*
G36*
X138154D02*
X138222Y69834D01*
X138288Y69823D01*
X138350Y69809D01*
X138410Y69793D01*
X138465Y69774D01*
X138514Y69755D01*
X138560Y69736D01*
X138604Y69717D01*
X138640Y69697D01*
X138672Y69678D01*
X138697Y69662D01*
X138719Y69648D01*
X138733Y69637D01*
X138743Y69632D01*
X138746Y69629D01*
X138795Y69586D01*
X138842Y69539D01*
X138883Y69490D01*
X138921Y69441D01*
X138956Y69389D01*
X138986Y69334D01*
X139014Y69285D01*
X139038Y69233D01*
X139060Y69187D01*
X139076Y69143D01*
X139093Y69102D01*
X139104Y69069D01*
X139115Y69039D01*
X139120Y69020D01*
X139126Y69007D01*
Y69001D01*
X138793Y68917D01*
X138779Y68974D01*
X138760Y69029D01*
X138741Y69080D01*
X138722Y69127D01*
X138700Y69170D01*
X138678Y69209D01*
X138656Y69244D01*
X138634Y69277D01*
X138612Y69304D01*
X138593Y69329D01*
X138574Y69351D01*
X138560Y69367D01*
X138547Y69381D01*
X138536Y69389D01*
X138531Y69394D01*
X138528Y69397D01*
X138490Y69424D01*
X138451Y69449D01*
X138413Y69471D01*
X138372Y69490D01*
X138331Y69506D01*
X138293Y69520D01*
X138217Y69539D01*
X138184Y69545D01*
X138151Y69550D01*
X138124Y69553D01*
X138099Y69555D01*
X138080Y69558D01*
X138053D01*
X138009Y69555D01*
X137968Y69553D01*
X137889Y69539D01*
X137815Y69520D01*
X137752Y69498D01*
X137725Y69487D01*
X137701Y69479D01*
X137679Y69468D01*
X137660Y69460D01*
X137643Y69452D01*
X137632Y69446D01*
X137627Y69441D01*
X137624D01*
X137589Y69416D01*
X137556Y69392D01*
X137496Y69334D01*
X137447Y69277D01*
X137406Y69217D01*
X137376Y69165D01*
X137362Y69143D01*
X137351Y69121D01*
X137346Y69105D01*
X137340Y69094D01*
X137335Y69086D01*
Y69083D01*
X137305Y68990D01*
X137280Y68895D01*
X137264Y68799D01*
X137258Y68756D01*
X137253Y68712D01*
X137250Y68671D01*
X137247Y68635D01*
X137245Y68603D01*
Y68575D01*
X137242Y68551D01*
Y68534D01*
Y68524D01*
Y68521D01*
X137245Y68428D01*
X137253Y68341D01*
X137267Y68259D01*
X137272Y68221D01*
X137280Y68185D01*
X137288Y68155D01*
X137294Y68125D01*
X137302Y68100D01*
X137308Y68079D01*
X137310Y68062D01*
X137316Y68049D01*
X137318Y68040D01*
Y68038D01*
X137354Y67953D01*
X137395Y67879D01*
X137438Y67817D01*
X137463Y67789D01*
X137485Y67762D01*
X137507Y67740D01*
X137526Y67721D01*
X137545Y67702D01*
X137559Y67688D01*
X137572Y67677D01*
X137583Y67669D01*
X137589Y67666D01*
X137591Y67664D01*
X137630Y67639D01*
X137668Y67617D01*
X137709Y67598D01*
X137750Y67582D01*
X137832Y67557D01*
X137911Y67538D01*
X137944Y67532D01*
X137976Y67530D01*
X138006Y67527D01*
X138031Y67524D01*
X138053Y67522D01*
X138127D01*
X138170Y67527D01*
X138252Y67541D01*
X138323Y67563D01*
X138353Y67573D01*
X138383Y67584D01*
X138410Y67595D01*
X138432Y67606D01*
X138451Y67617D01*
X138468Y67628D01*
X138481Y67636D01*
X138490Y67642D01*
X138495Y67645D01*
X138498Y67647D01*
X138528Y67672D01*
X138558Y67699D01*
X138607Y67762D01*
X138653Y67830D01*
X138689Y67896D01*
X138716Y67956D01*
X138730Y67980D01*
X138738Y68002D01*
X138746Y68021D01*
X138749Y68038D01*
X138754Y68046D01*
Y68049D01*
X139082Y67972D01*
X139060Y67909D01*
X139036Y67849D01*
X139011Y67792D01*
X138981Y67740D01*
X138954Y67691D01*
X138924Y67647D01*
X138894Y67606D01*
X138864Y67571D01*
X138833Y67538D01*
X138809Y67511D01*
X138784Y67486D01*
X138763Y67467D01*
X138746Y67451D01*
X138733Y67440D01*
X138724Y67434D01*
X138722Y67431D01*
X138672Y67396D01*
X138621Y67369D01*
X138569Y67341D01*
X138514Y67320D01*
X138460Y67300D01*
X138408Y67284D01*
X138356Y67273D01*
X138307Y67262D01*
X138260Y67254D01*
X138219Y67249D01*
X138181Y67243D01*
X138148Y67240D01*
X138121Y67238D01*
X138085D01*
X138023Y67240D01*
X137963Y67243D01*
X137851Y67262D01*
X137796Y67273D01*
X137747Y67287D01*
X137698Y67300D01*
X137654Y67314D01*
X137616Y67328D01*
X137581Y67341D01*
X137548Y67355D01*
X137523Y67366D01*
X137501Y67377D01*
X137488Y67385D01*
X137477Y67388D01*
X137474Y67391D01*
X137425Y67421D01*
X137376Y67453D01*
X137332Y67489D01*
X137291Y67524D01*
X137253Y67563D01*
X137217Y67598D01*
X137187Y67636D01*
X137157Y67669D01*
X137133Y67704D01*
X137111Y67735D01*
X137092Y67762D01*
X137075Y67786D01*
X137065Y67808D01*
X137056Y67822D01*
X137051Y67833D01*
X137048Y67836D01*
X137021Y67890D01*
X136999Y67950D01*
X136980Y68008D01*
X136961Y68065D01*
X136934Y68182D01*
X136925Y68237D01*
X136917Y68289D01*
X136912Y68338D01*
X136906Y68382D01*
X136903Y68423D01*
X136901Y68458D01*
X136898Y68485D01*
Y68507D01*
Y68518D01*
Y68524D01*
X136901Y68589D01*
X136903Y68655D01*
X136920Y68780D01*
X136928Y68840D01*
X136939Y68895D01*
X136953Y68947D01*
X136963Y68996D01*
X136977Y69039D01*
X136988Y69080D01*
X136999Y69113D01*
X137010Y69143D01*
X137018Y69165D01*
X137024Y69184D01*
X137026Y69195D01*
X137029Y69198D01*
X137056Y69255D01*
X137084Y69310D01*
X137114Y69359D01*
X137146Y69405D01*
X137179Y69449D01*
X137209Y69487D01*
X137242Y69523D01*
X137272Y69555D01*
X137302Y69586D01*
X137329Y69610D01*
X137354Y69629D01*
X137376Y69648D01*
X137392Y69662D01*
X137406Y69670D01*
X137414Y69676D01*
X137417Y69678D01*
X137466Y69708D01*
X137518Y69733D01*
X137572Y69755D01*
X137630Y69774D01*
X137684Y69788D01*
X137739Y69801D01*
X137793Y69812D01*
X137845Y69820D01*
X137894Y69828D01*
X137938Y69834D01*
X137979Y69837D01*
X138012Y69839D01*
X138042Y69842D01*
X138080D01*
X138154Y69839D01*
D02*
G37*
G36*
X134280Y69116D02*
X134231Y69045D01*
X134182Y68979D01*
X134135Y68922D01*
X134094Y68873D01*
X134059Y68835D01*
X134042Y68818D01*
X134029Y68805D01*
X134018Y68794D01*
X134010Y68786D01*
X134007Y68783D01*
X134004Y68780D01*
X133977Y68758D01*
X133944Y68734D01*
X133911Y68715D01*
X133879Y68695D01*
X133849Y68679D01*
X133824Y68665D01*
X133808Y68657D01*
X133805Y68655D01*
X133802D01*
X133868Y68644D01*
X133931Y68630D01*
X133988Y68614D01*
X134040Y68597D01*
X134089Y68578D01*
X134133Y68559D01*
X134171Y68540D01*
X134206Y68521D01*
X134239Y68502D01*
X134266Y68483D01*
X134288Y68466D01*
X134307Y68453D01*
X134321Y68439D01*
X134332Y68431D01*
X134337Y68425D01*
X134340Y68423D01*
X134370Y68387D01*
X134397Y68352D01*
X134422Y68313D01*
X134441Y68275D01*
X134457Y68237D01*
X134471Y68199D01*
X134493Y68128D01*
X134501Y68095D01*
X134506Y68065D01*
X134509Y68038D01*
X134512Y68013D01*
X134515Y67997D01*
Y67980D01*
Y67972D01*
Y67969D01*
X134509Y67893D01*
X134498Y67822D01*
X134482Y67759D01*
X134463Y67702D01*
X134452Y67677D01*
X134441Y67655D01*
X134433Y67636D01*
X134425Y67620D01*
X134419Y67606D01*
X134414Y67598D01*
X134408Y67593D01*
Y67590D01*
X134367Y67530D01*
X134321Y67481D01*
X134274Y67437D01*
X134228Y67404D01*
X134190Y67380D01*
X134157Y67363D01*
X134143Y67358D01*
X134135Y67352D01*
X134130Y67350D01*
X134127D01*
X134091Y67339D01*
X134056Y67328D01*
X133974Y67311D01*
X133889Y67298D01*
X133808Y67290D01*
X133767Y67287D01*
X133731Y67284D01*
X133701D01*
X133671Y67281D01*
X132500D01*
Y69801D01*
X132833D01*
Y68682D01*
X133262D01*
X133300Y68685D01*
X133333Y68687D01*
X133360D01*
X133379Y68690D01*
X133393Y68693D01*
X133401Y68695D01*
X133404D01*
X133434Y68704D01*
X133461Y68715D01*
X133485Y68726D01*
X133510Y68736D01*
X133529Y68747D01*
X133543Y68756D01*
X133554Y68761D01*
X133556Y68764D01*
X133584Y68783D01*
X133614Y68810D01*
X133644Y68837D01*
X133668Y68865D01*
X133693Y68889D01*
X133709Y68911D01*
X133720Y68925D01*
X133726Y68928D01*
Y68930D01*
X133764Y68979D01*
X133805Y69034D01*
X133843Y69091D01*
X133881Y69149D01*
X133914Y69198D01*
X133931Y69220D01*
X133941Y69239D01*
X133952Y69255D01*
X133960Y69266D01*
X133963Y69274D01*
X133966Y69277D01*
X134299Y69801D01*
X134717D01*
X134280Y69116D01*
D02*
G37*
G36*
X143117Y67273D02*
X142918D01*
X142882Y67336D01*
X142841Y67396D01*
X142795Y67453D01*
X142748Y67502D01*
X142707Y67549D01*
X142688Y67565D01*
X142675Y67582D01*
X142661Y67595D01*
X142650Y67603D01*
X142645Y67609D01*
X142642Y67612D01*
X142568Y67674D01*
X142489Y67729D01*
X142413Y67781D01*
X142342Y67825D01*
X142312Y67841D01*
X142281Y67857D01*
X142254Y67874D01*
X142232Y67885D01*
X142213Y67893D01*
X142200Y67901D01*
X142192Y67904D01*
X142189Y67907D01*
Y68204D01*
X142243Y68182D01*
X142301Y68158D01*
X142355Y68130D01*
X142404Y68106D01*
X142448Y68081D01*
X142467Y68073D01*
X142484Y68062D01*
X142497Y68057D01*
X142505Y68051D01*
X142511Y68046D01*
X142514D01*
X142579Y68005D01*
X142636Y67967D01*
X142688Y67931D01*
X142729Y67898D01*
X142765Y67871D01*
X142789Y67852D01*
X142803Y67838D01*
X142808Y67833D01*
Y69801D01*
X143117D01*
Y67273D01*
D02*
G37*
G36*
X55852Y139771D02*
X55916Y139766D01*
X55974Y139758D01*
X56029Y139744D01*
X56082Y139730D01*
X56129Y139713D01*
X56174Y139697D01*
X56212Y139680D01*
X56248Y139661D01*
X56279Y139644D01*
X56306Y139627D01*
X56329Y139613D01*
X56345Y139600D01*
X56356Y139591D01*
X56365Y139586D01*
X56367Y139583D01*
X56406Y139547D01*
X56440Y139505D01*
X56470Y139464D01*
X56498Y139417D01*
X56520Y139372D01*
X56542Y139328D01*
X56559Y139281D01*
X56573Y139240D01*
X56586Y139198D01*
X56595Y139159D01*
X56603Y139123D01*
X56608Y139093D01*
X56611Y139068D01*
X56614Y139051D01*
X56617Y139040D01*
Y139034D01*
X56296Y139001D01*
X56293Y139046D01*
X56290Y139087D01*
X56273Y139159D01*
X56251Y139226D01*
X56240Y139253D01*
X56226Y139278D01*
X56215Y139300D01*
X56201Y139320D01*
X56190Y139336D01*
X56182Y139350D01*
X56171Y139361D01*
X56165Y139370D01*
X56163Y139372D01*
X56160Y139375D01*
X56132Y139400D01*
X56104Y139422D01*
X56074Y139439D01*
X56043Y139455D01*
X55982Y139480D01*
X55924Y139497D01*
X55874Y139505D01*
X55852Y139511D01*
X55833D01*
X55816Y139514D01*
X55755D01*
X55717Y139508D01*
X55647Y139494D01*
X55589Y139472D01*
X55537Y139450D01*
X55498Y139425D01*
X55481Y139414D01*
X55467Y139403D01*
X55456Y139395D01*
X55448Y139389D01*
X55445Y139386D01*
X55442Y139383D01*
X55417Y139359D01*
X55398Y139334D01*
X55379Y139309D01*
X55365Y139281D01*
X55340Y139228D01*
X55323Y139179D01*
X55315Y139137D01*
X55309Y139118D01*
Y139101D01*
X55307Y139090D01*
Y139079D01*
Y139073D01*
Y139070D01*
X55309Y139037D01*
X55312Y139004D01*
X55329Y138938D01*
X55354Y138874D01*
X55381Y138816D01*
X55409Y138766D01*
X55420Y138746D01*
X55434Y138727D01*
X55442Y138713D01*
X55451Y138702D01*
X55453Y138697D01*
X55456Y138694D01*
X55487Y138655D01*
X55523Y138613D01*
X55564Y138569D01*
X55608Y138525D01*
X55700Y138433D01*
X55794Y138347D01*
X55838Y138306D01*
X55883Y138270D01*
X55922Y138237D01*
X55955Y138209D01*
X55982Y138184D01*
X56002Y138168D01*
X56016Y138154D01*
X56021Y138151D01*
X56071Y138109D01*
X56115Y138070D01*
X56160Y138034D01*
X56199Y137998D01*
X56237Y137965D01*
X56270Y137932D01*
X56301Y137904D01*
X56329Y137877D01*
X56354Y137852D01*
X56373Y137829D01*
X56392Y137810D01*
X56406Y137796D01*
X56420Y137783D01*
X56428Y137774D01*
X56431Y137769D01*
X56434Y137766D01*
X56484Y137705D01*
X56525Y137644D01*
X56561Y137586D01*
X56589Y137533D01*
X56611Y137489D01*
X56620Y137469D01*
X56628Y137456D01*
X56633Y137442D01*
X56636Y137433D01*
X56639Y137428D01*
Y137425D01*
X56653Y137386D01*
X56661Y137348D01*
X56669Y137312D01*
X56672Y137278D01*
X56675Y137251D01*
Y137229D01*
Y137215D01*
Y137209D01*
X54983D01*
Y137511D01*
X56243D01*
X56199Y137572D01*
X56176Y137600D01*
X56154Y137625D01*
X56135Y137647D01*
X56121Y137663D01*
X56110Y137674D01*
X56107Y137677D01*
X56090Y137694D01*
X56068Y137716D01*
X56043Y137738D01*
X56016Y137763D01*
X55958Y137819D01*
X55897Y137871D01*
X55838Y137921D01*
X55813Y137943D01*
X55788Y137962D01*
X55772Y137979D01*
X55755Y137990D01*
X55747Y137998D01*
X55744Y138001D01*
X55683Y138054D01*
X55625Y138104D01*
X55572Y138148D01*
X55525Y138192D01*
X55481Y138231D01*
X55442Y138270D01*
X55406Y138303D01*
X55373Y138334D01*
X55345Y138359D01*
X55323Y138383D01*
X55304Y138403D01*
X55287Y138420D01*
X55276Y138433D01*
X55265Y138442D01*
X55262Y138447D01*
X55260Y138450D01*
X55207Y138511D01*
X55165Y138566D01*
X55129Y138619D01*
X55099Y138666D01*
X55077Y138705D01*
X55060Y138735D01*
X55054Y138746D01*
X55052Y138755D01*
X55049Y138758D01*
Y138760D01*
X55027Y138816D01*
X55013Y138871D01*
X55002Y138921D01*
X54994Y138968D01*
X54988Y139007D01*
X54985Y139037D01*
Y139048D01*
Y139057D01*
Y139059D01*
Y139062D01*
X54988Y139118D01*
X54994Y139170D01*
X55005Y139220D01*
X55019Y139270D01*
X55035Y139314D01*
X55054Y139356D01*
X55074Y139395D01*
X55093Y139428D01*
X55113Y139461D01*
X55132Y139489D01*
X55151Y139514D01*
X55168Y139533D01*
X55182Y139547D01*
X55193Y139561D01*
X55199Y139566D01*
X55201Y139569D01*
X55243Y139605D01*
X55287Y139636D01*
X55334Y139663D01*
X55384Y139688D01*
X55431Y139708D01*
X55481Y139724D01*
X55528Y139738D01*
X55575Y139749D01*
X55617Y139758D01*
X55658Y139763D01*
X55694Y139769D01*
X55725Y139771D01*
X55750Y139774D01*
X55786D01*
X55852Y139771D01*
D02*
G37*
G36*
X62013Y137209D02*
X61661D01*
X61124Y139156D01*
X61110Y139204D01*
X61096Y139253D01*
X61082Y139306D01*
X61071Y139353D01*
X61060Y139392D01*
X61057Y139411D01*
X61054Y139425D01*
X61049Y139439D01*
Y139447D01*
X61046Y139453D01*
Y139455D01*
X61043Y139444D01*
X61038Y139428D01*
X61032Y139408D01*
X61027Y139386D01*
X61013Y139336D01*
X60999Y139287D01*
X60985Y139237D01*
X60979Y139215D01*
X60974Y139195D01*
X60968Y139179D01*
X60966Y139167D01*
X60963Y139159D01*
Y139156D01*
X60428Y137209D01*
X60099D01*
X59398Y139766D01*
X59739D01*
X60140Y138120D01*
X60168Y138007D01*
X60193Y137902D01*
X60204Y137855D01*
X60215Y137807D01*
X60223Y137766D01*
X60232Y137727D01*
X60240Y137691D01*
X60248Y137661D01*
X60254Y137633D01*
X60259Y137608D01*
X60262Y137591D01*
X60265Y137577D01*
X60268Y137569D01*
Y137566D01*
X60295Y137727D01*
X60326Y137885D01*
X60342Y137962D01*
X60359Y138037D01*
X60376Y138109D01*
X60392Y138176D01*
X60409Y138240D01*
X60423Y138295D01*
X60437Y138345D01*
X60448Y138386D01*
X60456Y138422D01*
X60464Y138447D01*
X60467Y138464D01*
X60470Y138469D01*
X60833Y139766D01*
X61240D01*
X61727Y138037D01*
X61733Y138021D01*
X61739Y137998D01*
X61744Y137971D01*
X61752Y137938D01*
X61763Y137899D01*
X61772Y137860D01*
X61794Y137777D01*
X61802Y137738D01*
X61813Y137699D01*
X61822Y137663D01*
X61827Y137630D01*
X61835Y137605D01*
X61838Y137583D01*
X61844Y137572D01*
Y137566D01*
X61860Y137663D01*
X61880Y137758D01*
X61896Y137843D01*
X61905Y137885D01*
X61913Y137924D01*
X61921Y137960D01*
X61930Y137990D01*
X61935Y138018D01*
X61941Y138043D01*
X61946Y138062D01*
X61949Y138076D01*
X61952Y138084D01*
Y138087D01*
X62337Y139766D01*
X62686D01*
X62013Y137209D01*
D02*
G37*
G36*
X68359Y139807D02*
X68420Y139805D01*
X68533Y139785D01*
X68589Y139774D01*
X68639Y139760D01*
X68688Y139746D01*
X68733Y139733D01*
X68771Y139719D01*
X68808Y139705D01*
X68841Y139691D01*
X68866Y139680D01*
X68888Y139669D01*
X68902Y139661D01*
X68913Y139658D01*
X68916Y139655D01*
X68965Y139625D01*
X69015Y139591D01*
X69060Y139555D01*
X69101Y139519D01*
X69140Y139480D01*
X69176Y139444D01*
X69206Y139406D01*
X69237Y139372D01*
X69262Y139336D01*
X69284Y139306D01*
X69303Y139278D01*
X69320Y139253D01*
X69331Y139231D01*
X69339Y139217D01*
X69345Y139206D01*
X69348Y139204D01*
X69375Y139148D01*
X69398Y139087D01*
X69417Y139029D01*
X69436Y138971D01*
X69464Y138852D01*
X69472Y138796D01*
X69481Y138744D01*
X69486Y138694D01*
X69492Y138649D01*
X69494Y138608D01*
X69497Y138572D01*
X69500Y138544D01*
Y138522D01*
Y138511D01*
Y138505D01*
X69497Y138439D01*
X69494Y138373D01*
X69478Y138245D01*
X69470Y138184D01*
X69459Y138129D01*
X69445Y138076D01*
X69434Y138026D01*
X69420Y137982D01*
X69409Y137940D01*
X69398Y137907D01*
X69387Y137877D01*
X69378Y137855D01*
X69373Y137835D01*
X69370Y137824D01*
X69367Y137821D01*
X69339Y137763D01*
X69312Y137708D01*
X69281Y137658D01*
X69248Y137611D01*
X69215Y137566D01*
X69184Y137528D01*
X69151Y137492D01*
X69121Y137458D01*
X69090Y137428D01*
X69062Y137403D01*
X69037Y137384D01*
X69015Y137364D01*
X68999Y137350D01*
X68985Y137342D01*
X68976Y137337D01*
X68974Y137334D01*
X68924Y137303D01*
X68871Y137278D01*
X68816Y137256D01*
X68758Y137237D01*
X68702Y137223D01*
X68647Y137209D01*
X68591Y137198D01*
X68539Y137190D01*
X68489Y137181D01*
X68445Y137176D01*
X68403Y137173D01*
X68370Y137170D01*
X68339Y137168D01*
X68301D01*
X68226Y137170D01*
X68157Y137176D01*
X68090Y137187D01*
X68026Y137201D01*
X67966Y137217D01*
X67910Y137237D01*
X67860Y137256D01*
X67813Y137276D01*
X67769Y137295D01*
X67733Y137314D01*
X67699Y137334D01*
X67675Y137350D01*
X67652Y137364D01*
X67639Y137375D01*
X67628Y137381D01*
X67625Y137384D01*
X67575Y137428D01*
X67528Y137475D01*
X67486Y137525D01*
X67448Y137575D01*
X67412Y137627D01*
X67381Y137683D01*
X67353Y137733D01*
X67328Y137785D01*
X67306Y137832D01*
X67290Y137877D01*
X67273Y137918D01*
X67262Y137951D01*
X67251Y137982D01*
X67245Y138001D01*
X67240Y138015D01*
Y138021D01*
X67578Y138107D01*
X67592Y138048D01*
X67611Y137993D01*
X67630Y137940D01*
X67650Y137893D01*
X67672Y137849D01*
X67694Y137810D01*
X67716Y137774D01*
X67738Y137741D01*
X67760Y137713D01*
X67780Y137688D01*
X67799Y137666D01*
X67813Y137650D01*
X67827Y137636D01*
X67838Y137627D01*
X67844Y137622D01*
X67846Y137619D01*
X67885Y137591D01*
X67924Y137566D01*
X67963Y137544D01*
X68004Y137525D01*
X68046Y137508D01*
X68085Y137494D01*
X68162Y137475D01*
X68195Y137469D01*
X68229Y137464D01*
X68256Y137461D01*
X68281Y137458D01*
X68301Y137456D01*
X68328D01*
X68373Y137458D01*
X68414Y137461D01*
X68494Y137475D01*
X68569Y137494D01*
X68633Y137516D01*
X68661Y137528D01*
X68686Y137536D01*
X68708Y137547D01*
X68727Y137555D01*
X68744Y137564D01*
X68755Y137569D01*
X68761Y137575D01*
X68763D01*
X68799Y137600D01*
X68832Y137625D01*
X68893Y137683D01*
X68943Y137741D01*
X68985Y137802D01*
X69015Y137855D01*
X69029Y137877D01*
X69040Y137899D01*
X69046Y137915D01*
X69051Y137926D01*
X69057Y137935D01*
Y137938D01*
X69087Y138032D01*
X69112Y138129D01*
X69129Y138226D01*
X69134Y138270D01*
X69140Y138314D01*
X69143Y138356D01*
X69146Y138392D01*
X69148Y138425D01*
Y138453D01*
X69151Y138478D01*
Y138494D01*
Y138505D01*
Y138508D01*
X69148Y138602D01*
X69140Y138691D01*
X69126Y138774D01*
X69121Y138813D01*
X69112Y138849D01*
X69104Y138879D01*
X69098Y138910D01*
X69090Y138935D01*
X69085Y138957D01*
X69082Y138974D01*
X69076Y138987D01*
X69073Y138996D01*
Y138998D01*
X69037Y139084D01*
X68996Y139159D01*
X68952Y139223D01*
X68927Y139251D01*
X68905Y139278D01*
X68882Y139300D01*
X68863Y139320D01*
X68844Y139339D01*
X68830Y139353D01*
X68816Y139364D01*
X68805Y139372D01*
X68799Y139375D01*
X68796Y139378D01*
X68758Y139403D01*
X68719Y139425D01*
X68677Y139444D01*
X68636Y139461D01*
X68553Y139486D01*
X68472Y139505D01*
X68439Y139511D01*
X68406Y139514D01*
X68375Y139516D01*
X68350Y139519D01*
X68328Y139522D01*
X68253D01*
X68209Y139516D01*
X68126Y139503D01*
X68054Y139480D01*
X68024Y139469D01*
X67993Y139458D01*
X67966Y139447D01*
X67943Y139436D01*
X67924Y139425D01*
X67907Y139414D01*
X67893Y139406D01*
X67885Y139400D01*
X67880Y139397D01*
X67877Y139395D01*
X67846Y139370D01*
X67816Y139342D01*
X67766Y139278D01*
X67719Y139209D01*
X67683Y139143D01*
X67655Y139082D01*
X67641Y139057D01*
X67633Y139034D01*
X67625Y139015D01*
X67622Y138998D01*
X67616Y138990D01*
Y138987D01*
X67284Y139065D01*
X67306Y139129D01*
X67331Y139190D01*
X67356Y139248D01*
X67387Y139300D01*
X67414Y139350D01*
X67445Y139395D01*
X67475Y139436D01*
X67506Y139472D01*
X67536Y139505D01*
X67561Y139533D01*
X67586Y139558D01*
X67608Y139577D01*
X67625Y139594D01*
X67639Y139605D01*
X67647Y139611D01*
X67650Y139613D01*
X67699Y139649D01*
X67752Y139677D01*
X67805Y139705D01*
X67860Y139727D01*
X67916Y139746D01*
X67968Y139763D01*
X68021Y139774D01*
X68071Y139785D01*
X68118Y139794D01*
X68159Y139799D01*
X68198Y139805D01*
X68231Y139807D01*
X68259Y139810D01*
X68295D01*
X68359Y139807D01*
D02*
G37*
G36*
X64838Y137209D02*
X64500D01*
Y138248D01*
X63846D01*
X63747Y138251D01*
X63658Y138259D01*
X63575Y138270D01*
X63498Y138284D01*
X63431Y138301D01*
X63367Y138320D01*
X63315Y138339D01*
X63265Y138361D01*
X63223Y138381D01*
X63187Y138400D01*
X63157Y138420D01*
X63135Y138436D01*
X63115Y138453D01*
X63104Y138464D01*
X63096Y138469D01*
X63093Y138472D01*
X63057Y138516D01*
X63024Y138561D01*
X62996Y138608D01*
X62974Y138655D01*
X62952Y138702D01*
X62935Y138746D01*
X62921Y138791D01*
X62910Y138832D01*
X62902Y138874D01*
X62896Y138910D01*
X62891Y138940D01*
X62888Y138968D01*
X62885Y138993D01*
Y139010D01*
Y139021D01*
Y139023D01*
X62888Y139093D01*
X62896Y139159D01*
X62910Y139217D01*
X62924Y139270D01*
X62941Y139312D01*
X62946Y139331D01*
X62952Y139345D01*
X62957Y139356D01*
X62963Y139364D01*
X62966Y139370D01*
Y139372D01*
X62996Y139431D01*
X63029Y139478D01*
X63065Y139522D01*
X63096Y139555D01*
X63126Y139583D01*
X63148Y139602D01*
X63165Y139616D01*
X63168Y139619D01*
X63171D01*
X63221Y139649D01*
X63273Y139674D01*
X63326Y139697D01*
X63376Y139713D01*
X63420Y139727D01*
X63439Y139730D01*
X63456Y139735D01*
X63467Y139738D01*
X63478D01*
X63484Y139741D01*
X63486D01*
X63511Y139746D01*
X63542Y139749D01*
X63603Y139755D01*
X63666Y139760D01*
X63730Y139763D01*
X63785Y139766D01*
X64838D01*
Y137209D01*
D02*
G37*
G36*
X59079D02*
X58741D01*
Y138345D01*
X58306D01*
X58268Y138342D01*
X58235Y138339D01*
X58207D01*
X58187Y138337D01*
X58174Y138334D01*
X58165Y138331D01*
X58162D01*
X58132Y138323D01*
X58104Y138312D01*
X58079Y138301D01*
X58054Y138289D01*
X58035Y138278D01*
X58021Y138270D01*
X58010Y138264D01*
X58007Y138262D01*
X57980Y138242D01*
X57949Y138215D01*
X57919Y138187D01*
X57894Y138159D01*
X57869Y138134D01*
X57852Y138112D01*
X57841Y138098D01*
X57836Y138095D01*
Y138093D01*
X57797Y138043D01*
X57755Y137987D01*
X57717Y137929D01*
X57678Y137871D01*
X57644Y137821D01*
X57628Y137799D01*
X57617Y137780D01*
X57606Y137763D01*
X57597Y137752D01*
X57595Y137744D01*
X57592Y137741D01*
X57254Y137209D01*
X56830D01*
X57273Y137904D01*
X57323Y137976D01*
X57373Y138043D01*
X57420Y138101D01*
X57462Y138151D01*
X57498Y138190D01*
X57514Y138206D01*
X57528Y138220D01*
X57539Y138231D01*
X57547Y138240D01*
X57550Y138242D01*
X57553Y138245D01*
X57581Y138267D01*
X57614Y138292D01*
X57647Y138312D01*
X57680Y138331D01*
X57711Y138347D01*
X57736Y138361D01*
X57753Y138370D01*
X57755Y138373D01*
X57758D01*
X57692Y138383D01*
X57628Y138397D01*
X57570Y138414D01*
X57517Y138431D01*
X57467Y138450D01*
X57423Y138469D01*
X57384Y138489D01*
X57348Y138508D01*
X57315Y138528D01*
X57287Y138547D01*
X57265Y138564D01*
X57246Y138577D01*
X57232Y138591D01*
X57221Y138600D01*
X57215Y138605D01*
X57212Y138608D01*
X57182Y138644D01*
X57154Y138680D01*
X57129Y138719D01*
X57110Y138758D01*
X57093Y138796D01*
X57079Y138835D01*
X57057Y138907D01*
X57049Y138940D01*
X57043Y138971D01*
X57041Y138998D01*
X57038Y139023D01*
X57035Y139040D01*
Y139057D01*
Y139065D01*
Y139068D01*
X57041Y139145D01*
X57052Y139217D01*
X57068Y139281D01*
X57088Y139339D01*
X57099Y139364D01*
X57110Y139386D01*
X57118Y139406D01*
X57126Y139422D01*
X57132Y139436D01*
X57138Y139444D01*
X57143Y139450D01*
Y139453D01*
X57185Y139514D01*
X57232Y139564D01*
X57279Y139608D01*
X57326Y139641D01*
X57365Y139666D01*
X57398Y139683D01*
X57412Y139688D01*
X57420Y139694D01*
X57426Y139697D01*
X57428D01*
X57464Y139708D01*
X57500Y139719D01*
X57583Y139735D01*
X57669Y139749D01*
X57753Y139758D01*
X57794Y139760D01*
X57830Y139763D01*
X57860D01*
X57891Y139766D01*
X59079D01*
Y137209D01*
D02*
G37*
G36*
X67154Y136500D02*
X65074D01*
Y136727D01*
X67154D01*
Y136500D01*
D02*
G37*
%LPC*%
G36*
X130087Y59392D02*
X129333D01*
Y58560D01*
X130182D01*
X130228Y58565D01*
X130272Y58571D01*
X130313Y58579D01*
X130349Y58587D01*
X130381Y58598D01*
X130411Y58606D01*
X130439Y58617D01*
X130463Y58628D01*
X130482Y58639D01*
X130501Y58650D01*
X130515Y58658D01*
X130526Y58666D01*
X130534Y58672D01*
X130537Y58675D01*
X130540Y58677D01*
X130561Y58699D01*
X130583Y58724D01*
X130616Y58770D01*
X130638Y58819D01*
X130654Y58866D01*
X130665Y58907D01*
X130668Y58926D01*
Y58939D01*
X130671Y58953D01*
Y58961D01*
Y58967D01*
Y58969D01*
X130668Y59013D01*
X130660Y59057D01*
X130649Y59095D01*
X130638Y59128D01*
X130624Y59158D01*
X130613Y59177D01*
X130605Y59190D01*
X130602Y59196D01*
X130575Y59231D01*
X130542Y59264D01*
X130510Y59289D01*
X130480Y59311D01*
X130450Y59327D01*
X130428Y59338D01*
X130411Y59343D01*
X130409Y59346D01*
X130406D01*
X130354Y59363D01*
X130297Y59373D01*
X130237Y59382D01*
X130179Y59387D01*
X130127Y59390D01*
X130106D01*
X130087Y59392D01*
D02*
G37*
G36*
X133587Y68392D02*
X132833D01*
Y67560D01*
X133682D01*
X133728Y67565D01*
X133772Y67571D01*
X133813Y67579D01*
X133849Y67587D01*
X133881Y67598D01*
X133911Y67606D01*
X133939Y67617D01*
X133963Y67628D01*
X133982Y67639D01*
X134001Y67650D01*
X134015Y67658D01*
X134026Y67666D01*
X134034Y67672D01*
X134037Y67674D01*
X134040Y67677D01*
X134062Y67699D01*
X134083Y67724D01*
X134116Y67770D01*
X134138Y67819D01*
X134154Y67866D01*
X134165Y67907D01*
X134168Y67926D01*
Y67939D01*
X134171Y67953D01*
Y67961D01*
Y67967D01*
Y67969D01*
X134168Y68013D01*
X134160Y68057D01*
X134149Y68095D01*
X134138Y68128D01*
X134124Y68158D01*
X134113Y68177D01*
X134105Y68190D01*
X134102Y68196D01*
X134075Y68231D01*
X134042Y68264D01*
X134010Y68289D01*
X133980Y68311D01*
X133950Y68327D01*
X133928Y68338D01*
X133911Y68343D01*
X133909Y68346D01*
X133906D01*
X133854Y68362D01*
X133797Y68373D01*
X133737Y68382D01*
X133679Y68387D01*
X133627Y68390D01*
X133606D01*
X133587Y68392D01*
D02*
G37*
G36*
X64500Y139464D02*
X63766D01*
X63733Y139461D01*
X63700D01*
X63672Y139458D01*
X63644Y139455D01*
X63622Y139453D01*
X63603D01*
X63569Y139447D01*
X63547Y139442D01*
X63534Y139439D01*
X63531D01*
X63484Y139422D01*
X63442Y139400D01*
X63406Y139375D01*
X63373Y139350D01*
X63351Y139328D01*
X63331Y139309D01*
X63320Y139295D01*
X63317Y139289D01*
X63290Y139245D01*
X63270Y139198D01*
X63254Y139154D01*
X63245Y139109D01*
X63240Y139073D01*
X63234Y139043D01*
Y139032D01*
Y139023D01*
Y139018D01*
Y139015D01*
X63237Y138974D01*
X63240Y138938D01*
X63257Y138868D01*
X63279Y138810D01*
X63304Y138760D01*
X63328Y138722D01*
X63351Y138694D01*
X63359Y138686D01*
X63367Y138677D01*
X63370Y138674D01*
X63373Y138672D01*
X63401Y138649D01*
X63434Y138633D01*
X63467Y138616D01*
X63503Y138602D01*
X63581Y138580D01*
X63658Y138566D01*
X63694Y138561D01*
X63730Y138555D01*
X63761Y138552D01*
X63788D01*
X63810Y138550D01*
X64500D01*
Y139464D01*
D02*
G37*
G36*
X58741Y139483D02*
X57880D01*
X57833Y139478D01*
X57788Y139472D01*
X57747Y139464D01*
X57711Y139455D01*
X57678Y139444D01*
X57647Y139436D01*
X57620Y139425D01*
X57595Y139414D01*
X57575Y139403D01*
X57556Y139392D01*
X57542Y139383D01*
X57531Y139375D01*
X57523Y139370D01*
X57520Y139367D01*
X57517Y139364D01*
X57495Y139342D01*
X57473Y139317D01*
X57440Y139270D01*
X57417Y139220D01*
X57401Y139173D01*
X57390Y139131D01*
X57387Y139112D01*
Y139098D01*
X57384Y139084D01*
Y139076D01*
Y139070D01*
Y139068D01*
X57387Y139023D01*
X57395Y138979D01*
X57406Y138940D01*
X57417Y138907D01*
X57431Y138877D01*
X57442Y138857D01*
X57450Y138843D01*
X57453Y138838D01*
X57481Y138802D01*
X57514Y138769D01*
X57547Y138744D01*
X57578Y138722D01*
X57608Y138705D01*
X57631Y138694D01*
X57647Y138688D01*
X57650Y138686D01*
X57653D01*
X57705Y138669D01*
X57764Y138658D01*
X57824Y138649D01*
X57883Y138644D01*
X57935Y138641D01*
X57958D01*
X57977Y138638D01*
X58741D01*
Y139483D01*
D02*
G37*
%LPD*%
D12*
X123673Y58252D02*
Y64748D01*
X134327D01*
Y58252D02*
Y64748D01*
X123673Y58252D02*
X134327D01*
X127173Y67252D02*
Y73748D01*
X137827D01*
Y67252D02*
Y73748D01*
X127173Y67252D02*
X137827D01*
X64173Y139748D02*
X74827D01*
X64173Y133252D02*
Y139748D01*
Y133252D02*
X74827D01*
Y139748D01*
M02*
