G04*
G04 #@! TF.GenerationSoftware,Altium Limited,Altium Designer,23.1.1 (15)*
G04*
G04 Layer_Color=16711935*
%FSLAX25Y25*%
%MOIN*%
G70*
G04*
G04 #@! TF.SameCoordinates,B1DE690B-BA36-4FB7-BAA6-9E49350ABFFB*
G04*
G04*
G04 #@! TF.FilePolarity,Positive*
G04*
G01*
G75*
%ADD11C,0.00394*%
%ADD12C,0.00591*%
%ADD13C,0.00787*%
%ADD15C,0.01500*%
D11*
X75566Y119708D02*
Y156716D01*
X18873D02*
X75566D01*
X18873Y119708D02*
Y156716D01*
Y119708D02*
X75566D01*
X139689Y129713D02*
Y161287D01*
X164492D01*
Y129713D02*
Y161287D01*
X139689Y129713D02*
X164492D01*
X163689Y84213D02*
Y105787D01*
X188492D01*
Y84213D02*
Y105787D01*
X163689Y84213D02*
X188492D01*
X125823Y112646D02*
X141177D01*
Y93354D02*
Y112646D01*
X125823Y93354D02*
X141177D01*
X125823D02*
Y112646D01*
Y107646D02*
X130823Y112646D01*
X16100Y51253D02*
Y102748D01*
X25900Y51252D02*
Y102748D01*
X16099Y51253D02*
X25900Y51252D01*
X16100Y102748D02*
X25900D01*
X127669Y48146D02*
X136331D01*
X127669Y53854D02*
X136331D01*
Y48146D02*
Y53854D01*
X127669Y48146D02*
Y53854D01*
X173331Y50343D02*
Y55657D01*
X164669Y50343D02*
Y55657D01*
Y50343D02*
X173331D01*
X164669Y55657D02*
X173331D01*
X74331Y165843D02*
Y171157D01*
X65669Y165843D02*
Y171157D01*
Y165843D02*
X74331D01*
X65669Y171157D02*
X74331D01*
D12*
X71512Y94000D02*
G03*
X71512Y94000I-20669J0D01*
G01*
X130795Y9000D02*
G03*
X130795Y9000I-5295J0D01*
G01*
X39795Y34500D02*
G03*
X39795Y34500I-5295J0D01*
G01*
D13*
X135937Y61539D02*
Y66461D01*
X128063D02*
X135937D01*
X128063Y61539D02*
Y66461D01*
Y61539D02*
X135937D01*
X136937Y75539D02*
Y80461D01*
X129063D02*
X136937D01*
X129063Y75539D02*
Y80461D01*
Y75539D02*
X136937D01*
X149957Y28398D02*
Y40602D01*
Y28398D02*
X157043D01*
Y40602D01*
X149957D02*
X157043D01*
X66063Y178539D02*
X73937D01*
X66063D02*
Y183461D01*
X73937D01*
Y178539D02*
Y183461D01*
X129063Y21039D02*
X136937D01*
X129063D02*
Y25961D01*
X136937D01*
Y21039D02*
Y25961D01*
X128366Y35843D02*
X136634D01*
X128366D02*
Y41157D01*
X136634D01*
Y35843D02*
Y41157D01*
X38606Y47244D02*
X46874D01*
X38606D02*
Y52756D01*
X46874D01*
Y47244D02*
Y52756D01*
X38866Y60843D02*
X47134D01*
X38866D02*
Y66157D01*
X47134D01*
Y60843D02*
Y66157D01*
X172937Y63539D02*
Y68461D01*
X165063D02*
X172937D01*
X165063Y63539D02*
Y68461D01*
Y63539D02*
X172937D01*
D15*
X39071Y164047D02*
X47929D01*
X39071D02*
Y169953D01*
X47929D01*
Y164047D02*
Y169953D01*
X43516Y36197D02*
X65484D01*
Y25803D02*
Y36197D01*
X43516Y25803D02*
X65484D01*
X43516D02*
Y36197D01*
M02*
