G04*
G04 #@! TF.GenerationSoftware,Altium Limited,Altium Designer,23.1.1 (15)*
G04*
G04 Layer_Color=32896*
%FSLAX25Y25*%
%MOIN*%
G70*
G04*
G04 #@! TF.SameCoordinates,610C7C08-74D4-44FC-BCD4-38041F97A8CA*
G04*
G04*
G04 #@! TF.FilePolarity,Positive*
G04*
G01*
G75*
%ADD12C,0.00984*%
%ADD13C,0.01000*%
%ADD14C,0.00787*%
%ADD15C,0.01500*%
%ADD63C,0.02362*%
D12*
X99910Y75370D02*
G03*
X99910Y75370I-492J0D01*
G01*
X54441Y66240D02*
G03*
X54441Y66240I-492J0D01*
G01*
D13*
X130001Y137824D02*
X133999D01*
Y135159D01*
X133333Y131160D02*
X130667D01*
X130001Y131826D01*
Y133159D01*
X130667Y133826D01*
X133333D01*
X133999Y133159D01*
Y131826D01*
X132667Y132493D02*
X133999Y131160D01*
Y131826D02*
X133333Y131160D01*
X130001Y129827D02*
X133999D01*
X132000D01*
Y127161D01*
X130001D01*
X133999D01*
X130001Y123163D02*
X130667Y124495D01*
X132000Y125828D01*
X133333D01*
X133999Y125162D01*
Y123829D01*
X133333Y123163D01*
X132667D01*
X132000Y123829D01*
Y125828D01*
X130001Y119164D02*
X130667Y120497D01*
X132000Y121830D01*
X133333D01*
X133999Y121163D01*
Y119830D01*
X133333Y119164D01*
X132667D01*
X132000Y119830D01*
Y121830D01*
X130667Y115165D02*
X130001Y115832D01*
Y117165D01*
X130667Y117831D01*
X131333D01*
X132000Y117165D01*
Y115832D01*
X132667Y115165D01*
X133333D01*
X133999Y115832D01*
Y117165D01*
X133333Y117831D01*
X133999Y113832D02*
X130001D01*
X133999Y111167D01*
X130001D01*
Y107168D02*
X130667Y108501D01*
X132000Y109834D01*
X133333D01*
X133999Y109167D01*
Y107834D01*
X133333Y107168D01*
X132667D01*
X132000Y107834D01*
Y109834D01*
X130667Y105835D02*
X130001Y105168D01*
Y103835D01*
X130667Y103169D01*
X131333D01*
X132000Y103835D01*
X132667Y103169D01*
X133333D01*
X133999Y103835D01*
Y105168D01*
X133333Y105835D01*
X132667D01*
X132000Y105168D01*
X131333Y105835D01*
X130667D01*
X132000Y105168D02*
Y103835D01*
X130667Y101836D02*
X130001Y101170D01*
Y99837D01*
X130667Y99170D01*
X133333D01*
X133999Y99837D01*
Y101170D01*
X133333Y101836D01*
X130667D01*
X133999Y97837D02*
X130001D01*
X131333Y96504D01*
X130001Y95172D01*
X133999D01*
X130667Y93839D02*
X130001Y93172D01*
Y91839D01*
X130667Y91173D01*
X133333D01*
X133999Y91839D01*
Y93172D01*
X133333Y93839D01*
X130667D01*
Y89840D02*
X130001Y89174D01*
Y87841D01*
X130667Y87174D01*
X131333D01*
X132000Y87841D01*
Y88507D01*
Y87841D01*
X132667Y87174D01*
X133333D01*
X133999Y87841D01*
Y89174D01*
X133333Y89840D01*
X130001Y85841D02*
X133999D01*
Y83175D01*
X71331Y148833D02*
X70665Y149499D01*
X69332D01*
X68665Y148833D01*
Y146167D01*
X69332Y145501D01*
X70665D01*
X71331Y146167D01*
Y148833D01*
X66666Y145501D02*
X65333D01*
X64666Y146167D01*
Y147500D01*
X65333Y148167D01*
X66666D01*
X67332Y147500D01*
Y146167D01*
X66666Y145501D01*
X63333Y149499D02*
Y145501D01*
Y147500D01*
X62667Y148167D01*
X61334D01*
X60668Y147500D01*
Y145501D01*
X59335D02*
Y148167D01*
X58668D01*
X58002Y147500D01*
Y145501D01*
Y147500D01*
X57336Y148167D01*
X56669Y147500D01*
Y145501D01*
X56994Y75499D02*
Y71501D01*
X54994D01*
X54328Y72167D01*
Y74833D01*
X54994Y75499D01*
X56994D01*
X52995Y71501D02*
Y75499D01*
X51662Y74166D01*
X50329Y75499D01*
Y71501D01*
X48996D02*
Y75499D01*
X46331Y71501D01*
Y75499D01*
X42332Y71501D02*
X44998D01*
X42332Y74166D01*
Y74833D01*
X42998Y75499D01*
X44331D01*
X44998Y74833D01*
X40999D02*
X40333Y75499D01*
X39000D01*
X38333Y74833D01*
Y72167D01*
X39000Y71501D01*
X40333D01*
X40999Y72167D01*
Y74833D01*
X35001Y71501D02*
Y75499D01*
X37000Y73500D01*
X34334D01*
X33002Y71501D02*
X31669D01*
X32335D01*
Y75499D01*
X33002Y74833D01*
X29669Y75499D02*
Y71501D01*
X27004D01*
X25671Y73500D02*
X23005D01*
X21672Y75499D02*
X19006D01*
Y74833D01*
X21672Y72167D01*
Y71501D01*
X107157Y131333D02*
X107823Y131999D01*
X109156D01*
X109823Y131333D01*
Y128667D01*
X109156Y128001D01*
X107823D01*
X107157Y128667D01*
X103158Y131333D02*
X103824Y131999D01*
X105157D01*
X105824Y131333D01*
Y128667D01*
X105157Y128001D01*
X103824D01*
X103158Y128667D01*
X101825Y131333D02*
X101159Y131999D01*
X99826D01*
X99159Y131333D01*
Y128667D01*
X99826Y128001D01*
X101159D01*
X101825Y128667D01*
Y131333D01*
X97826D02*
X97160Y131999D01*
X95827D01*
X95161Y131333D01*
Y130666D01*
X95827Y130000D01*
X95161Y129333D01*
Y128667D01*
X95827Y128001D01*
X97160D01*
X97826Y128667D01*
Y129333D01*
X97160Y130000D01*
X97826Y130666D01*
Y131333D01*
X97160Y130000D02*
X95827D01*
X93828Y131333D02*
X93161Y131999D01*
X91828D01*
X91162Y131333D01*
Y128667D01*
X91828Y128001D01*
X93161D01*
X93828Y128667D01*
Y131333D01*
X87163Y131999D02*
X89829D01*
Y130000D01*
X88496Y130666D01*
X87830D01*
X87163Y130000D01*
Y128667D01*
X87830Y128001D01*
X89163D01*
X89829Y128667D01*
X85830Y128001D02*
Y131999D01*
X84497Y130666D01*
X83165Y131999D01*
Y128001D01*
X81832Y131999D02*
Y128001D01*
Y129333D01*
X79166Y131999D01*
X81165Y130000D01*
X79166Y128001D01*
X77833Y131999D02*
X75167Y128001D01*
Y131999D02*
X77833Y128001D01*
X71168Y131999D02*
X73834D01*
Y130000D01*
X72501Y130666D01*
X71835D01*
X71168Y130000D01*
Y128667D01*
X71835Y128001D01*
X73168D01*
X73834Y128667D01*
X69836Y128001D02*
Y131999D01*
X67836D01*
X67170Y131333D01*
Y130000D01*
X67836Y129333D01*
X69836D01*
X68503D02*
X67170Y128001D01*
X65837Y131333D02*
X65170Y131999D01*
X63837D01*
X63171Y131333D01*
Y130666D01*
X63837Y130000D01*
X63171Y129333D01*
Y128667D01*
X63837Y128001D01*
X65170D01*
X65837Y128667D01*
Y129333D01*
X65170Y130000D01*
X65837Y130666D01*
Y131333D01*
X65170Y130000D02*
X63837D01*
X61838Y131999D02*
Y128001D01*
X59839D01*
X59172Y128667D01*
Y129333D01*
X59839Y130000D01*
X61838D01*
X59839D01*
X59172Y130666D01*
Y131333D01*
X59839Y131999D01*
X61838D01*
X57839D02*
Y128001D01*
X55840D01*
X55174Y128667D01*
Y129333D01*
X55840Y130000D01*
X57839D01*
X55840D01*
X55174Y130666D01*
Y131333D01*
X55840Y131999D01*
X57839D01*
X51175Y128001D02*
X53841D01*
X51175Y130666D01*
Y131333D01*
X51841Y131999D01*
X53174D01*
X53841Y131333D01*
X47176Y128001D02*
X49842D01*
X47176Y130666D01*
Y131333D01*
X47843Y131999D01*
X49176D01*
X49842Y131333D01*
X43177Y131999D02*
X44510Y131333D01*
X45843Y130000D01*
Y128667D01*
X45177Y128001D01*
X43844D01*
X43177Y128667D01*
Y129333D01*
X43844Y130000D01*
X45843D01*
X109657Y115833D02*
X110323Y116499D01*
X111656D01*
X112323Y115833D01*
Y113167D01*
X111656Y112501D01*
X110323D01*
X109657Y113167D01*
X105658Y115833D02*
X106325Y116499D01*
X107657D01*
X108324Y115833D01*
Y113167D01*
X107657Y112501D01*
X106325D01*
X105658Y113167D01*
X104325Y115833D02*
X103659Y116499D01*
X102326D01*
X101659Y115833D01*
Y113167D01*
X102326Y112501D01*
X103659D01*
X104325Y113167D01*
Y115833D01*
X100326D02*
X99660Y116499D01*
X98327D01*
X97661Y115833D01*
Y115166D01*
X98327Y114500D01*
X97661Y113833D01*
Y113167D01*
X98327Y112501D01*
X99660D01*
X100326Y113167D01*
Y113833D01*
X99660Y114500D01*
X100326Y115166D01*
Y115833D01*
X99660Y114500D02*
X98327D01*
X96328Y115833D02*
X95661Y116499D01*
X94328D01*
X93662Y115833D01*
Y113167D01*
X94328Y112501D01*
X95661D01*
X96328Y113167D01*
Y115833D01*
X89663Y116499D02*
X92329D01*
Y114500D01*
X90996Y115166D01*
X90330D01*
X89663Y114500D01*
Y113167D01*
X90330Y112501D01*
X91663D01*
X92329Y113167D01*
X88330Y112501D02*
Y116499D01*
X86997Y115166D01*
X85664Y116499D01*
Y112501D01*
X84332Y116499D02*
Y112501D01*
Y113833D01*
X81666Y116499D01*
X83665Y114500D01*
X81666Y112501D01*
X80333Y116499D02*
X77667Y112501D01*
Y116499D02*
X80333Y112501D01*
X73668Y116499D02*
X76334D01*
Y114500D01*
X75001Y115166D01*
X74335D01*
X73668Y114500D01*
Y113167D01*
X74335Y112501D01*
X75668D01*
X76334Y113167D01*
X72335Y112501D02*
Y116499D01*
X70336D01*
X69670Y115833D01*
Y114500D01*
X70336Y113833D01*
X72335D01*
X71003D02*
X69670Y112501D01*
X68337Y115833D02*
X67670Y116499D01*
X66337D01*
X65671Y115833D01*
Y115166D01*
X66337Y114500D01*
X65671Y113833D01*
Y113167D01*
X66337Y112501D01*
X67670D01*
X68337Y113167D01*
Y113833D01*
X67670Y114500D01*
X68337Y115166D01*
Y115833D01*
X67670Y114500D02*
X66337D01*
X64338Y116499D02*
Y112501D01*
X62339D01*
X61672Y113167D01*
Y113833D01*
X62339Y114500D01*
X64338D01*
X62339D01*
X61672Y115166D01*
Y115833D01*
X62339Y116499D01*
X64338D01*
X60339D02*
Y112501D01*
X58340D01*
X57674Y113167D01*
Y113833D01*
X58340Y114500D01*
X60339D01*
X58340D01*
X57674Y115166D01*
Y115833D01*
X58340Y116499D01*
X60339D01*
X53675Y112501D02*
X56341D01*
X53675Y115166D01*
Y115833D01*
X54341Y116499D01*
X55674D01*
X56341Y115833D01*
X49676Y112501D02*
X52342D01*
X49676Y115166D01*
Y115833D01*
X50343Y116499D01*
X51675D01*
X52342Y115833D01*
X45677Y116499D02*
X47010Y115833D01*
X48343Y114500D01*
Y113167D01*
X47677Y112501D01*
X46344D01*
X45677Y113167D01*
Y113833D01*
X46344Y114500D01*
X48343D01*
X55829Y54999D02*
Y51001D01*
X53163D01*
X51830D02*
Y54999D01*
X50497Y53666D01*
X49165Y54999D01*
Y51001D01*
X47832Y54999D02*
X45166D01*
Y54333D01*
X47832Y51667D01*
Y51001D01*
X41834D02*
Y54999D01*
X43833Y53000D01*
X41167D01*
X39834Y54999D02*
X37168D01*
Y54333D01*
X39834Y51667D01*
Y51001D01*
X35835Y54333D02*
X35169Y54999D01*
X33836D01*
X33170Y54333D01*
Y51667D01*
X33836Y51001D01*
X35169D01*
X35835Y51667D01*
Y54333D01*
X31837D02*
X31170Y54999D01*
X29837D01*
X29171Y54333D01*
Y51667D01*
X29837Y51001D01*
X31170D01*
X31837Y51667D01*
Y54333D01*
X104156Y165333D02*
X104823Y165999D01*
X106156D01*
X106822Y165333D01*
Y162667D01*
X106156Y162001D01*
X104823D01*
X104156Y162667D01*
Y164000D01*
X105489D01*
X102824Y162001D02*
Y165999D01*
X100824D01*
X100158Y165333D01*
Y164000D01*
X100824Y163333D01*
X102824D01*
X101491D02*
X100158Y162001D01*
X98825D02*
Y165999D01*
X97492Y164666D01*
X96159Y165999D01*
Y162001D01*
X92160D02*
X94826D01*
X92160Y164666D01*
Y165333D01*
X92827Y165999D01*
X94160D01*
X94826Y165333D01*
X90827Y162001D02*
X89495D01*
X90161D01*
Y165999D01*
X90827Y165333D01*
X87495Y165999D02*
Y162001D01*
X85496D01*
X84829Y162667D01*
Y163333D01*
X85496Y164000D01*
X87495D01*
X85496D01*
X84829Y164666D01*
Y165333D01*
X85496Y165999D01*
X87495D01*
X83496Y162001D02*
Y165999D01*
X81497D01*
X80831Y165333D01*
Y164000D01*
X81497Y163333D01*
X83496D01*
X82164D02*
X80831Y162001D01*
X76832Y165999D02*
X78165Y165333D01*
X79498Y164000D01*
Y162667D01*
X78831Y162001D01*
X77498D01*
X76832Y162667D01*
Y163333D01*
X77498Y164000D01*
X79498D01*
X75499Y162001D02*
X74166D01*
X74833D01*
Y165999D01*
X75499Y165333D01*
X72167Y162001D02*
Y164666D01*
X70834Y165999D01*
X69501Y164666D01*
Y162001D01*
Y164000D01*
X72167D01*
X66169Y162001D02*
Y165999D01*
X68168Y164000D01*
X65502D01*
X64169Y165999D02*
X61503D01*
Y165333D01*
X64169Y162667D01*
Y162001D01*
X57505Y165999D02*
X58838Y165333D01*
X60171Y164000D01*
Y162667D01*
X59504Y162001D01*
X58171D01*
X57505Y162667D01*
Y163333D01*
X58171Y164000D01*
X60171D01*
X56172Y162001D02*
Y165999D01*
X54839Y164666D01*
X53506Y165999D01*
Y162001D01*
X49507Y165999D02*
X52173D01*
Y162001D01*
X49507D01*
X52173Y164000D02*
X50840D01*
X48175Y162001D02*
X46842D01*
X47508D01*
Y165999D01*
X48175Y165333D01*
X42176Y165999D02*
X44842D01*
Y164000D01*
X43509Y164666D01*
X42843D01*
X42176Y164000D01*
Y162667D01*
X42843Y162001D01*
X44176D01*
X44842Y162667D01*
X40843Y165999D02*
Y162001D01*
Y163333D01*
X38178Y165999D01*
X40177Y164000D01*
X38178Y162001D01*
X108825Y46833D02*
X109491Y47499D01*
X110824D01*
X111491Y46833D01*
Y46166D01*
X110824Y45500D01*
X109491D01*
X108825Y44834D01*
Y44167D01*
X109491Y43501D01*
X110824D01*
X111491Y44167D01*
X107492Y47499D02*
X104826D01*
X106159D01*
Y43501D01*
X103493D02*
Y47499D01*
X102160Y46166D01*
X100827Y47499D01*
Y43501D01*
X99494Y46833D02*
X98828Y47499D01*
X97495D01*
X96829Y46833D01*
Y46166D01*
X97495Y45500D01*
X98162D01*
X97495D01*
X96829Y44834D01*
Y44167D01*
X97495Y43501D01*
X98828D01*
X99494Y44167D01*
X92830Y43501D02*
X95496D01*
X92830Y46166D01*
Y46833D01*
X93497Y47499D01*
X94829D01*
X95496Y46833D01*
X88831Y47499D02*
X91497D01*
Y45500D01*
X90164D01*
X91497D01*
Y43501D01*
X87498Y46833D02*
X86832Y47499D01*
X85499D01*
X84833Y46833D01*
Y44167D01*
X85499Y43501D01*
X86832D01*
X87498Y44167D01*
Y46833D01*
X83500D02*
X82833Y47499D01*
X81500D01*
X80834Y46833D01*
Y46166D01*
X81500Y45500D01*
X82167D01*
X81500D01*
X80834Y44834D01*
Y44167D01*
X81500Y43501D01*
X82833D01*
X83500Y44167D01*
X79501Y43501D02*
X78168D01*
X78834D01*
Y47499D01*
X79501Y46833D01*
X73503Y47499D02*
X76169D01*
Y45500D01*
X74836D01*
X76169D01*
Y43501D01*
X69504Y47499D02*
X70837Y46833D01*
X72170Y45500D01*
Y44167D01*
X71504Y43501D01*
X70171D01*
X69504Y44167D01*
Y44834D01*
X70171Y45500D01*
X72170D01*
X68171Y43501D02*
Y47499D01*
X66172D01*
X65505Y46833D01*
Y45500D01*
X66172Y44834D01*
X68171D01*
X61507Y47499D02*
X62840Y46833D01*
X64173Y45500D01*
Y44167D01*
X63506Y43501D01*
X62173D01*
X61507Y44167D01*
Y44834D01*
X62173Y45500D01*
X64173D01*
X60174Y47499D02*
X57508D01*
X58841D01*
Y43501D01*
X56175D02*
Y47499D01*
X54176D01*
X53509Y46833D01*
Y45500D01*
X54176Y44834D01*
X56175D01*
X54842D02*
X53509Y43501D01*
X154112Y45833D02*
X153446Y46499D01*
X152113D01*
X151446Y45833D01*
Y43167D01*
X152113Y42501D01*
X153446D01*
X154112Y43167D01*
Y45833D01*
X149447Y42501D02*
X148114D01*
X147448Y43167D01*
Y44500D01*
X148114Y45166D01*
X149447D01*
X150114Y44500D01*
Y43167D01*
X149447Y42501D01*
X146115Y46499D02*
Y42501D01*
Y44500D01*
X145448Y45166D01*
X144115D01*
X143449Y44500D01*
Y42501D01*
X142116D02*
Y45166D01*
X141450D01*
X140783Y44500D01*
Y42501D01*
Y44500D01*
X140117Y45166D01*
X139450Y44500D01*
Y42501D01*
X175491Y62333D02*
X174825Y62999D01*
X173492D01*
X172826Y62333D01*
Y59667D01*
X173492Y59001D01*
X174825D01*
X175491Y59667D01*
Y62333D01*
X171493D02*
X170826Y62999D01*
X169493D01*
X168827Y62333D01*
Y61666D01*
X169493Y61000D01*
X168827Y60334D01*
Y59667D01*
X169493Y59001D01*
X170826D01*
X171493Y59667D01*
Y60334D01*
X170826Y61000D01*
X171493Y61666D01*
Y62333D01*
X170826Y61000D02*
X169493D01*
X167494Y62333D02*
X166827Y62999D01*
X165495D01*
X164828Y62333D01*
Y59667D01*
X165495Y59001D01*
X166827D01*
X167494Y59667D01*
Y62333D01*
X160829Y62999D02*
X163495D01*
Y61000D01*
X162162Y61666D01*
X161496D01*
X160829Y61000D01*
Y59667D01*
X161496Y59001D01*
X162829D01*
X163495Y59667D01*
X159496Y62333D02*
X158830Y62999D01*
X157497D01*
X156831Y62333D01*
Y61666D01*
X157497Y61000D01*
X158164D01*
X157497D01*
X156831Y60334D01*
Y59667D01*
X157497Y59001D01*
X158830D01*
X159496Y59667D01*
X152832Y62333D02*
X153498Y62999D01*
X154831D01*
X155498Y62333D01*
Y59667D01*
X154831Y59001D01*
X153498D01*
X152832Y59667D01*
X151499Y59001D02*
X150166D01*
X150833D01*
Y62999D01*
X151499Y62333D01*
X148167D02*
X147500Y62999D01*
X146167D01*
X145501Y62333D01*
Y59667D01*
X146167Y59001D01*
X147500D01*
X148167Y59667D01*
Y62333D01*
X144168D02*
X143502Y62999D01*
X142169D01*
X141502Y62333D01*
Y61666D01*
X142169Y61000D01*
X142835D01*
X142169D01*
X141502Y60334D01*
Y59667D01*
X142169Y59001D01*
X143502D01*
X144168Y59667D01*
X137504Y62999D02*
X138836D01*
X138170D01*
Y59667D01*
X138836Y59001D01*
X139503D01*
X140169Y59667D01*
X136171Y59001D02*
Y61666D01*
X134838Y62999D01*
X133505Y61666D01*
Y59001D01*
Y61000D01*
X136171D01*
X132172Y62999D02*
X129506D01*
X130839D01*
Y59001D01*
X125507D02*
X128173D01*
X125507Y61666D01*
Y62333D01*
X126174Y62999D01*
X127507D01*
X128173Y62333D01*
X124174Y59001D02*
Y61666D01*
X122842Y62999D01*
X121509Y61666D01*
Y59001D01*
Y61000D01*
X124174D01*
X187324Y79833D02*
X187990Y80499D01*
X189323D01*
X189989Y79833D01*
Y77167D01*
X189323Y76501D01*
X187990D01*
X187324Y77167D01*
X183325Y79833D02*
X183991Y80499D01*
X185324D01*
X185991Y79833D01*
Y77167D01*
X185324Y76501D01*
X183991D01*
X183325Y77167D01*
X181992Y79833D02*
X181325Y80499D01*
X179993D01*
X179326Y79833D01*
Y77167D01*
X179993Y76501D01*
X181325D01*
X181992Y77167D01*
Y79833D01*
X177993D02*
X177327Y80499D01*
X175994D01*
X175327Y79833D01*
Y79166D01*
X175994Y78500D01*
X175327Y77834D01*
Y77167D01*
X175994Y76501D01*
X177327D01*
X177993Y77167D01*
Y77834D01*
X177327Y78500D01*
X177993Y79166D01*
Y79833D01*
X177327Y78500D02*
X175994D01*
X173995Y79833D02*
X173328Y80499D01*
X171995D01*
X171329Y79833D01*
Y77167D01*
X171995Y76501D01*
X173328D01*
X173995Y77167D01*
Y79833D01*
X167330Y80499D02*
X169996D01*
Y78500D01*
X168663Y79166D01*
X167997D01*
X167330Y78500D01*
Y77167D01*
X167997Y76501D01*
X169329D01*
X169996Y77167D01*
X165997Y80499D02*
Y76501D01*
Y77834D01*
X163331Y80499D01*
X165331Y78500D01*
X163331Y76501D01*
X159333Y80499D02*
X161998D01*
Y78500D01*
X160666D01*
X161998D01*
Y76501D01*
X158000Y80499D02*
X155334Y76501D01*
Y80499D02*
X158000Y76501D01*
X154001Y80499D02*
X151335D01*
Y79833D01*
X154001Y77167D01*
Y76501D01*
X150002D02*
Y80499D01*
X148003D01*
X147336Y79833D01*
Y78500D01*
X148003Y77834D01*
X150002D01*
X148669D02*
X147336Y76501D01*
X146003Y77167D02*
X145337Y76501D01*
X144004D01*
X143338Y77167D01*
Y79833D01*
X144004Y80499D01*
X145337D01*
X146003Y79833D01*
Y79166D01*
X145337Y78500D01*
X143338D01*
X142005Y80499D02*
Y76501D01*
X140006D01*
X139339Y77167D01*
Y77834D01*
X140006Y78500D01*
X142005D01*
X140006D01*
X139339Y79166D01*
Y79833D01*
X140006Y80499D01*
X142005D01*
X138006D02*
Y76501D01*
X136007D01*
X135340Y77167D01*
Y77834D01*
X136007Y78500D01*
X138006D01*
X136007D01*
X135340Y79166D01*
Y79833D01*
X136007Y80499D01*
X138006D01*
X134007Y76501D02*
X132675D01*
X133341D01*
Y80499D01*
X134007Y79833D01*
X130675D02*
X130009Y80499D01*
X128676D01*
X128009Y79833D01*
Y77167D01*
X128676Y76501D01*
X130009D01*
X130675Y77167D01*
Y79833D01*
X124011Y80499D02*
X126676D01*
Y78500D01*
X125344Y79166D01*
X124677D01*
X124011Y78500D01*
Y77167D01*
X124677Y76501D01*
X126010D01*
X126676Y77167D01*
X116157Y182833D02*
X116823Y183499D01*
X118156D01*
X118823Y182833D01*
Y180167D01*
X118156Y179501D01*
X116823D01*
X116157Y180167D01*
X112158Y182833D02*
X112824Y183499D01*
X114157D01*
X114824Y182833D01*
Y180167D01*
X114157Y179501D01*
X112824D01*
X112158Y180167D01*
X110825Y182833D02*
X110159Y183499D01*
X108826D01*
X108159Y182833D01*
Y180167D01*
X108826Y179501D01*
X110159D01*
X110825Y180167D01*
Y182833D01*
X106826D02*
X106160Y183499D01*
X104827D01*
X104161Y182833D01*
Y182167D01*
X104827Y181500D01*
X104161Y180833D01*
Y180167D01*
X104827Y179501D01*
X106160D01*
X106826Y180167D01*
Y180833D01*
X106160Y181500D01*
X106826Y182167D01*
Y182833D01*
X106160Y181500D02*
X104827D01*
X102828Y182833D02*
X102161Y183499D01*
X100828D01*
X100162Y182833D01*
Y180167D01*
X100828Y179501D01*
X102161D01*
X102828Y180167D01*
Y182833D01*
X96163Y183499D02*
X98829D01*
Y181500D01*
X97496Y182167D01*
X96830D01*
X96163Y181500D01*
Y180167D01*
X96830Y179501D01*
X98163D01*
X98829Y180167D01*
X94830Y179501D02*
Y183499D01*
X93497Y182167D01*
X92164Y183499D01*
Y179501D01*
X90832Y183499D02*
Y179501D01*
Y180833D01*
X88166Y183499D01*
X90165Y181500D01*
X88166Y179501D01*
X86833Y183499D02*
X84167Y179501D01*
Y183499D02*
X86833Y179501D01*
X80168Y183499D02*
X82834D01*
Y181500D01*
X81501Y182167D01*
X80835D01*
X80168Y181500D01*
Y180167D01*
X80835Y179501D01*
X82168D01*
X82834Y180167D01*
X78835Y179501D02*
Y183499D01*
X76836D01*
X76170Y182833D01*
Y181500D01*
X76836Y180833D01*
X78835D01*
X77503D02*
X76170Y179501D01*
X74837Y182833D02*
X74170Y183499D01*
X72837D01*
X72171Y182833D01*
Y182167D01*
X72837Y181500D01*
X72171Y180833D01*
Y180167D01*
X72837Y179501D01*
X74170D01*
X74837Y180167D01*
Y180833D01*
X74170Y181500D01*
X74837Y182167D01*
Y182833D01*
X74170Y181500D02*
X72837D01*
X70838Y183499D02*
Y179501D01*
X68839D01*
X68172Y180167D01*
Y180833D01*
X68839Y181500D01*
X70838D01*
X68839D01*
X68172Y182167D01*
Y182833D01*
X68839Y183499D01*
X70838D01*
X66839D02*
Y179501D01*
X64840D01*
X64174Y180167D01*
Y180833D01*
X64840Y181500D01*
X66839D01*
X64840D01*
X64174Y182167D01*
Y182833D01*
X64840Y183499D01*
X66839D01*
X60175Y179501D02*
X62841D01*
X60175Y182167D01*
Y182833D01*
X60841Y183499D01*
X62174D01*
X62841Y182833D01*
X56176Y179501D02*
X58842D01*
X56176Y182167D01*
Y182833D01*
X56843Y183499D01*
X58175D01*
X58842Y182833D01*
X52177Y183499D02*
X53510Y182833D01*
X54843Y181500D01*
Y180167D01*
X54177Y179501D01*
X52844D01*
X52177Y180167D01*
Y180833D01*
X52844Y181500D01*
X54843D01*
D14*
X162492Y92008D02*
Y117992D01*
X136508D02*
X141134D01*
X157866D02*
X162492D01*
X136508Y92008D02*
Y117992D01*
Y92008D02*
X141134D01*
X157866D02*
X162492D01*
X59067Y169071D02*
X68933D01*
X59067Y177929D02*
X68933D01*
X59067Y153571D02*
X68933D01*
X59067Y162429D02*
X68933D01*
X60067Y112429D02*
X69933D01*
X60067Y103571D02*
X69933D01*
X60067Y119071D02*
X69933D01*
X60067Y127929D02*
X69933D01*
X147705Y68146D02*
X148295D01*
X147705Y73854D02*
X148295D01*
D15*
X82291Y48008D02*
X93709D01*
X82291Y73992D02*
X93709D01*
X82291Y48008D02*
Y73992D01*
X93709Y48008D02*
Y73992D01*
X43122Y68504D02*
X45878D01*
X43122Y56496D02*
Y68504D01*
Y56496D02*
X45878D01*
Y68504D01*
X43909Y89209D02*
X45091D01*
X43909Y77791D02*
Y89209D01*
Y77791D02*
X45091D01*
Y89209D01*
X46469Y89543D02*
X50799D01*
D63*
X90953Y70055D02*
G03*
X90953Y70055I-1181J0D01*
G01*
M02*
