G04*
G04 #@! TF.GenerationSoftware,Altium Limited,Altium Designer,23.1.1 (15)*
G04*
G04 Layer_Color=255*
%FSLAX25Y25*%
%MOIN*%
G70*
G04*
G04 #@! TF.SameCoordinates,21B55FED-B8B4-48E4-904C-F60C8F1E3AA0*
G04*
G04*
G04 #@! TF.FilePolarity,Positive*
G04*
G01*
G75*
%ADD15R,0.05906X0.04724*%
%ADD16R,0.05906X0.12992*%
%ADD17R,0.06299X0.13780*%
%ADD18R,0.03347X0.05118*%
%ADD19R,0.07835X0.02756*%
%ADD20R,0.07835X0.03150*%
%ADD21R,0.07835X0.03543*%
%ADD22R,0.03150X0.03150*%
%ADD23R,0.04724X0.04724*%
%ADD24R,0.05363X0.04546*%
%ADD31C,0.06181*%
%ADD32R,0.06181X0.06181*%
G04:AMPARAMS|DCode=33|XSize=39.37mil|YSize=66.93mil|CornerRadius=19.68mil|HoleSize=0mil|Usage=FLASHONLY|Rotation=270.000|XOffset=0mil|YOffset=0mil|HoleType=Round|Shape=RoundedRectangle|*
%AMROUNDEDRECTD33*
21,1,0.03937,0.02756,0,0,270.0*
21,1,0.00000,0.06693,0,0,270.0*
1,1,0.03937,-0.01378,0.00000*
1,1,0.03937,-0.01378,0.00000*
1,1,0.03937,0.01378,0.00000*
1,1,0.03937,0.01378,0.00000*
%
%ADD33ROUNDEDRECTD33*%
%ADD38C,0.05906*%
%ADD39R,0.05906X0.05906*%
%ADD40C,0.07677*%
%ADD41R,0.07677X0.07677*%
%ADD42C,0.05512*%
%ADD43R,0.05906X0.05906*%
%ADD44R,0.05984X0.05984*%
%ADD45C,0.05984*%
D15*
X77402Y109555D02*
D03*
Y100500D02*
D03*
Y91445D02*
D03*
D16*
X102598Y100500D02*
D03*
D17*
X121000Y84476D02*
D03*
Y106524D02*
D03*
D18*
X63654Y135000D02*
D03*
X70346D02*
D03*
X125154Y65000D02*
D03*
X131846D02*
D03*
D19*
X146500Y95205D02*
D03*
Y99142D02*
D03*
D20*
Y91189D02*
D03*
Y103157D02*
D03*
D21*
Y86346D02*
D03*
Y108000D02*
D03*
D22*
X107500Y72724D02*
D03*
X111240Y63276D02*
D03*
X103760D02*
D03*
D23*
X131634Y71500D02*
D03*
X123366D02*
D03*
D24*
X102000Y79552D02*
D03*
Y86448D02*
D03*
D31*
X66000Y76000D02*
D03*
Y86000D02*
D03*
Y96000D02*
D03*
Y106000D02*
D03*
Y116000D02*
D03*
D32*
Y126000D02*
D03*
D33*
X143370Y80165D02*
D03*
Y114181D02*
D03*
D38*
X113000Y144500D02*
D03*
X103000D02*
D03*
X93000D02*
D03*
X54500Y88000D02*
D03*
Y98000D02*
D03*
Y108000D02*
D03*
D39*
X83000Y144500D02*
D03*
D40*
X126000Y132000D02*
D03*
X85000Y78500D02*
D03*
D41*
X126000Y122000D02*
D03*
X85000Y68500D02*
D03*
D42*
X82657Y124500D02*
D03*
X92500D02*
D03*
X102343D02*
D03*
D43*
X54500Y118000D02*
D03*
D44*
X117000Y54000D02*
D03*
D45*
X107000D02*
D03*
X97000D02*
D03*
X87000D02*
D03*
X77000D02*
D03*
M02*
