G04*
G04 #@! TF.GenerationSoftware,Altium Limited,Altium Designer,23.1.1 (15)*
G04*
G04 Layer_Color=2752767*
%FSLAX25Y25*%
%MOIN*%
G70*
G04*
G04 #@! TF.SameCoordinates,21B55FED-B8B4-48E4-904C-F60C8F1E3AA0*
G04*
G04*
G04 #@! TF.FilePolarity,Positive*
G04*
G01*
G75*
%ADD68C,0.00500*%
%ADD69C,0.00667*%
D68*
X111000Y142500D02*
X112000Y144500D01*
X111000Y146500D01*
X113000Y145500D01*
X115000Y146500D01*
X114000Y144500D01*
X115000Y142500D01*
X113000Y143500D01*
X111000Y142500D01*
X101000D02*
X102000Y144500D01*
X101000Y146500D01*
X103000Y145500D01*
X105000Y146500D01*
X104000Y144500D01*
X105000Y142500D01*
X103000Y143500D01*
X101000Y142500D01*
X91000D02*
X92000Y144500D01*
X91000Y146500D01*
X93000Y145500D01*
X95000Y146500D01*
X94000Y144500D01*
X95000Y142500D01*
X93000Y143500D01*
X91000Y142500D01*
X81000D02*
X82000Y144500D01*
X81000Y146500D01*
X83000Y145500D01*
X85000Y146500D01*
X84000Y144500D01*
X85000Y142500D01*
X83000Y143500D01*
X81000Y142500D01*
X124000Y132000D02*
X126000Y134000D01*
X128000Y132000D01*
X126000Y130000D01*
X124000Y132000D01*
Y122000D02*
X126000Y124000D01*
X128000Y122000D01*
X126000Y120000D01*
X124000Y122000D01*
X80657Y122500D02*
X81657Y124500D01*
X80657Y126500D01*
X82657Y125500D01*
X84657Y126500D01*
X83657Y124500D01*
X84657Y122500D01*
X82657Y123500D01*
X80657Y122500D01*
X90500D02*
X91500Y124500D01*
X90500Y126500D01*
X92500Y125500D01*
X94500Y126500D01*
X93500Y124500D01*
X94500Y122500D01*
X92500Y123500D01*
X90500Y122500D01*
X100343D02*
X101343Y124500D01*
X100343Y126500D01*
X102343Y125500D01*
X104343Y126500D01*
X103343Y124500D01*
X104343Y122500D01*
X102343Y123500D01*
X100343Y122500D01*
X64000Y74000D02*
Y78000D01*
X68000D01*
Y74000D01*
X64000D01*
Y84000D02*
Y88000D01*
X68000D01*
Y84000D01*
X64000D01*
Y94000D02*
Y98000D01*
X68000D01*
Y94000D01*
X64000D01*
Y104000D02*
Y108000D01*
X68000D01*
Y104000D01*
X64000D01*
Y114000D02*
Y118000D01*
X68000D01*
Y114000D01*
X64000D01*
Y124000D02*
Y128000D01*
X68000D01*
Y124000D01*
X64000D01*
X141370Y78165D02*
X142370D01*
X143370Y79165D01*
X144370Y78165D01*
X145370D01*
Y79165D01*
X144370Y80165D01*
X145370Y81165D01*
Y82165D01*
X144370D01*
X143370Y81165D01*
X142370Y82165D01*
X141370D01*
Y81165D01*
X142370Y80165D01*
X141370Y79165D01*
Y78165D01*
Y112181D02*
X142370D01*
X143370Y113181D01*
X144370Y112181D01*
X145370D01*
Y113181D01*
X144370Y114181D01*
X145370Y115181D01*
Y116181D01*
X144370D01*
X143370Y115181D01*
X142370Y116181D01*
X141370D01*
Y115181D01*
X142370Y114181D01*
X141370Y113181D01*
Y112181D01*
X52500Y86000D02*
X53500Y88000D01*
X52500Y90000D01*
X54500Y89000D01*
X56500Y90000D01*
X55500Y88000D01*
X56500Y86000D01*
X54500Y87000D01*
X52500Y86000D01*
Y96000D02*
X53500Y98000D01*
X52500Y100000D01*
X54500Y99000D01*
X56500Y100000D01*
X55500Y98000D01*
X56500Y96000D01*
X54500Y97000D01*
X52500Y96000D01*
Y106000D02*
X53500Y108000D01*
X52500Y110000D01*
X54500Y109000D01*
X56500Y110000D01*
X55500Y108000D01*
X56500Y106000D01*
X54500Y107000D01*
X52500Y106000D01*
Y116000D02*
X53500Y118000D01*
X52500Y120000D01*
X54500Y119000D01*
X56500Y120000D01*
X55500Y118000D01*
X56500Y116000D01*
X54500Y117000D01*
X52500Y116000D01*
X83000Y68500D02*
X85000Y70500D01*
X87000Y68500D01*
X85000Y66500D01*
X83000Y68500D01*
Y78500D02*
X85000Y80500D01*
X87000Y78500D01*
X85000Y76500D01*
X83000Y78500D01*
X115000Y52000D02*
Y56000D01*
X119000D01*
Y52000D01*
X115000D01*
X105000D02*
Y56000D01*
X109000D01*
Y52000D01*
X105000D01*
X95000D02*
Y56000D01*
X99000D01*
Y52000D01*
X95000D01*
X85000D02*
Y56000D01*
X89000D01*
Y52000D01*
X85000D01*
X75000D02*
Y56000D01*
X79000D01*
Y52000D01*
X75000D01*
D69*
X90000Y88500D02*
G03*
X90000Y88500I-2000J0D01*
G01*
X118050Y93766D02*
G03*
X118050Y93766I-2000J0D01*
G01*
X121657Y96634D02*
G03*
X121657Y96634I-2000J0D01*
G01*
X106500Y117902D02*
G03*
X106500Y117902I-2000J0D01*
G01*
X138500Y130500D02*
G03*
X138500Y130500I-2000J0D01*
G01*
X129093Y58741D02*
G03*
X129093Y58741I-2000J0D01*
G01*
X135900Y95200D02*
G03*
X135900Y95200I-2000J0D01*
G01*
X92000Y106000D02*
G03*
X92000Y106000I-2000J0D01*
G01*
X89700Y128400D02*
G03*
X89700Y128400I-2000J0D01*
G01*
X93900Y62500D02*
G03*
X93900Y62500I-2000J0D01*
G01*
X73100Y72600D02*
G03*
X73100Y72600I-2000J0D01*
G01*
X76100Y60000D02*
G03*
X76100Y60000I-2000J0D01*
G01*
X98600Y99500D02*
G03*
X98600Y99500I-2000J0D01*
G01*
X114252Y77300D02*
G03*
X114252Y77300I-2000J0D01*
G01*
X130900Y115100D02*
G03*
X130900Y115100I-2000J0D01*
G01*
X97400Y111500D02*
G03*
X97400Y111500I-2000J0D01*
G01*
X114800Y97900D02*
G03*
X114800Y97900I-2000J0D01*
G01*
X52400Y78846D02*
G03*
X52400Y78846I-2000J0D01*
G01*
X61200Y84300D02*
G03*
X61200Y84300I-2000J0D01*
G01*
X111300Y116200D02*
G03*
X111300Y116200I-2000J0D01*
G01*
X126800Y143400D02*
G03*
X126800Y143400I-2000J0D01*
G01*
X98400Y139300D02*
G03*
X98400Y139300I-2000J0D01*
G01*
X83800Y85300D02*
G03*
X83800Y85300I-2000J0D01*
G01*
X79400Y70000D02*
G03*
X79400Y70000I-2000J0D01*
G01*
X87400Y115000D02*
G03*
X87400Y115000I-2000J0D01*
G01*
X88400Y94700D02*
G03*
X88400Y94700I-2000J0D01*
G01*
X94000Y114400D02*
G03*
X94000Y114400I-2000J0D01*
G01*
X74100Y117400D02*
G03*
X74100Y117400I-2000J0D01*
G01*
X70040Y62600D02*
G03*
X70040Y62600I-2000J0D01*
G01*
X97523Y92200D02*
G03*
X97523Y92200I-2000J0D01*
G01*
X104300Y58500D02*
G03*
X104300Y58500I-2000J0D01*
G01*
X61487Y66288D02*
G03*
X61487Y66288I-2000J0D01*
G01*
X50400Y83900D02*
G03*
X50400Y83900I-2000J0D01*
G01*
X111400Y99506D02*
G03*
X111400Y99506I-2000J0D01*
G01*
X137800Y114181D02*
G03*
X137800Y114181I-2000J0D01*
G01*
Y104500D02*
G03*
X137800Y104500I-2000J0D01*
G01*
X111000Y88400D02*
G03*
X111000Y88400I-2000J0D01*
G01*
X114757Y111000D02*
G03*
X114757Y111000I-2000J0D01*
G01*
X98600Y102500D02*
G03*
X98600Y102500I-2000J0D01*
G01*
M02*
