G04*
G04 #@! TF.GenerationSoftware,Altium Limited,Altium Designer,23.1.1 (15)*
G04*
G04 Layer_Color=255*
%FSLAX25Y25*%
%MOIN*%
G70*
G04*
G04 #@! TF.SameCoordinates,4416291F-A030-49B4-A21B-4109523D90D4*
G04*
G04*
G04 #@! TF.FilePolarity,Positive*
G04*
G01*
G75*
%ADD16R,0.04546X0.05363*%
%ADD17R,0.11811X0.13780*%
%ADD18R,0.02559X0.06004*%
%ADD19R,0.04724X0.04724*%
%ADD20R,0.05906X0.12992*%
%ADD21R,0.05906X0.04724*%
%ADD22R,0.03543X0.04331*%
%ADD23R,0.03543X0.04724*%
%ADD24R,0.03367X0.04969*%
%ADD25R,0.04000X0.05315*%
%ADD26R,0.04331X0.05315*%
%ADD27R,0.04331X0.02559*%
%ADD28R,0.03347X0.05118*%
%ADD38C,0.06181*%
%ADD42R,0.05118X0.05118*%
%ADD43C,0.05118*%
%ADD44R,0.06181X0.06181*%
%ADD46R,0.06024X0.06024*%
%ADD47C,0.06024*%
%ADD48R,0.07677X0.07677*%
%ADD49C,0.07677*%
%ADD50C,0.11811*%
%ADD51R,0.05984X0.05984*%
%ADD52C,0.05984*%
D16*
X67448Y171000D02*
D03*
X60552D02*
D03*
X136448Y23500D02*
D03*
X129552D02*
D03*
X154052Y63500D02*
D03*
X160948D02*
D03*
D17*
X86346Y167500D02*
D03*
X106032D02*
D03*
D18*
X52500Y96823D02*
D03*
X57500D02*
D03*
X62500D02*
D03*
X67500D02*
D03*
Y118177D02*
D03*
X62500D02*
D03*
X57500D02*
D03*
X52500D02*
D03*
X106500Y109177D02*
D03*
X101500D02*
D03*
X96500D02*
D03*
X91500D02*
D03*
Y87823D02*
D03*
X96500D02*
D03*
X101500D02*
D03*
X106500D02*
D03*
D19*
X136634Y38500D02*
D03*
X128366D02*
D03*
X40134Y155500D02*
D03*
X31866D02*
D03*
D20*
X155098Y96500D02*
D03*
D21*
X129902Y87445D02*
D03*
Y96500D02*
D03*
Y105555D02*
D03*
D22*
X48740Y56500D02*
D03*
X41260D02*
D03*
D23*
X51134Y77500D02*
D03*
X42866D02*
D03*
D24*
X67250Y153000D02*
D03*
X60750D02*
D03*
D25*
X128744Y55500D02*
D03*
X134756Y70000D02*
D03*
X129244D02*
D03*
D26*
X134256Y55500D02*
D03*
D27*
X149366Y32280D02*
D03*
Y24720D02*
D03*
X157634Y28500D02*
D03*
D28*
X159346Y47500D02*
D03*
X152654D02*
D03*
X66846Y137000D02*
D03*
X60154D02*
D03*
D38*
X100500Y6500D02*
D03*
X34500Y34500D02*
D03*
X18500Y138500D02*
D03*
X177500Y67000D02*
D03*
X58000Y27000D02*
D03*
D42*
X160000Y132157D02*
D03*
D43*
Y151843D02*
D03*
D44*
X28500Y138500D02*
D03*
X48000Y27000D02*
D03*
D46*
X79236Y19134D02*
D03*
D47*
X94000Y65000D02*
D03*
X108764Y19134D02*
D03*
D48*
X175500Y90000D02*
D03*
X22500Y114500D02*
D03*
D49*
X175500Y100000D02*
D03*
X22500Y124500D02*
D03*
D50*
X125000Y137000D02*
D03*
Y168500D02*
D03*
D51*
X21500Y57000D02*
D03*
D52*
Y67000D02*
D03*
Y77000D02*
D03*
Y87000D02*
D03*
Y97000D02*
D03*
M02*
