G04*
G04 #@! TF.GenerationSoftware,Altium Limited,Altium Designer,23.1.1 (15)*
G04*
G04 Layer_Color=8388736*
%FSLAX25Y25*%
%MOIN*%
G70*
G04*
G04 #@! TF.SameCoordinates,21B55FED-B8B4-48E4-904C-F60C8F1E3AA0*
G04*
G04*
G04 #@! TF.FilePolarity,Negative*
G04*
G01*
G75*
%ADD15R,0.05906X0.04724*%
%ADD16R,0.05906X0.12992*%
%ADD17R,0.06299X0.13780*%
%ADD19R,0.07835X0.02756*%
%ADD20R,0.07835X0.03150*%
%ADD21R,0.07835X0.03543*%
%ADD22R,0.03150X0.03150*%
%ADD23R,0.04724X0.04724*%
%ADD24R,0.05363X0.04546*%
%ADD25R,0.04147X0.05918*%
%ADD26C,0.06706*%
%ADD27R,0.06706X0.06706*%
%ADD28C,0.08477*%
%ADD29R,0.08477X0.08477*%
%ADD30C,0.06312*%
%ADD31C,0.06181*%
%ADD32R,0.06181X0.06181*%
G04:AMPARAMS|DCode=33|XSize=39.37mil|YSize=66.93mil|CornerRadius=19.68mil|HoleSize=0mil|Usage=FLASHONLY|Rotation=270.000|XOffset=0mil|YOffset=0mil|HoleType=Round|Shape=RoundedRectangle|*
%AMROUNDEDRECTD33*
21,1,0.03937,0.02756,0,0,270.0*
21,1,0.00000,0.06693,0,0,270.0*
1,1,0.03937,-0.01378,0.00000*
1,1,0.03937,-0.01378,0.00000*
1,1,0.03937,0.01378,0.00000*
1,1,0.03937,0.01378,0.00000*
%
%ADD33ROUNDEDRECTD33*%
%ADD34R,0.06706X0.06706*%
%ADD35R,0.06784X0.06784*%
%ADD36C,0.06784*%
%ADD37C,0.03800*%
D15*
X77402Y109555D02*
D03*
Y100500D02*
D03*
Y91445D02*
D03*
D16*
X102598Y100500D02*
D03*
D17*
X121000Y84476D02*
D03*
Y106524D02*
D03*
D19*
X146500Y95205D02*
D03*
Y99142D02*
D03*
D20*
Y91189D02*
D03*
Y103157D02*
D03*
D21*
Y86346D02*
D03*
Y108000D02*
D03*
D22*
X107500Y72724D02*
D03*
X111240Y63276D02*
D03*
X103760D02*
D03*
D23*
X131634Y71500D02*
D03*
X123366D02*
D03*
D24*
X102000Y79552D02*
D03*
Y86448D02*
D03*
D25*
X63654Y135000D02*
D03*
X70346D02*
D03*
X125154Y65000D02*
D03*
X131846D02*
D03*
D26*
X113000Y144500D02*
D03*
X103000D02*
D03*
X93000D02*
D03*
X54500Y88000D02*
D03*
Y98000D02*
D03*
Y108000D02*
D03*
D27*
X83000Y144500D02*
D03*
D28*
X126000Y132000D02*
D03*
X85000Y78500D02*
D03*
D29*
X126000Y122000D02*
D03*
X85000Y68500D02*
D03*
D30*
X82657Y124500D02*
D03*
X92500D02*
D03*
X102343D02*
D03*
D31*
X66000Y76000D02*
D03*
Y86000D02*
D03*
Y96000D02*
D03*
Y106000D02*
D03*
Y116000D02*
D03*
D32*
Y126000D02*
D03*
D33*
X143370Y80165D02*
D03*
Y114181D02*
D03*
D34*
X54500Y118000D02*
D03*
D35*
X117000Y54000D02*
D03*
D36*
X107000D02*
D03*
X97000D02*
D03*
X87000D02*
D03*
X77000D02*
D03*
D37*
X88000Y88500D02*
D03*
X116050Y93766D02*
D03*
X119657Y96634D02*
D03*
X104500Y117902D02*
D03*
X136500Y130500D02*
D03*
X127093Y58741D02*
D03*
X133900Y95200D02*
D03*
X90000Y106000D02*
D03*
X87700Y128400D02*
D03*
X91900Y62500D02*
D03*
X71100Y72600D02*
D03*
X74100Y60000D02*
D03*
X96600Y99500D02*
D03*
X112252Y77300D02*
D03*
X128900Y115100D02*
D03*
X95400Y111500D02*
D03*
X112800Y97900D02*
D03*
X50400Y78846D02*
D03*
X59200Y84300D02*
D03*
X109300Y116200D02*
D03*
X124800Y143400D02*
D03*
X96400Y139300D02*
D03*
X81800Y85300D02*
D03*
X77400Y70000D02*
D03*
X85400Y115000D02*
D03*
X86400Y94700D02*
D03*
X92000Y114400D02*
D03*
X72100Y117400D02*
D03*
X68040Y62600D02*
D03*
X95523Y92200D02*
D03*
X102300Y58500D02*
D03*
X59487Y66288D02*
D03*
X48400Y83900D02*
D03*
X109400Y99506D02*
D03*
X135800Y114181D02*
D03*
Y104500D02*
D03*
X109000Y88400D02*
D03*
X112757Y111000D02*
D03*
X96600Y102500D02*
D03*
M02*
