G04*
G04 #@! TF.GenerationSoftware,Altium Limited,Altium Designer,23.1.1 (15)*
G04*
G04 Layer_Color=32768*
%FSLAX25Y25*%
%MOIN*%
G70*
G04*
G04 #@! TF.SameCoordinates,2A32F405-7E1A-4497-8D0E-C4D04B09633D*
G04*
G04*
G04 #@! TF.FilePolarity,Positive*
G04*
G01*
G75*
%ADD11C,0.00394*%
%ADD12C,0.00787*%
%ADD13C,0.01500*%
D11*
X87020Y107315D02*
G03*
X87020Y107315I-1969J0D01*
G01*
X115854Y83823D02*
Y99177D01*
Y83823D02*
X135146D01*
Y99177D01*
X115854D02*
X135146D01*
X115854Y94177D02*
X120854Y99177D01*
X119157Y115669D02*
Y124331D01*
X113843Y115669D02*
Y124331D01*
Y115669D02*
X119157D01*
X113843Y124331D02*
X119157D01*
X72331Y121646D02*
Y127354D01*
X63669Y121646D02*
Y127354D01*
X72331D01*
X63669Y121646D02*
X72331D01*
X110650Y141146D02*
X119350D01*
X110650Y146854D02*
X119350D01*
X110650Y141146D02*
Y146854D01*
X119350Y141146D02*
Y146854D01*
D12*
X125063Y59039D02*
Y63961D01*
X132937D01*
Y59039D02*
Y63961D01*
X125063Y59039D02*
X132937D01*
X128563Y68039D02*
Y72961D01*
X136437D01*
Y68039D02*
Y72961D01*
X128563Y68039D02*
X136437D01*
X65563Y138961D02*
X73437D01*
X65563Y134039D02*
Y138961D01*
Y134039D02*
X73437D01*
Y138961D01*
D13*
X91063Y150862D02*
X98937D01*
X91063Y146138D02*
Y150862D01*
Y146138D02*
X98937D01*
Y150862D01*
X107492Y93142D02*
Y110858D01*
X81508Y93142D02*
Y110858D01*
Y93142D02*
X107492D01*
X81508Y110858D02*
X107492D01*
M02*
