G04*
G04 #@! TF.GenerationSoftware,Altium Limited,Altium Designer,23.1.1 (15)*
G04*
G04 Layer_Color=16711935*
%FSLAX25Y25*%
%MOIN*%
G70*
G04*
G04 #@! TF.SameCoordinates,610C7C08-74D4-44FC-BCD4-38041F97A8CA*
G04*
G04*
G04 #@! TF.FilePolarity,Negative*
G04*
G01*
G75*
%ADD29R,0.04800X0.06115*%
%ADD30R,0.05131X0.03359*%
%ADD32C,0.12611*%
%ADD33C,0.06706*%
%ADD34R,0.06706X0.06706*%
%ADD35R,0.08477X0.08477*%
%ADD36C,0.08477*%
%ADD37C,0.06181*%
%ADD38R,0.06784X0.06784*%
%ADD39C,0.06784*%
%ADD40R,0.05118X0.05118*%
%ADD41C,0.05118*%
%ADD42R,0.06181X0.06181*%
%ADD43C,0.03800*%
%ADD52R,0.13780X0.11811*%
G04:AMPARAMS|DCode=55|XSize=43.31mil|YSize=23.62mil|CornerRadius=2.01mil|HoleSize=0mil|Usage=FLASHONLY|Rotation=180.000|XOffset=0mil|YOffset=0mil|HoleType=Round|Shape=RoundedRectangle|*
%AMROUNDEDRECTD55*
21,1,0.04331,0.01961,0,0,180.0*
21,1,0.03929,0.02362,0,0,180.0*
1,1,0.00402,-0.01965,0.00980*
1,1,0.00402,0.01965,0.00980*
1,1,0.00402,0.01965,-0.00980*
1,1,0.00402,-0.01965,-0.00980*
%
%ADD55ROUNDEDRECTD55*%
%ADD56R,0.04349X0.05339*%
%ADD57R,0.04152X0.05339*%
%ADD58R,0.03740X0.05512*%
%ADD60R,0.06312X0.04737*%
%ADD61O,0.09068X0.01800*%
%ADD62R,0.05328X0.06115*%
D29*
X144146Y54500D02*
D03*
D30*
X48634Y87280D02*
D03*
Y79720D02*
D03*
X40366Y83500D02*
D03*
D32*
X98000Y138500D02*
D03*
Y170000D02*
D03*
X124500Y139000D02*
D03*
Y170500D02*
D03*
D33*
X60500Y18500D02*
D03*
X70500D02*
D03*
X80500D02*
D03*
D34*
X90500D02*
D03*
D35*
X175500Y90000D02*
D03*
X22500Y114500D02*
D03*
D36*
X175500Y100000D02*
D03*
X22500Y124500D02*
D03*
D37*
X125500Y9000D02*
D03*
X34500Y34500D02*
D03*
X18500Y138500D02*
D03*
X62500Y33500D02*
D03*
D38*
X21500Y57000D02*
D03*
D39*
Y67000D02*
D03*
Y77000D02*
D03*
Y87000D02*
D03*
Y97000D02*
D03*
D40*
X160000Y132157D02*
D03*
D41*
Y151843D02*
D03*
D42*
X28500Y138500D02*
D03*
X52500Y33500D02*
D03*
D43*
X75500Y84500D02*
D03*
X165093Y36706D02*
D03*
X160195Y45268D02*
D03*
X111500Y37500D02*
D03*
X118500Y51000D02*
D03*
X142261Y82761D02*
D03*
X134800Y75550D02*
D03*
X49500Y149500D02*
D03*
X52500Y106325D02*
D03*
X79000Y90000D02*
D03*
X90815Y86715D02*
D03*
X77000Y124500D02*
D03*
X75250Y109500D02*
D03*
X111500Y87500D02*
D03*
X67350Y87321D02*
D03*
X72032Y41500D02*
D03*
X62500Y49000D02*
D03*
X61000Y56000D02*
D03*
X72032Y34559D02*
D03*
X83000Y39500D02*
D03*
X116500Y124000D02*
D03*
X87500Y54220D02*
D03*
Y43500D02*
D03*
Y35150D02*
D03*
X109000Y29500D02*
D03*
X93500Y33000D02*
D03*
X33700Y84400D02*
D03*
X37900Y105300D02*
D03*
D52*
X149500Y95157D02*
D03*
Y114843D02*
D03*
D55*
X49618Y66240D02*
D03*
Y62500D02*
D03*
Y58760D02*
D03*
X39382D02*
D03*
Y62500D02*
D03*
Y66240D02*
D03*
D56*
X66759Y173500D02*
D03*
X61241D02*
D03*
X62241Y108000D02*
D03*
X67759D02*
D03*
Y123500D02*
D03*
X62241D02*
D03*
D57*
X66857Y158000D02*
D03*
X61143D02*
D03*
D58*
X144358Y71000D02*
D03*
X151642D02*
D03*
D60*
X59382Y142000D02*
D03*
X69618D02*
D03*
X152618Y37000D02*
D03*
X142382D02*
D03*
D61*
X76583Y49484D02*
D03*
Y52043D02*
D03*
Y54602D02*
D03*
Y57161D02*
D03*
Y59720D02*
D03*
Y62280D02*
D03*
Y64839D02*
D03*
Y67398D02*
D03*
Y69957D02*
D03*
Y72516D02*
D03*
X99417Y49484D02*
D03*
Y52043D02*
D03*
Y54602D02*
D03*
Y57161D02*
D03*
Y59720D02*
D03*
Y62280D02*
D03*
Y64839D02*
D03*
Y67398D02*
D03*
Y69957D02*
D03*
Y72516D02*
D03*
D62*
X149854Y54500D02*
D03*
M02*
