G04*
G04 #@! TF.GenerationSoftware,Altium Limited,Altium Designer,23.1.1 (15)*
G04*
G04 Layer_Color=32768*
%FSLAX25Y25*%
%MOIN*%
G70*
G04*
G04 #@! TF.SameCoordinates,4416291F-A030-49B4-A21B-4109523D90D4*
G04*
G04*
G04 #@! TF.FilePolarity,Positive*
G04*
G01*
G75*
%ADD10C,0.00787*%
%ADD11C,0.00394*%
%ADD14C,0.01500*%
D10*
X55063Y175961D02*
X62937D01*
X55063Y171039D02*
Y175961D01*
Y171039D02*
X62937D01*
Y175961D01*
X55563Y159461D02*
X63437D01*
X55563Y154539D02*
Y159461D01*
Y154539D02*
X63437D01*
Y159461D01*
X61063Y79039D02*
X68937D01*
Y83961D01*
X61063D02*
X68937D01*
X61063Y79039D02*
Y83961D01*
X62063Y100961D02*
X69937D01*
X62063Y96039D02*
Y100961D01*
Y96039D02*
X69937D01*
Y100961D01*
X107831Y113146D02*
Y118854D01*
X99169Y113146D02*
X107831D01*
X99169D02*
Y118854D01*
X107831D01*
X152331Y68146D02*
Y73854D01*
X143669Y68146D02*
X152331D01*
X143669D02*
Y73854D01*
X152331D01*
X143366Y118343D02*
Y123657D01*
X151634D01*
Y118343D02*
Y123657D01*
X143366Y118343D02*
X151634D01*
X142563Y152039D02*
Y156961D01*
X150437D01*
Y152039D02*
Y156961D01*
X142563Y152039D02*
X150437D01*
D11*
X104783Y51949D02*
G03*
X104783Y51949I-1969J0D01*
G01*
X51563Y138138D02*
X59437D01*
Y142862D01*
X51563D02*
X59437D01*
X51563Y138138D02*
Y142862D01*
X98587Y175646D02*
Y181354D01*
X107248Y175646D02*
Y181354D01*
X98587Y175646D02*
X107248D01*
X98587Y181354D02*
X107248D01*
X142650Y51646D02*
X151350D01*
X142650Y57354D02*
X151350D01*
X142650Y51646D02*
Y57354D01*
X151350Y51646D02*
Y57354D01*
X143169Y133646D02*
Y139354D01*
X151831Y133646D02*
Y139354D01*
X143169Y133646D02*
X151831D01*
X143169Y139354D02*
X151831D01*
X98587Y129146D02*
Y134854D01*
X107248Y129146D02*
Y134854D01*
X98587Y129146D02*
X107248D01*
X98587Y134854D02*
X107248D01*
X98587Y144646D02*
Y150354D01*
X107248Y144646D02*
Y150354D01*
X98587Y144646D02*
X107248D01*
X98587Y150354D02*
X107248D01*
X98587Y160146D02*
Y165854D01*
X107248Y160146D02*
Y165854D01*
X98587Y160146D02*
X107248D01*
X98587Y165854D02*
X107248D01*
D14*
X146782Y39362D02*
X154656D01*
X146782Y34638D02*
Y39362D01*
Y34638D02*
X154656D01*
Y39362D01*
X88642Y29508D02*
X106358D01*
X88642Y55492D02*
X106358D01*
X88642Y29508D02*
Y55492D01*
X106358Y29508D02*
Y55492D01*
X59055Y63504D02*
X65945D01*
X59055Y51496D02*
Y63504D01*
Y51496D02*
X65945D01*
Y63504D01*
X38941Y79709D02*
X44059D01*
X38941Y68291D02*
Y79709D01*
Y68291D02*
X44059D01*
Y79709D01*
X40280D02*
X44059Y75929D01*
X111909Y100209D02*
X115650Y96469D01*
Y88791D02*
Y100209D01*
X109350Y88791D02*
X115650D01*
X109350D02*
Y100209D01*
X115650D01*
X79941Y173209D02*
X85059D01*
X79941Y161791D02*
Y173209D01*
Y161791D02*
X85059D01*
Y173209D01*
X81319D02*
X85059Y169469D01*
X81094Y150449D02*
X84835Y146709D01*
Y139032D02*
Y150449D01*
X79717Y139032D02*
X84835D01*
X79717D02*
Y150449D01*
X84835D01*
M02*
