G04*
G04 #@! TF.GenerationSoftware,Altium Limited,Altium Designer,23.1.1 (15)*
G04*
G04 Layer_Color=32896*
%FSLAX25Y25*%
%MOIN*%
G70*
G04*
G04 #@! TF.SameCoordinates,610C7C08-74D4-44FC-BCD4-38041F97A8CA*
G04*
G04*
G04 #@! TF.FilePolarity,Positive*
G04*
G01*
G75*
%ADD14C,0.00787*%
%ADD15C,0.01500*%
G36*
X150511Y117581D02*
X150572Y117626D01*
X150600Y117648D01*
X150625Y117670D01*
X150647Y117689D01*
X150663Y117703D01*
X150674Y117714D01*
X150677Y117717D01*
X150694Y117734D01*
X150716Y117756D01*
X150738Y117781D01*
X150763Y117808D01*
X150819Y117867D01*
X150871Y117928D01*
X150921Y117986D01*
X150943Y118011D01*
X150962Y118036D01*
X150979Y118052D01*
X150990Y118069D01*
X150999Y118077D01*
X151001Y118080D01*
X151054Y118141D01*
X151104Y118199D01*
X151148Y118252D01*
X151192Y118299D01*
X151231Y118343D01*
X151270Y118382D01*
X151303Y118418D01*
X151334Y118451D01*
X151359Y118479D01*
X151384Y118501D01*
X151403Y118520D01*
X151420Y118537D01*
X151433Y118548D01*
X151442Y118559D01*
X151447Y118562D01*
X151450Y118565D01*
X151511Y118617D01*
X151566Y118659D01*
X151619Y118695D01*
X151666Y118725D01*
X151705Y118747D01*
X151735Y118764D01*
X151746Y118770D01*
X151755Y118772D01*
X151758Y118775D01*
X151760D01*
X151816Y118797D01*
X151871Y118811D01*
X151921Y118822D01*
X151968Y118831D01*
X152007Y118836D01*
X152037Y118839D01*
X152048D01*
X152057D01*
X152059D01*
X152062D01*
X152118Y118836D01*
X152170Y118831D01*
X152220Y118819D01*
X152270Y118806D01*
X152314Y118789D01*
X152356Y118770D01*
X152395Y118750D01*
X152428Y118731D01*
X152461Y118711D01*
X152489Y118692D01*
X152514Y118673D01*
X152533Y118656D01*
X152547Y118642D01*
X152561Y118631D01*
X152566Y118626D01*
X152569Y118623D01*
X152605Y118581D01*
X152636Y118537D01*
X152663Y118490D01*
X152688Y118440D01*
X152708Y118393D01*
X152724Y118343D01*
X152738Y118296D01*
X152749Y118249D01*
X152758Y118207D01*
X152763Y118166D01*
X152769Y118130D01*
X152771Y118099D01*
X152774Y118074D01*
Y118038D01*
X152771Y117972D01*
X152766Y117908D01*
X152758Y117850D01*
X152744Y117795D01*
X152730Y117742D01*
X152713Y117695D01*
X152697Y117650D01*
X152680Y117612D01*
X152661Y117576D01*
X152644Y117545D01*
X152627Y117518D01*
X152613Y117495D01*
X152600Y117479D01*
X152591Y117468D01*
X152586Y117459D01*
X152583Y117457D01*
X152547Y117418D01*
X152505Y117385D01*
X152464Y117354D01*
X152417Y117326D01*
X152373Y117304D01*
X152328Y117282D01*
X152281Y117265D01*
X152240Y117252D01*
X152198Y117238D01*
X152159Y117229D01*
X152123Y117221D01*
X152093Y117216D01*
X152068Y117213D01*
X152051Y117210D01*
X152040Y117207D01*
X152034D01*
X152001Y117529D01*
X152046Y117531D01*
X152087Y117534D01*
X152159Y117551D01*
X152226Y117573D01*
X152253Y117584D01*
X152278Y117598D01*
X152301Y117609D01*
X152320Y117623D01*
X152337Y117634D01*
X152350Y117642D01*
X152361Y117653D01*
X152370Y117659D01*
X152373Y117662D01*
X152375Y117664D01*
X152400Y117692D01*
X152422Y117720D01*
X152439Y117750D01*
X152456Y117781D01*
X152480Y117842D01*
X152497Y117900D01*
X152505Y117950D01*
X152511Y117972D01*
Y117991D01*
X152514Y118008D01*
Y118069D01*
X152508Y118108D01*
X152494Y118177D01*
X152472Y118235D01*
X152450Y118288D01*
X152425Y118326D01*
X152414Y118343D01*
X152403Y118357D01*
X152395Y118368D01*
X152389Y118376D01*
X152386Y118379D01*
X152383Y118382D01*
X152359Y118407D01*
X152334Y118426D01*
X152309Y118446D01*
X152281Y118459D01*
X152228Y118484D01*
X152179Y118501D01*
X152137Y118509D01*
X152118Y118515D01*
X152101D01*
X152090Y118518D01*
X152079D01*
X152073D01*
X152070D01*
X152037Y118515D01*
X152004Y118512D01*
X151938Y118495D01*
X151874Y118471D01*
X151816Y118443D01*
X151766Y118415D01*
X151746Y118404D01*
X151727Y118390D01*
X151713Y118382D01*
X151702Y118374D01*
X151697Y118371D01*
X151694Y118368D01*
X151655Y118338D01*
X151613Y118301D01*
X151569Y118260D01*
X151525Y118216D01*
X151433Y118124D01*
X151348Y118030D01*
X151306Y117986D01*
X151270Y117941D01*
X151237Y117903D01*
X151209Y117869D01*
X151184Y117842D01*
X151168Y117822D01*
X151154Y117808D01*
X151151Y117803D01*
X151109Y117753D01*
X151071Y117709D01*
X151035Y117664D01*
X150999Y117626D01*
X150965Y117587D01*
X150932Y117554D01*
X150904Y117523D01*
X150877Y117495D01*
X150852Y117471D01*
X150830Y117451D01*
X150810Y117432D01*
X150796Y117418D01*
X150783Y117404D01*
X150774Y117396D01*
X150769Y117393D01*
X150766Y117390D01*
X150705Y117340D01*
X150644Y117299D01*
X150586Y117263D01*
X150533Y117235D01*
X150489Y117213D01*
X150470Y117205D01*
X150456Y117196D01*
X150442Y117191D01*
X150434Y117188D01*
X150428Y117185D01*
X150425D01*
X150386Y117171D01*
X150348Y117163D01*
X150312Y117155D01*
X150278Y117152D01*
X150251Y117149D01*
X150229D01*
X150215D01*
X150209D01*
Y118842D01*
X150511D01*
Y117581D01*
D02*
G37*
G36*
X150904Y116551D02*
X150976Y116501D01*
X151043Y116451D01*
X151101Y116404D01*
X151151Y116363D01*
X151190Y116326D01*
X151206Y116310D01*
X151220Y116296D01*
X151231Y116285D01*
X151240Y116277D01*
X151242Y116274D01*
X151245Y116271D01*
X151267Y116243D01*
X151292Y116210D01*
X151312Y116177D01*
X151331Y116144D01*
X151348Y116113D01*
X151361Y116088D01*
X151370Y116072D01*
X151373Y116069D01*
Y116066D01*
X151384Y116133D01*
X151397Y116196D01*
X151414Y116254D01*
X151431Y116307D01*
X151450Y116357D01*
X151470Y116401D01*
X151489Y116440D01*
X151508Y116476D01*
X151528Y116509D01*
X151547Y116537D01*
X151564Y116559D01*
X151577Y116579D01*
X151591Y116592D01*
X151600Y116604D01*
X151605Y116609D01*
X151608Y116612D01*
X151644Y116642D01*
X151680Y116670D01*
X151719Y116695D01*
X151758Y116714D01*
X151796Y116731D01*
X151835Y116745D01*
X151907Y116767D01*
X151940Y116775D01*
X151971Y116781D01*
X151998Y116783D01*
X152023Y116786D01*
X152040Y116789D01*
X152057D01*
X152065D01*
X152068D01*
X152145Y116783D01*
X152217Y116772D01*
X152281Y116756D01*
X152339Y116736D01*
X152364Y116725D01*
X152386Y116714D01*
X152406Y116706D01*
X152422Y116698D01*
X152436Y116692D01*
X152445Y116687D01*
X152450Y116681D01*
X152453D01*
X152514Y116639D01*
X152564Y116592D01*
X152608Y116545D01*
X152641Y116498D01*
X152666Y116459D01*
X152683Y116426D01*
X152688Y116412D01*
X152694Y116404D01*
X152697Y116399D01*
Y116396D01*
X152708Y116360D01*
X152719Y116324D01*
X152735Y116241D01*
X152749Y116155D01*
X152758Y116072D01*
X152760Y116030D01*
X152763Y115994D01*
Y115964D01*
X152766Y115933D01*
Y114745D01*
X150209D01*
Y115083D01*
X151345D01*
Y115518D01*
X151342Y115556D01*
X151339Y115590D01*
Y115617D01*
X151337Y115637D01*
X151334Y115651D01*
X151331Y115659D01*
Y115662D01*
X151323Y115692D01*
X151312Y115720D01*
X151301Y115745D01*
X151289Y115770D01*
X151278Y115789D01*
X151270Y115803D01*
X151265Y115814D01*
X151262Y115817D01*
X151242Y115845D01*
X151215Y115875D01*
X151187Y115905D01*
X151159Y115930D01*
X151134Y115955D01*
X151112Y115972D01*
X151098Y115983D01*
X151095Y115989D01*
X151093D01*
X151043Y116027D01*
X150988Y116069D01*
X150929Y116108D01*
X150871Y116146D01*
X150821Y116180D01*
X150799Y116196D01*
X150780Y116207D01*
X150763Y116218D01*
X150752Y116227D01*
X150744Y116229D01*
X150741Y116232D01*
X150209Y116570D01*
Y116994D01*
X150904Y116551D01*
D02*
G37*
G36*
X152766Y114086D02*
X151120Y113684D01*
X151007Y113656D01*
X150902Y113631D01*
X150855Y113620D01*
X150807Y113609D01*
X150766Y113601D01*
X150727Y113593D01*
X150691Y113584D01*
X150661Y113576D01*
X150633Y113570D01*
X150608Y113565D01*
X150591Y113562D01*
X150577Y113559D01*
X150569Y113557D01*
X150566D01*
X150727Y113529D01*
X150885Y113498D01*
X150962Y113482D01*
X151037Y113465D01*
X151109Y113449D01*
X151176Y113432D01*
X151240Y113415D01*
X151295Y113401D01*
X151345Y113388D01*
X151386Y113376D01*
X151422Y113368D01*
X151447Y113360D01*
X151464Y113357D01*
X151470Y113354D01*
X152766Y112991D01*
Y112584D01*
X151037Y112097D01*
X151021Y112091D01*
X150999Y112086D01*
X150971Y112080D01*
X150938Y112072D01*
X150899Y112061D01*
X150860Y112052D01*
X150777Y112030D01*
X150738Y112022D01*
X150699Y112011D01*
X150663Y112003D01*
X150630Y111997D01*
X150605Y111989D01*
X150583Y111986D01*
X150572Y111980D01*
X150566D01*
X150663Y111964D01*
X150758Y111944D01*
X150843Y111928D01*
X150885Y111919D01*
X150924Y111911D01*
X150960Y111903D01*
X150990Y111895D01*
X151018Y111889D01*
X151043Y111883D01*
X151062Y111878D01*
X151076Y111875D01*
X151084Y111872D01*
X151087D01*
X152766Y111487D01*
Y111138D01*
X150209Y111811D01*
Y112163D01*
X152156Y112701D01*
X152204Y112714D01*
X152253Y112728D01*
X152306Y112742D01*
X152353Y112753D01*
X152392Y112764D01*
X152411Y112767D01*
X152425Y112770D01*
X152439Y112775D01*
X152447D01*
X152453Y112778D01*
X152456D01*
X152445Y112781D01*
X152428Y112786D01*
X152409Y112792D01*
X152386Y112797D01*
X152337Y112811D01*
X152287Y112825D01*
X152237Y112839D01*
X152215Y112845D01*
X152195Y112850D01*
X152179Y112856D01*
X152167Y112858D01*
X152159Y112861D01*
X152156D01*
X150209Y113396D01*
Y113725D01*
X152766Y114426D01*
Y114086D01*
D02*
G37*
G36*
X152093Y110936D02*
X152159Y110928D01*
X152217Y110914D01*
X152270Y110900D01*
X152312Y110883D01*
X152331Y110878D01*
X152345Y110872D01*
X152356Y110867D01*
X152364Y110861D01*
X152370Y110859D01*
X152373D01*
X152431Y110828D01*
X152478Y110795D01*
X152522Y110759D01*
X152555Y110728D01*
X152583Y110698D01*
X152602Y110676D01*
X152616Y110659D01*
X152619Y110656D01*
Y110653D01*
X152649Y110604D01*
X152674Y110551D01*
X152697Y110498D01*
X152713Y110449D01*
X152727Y110404D01*
X152730Y110385D01*
X152735Y110368D01*
X152738Y110357D01*
Y110346D01*
X152741Y110340D01*
Y110338D01*
X152746Y110313D01*
X152749Y110282D01*
X152755Y110221D01*
X152760Y110158D01*
X152763Y110094D01*
X152766Y110039D01*
Y108986D01*
X150209D01*
Y109324D01*
X151248D01*
Y109978D01*
X151251Y110077D01*
X151259Y110166D01*
X151270Y110249D01*
X151284Y110327D01*
X151301Y110393D01*
X151320Y110457D01*
X151339Y110510D01*
X151361Y110559D01*
X151381Y110601D01*
X151400Y110637D01*
X151420Y110667D01*
X151436Y110689D01*
X151453Y110709D01*
X151464Y110720D01*
X151470Y110728D01*
X151472Y110731D01*
X151516Y110767D01*
X151561Y110800D01*
X151608Y110828D01*
X151655Y110850D01*
X151702Y110872D01*
X151746Y110889D01*
X151791Y110903D01*
X151832Y110914D01*
X151874Y110922D01*
X151910Y110928D01*
X151940Y110933D01*
X151968Y110936D01*
X151993Y110939D01*
X152010D01*
X152021D01*
X152023D01*
X152093Y110936D01*
D02*
G37*
G36*
X149727Y106670D02*
X149500D01*
Y108750D01*
X149727D01*
Y106670D01*
D02*
G37*
G36*
X150511Y105338D02*
X152766D01*
Y105000D01*
X150209D01*
Y106598D01*
X150511D01*
Y105338D01*
D02*
G37*
G36*
X49366Y126771D02*
X49430Y126766D01*
X49488Y126758D01*
X49543Y126744D01*
X49596Y126730D01*
X49643Y126713D01*
X49687Y126697D01*
X49726Y126680D01*
X49762Y126661D01*
X49793Y126644D01*
X49820Y126627D01*
X49843Y126613D01*
X49859Y126600D01*
X49870Y126591D01*
X49879Y126586D01*
X49881Y126583D01*
X49920Y126547D01*
X49953Y126505D01*
X49984Y126464D01*
X50012Y126417D01*
X50034Y126372D01*
X50056Y126328D01*
X50072Y126281D01*
X50086Y126240D01*
X50100Y126198D01*
X50108Y126159D01*
X50117Y126123D01*
X50122Y126093D01*
X50125Y126068D01*
X50128Y126051D01*
X50131Y126040D01*
Y126034D01*
X49809Y126001D01*
X49807Y126046D01*
X49804Y126087D01*
X49787Y126159D01*
X49765Y126226D01*
X49754Y126253D01*
X49740Y126278D01*
X49729Y126300D01*
X49715Y126320D01*
X49704Y126336D01*
X49696Y126350D01*
X49685Y126361D01*
X49679Y126370D01*
X49676Y126372D01*
X49674Y126375D01*
X49646Y126400D01*
X49618Y126422D01*
X49588Y126439D01*
X49557Y126455D01*
X49496Y126480D01*
X49438Y126497D01*
X49388Y126505D01*
X49366Y126511D01*
X49347D01*
X49330Y126514D01*
X49269D01*
X49230Y126508D01*
X49161Y126494D01*
X49103Y126472D01*
X49050Y126450D01*
X49012Y126425D01*
X48995Y126414D01*
X48981Y126403D01*
X48970Y126395D01*
X48962Y126389D01*
X48959Y126386D01*
X48956Y126383D01*
X48931Y126359D01*
X48912Y126334D01*
X48893Y126309D01*
X48879Y126281D01*
X48854Y126228D01*
X48837Y126179D01*
X48829Y126137D01*
X48823Y126118D01*
Y126101D01*
X48820Y126090D01*
Y126079D01*
Y126073D01*
Y126070D01*
X48823Y126037D01*
X48826Y126004D01*
X48843Y125938D01*
X48868Y125874D01*
X48895Y125816D01*
X48923Y125766D01*
X48934Y125746D01*
X48948Y125727D01*
X48956Y125713D01*
X48965Y125702D01*
X48967Y125697D01*
X48970Y125694D01*
X49000Y125655D01*
X49036Y125613D01*
X49078Y125569D01*
X49122Y125525D01*
X49214Y125433D01*
X49308Y125347D01*
X49352Y125306D01*
X49397Y125270D01*
X49435Y125237D01*
X49469Y125209D01*
X49496Y125184D01*
X49516Y125168D01*
X49530Y125154D01*
X49535Y125151D01*
X49585Y125109D01*
X49629Y125071D01*
X49674Y125034D01*
X49712Y124998D01*
X49751Y124965D01*
X49784Y124932D01*
X49815Y124904D01*
X49843Y124877D01*
X49867Y124852D01*
X49887Y124829D01*
X49906Y124810D01*
X49920Y124796D01*
X49934Y124783D01*
X49942Y124774D01*
X49945Y124769D01*
X49948Y124766D01*
X49998Y124705D01*
X50039Y124644D01*
X50075Y124586D01*
X50103Y124533D01*
X50125Y124489D01*
X50134Y124469D01*
X50142Y124456D01*
X50147Y124442D01*
X50150Y124433D01*
X50153Y124428D01*
Y124425D01*
X50167Y124386D01*
X50175Y124348D01*
X50183Y124312D01*
X50186Y124278D01*
X50189Y124251D01*
Y124229D01*
Y124215D01*
Y124209D01*
X48496D01*
Y124511D01*
X49757D01*
X49712Y124572D01*
X49690Y124600D01*
X49668Y124625D01*
X49649Y124647D01*
X49635Y124663D01*
X49624Y124674D01*
X49621Y124677D01*
X49604Y124694D01*
X49582Y124716D01*
X49557Y124738D01*
X49530Y124763D01*
X49471Y124819D01*
X49411Y124871D01*
X49352Y124921D01*
X49327Y124943D01*
X49303Y124962D01*
X49286Y124979D01*
X49269Y124990D01*
X49261Y124998D01*
X49258Y125001D01*
X49197Y125054D01*
X49139Y125104D01*
X49086Y125148D01*
X49039Y125192D01*
X48995Y125231D01*
X48956Y125270D01*
X48920Y125303D01*
X48887Y125334D01*
X48859Y125359D01*
X48837Y125383D01*
X48818Y125403D01*
X48801Y125420D01*
X48790Y125433D01*
X48779Y125442D01*
X48776Y125447D01*
X48773Y125450D01*
X48721Y125511D01*
X48679Y125566D01*
X48643Y125619D01*
X48613Y125666D01*
X48591Y125705D01*
X48574Y125735D01*
X48568Y125746D01*
X48566Y125755D01*
X48563Y125758D01*
Y125760D01*
X48541Y125816D01*
X48527Y125871D01*
X48516Y125921D01*
X48507Y125968D01*
X48502Y126007D01*
X48499Y126037D01*
Y126048D01*
Y126057D01*
Y126059D01*
Y126062D01*
X48502Y126118D01*
X48507Y126170D01*
X48518Y126220D01*
X48532Y126270D01*
X48549Y126314D01*
X48568Y126356D01*
X48588Y126395D01*
X48607Y126428D01*
X48627Y126461D01*
X48646Y126489D01*
X48665Y126514D01*
X48682Y126533D01*
X48696Y126547D01*
X48707Y126561D01*
X48713Y126566D01*
X48715Y126569D01*
X48757Y126605D01*
X48801Y126636D01*
X48848Y126663D01*
X48898Y126688D01*
X48945Y126708D01*
X48995Y126724D01*
X49042Y126738D01*
X49089Y126749D01*
X49131Y126758D01*
X49172Y126763D01*
X49208Y126769D01*
X49239Y126771D01*
X49264Y126774D01*
X49300D01*
X49366Y126771D01*
D02*
G37*
G36*
X51189Y126710D02*
X51230Y126649D01*
X51278Y126591D01*
X51325Y126541D01*
X51366Y126494D01*
X51385Y126478D01*
X51399Y126461D01*
X51413Y126447D01*
X51424Y126439D01*
X51430Y126433D01*
X51433Y126431D01*
X51507Y126367D01*
X51588Y126312D01*
X51665Y126259D01*
X51737Y126215D01*
X51768Y126198D01*
X51798Y126181D01*
X51826Y126165D01*
X51848Y126154D01*
X51868Y126145D01*
X51881Y126137D01*
X51890Y126134D01*
X51892Y126131D01*
Y125830D01*
X51837Y125852D01*
X51779Y125877D01*
X51723Y125904D01*
X51674Y125929D01*
X51629Y125954D01*
X51610Y125962D01*
X51593Y125974D01*
X51579Y125979D01*
X51571Y125985D01*
X51565Y125990D01*
X51563D01*
X51496Y126032D01*
X51438Y126070D01*
X51385Y126107D01*
X51344Y126140D01*
X51308Y126168D01*
X51283Y126187D01*
X51269Y126201D01*
X51264Y126206D01*
Y124209D01*
X50951D01*
Y126774D01*
X51153D01*
X51189Y126710D01*
D02*
G37*
G36*
X57513Y124209D02*
X57161D01*
X56624Y126156D01*
X56610Y126204D01*
X56596Y126253D01*
X56582Y126306D01*
X56571Y126353D01*
X56560Y126392D01*
X56557Y126411D01*
X56554Y126425D01*
X56549Y126439D01*
Y126447D01*
X56546Y126453D01*
Y126455D01*
X56543Y126444D01*
X56538Y126428D01*
X56532Y126408D01*
X56527Y126386D01*
X56513Y126336D01*
X56499Y126287D01*
X56485Y126237D01*
X56480Y126215D01*
X56474Y126195D01*
X56468Y126179D01*
X56466Y126168D01*
X56463Y126159D01*
Y126156D01*
X55928Y124209D01*
X55599D01*
X54898Y126766D01*
X55239D01*
X55640Y125120D01*
X55668Y125007D01*
X55693Y124902D01*
X55704Y124855D01*
X55715Y124807D01*
X55723Y124766D01*
X55732Y124727D01*
X55740Y124691D01*
X55748Y124661D01*
X55754Y124633D01*
X55759Y124608D01*
X55762Y124591D01*
X55765Y124577D01*
X55768Y124569D01*
Y124566D01*
X55795Y124727D01*
X55826Y124885D01*
X55842Y124962D01*
X55859Y125037D01*
X55876Y125109D01*
X55892Y125176D01*
X55909Y125240D01*
X55923Y125295D01*
X55937Y125345D01*
X55948Y125386D01*
X55956Y125422D01*
X55964Y125447D01*
X55967Y125464D01*
X55970Y125469D01*
X56333Y126766D01*
X56740D01*
X57227Y125037D01*
X57233Y125021D01*
X57239Y124998D01*
X57244Y124971D01*
X57252Y124938D01*
X57263Y124899D01*
X57272Y124860D01*
X57294Y124777D01*
X57302Y124738D01*
X57313Y124699D01*
X57322Y124663D01*
X57327Y124630D01*
X57336Y124605D01*
X57338Y124583D01*
X57344Y124572D01*
Y124566D01*
X57360Y124663D01*
X57380Y124758D01*
X57396Y124843D01*
X57405Y124885D01*
X57413Y124924D01*
X57421Y124960D01*
X57430Y124990D01*
X57435Y125018D01*
X57441Y125043D01*
X57446Y125062D01*
X57449Y125076D01*
X57452Y125084D01*
Y125087D01*
X57837Y126766D01*
X58186D01*
X57513Y124209D01*
D02*
G37*
G36*
X63859Y126807D02*
X63920Y126805D01*
X64033Y126785D01*
X64089Y126774D01*
X64139Y126760D01*
X64188Y126746D01*
X64233Y126733D01*
X64271Y126719D01*
X64308Y126705D01*
X64341Y126691D01*
X64366Y126680D01*
X64388Y126669D01*
X64402Y126661D01*
X64413Y126658D01*
X64416Y126655D01*
X64465Y126625D01*
X64515Y126591D01*
X64560Y126555D01*
X64601Y126519D01*
X64640Y126480D01*
X64676Y126444D01*
X64706Y126406D01*
X64737Y126372D01*
X64762Y126336D01*
X64784Y126306D01*
X64803Y126278D01*
X64820Y126253D01*
X64831Y126231D01*
X64839Y126217D01*
X64845Y126206D01*
X64848Y126204D01*
X64875Y126148D01*
X64898Y126087D01*
X64917Y126029D01*
X64936Y125971D01*
X64964Y125852D01*
X64972Y125796D01*
X64981Y125744D01*
X64986Y125694D01*
X64992Y125649D01*
X64995Y125608D01*
X64997Y125572D01*
X65000Y125544D01*
Y125522D01*
Y125511D01*
Y125505D01*
X64997Y125439D01*
X64995Y125373D01*
X64978Y125245D01*
X64970Y125184D01*
X64959Y125129D01*
X64945Y125076D01*
X64934Y125026D01*
X64920Y124982D01*
X64909Y124940D01*
X64898Y124907D01*
X64886Y124877D01*
X64878Y124855D01*
X64873Y124835D01*
X64870Y124824D01*
X64867Y124821D01*
X64839Y124763D01*
X64812Y124708D01*
X64781Y124658D01*
X64748Y124611D01*
X64715Y124566D01*
X64684Y124528D01*
X64651Y124492D01*
X64621Y124458D01*
X64590Y124428D01*
X64562Y124403D01*
X64538Y124384D01*
X64515Y124364D01*
X64499Y124350D01*
X64485Y124342D01*
X64477Y124337D01*
X64474Y124334D01*
X64424Y124303D01*
X64371Y124278D01*
X64316Y124256D01*
X64258Y124237D01*
X64202Y124223D01*
X64147Y124209D01*
X64091Y124198D01*
X64039Y124190D01*
X63989Y124181D01*
X63945Y124176D01*
X63903Y124173D01*
X63870Y124170D01*
X63839Y124168D01*
X63801D01*
X63726Y124170D01*
X63657Y124176D01*
X63590Y124187D01*
X63526Y124201D01*
X63465Y124217D01*
X63410Y124237D01*
X63360Y124256D01*
X63313Y124276D01*
X63269Y124295D01*
X63233Y124314D01*
X63200Y124334D01*
X63175Y124350D01*
X63152Y124364D01*
X63139Y124375D01*
X63127Y124381D01*
X63125Y124384D01*
X63075Y124428D01*
X63028Y124475D01*
X62986Y124525D01*
X62947Y124575D01*
X62911Y124627D01*
X62881Y124683D01*
X62853Y124733D01*
X62828Y124785D01*
X62806Y124832D01*
X62790Y124877D01*
X62773Y124918D01*
X62762Y124951D01*
X62751Y124982D01*
X62745Y125001D01*
X62740Y125015D01*
Y125021D01*
X63078Y125107D01*
X63091Y125048D01*
X63111Y124993D01*
X63130Y124940D01*
X63150Y124893D01*
X63172Y124849D01*
X63194Y124810D01*
X63216Y124774D01*
X63238Y124741D01*
X63261Y124713D01*
X63280Y124688D01*
X63299Y124666D01*
X63313Y124650D01*
X63327Y124636D01*
X63338Y124627D01*
X63344Y124622D01*
X63346Y124619D01*
X63385Y124591D01*
X63424Y124566D01*
X63463Y124544D01*
X63504Y124525D01*
X63546Y124508D01*
X63585Y124494D01*
X63662Y124475D01*
X63695Y124469D01*
X63729Y124464D01*
X63756Y124461D01*
X63781Y124458D01*
X63801Y124456D01*
X63828D01*
X63873Y124458D01*
X63914Y124461D01*
X63994Y124475D01*
X64069Y124494D01*
X64133Y124516D01*
X64161Y124528D01*
X64186Y124536D01*
X64208Y124547D01*
X64227Y124555D01*
X64244Y124564D01*
X64255Y124569D01*
X64261Y124575D01*
X64263D01*
X64299Y124600D01*
X64332Y124625D01*
X64393Y124683D01*
X64443Y124741D01*
X64485Y124802D01*
X64515Y124855D01*
X64529Y124877D01*
X64540Y124899D01*
X64546Y124915D01*
X64551Y124926D01*
X64557Y124935D01*
Y124938D01*
X64587Y125032D01*
X64612Y125129D01*
X64629Y125226D01*
X64634Y125270D01*
X64640Y125314D01*
X64643Y125356D01*
X64645Y125392D01*
X64648Y125425D01*
Y125453D01*
X64651Y125478D01*
Y125494D01*
Y125505D01*
Y125508D01*
X64648Y125602D01*
X64640Y125691D01*
X64626Y125774D01*
X64621Y125813D01*
X64612Y125849D01*
X64604Y125879D01*
X64598Y125910D01*
X64590Y125935D01*
X64585Y125957D01*
X64582Y125974D01*
X64576Y125987D01*
X64574Y125996D01*
Y125998D01*
X64538Y126084D01*
X64496Y126159D01*
X64452Y126223D01*
X64427Y126251D01*
X64404Y126278D01*
X64382Y126300D01*
X64363Y126320D01*
X64344Y126339D01*
X64330Y126353D01*
X64316Y126364D01*
X64305Y126372D01*
X64299Y126375D01*
X64297Y126378D01*
X64258Y126403D01*
X64219Y126425D01*
X64177Y126444D01*
X64136Y126461D01*
X64053Y126486D01*
X63972Y126505D01*
X63939Y126511D01*
X63906Y126514D01*
X63875Y126516D01*
X63850Y126519D01*
X63828Y126522D01*
X63753D01*
X63709Y126516D01*
X63626Y126503D01*
X63554Y126480D01*
X63524Y126469D01*
X63493Y126458D01*
X63465Y126447D01*
X63443Y126436D01*
X63424Y126425D01*
X63407Y126414D01*
X63393Y126406D01*
X63385Y126400D01*
X63380Y126397D01*
X63377Y126395D01*
X63346Y126370D01*
X63316Y126342D01*
X63266Y126278D01*
X63219Y126209D01*
X63183Y126143D01*
X63155Y126082D01*
X63141Y126057D01*
X63133Y126034D01*
X63125Y126015D01*
X63122Y125998D01*
X63116Y125990D01*
Y125987D01*
X62784Y126065D01*
X62806Y126129D01*
X62831Y126190D01*
X62856Y126248D01*
X62887Y126300D01*
X62914Y126350D01*
X62945Y126395D01*
X62975Y126436D01*
X63006Y126472D01*
X63036Y126505D01*
X63061Y126533D01*
X63086Y126558D01*
X63108Y126577D01*
X63125Y126594D01*
X63139Y126605D01*
X63147Y126611D01*
X63150Y126613D01*
X63200Y126649D01*
X63252Y126677D01*
X63305Y126705D01*
X63360Y126727D01*
X63416Y126746D01*
X63468Y126763D01*
X63521Y126774D01*
X63571Y126785D01*
X63618Y126794D01*
X63659Y126799D01*
X63698Y126805D01*
X63731Y126807D01*
X63759Y126810D01*
X63795D01*
X63859Y126807D01*
D02*
G37*
G36*
X60338Y124209D02*
X60000D01*
Y125248D01*
X59346D01*
X59247Y125251D01*
X59158Y125259D01*
X59075Y125270D01*
X58997Y125284D01*
X58931Y125301D01*
X58867Y125320D01*
X58815Y125339D01*
X58765Y125361D01*
X58723Y125381D01*
X58687Y125400D01*
X58657Y125420D01*
X58635Y125436D01*
X58615Y125453D01*
X58604Y125464D01*
X58596Y125469D01*
X58593Y125472D01*
X58557Y125516D01*
X58524Y125561D01*
X58496Y125608D01*
X58474Y125655D01*
X58452Y125702D01*
X58435Y125746D01*
X58421Y125791D01*
X58410Y125832D01*
X58402Y125874D01*
X58396Y125910D01*
X58391Y125940D01*
X58388Y125968D01*
X58385Y125993D01*
Y126010D01*
Y126021D01*
Y126023D01*
X58388Y126093D01*
X58396Y126159D01*
X58410Y126217D01*
X58424Y126270D01*
X58441Y126312D01*
X58446Y126331D01*
X58452Y126345D01*
X58457Y126356D01*
X58463Y126364D01*
X58466Y126370D01*
Y126372D01*
X58496Y126431D01*
X58529Y126478D01*
X58565Y126522D01*
X58596Y126555D01*
X58626Y126583D01*
X58648Y126602D01*
X58665Y126616D01*
X58668Y126619D01*
X58671D01*
X58720Y126649D01*
X58773Y126674D01*
X58826Y126697D01*
X58876Y126713D01*
X58920Y126727D01*
X58939Y126730D01*
X58956Y126735D01*
X58967Y126738D01*
X58978D01*
X58984Y126741D01*
X58986D01*
X59011Y126746D01*
X59042Y126749D01*
X59103Y126755D01*
X59166Y126760D01*
X59230Y126763D01*
X59285Y126766D01*
X60338D01*
Y124209D01*
D02*
G37*
G36*
X54579D02*
X54241D01*
Y125345D01*
X53807D01*
X53768Y125342D01*
X53734Y125339D01*
X53707D01*
X53687Y125337D01*
X53673Y125334D01*
X53665Y125331D01*
X53662D01*
X53632Y125323D01*
X53604Y125312D01*
X53579Y125301D01*
X53554Y125289D01*
X53535Y125278D01*
X53521Y125270D01*
X53510Y125264D01*
X53507Y125262D01*
X53480Y125242D01*
X53449Y125215D01*
X53419Y125187D01*
X53394Y125159D01*
X53369Y125134D01*
X53352Y125112D01*
X53341Y125098D01*
X53336Y125095D01*
Y125093D01*
X53297Y125043D01*
X53255Y124987D01*
X53216Y124929D01*
X53178Y124871D01*
X53144Y124821D01*
X53128Y124799D01*
X53117Y124780D01*
X53106Y124763D01*
X53097Y124752D01*
X53095Y124744D01*
X53092Y124741D01*
X52754Y124209D01*
X52330D01*
X52773Y124904D01*
X52823Y124976D01*
X52873Y125043D01*
X52920Y125101D01*
X52962Y125151D01*
X52998Y125190D01*
X53014Y125206D01*
X53028Y125220D01*
X53039Y125231D01*
X53048Y125240D01*
X53050Y125242D01*
X53053Y125245D01*
X53081Y125267D01*
X53114Y125292D01*
X53147Y125312D01*
X53180Y125331D01*
X53211Y125347D01*
X53236Y125361D01*
X53253Y125370D01*
X53255Y125373D01*
X53258D01*
X53192Y125383D01*
X53128Y125397D01*
X53070Y125414D01*
X53017Y125431D01*
X52967Y125450D01*
X52923Y125469D01*
X52884Y125489D01*
X52848Y125508D01*
X52815Y125528D01*
X52787Y125547D01*
X52765Y125564D01*
X52746Y125577D01*
X52732Y125591D01*
X52721Y125600D01*
X52715Y125605D01*
X52712Y125608D01*
X52682Y125644D01*
X52654Y125680D01*
X52629Y125719D01*
X52610Y125758D01*
X52593Y125796D01*
X52579Y125835D01*
X52557Y125907D01*
X52549Y125940D01*
X52543Y125971D01*
X52541Y125998D01*
X52538Y126023D01*
X52535Y126040D01*
Y126057D01*
Y126065D01*
Y126068D01*
X52541Y126145D01*
X52552Y126217D01*
X52568Y126281D01*
X52588Y126339D01*
X52599Y126364D01*
X52610Y126386D01*
X52618Y126406D01*
X52627Y126422D01*
X52632Y126436D01*
X52637Y126444D01*
X52643Y126450D01*
Y126453D01*
X52685Y126514D01*
X52732Y126564D01*
X52779Y126608D01*
X52826Y126641D01*
X52865Y126666D01*
X52898Y126683D01*
X52912Y126688D01*
X52920Y126694D01*
X52926Y126697D01*
X52928D01*
X52964Y126708D01*
X53000Y126719D01*
X53083Y126735D01*
X53169Y126749D01*
X53253Y126758D01*
X53294Y126760D01*
X53330Y126763D01*
X53360D01*
X53391Y126766D01*
X54579D01*
Y124209D01*
D02*
G37*
G36*
X62654Y123500D02*
X60574D01*
Y123727D01*
X62654D01*
Y123500D01*
D02*
G37*
G36*
X69426Y107773D02*
X67346D01*
Y108000D01*
X69426D01*
Y107773D01*
D02*
G37*
G36*
X66274Y107330D02*
X66343Y107324D01*
X66410Y107313D01*
X66474Y107299D01*
X66535Y107283D01*
X66590Y107263D01*
X66640Y107244D01*
X66687Y107224D01*
X66731Y107205D01*
X66767Y107186D01*
X66800Y107166D01*
X66825Y107150D01*
X66847Y107136D01*
X66861Y107125D01*
X66873Y107119D01*
X66875Y107116D01*
X66925Y107072D01*
X66972Y107025D01*
X67014Y106975D01*
X67053Y106925D01*
X67089Y106873D01*
X67119Y106817D01*
X67147Y106767D01*
X67172Y106715D01*
X67194Y106668D01*
X67210Y106623D01*
X67227Y106582D01*
X67238Y106549D01*
X67249Y106518D01*
X67255Y106499D01*
X67260Y106485D01*
Y106479D01*
X66922Y106393D01*
X66909Y106452D01*
X66889Y106507D01*
X66870Y106560D01*
X66850Y106607D01*
X66828Y106651D01*
X66806Y106690D01*
X66784Y106726D01*
X66762Y106759D01*
X66739Y106787D01*
X66720Y106812D01*
X66701Y106834D01*
X66687Y106851D01*
X66673Y106864D01*
X66662Y106873D01*
X66656Y106878D01*
X66654Y106881D01*
X66615Y106909D01*
X66576Y106934D01*
X66537Y106956D01*
X66496Y106975D01*
X66454Y106992D01*
X66415Y107006D01*
X66338Y107025D01*
X66305Y107030D01*
X66271Y107036D01*
X66244Y107039D01*
X66219Y107042D01*
X66199Y107044D01*
X66172D01*
X66127Y107042D01*
X66086Y107039D01*
X66005Y107025D01*
X65931Y107006D01*
X65867Y106983D01*
X65839Y106972D01*
X65814Y106964D01*
X65792Y106953D01*
X65773Y106945D01*
X65756Y106936D01*
X65745Y106931D01*
X65740Y106925D01*
X65737D01*
X65701Y106900D01*
X65667Y106875D01*
X65607Y106817D01*
X65557Y106759D01*
X65515Y106698D01*
X65485Y106646D01*
X65471Y106623D01*
X65460Y106601D01*
X65454Y106585D01*
X65449Y106573D01*
X65443Y106565D01*
Y106562D01*
X65413Y106468D01*
X65388Y106371D01*
X65371Y106274D01*
X65366Y106230D01*
X65360Y106186D01*
X65357Y106144D01*
X65355Y106108D01*
X65352Y106075D01*
Y106047D01*
X65349Y106022D01*
Y106006D01*
Y105995D01*
Y105992D01*
X65352Y105898D01*
X65360Y105809D01*
X65374Y105726D01*
X65379Y105687D01*
X65388Y105651D01*
X65396Y105621D01*
X65402Y105590D01*
X65410Y105565D01*
X65415Y105543D01*
X65418Y105526D01*
X65424Y105513D01*
X65426Y105504D01*
Y105501D01*
X65462Y105416D01*
X65504Y105341D01*
X65548Y105277D01*
X65573Y105249D01*
X65596Y105222D01*
X65618Y105200D01*
X65637Y105180D01*
X65656Y105161D01*
X65670Y105147D01*
X65684Y105136D01*
X65695Y105128D01*
X65701Y105125D01*
X65703Y105122D01*
X65742Y105097D01*
X65781Y105075D01*
X65823Y105055D01*
X65864Y105039D01*
X65947Y105014D01*
X66028Y104995D01*
X66061Y104989D01*
X66094Y104986D01*
X66125Y104983D01*
X66149Y104981D01*
X66172Y104978D01*
X66246D01*
X66291Y104983D01*
X66374Y104997D01*
X66446Y105019D01*
X66476Y105031D01*
X66507Y105042D01*
X66535Y105053D01*
X66557Y105064D01*
X66576Y105075D01*
X66593Y105086D01*
X66607Y105094D01*
X66615Y105100D01*
X66620Y105103D01*
X66623Y105105D01*
X66654Y105130D01*
X66684Y105158D01*
X66734Y105222D01*
X66781Y105291D01*
X66817Y105357D01*
X66845Y105418D01*
X66859Y105443D01*
X66867Y105465D01*
X66875Y105485D01*
X66878Y105501D01*
X66884Y105510D01*
Y105513D01*
X67216Y105435D01*
X67194Y105371D01*
X67169Y105310D01*
X67144Y105252D01*
X67114Y105200D01*
X67086Y105150D01*
X67055Y105105D01*
X67025Y105064D01*
X66994Y105028D01*
X66964Y104995D01*
X66939Y104967D01*
X66914Y104942D01*
X66892Y104923D01*
X66875Y104906D01*
X66861Y104895D01*
X66853Y104889D01*
X66850Y104887D01*
X66800Y104850D01*
X66748Y104823D01*
X66695Y104795D01*
X66640Y104773D01*
X66584Y104754D01*
X66532Y104737D01*
X66479Y104726D01*
X66429Y104715D01*
X66382Y104707D01*
X66341Y104701D01*
X66302Y104695D01*
X66269Y104693D01*
X66241Y104690D01*
X66205D01*
X66141Y104693D01*
X66080Y104695D01*
X65967Y104715D01*
X65911Y104726D01*
X65861Y104740D01*
X65812Y104754D01*
X65767Y104767D01*
X65728Y104781D01*
X65692Y104795D01*
X65659Y104809D01*
X65634Y104820D01*
X65612Y104831D01*
X65598Y104840D01*
X65587Y104842D01*
X65584Y104845D01*
X65535Y104876D01*
X65485Y104909D01*
X65440Y104945D01*
X65399Y104981D01*
X65360Y105019D01*
X65324Y105055D01*
X65294Y105094D01*
X65263Y105128D01*
X65238Y105164D01*
X65216Y105194D01*
X65197Y105222D01*
X65180Y105247D01*
X65169Y105269D01*
X65161Y105283D01*
X65155Y105294D01*
X65152Y105297D01*
X65125Y105352D01*
X65102Y105413D01*
X65083Y105471D01*
X65064Y105529D01*
X65036Y105648D01*
X65028Y105704D01*
X65019Y105756D01*
X65014Y105806D01*
X65008Y105851D01*
X65005Y105892D01*
X65003Y105928D01*
X65000Y105956D01*
Y105978D01*
Y105989D01*
Y105995D01*
X65003Y106061D01*
X65005Y106128D01*
X65022Y106255D01*
X65030Y106316D01*
X65042Y106371D01*
X65055Y106424D01*
X65066Y106474D01*
X65080Y106518D01*
X65091Y106560D01*
X65102Y106593D01*
X65114Y106623D01*
X65122Y106646D01*
X65127Y106665D01*
X65130Y106676D01*
X65133Y106679D01*
X65161Y106737D01*
X65188Y106792D01*
X65219Y106842D01*
X65252Y106889D01*
X65285Y106934D01*
X65316Y106972D01*
X65349Y107008D01*
X65379Y107042D01*
X65410Y107072D01*
X65438Y107097D01*
X65462Y107116D01*
X65485Y107136D01*
X65501Y107150D01*
X65515Y107158D01*
X65523Y107164D01*
X65526Y107166D01*
X65576Y107197D01*
X65629Y107222D01*
X65684Y107244D01*
X65742Y107263D01*
X65798Y107277D01*
X65853Y107291D01*
X65908Y107302D01*
X65961Y107310D01*
X66011Y107319D01*
X66055Y107324D01*
X66097Y107327D01*
X66130Y107330D01*
X66161Y107333D01*
X66199D01*
X66274Y107330D01*
D02*
G37*
G36*
X77227Y106596D02*
X77177Y106524D01*
X77127Y106457D01*
X77080Y106399D01*
X77038Y106349D01*
X77002Y106310D01*
X76986Y106294D01*
X76972Y106280D01*
X76961Y106269D01*
X76952Y106261D01*
X76950Y106258D01*
X76947Y106255D01*
X76919Y106233D01*
X76886Y106208D01*
X76853Y106188D01*
X76819Y106169D01*
X76789Y106152D01*
X76764Y106139D01*
X76748Y106130D01*
X76745Y106128D01*
X76742D01*
X76809Y106116D01*
X76872Y106103D01*
X76930Y106086D01*
X76983Y106069D01*
X77033Y106050D01*
X77077Y106031D01*
X77116Y106011D01*
X77152Y105992D01*
X77185Y105972D01*
X77213Y105953D01*
X77235Y105936D01*
X77254Y105922D01*
X77268Y105909D01*
X77279Y105900D01*
X77285Y105895D01*
X77288Y105892D01*
X77318Y105856D01*
X77346Y105820D01*
X77371Y105781D01*
X77390Y105743D01*
X77407Y105704D01*
X77421Y105665D01*
X77443Y105593D01*
X77451Y105560D01*
X77457Y105529D01*
X77459Y105501D01*
X77462Y105477D01*
X77465Y105460D01*
Y105443D01*
Y105435D01*
Y105432D01*
X77459Y105355D01*
X77448Y105283D01*
X77432Y105219D01*
X77412Y105161D01*
X77401Y105136D01*
X77390Y105114D01*
X77382Y105094D01*
X77373Y105078D01*
X77368Y105064D01*
X77363Y105055D01*
X77357Y105050D01*
Y105047D01*
X77315Y104986D01*
X77268Y104936D01*
X77221Y104892D01*
X77174Y104859D01*
X77135Y104834D01*
X77102Y104817D01*
X77088Y104812D01*
X77080Y104806D01*
X77074Y104803D01*
X77072D01*
X77036Y104792D01*
X77000Y104781D01*
X76916Y104765D01*
X76831Y104751D01*
X76748Y104743D01*
X76706Y104740D01*
X76670Y104737D01*
X76639D01*
X76609Y104734D01*
X75421D01*
Y107291D01*
X75759D01*
Y106155D01*
X76193D01*
X76232Y106158D01*
X76266Y106161D01*
X76293D01*
X76313Y106164D01*
X76327Y106166D01*
X76335Y106169D01*
X76338D01*
X76368Y106177D01*
X76396Y106188D01*
X76421Y106200D01*
X76446Y106211D01*
X76465Y106222D01*
X76479Y106230D01*
X76490Y106236D01*
X76493Y106238D01*
X76520Y106258D01*
X76551Y106285D01*
X76581Y106313D01*
X76606Y106341D01*
X76631Y106366D01*
X76648Y106388D01*
X76659Y106402D01*
X76664Y106404D01*
Y106407D01*
X76703Y106457D01*
X76745Y106512D01*
X76784Y106571D01*
X76822Y106629D01*
X76856Y106679D01*
X76872Y106701D01*
X76883Y106720D01*
X76894Y106737D01*
X76903Y106748D01*
X76905Y106756D01*
X76908Y106759D01*
X77246Y107291D01*
X77670D01*
X77227Y106596D01*
D02*
G37*
G36*
X81036Y104726D02*
X80833D01*
X80797Y104790D01*
X80756Y104850D01*
X80709Y104909D01*
X80661Y104959D01*
X80620Y105006D01*
X80601Y105022D01*
X80587Y105039D01*
X80573Y105053D01*
X80562Y105061D01*
X80556Y105067D01*
X80554Y105069D01*
X80479Y105133D01*
X80398Y105189D01*
X80321Y105241D01*
X80249Y105285D01*
X80218Y105302D01*
X80188Y105319D01*
X80160Y105335D01*
X80138Y105346D01*
X80119Y105355D01*
X80105Y105363D01*
X80097Y105366D01*
X80094Y105368D01*
Y105670D01*
X80149Y105648D01*
X80207Y105623D01*
X80263Y105596D01*
X80313Y105571D01*
X80357Y105546D01*
X80376Y105537D01*
X80393Y105526D01*
X80407Y105521D01*
X80415Y105515D01*
X80421Y105510D01*
X80423D01*
X80490Y105468D01*
X80548Y105429D01*
X80601Y105394D01*
X80642Y105360D01*
X80678Y105333D01*
X80703Y105313D01*
X80717Y105299D01*
X80722Y105294D01*
Y107291D01*
X81036D01*
Y104726D01*
D02*
G37*
G36*
X79049D02*
X78847D01*
X78811Y104790D01*
X78770Y104850D01*
X78723Y104909D01*
X78675Y104959D01*
X78634Y105006D01*
X78614Y105022D01*
X78601Y105039D01*
X78587Y105053D01*
X78576Y105061D01*
X78570Y105067D01*
X78567Y105069D01*
X78493Y105133D01*
X78412Y105189D01*
X78335Y105241D01*
X78263Y105285D01*
X78232Y105302D01*
X78202Y105319D01*
X78174Y105335D01*
X78152Y105346D01*
X78132Y105355D01*
X78119Y105363D01*
X78110Y105366D01*
X78108Y105368D01*
Y105670D01*
X78163Y105648D01*
X78221Y105623D01*
X78277Y105596D01*
X78326Y105571D01*
X78371Y105546D01*
X78390Y105537D01*
X78407Y105526D01*
X78421Y105521D01*
X78429Y105515D01*
X78434Y105510D01*
X78437D01*
X78504Y105468D01*
X78562Y105429D01*
X78614Y105394D01*
X78656Y105360D01*
X78692Y105333D01*
X78717Y105313D01*
X78731Y105299D01*
X78736Y105294D01*
Y107291D01*
X79049D01*
Y104726D01*
D02*
G37*
G36*
X75102Y104734D02*
X74761D01*
X74360Y106380D01*
X74332Y106493D01*
X74307Y106598D01*
X74296Y106646D01*
X74285Y106693D01*
X74277Y106734D01*
X74268Y106773D01*
X74260Y106809D01*
X74252Y106839D01*
X74246Y106867D01*
X74241Y106892D01*
X74238Y106909D01*
X74235Y106922D01*
X74232Y106931D01*
Y106934D01*
X74205Y106773D01*
X74174Y106615D01*
X74158Y106537D01*
X74141Y106463D01*
X74124Y106391D01*
X74108Y106324D01*
X74091Y106261D01*
X74077Y106205D01*
X74063Y106155D01*
X74052Y106114D01*
X74044Y106078D01*
X74036Y106053D01*
X74033Y106036D01*
X74030Y106031D01*
X73667Y104734D01*
X73260D01*
X72773Y106463D01*
X72767Y106479D01*
X72761Y106501D01*
X72756Y106529D01*
X72748Y106562D01*
X72737Y106601D01*
X72728Y106640D01*
X72706Y106723D01*
X72698Y106762D01*
X72687Y106801D01*
X72678Y106837D01*
X72673Y106870D01*
X72664Y106895D01*
X72662Y106917D01*
X72656Y106928D01*
Y106934D01*
X72640Y106837D01*
X72620Y106743D01*
X72604Y106657D01*
X72595Y106615D01*
X72587Y106576D01*
X72579Y106540D01*
X72570Y106510D01*
X72565Y106482D01*
X72559Y106457D01*
X72554Y106438D01*
X72551Y106424D01*
X72548Y106416D01*
Y106413D01*
X72163Y104734D01*
X71814D01*
X72487Y107291D01*
X72839D01*
X73376Y105344D01*
X73390Y105297D01*
X73404Y105247D01*
X73418Y105194D01*
X73429Y105147D01*
X73440Y105108D01*
X73443Y105089D01*
X73446Y105075D01*
X73451Y105061D01*
Y105053D01*
X73454Y105047D01*
Y105044D01*
X73457Y105055D01*
X73462Y105072D01*
X73468Y105092D01*
X73473Y105114D01*
X73487Y105164D01*
X73501Y105213D01*
X73515Y105263D01*
X73520Y105285D01*
X73526Y105305D01*
X73532Y105321D01*
X73534Y105333D01*
X73537Y105341D01*
Y105344D01*
X74072Y107291D01*
X74401D01*
X75102Y104734D01*
D02*
G37*
G36*
X70000Y106252D02*
X70653D01*
X70753Y106249D01*
X70842Y106241D01*
X70925Y106230D01*
X71003Y106216D01*
X71069Y106200D01*
X71133Y106180D01*
X71185Y106161D01*
X71235Y106139D01*
X71277Y106119D01*
X71313Y106100D01*
X71343Y106080D01*
X71365Y106064D01*
X71385Y106047D01*
X71396Y106036D01*
X71404Y106031D01*
X71407Y106028D01*
X71443Y105983D01*
X71476Y105939D01*
X71504Y105892D01*
X71526Y105845D01*
X71548Y105798D01*
X71565Y105754D01*
X71579Y105709D01*
X71590Y105668D01*
X71598Y105626D01*
X71604Y105590D01*
X71609Y105560D01*
X71612Y105532D01*
X71615Y105507D01*
Y105490D01*
Y105479D01*
Y105477D01*
X71612Y105407D01*
X71604Y105341D01*
X71590Y105283D01*
X71576Y105230D01*
X71559Y105189D01*
X71554Y105169D01*
X71548Y105155D01*
X71543Y105144D01*
X71537Y105136D01*
X71534Y105130D01*
Y105128D01*
X71504Y105069D01*
X71471Y105022D01*
X71435Y104978D01*
X71404Y104945D01*
X71374Y104917D01*
X71352Y104898D01*
X71335Y104884D01*
X71332Y104881D01*
X71329D01*
X71280Y104850D01*
X71227Y104826D01*
X71174Y104803D01*
X71124Y104787D01*
X71080Y104773D01*
X71061Y104770D01*
X71044Y104765D01*
X71033Y104762D01*
X71022D01*
X71016Y104759D01*
X71014D01*
X70989Y104754D01*
X70958Y104751D01*
X70897Y104745D01*
X70834Y104740D01*
X70770Y104737D01*
X70714Y104734D01*
X69662D01*
Y107291D01*
X70000D01*
Y106252D01*
D02*
G37*
G36*
X41301Y65001D02*
X41342Y64940D01*
X41389Y64882D01*
X41436Y64832D01*
X41478Y64785D01*
X41497Y64769D01*
X41511Y64752D01*
X41525Y64738D01*
X41536Y64730D01*
X41542Y64724D01*
X41544Y64722D01*
X41619Y64658D01*
X41700Y64602D01*
X41777Y64550D01*
X41849Y64505D01*
X41880Y64489D01*
X41910Y64472D01*
X41938Y64456D01*
X41960Y64445D01*
X41979Y64436D01*
X41993Y64428D01*
X42002Y64425D01*
X42004Y64422D01*
Y64120D01*
X41949Y64143D01*
X41891Y64167D01*
X41835Y64195D01*
X41785Y64220D01*
X41741Y64245D01*
X41722Y64253D01*
X41705Y64264D01*
X41691Y64270D01*
X41683Y64275D01*
X41677Y64281D01*
X41675D01*
X41608Y64323D01*
X41550Y64361D01*
X41497Y64397D01*
X41456Y64431D01*
X41420Y64458D01*
X41395Y64478D01*
X41381Y64492D01*
X41375Y64497D01*
Y62500D01*
X41063D01*
Y65065D01*
X41265D01*
X41301Y65001D01*
D02*
G37*
G36*
X44500Y62500D02*
X44162D01*
Y63539D01*
X43508D01*
X43409Y63542D01*
X43320Y63550D01*
X43237Y63561D01*
X43159Y63575D01*
X43093Y63591D01*
X43029Y63611D01*
X42976Y63630D01*
X42927Y63652D01*
X42885Y63672D01*
X42849Y63691D01*
X42819Y63710D01*
X42796Y63727D01*
X42777Y63744D01*
X42766Y63755D01*
X42758Y63760D01*
X42755Y63763D01*
X42719Y63807D01*
X42686Y63852D01*
X42658Y63899D01*
X42636Y63946D01*
X42614Y63993D01*
X42597Y64037D01*
X42583Y64082D01*
X42572Y64123D01*
X42564Y64165D01*
X42558Y64201D01*
X42553Y64231D01*
X42550Y64259D01*
X42547Y64284D01*
Y64301D01*
Y64311D01*
Y64314D01*
X42550Y64384D01*
X42558Y64450D01*
X42572Y64508D01*
X42586Y64561D01*
X42603Y64602D01*
X42608Y64622D01*
X42614Y64636D01*
X42619Y64647D01*
X42625Y64655D01*
X42628Y64661D01*
Y64663D01*
X42658Y64722D01*
X42691Y64769D01*
X42727Y64813D01*
X42758Y64846D01*
X42788Y64874D01*
X42810Y64893D01*
X42827Y64907D01*
X42830Y64910D01*
X42832D01*
X42882Y64940D01*
X42935Y64965D01*
X42988Y64987D01*
X43038Y65004D01*
X43082Y65018D01*
X43101Y65021D01*
X43118Y65026D01*
X43129Y65029D01*
X43140D01*
X43145Y65032D01*
X43148D01*
X43173Y65037D01*
X43204Y65040D01*
X43265Y65046D01*
X43328Y65051D01*
X43392Y65054D01*
X43447Y65057D01*
X44500D01*
Y62500D01*
D02*
G37*
G36*
X50352Y161271D02*
X50416Y161266D01*
X50474Y161258D01*
X50529Y161244D01*
X50582Y161230D01*
X50629Y161213D01*
X50674Y161196D01*
X50712Y161180D01*
X50748Y161161D01*
X50779Y161144D01*
X50806Y161127D01*
X50829Y161113D01*
X50845Y161100D01*
X50856Y161091D01*
X50865Y161086D01*
X50867Y161083D01*
X50906Y161047D01*
X50940Y161005D01*
X50970Y160964D01*
X50998Y160917D01*
X51020Y160872D01*
X51042Y160828D01*
X51059Y160781D01*
X51073Y160740D01*
X51086Y160698D01*
X51095Y160659D01*
X51103Y160623D01*
X51108Y160593D01*
X51111Y160568D01*
X51114Y160551D01*
X51117Y160540D01*
Y160535D01*
X50796Y160501D01*
X50793Y160546D01*
X50790Y160587D01*
X50773Y160659D01*
X50751Y160726D01*
X50740Y160753D01*
X50726Y160778D01*
X50715Y160800D01*
X50701Y160820D01*
X50690Y160836D01*
X50682Y160850D01*
X50671Y160861D01*
X50665Y160870D01*
X50662Y160872D01*
X50660Y160875D01*
X50632Y160900D01*
X50604Y160922D01*
X50574Y160939D01*
X50543Y160956D01*
X50482Y160980D01*
X50424Y160997D01*
X50374Y161005D01*
X50352Y161011D01*
X50333D01*
X50316Y161014D01*
X50255D01*
X50217Y161008D01*
X50147Y160994D01*
X50089Y160972D01*
X50037Y160950D01*
X49998Y160925D01*
X49981Y160914D01*
X49967Y160903D01*
X49956Y160895D01*
X49948Y160889D01*
X49945Y160886D01*
X49942Y160883D01*
X49917Y160859D01*
X49898Y160834D01*
X49879Y160809D01*
X49865Y160781D01*
X49840Y160728D01*
X49823Y160679D01*
X49815Y160637D01*
X49809Y160618D01*
Y160601D01*
X49807Y160590D01*
Y160579D01*
Y160573D01*
Y160571D01*
X49809Y160537D01*
X49812Y160504D01*
X49829Y160438D01*
X49854Y160374D01*
X49881Y160316D01*
X49909Y160266D01*
X49920Y160246D01*
X49934Y160227D01*
X49942Y160213D01*
X49951Y160202D01*
X49953Y160197D01*
X49956Y160194D01*
X49987Y160155D01*
X50023Y160114D01*
X50064Y160069D01*
X50108Y160025D01*
X50200Y159933D01*
X50294Y159847D01*
X50338Y159806D01*
X50383Y159770D01*
X50422Y159737D01*
X50455Y159709D01*
X50482Y159684D01*
X50502Y159668D01*
X50516Y159654D01*
X50521Y159651D01*
X50571Y159609D01*
X50615Y159571D01*
X50660Y159535D01*
X50699Y159499D01*
X50737Y159465D01*
X50770Y159432D01*
X50801Y159404D01*
X50829Y159377D01*
X50854Y159352D01*
X50873Y159329D01*
X50892Y159310D01*
X50906Y159296D01*
X50920Y159283D01*
X50928Y159274D01*
X50931Y159269D01*
X50934Y159266D01*
X50984Y159205D01*
X51025Y159144D01*
X51061Y159086D01*
X51089Y159033D01*
X51111Y158989D01*
X51120Y158969D01*
X51128Y158956D01*
X51133Y158942D01*
X51136Y158933D01*
X51139Y158928D01*
Y158925D01*
X51153Y158886D01*
X51161Y158848D01*
X51169Y158812D01*
X51172Y158778D01*
X51175Y158751D01*
Y158729D01*
Y158715D01*
Y158709D01*
X49483D01*
Y159011D01*
X50743D01*
X50699Y159072D01*
X50676Y159100D01*
X50654Y159125D01*
X50635Y159147D01*
X50621Y159163D01*
X50610Y159174D01*
X50607Y159177D01*
X50590Y159194D01*
X50568Y159216D01*
X50543Y159238D01*
X50516Y159263D01*
X50458Y159318D01*
X50397Y159371D01*
X50338Y159421D01*
X50314Y159443D01*
X50288Y159462D01*
X50272Y159479D01*
X50255Y159490D01*
X50247Y159499D01*
X50244Y159501D01*
X50183Y159554D01*
X50125Y159604D01*
X50072Y159648D01*
X50025Y159692D01*
X49981Y159731D01*
X49942Y159770D01*
X49906Y159803D01*
X49873Y159834D01*
X49845Y159859D01*
X49823Y159883D01*
X49804Y159903D01*
X49787Y159920D01*
X49776Y159933D01*
X49765Y159942D01*
X49762Y159947D01*
X49760Y159950D01*
X49707Y160011D01*
X49665Y160066D01*
X49629Y160119D01*
X49599Y160166D01*
X49577Y160205D01*
X49560Y160235D01*
X49554Y160246D01*
X49552Y160255D01*
X49549Y160257D01*
Y160260D01*
X49527Y160316D01*
X49513Y160371D01*
X49502Y160421D01*
X49494Y160468D01*
X49488Y160507D01*
X49485Y160537D01*
Y160548D01*
Y160557D01*
Y160559D01*
Y160562D01*
X49488Y160618D01*
X49494Y160670D01*
X49505Y160720D01*
X49518Y160770D01*
X49535Y160814D01*
X49554Y160856D01*
X49574Y160895D01*
X49593Y160928D01*
X49613Y160961D01*
X49632Y160989D01*
X49651Y161014D01*
X49668Y161033D01*
X49682Y161047D01*
X49693Y161061D01*
X49698Y161066D01*
X49701Y161069D01*
X49743Y161105D01*
X49787Y161136D01*
X49834Y161163D01*
X49884Y161188D01*
X49931Y161208D01*
X49981Y161224D01*
X50028Y161238D01*
X50075Y161249D01*
X50117Y161258D01*
X50158Y161263D01*
X50194Y161269D01*
X50225Y161271D01*
X50250Y161274D01*
X50286D01*
X50352Y161271D01*
D02*
G37*
G36*
X56513Y158709D02*
X56161D01*
X55624Y160656D01*
X55610Y160704D01*
X55596Y160753D01*
X55582Y160806D01*
X55571Y160853D01*
X55560Y160892D01*
X55557Y160911D01*
X55554Y160925D01*
X55549Y160939D01*
Y160947D01*
X55546Y160953D01*
Y160956D01*
X55543Y160944D01*
X55538Y160928D01*
X55532Y160908D01*
X55527Y160886D01*
X55513Y160836D01*
X55499Y160787D01*
X55485Y160737D01*
X55480Y160715D01*
X55474Y160695D01*
X55468Y160679D01*
X55466Y160668D01*
X55463Y160659D01*
Y160656D01*
X54928Y158709D01*
X54599D01*
X53898Y161266D01*
X54239D01*
X54640Y159620D01*
X54668Y159507D01*
X54693Y159402D01*
X54704Y159354D01*
X54715Y159307D01*
X54723Y159266D01*
X54732Y159227D01*
X54740Y159191D01*
X54748Y159161D01*
X54754Y159133D01*
X54759Y159108D01*
X54762Y159091D01*
X54765Y159078D01*
X54768Y159069D01*
Y159066D01*
X54795Y159227D01*
X54826Y159385D01*
X54842Y159462D01*
X54859Y159537D01*
X54876Y159609D01*
X54892Y159676D01*
X54909Y159739D01*
X54923Y159795D01*
X54937Y159845D01*
X54948Y159886D01*
X54956Y159922D01*
X54964Y159947D01*
X54967Y159964D01*
X54970Y159969D01*
X55333Y161266D01*
X55740D01*
X56227Y159537D01*
X56233Y159521D01*
X56239Y159499D01*
X56244Y159471D01*
X56252Y159438D01*
X56263Y159399D01*
X56272Y159360D01*
X56294Y159277D01*
X56302Y159238D01*
X56313Y159199D01*
X56322Y159163D01*
X56327Y159130D01*
X56336Y159105D01*
X56338Y159083D01*
X56344Y159072D01*
Y159066D01*
X56360Y159163D01*
X56380Y159257D01*
X56396Y159343D01*
X56405Y159385D01*
X56413Y159424D01*
X56421Y159460D01*
X56430Y159490D01*
X56435Y159518D01*
X56441Y159543D01*
X56446Y159562D01*
X56449Y159576D01*
X56452Y159584D01*
Y159587D01*
X56837Y161266D01*
X57186D01*
X56513Y158709D01*
D02*
G37*
G36*
X62859Y161307D02*
X62920Y161305D01*
X63033Y161285D01*
X63089Y161274D01*
X63139Y161260D01*
X63188Y161246D01*
X63233Y161232D01*
X63271Y161219D01*
X63308Y161205D01*
X63341Y161191D01*
X63366Y161180D01*
X63388Y161169D01*
X63402Y161161D01*
X63413Y161158D01*
X63416Y161155D01*
X63465Y161125D01*
X63515Y161091D01*
X63560Y161055D01*
X63601Y161019D01*
X63640Y160980D01*
X63676Y160944D01*
X63706Y160906D01*
X63737Y160872D01*
X63762Y160836D01*
X63784Y160806D01*
X63803Y160778D01*
X63820Y160753D01*
X63831Y160731D01*
X63839Y160717D01*
X63845Y160706D01*
X63848Y160704D01*
X63875Y160648D01*
X63898Y160587D01*
X63917Y160529D01*
X63936Y160471D01*
X63964Y160352D01*
X63972Y160296D01*
X63981Y160244D01*
X63986Y160194D01*
X63992Y160150D01*
X63994Y160108D01*
X63997Y160072D01*
X64000Y160044D01*
Y160022D01*
Y160011D01*
Y160005D01*
X63997Y159939D01*
X63994Y159872D01*
X63978Y159745D01*
X63970Y159684D01*
X63959Y159629D01*
X63945Y159576D01*
X63934Y159526D01*
X63920Y159482D01*
X63909Y159440D01*
X63898Y159407D01*
X63886Y159377D01*
X63878Y159354D01*
X63873Y159335D01*
X63870Y159324D01*
X63867Y159321D01*
X63839Y159263D01*
X63812Y159208D01*
X63781Y159158D01*
X63748Y159111D01*
X63715Y159066D01*
X63684Y159028D01*
X63651Y158992D01*
X63621Y158958D01*
X63590Y158928D01*
X63562Y158903D01*
X63538Y158884D01*
X63515Y158864D01*
X63499Y158850D01*
X63485Y158842D01*
X63477Y158836D01*
X63474Y158834D01*
X63424Y158803D01*
X63371Y158778D01*
X63316Y158756D01*
X63258Y158737D01*
X63202Y158723D01*
X63147Y158709D01*
X63091Y158698D01*
X63039Y158690D01*
X62989Y158681D01*
X62945Y158676D01*
X62903Y158673D01*
X62870Y158670D01*
X62839Y158668D01*
X62801D01*
X62726Y158670D01*
X62657Y158676D01*
X62590Y158687D01*
X62526Y158701D01*
X62466Y158717D01*
X62410Y158737D01*
X62360Y158756D01*
X62313Y158775D01*
X62269Y158795D01*
X62233Y158814D01*
X62199Y158834D01*
X62175Y158850D01*
X62152Y158864D01*
X62139Y158875D01*
X62128Y158881D01*
X62125Y158884D01*
X62075Y158928D01*
X62028Y158975D01*
X61986Y159025D01*
X61948Y159075D01*
X61911Y159127D01*
X61881Y159183D01*
X61853Y159233D01*
X61828Y159285D01*
X61806Y159332D01*
X61790Y159377D01*
X61773Y159418D01*
X61762Y159451D01*
X61751Y159482D01*
X61745Y159501D01*
X61740Y159515D01*
Y159521D01*
X62078Y159607D01*
X62091Y159548D01*
X62111Y159493D01*
X62130Y159440D01*
X62150Y159393D01*
X62172Y159349D01*
X62194Y159310D01*
X62216Y159274D01*
X62238Y159241D01*
X62261Y159213D01*
X62280Y159188D01*
X62299Y159166D01*
X62313Y159150D01*
X62327Y159136D01*
X62338Y159127D01*
X62344Y159122D01*
X62346Y159119D01*
X62385Y159091D01*
X62424Y159066D01*
X62463Y159044D01*
X62504Y159025D01*
X62546Y159008D01*
X62585Y158994D01*
X62662Y158975D01*
X62695Y158969D01*
X62729Y158964D01*
X62756Y158961D01*
X62781Y158958D01*
X62801Y158956D01*
X62828D01*
X62873Y158958D01*
X62914Y158961D01*
X62994Y158975D01*
X63069Y158994D01*
X63133Y159017D01*
X63161Y159028D01*
X63186Y159036D01*
X63208Y159047D01*
X63227Y159055D01*
X63244Y159064D01*
X63255Y159069D01*
X63261Y159075D01*
X63263D01*
X63299Y159100D01*
X63332Y159125D01*
X63393Y159183D01*
X63443Y159241D01*
X63485Y159302D01*
X63515Y159354D01*
X63529Y159377D01*
X63540Y159399D01*
X63546Y159415D01*
X63551Y159426D01*
X63557Y159435D01*
Y159438D01*
X63587Y159532D01*
X63612Y159629D01*
X63629Y159726D01*
X63634Y159770D01*
X63640Y159814D01*
X63643Y159856D01*
X63645Y159892D01*
X63648Y159925D01*
Y159953D01*
X63651Y159978D01*
Y159994D01*
Y160005D01*
Y160008D01*
X63648Y160102D01*
X63640Y160191D01*
X63626Y160274D01*
X63621Y160313D01*
X63612Y160349D01*
X63604Y160379D01*
X63598Y160410D01*
X63590Y160435D01*
X63585Y160457D01*
X63582Y160474D01*
X63576Y160487D01*
X63573Y160496D01*
Y160498D01*
X63538Y160584D01*
X63496Y160659D01*
X63452Y160723D01*
X63427Y160751D01*
X63405Y160778D01*
X63382Y160800D01*
X63363Y160820D01*
X63344Y160839D01*
X63330Y160853D01*
X63316Y160864D01*
X63305Y160872D01*
X63299Y160875D01*
X63297Y160878D01*
X63258Y160903D01*
X63219Y160925D01*
X63177Y160944D01*
X63136Y160961D01*
X63053Y160986D01*
X62972Y161005D01*
X62939Y161011D01*
X62906Y161014D01*
X62875Y161016D01*
X62850Y161019D01*
X62828Y161022D01*
X62753D01*
X62709Y161016D01*
X62626Y161003D01*
X62554Y160980D01*
X62524Y160969D01*
X62493Y160958D01*
X62466Y160947D01*
X62443Y160936D01*
X62424Y160925D01*
X62407Y160914D01*
X62393Y160906D01*
X62385Y160900D01*
X62380Y160897D01*
X62377Y160895D01*
X62346Y160870D01*
X62316Y160842D01*
X62266Y160778D01*
X62219Y160709D01*
X62183Y160643D01*
X62155Y160582D01*
X62141Y160557D01*
X62133Y160535D01*
X62125Y160515D01*
X62122Y160498D01*
X62116Y160490D01*
Y160487D01*
X61784Y160565D01*
X61806Y160629D01*
X61831Y160690D01*
X61856Y160748D01*
X61887Y160800D01*
X61914Y160850D01*
X61945Y160895D01*
X61975Y160936D01*
X62006Y160972D01*
X62036Y161005D01*
X62061Y161033D01*
X62086Y161058D01*
X62108Y161077D01*
X62125Y161094D01*
X62139Y161105D01*
X62147Y161111D01*
X62150Y161113D01*
X62199Y161149D01*
X62252Y161177D01*
X62305Y161205D01*
X62360Y161227D01*
X62416Y161246D01*
X62468Y161263D01*
X62521Y161274D01*
X62571Y161285D01*
X62618Y161293D01*
X62659Y161299D01*
X62698Y161305D01*
X62731Y161307D01*
X62759Y161310D01*
X62795D01*
X62859Y161307D01*
D02*
G37*
G36*
X59338Y158709D02*
X59000D01*
Y159748D01*
X58346D01*
X58247Y159751D01*
X58158Y159759D01*
X58075Y159770D01*
X57998Y159784D01*
X57931Y159801D01*
X57867Y159820D01*
X57815Y159839D01*
X57765Y159861D01*
X57723Y159881D01*
X57687Y159900D01*
X57657Y159920D01*
X57635Y159936D01*
X57615Y159953D01*
X57604Y159964D01*
X57596Y159969D01*
X57593Y159972D01*
X57557Y160017D01*
X57524Y160061D01*
X57496Y160108D01*
X57474Y160155D01*
X57452Y160202D01*
X57435Y160246D01*
X57421Y160291D01*
X57410Y160332D01*
X57402Y160374D01*
X57396Y160410D01*
X57391Y160440D01*
X57388Y160468D01*
X57385Y160493D01*
Y160510D01*
Y160521D01*
Y160523D01*
X57388Y160593D01*
X57396Y160659D01*
X57410Y160717D01*
X57424Y160770D01*
X57441Y160811D01*
X57446Y160831D01*
X57452Y160845D01*
X57457Y160856D01*
X57463Y160864D01*
X57466Y160870D01*
Y160872D01*
X57496Y160931D01*
X57529Y160978D01*
X57565Y161022D01*
X57596Y161055D01*
X57626Y161083D01*
X57648Y161102D01*
X57665Y161116D01*
X57668Y161119D01*
X57671D01*
X57721Y161149D01*
X57773Y161174D01*
X57826Y161196D01*
X57876Y161213D01*
X57920Y161227D01*
X57939Y161230D01*
X57956Y161235D01*
X57967Y161238D01*
X57978D01*
X57984Y161241D01*
X57986D01*
X58011Y161246D01*
X58042Y161249D01*
X58103Y161255D01*
X58166Y161260D01*
X58230Y161263D01*
X58285Y161266D01*
X59338D01*
Y158709D01*
D02*
G37*
G36*
X53579D02*
X53241D01*
Y159845D01*
X52807D01*
X52768Y159842D01*
X52735Y159839D01*
X52707D01*
X52687Y159836D01*
X52674Y159834D01*
X52665Y159831D01*
X52662D01*
X52632Y159823D01*
X52604Y159811D01*
X52579Y159801D01*
X52554Y159789D01*
X52535Y159778D01*
X52521Y159770D01*
X52510Y159764D01*
X52507Y159762D01*
X52480Y159742D01*
X52449Y159715D01*
X52419Y159687D01*
X52394Y159659D01*
X52369Y159634D01*
X52352Y159612D01*
X52341Y159598D01*
X52336Y159596D01*
Y159593D01*
X52297Y159543D01*
X52255Y159487D01*
X52217Y159429D01*
X52178Y159371D01*
X52144Y159321D01*
X52128Y159299D01*
X52117Y159280D01*
X52106Y159263D01*
X52097Y159252D01*
X52095Y159244D01*
X52092Y159241D01*
X51754Y158709D01*
X51330D01*
X51773Y159404D01*
X51823Y159476D01*
X51873Y159543D01*
X51920Y159601D01*
X51962Y159651D01*
X51998Y159690D01*
X52014Y159706D01*
X52028Y159720D01*
X52039Y159731D01*
X52047Y159739D01*
X52050Y159742D01*
X52053Y159745D01*
X52081Y159767D01*
X52114Y159792D01*
X52147Y159811D01*
X52180Y159831D01*
X52211Y159847D01*
X52236Y159861D01*
X52253Y159870D01*
X52255Y159872D01*
X52258D01*
X52192Y159883D01*
X52128Y159897D01*
X52070Y159914D01*
X52017Y159931D01*
X51967Y159950D01*
X51923Y159969D01*
X51884Y159989D01*
X51848Y160008D01*
X51815Y160028D01*
X51787Y160047D01*
X51765Y160064D01*
X51746Y160077D01*
X51732Y160091D01*
X51721Y160100D01*
X51715Y160105D01*
X51712Y160108D01*
X51682Y160144D01*
X51654Y160180D01*
X51629Y160219D01*
X51610Y160257D01*
X51593Y160296D01*
X51579Y160335D01*
X51557Y160407D01*
X51549Y160440D01*
X51543Y160471D01*
X51541Y160498D01*
X51538Y160523D01*
X51535Y160540D01*
Y160557D01*
Y160565D01*
Y160568D01*
X51541Y160645D01*
X51552Y160717D01*
X51568Y160781D01*
X51588Y160839D01*
X51599Y160864D01*
X51610Y160886D01*
X51618Y160906D01*
X51626Y160922D01*
X51632Y160936D01*
X51638Y160944D01*
X51643Y160950D01*
Y160953D01*
X51685Y161014D01*
X51732Y161064D01*
X51779Y161108D01*
X51826Y161141D01*
X51865Y161166D01*
X51898Y161183D01*
X51912Y161188D01*
X51920Y161194D01*
X51926Y161196D01*
X51928D01*
X51964Y161208D01*
X52000Y161219D01*
X52083Y161235D01*
X52169Y161249D01*
X52253Y161258D01*
X52294Y161260D01*
X52330Y161263D01*
X52360D01*
X52391Y161266D01*
X53579D01*
Y158709D01*
D02*
G37*
G36*
X61654Y158000D02*
X59574D01*
Y158227D01*
X61654D01*
Y158000D01*
D02*
G37*
G36*
X134388Y74271D02*
X134441Y74266D01*
X134491Y74257D01*
X134541Y74246D01*
X134585Y74233D01*
X134626Y74219D01*
X134665Y74202D01*
X134698Y74188D01*
X134732Y74172D01*
X134759Y74155D01*
X134782Y74141D01*
X134804Y74127D01*
X134818Y74116D01*
X134832Y74108D01*
X134837Y74102D01*
X134840Y74100D01*
X134876Y74066D01*
X134909Y74028D01*
X134940Y73989D01*
X134967Y73950D01*
X134992Y73909D01*
X135011Y73870D01*
X135047Y73789D01*
X135061Y73753D01*
X135073Y73720D01*
X135081Y73690D01*
X135089Y73665D01*
X135095Y73642D01*
X135097Y73626D01*
X135100Y73615D01*
Y73612D01*
X134787Y73557D01*
X134771Y73637D01*
X134748Y73706D01*
X134723Y73767D01*
X134696Y73814D01*
X134674Y73853D01*
X134651Y73878D01*
X134638Y73895D01*
X134632Y73900D01*
X134582Y73939D01*
X134532Y73967D01*
X134480Y73989D01*
X134433Y74003D01*
X134388Y74011D01*
X134372Y74014D01*
X134355D01*
X134341Y74016D01*
X134325D01*
X134258Y74011D01*
X134200Y74000D01*
X134147Y73980D01*
X134103Y73961D01*
X134070Y73939D01*
X134045Y73919D01*
X134028Y73909D01*
X134023Y73903D01*
X134001Y73881D01*
X133984Y73859D01*
X133953Y73809D01*
X133931Y73762D01*
X133917Y73717D01*
X133909Y73676D01*
X133906Y73645D01*
X133904Y73631D01*
Y73623D01*
Y73618D01*
Y73615D01*
X133906Y73576D01*
X133912Y73540D01*
X133917Y73504D01*
X133928Y73474D01*
X133956Y73418D01*
X133984Y73374D01*
X134014Y73338D01*
X134042Y73313D01*
X134053Y73305D01*
X134059Y73299D01*
X134064Y73294D01*
X134067D01*
X134128Y73257D01*
X134192Y73233D01*
X134253Y73213D01*
X134308Y73202D01*
X134355Y73194D01*
X134374Y73191D01*
X134394D01*
X134408Y73188D01*
X134444D01*
X134460Y73191D01*
X134474Y73194D01*
X134480D01*
X134513Y72920D01*
X134466Y72931D01*
X134422Y72939D01*
X134386Y72944D01*
X134352Y72950D01*
X134327D01*
X134308Y72953D01*
X134291D01*
X134253Y72950D01*
X134214Y72947D01*
X134144Y72931D01*
X134084Y72909D01*
X134031Y72884D01*
X133989Y72856D01*
X133973Y72845D01*
X133959Y72834D01*
X133948Y72825D01*
X133940Y72817D01*
X133937Y72814D01*
X133934Y72812D01*
X133909Y72784D01*
X133887Y72756D01*
X133868Y72728D01*
X133851Y72698D01*
X133826Y72640D01*
X133807Y72582D01*
X133798Y72532D01*
X133795Y72512D01*
X133793Y72493D01*
X133790Y72479D01*
Y72465D01*
Y72460D01*
Y72457D01*
X133793Y72415D01*
X133795Y72377D01*
X133815Y72302D01*
X133837Y72238D01*
X133865Y72183D01*
X133881Y72158D01*
X133895Y72138D01*
X133906Y72119D01*
X133917Y72105D01*
X133928Y72094D01*
X133937Y72086D01*
X133940Y72080D01*
X133942Y72078D01*
X133973Y72050D01*
X134003Y72028D01*
X134034Y72008D01*
X134064Y71989D01*
X134128Y71961D01*
X134189Y71944D01*
X134239Y71933D01*
X134264Y71931D01*
X134280Y71928D01*
X134297Y71925D01*
X134319D01*
X134386Y71931D01*
X134449Y71944D01*
X134502Y71961D01*
X134549Y71983D01*
X134588Y72005D01*
X134615Y72022D01*
X134624Y72030D01*
X134632Y72036D01*
X134635Y72041D01*
X134638D01*
X134660Y72066D01*
X134682Y72091D01*
X134721Y72149D01*
X134751Y72213D01*
X134776Y72277D01*
X134795Y72335D01*
X134801Y72360D01*
X134807Y72382D01*
X134812Y72402D01*
X134815Y72415D01*
X134818Y72424D01*
Y72426D01*
X135131Y72385D01*
X135122Y72327D01*
X135111Y72271D01*
X135095Y72219D01*
X135078Y72169D01*
X135059Y72122D01*
X135036Y72080D01*
X135014Y72039D01*
X134992Y72005D01*
X134970Y71972D01*
X134951Y71944D01*
X134931Y71920D01*
X134915Y71900D01*
X134898Y71884D01*
X134887Y71873D01*
X134881Y71867D01*
X134879Y71864D01*
X134837Y71828D01*
X134790Y71798D01*
X134746Y71773D01*
X134698Y71748D01*
X134651Y71728D01*
X134604Y71715D01*
X134560Y71701D01*
X134516Y71690D01*
X134474Y71681D01*
X134438Y71676D01*
X134405Y71670D01*
X134374Y71667D01*
X134352D01*
X134333Y71665D01*
X134319D01*
X134250Y71667D01*
X134186Y71676D01*
X134125Y71687D01*
X134067Y71701D01*
X134012Y71717D01*
X133962Y71737D01*
X133915Y71759D01*
X133873Y71781D01*
X133834Y71801D01*
X133801Y71823D01*
X133771Y71842D01*
X133748Y71859D01*
X133729Y71873D01*
X133715Y71884D01*
X133707Y71892D01*
X133704Y71895D01*
X133660Y71939D01*
X133624Y71986D01*
X133590Y72033D01*
X133563Y72083D01*
X133538Y72130D01*
X133519Y72177D01*
X133502Y72221D01*
X133488Y72266D01*
X133477Y72307D01*
X133471Y72343D01*
X133466Y72377D01*
X133460Y72407D01*
Y72429D01*
X133458Y72449D01*
Y72460D01*
Y72462D01*
Y72507D01*
X133463Y72551D01*
X133477Y72632D01*
X133499Y72701D01*
X133510Y72731D01*
X133521Y72759D01*
X133532Y72787D01*
X133543Y72809D01*
X133554Y72828D01*
X133566Y72842D01*
X133574Y72856D01*
X133579Y72864D01*
X133582Y72870D01*
X133585Y72873D01*
X133635Y72931D01*
X133693Y72978D01*
X133751Y73014D01*
X133807Y73044D01*
X133859Y73066D01*
X133881Y73075D01*
X133898Y73080D01*
X133915Y73086D01*
X133926Y73089D01*
X133934Y73091D01*
X133937D01*
X133876Y73124D01*
X133823Y73158D01*
X133776Y73194D01*
X133740Y73230D01*
X133710Y73260D01*
X133690Y73285D01*
X133676Y73302D01*
X133674Y73305D01*
Y73307D01*
X133643Y73360D01*
X133621Y73413D01*
X133604Y73462D01*
X133593Y73510D01*
X133588Y73548D01*
X133582Y73582D01*
Y73593D01*
Y73601D01*
Y73606D01*
Y73609D01*
X133585Y73673D01*
X133596Y73734D01*
X133613Y73789D01*
X133629Y73839D01*
X133646Y73881D01*
X133654Y73897D01*
X133662Y73911D01*
X133668Y73922D01*
X133674Y73933D01*
X133676Y73936D01*
Y73939D01*
X133715Y73994D01*
X133759Y74041D01*
X133804Y74083D01*
X133848Y74119D01*
X133887Y74147D01*
X133917Y74166D01*
X133931Y74174D01*
X133940Y74180D01*
X133945Y74183D01*
X133948D01*
X134014Y74213D01*
X134081Y74235D01*
X134147Y74252D01*
X134205Y74263D01*
X134258Y74269D01*
X134277Y74271D01*
X134297Y74274D01*
X134333D01*
X134388Y74271D01*
D02*
G37*
G36*
X140513Y71709D02*
X140161D01*
X139624Y73656D01*
X139610Y73703D01*
X139596Y73753D01*
X139582Y73806D01*
X139571Y73853D01*
X139560Y73892D01*
X139557Y73911D01*
X139554Y73925D01*
X139549Y73939D01*
Y73947D01*
X139546Y73953D01*
Y73956D01*
X139543Y73944D01*
X139538Y73928D01*
X139532Y73909D01*
X139527Y73886D01*
X139513Y73836D01*
X139499Y73787D01*
X139485Y73737D01*
X139479Y73715D01*
X139474Y73695D01*
X139469Y73678D01*
X139466Y73668D01*
X139463Y73659D01*
Y73656D01*
X138928Y71709D01*
X138599D01*
X137898Y74266D01*
X138239D01*
X138640Y72620D01*
X138668Y72507D01*
X138693Y72402D01*
X138704Y72355D01*
X138715Y72307D01*
X138723Y72266D01*
X138732Y72227D01*
X138740Y72191D01*
X138748Y72161D01*
X138754Y72133D01*
X138759Y72108D01*
X138762Y72091D01*
X138765Y72078D01*
X138768Y72069D01*
Y72066D01*
X138795Y72227D01*
X138826Y72385D01*
X138842Y72462D01*
X138859Y72537D01*
X138876Y72609D01*
X138892Y72676D01*
X138909Y72739D01*
X138923Y72795D01*
X138937Y72845D01*
X138948Y72886D01*
X138956Y72922D01*
X138964Y72947D01*
X138967Y72964D01*
X138970Y72969D01*
X139333Y74266D01*
X139740D01*
X140227Y72537D01*
X140233Y72521D01*
X140238Y72499D01*
X140244Y72471D01*
X140252Y72438D01*
X140263Y72399D01*
X140272Y72360D01*
X140294Y72277D01*
X140302Y72238D01*
X140313Y72199D01*
X140322Y72163D01*
X140327Y72130D01*
X140336Y72105D01*
X140338Y72083D01*
X140344Y72072D01*
Y72066D01*
X140360Y72163D01*
X140380Y72258D01*
X140396Y72343D01*
X140405Y72385D01*
X140413Y72424D01*
X140421Y72460D01*
X140430Y72490D01*
X140435Y72518D01*
X140441Y72543D01*
X140446Y72562D01*
X140449Y72576D01*
X140452Y72584D01*
Y72587D01*
X140837Y74266D01*
X141186D01*
X140513Y71709D01*
D02*
G37*
G36*
X146859Y74307D02*
X146920Y74305D01*
X147033Y74285D01*
X147089Y74274D01*
X147139Y74260D01*
X147188Y74246D01*
X147233Y74233D01*
X147272Y74219D01*
X147308Y74205D01*
X147341Y74191D01*
X147366Y74180D01*
X147388Y74169D01*
X147402Y74160D01*
X147413Y74158D01*
X147416Y74155D01*
X147465Y74124D01*
X147515Y74091D01*
X147560Y74055D01*
X147601Y74019D01*
X147640Y73980D01*
X147676Y73944D01*
X147706Y73906D01*
X147737Y73872D01*
X147762Y73836D01*
X147784Y73806D01*
X147803Y73778D01*
X147820Y73753D01*
X147831Y73731D01*
X147839Y73717D01*
X147845Y73706D01*
X147848Y73703D01*
X147875Y73648D01*
X147898Y73587D01*
X147917Y73529D01*
X147936Y73471D01*
X147964Y73352D01*
X147972Y73296D01*
X147981Y73244D01*
X147986Y73194D01*
X147992Y73150D01*
X147994Y73108D01*
X147997Y73072D01*
X148000Y73044D01*
Y73022D01*
Y73011D01*
Y73005D01*
X147997Y72939D01*
X147994Y72873D01*
X147978Y72745D01*
X147970Y72684D01*
X147959Y72629D01*
X147945Y72576D01*
X147934Y72526D01*
X147920Y72482D01*
X147909Y72440D01*
X147898Y72407D01*
X147887Y72377D01*
X147878Y72355D01*
X147873Y72335D01*
X147870Y72324D01*
X147867Y72321D01*
X147839Y72263D01*
X147812Y72208D01*
X147781Y72158D01*
X147748Y72111D01*
X147715Y72066D01*
X147684Y72028D01*
X147651Y71992D01*
X147621Y71958D01*
X147590Y71928D01*
X147562Y71903D01*
X147538Y71884D01*
X147515Y71864D01*
X147499Y71850D01*
X147485Y71842D01*
X147476Y71837D01*
X147474Y71834D01*
X147424Y71803D01*
X147371Y71778D01*
X147316Y71756D01*
X147258Y71737D01*
X147202Y71723D01*
X147147Y71709D01*
X147091Y71698D01*
X147039Y71690D01*
X146989Y71681D01*
X146945Y71676D01*
X146903Y71673D01*
X146870Y71670D01*
X146839Y71667D01*
X146801D01*
X146726Y71670D01*
X146657Y71676D01*
X146590Y71687D01*
X146526Y71701D01*
X146466Y71717D01*
X146410Y71737D01*
X146360Y71756D01*
X146313Y71776D01*
X146269Y71795D01*
X146233Y71814D01*
X146200Y71834D01*
X146175Y71850D01*
X146152Y71864D01*
X146139Y71875D01*
X146127Y71881D01*
X146125Y71884D01*
X146075Y71928D01*
X146028Y71975D01*
X145986Y72025D01*
X145948Y72075D01*
X145912Y72127D01*
X145881Y72183D01*
X145853Y72233D01*
X145828Y72285D01*
X145806Y72332D01*
X145790Y72377D01*
X145773Y72418D01*
X145762Y72451D01*
X145751Y72482D01*
X145745Y72501D01*
X145740Y72515D01*
Y72521D01*
X146078Y72607D01*
X146091Y72548D01*
X146111Y72493D01*
X146130Y72440D01*
X146150Y72393D01*
X146172Y72349D01*
X146194Y72310D01*
X146216Y72274D01*
X146238Y72241D01*
X146260Y72213D01*
X146280Y72188D01*
X146299Y72166D01*
X146313Y72149D01*
X146327Y72136D01*
X146338Y72127D01*
X146344Y72122D01*
X146346Y72119D01*
X146385Y72091D01*
X146424Y72066D01*
X146463Y72044D01*
X146504Y72025D01*
X146546Y72008D01*
X146585Y71994D01*
X146662Y71975D01*
X146695Y71969D01*
X146729Y71964D01*
X146756Y71961D01*
X146781Y71958D01*
X146801Y71956D01*
X146828D01*
X146873Y71958D01*
X146914Y71961D01*
X146994Y71975D01*
X147069Y71994D01*
X147133Y72017D01*
X147161Y72028D01*
X147186Y72036D01*
X147208Y72047D01*
X147227Y72055D01*
X147244Y72064D01*
X147255Y72069D01*
X147260Y72075D01*
X147263D01*
X147299Y72100D01*
X147333Y72125D01*
X147393Y72183D01*
X147443Y72241D01*
X147485Y72302D01*
X147515Y72355D01*
X147529Y72377D01*
X147540Y72399D01*
X147546Y72415D01*
X147551Y72426D01*
X147557Y72435D01*
Y72438D01*
X147587Y72532D01*
X147612Y72629D01*
X147629Y72726D01*
X147634Y72770D01*
X147640Y72814D01*
X147643Y72856D01*
X147645Y72892D01*
X147648Y72925D01*
Y72953D01*
X147651Y72978D01*
Y72994D01*
Y73005D01*
Y73008D01*
X147648Y73102D01*
X147640Y73191D01*
X147626Y73274D01*
X147621Y73313D01*
X147612Y73349D01*
X147604Y73379D01*
X147598Y73410D01*
X147590Y73435D01*
X147584Y73457D01*
X147582Y73474D01*
X147576Y73487D01*
X147573Y73496D01*
Y73498D01*
X147538Y73584D01*
X147496Y73659D01*
X147452Y73723D01*
X147427Y73751D01*
X147405Y73778D01*
X147382Y73800D01*
X147363Y73820D01*
X147344Y73839D01*
X147330Y73853D01*
X147316Y73864D01*
X147305Y73872D01*
X147299Y73875D01*
X147297Y73878D01*
X147258Y73903D01*
X147219Y73925D01*
X147177Y73944D01*
X147136Y73961D01*
X147053Y73986D01*
X146972Y74005D01*
X146939Y74011D01*
X146906Y74014D01*
X146875Y74016D01*
X146851Y74019D01*
X146828Y74022D01*
X146754D01*
X146709Y74016D01*
X146626Y74003D01*
X146554Y73980D01*
X146524Y73969D01*
X146493Y73958D01*
X146466Y73947D01*
X146443Y73936D01*
X146424Y73925D01*
X146407Y73914D01*
X146394Y73906D01*
X146385Y73900D01*
X146380Y73897D01*
X146377Y73895D01*
X146346Y73870D01*
X146316Y73842D01*
X146266Y73778D01*
X146219Y73709D01*
X146183Y73642D01*
X146155Y73582D01*
X146141Y73557D01*
X146133Y73535D01*
X146125Y73515D01*
X146122Y73498D01*
X146116Y73490D01*
Y73487D01*
X145784Y73565D01*
X145806Y73629D01*
X145831Y73690D01*
X145856Y73748D01*
X145887Y73800D01*
X145914Y73850D01*
X145945Y73895D01*
X145975Y73936D01*
X146006Y73972D01*
X146036Y74005D01*
X146061Y74033D01*
X146086Y74058D01*
X146108Y74077D01*
X146125Y74094D01*
X146139Y74105D01*
X146147Y74111D01*
X146150Y74113D01*
X146200Y74149D01*
X146252Y74177D01*
X146305Y74205D01*
X146360Y74227D01*
X146416Y74246D01*
X146468Y74263D01*
X146521Y74274D01*
X146571Y74285D01*
X146618Y74294D01*
X146659Y74299D01*
X146698Y74305D01*
X146731Y74307D01*
X146759Y74310D01*
X146795D01*
X146859Y74307D01*
D02*
G37*
G36*
X143338Y71709D02*
X143000D01*
Y72748D01*
X142347D01*
X142247Y72751D01*
X142158Y72759D01*
X142075Y72770D01*
X141998Y72784D01*
X141931Y72800D01*
X141867Y72820D01*
X141815Y72839D01*
X141765Y72861D01*
X141723Y72881D01*
X141687Y72900D01*
X141657Y72920D01*
X141635Y72936D01*
X141615Y72953D01*
X141604Y72964D01*
X141596Y72969D01*
X141593Y72972D01*
X141557Y73017D01*
X141524Y73061D01*
X141496Y73108D01*
X141474Y73155D01*
X141452Y73202D01*
X141435Y73246D01*
X141421Y73291D01*
X141410Y73332D01*
X141402Y73374D01*
X141396Y73410D01*
X141391Y73440D01*
X141388Y73468D01*
X141385Y73493D01*
Y73510D01*
Y73521D01*
Y73523D01*
X141388Y73593D01*
X141396Y73659D01*
X141410Y73717D01*
X141424Y73770D01*
X141441Y73812D01*
X141446Y73831D01*
X141452Y73845D01*
X141457Y73856D01*
X141463Y73864D01*
X141466Y73870D01*
Y73872D01*
X141496Y73931D01*
X141529Y73978D01*
X141565Y74022D01*
X141596Y74055D01*
X141626Y74083D01*
X141648Y74102D01*
X141665Y74116D01*
X141668Y74119D01*
X141671D01*
X141720Y74149D01*
X141773Y74174D01*
X141826Y74196D01*
X141876Y74213D01*
X141920Y74227D01*
X141939Y74230D01*
X141956Y74235D01*
X141967Y74238D01*
X141978D01*
X141984Y74241D01*
X141986D01*
X142011Y74246D01*
X142042Y74249D01*
X142103Y74255D01*
X142166Y74260D01*
X142230Y74263D01*
X142286Y74266D01*
X143338D01*
Y71709D01*
D02*
G37*
G36*
X137579D02*
X137241D01*
Y72845D01*
X136806D01*
X136768Y72842D01*
X136734Y72839D01*
X136707D01*
X136687Y72837D01*
X136673Y72834D01*
X136665Y72831D01*
X136662D01*
X136632Y72823D01*
X136604Y72812D01*
X136579Y72800D01*
X136554Y72789D01*
X136535Y72778D01*
X136521Y72770D01*
X136510Y72764D01*
X136507Y72762D01*
X136480Y72742D01*
X136449Y72715D01*
X136419Y72687D01*
X136394Y72659D01*
X136369Y72634D01*
X136352Y72612D01*
X136341Y72598D01*
X136336Y72596D01*
Y72593D01*
X136297Y72543D01*
X136255Y72487D01*
X136216Y72429D01*
X136178Y72371D01*
X136144Y72321D01*
X136128Y72299D01*
X136117Y72280D01*
X136106Y72263D01*
X136097Y72252D01*
X136095Y72244D01*
X136092Y72241D01*
X135754Y71709D01*
X135330D01*
X135773Y72404D01*
X135823Y72476D01*
X135873Y72543D01*
X135920Y72601D01*
X135962Y72651D01*
X135998Y72690D01*
X136014Y72706D01*
X136028Y72720D01*
X136039Y72731D01*
X136047Y72739D01*
X136050Y72742D01*
X136053Y72745D01*
X136081Y72767D01*
X136114Y72792D01*
X136147Y72812D01*
X136180Y72831D01*
X136211Y72847D01*
X136236Y72861D01*
X136252Y72870D01*
X136255Y72873D01*
X136258D01*
X136191Y72884D01*
X136128Y72897D01*
X136070Y72914D01*
X136017Y72931D01*
X135967Y72950D01*
X135923Y72969D01*
X135884Y72989D01*
X135848Y73008D01*
X135815Y73028D01*
X135787Y73047D01*
X135765Y73064D01*
X135746Y73077D01*
X135732Y73091D01*
X135721Y73100D01*
X135715Y73105D01*
X135712Y73108D01*
X135682Y73144D01*
X135654Y73180D01*
X135629Y73219D01*
X135610Y73257D01*
X135593Y73296D01*
X135579Y73335D01*
X135557Y73407D01*
X135549Y73440D01*
X135543Y73471D01*
X135541Y73498D01*
X135538Y73523D01*
X135535Y73540D01*
Y73557D01*
Y73565D01*
Y73568D01*
X135541Y73645D01*
X135552Y73717D01*
X135568Y73781D01*
X135588Y73839D01*
X135599Y73864D01*
X135610Y73886D01*
X135618Y73906D01*
X135626Y73922D01*
X135632Y73936D01*
X135637Y73944D01*
X135643Y73950D01*
Y73953D01*
X135685Y74014D01*
X135732Y74064D01*
X135779Y74108D01*
X135826Y74141D01*
X135865Y74166D01*
X135898Y74183D01*
X135912Y74188D01*
X135920Y74194D01*
X135926Y74196D01*
X135928D01*
X135964Y74208D01*
X136000Y74219D01*
X136083Y74235D01*
X136169Y74249D01*
X136252Y74257D01*
X136294Y74260D01*
X136330Y74263D01*
X136361D01*
X136391Y74266D01*
X137579D01*
Y71709D01*
D02*
G37*
G36*
X145654Y71000D02*
X143574D01*
Y71227D01*
X145654D01*
Y71000D01*
D02*
G37*
G36*
X50189Y176710D02*
X50230Y176649D01*
X50278Y176591D01*
X50325Y176541D01*
X50366Y176494D01*
X50385Y176478D01*
X50399Y176461D01*
X50413Y176447D01*
X50424Y176439D01*
X50430Y176433D01*
X50433Y176431D01*
X50507Y176367D01*
X50588Y176312D01*
X50665Y176259D01*
X50737Y176215D01*
X50768Y176198D01*
X50798Y176181D01*
X50826Y176165D01*
X50848Y176154D01*
X50867Y176145D01*
X50881Y176137D01*
X50890Y176134D01*
X50892Y176131D01*
Y175830D01*
X50837Y175852D01*
X50779Y175877D01*
X50723Y175904D01*
X50674Y175929D01*
X50629Y175954D01*
X50610Y175962D01*
X50593Y175974D01*
X50579Y175979D01*
X50571Y175985D01*
X50566Y175990D01*
X50563D01*
X50496Y176032D01*
X50438Y176070D01*
X50385Y176107D01*
X50344Y176140D01*
X50308Y176168D01*
X50283Y176187D01*
X50269Y176201D01*
X50264Y176206D01*
Y174209D01*
X49951D01*
Y176774D01*
X50153D01*
X50189Y176710D01*
D02*
G37*
G36*
X56513Y174209D02*
X56161D01*
X55624Y176156D01*
X55610Y176204D01*
X55596Y176253D01*
X55582Y176306D01*
X55571Y176353D01*
X55560Y176392D01*
X55557Y176411D01*
X55554Y176425D01*
X55549Y176439D01*
Y176447D01*
X55546Y176453D01*
Y176455D01*
X55543Y176444D01*
X55538Y176428D01*
X55532Y176408D01*
X55527Y176386D01*
X55513Y176336D01*
X55499Y176287D01*
X55485Y176237D01*
X55480Y176215D01*
X55474Y176195D01*
X55468Y176179D01*
X55466Y176168D01*
X55463Y176159D01*
Y176156D01*
X54928Y174209D01*
X54599D01*
X53898Y176766D01*
X54239D01*
X54640Y175120D01*
X54668Y175007D01*
X54693Y174902D01*
X54704Y174855D01*
X54715Y174807D01*
X54723Y174766D01*
X54732Y174727D01*
X54740Y174691D01*
X54748Y174661D01*
X54754Y174633D01*
X54759Y174608D01*
X54762Y174591D01*
X54765Y174577D01*
X54768Y174569D01*
Y174566D01*
X54795Y174727D01*
X54826Y174885D01*
X54842Y174962D01*
X54859Y175037D01*
X54876Y175109D01*
X54892Y175176D01*
X54909Y175240D01*
X54923Y175295D01*
X54937Y175345D01*
X54948Y175386D01*
X54956Y175422D01*
X54964Y175447D01*
X54967Y175464D01*
X54970Y175469D01*
X55333Y176766D01*
X55740D01*
X56227Y175037D01*
X56233Y175021D01*
X56239Y174998D01*
X56244Y174971D01*
X56252Y174938D01*
X56263Y174899D01*
X56272Y174860D01*
X56294Y174777D01*
X56302Y174738D01*
X56313Y174699D01*
X56322Y174663D01*
X56327Y174630D01*
X56336Y174605D01*
X56338Y174583D01*
X56344Y174572D01*
Y174566D01*
X56360Y174663D01*
X56380Y174758D01*
X56396Y174843D01*
X56405Y174885D01*
X56413Y174924D01*
X56421Y174960D01*
X56430Y174990D01*
X56435Y175018D01*
X56441Y175043D01*
X56446Y175062D01*
X56449Y175076D01*
X56452Y175084D01*
Y175087D01*
X56837Y176766D01*
X57186D01*
X56513Y174209D01*
D02*
G37*
G36*
X62859Y176807D02*
X62920Y176805D01*
X63033Y176785D01*
X63089Y176774D01*
X63139Y176760D01*
X63188Y176746D01*
X63233Y176733D01*
X63271Y176719D01*
X63308Y176705D01*
X63341Y176691D01*
X63366Y176680D01*
X63388Y176669D01*
X63402Y176661D01*
X63413Y176658D01*
X63416Y176655D01*
X63465Y176625D01*
X63515Y176591D01*
X63560Y176555D01*
X63601Y176519D01*
X63640Y176480D01*
X63676Y176444D01*
X63706Y176406D01*
X63737Y176372D01*
X63762Y176336D01*
X63784Y176306D01*
X63803Y176278D01*
X63820Y176253D01*
X63831Y176231D01*
X63839Y176217D01*
X63845Y176206D01*
X63848Y176204D01*
X63875Y176148D01*
X63898Y176087D01*
X63917Y176029D01*
X63936Y175971D01*
X63964Y175852D01*
X63972Y175796D01*
X63981Y175744D01*
X63986Y175694D01*
X63992Y175649D01*
X63994Y175608D01*
X63997Y175572D01*
X64000Y175544D01*
Y175522D01*
Y175511D01*
Y175505D01*
X63997Y175439D01*
X63994Y175373D01*
X63978Y175245D01*
X63970Y175184D01*
X63959Y175129D01*
X63945Y175076D01*
X63934Y175026D01*
X63920Y174982D01*
X63909Y174940D01*
X63898Y174907D01*
X63886Y174877D01*
X63878Y174855D01*
X63873Y174835D01*
X63870Y174824D01*
X63867Y174821D01*
X63839Y174763D01*
X63812Y174708D01*
X63781Y174658D01*
X63748Y174611D01*
X63715Y174566D01*
X63684Y174528D01*
X63651Y174492D01*
X63621Y174458D01*
X63590Y174428D01*
X63562Y174403D01*
X63538Y174384D01*
X63515Y174364D01*
X63499Y174350D01*
X63485Y174342D01*
X63477Y174337D01*
X63474Y174334D01*
X63424Y174303D01*
X63371Y174278D01*
X63316Y174256D01*
X63258Y174237D01*
X63202Y174223D01*
X63147Y174209D01*
X63091Y174198D01*
X63039Y174190D01*
X62989Y174181D01*
X62945Y174176D01*
X62903Y174173D01*
X62870Y174170D01*
X62839Y174168D01*
X62801D01*
X62726Y174170D01*
X62657Y174176D01*
X62590Y174187D01*
X62526Y174201D01*
X62466Y174217D01*
X62410Y174237D01*
X62360Y174256D01*
X62313Y174276D01*
X62269Y174295D01*
X62233Y174314D01*
X62199Y174334D01*
X62175Y174350D01*
X62152Y174364D01*
X62139Y174375D01*
X62128Y174381D01*
X62125Y174384D01*
X62075Y174428D01*
X62028Y174475D01*
X61986Y174525D01*
X61948Y174575D01*
X61911Y174627D01*
X61881Y174683D01*
X61853Y174733D01*
X61828Y174785D01*
X61806Y174832D01*
X61790Y174877D01*
X61773Y174918D01*
X61762Y174951D01*
X61751Y174982D01*
X61745Y175001D01*
X61740Y175015D01*
Y175021D01*
X62078Y175107D01*
X62091Y175048D01*
X62111Y174993D01*
X62130Y174940D01*
X62150Y174893D01*
X62172Y174849D01*
X62194Y174810D01*
X62216Y174774D01*
X62238Y174741D01*
X62261Y174713D01*
X62280Y174688D01*
X62299Y174666D01*
X62313Y174650D01*
X62327Y174636D01*
X62338Y174627D01*
X62344Y174622D01*
X62346Y174619D01*
X62385Y174591D01*
X62424Y174566D01*
X62463Y174544D01*
X62504Y174525D01*
X62546Y174508D01*
X62585Y174494D01*
X62662Y174475D01*
X62695Y174469D01*
X62729Y174464D01*
X62756Y174461D01*
X62781Y174458D01*
X62801Y174456D01*
X62828D01*
X62873Y174458D01*
X62914Y174461D01*
X62994Y174475D01*
X63069Y174494D01*
X63133Y174516D01*
X63161Y174528D01*
X63186Y174536D01*
X63208Y174547D01*
X63227Y174555D01*
X63244Y174564D01*
X63255Y174569D01*
X63261Y174575D01*
X63263D01*
X63299Y174600D01*
X63332Y174625D01*
X63393Y174683D01*
X63443Y174741D01*
X63485Y174802D01*
X63515Y174855D01*
X63529Y174877D01*
X63540Y174899D01*
X63546Y174915D01*
X63551Y174926D01*
X63557Y174935D01*
Y174938D01*
X63587Y175032D01*
X63612Y175129D01*
X63629Y175226D01*
X63634Y175270D01*
X63640Y175314D01*
X63643Y175356D01*
X63645Y175392D01*
X63648Y175425D01*
Y175453D01*
X63651Y175478D01*
Y175494D01*
Y175505D01*
Y175508D01*
X63648Y175602D01*
X63640Y175691D01*
X63626Y175774D01*
X63621Y175813D01*
X63612Y175849D01*
X63604Y175879D01*
X63598Y175910D01*
X63590Y175935D01*
X63585Y175957D01*
X63582Y175974D01*
X63576Y175987D01*
X63573Y175996D01*
Y175998D01*
X63538Y176084D01*
X63496Y176159D01*
X63452Y176223D01*
X63427Y176251D01*
X63405Y176278D01*
X63382Y176300D01*
X63363Y176320D01*
X63344Y176339D01*
X63330Y176353D01*
X63316Y176364D01*
X63305Y176372D01*
X63299Y176375D01*
X63297Y176378D01*
X63258Y176403D01*
X63219Y176425D01*
X63177Y176444D01*
X63136Y176461D01*
X63053Y176486D01*
X62972Y176505D01*
X62939Y176511D01*
X62906Y176514D01*
X62875Y176516D01*
X62850Y176519D01*
X62828Y176522D01*
X62753D01*
X62709Y176516D01*
X62626Y176503D01*
X62554Y176480D01*
X62524Y176469D01*
X62493Y176458D01*
X62466Y176447D01*
X62443Y176436D01*
X62424Y176425D01*
X62407Y176414D01*
X62393Y176406D01*
X62385Y176400D01*
X62380Y176397D01*
X62377Y176395D01*
X62346Y176370D01*
X62316Y176342D01*
X62266Y176278D01*
X62219Y176209D01*
X62183Y176143D01*
X62155Y176082D01*
X62141Y176057D01*
X62133Y176034D01*
X62125Y176015D01*
X62122Y175998D01*
X62116Y175990D01*
Y175987D01*
X61784Y176065D01*
X61806Y176129D01*
X61831Y176190D01*
X61856Y176248D01*
X61887Y176300D01*
X61914Y176350D01*
X61945Y176395D01*
X61975Y176436D01*
X62006Y176472D01*
X62036Y176505D01*
X62061Y176533D01*
X62086Y176558D01*
X62108Y176577D01*
X62125Y176594D01*
X62139Y176605D01*
X62147Y176611D01*
X62150Y176613D01*
X62199Y176649D01*
X62252Y176677D01*
X62305Y176705D01*
X62360Y176727D01*
X62416Y176746D01*
X62468Y176763D01*
X62521Y176774D01*
X62571Y176785D01*
X62618Y176794D01*
X62659Y176799D01*
X62698Y176805D01*
X62731Y176807D01*
X62759Y176810D01*
X62795D01*
X62859Y176807D01*
D02*
G37*
G36*
X59338Y174209D02*
X59000D01*
Y175248D01*
X58346D01*
X58247Y175251D01*
X58158Y175259D01*
X58075Y175270D01*
X57998Y175284D01*
X57931Y175301D01*
X57867Y175320D01*
X57815Y175339D01*
X57765Y175361D01*
X57723Y175381D01*
X57687Y175400D01*
X57657Y175420D01*
X57635Y175436D01*
X57615Y175453D01*
X57604Y175464D01*
X57596Y175469D01*
X57593Y175472D01*
X57557Y175516D01*
X57524Y175561D01*
X57496Y175608D01*
X57474Y175655D01*
X57452Y175702D01*
X57435Y175746D01*
X57421Y175791D01*
X57410Y175832D01*
X57402Y175874D01*
X57396Y175910D01*
X57391Y175940D01*
X57388Y175968D01*
X57385Y175993D01*
Y176010D01*
Y176021D01*
Y176023D01*
X57388Y176093D01*
X57396Y176159D01*
X57410Y176217D01*
X57424Y176270D01*
X57441Y176312D01*
X57446Y176331D01*
X57452Y176345D01*
X57457Y176356D01*
X57463Y176364D01*
X57466Y176370D01*
Y176372D01*
X57496Y176431D01*
X57529Y176478D01*
X57565Y176522D01*
X57596Y176555D01*
X57626Y176583D01*
X57648Y176602D01*
X57665Y176616D01*
X57668Y176619D01*
X57671D01*
X57721Y176649D01*
X57773Y176674D01*
X57826Y176697D01*
X57876Y176713D01*
X57920Y176727D01*
X57939Y176730D01*
X57956Y176735D01*
X57967Y176738D01*
X57978D01*
X57984Y176741D01*
X57986D01*
X58011Y176746D01*
X58042Y176749D01*
X58103Y176755D01*
X58166Y176760D01*
X58230Y176763D01*
X58285Y176766D01*
X59338D01*
Y174209D01*
D02*
G37*
G36*
X53579D02*
X53241D01*
Y175345D01*
X52807D01*
X52768Y175342D01*
X52735Y175339D01*
X52707D01*
X52687Y175337D01*
X52674Y175334D01*
X52665Y175331D01*
X52662D01*
X52632Y175323D01*
X52604Y175312D01*
X52579Y175301D01*
X52554Y175289D01*
X52535Y175278D01*
X52521Y175270D01*
X52510Y175264D01*
X52507Y175262D01*
X52480Y175242D01*
X52449Y175215D01*
X52419Y175187D01*
X52394Y175159D01*
X52369Y175134D01*
X52352Y175112D01*
X52341Y175098D01*
X52336Y175095D01*
Y175093D01*
X52297Y175043D01*
X52255Y174987D01*
X52217Y174929D01*
X52178Y174871D01*
X52144Y174821D01*
X52128Y174799D01*
X52117Y174780D01*
X52106Y174763D01*
X52097Y174752D01*
X52095Y174744D01*
X52092Y174741D01*
X51754Y174209D01*
X51330D01*
X51773Y174904D01*
X51823Y174976D01*
X51873Y175043D01*
X51920Y175101D01*
X51962Y175151D01*
X51998Y175190D01*
X52014Y175206D01*
X52028Y175220D01*
X52039Y175231D01*
X52047Y175240D01*
X52050Y175242D01*
X52053Y175245D01*
X52081Y175267D01*
X52114Y175292D01*
X52147Y175312D01*
X52180Y175331D01*
X52211Y175347D01*
X52236Y175361D01*
X52253Y175370D01*
X52255Y175373D01*
X52258D01*
X52192Y175383D01*
X52128Y175397D01*
X52070Y175414D01*
X52017Y175431D01*
X51967Y175450D01*
X51923Y175469D01*
X51884Y175489D01*
X51848Y175508D01*
X51815Y175528D01*
X51787Y175547D01*
X51765Y175564D01*
X51746Y175577D01*
X51732Y175591D01*
X51721Y175600D01*
X51715Y175605D01*
X51712Y175608D01*
X51682Y175644D01*
X51654Y175680D01*
X51629Y175719D01*
X51610Y175758D01*
X51593Y175796D01*
X51579Y175835D01*
X51557Y175907D01*
X51549Y175940D01*
X51543Y175971D01*
X51541Y175998D01*
X51538Y176023D01*
X51535Y176040D01*
Y176057D01*
Y176065D01*
Y176068D01*
X51541Y176145D01*
X51552Y176217D01*
X51568Y176281D01*
X51588Y176339D01*
X51599Y176364D01*
X51610Y176386D01*
X51618Y176406D01*
X51626Y176422D01*
X51632Y176436D01*
X51638Y176444D01*
X51643Y176450D01*
Y176453D01*
X51685Y176514D01*
X51732Y176564D01*
X51779Y176608D01*
X51826Y176641D01*
X51865Y176666D01*
X51898Y176683D01*
X51912Y176688D01*
X51920Y176694D01*
X51926Y176697D01*
X51928D01*
X51964Y176708D01*
X52000Y176719D01*
X52083Y176735D01*
X52169Y176749D01*
X52253Y176758D01*
X52294Y176760D01*
X52330Y176763D01*
X52360D01*
X52391Y176766D01*
X53579D01*
Y174209D01*
D02*
G37*
G36*
X61654Y173500D02*
X59574D01*
Y173727D01*
X61654D01*
Y173500D01*
D02*
G37*
%LPC*%
G36*
X152084Y116440D02*
X152076D01*
X152070D01*
X152068D01*
X152023Y116437D01*
X151979Y116429D01*
X151940Y116418D01*
X151907Y116407D01*
X151877Y116393D01*
X151857Y116382D01*
X151843Y116374D01*
X151838Y116371D01*
X151802Y116343D01*
X151769Y116310D01*
X151744Y116277D01*
X151722Y116246D01*
X151705Y116216D01*
X151694Y116193D01*
X151688Y116177D01*
X151686Y116174D01*
Y116171D01*
X151669Y116119D01*
X151658Y116061D01*
X151649Y116000D01*
X151644Y115942D01*
X151641Y115889D01*
Y115867D01*
X151638Y115847D01*
Y115083D01*
X152483D01*
Y115944D01*
X152478Y115991D01*
X152472Y116036D01*
X152464Y116077D01*
X152456Y116113D01*
X152445Y116146D01*
X152436Y116177D01*
X152425Y116205D01*
X152414Y116229D01*
X152403Y116249D01*
X152392Y116268D01*
X152383Y116282D01*
X152375Y116293D01*
X152370Y116302D01*
X152367Y116304D01*
X152364Y116307D01*
X152342Y116329D01*
X152317Y116351D01*
X152270Y116385D01*
X152220Y116407D01*
X152173Y116423D01*
X152131Y116435D01*
X152112Y116437D01*
X152098D01*
X152084Y116440D01*
D02*
G37*
G36*
X152043Y110590D02*
X152032D01*
X152023D01*
X152018D01*
X152015D01*
X151974Y110587D01*
X151938Y110584D01*
X151868Y110568D01*
X151810Y110546D01*
X151760Y110521D01*
X151722Y110496D01*
X151694Y110474D01*
X151686Y110465D01*
X151677Y110457D01*
X151674Y110454D01*
X151672Y110451D01*
X151649Y110424D01*
X151633Y110390D01*
X151616Y110357D01*
X151602Y110321D01*
X151580Y110244D01*
X151566Y110166D01*
X151561Y110130D01*
X151555Y110094D01*
X151552Y110064D01*
Y110036D01*
X151550Y110014D01*
Y109324D01*
X152464D01*
Y110058D01*
X152461Y110091D01*
Y110125D01*
X152458Y110152D01*
X152456Y110180D01*
X152453Y110202D01*
Y110221D01*
X152447Y110255D01*
X152442Y110277D01*
X152439Y110291D01*
Y110293D01*
X152422Y110340D01*
X152400Y110382D01*
X152375Y110418D01*
X152350Y110451D01*
X152328Y110474D01*
X152309Y110493D01*
X152295Y110504D01*
X152289Y110507D01*
X152245Y110534D01*
X152198Y110554D01*
X152154Y110570D01*
X152109Y110579D01*
X152073Y110584D01*
X152043Y110590D01*
D02*
G37*
G36*
X60000Y126464D02*
X59266D01*
X59233Y126461D01*
X59200D01*
X59172Y126458D01*
X59144Y126455D01*
X59122Y126453D01*
X59103D01*
X59070Y126447D01*
X59047Y126442D01*
X59034Y126439D01*
X59031D01*
X58984Y126422D01*
X58942Y126400D01*
X58906Y126375D01*
X58873Y126350D01*
X58851Y126328D01*
X58831Y126309D01*
X58820Y126295D01*
X58817Y126289D01*
X58790Y126245D01*
X58770Y126198D01*
X58754Y126154D01*
X58745Y126109D01*
X58740Y126073D01*
X58734Y126043D01*
Y126032D01*
Y126023D01*
Y126018D01*
Y126015D01*
X58737Y125974D01*
X58740Y125938D01*
X58757Y125868D01*
X58779Y125810D01*
X58804Y125760D01*
X58829Y125722D01*
X58851Y125694D01*
X58859Y125686D01*
X58867Y125677D01*
X58870Y125674D01*
X58873Y125672D01*
X58900Y125649D01*
X58934Y125633D01*
X58967Y125616D01*
X59003Y125602D01*
X59081Y125580D01*
X59158Y125566D01*
X59194Y125561D01*
X59230Y125555D01*
X59261Y125552D01*
X59288D01*
X59311Y125550D01*
X60000D01*
Y126464D01*
D02*
G37*
G36*
X54241Y126483D02*
X53380D01*
X53333Y126478D01*
X53289Y126472D01*
X53247Y126464D01*
X53211Y126455D01*
X53178Y126444D01*
X53147Y126436D01*
X53119Y126425D01*
X53095Y126414D01*
X53075Y126403D01*
X53056Y126392D01*
X53042Y126383D01*
X53031Y126375D01*
X53023Y126370D01*
X53020Y126367D01*
X53017Y126364D01*
X52995Y126342D01*
X52973Y126317D01*
X52939Y126270D01*
X52917Y126220D01*
X52901Y126173D01*
X52890Y126131D01*
X52887Y126112D01*
Y126098D01*
X52884Y126084D01*
Y126076D01*
Y126070D01*
Y126068D01*
X52887Y126023D01*
X52895Y125979D01*
X52906Y125940D01*
X52917Y125907D01*
X52931Y125877D01*
X52942Y125857D01*
X52951Y125843D01*
X52953Y125838D01*
X52981Y125802D01*
X53014Y125769D01*
X53048Y125744D01*
X53078Y125722D01*
X53108Y125705D01*
X53131Y125694D01*
X53147Y125688D01*
X53150Y125686D01*
X53153D01*
X53205Y125669D01*
X53264Y125658D01*
X53325Y125649D01*
X53383Y125644D01*
X53435Y125641D01*
X53457D01*
X53477Y125638D01*
X54241D01*
Y126483D01*
D02*
G37*
G36*
X76523Y105862D02*
X75759D01*
Y105017D01*
X76620D01*
X76667Y105022D01*
X76711Y105028D01*
X76753Y105036D01*
X76789Y105044D01*
X76822Y105055D01*
X76853Y105064D01*
X76881Y105075D01*
X76905Y105086D01*
X76925Y105097D01*
X76944Y105108D01*
X76958Y105116D01*
X76969Y105125D01*
X76977Y105130D01*
X76980Y105133D01*
X76983Y105136D01*
X77005Y105158D01*
X77027Y105183D01*
X77061Y105230D01*
X77083Y105280D01*
X77099Y105327D01*
X77110Y105368D01*
X77113Y105388D01*
Y105402D01*
X77116Y105416D01*
Y105424D01*
Y105429D01*
Y105432D01*
X77113Y105477D01*
X77105Y105521D01*
X77094Y105560D01*
X77083Y105593D01*
X77069Y105623D01*
X77058Y105643D01*
X77049Y105657D01*
X77047Y105662D01*
X77019Y105698D01*
X76986Y105731D01*
X76952Y105756D01*
X76922Y105779D01*
X76892Y105795D01*
X76869Y105806D01*
X76853Y105812D01*
X76850Y105815D01*
X76847D01*
X76795Y105831D01*
X76736Y105842D01*
X76675Y105851D01*
X76617Y105856D01*
X76565Y105859D01*
X76543D01*
X76523Y105862D01*
D02*
G37*
G36*
X70689Y105950D02*
X70000D01*
Y105036D01*
X70734D01*
X70767Y105039D01*
X70800D01*
X70828Y105042D01*
X70856Y105044D01*
X70878Y105047D01*
X70897D01*
X70930Y105053D01*
X70953Y105058D01*
X70967Y105061D01*
X70969D01*
X71016Y105078D01*
X71058Y105100D01*
X71094Y105125D01*
X71127Y105150D01*
X71149Y105172D01*
X71169Y105191D01*
X71180Y105205D01*
X71183Y105211D01*
X71210Y105255D01*
X71230Y105302D01*
X71246Y105346D01*
X71255Y105391D01*
X71260Y105427D01*
X71266Y105457D01*
Y105468D01*
Y105477D01*
Y105482D01*
Y105485D01*
X71263Y105526D01*
X71260Y105562D01*
X71244Y105632D01*
X71221Y105690D01*
X71196Y105740D01*
X71171Y105779D01*
X71149Y105806D01*
X71141Y105815D01*
X71133Y105823D01*
X71130Y105826D01*
X71127Y105828D01*
X71100Y105851D01*
X71066Y105867D01*
X71033Y105884D01*
X70997Y105898D01*
X70919Y105920D01*
X70842Y105934D01*
X70806Y105939D01*
X70770Y105945D01*
X70739Y105947D01*
X70712D01*
X70689Y105950D01*
D02*
G37*
G36*
X44162Y64755D02*
X43428D01*
X43395Y64752D01*
X43362D01*
X43334Y64749D01*
X43306Y64746D01*
X43284Y64744D01*
X43265D01*
X43231Y64738D01*
X43209Y64733D01*
X43195Y64730D01*
X43193D01*
X43145Y64713D01*
X43104Y64691D01*
X43068Y64666D01*
X43035Y64641D01*
X43013Y64619D01*
X42993Y64600D01*
X42982Y64586D01*
X42979Y64580D01*
X42952Y64536D01*
X42932Y64489D01*
X42916Y64445D01*
X42907Y64400D01*
X42902Y64364D01*
X42896Y64334D01*
Y64323D01*
Y64314D01*
Y64309D01*
Y64306D01*
X42899Y64264D01*
X42902Y64228D01*
X42918Y64159D01*
X42941Y64101D01*
X42965Y64051D01*
X42990Y64012D01*
X43013Y63985D01*
X43021Y63976D01*
X43029Y63968D01*
X43032Y63965D01*
X43035Y63963D01*
X43062Y63940D01*
X43096Y63924D01*
X43129Y63907D01*
X43165Y63893D01*
X43242Y63871D01*
X43320Y63857D01*
X43356Y63852D01*
X43392Y63846D01*
X43422Y63843D01*
X43450D01*
X43472Y63841D01*
X44162D01*
Y64755D01*
D02*
G37*
G36*
X59000Y160964D02*
X58266D01*
X58233Y160961D01*
X58200D01*
X58172Y160958D01*
X58144Y160956D01*
X58122Y160953D01*
X58103D01*
X58069Y160947D01*
X58047Y160942D01*
X58034Y160939D01*
X58031D01*
X57984Y160922D01*
X57942Y160900D01*
X57906Y160875D01*
X57873Y160850D01*
X57851Y160828D01*
X57831Y160809D01*
X57820Y160795D01*
X57817Y160789D01*
X57790Y160745D01*
X57770Y160698D01*
X57754Y160654D01*
X57745Y160609D01*
X57740Y160573D01*
X57734Y160543D01*
Y160532D01*
Y160523D01*
Y160518D01*
Y160515D01*
X57737Y160474D01*
X57740Y160438D01*
X57757Y160368D01*
X57779Y160310D01*
X57804Y160260D01*
X57828Y160222D01*
X57851Y160194D01*
X57859Y160186D01*
X57867Y160177D01*
X57870Y160174D01*
X57873Y160172D01*
X57901Y160150D01*
X57934Y160133D01*
X57967Y160116D01*
X58003Y160102D01*
X58081Y160080D01*
X58158Y160066D01*
X58194Y160061D01*
X58230Y160055D01*
X58261Y160053D01*
X58288D01*
X58311Y160050D01*
X59000D01*
Y160964D01*
D02*
G37*
G36*
X53241Y160983D02*
X52380D01*
X52333Y160978D01*
X52289Y160972D01*
X52247Y160964D01*
X52211Y160956D01*
X52178Y160944D01*
X52147Y160936D01*
X52119Y160925D01*
X52095Y160914D01*
X52075Y160903D01*
X52056Y160892D01*
X52042Y160883D01*
X52031Y160875D01*
X52023Y160870D01*
X52020Y160867D01*
X52017Y160864D01*
X51995Y160842D01*
X51973Y160817D01*
X51939Y160770D01*
X51917Y160720D01*
X51901Y160673D01*
X51890Y160631D01*
X51887Y160612D01*
Y160598D01*
X51884Y160584D01*
Y160576D01*
Y160571D01*
Y160568D01*
X51887Y160523D01*
X51895Y160479D01*
X51906Y160440D01*
X51917Y160407D01*
X51931Y160377D01*
X51942Y160357D01*
X51951Y160343D01*
X51953Y160338D01*
X51981Y160302D01*
X52014Y160269D01*
X52047Y160244D01*
X52078Y160222D01*
X52108Y160205D01*
X52131Y160194D01*
X52147Y160188D01*
X52150Y160186D01*
X52153D01*
X52205Y160169D01*
X52264Y160158D01*
X52324Y160150D01*
X52383Y160144D01*
X52435Y160141D01*
X52457D01*
X52477Y160138D01*
X53241D01*
Y160983D01*
D02*
G37*
G36*
X143000Y73964D02*
X142266D01*
X142233Y73961D01*
X142200D01*
X142172Y73958D01*
X142144Y73956D01*
X142122Y73953D01*
X142103D01*
X142069Y73947D01*
X142047Y73942D01*
X142034Y73939D01*
X142031D01*
X141984Y73922D01*
X141942Y73900D01*
X141906Y73875D01*
X141873Y73850D01*
X141851Y73828D01*
X141831Y73809D01*
X141820Y73795D01*
X141817Y73789D01*
X141790Y73745D01*
X141770Y73698D01*
X141754Y73654D01*
X141745Y73609D01*
X141740Y73573D01*
X141734Y73543D01*
Y73532D01*
Y73523D01*
Y73518D01*
Y73515D01*
X141737Y73474D01*
X141740Y73438D01*
X141756Y73368D01*
X141779Y73310D01*
X141804Y73260D01*
X141829Y73221D01*
X141851Y73194D01*
X141859Y73185D01*
X141867Y73177D01*
X141870Y73174D01*
X141873Y73172D01*
X141901Y73150D01*
X141934Y73133D01*
X141967Y73116D01*
X142003Y73102D01*
X142081Y73080D01*
X142158Y73066D01*
X142194Y73061D01*
X142230Y73055D01*
X142261Y73053D01*
X142288D01*
X142311Y73050D01*
X143000D01*
Y73964D01*
D02*
G37*
G36*
X137241Y73983D02*
X136380D01*
X136333Y73978D01*
X136288Y73972D01*
X136247Y73964D01*
X136211Y73956D01*
X136178Y73944D01*
X136147Y73936D01*
X136119Y73925D01*
X136095Y73914D01*
X136075Y73903D01*
X136056Y73892D01*
X136042Y73883D01*
X136031Y73875D01*
X136023Y73870D01*
X136020Y73867D01*
X136017Y73864D01*
X135995Y73842D01*
X135973Y73817D01*
X135940Y73770D01*
X135917Y73720D01*
X135901Y73673D01*
X135890Y73631D01*
X135887Y73612D01*
Y73598D01*
X135884Y73584D01*
Y73576D01*
Y73571D01*
Y73568D01*
X135887Y73523D01*
X135895Y73479D01*
X135906Y73440D01*
X135917Y73407D01*
X135931Y73377D01*
X135942Y73357D01*
X135951Y73343D01*
X135953Y73338D01*
X135981Y73302D01*
X136014Y73269D01*
X136047Y73244D01*
X136078Y73221D01*
X136108Y73205D01*
X136131Y73194D01*
X136147Y73188D01*
X136150Y73185D01*
X136153D01*
X136205Y73169D01*
X136264Y73158D01*
X136325Y73150D01*
X136383Y73144D01*
X136435Y73141D01*
X136458D01*
X136477Y73138D01*
X137241D01*
Y73983D01*
D02*
G37*
G36*
X59000Y176464D02*
X58266D01*
X58233Y176461D01*
X58200D01*
X58172Y176458D01*
X58144Y176455D01*
X58122Y176453D01*
X58103D01*
X58069Y176447D01*
X58047Y176442D01*
X58034Y176439D01*
X58031D01*
X57984Y176422D01*
X57942Y176400D01*
X57906Y176375D01*
X57873Y176350D01*
X57851Y176328D01*
X57831Y176309D01*
X57820Y176295D01*
X57817Y176289D01*
X57790Y176245D01*
X57770Y176198D01*
X57754Y176154D01*
X57745Y176109D01*
X57740Y176073D01*
X57734Y176043D01*
Y176032D01*
Y176023D01*
Y176018D01*
Y176015D01*
X57737Y175974D01*
X57740Y175938D01*
X57757Y175868D01*
X57779Y175810D01*
X57804Y175760D01*
X57828Y175722D01*
X57851Y175694D01*
X57859Y175686D01*
X57867Y175677D01*
X57870Y175674D01*
X57873Y175672D01*
X57901Y175649D01*
X57934Y175633D01*
X57967Y175616D01*
X58003Y175602D01*
X58081Y175580D01*
X58158Y175566D01*
X58194Y175561D01*
X58230Y175555D01*
X58261Y175552D01*
X58288D01*
X58311Y175550D01*
X59000D01*
Y176464D01*
D02*
G37*
G36*
X53241Y176483D02*
X52380D01*
X52333Y176478D01*
X52289Y176472D01*
X52247Y176464D01*
X52211Y176455D01*
X52178Y176444D01*
X52147Y176436D01*
X52119Y176425D01*
X52095Y176414D01*
X52075Y176403D01*
X52056Y176392D01*
X52042Y176383D01*
X52031Y176375D01*
X52023Y176370D01*
X52020Y176367D01*
X52017Y176364D01*
X51995Y176342D01*
X51973Y176317D01*
X51939Y176270D01*
X51917Y176220D01*
X51901Y176173D01*
X51890Y176131D01*
X51887Y176112D01*
Y176098D01*
X51884Y176084D01*
Y176076D01*
Y176070D01*
Y176068D01*
X51887Y176023D01*
X51895Y175979D01*
X51906Y175940D01*
X51917Y175907D01*
X51931Y175877D01*
X51942Y175857D01*
X51951Y175843D01*
X51953Y175838D01*
X51981Y175802D01*
X52014Y175769D01*
X52047Y175744D01*
X52078Y175722D01*
X52108Y175705D01*
X52131Y175694D01*
X52147Y175688D01*
X52150Y175686D01*
X52153D01*
X52205Y175669D01*
X52264Y175658D01*
X52324Y175649D01*
X52383Y175644D01*
X52435Y175641D01*
X52457D01*
X52477Y175638D01*
X53241D01*
Y176483D01*
D02*
G37*
%LPD*%
D14*
X162886Y88858D02*
Y121142D01*
X136114D02*
X162886D01*
X136114Y88858D02*
Y121142D01*
Y88858D02*
X162886D01*
X58673Y176748D02*
X69327D01*
X58673Y170252D02*
Y176748D01*
Y170252D02*
X69327D01*
Y176748D01*
X58673Y161248D02*
X69327D01*
X58673Y154752D02*
Y161248D01*
Y154752D02*
X69327D01*
Y161248D01*
X59673Y104752D02*
X70327D01*
Y111248D01*
X59673D02*
X70327D01*
X59673Y104752D02*
Y111248D01*
Y126748D02*
X70327D01*
X59673Y120252D02*
Y126748D01*
Y120252D02*
X70327D01*
Y126748D01*
X154299Y66866D02*
Y75134D01*
X141701Y66866D02*
X154299D01*
X141701D02*
Y75134D01*
X154299D01*
D15*
X36823Y69488D02*
X52177D01*
X36823Y55512D02*
Y69488D01*
Y55512D02*
X52177D01*
Y69488D01*
M02*
