G04*
G04 #@! TF.GenerationSoftware,Altium Limited,Altium Designer,23.1.1 (15)*
G04*
G04 Layer_Color=128*
%FSLAX25Y25*%
%MOIN*%
G70*
G04*
G04 #@! TF.SameCoordinates,610C7C08-74D4-44FC-BCD4-38041F97A8CA*
G04*
G04*
G04 #@! TF.FilePolarity,Positive*
G04*
G01*
G75*
%ADD65C,0.00500*%
D65*
X93669Y138500D02*
X102331D01*
X98000Y134169D02*
Y142831D01*
X93669Y170000D02*
X102331D01*
X98000Y165669D02*
Y174331D01*
X58728Y18500D02*
X62272D01*
X60500Y16728D02*
Y20272D01*
X68728Y18500D02*
X72272D01*
X70500Y16728D02*
Y20272D01*
X78728Y18500D02*
X82272D01*
X80500Y16728D02*
Y20272D01*
X88728Y18500D02*
X92272D01*
X90500Y16728D02*
Y20272D01*
X172941Y90000D02*
X178059D01*
X175500Y87441D02*
Y92559D01*
X172941Y100000D02*
X178059D01*
X175500Y97441D02*
Y102559D01*
X123492Y9000D02*
X127508D01*
X125500Y6992D02*
Y11008D01*
X19941Y124500D02*
X25059D01*
X22500Y121941D02*
Y127059D01*
X19941Y114500D02*
X25059D01*
X22500Y111941D02*
Y117059D01*
X120169Y139000D02*
X128831D01*
X124500Y134669D02*
Y143331D01*
X120169Y170500D02*
X128831D01*
X124500Y166169D02*
Y174831D01*
X32492Y34500D02*
X36508D01*
X34500Y32492D02*
Y36508D01*
X19492Y57000D02*
X23508D01*
X21500Y54992D02*
Y59008D01*
X19492Y67000D02*
X23508D01*
X21500Y64992D02*
Y69008D01*
X19492Y77000D02*
X23508D01*
X21500Y74992D02*
Y79008D01*
X19492Y87000D02*
X23508D01*
X21500Y84992D02*
Y89008D01*
X19492Y97000D02*
X23508D01*
X21500Y94992D02*
Y99008D01*
X158425Y132157D02*
X161575D01*
X160000Y130583D02*
Y133732D01*
X158425Y151843D02*
X161575D01*
X160000Y150268D02*
Y153417D01*
X26492Y138500D02*
X30508D01*
X28500Y136492D02*
Y140508D01*
X16492Y138500D02*
X20508D01*
X18500Y136492D02*
Y140508D01*
X50492Y33500D02*
X54508D01*
X52500Y31492D02*
Y35508D01*
X60492Y33500D02*
X64508D01*
X62500Y31492D02*
Y35508D01*
X75000Y84500D02*
X76000D01*
X75500Y84000D02*
Y85000D01*
X164593Y36706D02*
X165593D01*
X165093Y36206D02*
Y37206D01*
X159695Y45268D02*
X160695D01*
X160195Y44768D02*
Y45768D01*
X111000Y37500D02*
X112000D01*
X111500Y37000D02*
Y38000D01*
X118000Y51000D02*
X119000D01*
X118500Y50500D02*
Y51500D01*
X141761Y82761D02*
X142761D01*
X142261Y82261D02*
Y83261D01*
X134300Y75550D02*
X135300D01*
X134800Y75050D02*
Y76050D01*
X49000Y149500D02*
X50000D01*
X49500Y149000D02*
Y150000D01*
X52000Y106325D02*
X53000D01*
X52500Y105825D02*
Y106825D01*
X78500Y90000D02*
X79500D01*
X79000Y89500D02*
Y90500D01*
X90315Y86715D02*
X91315D01*
X90815Y86215D02*
Y87215D01*
X76500Y124500D02*
X77500D01*
X77000Y124000D02*
Y125000D01*
X74750Y109500D02*
X75750D01*
X75250Y109000D02*
Y110000D01*
X111000Y87500D02*
X112000D01*
X111500Y87000D02*
Y88000D01*
X66850Y87321D02*
X67850D01*
X67350Y86821D02*
Y87821D01*
X71532Y41500D02*
X72532D01*
X72032Y41000D02*
Y42000D01*
X62000Y49000D02*
X63000D01*
X62500Y48500D02*
Y49500D01*
X60500Y56000D02*
X61500D01*
X61000Y55500D02*
Y56500D01*
X71532Y34559D02*
X72532D01*
X72032Y34059D02*
Y35059D01*
X82500Y39500D02*
X83500D01*
X83000Y39000D02*
Y40000D01*
X116000Y124000D02*
X117000D01*
X116500Y123500D02*
Y124500D01*
X87000Y54220D02*
X88000D01*
X87500Y53720D02*
Y54720D01*
X87000Y43500D02*
X88000D01*
X87500Y43000D02*
Y44000D01*
X87000Y35150D02*
X88000D01*
X87500Y34650D02*
Y35650D01*
X108500Y29500D02*
X109500D01*
X109000Y29000D02*
Y30000D01*
X93000Y33000D02*
X94000D01*
X93500Y32500D02*
Y33500D01*
X33200Y84400D02*
X34200D01*
X33700Y83900D02*
Y84900D01*
X37400Y105300D02*
X38400D01*
X37900Y104800D02*
Y105800D01*
M02*
