G04*
G04 #@! TF.GenerationSoftware,Altium Limited,Altium Designer,23.1.1 (15)*
G04*
G04 Layer_Physical_Order=2*
G04 Layer_Color=16711680*
%FSLAX25Y25*%
%MOIN*%
G70*
G04*
G04 #@! TF.SameCoordinates,4416291F-A030-49B4-A21B-4109523D90D4*
G04*
G04*
G04 #@! TF.FilePolarity,Positive*
G04*
G01*
G75*
%ADD14C,0.01500*%
%ADD23R,0.03543X0.04724*%
%ADD25R,0.04000X0.05315*%
%ADD27R,0.04331X0.02559*%
%ADD38C,0.06181*%
%ADD42R,0.05118X0.05118*%
%ADD43C,0.05118*%
%ADD44R,0.06181X0.06181*%
%ADD46R,0.06024X0.06024*%
%ADD47C,0.06024*%
%ADD48R,0.07677X0.07677*%
%ADD49C,0.07677*%
%ADD50C,0.11811*%
%ADD51R,0.05984X0.05984*%
%ADD52C,0.05984*%
%ADD53C,0.03000*%
%ADD54R,0.05512X0.03937*%
%ADD55O,0.08268X0.01000*%
G04:AMPARAMS|DCode=56|XSize=43.31mil|YSize=23.62mil|CornerRadius=2.01mil|HoleSize=0mil|Usage=FLASHONLY|Rotation=180.000|XOffset=0mil|YOffset=0mil|HoleType=Round|Shape=RoundedRectangle|*
%AMROUNDEDRECTD56*
21,1,0.04331,0.01961,0,0,180.0*
21,1,0.03929,0.02362,0,0,180.0*
1,1,0.00402,-0.01965,0.00980*
1,1,0.00402,0.01965,0.00980*
1,1,0.00402,0.01965,-0.00980*
1,1,0.00402,-0.01965,-0.00980*
%
%ADD56ROUNDEDRECTD56*%
%ADD57R,0.04349X0.05339*%
%ADD58R,0.04152X0.05339*%
%ADD59R,0.03740X0.05315*%
%ADD60R,0.03740X0.05512*%
%ADD61R,0.04724X0.02362*%
%ADD62R,0.04724X0.01500*%
%ADD63R,0.04528X0.05315*%
%ADD64R,0.03347X0.02362*%
%ADD65R,0.04134X0.05709*%
%ADD66R,0.03378X0.04969*%
D14*
X151642Y68800D02*
X153500D01*
X64800Y135300D02*
Y157000D01*
X34500Y34500D02*
Y41000D01*
X136994Y77800D02*
X137399D01*
X67996Y33004D02*
X69696D01*
X64500Y36500D02*
X67996Y33004D01*
X68500Y40800D02*
X73198Y36102D01*
X86083D01*
Y33543D02*
X94638D01*
X96594Y35500D02*
X97000D01*
X94638Y33543D02*
X96594Y35500D01*
X108917Y64012D02*
X110500Y65594D01*
X108917Y54016D02*
Y64012D01*
X107229Y71079D02*
X109452D01*
X100656Y64506D02*
X107229Y71079D01*
X116501Y39584D02*
Y64029D01*
X110500Y65594D02*
Y66000D01*
X109452Y71079D02*
X116501Y64029D01*
X118000Y83510D02*
X135810D01*
X142300Y90000D01*
X135100Y76000D02*
X135194D01*
X141992Y80650D02*
X151642Y71000D01*
X115000Y80650D02*
X141992D01*
X135194Y76000D02*
X136994Y77800D01*
X120475Y76000D02*
X135100D01*
X118731Y74256D02*
X120475Y76000D01*
X118601Y59501D02*
X135100Y76000D01*
X112500Y83150D02*
X115000Y80650D01*
X103700Y74256D02*
X118731D01*
X112500Y83150D02*
Y95740D01*
X142300Y90000D02*
Y95000D01*
X118601Y38714D02*
X118601Y38714D01*
Y59501D01*
X139000Y15900D02*
X153100Y30000D01*
X125250Y13050D02*
X125300Y13000D01*
X139500D01*
X120169Y12000D02*
X124069Y15900D01*
X117941Y10941D02*
X119000Y12000D01*
X98661Y10941D02*
X117941D01*
X119000Y12000D02*
X120169D01*
X124069Y15900D02*
X139000D01*
X153100Y37000D02*
X155837D01*
X140700Y33600D02*
Y61000D01*
X153100Y30000D02*
Y37000D01*
X139500Y13000D02*
X177500Y51000D01*
X150700Y33600D02*
Y42300D01*
X177500Y51000D02*
Y67000D01*
X140700Y61000D02*
X144358Y65496D01*
X140700Y33600D02*
X150700D01*
X97770Y10050D02*
X98661Y10941D01*
X117947Y20347D02*
Y27824D01*
X118601Y28478D02*
Y38714D01*
X117947Y27824D02*
X118601Y28478D01*
X110641Y13040D02*
X117947Y20347D01*
X115847Y26217D02*
Y28694D01*
X116501Y29348D02*
Y39584D01*
X115847Y28694D02*
X116501Y29348D01*
X108764Y19134D02*
X115847Y26217D01*
X156700Y82900D02*
Y108000D01*
X158329D01*
X144500D02*
X156700D01*
X159207Y131365D02*
X160000Y132157D01*
X158329Y108000D02*
X159207Y108879D01*
Y131365D01*
X97500Y42000D02*
X100839Y38661D01*
X108917D01*
X91462Y58538D02*
X100607Y49393D01*
Y43147D02*
Y49393D01*
X84818Y65043D02*
Y67010D01*
Y65043D02*
X90962Y58900D01*
X84650Y67179D02*
X84818Y67010D01*
X91831Y61000D02*
X91940D01*
X92490Y60450D01*
X91070Y58900D02*
X91432Y58538D01*
X92490Y60450D02*
X96600D01*
X91432Y58538D02*
X91462D01*
X90962Y58900D02*
X91070D01*
X89638Y63193D02*
X91831Y61000D01*
X89638Y63193D02*
Y65832D01*
X93500Y39540D02*
Y53500D01*
X90200Y56800D02*
X93500Y53500D01*
X84208Y56800D02*
X90200D01*
X96600Y60450D02*
X100656Y64506D01*
X92621Y38661D02*
X93500Y39540D01*
X86083Y38661D02*
X92621D01*
X69696Y33004D02*
X71716Y30984D01*
X86083D01*
X65360Y28884D02*
X88693D01*
X62744Y31500D02*
X65360Y28884D01*
X58216Y26784D02*
X89563D01*
X58000Y27000D02*
X58216Y26784D01*
X40244Y93850D02*
X43594Y90500D01*
X36819Y93850D02*
X40244D01*
X43594Y90500D02*
X44000D01*
X19700Y72600D02*
X23241D01*
X30030Y79389D02*
Y87061D01*
X23241Y72600D02*
X30030Y79389D01*
X37713Y90713D02*
X38000Y91000D01*
X30030Y87061D02*
X36819Y93850D01*
X37366Y74000D02*
X37713Y74347D01*
Y90713D01*
X28500Y115500D02*
Y138500D01*
X54700Y75200D02*
X59200Y70700D01*
X54700Y75200D02*
Y89300D01*
X28500Y115500D02*
X54700Y89300D01*
X51744Y102057D02*
X59400Y94400D01*
X48019Y98950D02*
X49650D01*
X38150Y108819D02*
X48019Y98950D01*
X38150Y111180D02*
X43997Y117028D01*
X44453D01*
X48943Y102057D02*
X51744D01*
X44453Y117028D02*
X50300Y122875D01*
X38150Y108819D02*
Y111180D01*
X41000Y110000D02*
X48943Y102057D01*
X59400Y94400D02*
X68759D01*
X49650Y98950D02*
X62241Y86359D01*
X50300Y122875D02*
Y140418D01*
X50382Y140500D01*
X60400Y120453D02*
Y130900D01*
Y120453D02*
X62330Y118523D01*
Y107670D02*
Y118523D01*
X39250Y45750D02*
X78480D01*
X88977Y23296D02*
X90357D01*
X90395Y23334D01*
X100334D01*
X88690Y23009D02*
X88977Y23296D01*
X85311Y19134D02*
X86672Y17772D01*
X106178D01*
X107540Y19134D02*
X108764D01*
X106178Y17772D02*
X107540Y19134D01*
X100334Y23334D02*
X104200Y27200D01*
X89563Y26784D02*
X89713Y26934D01*
X102050Y29150D02*
Y33543D01*
X99834Y26934D02*
X102050Y29150D01*
X89713Y26934D02*
X99834D01*
X94564Y29034D02*
X101633Y36102D01*
X88693Y28884D02*
X88843Y29034D01*
X94564D01*
X81019Y73113D02*
X82400Y74494D01*
X81019Y64019D02*
Y73113D01*
X74384Y66624D02*
Y104816D01*
Y66624D02*
X84208Y56800D01*
X101633Y36102D02*
X108917D01*
X102050Y33543D02*
X108917D01*
X102533Y41220D02*
X108917D01*
X100607Y43147D02*
X102533Y41220D01*
X87500Y67970D02*
Y100759D01*
Y67970D02*
X89638Y65832D01*
X82400Y74494D02*
Y84300D01*
X87542Y19872D02*
X99842D01*
X79236Y19134D02*
X85311D01*
X99842Y19872D02*
X103465Y23496D01*
X66950Y14780D02*
X75665Y23496D01*
X83919D02*
X87542Y19872D01*
X75665Y23496D02*
X83919D01*
X90496Y12900D02*
X90637Y13040D01*
X69800Y12900D02*
X90496D01*
X68620Y10050D02*
X97770D01*
X112760Y43070D02*
X113318D01*
X66950Y11720D02*
X68620Y10050D01*
X107679Y23496D02*
X114401Y30218D01*
Y40454D02*
X114401Y40454D01*
Y41987D01*
X114401Y30218D02*
Y40454D01*
X103465Y23496D02*
X107679D01*
X43500Y22500D02*
X53200D01*
X69200Y6500D02*
X100500D01*
X112301Y43530D02*
X112760Y43070D01*
X66950Y11720D02*
Y14780D01*
X113318Y43070D02*
X114401Y41987D01*
X116501Y39584D02*
X116501Y39584D01*
X90637Y13040D02*
X110641D01*
X53200Y22500D02*
X69200Y6500D01*
X154000Y113000D02*
Y113406D01*
X151634Y115772D02*
X154000Y113406D01*
X151634Y115772D02*
Y121000D01*
X141650Y104392D02*
X151642Y94400D01*
X141650Y104392D02*
Y112471D01*
X148512Y119333D01*
Y127412D01*
X151142Y130042D01*
X156700Y135457D02*
X160000Y132157D01*
X150700Y42300D02*
X164000Y55600D01*
X157100Y146900D02*
X164000Y140000D01*
Y55600D02*
Y140000D01*
X135039Y114039D02*
X135326Y114326D01*
X137283D01*
X143366Y120409D01*
X130500Y98240D02*
X135039Y102779D01*
Y114039D01*
X143366Y120409D02*
Y121000D01*
X109300Y137500D02*
Y137900D01*
Y127900D02*
Y137500D01*
X99768Y123990D02*
Y127900D01*
X106067Y147600D02*
X140000D01*
X106067D02*
Y153400D01*
Y147500D02*
Y147600D01*
X104760Y90760D02*
X107579D01*
X100000D02*
X104760D01*
X94840D02*
X100000D01*
X130500Y98240D02*
X139060D01*
X117421D02*
X130500D01*
X107142Y117268D02*
X132286D01*
X77300Y110959D02*
X87500Y100759D01*
X72428Y115831D02*
X77300Y110959D01*
Y114000D01*
X77500Y144740D02*
Y154100D01*
X144146Y49100D02*
Y54500D01*
Y46455D02*
Y49100D01*
X104200Y27200D02*
Y30984D01*
X40018Y60982D02*
Y74000D01*
X53200Y144300D02*
X53700D01*
X34300D02*
X53200D01*
X62241Y56519D02*
Y61240D01*
X138620Y90760D02*
X139360Y91500D01*
X117421Y90760D02*
X138620D01*
X63241Y98500D02*
Y102600D01*
X66000Y104200D01*
Y126300D01*
X69200Y129500D01*
Y174300D01*
X99768D01*
Y178500D01*
Y123990D02*
X99858Y116000D01*
X99768Y127900D02*
X109300D01*
X106700Y140100D02*
X109300Y137500D01*
X102500Y140100D02*
X106700D01*
X99768Y142832D02*
X102500Y140100D01*
X99768Y142832D02*
Y147500D01*
X80030Y41220D02*
X86083D01*
X77600Y43650D02*
X80030Y41220D01*
X54650Y43650D02*
X77600D01*
X43500Y32500D02*
X54650Y43650D01*
X43500Y22500D02*
Y32500D01*
X91050Y94550D02*
X94840Y90760D01*
X91050Y94550D02*
Y106453D01*
X74528Y122976D02*
X91050Y106453D01*
X74528Y122976D02*
Y169807D01*
X74752Y170031D01*
X81269D01*
X84200Y167100D01*
Y163760D02*
Y167100D01*
Y163760D02*
X87224D01*
X139060Y98240D02*
X142300Y95000D01*
X17100Y70000D02*
X19700Y72600D01*
X17100Y61400D02*
Y70000D01*
Y61400D02*
X21500Y57000D01*
X98900Y97400D02*
X99740Y98240D01*
X107579D01*
X110000D01*
X112500Y95740D01*
X103700Y59700D02*
Y63200D01*
X103400Y59400D02*
X103700Y59700D01*
X103400Y46339D02*
Y59400D01*
Y46339D02*
X108917D01*
X81100Y51457D02*
X86083D01*
X78143Y48500D02*
X81100Y51457D01*
X20000Y48500D02*
X78143D01*
X13100Y55400D02*
X20000Y48500D01*
X13100Y55400D02*
Y78600D01*
X21500Y87000D01*
X71500Y107700D02*
X74384Y104816D01*
X57500Y140500D02*
X60618D01*
X53700Y144300D02*
X57500Y140500D01*
X53200Y144300D02*
Y162500D01*
X60259Y169559D01*
X61759Y173500D01*
X62241Y81500D02*
Y86359D01*
X144358Y65496D02*
Y71000D01*
X149600Y146900D02*
X157100D01*
X146500Y150000D02*
X149600Y146900D01*
X146500Y150000D02*
Y161200D01*
X130800Y176900D02*
X146500Y161200D01*
X121600Y176900D02*
X130800D01*
X113900Y184600D02*
X121600Y176900D01*
X75700Y184600D02*
X113900D01*
X66100Y175000D02*
X75700Y184600D01*
X66100Y168100D02*
Y175000D01*
X60000Y162000D02*
X66100Y168100D01*
X56643Y162000D02*
X60000D01*
X56643Y157000D02*
Y162000D01*
X85189Y171240D02*
X87224D01*
X84298Y172131D02*
X85189Y171240D01*
X72652Y172131D02*
X84298D01*
X72428Y171907D02*
X72652Y172131D01*
X72428Y115831D02*
Y171907D01*
X104200Y30984D02*
X108917D01*
X48000Y27000D02*
X52500Y31500D01*
X62744D01*
X106067Y153400D02*
X117700D01*
X104475Y100775D02*
X117700Y114000D01*
X97500Y100775D02*
X104475D01*
X94840Y98115D02*
X97500Y100775D01*
X94840Y95920D02*
Y98115D01*
Y95920D02*
X100000Y90760D01*
X56241Y170376D02*
Y173500D01*
X52915Y167050D02*
X56241Y170376D01*
X45216Y167050D02*
X52915D01*
X31866Y162300D02*
X48100D01*
X68759Y94400D02*
Y98500D01*
X34500Y41000D02*
X39250Y45750D01*
X78480D02*
X80450Y43780D01*
X86083D01*
X21500Y67000D02*
X37300Y51200D01*
X73200D01*
X76016Y54016D01*
X86083D01*
X62357Y157000D02*
X64800D01*
X60400Y130900D02*
X64800Y135300D01*
X28500Y138500D02*
X34300Y144300D01*
X77500Y144740D02*
X77551D01*
X42118Y77780D02*
X45634D01*
X42118Y62982D02*
Y77780D01*
Y62982D02*
X47600Y57500D01*
X57382D01*
X45634Y70220D02*
X48700D01*
Y63980D02*
Y70220D01*
Y63980D02*
X51440Y61240D01*
X57382D01*
X62241Y56519D02*
X65000Y53760D01*
X67618D01*
X47240D02*
X57382D01*
X40018Y60982D02*
X47240Y53760D01*
X37366Y74000D02*
X40018D01*
X67618Y57500D02*
X71300D01*
Y92916D01*
X72284Y93900D01*
Y102600D01*
X63241D02*
X72284D01*
X139400Y136500D02*
X143858D01*
X126300Y123400D02*
X139400Y136500D01*
X106600Y123400D02*
X126300D01*
X103200Y120000D02*
X106600Y123400D01*
X103200Y112200D02*
Y120000D01*
X100000Y109000D02*
X103200Y112200D01*
X92147Y109000D02*
X100000D01*
X80650Y120497D02*
X92147Y109000D01*
X80650Y120497D02*
Y167500D01*
X77776D02*
X80650D01*
X149559Y154500D02*
Y164541D01*
X140600Y173500D02*
X149559Y164541D01*
X87000Y141000D02*
X91100D01*
X94100Y138000D01*
X103067D01*
X106067Y135000D01*
Y132000D02*
Y135000D01*
X99768Y127900D02*
Y132000D01*
X109300Y137900D02*
X115700Y144300D01*
X156700D01*
Y135457D02*
Y144300D01*
X151634Y121000D02*
X154600Y123966D01*
Y140000D01*
X153186Y141414D02*
X154600Y140000D01*
X147500Y141414D02*
X153186D01*
X147500Y132482D02*
Y141414D01*
X132286Y117268D02*
X147500Y132482D01*
X107142Y116000D02*
Y117268D01*
X83900Y141000D02*
X87000D01*
X83900D02*
Y153100D01*
X90300Y159500D01*
Y171240D01*
X87224D02*
X90300D01*
X94000Y65000D02*
Y80000D01*
X104760Y90760D01*
X151642Y68800D02*
Y71000D01*
X153500Y49100D02*
Y68800D01*
X144146Y49100D02*
X153500D01*
X62241Y61240D02*
Y81500D01*
X57382Y61240D02*
X62241D01*
X143441Y151041D02*
Y154500D01*
X140000Y147600D02*
X143441Y151041D01*
X151642Y71000D02*
Y94400D01*
X151142Y130042D02*
Y136500D01*
X117421Y90760D02*
Y94500D01*
X99768Y163000D02*
Y174300D01*
Y147500D02*
Y163000D01*
X93780Y147500D02*
X99768D01*
X92800Y148480D02*
X93780Y147500D01*
X87000Y148480D02*
X92800D01*
X106067Y153400D02*
Y163000D01*
Y178500D01*
X144146Y46455D02*
X145601Y45000D01*
Y37000D02*
Y45000D01*
X67759Y71341D02*
Y81500D01*
X67618Y71200D02*
X67759Y71341D01*
X67618Y61240D02*
Y71200D01*
X144358Y65496D02*
X149854Y60000D01*
Y54500D02*
Y60000D01*
D23*
X151634Y121000D02*
D03*
X143366D02*
D03*
D25*
X144146Y54500D02*
D03*
D27*
X45634Y77780D02*
D03*
Y70220D02*
D03*
X37366Y74000D02*
D03*
D38*
X100500Y6500D02*
D03*
X34500Y34500D02*
D03*
X18500Y138500D02*
D03*
X177500Y67000D02*
D03*
X58000Y27000D02*
D03*
D42*
X160000Y132157D02*
D03*
D43*
Y151843D02*
D03*
D44*
X28500Y138500D02*
D03*
X48000Y27000D02*
D03*
D46*
X79236Y19134D02*
D03*
D47*
X94000Y65000D02*
D03*
X108764Y19134D02*
D03*
D48*
X175500Y90000D02*
D03*
X22500Y114500D02*
D03*
D49*
X175500Y100000D02*
D03*
X22500Y124500D02*
D03*
D50*
X125000Y137000D02*
D03*
Y168500D02*
D03*
D51*
X21500Y57000D02*
D03*
D52*
Y67000D02*
D03*
Y77000D02*
D03*
Y87000D02*
D03*
Y97000D02*
D03*
D53*
X137399Y77800D02*
D03*
X64500Y36500D02*
D03*
X68500Y40800D02*
D03*
X97000Y35500D02*
D03*
X110500Y66000D02*
D03*
X118000Y83510D02*
D03*
X125250Y13050D02*
D03*
X119000Y12000D02*
D03*
X97500Y42000D02*
D03*
X44000Y90500D02*
D03*
X38000Y91000D02*
D03*
X41000Y110000D02*
D03*
X62330Y107670D02*
D03*
X88690Y23009D02*
D03*
X81019Y64019D02*
D03*
X84650Y67179D02*
D03*
X154000Y113000D02*
D03*
X144500Y108000D02*
D03*
X135039Y114039D02*
D03*
X139360Y91500D02*
D03*
X156700Y82900D02*
D03*
X98900Y97400D02*
D03*
X103700Y74256D02*
D03*
Y63200D02*
D03*
X69800Y12900D02*
D03*
X71500Y107700D02*
D03*
X59200Y70700D02*
D03*
X77300Y114000D02*
D03*
X82400Y84300D02*
D03*
X117700Y153400D02*
D03*
Y114000D02*
D03*
X45216Y167050D02*
D03*
X31866Y162300D02*
D03*
X48100D02*
D03*
X77500Y154100D02*
D03*
X140600Y173500D02*
D03*
D54*
X50382Y140500D02*
D03*
X60618D02*
D03*
X155837Y37000D02*
D03*
X145601D02*
D03*
D55*
X86083Y30984D02*
D03*
Y33543D02*
D03*
Y36102D02*
D03*
Y38661D02*
D03*
Y41220D02*
D03*
Y43780D02*
D03*
Y46339D02*
D03*
Y48898D02*
D03*
Y51457D02*
D03*
Y54016D02*
D03*
X108917Y30984D02*
D03*
Y33543D02*
D03*
Y36102D02*
D03*
Y38661D02*
D03*
Y41220D02*
D03*
Y43780D02*
D03*
Y46339D02*
D03*
Y48898D02*
D03*
Y51457D02*
D03*
Y54016D02*
D03*
D56*
X67618Y61240D02*
D03*
Y57500D02*
D03*
Y53760D02*
D03*
X57382D02*
D03*
Y57500D02*
D03*
Y61240D02*
D03*
D57*
X61759Y173500D02*
D03*
X56241D02*
D03*
X62241Y81500D02*
D03*
X67759D02*
D03*
X68759Y98500D02*
D03*
X63241D02*
D03*
D58*
X62357Y157000D02*
D03*
X56643D02*
D03*
D59*
X99768Y178500D02*
D03*
X106067D02*
D03*
X99768Y132000D02*
D03*
X106067D02*
D03*
X99768Y147500D02*
D03*
X106067D02*
D03*
X99768Y163000D02*
D03*
X106067D02*
D03*
D60*
X99858Y116000D02*
D03*
X107142D02*
D03*
X144358Y71000D02*
D03*
X151642D02*
D03*
D61*
X107579Y98240D02*
D03*
Y90760D02*
D03*
D62*
X117421D02*
D03*
Y94500D02*
D03*
Y98240D02*
D03*
D63*
X149854Y54500D02*
D03*
D64*
X87224Y171240D02*
D03*
Y163760D02*
D03*
X77776Y167500D02*
D03*
X77551Y144740D02*
D03*
X87000Y141000D02*
D03*
Y148480D02*
D03*
D65*
X143858Y136500D02*
D03*
X151142D02*
D03*
D66*
X149559Y154500D02*
D03*
X143441D02*
D03*
M02*
