M48
;Layer_Color=9474304
;FILE_FORMAT=2:5
INCH,TZ
;TYPE=PLATED
T1F00S00C0.01000
T2F00S00C0.03150
T3F00S00C0.03543
T4F00S00C0.04016
T5F00S00C0.05118
T6F00S00C0.08661
%
T01
X72032Y34559
Y41500
X83000Y39500
X87500Y43500
Y35150
X93500Y33000
X109000Y29500
X111500Y37500
X118500Y51000
X87500Y54220
X61000Y56000
X62500Y49000
X67350Y87321
X75500Y84500
X79000Y90000
X90815Y86715
X111500Y87500
X134800Y75550
X142261Y82761
X116500Y124000
X77000Y124500
X75250Y109500
X52500Y106325
X37900Y105300
X33700Y84400
X49500Y149500
X160195Y45268
X165093Y36706
T02
X160000Y132157
Y151843
T03
X60500Y18500
X70500
X80500
X90500
T04
X34500Y34500
X52500Y33500
X62500
X21500Y57000
Y67000
Y77000
Y87000
Y97000
X18500Y138500
X28500
X125500Y9000
T05
X22500Y114500
Y124500
X175500Y100000
Y90000
T06
X98000Y138500
X124500Y139000
Y170500
X98000Y170000
M30
