G04*
G04 #@! TF.GenerationSoftware,Altium Limited,Altium Designer,23.1.1 (15)*
G04*
G04 Layer_Color=0*
%FSLAX25Y25*%
%MOIN*%
G70*
G04*
G04 #@! TF.SameCoordinates,4416291F-A030-49B4-A21B-4109523D90D4*
G04*
G04*
G04 #@! TF.FilePolarity,Positive*
G04*
G01*
G75*
%ADD11C,0.00394*%
%ADD14C,0.01500*%
D11*
X62032Y171000D02*
X65969D01*
X64000Y169032D02*
Y172969D01*
X96189Y165532D02*
Y169469D01*
X94220Y167500D02*
X98157D01*
X131032Y23500D02*
X134969D01*
X133000Y21532D02*
Y25469D01*
X130532Y38500D02*
X134469D01*
X132500Y36532D02*
Y40469D01*
X142500Y94532D02*
Y98469D01*
X140531Y96500D02*
X144468D01*
X43032Y56500D02*
X46969D01*
X45000Y54532D02*
Y58469D01*
X45032Y77500D02*
X48969D01*
X47000Y75532D02*
Y79469D01*
X62032Y153000D02*
X65969D01*
X64000Y151032D02*
Y154969D01*
X160000Y140032D02*
Y143969D01*
X158032Y142000D02*
X161969D01*
X21532Y138500D02*
X25469D01*
X23500Y136532D02*
Y140469D01*
X157500Y61532D02*
Y65469D01*
X155532Y63500D02*
X159469D01*
D14*
X98532Y6500D02*
X102469D01*
X100500Y4531D02*
Y8468D01*
X34032Y155500D02*
X37969D01*
X36000Y153532D02*
Y157469D01*
X32532Y34500D02*
X36469D01*
X34500Y32532D02*
Y36469D01*
X175532Y67000D02*
X179469D01*
X177500Y65032D02*
Y68969D01*
X51031Y27000D02*
X54968D01*
X53000Y25032D02*
Y28969D01*
M02*
