G04*
G04 #@! TF.GenerationSoftware,Altium Limited,Altium Designer,23.1.1 (15)*
G04*
G04 Layer_Color=32896*
%FSLAX25Y25*%
%MOIN*%
G70*
G04*
G04 #@! TF.SameCoordinates,610C7C08-74D4-44FC-BCD4-38041F97A8CA*
G04*
G04*
G04 #@! TF.FilePolarity,Positive*
G04*
G01*
G75*
%ADD64C,0.00197*%
D64*
X55836Y139667D02*
X53170D01*
Y141667D01*
X54503D01*
X53170D01*
Y143666D01*
X57169Y139667D02*
Y143666D01*
X59168D01*
X59835Y143000D01*
Y142333D01*
X59168Y141667D01*
X57169D01*
X59168D01*
X59835Y141000D01*
Y140334D01*
X59168Y139667D01*
X57169D01*
X61168Y144333D02*
X63834D01*
X65166Y143666D02*
Y139667D01*
X67166D01*
X67832Y140334D01*
Y141667D01*
X67166Y142333D01*
X65166D01*
X69165Y139667D02*
Y143666D01*
X70498Y142333D01*
X71831Y143666D01*
Y139667D01*
X73164Y143666D02*
Y139667D01*
X75163D01*
X75830Y140334D01*
Y141667D01*
X75163Y142333D01*
X73164D01*
X74497D02*
X75830Y143666D01*
X158163Y39333D02*
X160829D01*
Y37333D01*
X159496D01*
X160829D01*
Y35334D01*
X156830Y39333D02*
Y35334D01*
X154831D01*
X154165Y36000D01*
Y36667D01*
X154831Y37333D01*
X156830D01*
X154831D01*
X154165Y38000D01*
Y38666D01*
X154831Y39333D01*
X156830D01*
X152832Y34667D02*
X150166D01*
X148833Y39333D02*
Y36667D01*
X147500Y35334D01*
X146167Y36667D01*
Y39333D01*
X144834D02*
Y35334D01*
X142835D01*
X142168Y36000D01*
Y38666D01*
X142835Y39333D01*
X144834D01*
X140835D02*
Y35334D01*
X138836D01*
X138170Y36000D01*
Y38666D01*
X138836Y39333D01*
X140835D01*
X136837Y35334D02*
Y38000D01*
X135504Y39333D01*
X134171Y38000D01*
Y35334D01*
Y37333D01*
X136837D01*
M02*
