G04*
G04 #@! TF.GenerationSoftware,Altium Limited,Altium Designer,23.1.1 (15)*
G04*
G04 Layer_Physical_Order=2*
G04 Layer_Color=16711680*
%FSLAX25Y25*%
%MOIN*%
G70*
G04*
G04 #@! TF.SameCoordinates,2A32F405-7E1A-4497-8D0E-C4D04B09633D*
G04*
G04*
G04 #@! TF.FilePolarity,Positive*
G04*
G01*
G75*
%ADD14C,0.01000*%
%ADD27C,0.06181*%
%ADD28R,0.06181X0.06181*%
G04:AMPARAMS|DCode=31|XSize=39.37mil|YSize=66.93mil|CornerRadius=19.68mil|HoleSize=0mil|Usage=FLASHONLY|Rotation=270.000|XOffset=0mil|YOffset=0mil|HoleType=Round|Shape=RoundedRectangle|*
%AMROUNDEDRECTD31*
21,1,0.03937,0.02756,0,0,270.0*
21,1,0.00000,0.06693,0,0,270.0*
1,1,0.03937,-0.01378,0.00000*
1,1,0.03937,-0.01378,0.00000*
1,1,0.03937,0.01378,0.00000*
1,1,0.03937,0.01378,0.00000*
%
%ADD31ROUNDEDRECTD31*%
%ADD38R,0.07677X0.07677*%
%ADD39C,0.07677*%
%ADD40R,0.07677X0.07677*%
%ADD41C,0.05906*%
%ADD42R,0.05906X0.05906*%
%ADD43R,0.05984X0.05984*%
%ADD44C,0.05984*%
%ADD45C,0.03000*%
%ADD46R,0.03367X0.05339*%
%ADD47R,0.02559X0.06004*%
%ADD48R,0.05118X0.03347*%
%ADD49R,0.04000X0.05315*%
%ADD50R,0.05512X0.03937*%
%ADD51O,0.01000X0.08268*%
%ADD52R,0.04152X0.05339*%
%ADD53R,0.04528X0.05315*%
D14*
X115100Y97686D02*
Y100700D01*
X117686Y95100D02*
X122000D01*
X115100Y97686D02*
X117686Y95100D01*
X118000Y102177D02*
Y105600D01*
Y100500D02*
Y102177D01*
X135750Y66700D02*
Y67700D01*
X118000Y100500D02*
X120800Y97700D01*
X134750Y66700D02*
X135750D01*
X120800Y97700D02*
X125100D01*
X118000Y67500D02*
X126246D01*
X127046Y66700D02*
X134750D01*
X118500Y71500D02*
X121052Y74052D01*
X118000Y71500D02*
X118500D01*
X126246Y67500D02*
X127046Y66700D01*
X121052Y74052D02*
X123431D01*
X126100Y76721D01*
X111500Y80000D02*
X111883Y80383D01*
Y80983D01*
X111900Y81000D01*
X110959Y80000D02*
X111500D01*
X107319Y81797D02*
X109162D01*
X110959Y80000D01*
X106016Y83100D02*
X107319Y81797D01*
X92500Y103812D02*
Y104353D01*
X93220Y105073D01*
Y113417D01*
X78205Y88905D02*
Y91915D01*
X88345Y102055D01*
X92256Y98612D02*
X95780Y102136D01*
X78000Y88700D02*
X78205Y88905D01*
X95780Y102136D02*
Y113417D01*
X96620Y98400D02*
X98282D01*
X93220Y95000D02*
X96620Y98400D01*
X112300Y95100D02*
X112650Y94750D01*
X93220Y90583D02*
Y95000D01*
X108628Y105500D02*
X112500D01*
X104798Y105000D02*
X108128D01*
X108628Y105500D01*
X100898Y108900D02*
X104798Y105000D01*
X106016Y113417D02*
X110485D01*
X112737Y111166D01*
X123000Y109200D02*
X126800Y113000D01*
X130500D01*
X128000Y102177D02*
Y103900D01*
X133100Y109000D02*
Y114900D01*
X126500Y121500D02*
X133100Y114900D01*
X128000Y103900D02*
X133100Y109000D01*
X105763Y145178D02*
Y147111D01*
Y145178D02*
X106146Y144796D01*
X104374Y148500D02*
X105763Y147111D01*
X105000Y141000D02*
X105566D01*
X106408Y141842D01*
X100300Y144000D02*
X101687Y142613D01*
X112146Y143342D02*
Y144000D01*
X110646Y141842D02*
X112146Y143342D01*
X102803Y142613D02*
X104449Y140966D01*
X100118Y148500D02*
X104374D01*
X106408Y141842D02*
X110646D01*
X101687Y142613D02*
X102803D01*
X104449Y140966D02*
X104990D01*
X96299Y134939D02*
X109861D01*
X93437Y137800D02*
X96299Y134939D01*
X109861D02*
X118300Y126500D01*
X89500Y137800D02*
X93437D01*
X79500Y135060D02*
X82900Y138460D01*
X81300Y140432D02*
Y142000D01*
X99100D02*
X102800Y138300D01*
X81300Y142000D02*
X99100D01*
X82900Y138460D02*
Y140400D01*
X77684Y136816D02*
X81300Y140432D01*
X82900Y140400D02*
X93100D01*
X58086Y63700D02*
X63000D01*
X57733Y66923D02*
Y69077D01*
X56509Y70115D02*
Y73509D01*
X56133Y65653D02*
Y69740D01*
X63300Y74374D02*
Y109900D01*
X66188Y73855D02*
X68155D01*
X60333Y68000D02*
X66188Y73855D01*
X59256Y70600D02*
X59526D01*
X59356Y65300D02*
X67200D01*
X68155Y73855D02*
X73627Y79327D01*
X57733Y69077D02*
X59256Y70600D01*
X56509Y73509D02*
X57500Y74500D01*
X56133Y69740D02*
X56509Y70115D01*
X56133Y65653D02*
X58086Y63700D01*
X59526Y70600D02*
X63300Y74374D01*
X57733Y66923D02*
X59356Y65300D01*
X63300Y109900D02*
X64900Y111500D01*
X67200Y65300D02*
X77000Y55500D01*
X73627Y79327D02*
Y96146D01*
X63000Y63700D02*
X76900Y49800D01*
X64900Y124200D02*
X65244D01*
Y124500D01*
X64900Y111500D02*
Y124200D01*
X76900Y49800D02*
X108400D01*
X73627Y96146D02*
X85543Y108062D01*
X142900Y78508D02*
Y112524D01*
X134750Y66700D02*
X135750Y67700D01*
X132250Y64200D02*
X134750Y66700D01*
X70756Y126400D02*
X75900D01*
X70756D02*
Y128600D01*
X112650Y94750D02*
X114900Y92500D01*
X112300Y95100D02*
Y99017D01*
X111100Y68100D02*
Y70000D01*
Y52500D02*
Y68100D01*
X70756Y120056D02*
Y124500D01*
X69000Y118300D02*
X70756Y120056D01*
X69000Y114000D02*
Y118300D01*
X118000Y105600D02*
X120200Y107800D01*
Y123346D01*
X116500D02*
X120200D01*
X142870Y112524D02*
X142900D01*
X143700Y123500D01*
X130500Y136700D02*
X143700Y123500D01*
X96800Y136700D02*
X130500D01*
X93100Y140400D02*
X96800Y136700D01*
X79500Y130000D02*
Y135060D01*
X75900Y126400D02*
X79500Y130000D01*
X70756Y124500D02*
Y126400D01*
X135750Y67700D02*
Y70500D01*
X114246Y116654D02*
X116500D01*
X108500Y122400D02*
X114246Y116654D01*
X80000Y122400D02*
X108500D01*
X76800Y119200D02*
X80000Y122400D01*
X76800Y111000D02*
Y119200D01*
X75550Y109750D02*
X76800Y111000D01*
X68250Y109750D02*
X75550D01*
X64947Y106447D02*
X68250Y109750D01*
X64947Y99947D02*
Y106447D01*
Y99947D02*
X75094D01*
X82984Y107837D01*
Y113417D01*
X77000Y55500D02*
Y66900D01*
X75319Y68581D02*
X77000Y66900D01*
X75319Y68581D02*
Y94960D01*
X88259Y107900D01*
X90661D01*
Y113417D01*
X103457D02*
Y120300D01*
X81300D02*
X103457D01*
X81300Y112300D02*
Y120300D01*
X73000Y104000D02*
X81300Y112300D01*
X69000Y104000D02*
X73000D01*
X100898Y108900D02*
Y113417D01*
X106016Y83100D02*
Y90583D01*
X126100Y76721D02*
X130621D01*
X133000Y79100D01*
Y80823D01*
X129250Y70500D02*
Y75121D01*
X134600D01*
X135380Y75900D01*
Y79770D01*
X140000Y84391D01*
Y91900D01*
X138100Y93800D02*
X140000Y91900D01*
X125750Y56050D02*
Y61500D01*
X57500Y94500D02*
Y98574D01*
X50400Y105674D02*
X57500Y98574D01*
X50400Y105674D02*
Y119300D01*
X85543Y108062D02*
Y113417D01*
X125100Y97700D02*
X127700Y95100D01*
X98339Y103761D02*
Y113417D01*
Y103761D02*
X101400Y100700D01*
X115100D01*
X130600Y87800D02*
X137400D01*
X108400Y49800D02*
X111100Y52500D01*
Y70000D02*
X117300Y76200D01*
X123000D01*
Y80823D01*
X128000D02*
Y86300D01*
X125000Y89300D02*
X128000Y86300D01*
X111100Y89300D02*
X125000D01*
X107900Y92500D02*
X111100Y89300D01*
X107900Y92500D02*
Y95817D01*
X101700D02*
X107900D01*
X100898Y95014D02*
X101700Y95817D01*
X100898Y90583D02*
Y95014D01*
X103457Y75743D02*
X111100Y68100D01*
X103457Y75743D02*
Y90583D01*
X133000Y100500D02*
Y102177D01*
X130800Y98300D02*
X133000Y100500D01*
X98899Y99017D02*
X112300D01*
X98282Y98400D02*
X98899Y99017D01*
X82984Y85984D02*
Y90583D01*
X77000Y80000D02*
X82984Y85984D01*
X77000Y69600D02*
Y80000D01*
Y69600D02*
X81100Y65500D01*
Y55000D02*
Y65500D01*
Y55000D02*
X84700Y51400D01*
X102900D01*
X107000Y55500D01*
X98339Y90583D02*
Y94938D01*
X100818Y97417D01*
X110400D01*
Y92500D02*
Y97417D01*
Y92500D02*
X112200D01*
X113800Y90900D01*
X132454D01*
Y94054D01*
X135400Y97000D01*
Y123600D01*
X132500Y126500D02*
X135400Y123600D01*
X118300Y126500D02*
X132500D01*
X112300Y95100D02*
X113000D01*
X114900Y92500D02*
X129900D01*
X130800Y93400D01*
Y98300D01*
X142870Y78508D02*
X142900D01*
X123000Y102177D02*
Y109200D01*
X51000Y91000D02*
Y99500D01*
Y91000D02*
X57500Y84500D01*
X117854Y141154D02*
Y144000D01*
X115000Y138300D02*
X117854Y141154D01*
X102800Y138300D02*
X115000D01*
X77684Y133784D02*
Y136816D01*
X74400Y130500D02*
X77684Y133784D01*
X66643Y130500D02*
X74400D01*
X66643D02*
Y136500D01*
X95780Y80220D02*
Y90583D01*
Y80220D02*
X97000Y79000D01*
Y55500D02*
Y79000D01*
X111154Y123346D02*
X116500D01*
X104500Y130000D02*
X111154Y123346D01*
X89882Y148500D02*
X93200D01*
X97700Y144000D01*
X100300D01*
X139258Y78508D02*
X142870D01*
X136980Y76230D02*
X139258Y78508D01*
X136980Y75104D02*
Y76230D01*
X135750Y73875D02*
X136980Y75104D01*
X135750Y70500D02*
Y73875D01*
X57500Y124500D02*
X61600Y128600D01*
X70756D01*
X72357Y136500D02*
X75000D01*
X77600Y139100D01*
Y143800D01*
X82300Y148500D01*
X89882D01*
X70756Y124500D02*
X99000D01*
X104500Y130000D01*
X85543Y83457D02*
Y90583D01*
Y83457D02*
X87000Y82000D01*
Y55500D02*
Y82000D01*
X132250Y61500D02*
Y64200D01*
D27*
X57500Y74500D02*
D03*
Y84500D02*
D03*
Y94500D02*
D03*
Y104500D02*
D03*
Y114500D02*
D03*
D28*
Y124500D02*
D03*
D31*
X142870Y78508D02*
D03*
Y112524D02*
D03*
D38*
X126500Y121500D02*
D03*
D39*
Y131500D02*
D03*
X94500Y130000D02*
D03*
X84500D02*
D03*
X82000Y74000D02*
D03*
D40*
X104500Y130000D02*
D03*
X92000Y74000D02*
D03*
D41*
X69000Y84000D02*
D03*
Y94000D02*
D03*
Y104000D02*
D03*
D42*
Y114000D02*
D03*
D43*
X117000Y55500D02*
D03*
D44*
X107000D02*
D03*
X97000D02*
D03*
X87000D02*
D03*
X77000D02*
D03*
D45*
X122000Y95100D02*
D03*
X118000Y67500D02*
D03*
Y71500D02*
D03*
X111500Y80000D02*
D03*
X92500Y103812D02*
D03*
X88345Y102055D02*
D03*
X92256Y98612D02*
D03*
X112500Y105500D02*
D03*
X112737Y111166D02*
D03*
X130500Y113000D02*
D03*
X106146Y144796D02*
D03*
X104990Y140966D02*
D03*
X89500Y137800D02*
D03*
X60333Y68000D02*
D03*
X138100Y93800D02*
D03*
X125750Y56050D02*
D03*
X50400Y119300D02*
D03*
X78000Y88700D02*
D03*
X127700Y95100D02*
D03*
X130600Y87800D02*
D03*
X137400D02*
D03*
X113000Y95100D02*
D03*
X51000Y99500D02*
D03*
D46*
X132250Y61500D02*
D03*
X125750D02*
D03*
X135750Y70500D02*
D03*
X129250D02*
D03*
D47*
X118000Y102177D02*
D03*
X123000D02*
D03*
X128000D02*
D03*
X133000D02*
D03*
Y80823D02*
D03*
X128000D02*
D03*
X123000D02*
D03*
X118000D02*
D03*
D48*
X116500Y116654D02*
D03*
Y123346D02*
D03*
D49*
X70756Y124500D02*
D03*
X65244D02*
D03*
X112146Y144000D02*
D03*
D50*
X100118Y148500D02*
D03*
X89882D02*
D03*
D51*
X106016Y90583D02*
D03*
X103457D02*
D03*
X100898D02*
D03*
X98339D02*
D03*
X95780D02*
D03*
X93220D02*
D03*
X90661D02*
D03*
X88102D02*
D03*
X85543D02*
D03*
X82984D02*
D03*
X106016Y113417D02*
D03*
X103457D02*
D03*
X100898D02*
D03*
X98339D02*
D03*
X95780D02*
D03*
X93220D02*
D03*
X90661D02*
D03*
X88102D02*
D03*
X85543D02*
D03*
X82984D02*
D03*
D52*
X72357Y136500D02*
D03*
X66643D02*
D03*
D53*
X117854Y144000D02*
D03*
M02*
