G04*
G04 #@! TF.GenerationSoftware,Altium Limited,Altium Designer,23.1.1 (15)*
G04*
G04 Layer_Color=8388736*
%FSLAX25Y25*%
%MOIN*%
G70*
G04*
G04 #@! TF.SameCoordinates,8F56B089-623F-4E0B-BF77-A0BA02D5B38D*
G04*
G04*
G04 #@! TF.FilePolarity,Negative*
G04*
G01*
G75*
%ADD16R,0.03567X0.05157*%
%ADD17R,0.03963X0.05544*%
%ADD18R,0.03150X0.03150*%
%ADD19R,0.04546X0.05363*%
%ADD21R,0.04724X0.04724*%
%ADD22R,0.03543X0.04331*%
%ADD23R,0.03543X0.04724*%
%ADD26R,0.06804X0.03359*%
%ADD27R,0.04800X0.06115*%
%ADD28R,0.04147X0.05918*%
%ADD29R,0.06706X0.09068*%
%ADD30R,0.09068X0.06706*%
%ADD31R,0.08477X0.08477*%
%ADD32C,0.08477*%
%ADD33C,0.05118*%
%ADD34R,0.05118X0.05118*%
%ADD35C,0.12611*%
%ADD36C,0.06706*%
%ADD37R,0.06706X0.06706*%
%ADD38C,0.06181*%
%ADD39R,0.06784X0.06784*%
%ADD40C,0.06784*%
%ADD41R,0.06181X0.06181*%
%ADD42C,0.03800*%
D16*
X128945Y64000D02*
D03*
X135055D02*
D03*
D17*
X129256Y78000D02*
D03*
X136744D02*
D03*
D18*
X158224Y34500D02*
D03*
X148776Y30760D02*
D03*
Y38240D02*
D03*
D19*
X73448Y181000D02*
D03*
X66552D02*
D03*
X136448Y23500D02*
D03*
X129552D02*
D03*
X165552Y66000D02*
D03*
X172448D02*
D03*
D21*
X136634Y38500D02*
D03*
X128366D02*
D03*
X47634Y167000D02*
D03*
X39366D02*
D03*
D22*
X46480Y50000D02*
D03*
X39000D02*
D03*
D23*
X47134Y63500D02*
D03*
X38866D02*
D03*
D26*
X122823Y110500D02*
D03*
Y105500D02*
D03*
Y100500D02*
D03*
Y95500D02*
D03*
X144177D02*
D03*
Y100500D02*
D03*
Y105500D02*
D03*
Y110500D02*
D03*
D27*
X134756Y51000D02*
D03*
X129244D02*
D03*
D28*
X172346Y53000D02*
D03*
X165654D02*
D03*
X73346Y168500D02*
D03*
X66654D02*
D03*
D29*
X72811Y139000D02*
D03*
X49189D02*
D03*
D30*
X61000Y120496D02*
D03*
D31*
X151500Y135500D02*
D03*
X175500Y90000D02*
D03*
D32*
X151500Y145500D02*
D03*
Y155500D02*
D03*
X175500Y100000D02*
D03*
D33*
X60685Y94000D02*
D03*
D34*
X41000D02*
D03*
D35*
X92500Y143500D02*
D03*
Y175000D02*
D03*
X118500Y143500D02*
D03*
Y175000D02*
D03*
D36*
X60500Y18500D02*
D03*
X70500D02*
D03*
X80500D02*
D03*
D37*
X90500D02*
D03*
D38*
X125500Y9000D02*
D03*
X34500Y34500D02*
D03*
X59500Y31000D02*
D03*
D39*
X21000Y57000D02*
D03*
D40*
Y67000D02*
D03*
Y77000D02*
D03*
Y87000D02*
D03*
Y97000D02*
D03*
D41*
X49500Y31000D02*
D03*
D42*
X114500Y31500D02*
D03*
X110000Y22500D02*
D03*
X101567Y33484D02*
D03*
X102500Y27500D02*
D03*
X62000Y43500D02*
D03*
X120800Y68600D02*
D03*
X120775Y76500D02*
D03*
X119985Y86015D02*
D03*
X116077Y73423D02*
D03*
X23000Y45000D02*
D03*
X73000Y32500D02*
D03*
X92129Y46706D02*
D03*
X148500Y82752D02*
D03*
X171500Y77500D02*
D03*
X95050Y82750D02*
D03*
X94250Y103189D02*
D03*
X132000Y126000D02*
D03*
X66654Y148789D02*
D03*
X51500Y154000D02*
D03*
X69000Y108000D02*
D03*
X60015Y79015D02*
D03*
X93200Y157400D02*
D03*
X95600Y125100D02*
D03*
Y113400D02*
D03*
X104800Y147700D02*
D03*
X120900Y58700D02*
D03*
X56900Y41200D02*
D03*
X132300Y90400D02*
D03*
M02*
