G04*
G04 #@! TF.GenerationSoftware,Altium Limited,Altium Designer,23.1.1 (15)*
G04*
G04 Layer_Color=16711935*
%FSLAX25Y25*%
%MOIN*%
G70*
G04*
G04 #@! TF.SameCoordinates,21B55FED-B8B4-48E4-904C-F60C8F1E3AA0*
G04*
G04*
G04 #@! TF.FilePolarity,Positive*
G04*
G01*
G75*
%ADD12C,0.00394*%
%ADD13C,0.00787*%
%ADD14C,0.01500*%
%ADD67C,0.00197*%
D12*
X54031Y75500D02*
X57969D01*
X56000Y73531D02*
Y77469D01*
X145000Y104031D02*
Y107969D01*
X143031Y106000D02*
X146969D01*
X66031Y62500D02*
X69968D01*
X68000Y60532D02*
Y64469D01*
X116000Y61532D02*
Y65469D01*
X114031Y63500D02*
X117969D01*
X115500Y69032D02*
Y72969D01*
X113532Y71000D02*
X117469D01*
X98500Y71032D02*
Y74969D01*
X96531Y73000D02*
X100469D01*
X99000Y63532D02*
Y67469D01*
X97031Y65500D02*
X100969D01*
X73531Y78500D02*
X77469D01*
X75500Y76531D02*
Y80469D01*
X145000Y97031D02*
Y100968D01*
X143031Y99000D02*
X146968D01*
D13*
X131795Y117834D02*
X145205D01*
Y125166D01*
X131795D02*
X145205D01*
X131795Y117834D02*
Y125166D01*
X139673Y94248D02*
X150327D01*
X139673Y87752D02*
Y94248D01*
Y87752D02*
X150327D01*
Y94248D01*
X91795Y78334D02*
Y85666D01*
X105205D01*
Y78334D02*
Y85666D01*
X91795Y78334D02*
X105205D01*
X110752Y114398D02*
X117248D01*
X110752D02*
Y126602D01*
X117248D01*
Y114398D02*
Y126602D01*
X122898Y68752D02*
Y75248D01*
X135102D01*
Y68752D02*
Y75248D01*
X122898Y68752D02*
X135102D01*
D14*
X118162Y130457D02*
Y137543D01*
X100839Y130457D02*
X118162D01*
X100839D02*
Y137543D01*
X118162D01*
X109500Y132031D02*
Y135968D01*
X107532Y134000D02*
X111469D01*
D67*
X53047Y69988D02*
Y81012D01*
X58953Y69988D02*
Y81012D01*
X53047D02*
X58953D01*
X53047Y69988D02*
X58953D01*
X139488Y103047D02*
X150512D01*
X139488Y108953D02*
X150512D01*
X139488Y103047D02*
Y108953D01*
X150512Y103047D02*
Y108953D01*
X74496Y55807D02*
Y69193D01*
X61504Y55807D02*
Y69193D01*
Y55807D02*
X74496D01*
X61504Y69193D02*
X74496D01*
X75547Y88524D02*
X106453D01*
Y116476D01*
X75547D02*
X106453D01*
X75547Y88524D02*
Y116476D01*
X109307Y59563D02*
X122693D01*
X109307Y67437D02*
X122693D01*
X109307Y59563D02*
Y67437D01*
X122693Y59563D02*
Y67437D01*
X108807Y67063D02*
X122193D01*
X108807Y74937D02*
X122193D01*
X108807Y67063D02*
Y74937D01*
X122193Y67063D02*
Y74937D01*
X92988Y70047D02*
X104012D01*
X92988Y75953D02*
X104012D01*
X92988Y70047D02*
Y75953D01*
X104012Y70047D02*
Y75953D01*
X93488Y62547D02*
X104512D01*
X93488Y68453D02*
X104512D01*
X93488Y62547D02*
Y68453D01*
X104512Y62547D02*
Y68453D01*
X113173Y80835D02*
Y110165D01*
Y80835D02*
X134827D01*
Y110165D01*
X113173D02*
X134827D01*
X78453Y72988D02*
Y84012D01*
X72547Y72988D02*
Y84012D01*
Y72988D02*
X78453D01*
X72547Y84012D02*
X78453D01*
X139488Y102346D02*
X150512D01*
X139488Y95654D02*
X150512D01*
Y102346D01*
X139488Y95654D02*
Y102346D01*
M02*
