G04*
G04 #@! TF.GenerationSoftware,Altium Limited,Altium Designer,23.1.1 (15)*
G04*
G04 Layer_Color=8388736*
%FSLAX25Y25*%
%MOIN*%
G70*
G04*
G04 #@! TF.SameCoordinates,610C7C08-74D4-44FC-BCD4-38041F97A8CA*
G04*
G04*
G04 #@! TF.FilePolarity,Negative*
G04*
G01*
G75*
%ADD17R,0.04546X0.05363*%
%ADD19R,0.04724X0.04724*%
%ADD20R,0.05906X0.12992*%
%ADD21R,0.05906X0.04724*%
%ADD22R,0.03543X0.04331*%
%ADD23R,0.03543X0.04724*%
%ADD27R,0.06804X0.03359*%
%ADD28R,0.03359X0.06804*%
%ADD29R,0.04800X0.06115*%
%ADD30R,0.05131X0.03359*%
%ADD31R,0.04147X0.05918*%
%ADD32C,0.12611*%
%ADD33C,0.06706*%
%ADD34R,0.06706X0.06706*%
%ADD35R,0.08477X0.08477*%
%ADD36C,0.08477*%
%ADD37C,0.06181*%
%ADD38R,0.06784X0.06784*%
%ADD39C,0.06784*%
%ADD40R,0.05118X0.05118*%
%ADD41C,0.05118*%
%ADD42R,0.06181X0.06181*%
%ADD43C,0.03800*%
D17*
X67448Y171000D02*
D03*
X60552D02*
D03*
X136448Y23500D02*
D03*
X129552D02*
D03*
X165552Y66000D02*
D03*
X172448D02*
D03*
D19*
X136634Y38500D02*
D03*
X128366D02*
D03*
X40134Y155500D02*
D03*
X31866D02*
D03*
D20*
X155098Y96500D02*
D03*
D21*
X129902Y87445D02*
D03*
Y96500D02*
D03*
Y105555D02*
D03*
D22*
X48740Y56500D02*
D03*
X41260D02*
D03*
D23*
X51134Y77500D02*
D03*
X42866D02*
D03*
D27*
X90323Y77000D02*
D03*
Y72000D02*
D03*
Y67000D02*
D03*
Y62000D02*
D03*
X111677D02*
D03*
Y67000D02*
D03*
Y72000D02*
D03*
Y77000D02*
D03*
X89823Y111000D02*
D03*
Y106000D02*
D03*
Y101000D02*
D03*
Y96000D02*
D03*
X111177D02*
D03*
Y101000D02*
D03*
Y106000D02*
D03*
Y111000D02*
D03*
D28*
X52500Y96823D02*
D03*
X57500D02*
D03*
X62500D02*
D03*
X67500D02*
D03*
Y118177D02*
D03*
X62500D02*
D03*
X57500D02*
D03*
X52500D02*
D03*
D29*
X134756Y51000D02*
D03*
X129244D02*
D03*
D30*
X149366Y32280D02*
D03*
Y24720D02*
D03*
X157634Y28500D02*
D03*
D31*
X172346Y53000D02*
D03*
X165654D02*
D03*
X65346Y157000D02*
D03*
X58654D02*
D03*
D32*
X98000Y138500D02*
D03*
Y170000D02*
D03*
X124500Y139000D02*
D03*
Y170500D02*
D03*
D33*
X60500Y18500D02*
D03*
X70500D02*
D03*
X80500D02*
D03*
D34*
X90500D02*
D03*
D35*
X175500Y90000D02*
D03*
X22500Y114500D02*
D03*
D36*
X175500Y100000D02*
D03*
X22500Y124500D02*
D03*
D37*
X125500Y9000D02*
D03*
X34500Y34500D02*
D03*
X18500Y138500D02*
D03*
X62500Y33500D02*
D03*
D38*
X21500Y57000D02*
D03*
D39*
Y67000D02*
D03*
Y77000D02*
D03*
Y87000D02*
D03*
Y97000D02*
D03*
D40*
X160000Y132157D02*
D03*
D41*
Y151843D02*
D03*
D42*
X28500Y138500D02*
D03*
X52500Y33500D02*
D03*
D43*
X75500Y84500D02*
D03*
X165093Y36706D02*
D03*
X160195Y45268D02*
D03*
X111500Y37500D02*
D03*
X118500Y51000D02*
D03*
X142261Y82761D02*
D03*
X134800Y75550D02*
D03*
X49500Y149500D02*
D03*
X52500Y106325D02*
D03*
X79000Y90000D02*
D03*
X90815Y86715D02*
D03*
X77000Y124500D02*
D03*
X75250Y109500D02*
D03*
X111500Y87500D02*
D03*
X67350Y87321D02*
D03*
X72032Y41500D02*
D03*
X62500Y49000D02*
D03*
X61000Y56000D02*
D03*
X72032Y34559D02*
D03*
X83000Y39500D02*
D03*
X116500Y124000D02*
D03*
X87500Y54220D02*
D03*
Y43500D02*
D03*
Y35150D02*
D03*
X109000Y29500D02*
D03*
X93500Y33000D02*
D03*
X33700Y84400D02*
D03*
X37900Y105300D02*
D03*
M02*
