G04*
G04 #@! TF.GenerationSoftware,Altium Limited,Altium Designer,23.1.1 (15)*
G04*
G04 Layer_Color=16711935*
%FSLAX25Y25*%
%MOIN*%
G70*
G04*
G04 #@! TF.SameCoordinates,4416291F-A030-49B4-A21B-4109523D90D4*
G04*
G04*
G04 #@! TF.FilePolarity,Negative*
G04*
G01*
G75*
%ADD23R,0.03543X0.04724*%
%ADD30R,0.04800X0.06115*%
%ADD32R,0.05131X0.03359*%
%ADD34R,0.06824X0.06824*%
%ADD35C,0.06824*%
%ADD36R,0.08477X0.08477*%
%ADD37C,0.08477*%
%ADD38C,0.06181*%
%ADD39C,0.12611*%
%ADD40R,0.06784X0.06784*%
%ADD41C,0.06784*%
%ADD42R,0.05118X0.05118*%
%ADD43C,0.05118*%
%ADD44R,0.06181X0.06181*%
%ADD45C,0.03800*%
G04:AMPARAMS|DCode=56|XSize=43.31mil|YSize=23.62mil|CornerRadius=2.01mil|HoleSize=0mil|Usage=FLASHONLY|Rotation=180.000|XOffset=0mil|YOffset=0mil|HoleType=Round|Shape=RoundedRectangle|*
%AMROUNDEDRECTD56*
21,1,0.04331,0.01961,0,0,180.0*
21,1,0.03929,0.02362,0,0,180.0*
1,1,0.00402,-0.01965,0.00980*
1,1,0.00402,0.01965,0.00980*
1,1,0.00402,0.01965,-0.00980*
1,1,0.00402,-0.01965,-0.00980*
%
%ADD56ROUNDEDRECTD56*%
%ADD57R,0.04349X0.05339*%
%ADD58R,0.04152X0.05339*%
%ADD60R,0.03740X0.05512*%
%ADD66R,0.03378X0.04969*%
%ADD67R,0.06312X0.04737*%
%ADD68O,0.09068X0.01800*%
%ADD69R,0.04540X0.06115*%
%ADD70R,0.05524X0.03162*%
%ADD71R,0.05524X0.02300*%
%ADD72R,0.05328X0.06115*%
%ADD73R,0.04147X0.03162*%
%ADD74R,0.04934X0.06509*%
D23*
X151634Y121000D02*
D03*
X143366D02*
D03*
D30*
X144146Y54500D02*
D03*
D32*
X45634Y77780D02*
D03*
Y70220D02*
D03*
X37366Y74000D02*
D03*
D34*
X79236Y19134D02*
D03*
D35*
X94000Y65000D02*
D03*
X108764Y19134D02*
D03*
D36*
X175500Y90000D02*
D03*
X22500Y114500D02*
D03*
D37*
X175500Y100000D02*
D03*
X22500Y124500D02*
D03*
D38*
X100500Y6500D02*
D03*
X34500Y34500D02*
D03*
X18500Y138500D02*
D03*
X177500Y67000D02*
D03*
X58000Y27000D02*
D03*
D39*
X125000Y137000D02*
D03*
Y168500D02*
D03*
D40*
X21500Y57000D02*
D03*
D41*
Y67000D02*
D03*
Y77000D02*
D03*
Y87000D02*
D03*
Y97000D02*
D03*
D42*
X160000Y132157D02*
D03*
D43*
Y151843D02*
D03*
D44*
X28500Y138500D02*
D03*
X48000Y27000D02*
D03*
D45*
X137399Y77800D02*
D03*
X64500Y36500D02*
D03*
X68500Y40800D02*
D03*
X97000Y35500D02*
D03*
X110500Y66000D02*
D03*
X118000Y83510D02*
D03*
X125250Y13050D02*
D03*
X119000Y12000D02*
D03*
X97500Y42000D02*
D03*
X44000Y90500D02*
D03*
X38000Y91000D02*
D03*
X41000Y110000D02*
D03*
X62330Y107670D02*
D03*
X88690Y23009D02*
D03*
X81019Y64019D02*
D03*
X84650Y67179D02*
D03*
X154000Y113000D02*
D03*
X144500Y108000D02*
D03*
X135039Y114039D02*
D03*
X139360Y91500D02*
D03*
X156700Y82900D02*
D03*
X98900Y97400D02*
D03*
X103700Y74256D02*
D03*
Y63200D02*
D03*
X69800Y12900D02*
D03*
X71500Y107700D02*
D03*
X59200Y70700D02*
D03*
X77300Y114000D02*
D03*
X82400Y84300D02*
D03*
X117700Y153400D02*
D03*
Y114000D02*
D03*
X45216Y167050D02*
D03*
X31866Y162300D02*
D03*
X48100D02*
D03*
X77500Y154100D02*
D03*
X140600Y173500D02*
D03*
D56*
X67618Y61240D02*
D03*
Y57500D02*
D03*
Y53760D02*
D03*
X57382D02*
D03*
Y57500D02*
D03*
Y61240D02*
D03*
D57*
X61759Y173500D02*
D03*
X56241D02*
D03*
X62241Y81500D02*
D03*
X67759D02*
D03*
X68759Y98500D02*
D03*
X63241D02*
D03*
D58*
X62357Y157000D02*
D03*
X56643D02*
D03*
D60*
X99858Y116000D02*
D03*
X107142D02*
D03*
X144358Y71000D02*
D03*
X151642D02*
D03*
D66*
X149559Y154500D02*
D03*
X143441D02*
D03*
D67*
X50382Y140500D02*
D03*
X60618D02*
D03*
X155837Y37000D02*
D03*
X145601D02*
D03*
D68*
X86083Y30984D02*
D03*
Y33543D02*
D03*
Y36102D02*
D03*
Y38661D02*
D03*
Y41220D02*
D03*
Y43780D02*
D03*
Y46339D02*
D03*
Y48898D02*
D03*
Y51457D02*
D03*
Y54016D02*
D03*
X108917Y30984D02*
D03*
Y33543D02*
D03*
Y36102D02*
D03*
Y38661D02*
D03*
Y41220D02*
D03*
Y43780D02*
D03*
Y46339D02*
D03*
Y48898D02*
D03*
Y51457D02*
D03*
Y54016D02*
D03*
D69*
X99768Y178500D02*
D03*
X106067D02*
D03*
X99768Y132000D02*
D03*
X106067D02*
D03*
X99768Y147500D02*
D03*
X106067D02*
D03*
X99768Y163000D02*
D03*
X106067D02*
D03*
D70*
X107579Y98240D02*
D03*
Y90760D02*
D03*
D71*
X117421D02*
D03*
Y94500D02*
D03*
Y98240D02*
D03*
D72*
X149854Y54500D02*
D03*
D73*
X87224Y171240D02*
D03*
Y163760D02*
D03*
X77776Y167500D02*
D03*
X77551Y144740D02*
D03*
X87000Y141000D02*
D03*
Y148480D02*
D03*
D74*
X143858Y136500D02*
D03*
X151142D02*
D03*
M02*
