G04*
G04 #@! TF.GenerationSoftware,Altium Limited,Altium Designer,23.1.1 (15)*
G04*
G04 Layer_Physical_Order=1*
G04 Layer_Color=255*
%FSLAX25Y25*%
%MOIN*%
G70*
G04*
G04 #@! TF.SameCoordinates,610C7C08-74D4-44FC-BCD4-38041F97A8CA*
G04*
G04*
G04 #@! TF.FilePolarity,Positive*
G04*
G01*
G75*
%ADD15C,0.01500*%
%ADD16R,0.06004X0.02559*%
%ADD17R,0.04546X0.05363*%
%ADD18R,0.02559X0.06004*%
%ADD19R,0.04724X0.04724*%
%ADD20R,0.05906X0.12992*%
%ADD21R,0.05906X0.04724*%
%ADD22R,0.03543X0.04331*%
%ADD23R,0.03543X0.04724*%
%ADD24R,0.04000X0.05315*%
%ADD25R,0.04331X0.02559*%
%ADD26R,0.03347X0.05118*%
%ADD37C,0.06181*%
%ADD40R,0.05118X0.05118*%
%ADD41C,0.05118*%
%ADD42R,0.06181X0.06181*%
%ADD44C,0.11811*%
%ADD45C,0.05906*%
%ADD46R,0.05906X0.05906*%
%ADD47R,0.07677X0.07677*%
%ADD48C,0.07677*%
%ADD49R,0.05984X0.05984*%
%ADD50C,0.05984*%
%ADD51C,0.03000*%
D15*
X75250Y84750D02*
X75500Y84500D01*
X75250Y84750D02*
Y109500D01*
X78100Y91306D02*
Y118000D01*
Y91306D02*
X79000Y90406D01*
X161080Y32280D02*
X163178Y34378D01*
Y34385D02*
X165093Y36300D01*
X170256Y39556D02*
X175370Y44670D01*
X163178Y34378D02*
Y34385D01*
X136448Y28500D02*
X147504Y39556D01*
X165093Y36300D02*
Y36706D01*
X147504Y39556D02*
X170256D01*
X149366Y32280D02*
X161080D01*
X160195Y45268D02*
X160482Y45555D01*
X164764Y42418D02*
X172346Y50000D01*
X148346Y44600D02*
X150529Y42418D01*
X136634Y44600D02*
X148346D01*
X160482Y45555D02*
X162408D01*
X165654Y48800D01*
X150529Y42418D02*
X164764D01*
X165654Y48800D02*
Y59400D01*
X83000Y39500D02*
X109094D01*
X111094Y37500D01*
X111500D01*
X124450Y51529D02*
Y56650D01*
X87500Y43500D02*
X116421D01*
X124450Y51529D01*
X114730Y57270D02*
X116092Y55908D01*
Y53814D02*
X118500Y51406D01*
Y51000D02*
Y51406D01*
X116092Y53814D02*
Y55908D01*
X101200Y57270D02*
X114730D01*
X124450Y56650D02*
X127150Y59350D01*
X95300Y51371D02*
X101200Y57270D01*
X127150Y59350D02*
Y74416D01*
X129902Y87445D02*
X137578D01*
X142261Y82761D01*
X134778Y51022D02*
Y75528D01*
X134756Y51000D02*
X134778Y51022D01*
Y75528D02*
X134800Y75550D01*
X58699Y151646D02*
X65346D01*
X56553Y149500D02*
X58699Y151646D01*
X49213Y149787D02*
X49500Y149500D01*
X40134Y155500D02*
X45847Y149787D01*
X49500Y149500D02*
X56553D01*
X45847Y149787D02*
X49213D01*
X52500Y96823D02*
Y106325D01*
X47500Y108000D02*
X48675Y109175D01*
X55550D01*
X47500Y86634D02*
Y108000D01*
X79000Y90000D02*
Y90406D01*
X96295Y89565D02*
X101425Y94696D01*
X89635Y89565D02*
X96295D01*
X96218Y85500D02*
X100000D01*
X95003Y86715D02*
X96218Y85500D01*
X87965Y87896D02*
X89635Y89565D01*
X87965Y82765D02*
Y87896D01*
Y82765D02*
X88071Y82660D01*
Y77530D02*
Y82660D01*
X88600Y77000D02*
X90323D01*
X90815Y86715D02*
X95003D01*
X88071Y77530D02*
X88600Y77000D01*
X78100Y118000D02*
X79850Y119750D01*
X100000Y85500D02*
X103525Y89025D01*
X82100Y69900D02*
X85000Y67000D01*
X84650Y72000D02*
Y156650D01*
X82100Y170800D02*
X88600Y177300D01*
X82100Y69900D02*
Y170800D01*
X84650Y72000D02*
X90323D01*
X77000Y124500D02*
Y152500D01*
X79850Y119750D02*
Y164550D01*
X73400Y171000D02*
X79850Y164550D01*
X67500Y162000D02*
X77000Y152500D01*
X84650Y156650D02*
X98000Y170000D01*
X89800Y111000D02*
X89823D01*
X89800Y118544D02*
X105256Y134000D01*
X85000Y67000D02*
X90323D01*
X89800Y111000D02*
Y118544D01*
X111177Y96000D02*
X111500Y95677D01*
Y87500D02*
Y95677D01*
X111177Y96000D02*
X116050D01*
X62500Y49000D02*
X67350Y53850D01*
Y87321D01*
X62500Y57906D02*
Y96823D01*
X61000Y56406D02*
X62500Y57906D01*
X61000Y56000D02*
Y56406D01*
X70200Y85930D02*
X72032Y84098D01*
X70200Y85930D02*
Y101421D01*
X69321Y102300D02*
X70200Y101421D01*
X72032Y41500D02*
Y84098D01*
X71500Y35497D02*
X72032Y34965D01*
X57500Y49600D02*
X71500Y35600D01*
Y35497D02*
Y35600D01*
X74882Y51359D02*
X85522Y62000D01*
X72032Y34559D02*
Y34965D01*
X74882Y29882D02*
Y51359D01*
X64179Y19179D02*
X74882Y29882D01*
X55550Y109175D02*
X62425Y102300D01*
X69321D01*
X57500Y49600D02*
Y96823D01*
X51134Y77500D02*
Y83000D01*
X47500Y86634D02*
X51134Y83000D01*
X60500Y18500D02*
X61179Y19179D01*
X64179D01*
X86100Y14100D02*
X90500Y18500D01*
X105500Y33500D01*
X52000Y14100D02*
X86100D01*
X90323Y62000D02*
X95455D01*
X85522D02*
X90323D01*
X70675Y18500D02*
X87325Y35150D01*
X87500D01*
X70500Y18500D02*
X70675D01*
X105938Y116675D02*
X109175D01*
X116500Y124000D01*
X98900Y109637D02*
X105938Y116675D01*
X86320Y51371D02*
X95300D01*
X94095Y57640D02*
X96334Y59879D01*
X86889Y57640D02*
X94095D01*
X84650Y53040D02*
X86320Y51371D01*
X84650Y53040D02*
Y55401D01*
X95455Y62000D02*
X96334Y61121D01*
Y59879D02*
Y61121D01*
X93646Y54220D02*
X106425Y67000D01*
X84650Y55401D02*
X86889Y57640D01*
X87500Y54220D02*
X93646D01*
X105500Y33500D02*
X115244D01*
X129244Y47500D01*
X121000Y17500D02*
X133948D01*
X109000Y29500D02*
X121000Y17500D01*
X80500Y18500D02*
X93213Y31213D01*
Y32713D02*
X93500Y33000D01*
X93213Y31213D02*
Y32713D01*
X106425Y67000D02*
X111677D01*
X131800Y105555D02*
Y175000D01*
X127788Y102600D02*
X129902D01*
X67500Y118200D02*
Y149493D01*
X62500Y118200D02*
X67500D01*
X57500D02*
X62500D01*
X22500Y114500D02*
X52500D01*
X103525Y75275D02*
Y89025D01*
X129244Y47500D02*
X132144Y44600D01*
X172346Y50000D02*
Y53000D01*
X129244Y47500D02*
Y51000D01*
X132144Y44600D02*
X136634D01*
Y38500D02*
Y44600D01*
X105256Y134000D02*
Y138556D01*
X112200Y145500D01*
Y170000D01*
X120000Y177800D01*
X129000D01*
X131800Y175000D01*
X129902Y105555D02*
X131800D01*
X52500Y114500D02*
Y118177D01*
X57500D01*
X98900Y99900D02*
Y109637D01*
X95000Y96000D02*
X98900Y99900D01*
X89823Y96000D02*
X95000D01*
X172448Y61252D02*
Y66000D01*
Y61252D02*
X175370Y58330D01*
Y44670D02*
Y58330D01*
X136448Y23500D02*
Y28500D01*
X155098Y96500D02*
Y146941D01*
X160000Y151843D01*
X158598Y100000D02*
X175500D01*
X155098Y96500D02*
X158598Y100000D01*
X33700Y84400D02*
Y101100D01*
X37900Y105300D01*
X103525Y89025D02*
Y102725D01*
X106800Y106000D01*
X111177D01*
X111677Y62000D02*
X116050D01*
Y96000D01*
X89823Y106000D02*
X94175D01*
Y115964D01*
X107356Y129144D01*
Y134456D01*
X124500Y151600D01*
Y170500D01*
X89823Y101000D02*
X96275D01*
Y110775D01*
X124500Y139000D01*
X57700Y171000D02*
X60552D01*
X48700Y162000D02*
X57700Y171000D01*
X38366Y162000D02*
X48700D01*
X31866Y155500D02*
X38366Y162000D01*
X103525Y75275D02*
X106800Y72000D01*
X111677D01*
X101425Y94696D02*
Y107663D01*
X107463Y113700D01*
X116855D01*
X125000Y105555D01*
X129902D01*
Y102600D02*
Y105555D01*
X123499Y98311D02*
X127788Y102600D01*
X123499Y84401D02*
Y98311D01*
Y84401D02*
X129250Y78650D01*
Y58135D02*
Y78650D01*
X129244Y58129D02*
X129250Y58135D01*
X129244Y51000D02*
Y58129D01*
X119700Y81866D02*
X127150Y74416D01*
X119700Y81866D02*
Y97500D01*
X116200Y101000D02*
X119700Y97500D01*
X111177Y101000D02*
X116200D01*
X88600Y177300D02*
X102500D01*
X105300Y174500D01*
Y145800D02*
Y174500D01*
X98000Y138500D02*
X105300Y145800D01*
X67448Y171000D02*
X73400D01*
X58654Y162000D02*
X67500D01*
X58654Y157000D02*
Y162000D01*
X65346Y151646D02*
X67500Y149493D01*
X65346Y151646D02*
Y157000D01*
X41300Y24800D02*
X52000Y14100D01*
X41300Y24800D02*
Y42000D01*
X48740Y49440D01*
Y56500D01*
X136448Y20000D02*
Y23500D01*
X133948Y17500D02*
X136448Y20000D01*
X21500Y77000D02*
X27100D01*
X31400Y81300D01*
X46200D01*
Y56500D02*
Y81300D01*
Y56500D02*
X48740D01*
X67500Y118177D02*
Y118200D01*
X62500Y118177D02*
Y118200D01*
X57500Y118177D02*
Y118200D01*
X157634Y28500D02*
X162300D01*
X177470Y43670D01*
Y80630D01*
X175500Y82600D02*
X177470Y80630D01*
X175500Y82600D02*
Y90000D01*
X125500Y9000D02*
X132780D01*
X148500Y24720D01*
X149366D01*
X34500Y34500D02*
Y44000D01*
X21500Y57000D02*
X34500Y44000D01*
X21500Y77000D02*
Y80600D01*
X25900Y85000D01*
Y111100D01*
X22500Y114500D02*
X25900Y111100D01*
X128366Y31586D02*
Y38500D01*
Y31586D02*
X129552Y30400D01*
Y23500D02*
Y30400D01*
X42866Y67706D02*
Y77500D01*
X41260Y66100D02*
X42866Y67706D01*
X41260Y56500D02*
Y66100D01*
X129902Y96500D02*
X155098D01*
X165552Y59502D02*
Y66000D01*
Y59502D02*
X165654Y59400D01*
X18500Y133500D02*
Y138500D01*
Y133500D02*
X22500Y129500D01*
Y124500D02*
Y129500D01*
D16*
X90323Y77000D02*
D03*
Y72000D02*
D03*
Y67000D02*
D03*
Y62000D02*
D03*
X111677D02*
D03*
Y67000D02*
D03*
Y72000D02*
D03*
Y77000D02*
D03*
X89823Y111000D02*
D03*
Y106000D02*
D03*
Y101000D02*
D03*
Y96000D02*
D03*
X111177D02*
D03*
Y101000D02*
D03*
Y106000D02*
D03*
Y111000D02*
D03*
D17*
X67448Y171000D02*
D03*
X60552D02*
D03*
X136448Y23500D02*
D03*
X129552D02*
D03*
X165552Y66000D02*
D03*
X172448D02*
D03*
D18*
X52500Y96823D02*
D03*
X57500D02*
D03*
X62500D02*
D03*
X67500D02*
D03*
Y118177D02*
D03*
X62500D02*
D03*
X57500D02*
D03*
X52500D02*
D03*
D19*
X136634Y38500D02*
D03*
X128366D02*
D03*
X40134Y155500D02*
D03*
X31866D02*
D03*
D20*
X155098Y96500D02*
D03*
D21*
X129902Y87445D02*
D03*
Y96500D02*
D03*
Y105555D02*
D03*
D22*
X48740Y56500D02*
D03*
X41260D02*
D03*
D23*
X51134Y77500D02*
D03*
X42866D02*
D03*
D24*
X134756Y51000D02*
D03*
X129244D02*
D03*
D25*
X149366Y32280D02*
D03*
Y24720D02*
D03*
X157634Y28500D02*
D03*
D26*
X172346Y53000D02*
D03*
X165654D02*
D03*
X65346Y157000D02*
D03*
X58654D02*
D03*
D37*
X125500Y9000D02*
D03*
X34500Y34500D02*
D03*
X18500Y138500D02*
D03*
X62500Y33500D02*
D03*
D40*
X160000Y132157D02*
D03*
D41*
Y151843D02*
D03*
D42*
X28500Y138500D02*
D03*
X52500Y33500D02*
D03*
D44*
X98000Y138500D02*
D03*
Y170000D02*
D03*
X124500Y139000D02*
D03*
Y170500D02*
D03*
D45*
X60500Y18500D02*
D03*
X70500D02*
D03*
X80500D02*
D03*
D46*
X90500D02*
D03*
D47*
X175500Y90000D02*
D03*
X22500Y114500D02*
D03*
D48*
X175500Y100000D02*
D03*
X22500Y124500D02*
D03*
D49*
X21500Y57000D02*
D03*
D50*
Y67000D02*
D03*
Y77000D02*
D03*
Y87000D02*
D03*
Y97000D02*
D03*
D51*
X75500Y84500D02*
D03*
X165093Y36706D02*
D03*
X160195Y45268D02*
D03*
X111500Y37500D02*
D03*
X118500Y51000D02*
D03*
X142261Y82761D02*
D03*
X134800Y75550D02*
D03*
X49500Y149500D02*
D03*
X52500Y106325D02*
D03*
X79000Y90000D02*
D03*
X90815Y86715D02*
D03*
X77000Y124500D02*
D03*
X75250Y109500D02*
D03*
X111500Y87500D02*
D03*
X67350Y87321D02*
D03*
X72032Y41500D02*
D03*
X62500Y49000D02*
D03*
X61000Y56000D02*
D03*
X72032Y34559D02*
D03*
X83000Y39500D02*
D03*
X116500Y124000D02*
D03*
X87500Y54220D02*
D03*
Y43500D02*
D03*
Y35150D02*
D03*
X109000Y29500D02*
D03*
X93500Y33000D02*
D03*
X33700Y84400D02*
D03*
X37900Y105300D02*
D03*
M02*
