G04*
G04 #@! TF.GenerationSoftware,Altium Limited,Altium Designer,23.1.1 (15)*
G04*
G04 Layer_Color=255*
%FSLAX25Y25*%
%MOIN*%
G70*
G04*
G04 #@! TF.SameCoordinates,8F56B089-623F-4E0B-BF77-A0BA02D5B38D*
G04*
G04*
G04 #@! TF.FilePolarity,Positive*
G04*
G01*
G75*
%ADD20R,0.06004X0.02559*%
%ADD24R,0.04000X0.05315*%
%ADD33C,0.05118*%
%ADD34R,0.05118X0.05118*%
%ADD38C,0.06181*%
%ADD41R,0.06181X0.06181*%
%ADD43R,0.05906X0.08268*%
%ADD44R,0.08268X0.05906*%
%ADD45R,0.07677X0.07677*%
%ADD46C,0.07677*%
%ADD47C,0.11811*%
%ADD48C,0.05906*%
%ADD49R,0.05906X0.05906*%
%ADD50R,0.05984X0.05984*%
%ADD51C,0.05984*%
%ADD53R,0.13780X0.11811*%
%ADD54R,0.05512X0.03937*%
%ADD55O,0.08268X0.01000*%
%ADD56R,0.04152X0.05339*%
%ADD57R,0.03740X0.05512*%
%ADD58R,0.04528X0.05315*%
D20*
X85323Y97500D02*
D03*
Y92500D02*
D03*
Y87500D02*
D03*
Y82500D02*
D03*
X106677D02*
D03*
Y87500D02*
D03*
Y92500D02*
D03*
Y97500D02*
D03*
X83823Y125000D02*
D03*
Y120000D02*
D03*
Y115000D02*
D03*
Y110000D02*
D03*
X105177D02*
D03*
Y115000D02*
D03*
Y120000D02*
D03*
Y125000D02*
D03*
D24*
X144146Y54500D02*
D03*
D33*
X60685Y94000D02*
D03*
D34*
X41000D02*
D03*
D38*
X125500Y9000D02*
D03*
X34500Y34500D02*
D03*
X59500Y31000D02*
D03*
D41*
X49500D02*
D03*
D43*
X72811Y139000D02*
D03*
X49189D02*
D03*
D44*
X61000Y120496D02*
D03*
D45*
X151500Y135500D02*
D03*
X175500Y90000D02*
D03*
D46*
X151500Y145500D02*
D03*
Y155500D02*
D03*
X175500Y100000D02*
D03*
D47*
X92500Y143500D02*
D03*
Y175000D02*
D03*
X118500Y143500D02*
D03*
Y175000D02*
D03*
D48*
X60500Y18500D02*
D03*
X70500D02*
D03*
X80500D02*
D03*
D49*
X90500D02*
D03*
D50*
X21000Y57000D02*
D03*
D51*
Y67000D02*
D03*
Y77000D02*
D03*
Y87000D02*
D03*
Y97000D02*
D03*
D53*
X149500Y114843D02*
D03*
Y95157D02*
D03*
D54*
X152618Y37000D02*
D03*
X142382D02*
D03*
D55*
X81583Y40484D02*
D03*
Y43043D02*
D03*
Y45602D02*
D03*
Y48161D02*
D03*
Y50720D02*
D03*
Y53280D02*
D03*
Y55839D02*
D03*
Y58398D02*
D03*
Y60957D02*
D03*
Y63516D02*
D03*
X104417Y40484D02*
D03*
Y43043D02*
D03*
Y45602D02*
D03*
Y48161D02*
D03*
Y50720D02*
D03*
Y53280D02*
D03*
Y55839D02*
D03*
Y58398D02*
D03*
Y60957D02*
D03*
Y63516D02*
D03*
D56*
X66857Y158000D02*
D03*
X61143D02*
D03*
D57*
X144358Y71000D02*
D03*
X151642D02*
D03*
D58*
X149854Y54500D02*
D03*
M02*
