G04*
G04 #@! TF.GenerationSoftware,Altium Limited,Altium Designer,23.1.1 (15)*
G04*
G04 Layer_Color=128*
%FSLAX25Y25*%
%MOIN*%
G70*
G04*
G04 #@! TF.SameCoordinates,4416291F-A030-49B4-A21B-4109523D90D4*
G04*
G04*
G04 #@! TF.FilePolarity,Positive*
G04*
G01*
G75*
%ADD77C,0.00500*%
D77*
X77228Y19134D02*
X81244D01*
X79236Y17126D02*
Y21142D01*
X91992Y65000D02*
X96008D01*
X94000Y62992D02*
Y67008D01*
X106756Y19134D02*
X110772D01*
X108764Y17126D02*
Y21142D01*
X172941Y90000D02*
X178059D01*
X175500Y87441D02*
Y92559D01*
X172941Y100000D02*
X178059D01*
X175500Y97441D02*
Y102559D01*
X98492Y6500D02*
X102508D01*
X100500Y4492D02*
Y8508D01*
X19941Y124500D02*
X25059D01*
X22500Y121941D02*
Y127059D01*
X19941Y114500D02*
X25059D01*
X22500Y111941D02*
Y117059D01*
X120669Y137000D02*
X129331D01*
X125000Y132669D02*
Y141331D01*
X120669Y168500D02*
X129331D01*
X125000Y164169D02*
Y172831D01*
X32492Y34500D02*
X36508D01*
X34500Y32492D02*
Y36508D01*
X19492Y57000D02*
X23508D01*
X21500Y54992D02*
Y59008D01*
X19492Y67000D02*
X23508D01*
X21500Y64992D02*
Y69008D01*
X19492Y77000D02*
X23508D01*
X21500Y74992D02*
Y79008D01*
X19492Y87000D02*
X23508D01*
X21500Y84992D02*
Y89008D01*
X19492Y97000D02*
X23508D01*
X21500Y94992D02*
Y99008D01*
X158425Y132157D02*
X161575D01*
X160000Y130583D02*
Y133732D01*
X158425Y151843D02*
X161575D01*
X160000Y150268D02*
Y153417D01*
X26492Y138500D02*
X30508D01*
X28500Y136492D02*
Y140508D01*
X16492Y138500D02*
X20508D01*
X18500Y136492D02*
Y140508D01*
X175492Y67000D02*
X179508D01*
X177500Y64992D02*
Y69008D01*
X45992Y27000D02*
X50008D01*
X48000Y24992D02*
Y29008D01*
X55992Y27000D02*
X60008D01*
X58000Y24992D02*
Y29008D01*
X136899Y77800D02*
X137899D01*
X137399Y77300D02*
Y78300D01*
X64000Y36500D02*
X65000D01*
X64500Y36000D02*
Y37000D01*
X68000Y40800D02*
X69000D01*
X68500Y40300D02*
Y41300D01*
X96500Y35500D02*
X97500D01*
X97000Y35000D02*
Y36000D01*
X110000Y66000D02*
X111000D01*
X110500Y65500D02*
Y66500D01*
X117500Y83510D02*
X118500D01*
X118000Y83010D02*
Y84010D01*
X124750Y13050D02*
X125750D01*
X125250Y12550D02*
Y13550D01*
X118500Y12000D02*
X119500D01*
X119000Y11500D02*
Y12500D01*
X97000Y42000D02*
X98000D01*
X97500Y41500D02*
Y42500D01*
X43500Y90500D02*
X44500D01*
X44000Y90000D02*
Y91000D01*
X37500D02*
X38500D01*
X38000Y90500D02*
Y91500D01*
X40500Y110000D02*
X41500D01*
X41000Y109500D02*
Y110500D01*
X61830Y107670D02*
X62830D01*
X62330Y107170D02*
Y108170D01*
X88190Y23009D02*
X89190D01*
X88690Y22509D02*
Y23509D01*
X80519Y64019D02*
X81519D01*
X81019Y63519D02*
Y64519D01*
X84150Y67179D02*
X85150D01*
X84650Y66679D02*
Y67679D01*
X153500Y113000D02*
X154500D01*
X154000Y112500D02*
Y113500D01*
X144000Y108000D02*
X145000D01*
X144500Y107500D02*
Y108500D01*
X134539Y114039D02*
X135539D01*
X135039Y113539D02*
Y114539D01*
X138860Y91500D02*
X139860D01*
X139360Y91000D02*
Y92000D01*
X156200Y82900D02*
X157200D01*
X156700Y82400D02*
Y83400D01*
X98400Y97400D02*
X99400D01*
X98900Y96900D02*
Y97900D01*
X103200Y74256D02*
X104200D01*
X103700Y73756D02*
Y74756D01*
X103200Y63200D02*
X104200D01*
X103700Y62700D02*
Y63700D01*
X69300Y12900D02*
X70300D01*
X69800Y12400D02*
Y13400D01*
X71000Y107700D02*
X72000D01*
X71500Y107200D02*
Y108200D01*
X58700Y70700D02*
X59700D01*
X59200Y70200D02*
Y71200D01*
X76800Y114000D02*
X77800D01*
X77300Y113500D02*
Y114500D01*
X81900Y84300D02*
X82900D01*
X82400Y83800D02*
Y84800D01*
X117200Y153400D02*
X118200D01*
X117700Y152900D02*
Y153900D01*
X117200Y114000D02*
X118200D01*
X117700Y113500D02*
Y114500D01*
X44716Y167050D02*
X45716D01*
X45216Y166550D02*
Y167550D01*
X31366Y162300D02*
X32366D01*
X31866Y161800D02*
Y162800D01*
X47600Y162300D02*
X48600D01*
X48100Y161800D02*
Y162800D01*
X77000Y154100D02*
X78000D01*
X77500Y153600D02*
Y154600D01*
X140100Y173500D02*
X141100D01*
X140600Y173000D02*
Y174000D01*
M02*
