G04*
G04 #@! TF.GenerationSoftware,Altium Limited,Altium Designer,23.1.1 (15)*
G04*
G04 Layer_Color=8388736*
%FSLAX25Y25*%
%MOIN*%
G70*
G04*
G04 #@! TF.SameCoordinates,2A32F405-7E1A-4497-8D0E-C4D04B09633D*
G04*
G04*
G04 #@! TF.FilePolarity,Negative*
G04*
G01*
G75*
%ADD16R,0.05906X0.12992*%
%ADD17R,0.05906X0.04724*%
%ADD19R,0.07835X0.02756*%
%ADD20R,0.07835X0.03150*%
%ADD21R,0.07835X0.03543*%
%ADD22R,0.03150X0.03150*%
%ADD23R,0.04546X0.05363*%
%ADD24R,0.04724X0.04724*%
%ADD25R,0.04147X0.05918*%
%ADD26R,0.07099X0.14580*%
%ADD27C,0.06181*%
%ADD28R,0.06181X0.06181*%
%ADD29R,0.08477X0.08477*%
%ADD30C,0.08477*%
G04:AMPARAMS|DCode=31|XSize=39.37mil|YSize=66.93mil|CornerRadius=19.68mil|HoleSize=0mil|Usage=FLASHONLY|Rotation=270.000|XOffset=0mil|YOffset=0mil|HoleType=Round|Shape=RoundedRectangle|*
%AMROUNDEDRECTD31*
21,1,0.03937,0.02756,0,0,270.0*
21,1,0.00000,0.06693,0,0,270.0*
1,1,0.03937,-0.01378,0.00000*
1,1,0.03937,-0.01378,0.00000*
1,1,0.03937,0.01378,0.00000*
1,1,0.03937,0.01378,0.00000*
%
%ADD31ROUNDEDRECTD31*%
%ADD32R,0.08477X0.08477*%
%ADD33C,0.06706*%
%ADD34R,0.06706X0.06706*%
%ADD35R,0.06784X0.06784*%
%ADD36C,0.06784*%
%ADD37C,0.03800*%
D16*
X104098Y102000D02*
D03*
D17*
X78902Y92945D02*
D03*
Y102000D02*
D03*
Y111055D02*
D03*
D19*
X146000Y93547D02*
D03*
Y97484D02*
D03*
D20*
Y89532D02*
D03*
Y101500D02*
D03*
D21*
Y84689D02*
D03*
Y106343D02*
D03*
D22*
X106500Y75724D02*
D03*
X110240Y66276D02*
D03*
X102760D02*
D03*
D23*
X72948Y134500D02*
D03*
X66052D02*
D03*
X126552Y63000D02*
D03*
X133448D02*
D03*
D24*
X99634Y148000D02*
D03*
X91366D02*
D03*
D25*
X72846Y74500D02*
D03*
X66154D02*
D03*
X72346Y65000D02*
D03*
X65654D02*
D03*
X125654Y72000D02*
D03*
X132346D02*
D03*
D26*
X122000Y106024D02*
D03*
Y83976D02*
D03*
D27*
X57500Y74500D02*
D03*
Y84500D02*
D03*
Y94500D02*
D03*
Y104500D02*
D03*
Y114500D02*
D03*
D28*
Y124500D02*
D03*
D29*
X126500Y121500D02*
D03*
D30*
Y131500D02*
D03*
X94500Y130000D02*
D03*
X84500D02*
D03*
X82000Y74000D02*
D03*
D31*
X142870Y78508D02*
D03*
Y112524D02*
D03*
D32*
X104500Y130000D02*
D03*
X92000Y74000D02*
D03*
D33*
X69000Y84000D02*
D03*
Y94000D02*
D03*
Y104000D02*
D03*
D34*
Y114000D02*
D03*
D35*
X117000Y55500D02*
D03*
D36*
X107000D02*
D03*
X97000D02*
D03*
X87000D02*
D03*
X77000D02*
D03*
D37*
X122000Y95100D02*
D03*
X118000Y67500D02*
D03*
Y71500D02*
D03*
X111500Y80000D02*
D03*
X92500Y103812D02*
D03*
X88345Y102055D02*
D03*
X92256Y98612D02*
D03*
X112500Y105500D02*
D03*
X112737Y111166D02*
D03*
X130500Y113000D02*
D03*
X106146Y144796D02*
D03*
X104990Y140966D02*
D03*
X89500Y137800D02*
D03*
X60333Y68000D02*
D03*
X138100Y93800D02*
D03*
X125750Y56050D02*
D03*
X50400Y119300D02*
D03*
X78000Y88700D02*
D03*
X127700Y95100D02*
D03*
X130600Y87800D02*
D03*
X137400D02*
D03*
X113000Y95100D02*
D03*
X51000Y99500D02*
D03*
M02*
