G04*
G04 #@! TF.GenerationSoftware,Altium Limited,Altium Designer,23.1.1 (15)*
G04*
G04 Layer_Color=65535*
%FSLAX25Y25*%
%MOIN*%
G70*
G04*
G04 #@! TF.SameCoordinates,610C7C08-74D4-44FC-BCD4-38041F97A8CA*
G04*
G04*
G04 #@! TF.FilePolarity,Positive*
G04*
G01*
G75*
%ADD10C,0.00394*%
%ADD11C,0.00591*%
%ADD12C,0.00984*%
%ADD13C,0.01000*%
%ADD14C,0.00787*%
%ADD15C,0.01500*%
D10*
X175500Y82126D02*
G03*
X175500Y81732I0J-197D01*
G01*
D02*
G03*
X175500Y82126I0J197D01*
G01*
X22500Y106232D02*
G03*
X22500Y106626I0J197D01*
G01*
D02*
G03*
X22500Y106232I0J-197D01*
G01*
D11*
X130795Y9000D02*
G03*
X130795Y9000I-5295J0D01*
G01*
X39795Y34500D02*
G03*
X39795Y34500I-5295J0D01*
G01*
X180669Y142000D02*
G03*
X180669Y142000I-20669J0D01*
G01*
D12*
X141850Y38500D02*
G03*
X141850Y38500I-492J0D01*
G01*
X124488Y105752D02*
G03*
X124488Y105752I-492J0D01*
G01*
X53268Y56500D02*
G03*
X53268Y56500I-492J0D01*
G01*
X45154Y155500D02*
G03*
X45154Y155500I-492J0D01*
G01*
X37476Y138500D02*
G03*
X37476Y138500I-492J0D01*
G01*
X44508Y33500D02*
G03*
X44508Y33500I-492J0D01*
G01*
D13*
X86250Y181500D02*
X109500D01*
X86000Y186500D02*
X109500D01*
X86000Y123508D02*
X109500D01*
Y186500D01*
X86000Y123508D02*
Y186500D01*
X112750Y182000D02*
X136000D01*
X112500Y187000D02*
X136000D01*
X112500Y124008D02*
X136000D01*
Y187000D01*
X112500Y124008D02*
Y187000D01*
X98999Y50508D02*
X95001D01*
X96334Y51841D01*
X95001Y53174D01*
X98999D01*
Y54507D02*
X96334D01*
X95001Y55840D01*
X96334Y57173D01*
X98999D01*
X97000D01*
Y54507D01*
X95001Y58505D02*
X98999Y61171D01*
X95001D02*
X98999Y58505D01*
X95667Y62504D02*
X95001Y63171D01*
Y64504D01*
X95667Y65170D01*
X96334D01*
X97000Y64504D01*
Y63837D01*
Y64504D01*
X97666Y65170D01*
X98333D01*
X98999Y64504D01*
Y63171D01*
X98333Y62504D01*
X98999Y66503D02*
Y67836D01*
Y67169D01*
X95001D01*
X95667Y66503D01*
Y69835D02*
X95001Y70502D01*
Y71834D01*
X95667Y72501D01*
X96334D01*
X97000Y71834D01*
X97666Y72501D01*
X98333D01*
X98999Y71834D01*
Y70502D01*
X98333Y69835D01*
X97666D01*
X97000Y70502D01*
X96334Y69835D01*
X95667D01*
X97000Y70502D02*
Y71834D01*
X95001Y76500D02*
Y73834D01*
X97000D01*
X96334Y75167D01*
Y75833D01*
X97000Y76500D01*
X98333D01*
X98999Y75833D01*
Y74500D01*
X98333Y73834D01*
X95001Y80498D02*
Y77833D01*
X97000D01*
X96334Y79166D01*
Y79832D01*
X97000Y80498D01*
X98333D01*
X98999Y79832D01*
Y78499D01*
X98333Y77833D01*
X95001Y84497D02*
Y83164D01*
Y83831D01*
X98333D01*
X98999Y83164D01*
Y82498D01*
X98333Y81831D01*
X98999Y85830D02*
X96334D01*
X95001Y87163D01*
X96334Y88496D01*
X98999D01*
X97000D01*
Y85830D01*
X95667Y92494D02*
X95001Y91828D01*
Y90495D01*
X95667Y89829D01*
X96334D01*
X97000Y90495D01*
Y91828D01*
X97666Y92494D01*
X98333D01*
X98999Y91828D01*
Y90495D01*
X98333Y89829D01*
X98999Y93827D02*
X96334D01*
X95001Y95160D01*
X96334Y96493D01*
X98999D01*
X97000D01*
Y93827D01*
Y97826D02*
Y100492D01*
X95667Y99159D02*
X98333D01*
X43668Y20999D02*
Y17001D01*
X45668D01*
X46334Y17667D01*
Y18334D01*
X45668Y19000D01*
X43668D01*
X45668D01*
X46334Y19667D01*
Y20333D01*
X45668Y20999D01*
X43668D01*
X47667D02*
Y17001D01*
X50333D01*
X54332Y20999D02*
X51666D01*
Y17001D01*
X54332D01*
X51666Y19000D02*
X52999D01*
X5500Y123833D02*
X8166D01*
X6833Y125166D02*
Y122500D01*
X92500Y112000D02*
Y112666D01*
X93166D01*
Y112000D01*
X92500D01*
X191500Y103333D02*
X194166D01*
X192833Y104666D02*
Y102000D01*
X186500Y124500D02*
X189166D01*
X13000Y95000D02*
Y98999D01*
X14999D01*
X15666Y98332D01*
Y96999D01*
X14999Y96333D01*
X13000D01*
X14333D02*
X15666Y95000D01*
X15166Y88332D02*
X14499Y88999D01*
X13167D01*
X12500Y88332D01*
Y85666D01*
X13167Y85000D01*
X14499D01*
X15166Y85666D01*
X12500Y78999D02*
Y75000D01*
X14499D01*
X15166Y75666D01*
Y78332D01*
X14499Y78999D01*
X12500D01*
X15166Y67832D02*
X14499Y68499D01*
X13167D01*
X12500Y67832D01*
Y65166D01*
X13167Y64500D01*
X14499D01*
X15166Y65166D01*
Y66499D01*
X13833D01*
X13000Y58999D02*
Y56333D01*
X14333Y55000D01*
X15666Y56333D01*
Y58999D01*
X63000Y191665D02*
Y187666D01*
X65666D01*
X66999D02*
Y191665D01*
X68998D01*
X69665Y190999D01*
Y189666D01*
X68998Y188999D01*
X66999D01*
X73663Y190999D02*
X72997Y191665D01*
X71664D01*
X70997Y190999D01*
Y188333D01*
X71664Y187666D01*
X72997D01*
X73663Y188333D01*
X76995Y191665D02*
X75663D01*
X74996Y190999D01*
Y188333D01*
X75663Y187666D01*
X76995D01*
X77662Y188333D01*
Y190999D01*
X76995Y191665D01*
X78995Y187000D02*
X81661D01*
X85659Y190999D02*
X84993Y191665D01*
X83660D01*
X82994Y190999D01*
Y190332D01*
X83660Y189666D01*
X84993D01*
X85659Y188999D01*
Y188333D01*
X84993Y187666D01*
X83660D01*
X82994Y188333D01*
X89658Y191665D02*
X86992D01*
Y187666D01*
X89658D01*
X86992Y189666D02*
X88325D01*
X90991Y187666D02*
Y191665D01*
X93657Y187666D01*
Y191665D01*
X97655Y190999D02*
X96989Y191665D01*
X95656D01*
X94990Y190999D01*
Y190332D01*
X95656Y189666D01*
X96989D01*
X97655Y188999D01*
Y188333D01*
X96989Y187666D01*
X95656D01*
X94990Y188333D01*
X100988Y191665D02*
X99655D01*
X98988Y190999D01*
Y188333D01*
X99655Y187666D01*
X100988D01*
X101654Y188333D01*
Y190999D01*
X100988Y191665D01*
X102987Y187666D02*
Y191665D01*
X104986D01*
X105653Y190999D01*
Y189666D01*
X104986Y188999D01*
X102987D01*
X104320D02*
X105653Y187666D01*
X106986Y187000D02*
X109652D01*
X110985Y191665D02*
Y188999D01*
X112317Y187666D01*
X113650Y188999D01*
Y191665D01*
X117649D02*
X114983D01*
Y189666D01*
X116316Y190332D01*
X116983D01*
X117649Y189666D01*
Y188333D01*
X116983Y187666D01*
X115650D01*
X114983Y188333D01*
X118982Y187666D02*
Y188333D01*
X119648D01*
Y187666D01*
X118982D01*
X122314Y190999D02*
X122981Y191665D01*
X124314D01*
X124980Y190999D01*
Y188333D01*
X124314Y187666D01*
X122981D01*
X122314Y188333D01*
Y190999D01*
X126313Y187666D02*
Y188333D01*
X126979D01*
Y187666D01*
X126313D01*
X129645Y190999D02*
X130312Y191665D01*
X131644D01*
X132311Y190999D01*
Y188333D01*
X131644Y187666D01*
X130312D01*
X129645Y188333D01*
Y190999D01*
X38674Y105499D02*
X41340Y101501D01*
Y105499D02*
X38674Y101501D01*
X42673Y105499D02*
Y101501D01*
X45338D01*
X46671D02*
X48004D01*
X47338D01*
Y105499D01*
X46671Y104833D01*
X52669Y105499D02*
X50004D01*
Y103500D01*
X51336Y104166D01*
X52003D01*
X52669Y103500D01*
Y102167D01*
X52003Y101501D01*
X50670D01*
X50004Y102167D01*
X54002Y104833D02*
X54669Y105499D01*
X56002D01*
X56668Y104833D01*
Y102167D01*
X56002Y101501D01*
X54669D01*
X54002Y102167D01*
Y104833D01*
X58001Y102167D02*
X58667Y101501D01*
X60000D01*
X60667Y102167D01*
Y104833D01*
X60000Y105499D01*
X58667D01*
X58001Y104833D01*
Y104166D01*
X58667Y103500D01*
X60667D01*
X62000D02*
X64666D01*
X65998Y101501D02*
Y104166D01*
X67331Y105499D01*
X68664Y104166D01*
Y101501D01*
Y103500D01*
X65998D01*
X69997Y105499D02*
Y101501D01*
X71996D01*
X72663Y102167D01*
Y104833D01*
X71996Y105499D01*
X69997D01*
X76662D02*
X75329D01*
X75995D01*
Y102167D01*
X75329Y101501D01*
X74662D01*
X73996Y102167D01*
X80660Y105499D02*
X77995D01*
Y101501D01*
X80660D01*
X77995Y103500D02*
X79327D01*
X81993Y101501D02*
X83326D01*
X82660D01*
Y105499D01*
X81993Y104833D01*
X24177Y82501D02*
Y86499D01*
X26176D01*
X26843Y85833D01*
Y84500D01*
X26176Y83834D01*
X24177D01*
X25510D02*
X26843Y82501D01*
X28176Y86499D02*
X30841D01*
X29508D01*
Y82501D01*
X32174Y85833D02*
X32841Y86499D01*
X34174D01*
X34840Y85833D01*
Y83167D01*
X34174Y82501D01*
X32841D01*
X32174Y83167D01*
Y85833D01*
X36173D02*
X36839Y86499D01*
X38172D01*
X38839Y85833D01*
Y85166D01*
X38172Y84500D01*
X38839Y83834D01*
Y83167D01*
X38172Y82501D01*
X36839D01*
X36173Y83167D01*
Y83834D01*
X36839Y84500D01*
X36173Y85166D01*
Y85833D01*
X36839Y84500D02*
X38172D01*
X40172Y85833D02*
X40838Y86499D01*
X42171D01*
X42837Y85833D01*
Y83167D01*
X42171Y82501D01*
X40838D01*
X40172Y83167D01*
Y85833D01*
X46836Y86499D02*
X44170D01*
Y84500D01*
X45503Y85166D01*
X46170D01*
X46836Y84500D01*
Y83167D01*
X46170Y82501D01*
X44837D01*
X44170Y83167D01*
X48169Y86499D02*
Y82501D01*
X50168D01*
X50835Y83167D01*
Y83834D01*
X50168Y84500D01*
X48169D01*
X50168D01*
X50835Y85166D01*
Y85833D01*
X50168Y86499D01*
X48169D01*
X52168Y82501D02*
Y86499D01*
X54167D01*
X54834Y85833D01*
Y84500D01*
X54167Y83834D01*
X52168D01*
X53501D02*
X54834Y82501D01*
X56166Y86499D02*
Y82501D01*
X58166D01*
X58832Y83167D01*
Y83834D01*
X58166Y84500D01*
X56166D01*
X58166D01*
X58832Y85166D01*
Y85833D01*
X58166Y86499D01*
X56166D01*
X60165Y85833D02*
X60832Y86499D01*
X62164D01*
X62831Y85833D01*
Y83167D01*
X62164Y82501D01*
X60832D01*
X60165Y83167D01*
Y85833D01*
X64164Y86499D02*
X66830D01*
Y85833D01*
X64164Y83167D01*
Y82501D01*
X70162D02*
Y86499D01*
X68163Y84500D01*
X70828D01*
X72161Y86499D02*
X74827D01*
Y85833D01*
X72161Y83167D01*
Y82501D01*
X76160Y85833D02*
X76827Y86499D01*
X78159D01*
X78826Y85833D01*
Y83167D01*
X78159Y82501D01*
X76827D01*
X76160Y83167D01*
Y85833D01*
X80159Y82501D02*
Y86499D01*
X82158D01*
X82824Y85833D01*
Y84500D01*
X82158Y83834D01*
X80159D01*
X81492D02*
X82824Y82501D01*
X84157Y86499D02*
Y82501D01*
X86823D01*
X106499Y81508D02*
X102501D01*
X103833Y82841D01*
X102501Y84174D01*
X106499D01*
Y85507D02*
X103833D01*
X102501Y86840D01*
X103833Y88173D01*
X106499D01*
X104500D01*
Y85507D01*
X102501Y89505D02*
X106499Y92171D01*
X102501D02*
X106499Y89505D01*
X103167Y93504D02*
X102501Y94171D01*
Y95503D01*
X103167Y96170D01*
X103833D01*
X104500Y95503D01*
Y94837D01*
Y95503D01*
X105166Y96170D01*
X105833D01*
X106499Y95503D01*
Y94171D01*
X105833Y93504D01*
X106499Y97503D02*
Y98836D01*
Y98169D01*
X102501D01*
X103167Y97503D01*
Y100835D02*
X102501Y101502D01*
Y102834D01*
X103167Y103501D01*
X103833D01*
X104500Y102834D01*
X105166Y103501D01*
X105833D01*
X106499Y102834D01*
Y101502D01*
X105833Y100835D01*
X105166D01*
X104500Y101502D01*
X103833Y100835D01*
X103167D01*
X104500Y101502D02*
Y102834D01*
X102501Y107500D02*
Y104834D01*
X104500D01*
X103833Y106167D01*
Y106833D01*
X104500Y107500D01*
X105833D01*
X106499Y106833D01*
Y105500D01*
X105833Y104834D01*
X102501Y111498D02*
Y108833D01*
X104500D01*
X103833Y110166D01*
Y110832D01*
X104500Y111498D01*
X105833D01*
X106499Y110832D01*
Y109499D01*
X105833Y108833D01*
X102501Y115497D02*
Y114164D01*
Y114831D01*
X105833D01*
X106499Y114164D01*
Y113498D01*
X105833Y112831D01*
X106499Y116830D02*
X103833D01*
X102501Y118163D01*
X103833Y119496D01*
X106499D01*
X104500D01*
Y116830D01*
X103167Y123495D02*
X102501Y122828D01*
Y121495D01*
X103167Y120829D01*
X103833D01*
X104500Y121495D01*
Y122828D01*
X105166Y123495D01*
X105833D01*
X106499Y122828D01*
Y121495D01*
X105833Y120829D01*
X106499Y124827D02*
X103833D01*
X102501Y126160D01*
X103833Y127493D01*
X106499D01*
X104500D01*
Y124827D01*
Y128826D02*
Y131492D01*
X103167Y130159D02*
X105833D01*
X162510Y56667D02*
X163843D01*
X163177D01*
Y60666D01*
X162510Y60000D01*
X165843D02*
X166509Y60666D01*
X167842D01*
X168508Y60000D01*
Y57334D01*
X167842Y56667D01*
X166509D01*
X165843Y57334D01*
Y60000D01*
X169841Y60666D02*
Y56667D01*
Y58000D01*
X172507Y60666D01*
X170508Y58667D01*
X172507Y56667D01*
X180505Y60666D02*
X177839D01*
Y58667D01*
X179172Y59333D01*
X179838D01*
X180505Y58667D01*
Y57334D01*
X179838Y56667D01*
X178505D01*
X177839Y57334D01*
X181837D02*
X185170Y60666D01*
X181837D02*
Y61333D01*
X182504D01*
Y60666D01*
X181837D01*
X184503Y56667D02*
Y57334D01*
X185170D01*
Y56667D01*
X184503D01*
X190501Y60000D02*
X191168Y60666D01*
X192501D01*
X193167Y60000D01*
Y57334D01*
X192501Y56667D01*
X191168D01*
X190501Y57334D01*
Y60000D01*
X194500D02*
X195167Y60666D01*
X196499D01*
X197166Y60000D01*
Y59333D01*
X196499Y58667D01*
X197166Y58000D01*
Y57334D01*
X196499Y56667D01*
X195167D01*
X194500Y57334D01*
Y58000D01*
X195167Y58667D01*
X194500Y59333D01*
Y60000D01*
X195167Y58667D02*
X196499D01*
X198499Y60000D02*
X199165Y60666D01*
X200498D01*
X201165Y60000D01*
Y57334D01*
X200498Y56667D01*
X199165D01*
X198499Y57334D01*
Y60000D01*
X205163Y60666D02*
X202497D01*
Y58667D01*
X203830Y59333D01*
X204497D01*
X205163Y58667D01*
Y57334D01*
X204497Y56667D01*
X203164D01*
X202497Y57334D01*
X207829Y56667D02*
X206496Y58000D01*
Y59333D01*
X207829Y60666D01*
X212494Y56667D02*
X209828D01*
X212494Y59333D01*
Y60000D01*
X211828Y60666D01*
X210495D01*
X209828Y60000D01*
X213827D02*
X214494Y60666D01*
X215827D01*
X216493Y60000D01*
Y57334D01*
X215827Y56667D01*
X214494D01*
X213827Y57334D01*
Y60000D01*
X217826Y56667D02*
X219159D01*
X218492D01*
Y60666D01*
X217826Y60000D01*
X223824Y56667D02*
X221158D01*
X223824Y59333D01*
Y60000D01*
X223157Y60666D01*
X221825D01*
X221158Y60000D01*
X225157Y56667D02*
X226490Y58000D01*
Y59333D01*
X225157Y60666D01*
X162343Y113833D02*
X159677D01*
Y111833D01*
X161010D01*
X159677D01*
Y109834D01*
X163676Y113833D02*
X165009D01*
X164342D01*
Y109834D01*
X163676D01*
X165009D01*
X167008D02*
Y113833D01*
X169007D01*
X169674Y113166D01*
Y111833D01*
X169007Y111167D01*
X167008D01*
X168341D02*
X169674Y109834D01*
X173673Y113833D02*
X171007D01*
Y109834D01*
X173673D01*
X171007Y111833D02*
X172340D01*
X175005Y109167D02*
X177671D01*
X181670Y113833D02*
X179004D01*
Y109834D01*
X181670D01*
X179004Y111833D02*
X180337D01*
X183003Y113833D02*
X185669Y109834D01*
Y113833D02*
X183003Y109834D01*
X187002Y113833D02*
X189667D01*
X188335D01*
Y109834D01*
X191000Y113833D02*
X192333D01*
X191667D01*
Y109834D01*
X191000D01*
X192333D01*
X194333D02*
Y113833D01*
X196998Y109834D01*
Y113833D01*
X200997Y113166D02*
X200331Y113833D01*
X198998D01*
X198331Y113166D01*
Y110500D01*
X198998Y109834D01*
X200331D01*
X200997Y110500D01*
Y111833D01*
X199664D01*
X202330Y113833D02*
Y110500D01*
X202996Y109834D01*
X204329D01*
X204996Y110500D01*
Y113833D01*
X206329D02*
X207662D01*
X206995D01*
Y109834D01*
X206329D01*
X207662D01*
X212327Y113166D02*
X211660Y113833D01*
X210327D01*
X209661Y113166D01*
Y112500D01*
X210327Y111833D01*
X211660D01*
X212327Y111167D01*
Y110500D01*
X211660Y109834D01*
X210327D01*
X209661Y110500D01*
X213660Y113833D02*
Y109834D01*
Y111833D01*
X216325D01*
Y113833D01*
Y109834D01*
X220324Y113833D02*
X217658D01*
Y109834D01*
X220324D01*
X217658Y111833D02*
X218991D01*
X221657Y109834D02*
Y113833D01*
X223657D01*
X224323Y113166D01*
Y111833D01*
X223657Y111167D01*
X221657D01*
X222990D02*
X224323Y109834D01*
X126672Y115499D02*
Y111501D01*
X129338D01*
X130671Y115499D02*
Y111501D01*
X132670D01*
X133336Y112167D01*
Y114833D01*
X132670Y115499D01*
X130671D01*
X134669Y111501D02*
X136002D01*
X135336D01*
Y115499D01*
X134669Y114833D01*
X138002Y111501D02*
X139334D01*
X138668D01*
Y115499D01*
X138002Y114833D01*
X141334Y111501D02*
X142667D01*
X142000D01*
Y115499D01*
X141334Y114833D01*
X144666Y115499D02*
X147332D01*
Y114833D01*
X144666Y112167D01*
Y111501D01*
X151331Y114833D02*
X150664Y115499D01*
X149331D01*
X148665Y114833D01*
Y114166D01*
X149331Y113500D01*
X150664D01*
X151331Y112833D01*
Y112167D01*
X150664Y111501D01*
X149331D01*
X148665Y112167D01*
X152664Y114833D02*
X153330Y115499D01*
X154663D01*
X155329Y114833D01*
Y114166D01*
X154663Y113500D01*
X153997D01*
X154663D01*
X155329Y112833D01*
Y112167D01*
X154663Y111501D01*
X153330D01*
X152664Y112167D01*
X156662Y114833D02*
X157329Y115499D01*
X158662D01*
X159328Y114833D01*
Y114166D01*
X158662Y113500D01*
X157995D01*
X158662D01*
X159328Y112833D01*
Y112167D01*
X158662Y111501D01*
X157329D01*
X156662Y112167D01*
X156836Y146666D02*
X156170Y147333D01*
X154837D01*
X154170Y146666D01*
Y144000D01*
X154837Y143334D01*
X156170D01*
X156836Y144000D01*
X158169Y142667D02*
X160835D01*
X162168Y147333D02*
X164833D01*
X163501D01*
Y143334D01*
X166166D02*
Y147333D01*
X168166D01*
X168832Y146666D01*
Y145333D01*
X168166Y144667D01*
X166166D01*
X167499D02*
X168832Y143334D01*
X172831Y146666D02*
X172164Y147333D01*
X170832D01*
X170165Y146666D01*
Y144000D01*
X170832Y143334D01*
X172164D01*
X172831Y144000D01*
Y145333D01*
X171498D01*
X176163Y143334D02*
Y147333D01*
X174164Y145333D01*
X176830D01*
X37501Y108669D02*
X41499D01*
Y110668D01*
X40833Y111335D01*
X40166D01*
X39500Y110668D01*
Y108669D01*
Y110668D01*
X38834Y111335D01*
X38167D01*
X37501Y110668D01*
Y108669D01*
Y112668D02*
Y115333D01*
Y114001D01*
X41499D01*
X40833Y116666D02*
X41499Y117333D01*
Y118666D01*
X40833Y119332D01*
X38167D01*
X37501Y118666D01*
Y117333D01*
X38167Y116666D01*
X38834D01*
X39500Y117333D01*
Y119332D01*
X37501Y120665D02*
X40166D01*
X41499Y121998D01*
X40166Y123331D01*
X37501D01*
X95170Y10833D02*
X97836D01*
X96503D01*
Y6834D01*
X99169D02*
Y10833D01*
X101168D01*
X101835Y10166D01*
Y8833D01*
X101168Y8167D01*
X99169D01*
X103168Y6167D02*
X105833D01*
X109832Y10166D02*
X109166Y10833D01*
X107833D01*
X107167Y10166D01*
Y7500D01*
X107833Y6834D01*
X109166D01*
X109832Y7500D01*
Y8833D01*
X108499D01*
X111165Y6834D02*
Y10833D01*
X113831Y6834D01*
Y10833D01*
X115164D02*
Y6834D01*
X117163D01*
X117830Y7500D01*
Y10166D01*
X117163Y10833D01*
X115164D01*
X147006Y40999D02*
Y37001D01*
X149005D01*
X149672Y37667D01*
Y40333D01*
X149005Y40999D01*
X147006D01*
X151005Y37001D02*
Y40999D01*
X152338Y39666D01*
X153671Y40999D01*
Y37001D01*
X155003D02*
Y40999D01*
X157669Y37001D01*
Y40999D01*
X161668Y37001D02*
X159002D01*
X161668Y39666D01*
Y40333D01*
X161002Y40999D01*
X159669D01*
X159002Y40333D01*
X163001D02*
X163667Y40999D01*
X165000D01*
X165667Y40333D01*
Y37667D01*
X165000Y37001D01*
X163667D01*
X163001Y37667D01*
Y40333D01*
X168999Y37001D02*
Y40999D01*
X167000Y39000D01*
X169666D01*
X170998Y37001D02*
X172331D01*
X171665D01*
Y40999D01*
X170998Y40333D01*
X174331Y40999D02*
Y37001D01*
X176997D01*
X178329Y39000D02*
X180995D01*
X182328Y40999D02*
X184994D01*
Y40333D01*
X182328Y37667D01*
Y37001D01*
X18670Y45833D02*
X21336D01*
X20003D01*
Y41834D01*
X22669D02*
Y45833D01*
X24668D01*
X25335Y45166D01*
Y43833D01*
X24668Y43167D01*
X22669D01*
X26668Y41167D02*
X29334D01*
X30667Y45166D02*
X31333Y45833D01*
X32666D01*
X33332Y45166D01*
Y44500D01*
X32666Y43833D01*
X31999D01*
X32666D01*
X33332Y43167D01*
Y42500D01*
X32666Y41834D01*
X31333D01*
X30667Y42500D01*
X34665Y45833D02*
Y43167D01*
X35998Y41834D01*
X37331Y43167D01*
Y45833D01*
X38664Y45166D02*
X39330Y45833D01*
X40663D01*
X41330Y45166D01*
Y44500D01*
X40663Y43833D01*
X39997D01*
X40663D01*
X41330Y43167D01*
Y42500D01*
X40663Y41834D01*
X39330D01*
X38664Y42500D01*
X55510Y148667D02*
X56843D01*
X56177D01*
Y152666D01*
X55510Y152000D01*
X58843D02*
X59509Y152666D01*
X60842D01*
X61508Y152000D01*
Y149334D01*
X60842Y148667D01*
X59509D01*
X58843Y149334D01*
Y152000D01*
X62841Y152666D02*
Y148667D01*
Y150000D01*
X65507Y152666D01*
X63508Y150667D01*
X65507Y148667D01*
X73505Y152666D02*
X70839D01*
Y150667D01*
X72172Y151333D01*
X72838D01*
X73505Y150667D01*
Y149334D01*
X72838Y148667D01*
X71505D01*
X70839Y149334D01*
X74837D02*
X78170Y152666D01*
X74837D02*
Y153333D01*
X75504D01*
Y152666D01*
X74837D01*
X77503Y148667D02*
Y149334D01*
X78170D01*
Y148667D01*
X77503D01*
X83501Y152000D02*
X84168Y152666D01*
X85501D01*
X86167Y152000D01*
Y149334D01*
X85501Y148667D01*
X84168D01*
X83501Y149334D01*
Y152000D01*
X87500D02*
X88166Y152666D01*
X89499D01*
X90166Y152000D01*
Y151333D01*
X89499Y150667D01*
X90166Y150000D01*
Y149334D01*
X89499Y148667D01*
X88166D01*
X87500Y149334D01*
Y150000D01*
X88166Y150667D01*
X87500Y151333D01*
Y152000D01*
X88166Y150667D02*
X89499D01*
X91499Y152000D02*
X92165Y152666D01*
X93498D01*
X94165Y152000D01*
Y149334D01*
X93498Y148667D01*
X92165D01*
X91499Y149334D01*
Y152000D01*
X98163Y152666D02*
X95497D01*
Y150667D01*
X96830Y151333D01*
X97497D01*
X98163Y150667D01*
Y149334D01*
X97497Y148667D01*
X96164D01*
X95497Y149334D01*
X100829Y148667D02*
X99496Y150000D01*
Y151333D01*
X100829Y152666D01*
X105494Y148667D02*
X102828D01*
X105494Y151333D01*
Y152000D01*
X104828Y152666D01*
X103495D01*
X102828Y152000D01*
X106827D02*
X107494Y152666D01*
X108826D01*
X109493Y152000D01*
Y149334D01*
X108826Y148667D01*
X107494D01*
X106827Y149334D01*
Y152000D01*
X110826Y148667D02*
X112159D01*
X111492D01*
Y152666D01*
X110826Y152000D01*
X116824Y148667D02*
X114158D01*
X116824Y151333D01*
Y152000D01*
X116157Y152666D01*
X114824D01*
X114158Y152000D01*
X118157Y148667D02*
X119490Y150000D01*
Y151333D01*
X118157Y152666D01*
X98177Y43501D02*
Y46166D01*
X99510Y47499D01*
X100843Y46166D01*
Y43501D01*
Y45500D01*
X98177D01*
X102176Y43501D02*
Y47499D01*
X104175D01*
X104842Y46833D01*
Y45500D01*
X104175Y44834D01*
X102176D01*
X106175Y47499D02*
Y43501D01*
Y45500D01*
X108840D01*
Y47499D01*
Y43501D01*
X112839Y46833D02*
X112173Y47499D01*
X110840D01*
X110173Y46833D01*
Y44167D01*
X110840Y43501D01*
X112173D01*
X112839Y44167D01*
X114172Y43501D02*
Y47499D01*
X115505Y46166D01*
X116838Y47499D01*
Y43501D01*
X120836D02*
X118171D01*
X120836Y46166D01*
Y46833D01*
X120170Y47499D01*
X118837D01*
X118171Y46833D01*
X122169D02*
X122836Y47499D01*
X124169D01*
X124835Y46833D01*
Y44167D01*
X124169Y43501D01*
X122836D01*
X122169Y44167D01*
Y46833D01*
X126168Y43501D02*
X127501D01*
X126834D01*
Y47499D01*
X126168Y46833D01*
X132166Y43501D02*
X129500D01*
X132166Y46166D01*
Y46833D01*
X131500Y47499D01*
X130167D01*
X129500Y46833D01*
X136165D02*
X135498Y47499D01*
X134166D01*
X133499Y46833D01*
Y44167D01*
X134166Y43501D01*
X135498D01*
X136165Y44167D01*
X140164Y46833D02*
X139497Y47499D01*
X138164D01*
X137498Y46833D01*
Y44167D01*
X138164Y43501D01*
X139497D01*
X140164Y44167D01*
Y45500D01*
X138831D01*
X144162Y46833D02*
X143496Y47499D01*
X142163D01*
X141497Y46833D01*
Y44167D01*
X142163Y43501D01*
X143496D01*
X144162Y44167D01*
X145495Y47499D02*
Y43501D01*
Y44834D01*
X148161Y47499D01*
X146162Y45500D01*
X148161Y43501D01*
X149494Y45500D02*
X152160D01*
X156158Y47499D02*
X153493D01*
Y45500D01*
X154825D01*
X153493D01*
Y43501D01*
X157491Y46833D02*
X158158Y47499D01*
X159491D01*
X160157Y46833D01*
Y44167D01*
X159491Y43501D01*
X158158D01*
X157491Y44167D01*
Y46833D01*
X161490Y43501D02*
X162823D01*
X162156D01*
Y47499D01*
X161490Y46833D01*
X47000Y46799D02*
Y43466D01*
X47666Y42800D01*
X48999D01*
X49666Y43466D01*
Y46799D01*
X50999Y42800D02*
Y45466D01*
X52332Y46799D01*
X53664Y45466D01*
Y42800D01*
Y44799D01*
X50999D01*
X54997Y42800D02*
Y46799D01*
X56997D01*
X57663Y46132D01*
Y44799D01*
X56997Y44133D01*
X54997D01*
X56330D02*
X57663Y42800D01*
X58996Y46799D02*
X61662D01*
X60329D01*
Y42800D01*
X65661D02*
X62995D01*
X65661Y45466D01*
Y46132D01*
X64994Y46799D01*
X63661D01*
X62995Y46132D01*
X101676Y58333D02*
X101009Y58999D01*
X99676D01*
X99010Y58333D01*
Y55667D01*
X99676Y55001D01*
X101009D01*
X101676Y55667D01*
X103009Y58333D02*
X103675Y58999D01*
X105008D01*
X105675Y58333D01*
Y55667D01*
X105008Y55001D01*
X103675D01*
X103009Y55667D01*
Y58333D01*
X107007D02*
X107674Y58999D01*
X109007D01*
X109673Y58333D01*
Y57666D01*
X109007Y57000D01*
X109673Y56334D01*
Y55667D01*
X109007Y55001D01*
X107674D01*
X107007Y55667D01*
Y56334D01*
X107674Y57000D01*
X107007Y57666D01*
Y58333D01*
X107674Y57000D02*
X109007D01*
X111006Y58333D02*
X111673Y58999D01*
X113005D01*
X113672Y58333D01*
Y55667D01*
X113005Y55001D01*
X111673D01*
X111006Y55667D01*
Y58333D01*
X117671Y58999D02*
X115005D01*
Y57000D01*
X116338Y57666D01*
X117004D01*
X117671Y57000D01*
Y55667D01*
X117004Y55001D01*
X115671D01*
X115005Y55667D01*
X121669Y58333D02*
X121003Y58999D01*
X119670D01*
X119003Y58333D01*
Y55667D01*
X119670Y55001D01*
X121003D01*
X121669Y55667D01*
X123002Y55001D02*
X124335D01*
X123669D01*
Y58999D01*
X123002Y58333D01*
X126335D02*
X127001Y58999D01*
X128334D01*
X129000Y58333D01*
Y55667D01*
X128334Y55001D01*
X127001D01*
X126335Y55667D01*
Y58333D01*
X132333Y55001D02*
Y58999D01*
X130333Y57000D01*
X132999D01*
X134332Y58999D02*
Y55001D01*
Y56334D01*
X136998Y58999D01*
X134998Y57000D01*
X136998Y55001D01*
X140997Y58999D02*
X138331D01*
Y57000D01*
X139664Y57666D01*
X140330D01*
X140997Y57000D01*
Y55667D01*
X140330Y55001D01*
X138997D01*
X138331Y55667D01*
X142329Y55001D02*
Y58999D01*
X144329D01*
X144995Y58333D01*
Y57000D01*
X144329Y56334D01*
X142329D01*
X143662D02*
X144995Y55001D01*
X146328D02*
Y57666D01*
X147661Y58999D01*
X148994Y57666D01*
Y55001D01*
Y57000D01*
X146328D01*
X150327Y58999D02*
Y55001D01*
X152993D01*
X154325Y58999D02*
X156991D01*
X155658D01*
Y55001D01*
X158324Y58999D02*
Y55667D01*
X158991Y55001D01*
X160324D01*
X160990Y55667D01*
Y58999D01*
X14174Y150499D02*
Y146501D01*
X15507Y147834D01*
X16840Y146501D01*
Y150499D01*
X22172D02*
Y146501D01*
X24837D01*
X28836Y150499D02*
X26170D01*
Y146501D01*
X28836D01*
X26170Y148500D02*
X27503D01*
X30169Y150499D02*
Y146501D01*
X32168D01*
X32835Y147167D01*
Y149833D01*
X32168Y150499D01*
X30169D01*
X38166Y149833D02*
X38833Y150499D01*
X40166D01*
X40832Y149833D01*
Y149167D01*
X40166Y148500D01*
X39499D01*
X40166D01*
X40832Y147834D01*
Y147167D01*
X40166Y146501D01*
X38833D01*
X38166Y147167D01*
X42165Y149167D02*
X43498Y146501D01*
X44831Y149167D01*
X48830Y146501D02*
X46164D01*
X48830Y149167D01*
Y149833D01*
X48163Y150499D01*
X46830D01*
X46164Y149833D01*
X50163D02*
X50829Y150499D01*
X52162D01*
X52828Y149833D01*
Y147167D01*
X52162Y146501D01*
X50829D01*
X50163Y147167D01*
Y149833D01*
X54161Y146501D02*
Y149167D01*
X54828D01*
X55494Y148500D01*
Y146501D01*
Y148500D01*
X56161Y149167D01*
X56827Y148500D01*
Y146501D01*
X58827Y149167D02*
X60159D01*
X60826Y148500D01*
Y146501D01*
X58827D01*
X58160Y147167D01*
X58827Y147834D01*
X60826D01*
X32676Y65333D02*
X32009Y65999D01*
X30676D01*
X30010Y65333D01*
Y64666D01*
X30676Y64000D01*
X32009D01*
X32676Y63334D01*
Y62667D01*
X32009Y62001D01*
X30676D01*
X30010Y62667D01*
X34009Y62001D02*
Y65999D01*
X35342Y64666D01*
X36674Y65999D01*
Y62001D01*
X38007Y65999D02*
Y62001D01*
X40673D01*
X42006Y64000D02*
X44672D01*
X46005Y65999D02*
Y62001D01*
X48671D01*
X50004Y65999D02*
X52669Y62001D01*
Y65999D02*
X50004Y62001D01*
X54002Y65999D02*
X56668D01*
X55335D01*
Y62001D01*
X58001Y65333D02*
X58667Y65999D01*
X60000D01*
X60667Y65333D01*
Y62667D01*
X60000Y62001D01*
X58667D01*
X58001Y62667D01*
Y65333D01*
X62000D02*
X62666Y65999D01*
X63999D01*
X64666Y65333D01*
Y64666D01*
X63999Y64000D01*
X64666Y63334D01*
Y62667D01*
X63999Y62001D01*
X62666D01*
X62000Y62667D01*
Y63334D01*
X62666Y64000D01*
X62000Y64666D01*
Y65333D01*
X62666Y64000D02*
X63999D01*
X65998Y65333D02*
X66665Y65999D01*
X67998D01*
X68664Y65333D01*
Y62667D01*
X67998Y62001D01*
X66665D01*
X65998Y62667D01*
Y65333D01*
X72663Y65999D02*
X69997D01*
Y64000D01*
X71330Y64666D01*
X71996D01*
X72663Y64000D01*
Y62667D01*
X71996Y62001D01*
X70663D01*
X69997Y62667D01*
X73996Y65999D02*
X75329D01*
X74662D01*
Y62001D01*
X73996D01*
X75329D01*
X77328Y65999D02*
Y62001D01*
X78661Y63334D01*
X79994Y62001D01*
Y65999D01*
X81327Y64000D02*
X83993D01*
X85325Y65999D02*
X87991D01*
X86658D01*
Y62001D01*
X89324D02*
Y65999D01*
X91324D01*
X91990Y65333D01*
Y64000D01*
X91324Y63334D01*
X89324D01*
X90657D02*
X91990Y62001D01*
X28009Y162501D02*
Y166499D01*
X30008D01*
X30674Y165833D01*
Y164500D01*
X30008Y163833D01*
X28009D01*
X29342D02*
X30674Y162501D01*
X32007D02*
Y166499D01*
X33340Y165166D01*
X34673Y166499D01*
Y162501D01*
X38672Y165833D02*
X38006Y166499D01*
X36673D01*
X36006Y165833D01*
Y163167D01*
X36673Y162501D01*
X38006D01*
X38672Y163167D01*
X42671Y166499D02*
X40005D01*
Y164500D01*
X41338D01*
X40005D01*
Y162501D01*
X44004Y165833D02*
X44670Y166499D01*
X46003D01*
X46669Y165833D01*
Y163167D01*
X46003Y162501D01*
X44670D01*
X44004Y163167D01*
Y165833D01*
X48002D02*
X48669Y166499D01*
X50002D01*
X50668Y165833D01*
Y165166D01*
X50002Y164500D01*
X50668Y163833D01*
Y163167D01*
X50002Y162501D01*
X48669D01*
X48002Y163167D01*
Y163833D01*
X48669Y164500D01*
X48002Y165166D01*
Y165833D01*
X48669Y164500D02*
X50002D01*
X52001Y165833D02*
X52667Y166499D01*
X54000D01*
X54667Y165833D01*
Y163167D01*
X54000Y162501D01*
X52667D01*
X52001Y163167D01*
Y165833D01*
X58666Y166499D02*
X56000D01*
Y164500D01*
X57333Y165166D01*
X57999D01*
X58666Y164500D01*
Y163167D01*
X57999Y162501D01*
X56666D01*
X56000Y163167D01*
X62664Y166499D02*
X61331D01*
X61998D01*
Y163167D01*
X61331Y162501D01*
X60665D01*
X59998Y163167D01*
X63997Y166499D02*
X66663D01*
X65330D01*
Y162501D01*
X67996D02*
X69329D01*
X68662D01*
Y166499D01*
X67996Y165833D01*
X71328D02*
X71995Y166499D01*
X73327D01*
X73994Y165833D01*
Y165166D01*
X73327Y164500D01*
X73994Y163833D01*
Y163167D01*
X73327Y162501D01*
X71995D01*
X71328Y163167D01*
Y163833D01*
X71995Y164500D01*
X71328Y165166D01*
Y165833D01*
X71995Y164500D02*
X73327D01*
X75327Y165833D02*
X75993Y166499D01*
X77326D01*
X77993Y165833D01*
Y163167D01*
X77326Y162501D01*
X75993D01*
X75327Y163167D01*
Y165833D01*
X79325Y162501D02*
Y166499D01*
X81325D01*
X81991Y165833D01*
Y164500D01*
X81325Y163833D01*
X79325D01*
X80658D02*
X81991Y162501D01*
X97509Y28501D02*
Y32499D01*
X99508D01*
X100174Y31833D01*
Y30500D01*
X99508Y29834D01*
X97509D01*
X98842D02*
X100174Y28501D01*
X101507D02*
Y32499D01*
X102840Y31166D01*
X104173Y32499D01*
Y28501D01*
X108172Y31833D02*
X107506Y32499D01*
X106173D01*
X105506Y31833D01*
Y29167D01*
X106173Y28501D01*
X107506D01*
X108172Y29167D01*
X112171Y32499D02*
X109505D01*
Y30500D01*
X110838D01*
X109505D01*
Y28501D01*
X113504Y31833D02*
X114170Y32499D01*
X115503D01*
X116169Y31833D01*
Y29167D01*
X115503Y28501D01*
X114170D01*
X113504Y29167D01*
Y31833D01*
X117502D02*
X118169Y32499D01*
X119502D01*
X120168Y31833D01*
Y31166D01*
X119502Y30500D01*
X120168Y29834D01*
Y29167D01*
X119502Y28501D01*
X118169D01*
X117502Y29167D01*
Y29834D01*
X118169Y30500D01*
X117502Y31166D01*
Y31833D01*
X118169Y30500D02*
X119502D01*
X121501Y31833D02*
X122167Y32499D01*
X123500D01*
X124167Y31833D01*
Y29167D01*
X123500Y28501D01*
X122167D01*
X121501Y29167D01*
Y31833D01*
X128165Y32499D02*
X125500D01*
Y30500D01*
X126833Y31166D01*
X127499D01*
X128165Y30500D01*
Y29167D01*
X127499Y28501D01*
X126166D01*
X125500Y29167D01*
X132164Y32499D02*
X130831D01*
X131498D01*
Y29167D01*
X130831Y28501D01*
X130165D01*
X129498Y29167D01*
X133497Y32499D02*
X136163D01*
X134830D01*
Y28501D01*
X137496D02*
X138829D01*
X138162D01*
Y32499D01*
X137496Y31833D01*
X140828D02*
X141495Y32499D01*
X142827D01*
X143494Y31833D01*
Y31166D01*
X142827Y30500D01*
X143494Y29834D01*
Y29167D01*
X142827Y28501D01*
X141495D01*
X140828Y29167D01*
Y29834D01*
X141495Y30500D01*
X140828Y31166D01*
Y31833D01*
X141495Y30500D02*
X142827D01*
X144827Y31833D02*
X145493Y32499D01*
X146826D01*
X147493Y31833D01*
Y29167D01*
X146826Y28501D01*
X145493D01*
X144827Y29167D01*
Y31833D01*
X148826Y28501D02*
Y32499D01*
X150825D01*
X151491Y31833D01*
Y30500D01*
X150825Y29834D01*
X148826D01*
X150158D02*
X151491Y28501D01*
X137009Y70501D02*
Y74499D01*
X139008D01*
X139674Y73833D01*
Y72500D01*
X139008Y71834D01*
X137009D01*
X138342D02*
X139674Y70501D01*
X141007D02*
Y74499D01*
X142340Y73166D01*
X143673Y74499D01*
Y70501D01*
X147672Y73833D02*
X147005Y74499D01*
X145673D01*
X145006Y73833D01*
Y71167D01*
X145673Y70501D01*
X147005D01*
X147672Y71167D01*
X151671Y74499D02*
X149005D01*
Y72500D01*
X150338D01*
X149005D01*
Y70501D01*
X153004Y73833D02*
X153670Y74499D01*
X155003D01*
X155669Y73833D01*
Y71167D01*
X155003Y70501D01*
X153670D01*
X153004Y71167D01*
Y73833D01*
X157002D02*
X157669Y74499D01*
X159002D01*
X159668Y73833D01*
Y73166D01*
X159002Y72500D01*
X159668Y71834D01*
Y71167D01*
X159002Y70501D01*
X157669D01*
X157002Y71167D01*
Y71834D01*
X157669Y72500D01*
X157002Y73166D01*
Y73833D01*
X157669Y72500D02*
X159002D01*
X161001Y73833D02*
X161667Y74499D01*
X163000D01*
X163667Y73833D01*
Y71167D01*
X163000Y70501D01*
X161667D01*
X161001Y71167D01*
Y73833D01*
X167666Y74499D02*
X165000D01*
Y72500D01*
X166333Y73166D01*
X166999D01*
X167666Y72500D01*
Y71167D01*
X166999Y70501D01*
X165666D01*
X165000Y71167D01*
X171664Y74499D02*
X170331D01*
X170998D01*
Y71167D01*
X170331Y70501D01*
X169665D01*
X168998Y71167D01*
X172997Y74499D02*
X175663D01*
X174330D01*
Y70501D01*
X176996D02*
X178329D01*
X177662D01*
Y74499D01*
X176996Y73833D01*
X180328D02*
X180994Y74499D01*
X182327D01*
X182994Y73833D01*
Y73166D01*
X182327Y72500D01*
X182994Y71834D01*
Y71167D01*
X182327Y70501D01*
X180994D01*
X180328Y71167D01*
Y71834D01*
X180994Y72500D01*
X180328Y73166D01*
Y73833D01*
X180994Y72500D02*
X182327D01*
X184327Y73833D02*
X184993Y74499D01*
X186326D01*
X186993Y73833D01*
Y71167D01*
X186326Y70501D01*
X184993D01*
X184327Y71167D01*
Y73833D01*
X188326Y70501D02*
Y74499D01*
X190325D01*
X190991Y73833D01*
Y72500D01*
X190325Y71834D01*
X188326D01*
X189658D02*
X190991Y70501D01*
D14*
X94701Y79146D02*
X107299D01*
Y59854D02*
Y79146D01*
X94701Y59854D02*
X107299D01*
X94701D02*
Y79146D01*
X87319Y79657D02*
X93323D01*
X95500Y13500D02*
Y23500D01*
X55500Y13500D02*
X95500D01*
X55500Y23500D02*
X95500D01*
X55500Y13500D02*
Y23500D01*
X58279Y175256D02*
X69721D01*
X58279Y166744D02*
X69721D01*
X163689Y84213D02*
Y105787D01*
X188492D01*
Y84213D02*
Y105787D01*
X163689Y84213D02*
X188492D01*
X50354Y101201D02*
Y113799D01*
X69646D01*
Y101201D02*
Y113799D01*
X50354Y101201D02*
X69646D01*
X49843Y93819D02*
Y99823D01*
X10689Y108713D02*
X35492D01*
Y130287D01*
X10689D02*
X35492D01*
X10689Y108713D02*
Y130287D01*
X127279Y27756D02*
X138721D01*
X127279Y19244D02*
X138721D01*
X128366Y34661D02*
X136634D01*
X128366Y42339D02*
X136634D01*
X135217Y83311D02*
Y109689D01*
Y83311D02*
X149783D01*
Y109689D01*
X135217D02*
X149783D01*
X40866Y52563D02*
X49134D01*
X40866Y60437D02*
X49134D01*
X46114Y74843D02*
X47886D01*
X46114Y80157D02*
X47886D01*
X94201Y113146D02*
X106799D01*
Y93854D02*
Y113146D01*
X94201Y93854D02*
X106799D01*
X94201D02*
Y113146D01*
X86819Y113657D02*
X92823D01*
X16600Y51252D02*
Y102748D01*
X26400Y51252D02*
Y102748D01*
X16600Y51252D02*
X26400D01*
X16600Y102748D02*
X26400D01*
X149567Y124579D02*
X170433D01*
X12516Y133303D02*
X34484D01*
X12516D02*
Y143697D01*
X34484D01*
Y133303D02*
Y143697D01*
X168803Y50835D02*
X169197D01*
X168803Y55165D02*
X169197D01*
X61803Y154835D02*
X62197D01*
X61803Y159165D02*
X62197D01*
X163279Y61744D02*
X174721D01*
X163279Y70256D02*
X174721D01*
D15*
X36000Y152547D02*
Y158453D01*
X46516Y38697D02*
X68484D01*
Y28303D02*
Y38697D01*
X46516Y28303D02*
X68484D01*
X46516D02*
Y38697D01*
X152909Y34209D02*
X154091D01*
Y22791D02*
Y34209D01*
X152909Y22791D02*
X154091D01*
X152909D02*
Y34209D01*
X147201Y34543D02*
X151532D01*
M02*
