G04*
G04 #@! TF.GenerationSoftware,Altium Limited,Altium Designer,23.1.1 (15)*
G04*
G04 Layer_Color=16711935*
%FSLAX25Y25*%
%MOIN*%
G70*
G04*
G04 #@! TF.SameCoordinates,2A32F405-7E1A-4497-8D0E-C4D04B09633D*
G04*
G04*
G04 #@! TF.FilePolarity,Positive*
G04*
G01*
G75*
%ADD11C,0.00394*%
%ADD12C,0.00787*%
%ADD13C,0.01500*%
%ADD62C,0.00197*%
D11*
X114531Y120000D02*
X118469D01*
X116500Y118031D02*
Y121969D01*
X66031Y124500D02*
X69969D01*
X68000Y122532D02*
Y126469D01*
X115000Y142032D02*
Y145969D01*
X113032Y144000D02*
X116969D01*
D12*
X123673Y58252D02*
Y64748D01*
X134327D01*
Y58252D02*
Y64748D01*
X123673Y58252D02*
X134327D01*
X127173Y67252D02*
Y73748D01*
X137827D01*
Y67252D02*
Y73748D01*
X127173Y67252D02*
X137827D01*
X64173Y139748D02*
X74827D01*
X64173Y133252D02*
Y139748D01*
Y133252D02*
X74827D01*
Y139748D01*
D13*
X103662Y144957D02*
Y152043D01*
X86339Y144957D02*
X103662D01*
X86339D02*
Y152043D01*
X103662D01*
X95000Y146531D02*
Y150468D01*
X93032Y148500D02*
X96969D01*
X92531Y102000D02*
X96469D01*
X94500Y100031D02*
Y103969D01*
X109461Y84579D02*
Y119421D01*
X79539Y84579D02*
Y119421D01*
Y84579D02*
X109461D01*
X79539Y119421D02*
X109461D01*
D62*
X114673Y76835D02*
Y106165D01*
Y76835D02*
X136327D01*
Y106165D01*
X114673D02*
X136327D01*
X119453Y114488D02*
Y125512D01*
X113547Y114488D02*
Y125512D01*
Y114488D02*
X119453D01*
X113547Y125512D02*
X119453D01*
X73315Y121154D02*
Y127846D01*
X62685Y121154D02*
Y127846D01*
X73315D01*
X62685Y121154D02*
X73315D01*
X109488Y140654D02*
X120512D01*
X109488Y147346D02*
X120512D01*
X109488Y140654D02*
Y147346D01*
X120512Y140654D02*
Y147346D01*
M02*
