G04*
G04 #@! TF.GenerationSoftware,Altium Limited,Altium Designer,23.1.1 (15)*
G04*
G04 Layer_Color=16711935*
%FSLAX25Y25*%
%MOIN*%
G70*
G04*
G04 #@! TF.SameCoordinates,4416291F-A030-49B4-A21B-4109523D90D4*
G04*
G04*
G04 #@! TF.FilePolarity,Positive*
G04*
G01*
G75*
%ADD10C,0.00787*%
%ADD14C,0.01500*%
G36*
X61789Y170776D02*
X59738D01*
Y171000D01*
X61789D01*
Y170776D01*
D02*
G37*
G36*
X56321Y170342D02*
X56342D01*
X56372Y170339D01*
X56405Y170334D01*
X56441Y170328D01*
X56482Y170320D01*
X56525Y170309D01*
X56569Y170296D01*
X56615Y170282D01*
X56662Y170263D01*
X56708Y170238D01*
X56752Y170214D01*
X56798Y170184D01*
X56839Y170148D01*
X56842Y170145D01*
X56847Y170140D01*
X56858Y170129D01*
X56875Y170113D01*
X56891Y170094D01*
X56910Y170069D01*
X56929Y170042D01*
X56951Y170009D01*
X56973Y169976D01*
X56995Y169935D01*
X57017Y169894D01*
X57036Y169848D01*
X57052Y169799D01*
X57069Y169747D01*
X57079Y169692D01*
X57088Y169635D01*
X56779Y169594D01*
Y169597D01*
X56776Y169605D01*
X56774Y169619D01*
X56768Y169638D01*
X56763Y169660D01*
X56757Y169684D01*
X56738Y169741D01*
X56714Y169804D01*
X56684Y169867D01*
X56645Y169924D01*
X56624Y169949D01*
X56602Y169974D01*
X56599D01*
X56596Y169979D01*
X56588Y169984D01*
X56580Y169993D01*
X56553Y170009D01*
X56514Y170031D01*
X56468Y170053D01*
X56416Y170069D01*
X56353Y170083D01*
X56288Y170088D01*
X56266D01*
X56250Y170086D01*
X56233Y170083D01*
X56209Y170080D01*
X56160Y170069D01*
X56099Y170053D01*
X56037Y170025D01*
X56007Y170006D01*
X55977Y169987D01*
X55946Y169965D01*
X55917Y169938D01*
X55914Y169935D01*
X55911Y169930D01*
X55903Y169922D01*
X55892Y169911D01*
X55881Y169897D01*
X55870Y169878D01*
X55856Y169859D01*
X55840Y169834D01*
X55813Y169780D01*
X55791Y169717D01*
X55772Y169643D01*
X55769Y169605D01*
X55766Y169564D01*
Y169561D01*
Y169556D01*
Y169542D01*
X55769Y169529D01*
X55772Y169509D01*
X55774Y169490D01*
X55783Y169441D01*
X55802Y169384D01*
X55826Y169326D01*
X55843Y169297D01*
X55862Y169269D01*
X55884Y169242D01*
X55908Y169215D01*
X55911Y169212D01*
X55914Y169209D01*
X55922Y169201D01*
X55933Y169193D01*
X55946Y169182D01*
X55963Y169171D01*
X56004Y169144D01*
X56056Y169119D01*
X56116Y169097D01*
X56184Y169081D01*
X56222Y169078D01*
X56261Y169075D01*
X56277D01*
X56296Y169078D01*
X56321D01*
X56353Y169084D01*
X56389Y169089D01*
X56432Y169097D01*
X56479Y169108D01*
X56446Y168838D01*
X56441D01*
X56427Y168841D01*
X56411Y168843D01*
X56375D01*
X56362Y168841D01*
X56342D01*
X56323Y168838D01*
X56277Y168830D01*
X56222Y168819D01*
X56162Y168800D01*
X56099Y168775D01*
X56039Y168740D01*
X56037D01*
X56031Y168734D01*
X56026Y168729D01*
X56015Y168720D01*
X55988Y168696D01*
X55957Y168660D01*
X55930Y168617D01*
X55903Y168562D01*
X55892Y168532D01*
X55887Y168497D01*
X55881Y168461D01*
X55878Y168423D01*
Y168420D01*
Y168415D01*
Y168406D01*
X55881Y168393D01*
X55884Y168363D01*
X55892Y168322D01*
X55906Y168278D01*
X55927Y168232D01*
X55957Y168183D01*
X55974Y168161D01*
X55996Y168139D01*
X56001Y168133D01*
X56018Y168123D01*
X56042Y168104D01*
X56075Y168082D01*
X56119Y168063D01*
X56170Y168043D01*
X56228Y168033D01*
X56293Y168027D01*
X56310D01*
X56323Y168030D01*
X56340D01*
X56356Y168033D01*
X56400Y168041D01*
X56446Y168054D01*
X56498Y168076D01*
X56547Y168104D01*
X56596Y168142D01*
X56602Y168147D01*
X56615Y168164D01*
X56637Y168188D01*
X56659Y168226D01*
X56686Y168273D01*
X56711Y168333D01*
X56733Y168401D01*
X56749Y168480D01*
X57058Y168426D01*
Y168423D01*
X57055Y168412D01*
X57052Y168396D01*
X57047Y168374D01*
X57038Y168349D01*
X57030Y168319D01*
X57019Y168286D01*
X57006Y168251D01*
X56970Y168172D01*
X56951Y168133D01*
X56927Y168093D01*
X56899Y168054D01*
X56869Y168016D01*
X56836Y167978D01*
X56801Y167945D01*
X56798Y167942D01*
X56793Y167937D01*
X56779Y167929D01*
X56766Y167918D01*
X56744Y167904D01*
X56722Y167891D01*
X56695Y167874D01*
X56662Y167858D01*
X56629Y167844D01*
X56591Y167828D01*
X56550Y167814D01*
X56506Y167800D01*
X56457Y167790D01*
X56408Y167781D01*
X56356Y167776D01*
X56301Y167773D01*
X56266D01*
X56247Y167776D01*
X56228Y167779D01*
X56176Y167784D01*
X56119Y167795D01*
X56053Y167811D01*
X55988Y167833D01*
X55922Y167863D01*
X55919D01*
X55914Y167866D01*
X55906Y167871D01*
X55892Y167880D01*
X55862Y167899D01*
X55824Y167926D01*
X55780Y167962D01*
X55736Y168002D01*
X55693Y168049D01*
X55654Y168104D01*
Y168106D01*
X55652Y168109D01*
X55646Y168120D01*
X55641Y168131D01*
X55633Y168145D01*
X55624Y168161D01*
X55608Y168202D01*
X55592Y168251D01*
X55575Y168306D01*
X55564Y168366D01*
X55562Y168428D01*
Y168431D01*
Y168437D01*
Y168445D01*
Y168456D01*
X55567Y168488D01*
X55572Y168527D01*
X55583Y168573D01*
X55600Y168622D01*
X55622Y168674D01*
X55652Y168726D01*
Y168729D01*
X55654Y168731D01*
X55668Y168748D01*
X55687Y168772D01*
X55717Y168802D01*
X55753Y168838D01*
X55799Y168873D01*
X55851Y168906D01*
X55911Y168939D01*
X55908D01*
X55900Y168942D01*
X55889Y168944D01*
X55873Y168950D01*
X55856Y168955D01*
X55835Y168963D01*
X55783Y168985D01*
X55728Y169015D01*
X55671Y169051D01*
X55613Y169097D01*
X55564Y169155D01*
X55562Y169157D01*
X55559Y169163D01*
X55553Y169171D01*
X55545Y169185D01*
X55534Y169198D01*
X55523Y169217D01*
X55512Y169239D01*
X55502Y169266D01*
X55491Y169294D01*
X55480Y169324D01*
X55458Y169392D01*
X55444Y169471D01*
X55439Y169515D01*
Y169559D01*
Y169561D01*
Y169572D01*
X55441Y169591D01*
Y169613D01*
X55447Y169643D01*
X55452Y169676D01*
X55458Y169711D01*
X55469Y169752D01*
X55482Y169796D01*
X55499Y169840D01*
X55518Y169886D01*
X55542Y169933D01*
X55570Y169982D01*
X55603Y170028D01*
X55638Y170075D01*
X55682Y170118D01*
X55685Y170121D01*
X55693Y170129D01*
X55706Y170140D01*
X55725Y170154D01*
X55747Y170170D01*
X55777Y170189D01*
X55810Y170211D01*
X55848Y170230D01*
X55889Y170252D01*
X55936Y170274D01*
X55985Y170293D01*
X56039Y170309D01*
X56097Y170323D01*
X56157Y170334D01*
X56220Y170342D01*
X56288Y170345D01*
X56301D01*
X56321Y170342D01*
D02*
G37*
G36*
X64000Y167781D02*
X62829D01*
X62799Y167784D01*
X62769D01*
X62733Y167787D01*
X62692Y167790D01*
X62611Y167798D01*
X62526Y167811D01*
X62444Y167828D01*
X62408Y167839D01*
X62373Y167850D01*
X62370D01*
X62365Y167852D01*
X62357Y167858D01*
X62343Y167863D01*
X62310Y167880D01*
X62272Y167904D01*
X62226Y167937D01*
X62179Y167981D01*
X62133Y168030D01*
X62092Y168090D01*
Y168093D01*
X62086Y168098D01*
X62081Y168106D01*
X62075Y168120D01*
X62067Y168136D01*
X62059Y168155D01*
X62048Y168177D01*
X62037Y168202D01*
X62018Y168259D01*
X62002Y168322D01*
X61991Y168393D01*
X61985Y168469D01*
Y168472D01*
Y168480D01*
Y168497D01*
X61988Y168513D01*
X61991Y168538D01*
X61993Y168565D01*
X61999Y168595D01*
X62007Y168628D01*
X62029Y168699D01*
X62043Y168737D01*
X62059Y168775D01*
X62078Y168813D01*
X62103Y168851D01*
X62130Y168887D01*
X62160Y168922D01*
X62163Y168925D01*
X62168Y168931D01*
X62179Y168939D01*
X62193Y168953D01*
X62212Y168966D01*
X62234Y168983D01*
X62261Y169002D01*
X62294Y169021D01*
X62329Y169040D01*
X62367Y169059D01*
X62411Y169078D01*
X62460Y169097D01*
X62512Y169114D01*
X62569Y169130D01*
X62632Y169144D01*
X62698Y169155D01*
X62695D01*
X62692Y169157D01*
X62676Y169166D01*
X62651Y169179D01*
X62621Y169195D01*
X62589Y169215D01*
X62556Y169234D01*
X62523Y169258D01*
X62496Y169280D01*
X62493Y169283D01*
X62490Y169286D01*
X62482Y169294D01*
X62471Y169305D01*
X62458Y169318D01*
X62441Y169335D01*
X62406Y169373D01*
X62365Y169422D01*
X62318Y169479D01*
X62269Y169545D01*
X62220Y169616D01*
X61783Y170301D01*
X62201D01*
X62534Y169777D01*
X62537Y169774D01*
X62539Y169766D01*
X62548Y169755D01*
X62559Y169739D01*
X62569Y169720D01*
X62586Y169698D01*
X62619Y169649D01*
X62657Y169591D01*
X62695Y169534D01*
X62736Y169479D01*
X62774Y169430D01*
Y169428D01*
X62780Y169425D01*
X62791Y169411D01*
X62807Y169389D01*
X62832Y169365D01*
X62856Y169337D01*
X62886Y169310D01*
X62916Y169283D01*
X62944Y169264D01*
X62946Y169261D01*
X62957Y169256D01*
X62971Y169247D01*
X62990Y169236D01*
X63015Y169226D01*
X63039Y169215D01*
X63066Y169204D01*
X63096Y169195D01*
X63099D01*
X63107Y169193D01*
X63121Y169190D01*
X63140Y169187D01*
X63167D01*
X63200Y169185D01*
X63238Y169182D01*
X63667D01*
Y170301D01*
X64000D01*
Y167781D01*
D02*
G37*
G36*
X59506D02*
X58567D01*
X58540Y167784D01*
X58507D01*
X58474Y167787D01*
X58401Y167790D01*
X58327Y167798D01*
X58253Y167806D01*
X58221Y167814D01*
X58191Y167820D01*
X58188D01*
X58180Y167822D01*
X58169Y167825D01*
X58155Y167831D01*
X58136Y167836D01*
X58114Y167841D01*
X58062Y167860D01*
X58005Y167885D01*
X57945Y167915D01*
X57882Y167953D01*
X57822Y168000D01*
X57819Y168002D01*
X57814Y168008D01*
X57803Y168016D01*
X57789Y168030D01*
X57773Y168046D01*
X57754Y168068D01*
X57732Y168090D01*
X57710Y168117D01*
X57686Y168147D01*
X57661Y168180D01*
X57636Y168215D01*
X57612Y168254D01*
X57565Y168338D01*
X57525Y168431D01*
Y168434D01*
X57519Y168442D01*
X57516Y168458D01*
X57508Y168477D01*
X57500Y168502D01*
X57492Y168532D01*
X57484Y168565D01*
X57473Y168603D01*
X57464Y168647D01*
X57456Y168693D01*
X57448Y168742D01*
X57440Y168794D01*
X57432Y168849D01*
X57429Y168906D01*
X57424Y169029D01*
Y169032D01*
Y169043D01*
Y169056D01*
Y169078D01*
X57426Y169103D01*
Y169133D01*
X57429Y169166D01*
X57432Y169201D01*
X57440Y169280D01*
X57454Y169365D01*
X57470Y169452D01*
X57492Y169539D01*
Y169542D01*
X57494Y169550D01*
X57500Y169561D01*
X57503Y169575D01*
X57511Y169594D01*
X57519Y169616D01*
X57538Y169668D01*
X57563Y169725D01*
X57593Y169788D01*
X57626Y169848D01*
X57664Y169905D01*
Y169908D01*
X57669Y169911D01*
X57675Y169919D01*
X57683Y169930D01*
X57702Y169954D01*
X57732Y169987D01*
X57765Y170025D01*
X57803Y170064D01*
X57847Y170099D01*
X57893Y170135D01*
X57896D01*
X57898Y170137D01*
X57915Y170148D01*
X57942Y170162D01*
X57978Y170181D01*
X58021Y170200D01*
X58073Y170222D01*
X58133Y170241D01*
X58196Y170260D01*
X58199D01*
X58204Y170263D01*
X58212D01*
X58226Y170266D01*
X58242Y170268D01*
X58264Y170274D01*
X58286Y170277D01*
X58311Y170279D01*
X58371Y170288D01*
X58439Y170296D01*
X58516Y170298D01*
X58597Y170301D01*
X59506D01*
Y167781D01*
D02*
G37*
G36*
X94543Y167276D02*
X92493D01*
Y167500D01*
X94543D01*
Y167276D01*
D02*
G37*
G36*
X86585Y164281D02*
X85414D01*
X85384Y164284D01*
X85354D01*
X85318Y164287D01*
X85277Y164289D01*
X85195Y164298D01*
X85111Y164311D01*
X85029Y164328D01*
X84993Y164339D01*
X84958Y164350D01*
X84955D01*
X84950Y164352D01*
X84941Y164358D01*
X84928Y164363D01*
X84895Y164380D01*
X84857Y164404D01*
X84810Y164437D01*
X84764Y164481D01*
X84718Y164530D01*
X84677Y164590D01*
Y164593D01*
X84671Y164598D01*
X84666Y164606D01*
X84660Y164620D01*
X84652Y164636D01*
X84644Y164655D01*
X84633Y164677D01*
X84622Y164702D01*
X84603Y164759D01*
X84587Y164822D01*
X84576Y164893D01*
X84570Y164969D01*
Y164972D01*
Y164980D01*
Y164997D01*
X84573Y165013D01*
X84576Y165038D01*
X84578Y165065D01*
X84584Y165095D01*
X84592Y165128D01*
X84614Y165199D01*
X84627Y165237D01*
X84644Y165275D01*
X84663Y165313D01*
X84688Y165351D01*
X84715Y165387D01*
X84745Y165422D01*
X84748Y165425D01*
X84753Y165431D01*
X84764Y165439D01*
X84778Y165453D01*
X84797Y165466D01*
X84819Y165482D01*
X84846Y165502D01*
X84879Y165521D01*
X84914Y165540D01*
X84952Y165559D01*
X84996Y165578D01*
X85045Y165597D01*
X85097Y165614D01*
X85154Y165630D01*
X85217Y165644D01*
X85283Y165655D01*
X85280D01*
X85277Y165657D01*
X85261Y165665D01*
X85236Y165679D01*
X85206Y165696D01*
X85173Y165715D01*
X85141Y165734D01*
X85108Y165758D01*
X85081Y165780D01*
X85078Y165783D01*
X85075Y165786D01*
X85067Y165794D01*
X85056Y165805D01*
X85042Y165818D01*
X85026Y165835D01*
X84991Y165873D01*
X84950Y165922D01*
X84903Y165979D01*
X84854Y166045D01*
X84805Y166116D01*
X84368Y166801D01*
X84786D01*
X85119Y166277D01*
X85122Y166274D01*
X85124Y166266D01*
X85132Y166255D01*
X85143Y166239D01*
X85154Y166220D01*
X85171Y166198D01*
X85203Y166149D01*
X85242Y166091D01*
X85280Y166034D01*
X85321Y165979D01*
X85359Y165930D01*
Y165928D01*
X85365Y165925D01*
X85375Y165911D01*
X85392Y165889D01*
X85416Y165865D01*
X85441Y165837D01*
X85471Y165810D01*
X85501Y165783D01*
X85528Y165764D01*
X85531Y165761D01*
X85542Y165755D01*
X85556Y165747D01*
X85575Y165736D01*
X85599Y165726D01*
X85624Y165715D01*
X85651Y165704D01*
X85681Y165696D01*
X85684D01*
X85692Y165693D01*
X85706Y165690D01*
X85725Y165687D01*
X85752D01*
X85785Y165685D01*
X85823Y165682D01*
X86252D01*
Y166801D01*
X86585D01*
Y164281D01*
D02*
G37*
G36*
X90139D02*
X89795D01*
X89416Y165936D01*
Y165938D01*
X89413Y165947D01*
X89410Y165960D01*
X89405Y165979D01*
X89399Y166004D01*
X89394Y166031D01*
X89386Y166061D01*
X89378Y166097D01*
X89369Y166135D01*
X89361Y166176D01*
X89345Y166261D01*
X89326Y166353D01*
X89309Y166449D01*
Y166444D01*
X89304Y166433D01*
X89301Y166411D01*
X89293Y166386D01*
X89288Y166353D01*
X89279Y166318D01*
X89268Y166280D01*
X89260Y166242D01*
X89238Y166160D01*
X89230Y166121D01*
X89219Y166083D01*
X89211Y166050D01*
X89206Y166023D01*
X89200Y166001D01*
X89195Y165985D01*
X88714Y164281D01*
X88313D01*
X87955Y165559D01*
X87953Y165564D01*
X87950Y165581D01*
X87942Y165605D01*
X87933Y165641D01*
X87923Y165682D01*
X87909Y165731D01*
X87895Y165786D01*
X87879Y165848D01*
X87862Y165914D01*
X87846Y165985D01*
X87830Y166059D01*
X87813Y166135D01*
X87783Y166291D01*
X87756Y166449D01*
Y166446D01*
X87753Y166438D01*
X87751Y166424D01*
X87748Y166408D01*
X87742Y166383D01*
X87737Y166356D01*
X87729Y166326D01*
X87721Y166291D01*
X87712Y166252D01*
X87704Y166211D01*
X87693Y166165D01*
X87682Y166119D01*
X87658Y166015D01*
X87630Y165903D01*
X87235Y164281D01*
X86899D01*
X87590Y166801D01*
X87914D01*
X88441Y164882D01*
Y164879D01*
X88444Y164871D01*
X88447Y164860D01*
X88452Y164844D01*
X88458Y164825D01*
X88463Y164803D01*
X88477Y164754D01*
X88490Y164705D01*
X88504Y164655D01*
X88510Y164634D01*
X88515Y164614D01*
X88520Y164598D01*
X88523Y164587D01*
Y164590D01*
X88526Y164595D01*
Y164603D01*
X88531Y164617D01*
X88534Y164631D01*
X88537Y164650D01*
X88548Y164688D01*
X88559Y164734D01*
X88572Y164786D01*
X88586Y164836D01*
X88600Y164882D01*
X89129Y166801D01*
X89476D01*
X90139Y164281D01*
D02*
G37*
G36*
X96189D02*
X95856D01*
Y166504D01*
X94614D01*
Y166801D01*
X96189D01*
Y164281D01*
D02*
G37*
G36*
X92260D02*
X91223D01*
X91168Y164284D01*
X91106Y164287D01*
X91043Y164292D01*
X90983Y164298D01*
X90953Y164301D01*
X90928Y164306D01*
X90926D01*
X90920Y164309D01*
X90909D01*
X90898Y164311D01*
X90882Y164317D01*
X90863Y164320D01*
X90819Y164333D01*
X90770Y164350D01*
X90718Y164371D01*
X90666Y164396D01*
X90617Y164426D01*
X90614D01*
X90612Y164429D01*
X90595Y164442D01*
X90573Y164462D01*
X90543Y164489D01*
X90513Y164522D01*
X90478Y164565D01*
X90445Y164612D01*
X90415Y164669D01*
Y164672D01*
X90412Y164677D01*
X90407Y164685D01*
X90401Y164696D01*
X90396Y164710D01*
X90390Y164729D01*
X90374Y164770D01*
X90360Y164822D01*
X90347Y164879D01*
X90339Y164945D01*
X90336Y165013D01*
Y165016D01*
Y165027D01*
Y165043D01*
X90339Y165068D01*
X90341Y165095D01*
X90347Y165125D01*
X90352Y165160D01*
X90360Y165201D01*
X90371Y165242D01*
X90385Y165286D01*
X90401Y165330D01*
X90423Y165376D01*
X90445Y165422D01*
X90472Y165469D01*
X90505Y165513D01*
X90541Y165556D01*
X90543Y165559D01*
X90552Y165564D01*
X90562Y165575D01*
X90582Y165592D01*
X90603Y165608D01*
X90633Y165627D01*
X90669Y165646D01*
X90710Y165665D01*
X90759Y165687D01*
X90811Y165706D01*
X90874Y165726D01*
X90939Y165742D01*
X91016Y165755D01*
X91098Y165767D01*
X91185Y165775D01*
X91283Y165777D01*
X91927D01*
Y166801D01*
X92260D01*
Y164281D01*
D02*
G37*
G36*
X84215Y166796D02*
Y166782D01*
Y166760D01*
X84212Y166733D01*
X84210Y166700D01*
X84202Y166665D01*
X84193Y166626D01*
X84180Y166588D01*
Y166586D01*
X84177Y166580D01*
X84174Y166572D01*
X84169Y166558D01*
X84161Y166544D01*
X84152Y166525D01*
X84131Y166482D01*
X84103Y166430D01*
X84068Y166373D01*
X84027Y166313D01*
X83978Y166252D01*
X83975Y166250D01*
X83972Y166244D01*
X83964Y166236D01*
X83950Y166222D01*
X83937Y166209D01*
X83918Y166190D01*
X83899Y166168D01*
X83874Y166143D01*
X83847Y166116D01*
X83817Y166089D01*
X83784Y166056D01*
X83746Y166023D01*
X83707Y165988D01*
X83664Y165952D01*
X83620Y165914D01*
X83571Y165873D01*
X83565Y165870D01*
X83552Y165857D01*
X83533Y165840D01*
X83505Y165816D01*
X83473Y165788D01*
X83434Y165755D01*
X83391Y165720D01*
X83347Y165679D01*
X83254Y165594D01*
X83164Y165504D01*
X83121Y165461D01*
X83079Y165417D01*
X83044Y165376D01*
X83014Y165338D01*
X83011Y165335D01*
X83009Y165330D01*
X83000Y165319D01*
X82992Y165305D01*
X82978Y165286D01*
X82968Y165267D01*
X82940Y165218D01*
X82913Y165160D01*
X82889Y165098D01*
X82872Y165032D01*
X82869Y164999D01*
X82867Y164967D01*
Y164964D01*
Y164958D01*
Y164947D01*
X82869Y164936D01*
Y164920D01*
X82875Y164901D01*
X82883Y164860D01*
X82899Y164811D01*
X82924Y164759D01*
X82938Y164732D01*
X82957Y164707D01*
X82976Y164683D01*
X83000Y164658D01*
X83003Y164655D01*
X83006Y164653D01*
X83014Y164647D01*
X83025Y164639D01*
X83039Y164628D01*
X83055Y164617D01*
X83093Y164593D01*
X83145Y164571D01*
X83202Y164549D01*
X83271Y164535D01*
X83309Y164530D01*
X83369D01*
X83385Y164532D01*
X83404D01*
X83426Y164538D01*
X83475Y164546D01*
X83533Y164562D01*
X83593Y164587D01*
X83623Y164603D01*
X83653Y164620D01*
X83680Y164642D01*
X83707Y164666D01*
X83710Y164669D01*
X83713Y164672D01*
X83718Y164680D01*
X83729Y164691D01*
X83737Y164705D01*
X83748Y164721D01*
X83762Y164740D01*
X83773Y164762D01*
X83787Y164786D01*
X83798Y164814D01*
X83819Y164879D01*
X83836Y164950D01*
X83838Y164991D01*
X83841Y165035D01*
X84158Y165002D01*
Y164997D01*
X84155Y164986D01*
X84152Y164969D01*
X84150Y164945D01*
X84144Y164915D01*
X84136Y164879D01*
X84128Y164841D01*
X84114Y164800D01*
X84101Y164759D01*
X84084Y164713D01*
X84062Y164669D01*
X84040Y164625D01*
X84013Y164579D01*
X83983Y164538D01*
X83950Y164497D01*
X83912Y164462D01*
X83909Y164459D01*
X83901Y164453D01*
X83890Y164445D01*
X83874Y164432D01*
X83852Y164418D01*
X83825Y164401D01*
X83795Y164385D01*
X83759Y164366D01*
X83721Y164350D01*
X83677Y164333D01*
X83631Y164317D01*
X83579Y164303D01*
X83525Y164289D01*
X83467Y164281D01*
X83404Y164276D01*
X83339Y164273D01*
X83303D01*
X83279Y164276D01*
X83249Y164279D01*
X83213Y164284D01*
X83172Y164289D01*
X83131Y164298D01*
X83085Y164309D01*
X83039Y164322D01*
X82990Y164339D01*
X82943Y164358D01*
X82894Y164382D01*
X82847Y164410D01*
X82804Y164440D01*
X82763Y164475D01*
X82760Y164478D01*
X82755Y164483D01*
X82744Y164497D01*
X82730Y164511D01*
X82714Y164530D01*
X82695Y164554D01*
X82675Y164582D01*
X82656Y164614D01*
X82637Y164647D01*
X82618Y164685D01*
X82599Y164726D01*
X82583Y164770D01*
X82569Y164819D01*
X82558Y164868D01*
X82553Y164920D01*
X82550Y164975D01*
Y164978D01*
Y164980D01*
Y164988D01*
Y164999D01*
X82553Y165029D01*
X82558Y165068D01*
X82566Y165114D01*
X82577Y165163D01*
X82591Y165218D01*
X82613Y165272D01*
Y165275D01*
X82615Y165278D01*
X82618Y165286D01*
X82624Y165297D01*
X82640Y165327D01*
X82662Y165365D01*
X82692Y165412D01*
X82727Y165463D01*
X82768Y165518D01*
X82820Y165578D01*
X82823Y165581D01*
X82826Y165586D01*
X82837Y165594D01*
X82847Y165608D01*
X82864Y165624D01*
X82883Y165644D01*
X82905Y165668D01*
X82932Y165693D01*
X82965Y165723D01*
X83000Y165755D01*
X83039Y165794D01*
X83082Y165832D01*
X83129Y165876D01*
X83181Y165919D01*
X83238Y165969D01*
X83298Y166020D01*
X83301Y166023D01*
X83309Y166031D01*
X83325Y166042D01*
X83342Y166059D01*
X83366Y166078D01*
X83391Y166100D01*
X83448Y166149D01*
X83508Y166200D01*
X83565Y166255D01*
X83593Y166280D01*
X83617Y166302D01*
X83639Y166323D01*
X83656Y166340D01*
X83658Y166342D01*
X83669Y166353D01*
X83683Y166370D01*
X83702Y166392D01*
X83724Y166416D01*
X83746Y166444D01*
X83789Y166504D01*
X82547D01*
Y166801D01*
X84215D01*
Y166796D01*
D02*
G37*
G36*
X108390Y9760D02*
X108417Y9757D01*
X108447Y9754D01*
X108483Y9751D01*
X108559Y9741D01*
X108643Y9724D01*
X108728Y9702D01*
X108813Y9672D01*
X108816D01*
X108824Y9669D01*
X108835Y9664D01*
X108848Y9656D01*
X108867Y9648D01*
X108889Y9637D01*
X108938Y9609D01*
X108996Y9574D01*
X109053Y9533D01*
X109108Y9484D01*
X109160Y9426D01*
X109162Y9424D01*
X109165Y9418D01*
X109170Y9410D01*
X109181Y9399D01*
X109189Y9383D01*
X109203Y9364D01*
X109217Y9342D01*
X109230Y9315D01*
X109247Y9287D01*
X109260Y9257D01*
X109277Y9222D01*
X109293Y9186D01*
X109323Y9104D01*
X109351Y9014D01*
X109048Y8932D01*
Y8935D01*
X109045Y8941D01*
X109042Y8952D01*
X109037Y8965D01*
X109031Y8979D01*
X109026Y8998D01*
X109009Y9042D01*
X108987Y9091D01*
X108963Y9140D01*
X108936Y9189D01*
X108906Y9233D01*
X108903Y9238D01*
X108889Y9252D01*
X108870Y9271D01*
X108846Y9298D01*
X108810Y9325D01*
X108769Y9356D01*
X108720Y9383D01*
X108665Y9410D01*
X108663D01*
X108657Y9413D01*
X108649Y9416D01*
X108638Y9421D01*
X108624Y9426D01*
X108605Y9432D01*
X108564Y9446D01*
X108512Y9456D01*
X108455Y9467D01*
X108390Y9476D01*
X108321Y9478D01*
X108283D01*
X108264Y9476D01*
X108239D01*
X108215Y9473D01*
X108185Y9470D01*
X108125Y9462D01*
X108057Y9448D01*
X107991Y9432D01*
X107925Y9407D01*
X107923D01*
X107917Y9405D01*
X107909Y9399D01*
X107898Y9394D01*
X107868Y9380D01*
X107830Y9358D01*
X107786Y9331D01*
X107743Y9298D01*
X107696Y9263D01*
X107655Y9222D01*
X107650Y9216D01*
X107639Y9203D01*
X107620Y9178D01*
X107598Y9148D01*
X107573Y9113D01*
X107546Y9069D01*
X107521Y9023D01*
X107500Y8973D01*
Y8971D01*
X107497Y8962D01*
X107492Y8952D01*
X107486Y8932D01*
X107478Y8911D01*
X107470Y8886D01*
X107461Y8856D01*
X107453Y8823D01*
X107442Y8788D01*
X107434Y8747D01*
X107421Y8662D01*
X107410Y8567D01*
X107404Y8466D01*
Y8463D01*
Y8452D01*
Y8433D01*
X107407Y8411D01*
Y8381D01*
X107410Y8348D01*
X107415Y8310D01*
X107418Y8269D01*
X107431Y8179D01*
X107453Y8086D01*
X107481Y7991D01*
X107519Y7900D01*
X107521Y7898D01*
X107524Y7890D01*
X107530Y7879D01*
X107541Y7862D01*
X107552Y7846D01*
X107568Y7824D01*
X107603Y7775D01*
X107652Y7720D01*
X107710Y7663D01*
X107775Y7611D01*
X107814Y7587D01*
X107855Y7565D01*
X107857D01*
X107866Y7559D01*
X107876Y7554D01*
X107893Y7548D01*
X107915Y7540D01*
X107939Y7529D01*
X107966Y7521D01*
X107996Y7510D01*
X108029Y7499D01*
X108068Y7491D01*
X108147Y7472D01*
X108234Y7461D01*
X108327Y7456D01*
X108349D01*
X108365Y7458D01*
X108384D01*
X108406Y7461D01*
X108431Y7464D01*
X108461Y7466D01*
X108523Y7475D01*
X108594Y7491D01*
X108671Y7510D01*
X108747Y7537D01*
X108750D01*
X108756Y7540D01*
X108766Y7546D01*
X108783Y7551D01*
X108799Y7559D01*
X108818Y7570D01*
X108865Y7592D01*
X108916Y7619D01*
X108968Y7649D01*
X109018Y7679D01*
X109061Y7715D01*
Y8187D01*
X108321D01*
Y8485D01*
X109389D01*
Y7548D01*
X109386Y7546D01*
X109378Y7540D01*
X109364Y7529D01*
X109345Y7515D01*
X109323Y7499D01*
X109296Y7483D01*
X109266Y7461D01*
X109233Y7439D01*
X109198Y7417D01*
X109157Y7393D01*
X109072Y7344D01*
X108979Y7297D01*
X108881Y7256D01*
X108878D01*
X108870Y7251D01*
X108856Y7248D01*
X108835Y7240D01*
X108813Y7234D01*
X108783Y7226D01*
X108753Y7215D01*
X108717Y7207D01*
X108676Y7199D01*
X108635Y7188D01*
X108545Y7174D01*
X108447Y7163D01*
X108346Y7158D01*
X108310D01*
X108283Y7161D01*
X108250Y7163D01*
X108212Y7166D01*
X108168Y7171D01*
X108122Y7177D01*
X108073Y7185D01*
X108018Y7196D01*
X107964Y7210D01*
X107904Y7226D01*
X107846Y7243D01*
X107789Y7264D01*
X107729Y7289D01*
X107672Y7316D01*
X107669Y7319D01*
X107658Y7324D01*
X107642Y7333D01*
X107623Y7346D01*
X107598Y7363D01*
X107568Y7382D01*
X107535Y7406D01*
X107500Y7434D01*
X107464Y7464D01*
X107426Y7499D01*
X107388Y7535D01*
X107350Y7576D01*
X107314Y7622D01*
X107279Y7668D01*
X107243Y7720D01*
X107213Y7775D01*
X107210Y7778D01*
X107208Y7789D01*
X107199Y7805D01*
X107188Y7827D01*
X107177Y7857D01*
X107164Y7890D01*
X107150Y7928D01*
X107137Y7971D01*
X107123Y8018D01*
X107109Y8070D01*
X107096Y8127D01*
X107085Y8184D01*
X107074Y8247D01*
X107066Y8310D01*
X107063Y8378D01*
X107060Y8446D01*
Y8452D01*
Y8463D01*
Y8482D01*
X107063Y8509D01*
X107066Y8542D01*
X107068Y8580D01*
X107074Y8624D01*
X107079Y8670D01*
X107087Y8722D01*
X107098Y8777D01*
X107126Y8891D01*
X107142Y8952D01*
X107164Y9012D01*
X107186Y9072D01*
X107213Y9132D01*
X107216Y9134D01*
X107221Y9145D01*
X107229Y9162D01*
X107240Y9183D01*
X107257Y9211D01*
X107276Y9241D01*
X107300Y9274D01*
X107325Y9312D01*
X107355Y9350D01*
X107388Y9388D01*
X107423Y9426D01*
X107464Y9467D01*
X107505Y9506D01*
X107552Y9541D01*
X107601Y9577D01*
X107652Y9607D01*
X107655Y9609D01*
X107666Y9612D01*
X107683Y9620D01*
X107704Y9631D01*
X107732Y9642D01*
X107764Y9656D01*
X107803Y9669D01*
X107844Y9686D01*
X107890Y9700D01*
X107942Y9713D01*
X107996Y9727D01*
X108057Y9738D01*
X108117Y9749D01*
X108182Y9757D01*
X108250Y9760D01*
X108319Y9762D01*
X108365D01*
X108390Y9760D01*
D02*
G37*
G36*
X111862Y7199D02*
X111518D01*
X110197Y9175D01*
Y7199D01*
X109878D01*
Y9719D01*
X110219D01*
X111543Y7739D01*
Y9719D01*
X111862D01*
Y7199D01*
D02*
G37*
G36*
X113388Y9716D02*
X113421D01*
X113454Y9713D01*
X113528Y9710D01*
X113601Y9702D01*
X113675Y9694D01*
X113708Y9686D01*
X113738Y9680D01*
X113741D01*
X113749Y9678D01*
X113760Y9675D01*
X113773Y9669D01*
X113792Y9664D01*
X113814Y9659D01*
X113866Y9639D01*
X113923Y9615D01*
X113983Y9585D01*
X114046Y9547D01*
X114106Y9500D01*
X114109Y9498D01*
X114114Y9492D01*
X114125Y9484D01*
X114139Y9470D01*
X114155Y9454D01*
X114174Y9432D01*
X114196Y9410D01*
X114218Y9383D01*
X114243Y9353D01*
X114267Y9320D01*
X114292Y9285D01*
X114316Y9246D01*
X114363Y9162D01*
X114404Y9069D01*
Y9066D01*
X114409Y9058D01*
X114412Y9042D01*
X114420Y9023D01*
X114428Y8998D01*
X114437Y8968D01*
X114445Y8935D01*
X114456Y8897D01*
X114464Y8853D01*
X114472Y8807D01*
X114480Y8758D01*
X114488Y8706D01*
X114497Y8651D01*
X114499Y8594D01*
X114505Y8471D01*
Y8468D01*
Y8457D01*
Y8444D01*
Y8422D01*
X114502Y8397D01*
Y8367D01*
X114499Y8335D01*
X114497Y8299D01*
X114488Y8220D01*
X114475Y8135D01*
X114458Y8048D01*
X114437Y7960D01*
Y7958D01*
X114434Y7950D01*
X114428Y7939D01*
X114426Y7925D01*
X114418Y7906D01*
X114409Y7884D01*
X114390Y7832D01*
X114366Y7775D01*
X114336Y7712D01*
X114303Y7652D01*
X114265Y7595D01*
Y7592D01*
X114259Y7589D01*
X114254Y7581D01*
X114245Y7570D01*
X114226Y7546D01*
X114196Y7513D01*
X114164Y7475D01*
X114125Y7436D01*
X114082Y7401D01*
X114035Y7365D01*
X114033D01*
X114030Y7363D01*
X114013Y7352D01*
X113986Y7338D01*
X113951Y7319D01*
X113907Y7300D01*
X113855Y7278D01*
X113795Y7259D01*
X113732Y7240D01*
X113730D01*
X113724Y7237D01*
X113716D01*
X113702Y7234D01*
X113686Y7232D01*
X113664Y7226D01*
X113642Y7223D01*
X113618Y7221D01*
X113558Y7213D01*
X113489Y7204D01*
X113413Y7202D01*
X113331Y7199D01*
X112422D01*
Y9719D01*
X113361D01*
X113388Y9716D01*
D02*
G37*
G36*
X103929D02*
X103992Y9713D01*
X104054Y9708D01*
X104114Y9702D01*
X104145Y9700D01*
X104169Y9694D01*
X104172D01*
X104177Y9691D01*
X104188D01*
X104199Y9689D01*
X104216Y9683D01*
X104235Y9680D01*
X104278Y9667D01*
X104327Y9650D01*
X104379Y9629D01*
X104431Y9604D01*
X104480Y9574D01*
X104483D01*
X104486Y9571D01*
X104502Y9558D01*
X104524Y9538D01*
X104554Y9511D01*
X104584Y9478D01*
X104620Y9435D01*
X104652Y9388D01*
X104682Y9331D01*
Y9328D01*
X104685Y9323D01*
X104691Y9315D01*
X104696Y9304D01*
X104701Y9290D01*
X104707Y9271D01*
X104723Y9230D01*
X104737Y9178D01*
X104751Y9121D01*
X104759Y9055D01*
X104762Y8987D01*
Y8984D01*
Y8973D01*
Y8957D01*
X104759Y8932D01*
X104756Y8905D01*
X104751Y8875D01*
X104745Y8840D01*
X104737Y8799D01*
X104726Y8758D01*
X104712Y8714D01*
X104696Y8670D01*
X104674Y8624D01*
X104652Y8578D01*
X104625Y8531D01*
X104592Y8487D01*
X104557Y8444D01*
X104554Y8441D01*
X104546Y8435D01*
X104535Y8425D01*
X104516Y8408D01*
X104494Y8392D01*
X104464Y8373D01*
X104428Y8354D01*
X104387Y8335D01*
X104338Y8313D01*
X104287Y8294D01*
X104224Y8275D01*
X104158Y8258D01*
X104082Y8244D01*
X104000Y8234D01*
X103912Y8225D01*
X103814Y8223D01*
X103170D01*
Y7199D01*
X102837D01*
Y9719D01*
X103874D01*
X103929Y9716D01*
D02*
G37*
G36*
X102493Y9421D02*
X101663D01*
Y7199D01*
X101330D01*
Y9421D01*
X100500D01*
Y9719D01*
X102493D01*
Y9421D01*
D02*
G37*
G36*
X106910Y6500D02*
X104860D01*
Y6724D01*
X106910D01*
Y6500D01*
D02*
G37*
G36*
X130789Y23276D02*
X128738D01*
Y23500D01*
X130789D01*
Y23276D01*
D02*
G37*
G36*
X133000Y20281D02*
X131829D01*
X131799Y20284D01*
X131769D01*
X131733Y20287D01*
X131692Y20290D01*
X131611Y20298D01*
X131526Y20311D01*
X131444Y20328D01*
X131408Y20339D01*
X131373Y20350D01*
X131370D01*
X131365Y20352D01*
X131357Y20358D01*
X131343Y20363D01*
X131310Y20380D01*
X131272Y20404D01*
X131226Y20437D01*
X131179Y20481D01*
X131133Y20530D01*
X131092Y20590D01*
Y20593D01*
X131086Y20598D01*
X131081Y20606D01*
X131075Y20620D01*
X131067Y20636D01*
X131059Y20655D01*
X131048Y20677D01*
X131037Y20702D01*
X131018Y20759D01*
X131002Y20822D01*
X130991Y20893D01*
X130985Y20969D01*
Y20972D01*
Y20980D01*
Y20997D01*
X130988Y21013D01*
X130991Y21038D01*
X130993Y21065D01*
X130999Y21095D01*
X131007Y21128D01*
X131029Y21199D01*
X131043Y21237D01*
X131059Y21275D01*
X131078Y21313D01*
X131103Y21351D01*
X131130Y21387D01*
X131160Y21422D01*
X131163Y21425D01*
X131168Y21431D01*
X131179Y21439D01*
X131193Y21452D01*
X131212Y21466D01*
X131234Y21483D01*
X131261Y21502D01*
X131294Y21521D01*
X131329Y21540D01*
X131368Y21559D01*
X131411Y21578D01*
X131460Y21597D01*
X131512Y21614D01*
X131570Y21630D01*
X131632Y21644D01*
X131698Y21655D01*
X131695D01*
X131692Y21657D01*
X131676Y21666D01*
X131651Y21679D01*
X131621Y21696D01*
X131589Y21715D01*
X131556Y21734D01*
X131523Y21758D01*
X131496Y21780D01*
X131493Y21783D01*
X131490Y21786D01*
X131482Y21794D01*
X131471Y21805D01*
X131458Y21818D01*
X131441Y21835D01*
X131406Y21873D01*
X131365Y21922D01*
X131318Y21979D01*
X131269Y22045D01*
X131220Y22116D01*
X130783Y22801D01*
X131201D01*
X131534Y22277D01*
X131537Y22274D01*
X131539Y22266D01*
X131548Y22255D01*
X131559Y22239D01*
X131570Y22220D01*
X131586Y22198D01*
X131619Y22149D01*
X131657Y22091D01*
X131695Y22034D01*
X131736Y21979D01*
X131774Y21930D01*
Y21927D01*
X131780Y21925D01*
X131791Y21911D01*
X131807Y21889D01*
X131832Y21865D01*
X131856Y21837D01*
X131886Y21810D01*
X131916Y21783D01*
X131944Y21764D01*
X131946Y21761D01*
X131957Y21756D01*
X131971Y21747D01*
X131990Y21736D01*
X132015Y21725D01*
X132039Y21715D01*
X132066Y21704D01*
X132096Y21696D01*
X132099D01*
X132107Y21693D01*
X132121Y21690D01*
X132140Y21687D01*
X132167D01*
X132200Y21685D01*
X132238Y21682D01*
X132667D01*
Y22801D01*
X133000D01*
Y20281D01*
D02*
G37*
G36*
X128506D02*
X127567D01*
X127540Y20284D01*
X127507D01*
X127474Y20287D01*
X127401Y20290D01*
X127327Y20298D01*
X127253Y20306D01*
X127221Y20314D01*
X127191Y20320D01*
X127188D01*
X127180Y20322D01*
X127169Y20325D01*
X127155Y20331D01*
X127136Y20336D01*
X127114Y20341D01*
X127062Y20360D01*
X127005Y20385D01*
X126945Y20415D01*
X126882Y20453D01*
X126822Y20500D01*
X126819Y20503D01*
X126814Y20508D01*
X126803Y20516D01*
X126789Y20530D01*
X126773Y20546D01*
X126754Y20568D01*
X126732Y20590D01*
X126710Y20617D01*
X126686Y20647D01*
X126661Y20680D01*
X126636Y20715D01*
X126612Y20754D01*
X126565Y20838D01*
X126524Y20931D01*
Y20934D01*
X126519Y20942D01*
X126516Y20958D01*
X126508Y20978D01*
X126500Y21002D01*
X126492Y21032D01*
X126484Y21065D01*
X126473Y21103D01*
X126464Y21147D01*
X126456Y21193D01*
X126448Y21242D01*
X126440Y21294D01*
X126432Y21349D01*
X126429Y21406D01*
X126424Y21529D01*
Y21532D01*
Y21543D01*
Y21556D01*
Y21578D01*
X126426Y21603D01*
Y21633D01*
X126429Y21666D01*
X126432Y21701D01*
X126440Y21780D01*
X126453Y21865D01*
X126470Y21952D01*
X126492Y22039D01*
Y22042D01*
X126494Y22050D01*
X126500Y22061D01*
X126503Y22075D01*
X126511Y22094D01*
X126519Y22116D01*
X126538Y22168D01*
X126563Y22225D01*
X126593Y22288D01*
X126626Y22348D01*
X126664Y22405D01*
Y22408D01*
X126669Y22411D01*
X126675Y22419D01*
X126683Y22430D01*
X126702Y22454D01*
X126732Y22487D01*
X126765Y22525D01*
X126803Y22564D01*
X126847Y22599D01*
X126893Y22635D01*
X126896D01*
X126899Y22637D01*
X126915Y22648D01*
X126942Y22662D01*
X126978Y22681D01*
X127021Y22700D01*
X127073Y22722D01*
X127133Y22741D01*
X127196Y22760D01*
X127199D01*
X127204Y22763D01*
X127212D01*
X127226Y22766D01*
X127243Y22768D01*
X127264Y22774D01*
X127286Y22777D01*
X127311Y22779D01*
X127371Y22787D01*
X127439Y22796D01*
X127515Y22798D01*
X127597Y22801D01*
X128506D01*
Y20281D01*
D02*
G37*
G36*
X125233Y20833D02*
X125239Y20838D01*
X125252Y20852D01*
X125277Y20871D01*
X125312Y20898D01*
X125353Y20931D01*
X125405Y20967D01*
X125462Y21005D01*
X125528Y21046D01*
X125531D01*
X125536Y21051D01*
X125544Y21057D01*
X125558Y21062D01*
X125574Y21073D01*
X125593Y21081D01*
X125637Y21106D01*
X125686Y21130D01*
X125741Y21158D01*
X125798Y21182D01*
X125853Y21204D01*
Y20907D01*
X125850Y20904D01*
X125842Y20901D01*
X125828Y20893D01*
X125809Y20885D01*
X125787Y20874D01*
X125760Y20857D01*
X125730Y20841D01*
X125700Y20825D01*
X125629Y20781D01*
X125553Y20729D01*
X125473Y20674D01*
X125400Y20612D01*
X125397Y20609D01*
X125391Y20604D01*
X125381Y20595D01*
X125367Y20582D01*
X125353Y20565D01*
X125334Y20549D01*
X125293Y20503D01*
X125247Y20453D01*
X125200Y20396D01*
X125160Y20336D01*
X125124Y20273D01*
X124925D01*
Y22801D01*
X125233D01*
Y20833D01*
D02*
G37*
G36*
X125964Y39017D02*
X123914D01*
Y39241D01*
X125964D01*
Y39017D01*
D02*
G37*
G36*
X122991Y36022D02*
X122631D01*
X121599Y38542D01*
X121979D01*
X122271Y37780D01*
X123330D01*
X123603Y38542D01*
X123955D01*
X122991Y36022D01*
D02*
G37*
G36*
X120316Y38580D02*
X120349Y38578D01*
X120390Y38575D01*
X120433Y38570D01*
X120483Y38561D01*
X120534Y38553D01*
X120589Y38542D01*
X120644Y38529D01*
X120698Y38515D01*
X120756Y38496D01*
X120810Y38474D01*
X120862Y38449D01*
X120911Y38419D01*
X120914Y38417D01*
X120922Y38411D01*
X120936Y38403D01*
X120952Y38389D01*
X120974Y38370D01*
X120999Y38351D01*
X121026Y38326D01*
X121056Y38296D01*
X121086Y38264D01*
X121119Y38228D01*
X121149Y38190D01*
X121181Y38146D01*
X121214Y38100D01*
X121244Y38051D01*
X121272Y37996D01*
X121299Y37939D01*
X121301Y37936D01*
X121304Y37925D01*
X121310Y37906D01*
X121318Y37884D01*
X121329Y37854D01*
X121340Y37821D01*
X121351Y37780D01*
X121364Y37737D01*
X121375Y37688D01*
X121389Y37636D01*
X121400Y37581D01*
X121408Y37521D01*
X121424Y37396D01*
X121427Y37330D01*
X121430Y37265D01*
Y37259D01*
Y37248D01*
Y37226D01*
X121427Y37199D01*
X121424Y37164D01*
X121422Y37123D01*
X121416Y37079D01*
X121411Y37030D01*
X121403Y36978D01*
X121394Y36923D01*
X121367Y36806D01*
X121348Y36749D01*
X121329Y36691D01*
X121307Y36631D01*
X121280Y36577D01*
X121277Y36574D01*
X121272Y36563D01*
X121263Y36549D01*
X121252Y36527D01*
X121236Y36503D01*
X121217Y36476D01*
X121195Y36446D01*
X121170Y36410D01*
X121141Y36377D01*
X121110Y36339D01*
X121075Y36304D01*
X121037Y36265D01*
X120996Y36230D01*
X120952Y36194D01*
X120903Y36162D01*
X120854Y36132D01*
X120851Y36129D01*
X120840Y36126D01*
X120826Y36118D01*
X120805Y36107D01*
X120780Y36096D01*
X120747Y36083D01*
X120712Y36069D01*
X120674Y36055D01*
X120630Y36042D01*
X120581Y36028D01*
X120532Y36014D01*
X120477Y36003D01*
X120365Y35984D01*
X120305Y35982D01*
X120242Y35979D01*
X120207D01*
X120179Y35982D01*
X120147Y35984D01*
X120108Y35990D01*
X120068Y35995D01*
X120021Y36003D01*
X119972Y36014D01*
X119920Y36025D01*
X119868Y36042D01*
X119814Y36061D01*
X119759Y36083D01*
X119707Y36110D01*
X119655Y36137D01*
X119606Y36173D01*
X119604Y36175D01*
X119595Y36181D01*
X119582Y36192D01*
X119565Y36208D01*
X119543Y36227D01*
X119519Y36252D01*
X119494Y36279D01*
X119464Y36312D01*
X119434Y36347D01*
X119404Y36388D01*
X119374Y36432D01*
X119347Y36481D01*
X119317Y36533D01*
X119292Y36590D01*
X119268Y36650D01*
X119246Y36713D01*
X119573Y36790D01*
Y36787D01*
X119579Y36779D01*
X119582Y36762D01*
X119590Y36743D01*
X119598Y36721D01*
X119612Y36697D01*
X119639Y36637D01*
X119674Y36571D01*
X119721Y36503D01*
X119770Y36440D01*
X119800Y36413D01*
X119830Y36388D01*
X119833Y36386D01*
X119838Y36383D01*
X119846Y36377D01*
X119860Y36369D01*
X119877Y36358D01*
X119896Y36347D01*
X119917Y36336D01*
X119945Y36325D01*
X119975Y36314D01*
X120005Y36304D01*
X120076Y36282D01*
X120158Y36268D01*
X120201Y36263D01*
X120275D01*
X120297Y36265D01*
X120322Y36268D01*
X120352Y36271D01*
X120384Y36274D01*
X120417Y36279D01*
X120496Y36298D01*
X120578Y36323D01*
X120619Y36339D01*
X120660Y36358D01*
X120698Y36380D01*
X120736Y36405D01*
X120739Y36407D01*
X120745Y36410D01*
X120756Y36418D01*
X120769Y36429D01*
X120783Y36443D01*
X120802Y36462D01*
X120821Y36481D01*
X120843Y36503D01*
X120865Y36530D01*
X120889Y36557D01*
X120933Y36620D01*
X120974Y36694D01*
X121009Y36779D01*
Y36781D01*
X121012Y36790D01*
X121018Y36803D01*
X121020Y36820D01*
X121026Y36841D01*
X121034Y36866D01*
X121039Y36896D01*
X121048Y36926D01*
X121056Y36961D01*
X121061Y37000D01*
X121075Y37082D01*
X121083Y37169D01*
X121086Y37262D01*
Y37265D01*
Y37275D01*
Y37292D01*
X121083Y37316D01*
Y37344D01*
X121080Y37376D01*
X121078Y37412D01*
X121075Y37453D01*
X121070Y37497D01*
X121064Y37540D01*
X121048Y37636D01*
X121023Y37731D01*
X120993Y37824D01*
Y37827D01*
X120988Y37835D01*
X120982Y37846D01*
X120977Y37863D01*
X120966Y37884D01*
X120952Y37906D01*
X120922Y37958D01*
X120881Y38018D01*
X120832Y38075D01*
X120772Y38133D01*
X120739Y38157D01*
X120704Y38182D01*
X120701D01*
X120695Y38187D01*
X120685Y38193D01*
X120668Y38201D01*
X120649Y38209D01*
X120627Y38220D01*
X120603Y38228D01*
X120575Y38239D01*
X120513Y38261D01*
X120439Y38280D01*
X120360Y38294D01*
X120319Y38296D01*
X120275Y38299D01*
X120248D01*
X120229Y38296D01*
X120204Y38294D01*
X120177Y38291D01*
X120144Y38286D01*
X120111Y38280D01*
X120035Y38261D01*
X119997Y38247D01*
X119956Y38231D01*
X119915Y38212D01*
X119877Y38190D01*
X119838Y38166D01*
X119800Y38138D01*
X119797Y38135D01*
X119792Y38130D01*
X119781Y38122D01*
X119767Y38108D01*
X119754Y38092D01*
X119735Y38070D01*
X119715Y38045D01*
X119694Y38018D01*
X119672Y37985D01*
X119650Y37950D01*
X119628Y37912D01*
X119606Y37868D01*
X119587Y37821D01*
X119568Y37770D01*
X119549Y37715D01*
X119535Y37658D01*
X119202Y37742D01*
Y37748D01*
X119208Y37761D01*
X119213Y37780D01*
X119224Y37811D01*
X119235Y37843D01*
X119251Y37884D01*
X119268Y37928D01*
X119290Y37974D01*
X119314Y38026D01*
X119341Y38075D01*
X119371Y38130D01*
X119407Y38182D01*
X119445Y38231D01*
X119486Y38280D01*
X119533Y38326D01*
X119582Y38370D01*
X119584Y38373D01*
X119595Y38378D01*
X119609Y38389D01*
X119631Y38403D01*
X119655Y38419D01*
X119688Y38438D01*
X119724Y38458D01*
X119767Y38477D01*
X119814Y38496D01*
X119863Y38515D01*
X119917Y38534D01*
X119977Y38550D01*
X120040Y38564D01*
X120106Y38575D01*
X120174Y38580D01*
X120248Y38583D01*
X120286D01*
X120316Y38580D01*
D02*
G37*
G36*
X132500Y36022D02*
X132167D01*
Y38245D01*
X130925D01*
Y38542D01*
X132500D01*
Y36022D01*
D02*
G37*
G36*
X130521D02*
X128697D01*
Y36320D01*
X130188D01*
Y37090D01*
X128793D01*
Y37387D01*
X130188D01*
Y38245D01*
X128640D01*
Y38542D01*
X130521D01*
Y36022D01*
D02*
G37*
G36*
X128181D02*
X127242D01*
X127215Y36025D01*
X127182D01*
X127149Y36028D01*
X127076Y36031D01*
X127002Y36039D01*
X126928Y36047D01*
X126895Y36055D01*
X126865Y36061D01*
X126863D01*
X126854Y36063D01*
X126843Y36066D01*
X126830Y36072D01*
X126811Y36077D01*
X126789Y36083D01*
X126737Y36102D01*
X126680Y36126D01*
X126620Y36156D01*
X126557Y36194D01*
X126497Y36241D01*
X126494Y36244D01*
X126488Y36249D01*
X126478Y36257D01*
X126464Y36271D01*
X126448Y36287D01*
X126428Y36309D01*
X126407Y36331D01*
X126385Y36358D01*
X126360Y36388D01*
X126336Y36421D01*
X126311Y36457D01*
X126286Y36495D01*
X126240Y36579D01*
X126199Y36672D01*
Y36675D01*
X126194Y36683D01*
X126191Y36700D01*
X126183Y36719D01*
X126175Y36743D01*
X126166Y36773D01*
X126158Y36806D01*
X126147Y36844D01*
X126139Y36888D01*
X126131Y36934D01*
X126123Y36983D01*
X126114Y37035D01*
X126106Y37090D01*
X126104Y37147D01*
X126098Y37270D01*
Y37273D01*
Y37284D01*
Y37297D01*
Y37319D01*
X126101Y37344D01*
Y37374D01*
X126104Y37407D01*
X126106Y37442D01*
X126114Y37521D01*
X126128Y37606D01*
X126145Y37693D01*
X126166Y37780D01*
Y37783D01*
X126169Y37791D01*
X126175Y37802D01*
X126177Y37816D01*
X126186Y37835D01*
X126194Y37857D01*
X126213Y37909D01*
X126237Y37966D01*
X126267Y38029D01*
X126300Y38089D01*
X126338Y38146D01*
Y38149D01*
X126344Y38152D01*
X126349Y38160D01*
X126357Y38171D01*
X126377Y38195D01*
X126407Y38228D01*
X126439Y38267D01*
X126478Y38305D01*
X126521Y38340D01*
X126568Y38376D01*
X126570D01*
X126573Y38378D01*
X126590Y38389D01*
X126617Y38403D01*
X126652Y38422D01*
X126696Y38441D01*
X126748Y38463D01*
X126808Y38482D01*
X126871Y38501D01*
X126874D01*
X126879Y38504D01*
X126887D01*
X126901Y38507D01*
X126917Y38510D01*
X126939Y38515D01*
X126961Y38518D01*
X126985Y38520D01*
X127045Y38529D01*
X127114Y38537D01*
X127190Y38539D01*
X127272Y38542D01*
X128181D01*
Y36022D01*
D02*
G37*
G36*
X118151Y36320D02*
X118981D01*
Y36022D01*
X116988D01*
Y36320D01*
X117818D01*
Y38542D01*
X118151D01*
Y36320D01*
D02*
G37*
G36*
X145566Y99069D02*
X145585Y99066D01*
X145637Y99061D01*
X145694Y99050D01*
X145760Y99033D01*
X145825Y99012D01*
X145891Y98981D01*
X145893D01*
X145899Y98979D01*
X145907Y98973D01*
X145921Y98965D01*
X145951Y98946D01*
X145989Y98919D01*
X146033Y98883D01*
X146076Y98842D01*
X146120Y98796D01*
X146158Y98741D01*
Y98739D01*
X146161Y98736D01*
X146166Y98725D01*
X146172Y98714D01*
X146180Y98700D01*
X146188Y98684D01*
X146205Y98643D01*
X146221Y98594D01*
X146237Y98539D01*
X146248Y98479D01*
X146251Y98416D01*
Y98414D01*
Y98408D01*
Y98400D01*
Y98389D01*
X146246Y98356D01*
X146240Y98318D01*
X146229Y98272D01*
X146213Y98223D01*
X146191Y98171D01*
X146161Y98119D01*
Y98116D01*
X146158Y98113D01*
X146144Y98097D01*
X146125Y98072D01*
X146095Y98042D01*
X146060Y98007D01*
X146013Y97971D01*
X145962Y97939D01*
X145902Y97906D01*
X145904D01*
X145913Y97903D01*
X145923Y97900D01*
X145940Y97895D01*
X145956Y97890D01*
X145978Y97881D01*
X146030Y97860D01*
X146084Y97830D01*
X146142Y97794D01*
X146199Y97748D01*
X146248Y97690D01*
X146251Y97688D01*
X146254Y97682D01*
X146259Y97674D01*
X146267Y97660D01*
X146278Y97647D01*
X146289Y97627D01*
X146300Y97606D01*
X146311Y97578D01*
X146322Y97551D01*
X146333Y97521D01*
X146355Y97453D01*
X146368Y97374D01*
X146374Y97330D01*
Y97286D01*
Y97284D01*
Y97273D01*
X146371Y97253D01*
Y97232D01*
X146366Y97202D01*
X146360Y97169D01*
X146355Y97133D01*
X146344Y97092D01*
X146330Y97049D01*
X146314Y97005D01*
X146295Y96959D01*
X146270Y96912D01*
X146243Y96863D01*
X146210Y96817D01*
X146175Y96770D01*
X146131Y96727D01*
X146128Y96724D01*
X146120Y96716D01*
X146106Y96705D01*
X146087Y96691D01*
X146065Y96675D01*
X146035Y96656D01*
X146002Y96634D01*
X145964Y96615D01*
X145923Y96593D01*
X145877Y96571D01*
X145828Y96552D01*
X145773Y96535D01*
X145716Y96522D01*
X145656Y96511D01*
X145593Y96503D01*
X145525Y96500D01*
X145511D01*
X145492Y96503D01*
X145470D01*
X145440Y96505D01*
X145407Y96511D01*
X145372Y96516D01*
X145331Y96525D01*
X145287Y96535D01*
X145244Y96549D01*
X145197Y96563D01*
X145151Y96582D01*
X145104Y96606D01*
X145061Y96631D01*
X145014Y96661D01*
X144973Y96697D01*
X144971Y96699D01*
X144965Y96705D01*
X144954Y96716D01*
X144938Y96732D01*
X144922Y96751D01*
X144902Y96776D01*
X144883Y96803D01*
X144861Y96836D01*
X144840Y96868D01*
X144818Y96909D01*
X144796Y96950D01*
X144777Y96997D01*
X144760Y97046D01*
X144744Y97098D01*
X144733Y97152D01*
X144725Y97210D01*
X145033Y97251D01*
Y97248D01*
X145036Y97240D01*
X145039Y97226D01*
X145044Y97207D01*
X145050Y97185D01*
X145055Y97161D01*
X145074Y97103D01*
X145099Y97040D01*
X145129Y96978D01*
X145167Y96920D01*
X145189Y96896D01*
X145211Y96871D01*
X145214D01*
X145216Y96866D01*
X145224Y96860D01*
X145233Y96852D01*
X145260Y96836D01*
X145298Y96814D01*
X145345Y96792D01*
X145396Y96776D01*
X145459Y96762D01*
X145525Y96757D01*
X145547D01*
X145563Y96759D01*
X145579Y96762D01*
X145604Y96765D01*
X145653Y96776D01*
X145713Y96792D01*
X145776Y96819D01*
X145806Y96838D01*
X145836Y96858D01*
X145866Y96879D01*
X145896Y96907D01*
X145899Y96909D01*
X145902Y96915D01*
X145910Y96923D01*
X145921Y96934D01*
X145932Y96948D01*
X145942Y96967D01*
X145956Y96986D01*
X145973Y97010D01*
X146000Y97065D01*
X146022Y97128D01*
X146041Y97202D01*
X146044Y97240D01*
X146046Y97281D01*
Y97284D01*
Y97289D01*
Y97303D01*
X146044Y97316D01*
X146041Y97335D01*
X146038Y97354D01*
X146030Y97404D01*
X146011Y97461D01*
X145986Y97518D01*
X145970Y97548D01*
X145951Y97576D01*
X145929Y97603D01*
X145904Y97630D01*
X145902Y97633D01*
X145899Y97636D01*
X145891Y97644D01*
X145880Y97652D01*
X145866Y97663D01*
X145850Y97674D01*
X145809Y97701D01*
X145757Y97726D01*
X145697Y97748D01*
X145628Y97764D01*
X145590Y97767D01*
X145552Y97769D01*
X145536D01*
X145517Y97767D01*
X145492D01*
X145459Y97761D01*
X145424Y97756D01*
X145380Y97748D01*
X145334Y97737D01*
X145367Y98007D01*
X145372D01*
X145386Y98004D01*
X145402Y98001D01*
X145437D01*
X145451Y98004D01*
X145470D01*
X145489Y98007D01*
X145536Y98015D01*
X145590Y98026D01*
X145650Y98045D01*
X145713Y98070D01*
X145773Y98105D01*
X145776D01*
X145781Y98111D01*
X145787Y98116D01*
X145798Y98124D01*
X145825Y98149D01*
X145855Y98184D01*
X145882Y98228D01*
X145910Y98283D01*
X145921Y98313D01*
X145926Y98348D01*
X145932Y98384D01*
X145934Y98422D01*
Y98425D01*
Y98430D01*
Y98438D01*
X145932Y98452D01*
X145929Y98482D01*
X145921Y98523D01*
X145907Y98567D01*
X145885Y98613D01*
X145855Y98662D01*
X145839Y98684D01*
X145817Y98706D01*
X145811Y98711D01*
X145795Y98722D01*
X145771Y98741D01*
X145738Y98763D01*
X145694Y98782D01*
X145642Y98801D01*
X145585Y98812D01*
X145519Y98818D01*
X145503D01*
X145489Y98815D01*
X145473D01*
X145457Y98812D01*
X145413Y98804D01*
X145367Y98790D01*
X145315Y98769D01*
X145265Y98741D01*
X145216Y98703D01*
X145211Y98698D01*
X145197Y98681D01*
X145175Y98657D01*
X145153Y98618D01*
X145126Y98572D01*
X145102Y98512D01*
X145080Y98444D01*
X145063Y98365D01*
X144755Y98419D01*
Y98422D01*
X144758Y98433D01*
X144760Y98449D01*
X144766Y98471D01*
X144774Y98496D01*
X144782Y98526D01*
X144793Y98558D01*
X144807Y98594D01*
X144842Y98673D01*
X144861Y98711D01*
X144886Y98752D01*
X144913Y98790D01*
X144943Y98829D01*
X144976Y98867D01*
X145012Y98900D01*
X145014Y98902D01*
X145020Y98908D01*
X145033Y98916D01*
X145047Y98927D01*
X145069Y98941D01*
X145091Y98954D01*
X145118Y98971D01*
X145151Y98987D01*
X145184Y99001D01*
X145222Y99017D01*
X145263Y99031D01*
X145306Y99044D01*
X145355Y99055D01*
X145405Y99063D01*
X145457Y99069D01*
X145511Y99072D01*
X145547D01*
X145566Y99069D01*
D02*
G37*
G36*
X143592Y99061D02*
X143655Y99058D01*
X143718Y99053D01*
X143778Y99047D01*
X143808Y99044D01*
X143832Y99039D01*
X143835D01*
X143840Y99036D01*
X143851D01*
X143862Y99033D01*
X143879Y99028D01*
X143898Y99025D01*
X143941Y99012D01*
X143991Y98995D01*
X144042Y98973D01*
X144094Y98949D01*
X144143Y98919D01*
X144146D01*
X144149Y98916D01*
X144165Y98902D01*
X144187Y98883D01*
X144217Y98856D01*
X144247Y98823D01*
X144283Y98779D01*
X144315Y98733D01*
X144345Y98676D01*
Y98673D01*
X144348Y98668D01*
X144354Y98659D01*
X144359Y98649D01*
X144365Y98635D01*
X144370Y98616D01*
X144386Y98575D01*
X144400Y98523D01*
X144414Y98466D01*
X144422Y98400D01*
X144425Y98332D01*
Y98329D01*
Y98318D01*
Y98302D01*
X144422Y98277D01*
X144419Y98250D01*
X144414Y98220D01*
X144408Y98184D01*
X144400Y98143D01*
X144389Y98102D01*
X144376Y98059D01*
X144359Y98015D01*
X144337Y97969D01*
X144315Y97922D01*
X144288Y97876D01*
X144255Y97832D01*
X144220Y97789D01*
X144217Y97786D01*
X144209Y97780D01*
X144198Y97769D01*
X144179Y97753D01*
X144157Y97737D01*
X144127Y97717D01*
X144092Y97698D01*
X144051Y97679D01*
X144001Y97658D01*
X143950Y97638D01*
X143887Y97619D01*
X143821Y97603D01*
X143745Y97589D01*
X143663Y97578D01*
X143576Y97570D01*
X143477Y97567D01*
X142833D01*
Y96544D01*
X142500D01*
Y99063D01*
X143537D01*
X143592Y99061D01*
D02*
G37*
G36*
X38464Y57017D02*
X36414D01*
Y57241D01*
X38464D01*
Y57017D01*
D02*
G37*
G36*
X33343Y54022D02*
X32983D01*
X31951Y56542D01*
X32330D01*
X32622Y55781D01*
X33681D01*
X33954Y56542D01*
X34307D01*
X33343Y54022D01*
D02*
G37*
G36*
X45000D02*
X44667D01*
Y56245D01*
X43425D01*
Y56542D01*
X45000D01*
Y54022D01*
D02*
G37*
G36*
X43021D02*
X41197D01*
Y54320D01*
X42688D01*
Y55090D01*
X41293D01*
Y55387D01*
X42688D01*
Y56245D01*
X41140D01*
Y56542D01*
X43021D01*
Y54022D01*
D02*
G37*
G36*
X40681D02*
X39742D01*
X39715Y54025D01*
X39682D01*
X39649Y54028D01*
X39575Y54031D01*
X39502Y54039D01*
X39428Y54047D01*
X39395Y54055D01*
X39365Y54061D01*
X39362D01*
X39354Y54063D01*
X39343Y54066D01*
X39330Y54072D01*
X39311Y54077D01*
X39289Y54083D01*
X39237Y54102D01*
X39180Y54126D01*
X39120Y54156D01*
X39057Y54194D01*
X38997Y54241D01*
X38994Y54244D01*
X38989Y54249D01*
X38978Y54257D01*
X38964Y54271D01*
X38948Y54287D01*
X38928Y54309D01*
X38907Y54331D01*
X38885Y54358D01*
X38860Y54388D01*
X38836Y54421D01*
X38811Y54457D01*
X38787Y54495D01*
X38740Y54579D01*
X38699Y54672D01*
Y54675D01*
X38694Y54683D01*
X38691Y54699D01*
X38683Y54719D01*
X38675Y54743D01*
X38666Y54773D01*
X38658Y54806D01*
X38647Y54844D01*
X38639Y54888D01*
X38631Y54934D01*
X38623Y54983D01*
X38614Y55035D01*
X38606Y55090D01*
X38604Y55147D01*
X38598Y55270D01*
Y55273D01*
Y55284D01*
Y55297D01*
Y55319D01*
X38601Y55344D01*
Y55374D01*
X38604Y55406D01*
X38606Y55442D01*
X38614Y55521D01*
X38628Y55606D01*
X38644Y55693D01*
X38666Y55781D01*
Y55783D01*
X38669Y55791D01*
X38675Y55802D01*
X38677Y55816D01*
X38686Y55835D01*
X38694Y55857D01*
X38713Y55909D01*
X38737Y55966D01*
X38767Y56029D01*
X38800Y56089D01*
X38838Y56146D01*
Y56149D01*
X38844Y56152D01*
X38849Y56160D01*
X38857Y56171D01*
X38877Y56195D01*
X38907Y56228D01*
X38939Y56266D01*
X38978Y56305D01*
X39021Y56340D01*
X39068Y56376D01*
X39070D01*
X39073Y56378D01*
X39090Y56389D01*
X39117Y56403D01*
X39152Y56422D01*
X39196Y56441D01*
X39248Y56463D01*
X39308Y56482D01*
X39371Y56501D01*
X39373D01*
X39379Y56504D01*
X39387D01*
X39401Y56507D01*
X39417Y56510D01*
X39439Y56515D01*
X39461Y56518D01*
X39485Y56520D01*
X39545Y56529D01*
X39614Y56537D01*
X39690Y56539D01*
X39772Y56542D01*
X40681D01*
Y54022D01*
D02*
G37*
G36*
X36163D02*
X34465D01*
Y54320D01*
X35830D01*
Y55101D01*
X34648D01*
Y55398D01*
X35830D01*
Y56542D01*
X36163D01*
Y54022D01*
D02*
G37*
G36*
X30744Y56580D02*
X30774D01*
X30807Y56578D01*
X30848Y56572D01*
X30889Y56567D01*
X30981Y56553D01*
X31080Y56531D01*
X31175Y56501D01*
X31222Y56485D01*
X31265Y56463D01*
X31268Y56460D01*
X31276Y56458D01*
X31287Y56449D01*
X31301Y56441D01*
X31320Y56428D01*
X31342Y56411D01*
X31364Y56395D01*
X31388Y56373D01*
X31443Y56324D01*
X31495Y56264D01*
X31544Y56193D01*
X31566Y56152D01*
X31585Y56111D01*
Y56108D01*
X31587Y56100D01*
X31593Y56086D01*
X31598Y56067D01*
X31607Y56045D01*
X31615Y56015D01*
X31623Y55983D01*
X31631Y55944D01*
X31642Y55901D01*
X31650Y55854D01*
X31659Y55802D01*
X31664Y55745D01*
X31672Y55685D01*
X31675Y55620D01*
X31680Y55551D01*
Y55477D01*
Y54022D01*
X31347D01*
Y55477D01*
Y55480D01*
Y55491D01*
Y55508D01*
Y55532D01*
X31345Y55559D01*
Y55589D01*
X31342Y55625D01*
X31339Y55660D01*
X31334Y55740D01*
X31323Y55819D01*
X31306Y55895D01*
X31298Y55931D01*
X31287Y55961D01*
Y55963D01*
X31284Y55966D01*
X31282Y55974D01*
X31276Y55985D01*
X31260Y56015D01*
X31238Y56048D01*
X31211Y56089D01*
X31175Y56127D01*
X31132Y56165D01*
X31080Y56201D01*
X31077D01*
X31071Y56204D01*
X31063Y56209D01*
X31052Y56215D01*
X31039Y56220D01*
X31020Y56226D01*
X31001Y56234D01*
X30979Y56242D01*
X30924Y56256D01*
X30861Y56269D01*
X30790Y56280D01*
X30714Y56283D01*
X30678D01*
X30654Y56280D01*
X30624Y56277D01*
X30588Y56275D01*
X30550Y56269D01*
X30509Y56261D01*
X30424Y56242D01*
X30381Y56228D01*
X30337Y56212D01*
X30296Y56193D01*
X30258Y56171D01*
X30222Y56146D01*
X30190Y56116D01*
X30187Y56114D01*
X30182Y56108D01*
X30176Y56097D01*
X30165Y56084D01*
X30154Y56064D01*
X30141Y56040D01*
X30124Y56010D01*
X30111Y55974D01*
X30097Y55933D01*
X30081Y55887D01*
X30067Y55835D01*
X30056Y55778D01*
X30045Y55712D01*
X30037Y55641D01*
X30034Y55562D01*
X30031Y55477D01*
Y54022D01*
X29698D01*
Y55477D01*
Y55483D01*
Y55494D01*
Y55513D01*
Y55540D01*
X29701Y55573D01*
X29704Y55609D01*
X29706Y55650D01*
X29709Y55696D01*
X29720Y55791D01*
X29734Y55892D01*
X29756Y55991D01*
X29769Y56037D01*
X29786Y56081D01*
Y56084D01*
X29788Y56092D01*
X29794Y56103D01*
X29802Y56119D01*
X29813Y56138D01*
X29824Y56160D01*
X29857Y56209D01*
X29876Y56239D01*
X29898Y56266D01*
X29925Y56299D01*
X29952Y56329D01*
X29985Y56359D01*
X30018Y56389D01*
X30056Y56417D01*
X30097Y56444D01*
X30100Y56447D01*
X30108Y56449D01*
X30119Y56458D01*
X30138Y56466D01*
X30160Y56477D01*
X30187Y56488D01*
X30217Y56501D01*
X30255Y56512D01*
X30294Y56526D01*
X30337Y56539D01*
X30386Y56550D01*
X30438Y56561D01*
X30496Y56569D01*
X30555Y56578D01*
X30618Y56580D01*
X30684Y56583D01*
X30719D01*
X30744Y56580D01*
D02*
G37*
G36*
X29158Y54022D02*
X28825D01*
Y56245D01*
X27583D01*
Y56542D01*
X29158D01*
Y54022D01*
D02*
G37*
G36*
X26545Y54320D02*
X27375D01*
Y54022D01*
X25382D01*
Y54320D01*
X26212D01*
Y56542D01*
X26545D01*
Y54320D01*
D02*
G37*
G36*
X44789Y77276D02*
X42739D01*
Y77500D01*
X44789D01*
Y77276D01*
D02*
G37*
G36*
X47000Y74281D02*
X45829D01*
X45799Y74284D01*
X45769D01*
X45733Y74287D01*
X45692Y74290D01*
X45610Y74298D01*
X45526Y74311D01*
X45444Y74328D01*
X45408Y74339D01*
X45373Y74350D01*
X45370D01*
X45365Y74352D01*
X45357Y74358D01*
X45343Y74363D01*
X45310Y74380D01*
X45272Y74404D01*
X45226Y74437D01*
X45179Y74481D01*
X45133Y74530D01*
X45092Y74590D01*
Y74593D01*
X45086Y74598D01*
X45081Y74606D01*
X45075Y74620D01*
X45067Y74636D01*
X45059Y74655D01*
X45048Y74677D01*
X45037Y74702D01*
X45018Y74759D01*
X45002Y74822D01*
X44991Y74893D01*
X44985Y74969D01*
Y74972D01*
Y74980D01*
Y74997D01*
X44988Y75013D01*
X44991Y75038D01*
X44993Y75065D01*
X44999Y75095D01*
X45007Y75128D01*
X45029Y75199D01*
X45043Y75237D01*
X45059Y75275D01*
X45078Y75313D01*
X45103Y75352D01*
X45130Y75387D01*
X45160Y75423D01*
X45163Y75425D01*
X45168Y75431D01*
X45179Y75439D01*
X45193Y75453D01*
X45212Y75466D01*
X45234Y75483D01*
X45261Y75502D01*
X45294Y75521D01*
X45329Y75540D01*
X45368Y75559D01*
X45411Y75578D01*
X45460Y75597D01*
X45512Y75614D01*
X45570Y75630D01*
X45632Y75644D01*
X45698Y75655D01*
X45695D01*
X45692Y75657D01*
X45676Y75665D01*
X45651Y75679D01*
X45621Y75696D01*
X45589Y75715D01*
X45556Y75734D01*
X45523Y75758D01*
X45496Y75780D01*
X45493Y75783D01*
X45490Y75786D01*
X45482Y75794D01*
X45471Y75805D01*
X45458Y75818D01*
X45441Y75835D01*
X45406Y75873D01*
X45365Y75922D01*
X45318Y75979D01*
X45269Y76045D01*
X45220Y76116D01*
X44783Y76801D01*
X45201D01*
X45534Y76277D01*
X45537Y76274D01*
X45540Y76266D01*
X45548Y76255D01*
X45559Y76239D01*
X45570Y76220D01*
X45586Y76198D01*
X45619Y76149D01*
X45657Y76091D01*
X45695Y76034D01*
X45736Y75979D01*
X45774Y75930D01*
Y75928D01*
X45780Y75925D01*
X45791Y75911D01*
X45807Y75889D01*
X45832Y75865D01*
X45856Y75837D01*
X45886Y75810D01*
X45916Y75783D01*
X45943Y75764D01*
X45946Y75761D01*
X45957Y75756D01*
X45971Y75747D01*
X45990Y75736D01*
X46014Y75726D01*
X46039Y75715D01*
X46066Y75704D01*
X46096Y75696D01*
X46099D01*
X46107Y75693D01*
X46121Y75690D01*
X46140Y75687D01*
X46167D01*
X46200Y75685D01*
X46238Y75682D01*
X46667D01*
Y76801D01*
X47000D01*
Y74281D01*
D02*
G37*
G36*
X42507D02*
X41567D01*
X41540Y74284D01*
X41507D01*
X41475Y74287D01*
X41401Y74290D01*
X41327Y74298D01*
X41253Y74306D01*
X41221Y74314D01*
X41191Y74320D01*
X41188D01*
X41180Y74322D01*
X41169Y74325D01*
X41155Y74331D01*
X41136Y74336D01*
X41114Y74341D01*
X41062Y74361D01*
X41005Y74385D01*
X40945Y74415D01*
X40882Y74453D01*
X40822Y74500D01*
X40819Y74502D01*
X40814Y74508D01*
X40803Y74516D01*
X40789Y74530D01*
X40773Y74546D01*
X40754Y74568D01*
X40732Y74590D01*
X40710Y74617D01*
X40686Y74647D01*
X40661Y74680D01*
X40636Y74715D01*
X40612Y74754D01*
X40565Y74838D01*
X40525Y74931D01*
Y74934D01*
X40519Y74942D01*
X40516Y74958D01*
X40508Y74977D01*
X40500Y75002D01*
X40492Y75032D01*
X40483Y75065D01*
X40473Y75103D01*
X40464Y75147D01*
X40456Y75193D01*
X40448Y75242D01*
X40440Y75294D01*
X40432Y75349D01*
X40429Y75406D01*
X40424Y75529D01*
Y75532D01*
Y75543D01*
Y75556D01*
Y75578D01*
X40426Y75603D01*
Y75633D01*
X40429Y75665D01*
X40432Y75701D01*
X40440Y75780D01*
X40453Y75865D01*
X40470Y75952D01*
X40492Y76039D01*
Y76042D01*
X40494Y76050D01*
X40500Y76061D01*
X40503Y76075D01*
X40511Y76094D01*
X40519Y76116D01*
X40538Y76168D01*
X40563Y76225D01*
X40593Y76288D01*
X40626Y76348D01*
X40664Y76405D01*
Y76408D01*
X40669Y76411D01*
X40675Y76419D01*
X40683Y76430D01*
X40702Y76454D01*
X40732Y76487D01*
X40765Y76525D01*
X40803Y76564D01*
X40847Y76599D01*
X40893Y76635D01*
X40896D01*
X40898Y76637D01*
X40915Y76648D01*
X40942Y76662D01*
X40978Y76681D01*
X41021Y76700D01*
X41073Y76722D01*
X41133Y76741D01*
X41196Y76760D01*
X41199D01*
X41204Y76763D01*
X41212D01*
X41226Y76766D01*
X41243Y76768D01*
X41264Y76774D01*
X41286Y76777D01*
X41311Y76779D01*
X41371Y76788D01*
X41439Y76796D01*
X41515Y76798D01*
X41597Y76801D01*
X42507D01*
Y74281D01*
D02*
G37*
G36*
X40131Y76796D02*
Y76782D01*
Y76760D01*
X40129Y76733D01*
X40126Y76700D01*
X40118Y76665D01*
X40110Y76626D01*
X40096Y76588D01*
Y76586D01*
X40093Y76580D01*
X40090Y76572D01*
X40085Y76558D01*
X40077Y76544D01*
X40069Y76525D01*
X40047Y76482D01*
X40019Y76430D01*
X39984Y76372D01*
X39943Y76313D01*
X39894Y76252D01*
X39891Y76250D01*
X39888Y76244D01*
X39880Y76236D01*
X39867Y76222D01*
X39853Y76209D01*
X39834Y76190D01*
X39815Y76168D01*
X39790Y76143D01*
X39763Y76116D01*
X39733Y76089D01*
X39700Y76056D01*
X39662Y76023D01*
X39624Y75988D01*
X39580Y75952D01*
X39536Y75914D01*
X39487Y75873D01*
X39482Y75870D01*
X39468Y75857D01*
X39449Y75840D01*
X39422Y75816D01*
X39389Y75788D01*
X39351Y75756D01*
X39307Y75720D01*
X39263Y75679D01*
X39170Y75595D01*
X39080Y75504D01*
X39037Y75461D01*
X38996Y75417D01*
X38960Y75376D01*
X38930Y75338D01*
X38927Y75335D01*
X38925Y75330D01*
X38917Y75319D01*
X38908Y75305D01*
X38895Y75286D01*
X38884Y75267D01*
X38857Y75218D01*
X38829Y75160D01*
X38805Y75098D01*
X38788Y75032D01*
X38785Y74999D01*
X38783Y74967D01*
Y74964D01*
Y74958D01*
Y74948D01*
X38785Y74937D01*
Y74920D01*
X38791Y74901D01*
X38799Y74860D01*
X38816Y74811D01*
X38840Y74759D01*
X38854Y74732D01*
X38873Y74707D01*
X38892Y74683D01*
X38917Y74658D01*
X38919Y74655D01*
X38922Y74653D01*
X38930Y74647D01*
X38941Y74639D01*
X38955Y74628D01*
X38971Y74617D01*
X39009Y74593D01*
X39061Y74571D01*
X39118Y74549D01*
X39187Y74535D01*
X39225Y74530D01*
X39285D01*
X39301Y74533D01*
X39321D01*
X39342Y74538D01*
X39391Y74546D01*
X39449Y74563D01*
X39509Y74587D01*
X39539Y74603D01*
X39569Y74620D01*
X39596Y74642D01*
X39624Y74666D01*
X39626Y74669D01*
X39629Y74672D01*
X39634Y74680D01*
X39645Y74691D01*
X39654Y74704D01*
X39665Y74721D01*
X39678Y74740D01*
X39689Y74762D01*
X39703Y74786D01*
X39714Y74814D01*
X39735Y74879D01*
X39752Y74950D01*
X39755Y74991D01*
X39757Y75035D01*
X40074Y75002D01*
Y74997D01*
X40071Y74986D01*
X40069Y74969D01*
X40066Y74945D01*
X40060Y74915D01*
X40052Y74879D01*
X40044Y74841D01*
X40030Y74800D01*
X40017Y74759D01*
X40000Y74713D01*
X39979Y74669D01*
X39957Y74625D01*
X39929Y74579D01*
X39899Y74538D01*
X39867Y74497D01*
X39828Y74462D01*
X39826Y74459D01*
X39817Y74453D01*
X39807Y74445D01*
X39790Y74432D01*
X39768Y74418D01*
X39741Y74401D01*
X39711Y74385D01*
X39676Y74366D01*
X39637Y74350D01*
X39594Y74333D01*
X39547Y74317D01*
X39495Y74303D01*
X39441Y74290D01*
X39383Y74281D01*
X39321Y74276D01*
X39255Y74273D01*
X39219D01*
X39195Y74276D01*
X39165Y74279D01*
X39129Y74284D01*
X39088Y74290D01*
X39048Y74298D01*
X39001Y74309D01*
X38955Y74322D01*
X38906Y74339D01*
X38859Y74358D01*
X38810Y74382D01*
X38764Y74410D01*
X38720Y74440D01*
X38679Y74475D01*
X38676Y74478D01*
X38671Y74483D01*
X38660Y74497D01*
X38646Y74511D01*
X38630Y74530D01*
X38611Y74554D01*
X38592Y74582D01*
X38572Y74614D01*
X38553Y74647D01*
X38534Y74685D01*
X38515Y74726D01*
X38499Y74770D01*
X38485Y74819D01*
X38474Y74868D01*
X38469Y74920D01*
X38466Y74975D01*
Y74977D01*
Y74980D01*
Y74988D01*
Y74999D01*
X38469Y75029D01*
X38474Y75068D01*
X38482Y75114D01*
X38493Y75163D01*
X38507Y75218D01*
X38529Y75272D01*
Y75275D01*
X38532Y75278D01*
X38534Y75286D01*
X38540Y75297D01*
X38556Y75327D01*
X38578Y75365D01*
X38608Y75412D01*
X38644Y75463D01*
X38684Y75518D01*
X38736Y75578D01*
X38739Y75581D01*
X38742Y75586D01*
X38753Y75595D01*
X38764Y75608D01*
X38780Y75625D01*
X38799Y75644D01*
X38821Y75668D01*
X38848Y75693D01*
X38881Y75723D01*
X38917Y75756D01*
X38955Y75794D01*
X38998Y75832D01*
X39045Y75876D01*
X39097Y75919D01*
X39154Y75968D01*
X39214Y76020D01*
X39217Y76023D01*
X39225Y76031D01*
X39241Y76042D01*
X39258Y76059D01*
X39282Y76078D01*
X39307Y76099D01*
X39364Y76149D01*
X39424Y76200D01*
X39482Y76255D01*
X39509Y76280D01*
X39533Y76302D01*
X39555Y76323D01*
X39572Y76340D01*
X39575Y76342D01*
X39585Y76353D01*
X39599Y76370D01*
X39618Y76392D01*
X39640Y76416D01*
X39662Y76443D01*
X39706Y76504D01*
X38463D01*
Y76801D01*
X40131D01*
Y76796D01*
D02*
G37*
G36*
X61789Y152776D02*
X59738D01*
Y153000D01*
X61789D01*
Y152776D01*
D02*
G37*
G36*
X64000Y149781D02*
X62829D01*
X62799Y149784D01*
X62769D01*
X62733Y149787D01*
X62692Y149790D01*
X62611Y149798D01*
X62526Y149811D01*
X62444Y149828D01*
X62408Y149839D01*
X62373Y149850D01*
X62370D01*
X62365Y149852D01*
X62357Y149858D01*
X62343Y149863D01*
X62310Y149880D01*
X62272Y149904D01*
X62226Y149937D01*
X62179Y149981D01*
X62133Y150030D01*
X62092Y150090D01*
Y150093D01*
X62086Y150098D01*
X62081Y150106D01*
X62075Y150120D01*
X62067Y150136D01*
X62059Y150155D01*
X62048Y150177D01*
X62037Y150202D01*
X62018Y150259D01*
X62002Y150322D01*
X61991Y150393D01*
X61985Y150469D01*
Y150472D01*
Y150480D01*
Y150497D01*
X61988Y150513D01*
X61991Y150538D01*
X61993Y150565D01*
X61999Y150595D01*
X62007Y150628D01*
X62029Y150699D01*
X62043Y150737D01*
X62059Y150775D01*
X62078Y150813D01*
X62103Y150852D01*
X62130Y150887D01*
X62160Y150923D01*
X62163Y150925D01*
X62168Y150931D01*
X62179Y150939D01*
X62193Y150952D01*
X62212Y150966D01*
X62234Y150983D01*
X62261Y151002D01*
X62294Y151021D01*
X62329Y151040D01*
X62367Y151059D01*
X62411Y151078D01*
X62460Y151097D01*
X62512Y151114D01*
X62569Y151130D01*
X62632Y151144D01*
X62698Y151154D01*
X62695D01*
X62692Y151157D01*
X62676Y151165D01*
X62651Y151179D01*
X62621Y151196D01*
X62589Y151215D01*
X62556Y151234D01*
X62523Y151258D01*
X62496Y151280D01*
X62493Y151283D01*
X62490Y151286D01*
X62482Y151294D01*
X62471Y151305D01*
X62458Y151318D01*
X62441Y151335D01*
X62406Y151373D01*
X62365Y151422D01*
X62318Y151479D01*
X62269Y151545D01*
X62220Y151616D01*
X61783Y152301D01*
X62201D01*
X62534Y151777D01*
X62537Y151774D01*
X62539Y151766D01*
X62548Y151755D01*
X62559Y151739D01*
X62569Y151720D01*
X62586Y151698D01*
X62619Y151649D01*
X62657Y151591D01*
X62695Y151534D01*
X62736Y151479D01*
X62774Y151430D01*
Y151427D01*
X62780Y151425D01*
X62791Y151411D01*
X62807Y151389D01*
X62832Y151365D01*
X62856Y151338D01*
X62886Y151310D01*
X62916Y151283D01*
X62944Y151264D01*
X62946Y151261D01*
X62957Y151256D01*
X62971Y151247D01*
X62990Y151236D01*
X63015Y151225D01*
X63039Y151215D01*
X63066Y151204D01*
X63096Y151196D01*
X63099D01*
X63107Y151193D01*
X63121Y151190D01*
X63140Y151187D01*
X63167D01*
X63200Y151185D01*
X63238Y151182D01*
X63667D01*
Y152301D01*
X64000D01*
Y149781D01*
D02*
G37*
G36*
X59506D02*
X58469D01*
X58414Y149784D01*
X58352Y149787D01*
X58289Y149792D01*
X58229Y149798D01*
X58199Y149801D01*
X58174Y149806D01*
X58171D01*
X58166Y149809D01*
X58155D01*
X58144Y149811D01*
X58128Y149817D01*
X58109Y149820D01*
X58065Y149833D01*
X58016Y149850D01*
X57964Y149872D01*
X57912Y149896D01*
X57863Y149926D01*
X57860D01*
X57858Y149929D01*
X57841Y149942D01*
X57819Y149961D01*
X57789Y149989D01*
X57759Y150022D01*
X57724Y150065D01*
X57691Y150112D01*
X57661Y150169D01*
Y150172D01*
X57658Y150177D01*
X57653Y150185D01*
X57647Y150196D01*
X57642Y150210D01*
X57636Y150229D01*
X57620Y150270D01*
X57606Y150322D01*
X57593Y150379D01*
X57585Y150445D01*
X57582Y150513D01*
Y150516D01*
Y150527D01*
Y150543D01*
X57585Y150568D01*
X57587Y150595D01*
X57593Y150625D01*
X57598Y150660D01*
X57606Y150701D01*
X57617Y150742D01*
X57631Y150786D01*
X57647Y150830D01*
X57669Y150876D01*
X57691Y150923D01*
X57718Y150969D01*
X57751Y151013D01*
X57787Y151056D01*
X57789Y151059D01*
X57797Y151065D01*
X57808Y151075D01*
X57828Y151092D01*
X57849Y151108D01*
X57879Y151127D01*
X57915Y151146D01*
X57956Y151165D01*
X58005Y151187D01*
X58057Y151206D01*
X58120Y151225D01*
X58185Y151242D01*
X58262Y151256D01*
X58343Y151267D01*
X58431Y151275D01*
X58529Y151277D01*
X59173D01*
Y152301D01*
X59506D01*
Y149781D01*
D02*
G37*
G36*
X57159D02*
X56121D01*
X56067Y149784D01*
X56004Y149787D01*
X55941Y149792D01*
X55881Y149798D01*
X55851Y149801D01*
X55826Y149806D01*
X55824D01*
X55818Y149809D01*
X55807D01*
X55796Y149811D01*
X55780Y149817D01*
X55761Y149820D01*
X55717Y149833D01*
X55668Y149850D01*
X55616Y149872D01*
X55564Y149896D01*
X55515Y149926D01*
X55512D01*
X55510Y149929D01*
X55493Y149942D01*
X55471Y149961D01*
X55441Y149989D01*
X55411Y150022D01*
X55376Y150065D01*
X55343Y150112D01*
X55313Y150169D01*
Y150172D01*
X55310Y150177D01*
X55305Y150185D01*
X55300Y150196D01*
X55294Y150210D01*
X55289Y150229D01*
X55272Y150270D01*
X55259Y150322D01*
X55245Y150379D01*
X55237Y150445D01*
X55234Y150513D01*
Y150516D01*
Y150527D01*
Y150543D01*
X55237Y150568D01*
X55239Y150595D01*
X55245Y150625D01*
X55250Y150660D01*
X55259Y150701D01*
X55269Y150742D01*
X55283Y150786D01*
X55300Y150830D01*
X55321Y150876D01*
X55343Y150923D01*
X55370Y150969D01*
X55403Y151013D01*
X55439Y151056D01*
X55441Y151059D01*
X55450Y151065D01*
X55461Y151075D01*
X55480Y151092D01*
X55502Y151108D01*
X55532Y151127D01*
X55567Y151146D01*
X55608Y151165D01*
X55657Y151187D01*
X55709Y151206D01*
X55772Y151225D01*
X55837Y151242D01*
X55914Y151256D01*
X55996Y151267D01*
X56083Y151275D01*
X56181Y151277D01*
X56826D01*
Y152301D01*
X57159D01*
Y149781D01*
D02*
G37*
G36*
X54977Y152296D02*
Y152282D01*
Y152260D01*
X54975Y152233D01*
X54972Y152200D01*
X54964Y152165D01*
X54956Y152126D01*
X54942Y152088D01*
Y152085D01*
X54939Y152080D01*
X54936Y152072D01*
X54931Y152058D01*
X54923Y152044D01*
X54915Y152025D01*
X54893Y151982D01*
X54865Y151930D01*
X54830Y151873D01*
X54789Y151813D01*
X54740Y151752D01*
X54737Y151750D01*
X54734Y151744D01*
X54726Y151736D01*
X54713Y151722D01*
X54699Y151709D01*
X54680Y151690D01*
X54661Y151668D01*
X54636Y151643D01*
X54609Y151616D01*
X54579Y151589D01*
X54546Y151556D01*
X54508Y151523D01*
X54470Y151488D01*
X54426Y151452D01*
X54382Y151414D01*
X54333Y151373D01*
X54328Y151370D01*
X54314Y151357D01*
X54295Y151340D01*
X54268Y151316D01*
X54235Y151288D01*
X54197Y151256D01*
X54153Y151220D01*
X54109Y151179D01*
X54016Y151094D01*
X53926Y151004D01*
X53883Y150961D01*
X53842Y150917D01*
X53806Y150876D01*
X53776Y150838D01*
X53773Y150835D01*
X53771Y150830D01*
X53763Y150819D01*
X53754Y150805D01*
X53741Y150786D01*
X53730Y150767D01*
X53702Y150718D01*
X53675Y150660D01*
X53651Y150598D01*
X53634Y150532D01*
X53632Y150499D01*
X53629Y150467D01*
Y150464D01*
Y150458D01*
Y150447D01*
X53632Y150437D01*
Y150420D01*
X53637Y150401D01*
X53645Y150360D01*
X53662Y150311D01*
X53686Y150259D01*
X53700Y150232D01*
X53719Y150207D01*
X53738Y150183D01*
X53763Y150158D01*
X53765Y150155D01*
X53768Y150153D01*
X53776Y150147D01*
X53787Y150139D01*
X53801Y150128D01*
X53817Y150117D01*
X53855Y150093D01*
X53907Y150071D01*
X53965Y150049D01*
X54033Y150035D01*
X54071Y150030D01*
X54131D01*
X54147Y150032D01*
X54167D01*
X54188Y150038D01*
X54238Y150046D01*
X54295Y150063D01*
X54355Y150087D01*
X54385Y150103D01*
X54415Y150120D01*
X54442Y150142D01*
X54470Y150166D01*
X54472Y150169D01*
X54475Y150172D01*
X54480Y150180D01*
X54491Y150191D01*
X54500Y150205D01*
X54511Y150221D01*
X54524Y150240D01*
X54535Y150262D01*
X54549Y150286D01*
X54560Y150314D01*
X54581Y150379D01*
X54598Y150450D01*
X54601Y150491D01*
X54603Y150535D01*
X54920Y150502D01*
Y150497D01*
X54917Y150486D01*
X54915Y150469D01*
X54912Y150445D01*
X54906Y150415D01*
X54898Y150379D01*
X54890Y150341D01*
X54876Y150300D01*
X54863Y150259D01*
X54846Y150213D01*
X54825Y150169D01*
X54803Y150125D01*
X54775Y150079D01*
X54745Y150038D01*
X54713Y149997D01*
X54674Y149961D01*
X54672Y149959D01*
X54663Y149953D01*
X54653Y149945D01*
X54636Y149932D01*
X54614Y149918D01*
X54587Y149901D01*
X54557Y149885D01*
X54522Y149866D01*
X54483Y149850D01*
X54440Y149833D01*
X54393Y149817D01*
X54341Y149803D01*
X54287Y149790D01*
X54229Y149781D01*
X54167Y149776D01*
X54101Y149773D01*
X54066D01*
X54041Y149776D01*
X54011Y149779D01*
X53975Y149784D01*
X53935Y149790D01*
X53894Y149798D01*
X53847Y149809D01*
X53801Y149822D01*
X53752Y149839D01*
X53705Y149858D01*
X53656Y149882D01*
X53610Y149910D01*
X53566Y149940D01*
X53525Y149975D01*
X53522Y149978D01*
X53517Y149983D01*
X53506Y149997D01*
X53492Y150011D01*
X53476Y150030D01*
X53457Y150054D01*
X53438Y150082D01*
X53419Y150114D01*
X53399Y150147D01*
X53380Y150185D01*
X53361Y150226D01*
X53345Y150270D01*
X53331Y150319D01*
X53320Y150368D01*
X53315Y150420D01*
X53312Y150475D01*
Y150478D01*
Y150480D01*
Y150488D01*
Y150499D01*
X53315Y150529D01*
X53320Y150568D01*
X53329Y150614D01*
X53339Y150663D01*
X53353Y150718D01*
X53375Y150772D01*
Y150775D01*
X53378Y150778D01*
X53380Y150786D01*
X53386Y150797D01*
X53402Y150827D01*
X53424Y150865D01*
X53454Y150912D01*
X53490Y150963D01*
X53531Y151018D01*
X53582Y151078D01*
X53585Y151081D01*
X53588Y151086D01*
X53599Y151094D01*
X53610Y151108D01*
X53626Y151125D01*
X53645Y151144D01*
X53667Y151168D01*
X53694Y151193D01*
X53727Y151223D01*
X53763Y151256D01*
X53801Y151294D01*
X53844Y151332D01*
X53891Y151376D01*
X53943Y151419D01*
X54000Y151469D01*
X54060Y151520D01*
X54063Y151523D01*
X54071Y151531D01*
X54087Y151542D01*
X54104Y151559D01*
X54128Y151578D01*
X54153Y151600D01*
X54210Y151649D01*
X54270Y151700D01*
X54328Y151755D01*
X54355Y151780D01*
X54379Y151802D01*
X54401Y151823D01*
X54418Y151840D01*
X54421Y151842D01*
X54431Y151853D01*
X54445Y151870D01*
X54464Y151892D01*
X54486Y151916D01*
X54508Y151944D01*
X54552Y152004D01*
X53309D01*
Y152301D01*
X54977D01*
Y152296D01*
D02*
G37*
G36*
X42242Y154276D02*
X40192D01*
Y154500D01*
X42242D01*
Y154276D01*
D02*
G37*
G36*
X37224Y151281D02*
X36883D01*
X35559Y153261D01*
Y151281D01*
X35239D01*
Y153801D01*
X35583D01*
X36905Y151825D01*
Y153801D01*
X37224D01*
Y151281D01*
D02*
G37*
G36*
X48778D02*
X48445D01*
Y153504D01*
X47202D01*
Y153801D01*
X48778D01*
Y151281D01*
D02*
G37*
G36*
X46798D02*
X44975D01*
Y151579D01*
X46465D01*
Y152349D01*
X45070D01*
Y152646D01*
X46465D01*
Y153504D01*
X44917D01*
Y153801D01*
X46798D01*
Y151281D01*
D02*
G37*
G36*
X44459D02*
X43520D01*
X43492Y151284D01*
X43459D01*
X43427Y151287D01*
X43353Y151289D01*
X43279Y151298D01*
X43206Y151306D01*
X43173Y151314D01*
X43143Y151320D01*
X43140D01*
X43132Y151322D01*
X43121Y151325D01*
X43107Y151330D01*
X43088Y151336D01*
X43066Y151341D01*
X43015Y151360D01*
X42957Y151385D01*
X42897Y151415D01*
X42834Y151453D01*
X42774Y151500D01*
X42772Y151503D01*
X42766Y151508D01*
X42755Y151516D01*
X42742Y151530D01*
X42725Y151546D01*
X42706Y151568D01*
X42684Y151590D01*
X42662Y151617D01*
X42638Y151647D01*
X42613Y151680D01*
X42589Y151715D01*
X42564Y151754D01*
X42518Y151838D01*
X42477Y151931D01*
Y151934D01*
X42471Y151942D01*
X42469Y151958D01*
X42460Y151978D01*
X42452Y152002D01*
X42444Y152032D01*
X42436Y152065D01*
X42425Y152103D01*
X42417Y152147D01*
X42408Y152193D01*
X42400Y152242D01*
X42392Y152294D01*
X42384Y152349D01*
X42381Y152406D01*
X42376Y152529D01*
Y152532D01*
Y152543D01*
Y152556D01*
Y152578D01*
X42379Y152603D01*
Y152633D01*
X42381Y152665D01*
X42384Y152701D01*
X42392Y152780D01*
X42406Y152865D01*
X42422Y152952D01*
X42444Y153040D01*
Y153042D01*
X42447Y153050D01*
X42452Y153061D01*
X42455Y153075D01*
X42463Y153094D01*
X42471Y153116D01*
X42490Y153168D01*
X42515Y153225D01*
X42545Y153288D01*
X42578Y153348D01*
X42616Y153405D01*
Y153408D01*
X42621Y153411D01*
X42627Y153419D01*
X42635Y153430D01*
X42654Y153454D01*
X42684Y153487D01*
X42717Y153525D01*
X42755Y153564D01*
X42799Y153599D01*
X42845Y153635D01*
X42848D01*
X42851Y153637D01*
X42867Y153648D01*
X42894Y153662D01*
X42930Y153681D01*
X42974Y153700D01*
X43025Y153722D01*
X43086Y153741D01*
X43148Y153760D01*
X43151D01*
X43156Y153763D01*
X43165D01*
X43178Y153766D01*
X43195Y153768D01*
X43217Y153774D01*
X43238Y153777D01*
X43263Y153779D01*
X43323Y153788D01*
X43391Y153796D01*
X43468Y153798D01*
X43550Y153801D01*
X44459D01*
Y151281D01*
D02*
G37*
G36*
X38917Y153839D02*
X38947Y153837D01*
X38985Y153834D01*
X39023Y153828D01*
X39070Y153820D01*
X39116Y153812D01*
X39168Y153801D01*
X39220Y153788D01*
X39274Y153771D01*
X39329Y153752D01*
X39384Y153727D01*
X39438Y153703D01*
X39493Y153673D01*
X39496Y153670D01*
X39504Y153665D01*
X39520Y153654D01*
X39539Y153640D01*
X39561Y153624D01*
X39588Y153602D01*
X39618Y153577D01*
X39651Y153550D01*
X39687Y153517D01*
X39719Y153482D01*
X39755Y153444D01*
X39790Y153402D01*
X39826Y153356D01*
X39859Y153310D01*
X39889Y153258D01*
X39919Y153203D01*
X39922Y153200D01*
X39924Y153190D01*
X39932Y153173D01*
X39941Y153151D01*
X39952Y153124D01*
X39962Y153091D01*
X39976Y153056D01*
X39990Y153012D01*
X40003Y152969D01*
X40017Y152919D01*
X40028Y152867D01*
X40039Y152813D01*
X40055Y152698D01*
X40058Y152635D01*
X40061Y152575D01*
Y152573D01*
Y152567D01*
Y152559D01*
Y152548D01*
X40058Y152532D01*
Y152515D01*
X40055Y152472D01*
X40050Y152420D01*
X40042Y152357D01*
X40033Y152291D01*
X40020Y152218D01*
X40001Y152139D01*
X39979Y152059D01*
X39952Y151978D01*
X39919Y151896D01*
X39880Y151814D01*
X39837Y151737D01*
X39785Y151661D01*
X39725Y151593D01*
X39722Y151590D01*
X39709Y151576D01*
X39689Y151560D01*
X39665Y151538D01*
X39629Y151511D01*
X39591Y151481D01*
X39545Y151448D01*
X39490Y151415D01*
X39430Y151382D01*
X39364Y151350D01*
X39294Y151320D01*
X39214Y151292D01*
X39132Y151270D01*
X39045Y151254D01*
X38952Y151240D01*
X38854Y151238D01*
X38821D01*
X38797Y151240D01*
X38764Y151243D01*
X38728Y151246D01*
X38690Y151251D01*
X38647Y151260D01*
X38597Y151268D01*
X38548Y151279D01*
X38496Y151292D01*
X38442Y151309D01*
X38387Y151328D01*
X38333Y151350D01*
X38281Y151374D01*
X38226Y151404D01*
X38223Y151407D01*
X38212Y151412D01*
X38199Y151421D01*
X38180Y151434D01*
X38155Y151451D01*
X38131Y151472D01*
X38100Y151497D01*
X38068Y151524D01*
X38032Y151557D01*
X37997Y151593D01*
X37961Y151631D01*
X37926Y151672D01*
X37893Y151715D01*
X37858Y151765D01*
X37828Y151816D01*
X37797Y151871D01*
X37795Y151874D01*
X37792Y151885D01*
X37784Y151901D01*
X37776Y151923D01*
X37762Y151950D01*
X37751Y151986D01*
X37738Y152024D01*
X37724Y152068D01*
X37710Y152114D01*
X37696Y152166D01*
X37683Y152223D01*
X37672Y152280D01*
X37664Y152343D01*
X37656Y152409D01*
X37653Y152474D01*
X37650Y152545D01*
Y152551D01*
Y152562D01*
Y152584D01*
X37653Y152611D01*
X37656Y152644D01*
X37658Y152682D01*
X37664Y152726D01*
X37669Y152775D01*
X37677Y152826D01*
X37688Y152881D01*
X37699Y152938D01*
X37716Y152996D01*
X37735Y153056D01*
X37754Y153113D01*
X37778Y153173D01*
X37806Y153231D01*
X37808Y153233D01*
X37814Y153244D01*
X37822Y153261D01*
X37833Y153280D01*
X37849Y153304D01*
X37868Y153334D01*
X37893Y153367D01*
X37918Y153402D01*
X37948Y153438D01*
X37980Y153476D01*
X38019Y153515D01*
X38057Y153553D01*
X38098Y153588D01*
X38144Y153624D01*
X38193Y153659D01*
X38245Y153689D01*
X38248Y153692D01*
X38259Y153695D01*
X38273Y153703D01*
X38294Y153714D01*
X38322Y153725D01*
X38352Y153738D01*
X38387Y153752D01*
X38428Y153766D01*
X38472Y153779D01*
X38518Y153793D01*
X38570Y153807D01*
X38622Y153817D01*
X38737Y153837D01*
X38797Y153839D01*
X38857Y153842D01*
X38892D01*
X38917Y153839D01*
D02*
G37*
G36*
X36591Y43971D02*
X36613D01*
X36643Y43965D01*
X36676Y43960D01*
X36711Y43954D01*
X36752Y43943D01*
X36796Y43930D01*
X36840Y43913D01*
X36886Y43894D01*
X36933Y43870D01*
X36982Y43842D01*
X37028Y43810D01*
X37075Y43774D01*
X37118Y43730D01*
X37121Y43728D01*
X37129Y43720D01*
X37140Y43706D01*
X37154Y43687D01*
X37170Y43665D01*
X37189Y43635D01*
X37211Y43602D01*
X37230Y43564D01*
X37252Y43523D01*
X37274Y43477D01*
X37293Y43427D01*
X37309Y43373D01*
X37323Y43315D01*
X37334Y43255D01*
X37342Y43193D01*
X37345Y43124D01*
Y43111D01*
X37342Y43092D01*
Y43070D01*
X37339Y43040D01*
X37334Y43007D01*
X37328Y42972D01*
X37320Y42930D01*
X37309Y42887D01*
X37296Y42843D01*
X37282Y42797D01*
X37263Y42750D01*
X37238Y42704D01*
X37214Y42660D01*
X37184Y42614D01*
X37148Y42573D01*
X37146Y42570D01*
X37140Y42565D01*
X37129Y42554D01*
X37113Y42537D01*
X37094Y42521D01*
X37069Y42502D01*
X37042Y42483D01*
X37009Y42461D01*
X36976Y42439D01*
X36935Y42417D01*
X36894Y42395D01*
X36848Y42376D01*
X36799Y42360D01*
X36747Y42344D01*
X36692Y42333D01*
X36635Y42325D01*
X36594Y42633D01*
X36597D01*
X36605Y42636D01*
X36619Y42638D01*
X36638Y42644D01*
X36660Y42649D01*
X36684Y42655D01*
X36742Y42674D01*
X36804Y42698D01*
X36867Y42728D01*
X36924Y42767D01*
X36949Y42788D01*
X36974Y42810D01*
Y42813D01*
X36979Y42816D01*
X36984Y42824D01*
X36993Y42832D01*
X37009Y42860D01*
X37031Y42898D01*
X37053Y42944D01*
X37069Y42996D01*
X37083Y43059D01*
X37088Y43124D01*
Y43146D01*
X37085Y43163D01*
X37083Y43179D01*
X37080Y43203D01*
X37069Y43253D01*
X37053Y43313D01*
X37025Y43376D01*
X37006Y43406D01*
X36987Y43436D01*
X36965Y43466D01*
X36938Y43496D01*
X36935Y43498D01*
X36930Y43501D01*
X36922Y43509D01*
X36911Y43520D01*
X36897Y43531D01*
X36878Y43542D01*
X36859Y43556D01*
X36834Y43572D01*
X36780Y43599D01*
X36717Y43621D01*
X36643Y43640D01*
X36605Y43643D01*
X36564Y43646D01*
X36561D01*
X36556D01*
X36542D01*
X36529Y43643D01*
X36509Y43640D01*
X36490Y43638D01*
X36441Y43629D01*
X36384Y43610D01*
X36327Y43586D01*
X36296Y43569D01*
X36269Y43550D01*
X36242Y43528D01*
X36215Y43504D01*
X36212Y43501D01*
X36209Y43498D01*
X36201Y43490D01*
X36193Y43479D01*
X36182Y43466D01*
X36171Y43449D01*
X36144Y43408D01*
X36119Y43356D01*
X36097Y43296D01*
X36081Y43228D01*
X36078Y43190D01*
X36075Y43152D01*
Y43135D01*
X36078Y43116D01*
Y43092D01*
X36083Y43059D01*
X36089Y43023D01*
X36097Y42980D01*
X36108Y42933D01*
X35838Y42966D01*
Y42972D01*
X35841Y42985D01*
X35843Y43001D01*
Y43037D01*
X35841Y43051D01*
Y43070D01*
X35838Y43089D01*
X35830Y43135D01*
X35819Y43190D01*
X35800Y43250D01*
X35775Y43313D01*
X35740Y43373D01*
Y43376D01*
X35734Y43381D01*
X35729Y43386D01*
X35720Y43397D01*
X35696Y43425D01*
X35660Y43455D01*
X35617Y43482D01*
X35562Y43509D01*
X35532Y43520D01*
X35497Y43526D01*
X35461Y43531D01*
X35423Y43534D01*
X35420D01*
X35415D01*
X35407D01*
X35393Y43531D01*
X35363Y43528D01*
X35322Y43520D01*
X35278Y43507D01*
X35232Y43485D01*
X35183Y43455D01*
X35161Y43438D01*
X35139Y43416D01*
X35133Y43411D01*
X35123Y43395D01*
X35103Y43370D01*
X35082Y43337D01*
X35063Y43294D01*
X35043Y43242D01*
X35032Y43184D01*
X35027Y43119D01*
Y43102D01*
X35030Y43089D01*
Y43073D01*
X35032Y43056D01*
X35041Y43012D01*
X35054Y42966D01*
X35076Y42914D01*
X35103Y42865D01*
X35142Y42816D01*
X35147Y42810D01*
X35164Y42797D01*
X35188Y42775D01*
X35226Y42753D01*
X35273Y42726D01*
X35333Y42701D01*
X35401Y42679D01*
X35480Y42663D01*
X35426Y42355D01*
X35423D01*
X35412Y42357D01*
X35396Y42360D01*
X35374Y42365D01*
X35349Y42374D01*
X35319Y42382D01*
X35286Y42393D01*
X35251Y42406D01*
X35172Y42442D01*
X35133Y42461D01*
X35092Y42485D01*
X35054Y42513D01*
X35016Y42543D01*
X34978Y42576D01*
X34945Y42611D01*
X34942Y42614D01*
X34937Y42619D01*
X34929Y42633D01*
X34918Y42647D01*
X34904Y42668D01*
X34890Y42690D01*
X34874Y42718D01*
X34858Y42750D01*
X34844Y42783D01*
X34828Y42821D01*
X34814Y42862D01*
X34800Y42906D01*
X34789Y42955D01*
X34781Y43004D01*
X34776Y43056D01*
X34773Y43111D01*
Y43146D01*
X34776Y43165D01*
X34779Y43184D01*
X34784Y43236D01*
X34795Y43294D01*
X34811Y43359D01*
X34833Y43425D01*
X34863Y43490D01*
Y43493D01*
X34866Y43498D01*
X34871Y43507D01*
X34880Y43520D01*
X34899Y43550D01*
X34926Y43588D01*
X34962Y43632D01*
X35002Y43676D01*
X35049Y43720D01*
X35103Y43758D01*
X35106D01*
X35109Y43760D01*
X35120Y43766D01*
X35131Y43771D01*
X35144Y43780D01*
X35161Y43788D01*
X35202Y43804D01*
X35251Y43821D01*
X35306Y43837D01*
X35366Y43848D01*
X35428Y43850D01*
X35431D01*
X35436D01*
X35445D01*
X35456D01*
X35488Y43845D01*
X35527Y43840D01*
X35573Y43829D01*
X35622Y43812D01*
X35674Y43791D01*
X35726Y43760D01*
X35729D01*
X35731Y43758D01*
X35748Y43744D01*
X35772Y43725D01*
X35802Y43695D01*
X35838Y43659D01*
X35873Y43613D01*
X35906Y43561D01*
X35939Y43501D01*
Y43504D01*
X35942Y43512D01*
X35944Y43523D01*
X35950Y43539D01*
X35955Y43556D01*
X35963Y43578D01*
X35985Y43629D01*
X36015Y43684D01*
X36051Y43741D01*
X36097Y43799D01*
X36154Y43848D01*
X36157Y43850D01*
X36163Y43853D01*
X36171Y43859D01*
X36185Y43867D01*
X36198Y43878D01*
X36217Y43889D01*
X36239Y43900D01*
X36266Y43911D01*
X36294Y43922D01*
X36324Y43932D01*
X36392Y43954D01*
X36471Y43968D01*
X36515Y43973D01*
X36559D01*
X36561D01*
X36572D01*
X36591Y43971D01*
D02*
G37*
G36*
X37301Y41164D02*
Y40820D01*
X34781Y39843D01*
Y40206D01*
X36613Y40861D01*
X36616D01*
X36624Y40864D01*
X36635Y40869D01*
X36651Y40875D01*
X36671Y40880D01*
X36692Y40889D01*
X36717Y40897D01*
X36747Y40908D01*
X36810Y40927D01*
X36878Y40949D01*
X36952Y40970D01*
X37025Y40992D01*
X37023D01*
X37017Y40995D01*
X37004Y40998D01*
X36990Y41003D01*
X36971Y41009D01*
X36949Y41014D01*
X36924Y41022D01*
X36897Y41030D01*
X36834Y41050D01*
X36763Y41074D01*
X36690Y41101D01*
X36613Y41129D01*
X34781Y41809D01*
Y42147D01*
X37301Y41164D01*
D02*
G37*
G36*
X36591Y39665D02*
X36613D01*
X36643Y39660D01*
X36676Y39654D01*
X36711Y39649D01*
X36752Y39638D01*
X36796Y39625D01*
X36840Y39608D01*
X36886Y39589D01*
X36933Y39564D01*
X36982Y39537D01*
X37028Y39504D01*
X37075Y39469D01*
X37118Y39425D01*
X37121Y39423D01*
X37129Y39414D01*
X37140Y39401D01*
X37154Y39382D01*
X37170Y39360D01*
X37189Y39330D01*
X37211Y39297D01*
X37230Y39259D01*
X37252Y39218D01*
X37274Y39171D01*
X37293Y39122D01*
X37309Y39068D01*
X37323Y39010D01*
X37334Y38950D01*
X37342Y38887D01*
X37345Y38819D01*
Y38805D01*
X37342Y38786D01*
Y38765D01*
X37339Y38734D01*
X37334Y38702D01*
X37328Y38666D01*
X37320Y38625D01*
X37309Y38582D01*
X37296Y38538D01*
X37282Y38491D01*
X37263Y38445D01*
X37238Y38399D01*
X37214Y38355D01*
X37184Y38309D01*
X37148Y38268D01*
X37146Y38265D01*
X37140Y38260D01*
X37129Y38249D01*
X37113Y38232D01*
X37094Y38216D01*
X37069Y38197D01*
X37042Y38178D01*
X37009Y38156D01*
X36976Y38134D01*
X36935Y38112D01*
X36894Y38090D01*
X36848Y38071D01*
X36799Y38055D01*
X36747Y38038D01*
X36692Y38027D01*
X36635Y38019D01*
X36594Y38328D01*
X36597D01*
X36605Y38331D01*
X36619Y38333D01*
X36638Y38339D01*
X36660Y38344D01*
X36684Y38350D01*
X36742Y38369D01*
X36804Y38393D01*
X36867Y38423D01*
X36924Y38462D01*
X36949Y38483D01*
X36974Y38505D01*
Y38508D01*
X36979Y38511D01*
X36984Y38519D01*
X36993Y38527D01*
X37009Y38554D01*
X37031Y38592D01*
X37053Y38639D01*
X37069Y38691D01*
X37083Y38754D01*
X37088Y38819D01*
Y38841D01*
X37085Y38857D01*
X37083Y38874D01*
X37080Y38898D01*
X37069Y38947D01*
X37053Y39007D01*
X37025Y39070D01*
X37006Y39100D01*
X36987Y39130D01*
X36965Y39160D01*
X36938Y39190D01*
X36935Y39193D01*
X36930Y39196D01*
X36922Y39204D01*
X36911Y39215D01*
X36897Y39226D01*
X36878Y39237D01*
X36859Y39250D01*
X36834Y39267D01*
X36780Y39294D01*
X36717Y39316D01*
X36643Y39335D01*
X36605Y39338D01*
X36564Y39341D01*
X36561D01*
X36556D01*
X36542D01*
X36529Y39338D01*
X36509Y39335D01*
X36490Y39332D01*
X36441Y39324D01*
X36384Y39305D01*
X36327Y39281D01*
X36296Y39264D01*
X36269Y39245D01*
X36242Y39223D01*
X36215Y39199D01*
X36212Y39196D01*
X36209Y39193D01*
X36201Y39185D01*
X36193Y39174D01*
X36182Y39160D01*
X36171Y39144D01*
X36144Y39103D01*
X36119Y39051D01*
X36097Y38991D01*
X36081Y38923D01*
X36078Y38885D01*
X36075Y38846D01*
Y38830D01*
X36078Y38811D01*
Y38786D01*
X36083Y38754D01*
X36089Y38718D01*
X36097Y38674D01*
X36108Y38628D01*
X35838Y38661D01*
Y38666D01*
X35841Y38680D01*
X35843Y38696D01*
Y38732D01*
X35841Y38745D01*
Y38765D01*
X35838Y38784D01*
X35830Y38830D01*
X35819Y38885D01*
X35800Y38945D01*
X35775Y39007D01*
X35740Y39068D01*
Y39070D01*
X35734Y39076D01*
X35729Y39081D01*
X35720Y39092D01*
X35696Y39119D01*
X35660Y39149D01*
X35617Y39177D01*
X35562Y39204D01*
X35532Y39215D01*
X35497Y39220D01*
X35461Y39226D01*
X35423Y39229D01*
X35420D01*
X35415D01*
X35407D01*
X35393Y39226D01*
X35363Y39223D01*
X35322Y39215D01*
X35278Y39201D01*
X35232Y39180D01*
X35183Y39149D01*
X35161Y39133D01*
X35139Y39111D01*
X35133Y39106D01*
X35123Y39089D01*
X35103Y39065D01*
X35082Y39032D01*
X35063Y38988D01*
X35043Y38936D01*
X35032Y38879D01*
X35027Y38814D01*
Y38797D01*
X35030Y38784D01*
Y38767D01*
X35032Y38751D01*
X35041Y38707D01*
X35054Y38661D01*
X35076Y38609D01*
X35103Y38560D01*
X35142Y38511D01*
X35147Y38505D01*
X35164Y38491D01*
X35188Y38470D01*
X35226Y38448D01*
X35273Y38421D01*
X35333Y38396D01*
X35401Y38374D01*
X35480Y38358D01*
X35426Y38049D01*
X35423D01*
X35412Y38052D01*
X35396Y38055D01*
X35374Y38060D01*
X35349Y38068D01*
X35319Y38077D01*
X35286Y38087D01*
X35251Y38101D01*
X35172Y38137D01*
X35133Y38156D01*
X35092Y38180D01*
X35054Y38208D01*
X35016Y38238D01*
X34978Y38270D01*
X34945Y38306D01*
X34942Y38309D01*
X34937Y38314D01*
X34929Y38328D01*
X34918Y38341D01*
X34904Y38363D01*
X34890Y38385D01*
X34874Y38412D01*
X34858Y38445D01*
X34844Y38478D01*
X34828Y38516D01*
X34814Y38557D01*
X34800Y38601D01*
X34789Y38650D01*
X34781Y38699D01*
X34776Y38751D01*
X34773Y38805D01*
Y38841D01*
X34776Y38860D01*
X34779Y38879D01*
X34784Y38931D01*
X34795Y38988D01*
X34811Y39054D01*
X34833Y39119D01*
X34863Y39185D01*
Y39188D01*
X34866Y39193D01*
X34871Y39201D01*
X34880Y39215D01*
X34899Y39245D01*
X34926Y39283D01*
X34962Y39327D01*
X35002Y39371D01*
X35049Y39414D01*
X35103Y39452D01*
X35106D01*
X35109Y39455D01*
X35120Y39461D01*
X35131Y39466D01*
X35144Y39474D01*
X35161Y39483D01*
X35202Y39499D01*
X35251Y39515D01*
X35306Y39532D01*
X35366Y39543D01*
X35428Y39545D01*
X35431D01*
X35436D01*
X35445D01*
X35456D01*
X35488Y39540D01*
X35527Y39534D01*
X35573Y39524D01*
X35622Y39507D01*
X35674Y39485D01*
X35726Y39455D01*
X35729D01*
X35731Y39452D01*
X35748Y39439D01*
X35772Y39420D01*
X35802Y39390D01*
X35838Y39354D01*
X35873Y39308D01*
X35906Y39256D01*
X35939Y39196D01*
Y39199D01*
X35942Y39207D01*
X35944Y39218D01*
X35950Y39234D01*
X35955Y39250D01*
X35963Y39272D01*
X35985Y39324D01*
X36015Y39379D01*
X36051Y39436D01*
X36097Y39493D01*
X36154Y39543D01*
X36157Y39545D01*
X36163Y39548D01*
X36171Y39553D01*
X36185Y39562D01*
X36198Y39573D01*
X36217Y39584D01*
X36239Y39595D01*
X36266Y39605D01*
X36294Y39616D01*
X36324Y39627D01*
X36392Y39649D01*
X36471Y39663D01*
X36515Y39668D01*
X36559D01*
X36561D01*
X36572D01*
X36591Y39665D01*
D02*
G37*
G36*
X38000Y35860D02*
X37776D01*
Y37910D01*
X38000D01*
Y35860D01*
D02*
G37*
G36*
X35568Y35759D02*
X35595Y35756D01*
X35625Y35751D01*
X35660Y35745D01*
X35701Y35737D01*
X35742Y35726D01*
X35786Y35712D01*
X35830Y35696D01*
X35876Y35674D01*
X35923Y35652D01*
X35969Y35625D01*
X36013Y35592D01*
X36056Y35557D01*
X36059Y35554D01*
X36064Y35546D01*
X36075Y35535D01*
X36092Y35516D01*
X36108Y35494D01*
X36127Y35464D01*
X36146Y35429D01*
X36165Y35388D01*
X36187Y35338D01*
X36206Y35287D01*
X36226Y35224D01*
X36242Y35158D01*
X36255Y35082D01*
X36266Y35000D01*
X36275Y34912D01*
X36277Y34814D01*
Y34170D01*
X37301D01*
Y33837D01*
X34781D01*
Y34874D01*
X34784Y34929D01*
X34787Y34992D01*
X34792Y35054D01*
X34798Y35114D01*
X34800Y35144D01*
X34806Y35169D01*
Y35172D01*
X34809Y35177D01*
Y35188D01*
X34811Y35199D01*
X34817Y35215D01*
X34819Y35235D01*
X34833Y35278D01*
X34850Y35328D01*
X34871Y35379D01*
X34896Y35431D01*
X34926Y35480D01*
Y35483D01*
X34929Y35486D01*
X34942Y35502D01*
X34962Y35524D01*
X34989Y35554D01*
X35022Y35584D01*
X35065Y35620D01*
X35112Y35652D01*
X35169Y35682D01*
X35172D01*
X35177Y35685D01*
X35185Y35691D01*
X35196Y35696D01*
X35210Y35702D01*
X35229Y35707D01*
X35270Y35723D01*
X35322Y35737D01*
X35379Y35751D01*
X35445Y35759D01*
X35513Y35761D01*
X35516D01*
X35527D01*
X35543D01*
X35568Y35759D01*
D02*
G37*
G36*
X35079Y32663D02*
X37301D01*
Y32330D01*
X35079D01*
Y31500D01*
X34781D01*
Y33493D01*
X35079D01*
Y32663D01*
D02*
G37*
G36*
X158698Y155200D02*
X159301D01*
Y154891D01*
X158698D01*
Y153794D01*
X158414D01*
X156781Y154946D01*
Y155200D01*
X158414D01*
Y155541D01*
X158698D01*
Y155200D01*
D02*
G37*
G36*
X158954Y153529D02*
X158960Y153521D01*
X158971Y153507D01*
X158984Y153488D01*
X159001Y153466D01*
X159017Y153439D01*
X159039Y153409D01*
X159061Y153376D01*
X159083Y153340D01*
X159107Y153299D01*
X159157Y153215D01*
X159203Y153122D01*
X159244Y153024D01*
Y153021D01*
X159249Y153013D01*
X159252Y152999D01*
X159260Y152977D01*
X159266Y152955D01*
X159274Y152925D01*
X159285Y152895D01*
X159293Y152860D01*
X159301Y152819D01*
X159312Y152778D01*
X159326Y152688D01*
X159337Y152590D01*
X159342Y152489D01*
Y152453D01*
X159339Y152426D01*
X159337Y152393D01*
X159334Y152355D01*
X159328Y152311D01*
X159323Y152265D01*
X159315Y152216D01*
X159304Y152161D01*
X159290Y152106D01*
X159274Y152046D01*
X159257Y151989D01*
X159236Y151932D01*
X159211Y151872D01*
X159184Y151814D01*
X159181Y151812D01*
X159176Y151801D01*
X159167Y151784D01*
X159154Y151765D01*
X159137Y151741D01*
X159118Y151711D01*
X159094Y151678D01*
X159066Y151642D01*
X159036Y151607D01*
X159001Y151569D01*
X158965Y151530D01*
X158924Y151492D01*
X158878Y151457D01*
X158832Y151421D01*
X158780Y151386D01*
X158725Y151356D01*
X158722Y151353D01*
X158712Y151350D01*
X158695Y151342D01*
X158673Y151331D01*
X158643Y151320D01*
X158610Y151306D01*
X158572Y151293D01*
X158529Y151279D01*
X158482Y151266D01*
X158430Y151252D01*
X158373Y151238D01*
X158316Y151227D01*
X158253Y151216D01*
X158190Y151208D01*
X158122Y151206D01*
X158054Y151203D01*
X158048D01*
X158037D01*
X158018D01*
X157991Y151206D01*
X157958Y151208D01*
X157920Y151211D01*
X157876Y151216D01*
X157830Y151222D01*
X157778Y151230D01*
X157723Y151241D01*
X157609Y151268D01*
X157548Y151285D01*
X157488Y151306D01*
X157428Y151328D01*
X157368Y151356D01*
X157366Y151358D01*
X157355Y151364D01*
X157338Y151372D01*
X157317Y151383D01*
X157289Y151399D01*
X157259Y151418D01*
X157226Y151443D01*
X157188Y151468D01*
X157150Y151498D01*
X157112Y151530D01*
X157073Y151566D01*
X157033Y151607D01*
X156994Y151648D01*
X156959Y151694D01*
X156923Y151743D01*
X156893Y151795D01*
X156891Y151798D01*
X156888Y151809D01*
X156880Y151825D01*
X156869Y151847D01*
X156858Y151874D01*
X156844Y151907D01*
X156831Y151945D01*
X156814Y151986D01*
X156800Y152033D01*
X156787Y152085D01*
X156773Y152139D01*
X156762Y152199D01*
X156751Y152259D01*
X156743Y152325D01*
X156740Y152393D01*
X156738Y152461D01*
Y152508D01*
X156740Y152532D01*
X156743Y152560D01*
X156746Y152590D01*
X156749Y152625D01*
X156760Y152702D01*
X156776Y152786D01*
X156798Y152871D01*
X156828Y152955D01*
Y152958D01*
X156831Y152966D01*
X156836Y152977D01*
X156844Y152991D01*
X156852Y153010D01*
X156863Y153032D01*
X156891Y153081D01*
X156926Y153138D01*
X156967Y153196D01*
X157016Y153250D01*
X157073Y153302D01*
X157076Y153305D01*
X157082Y153308D01*
X157090Y153313D01*
X157101Y153324D01*
X157117Y153332D01*
X157136Y153346D01*
X157158Y153359D01*
X157185Y153373D01*
X157213Y153390D01*
X157243Y153403D01*
X157278Y153420D01*
X157314Y153436D01*
X157396Y153466D01*
X157486Y153493D01*
X157568Y153190D01*
X157565D01*
X157559Y153188D01*
X157548Y153185D01*
X157535Y153179D01*
X157521Y153174D01*
X157502Y153168D01*
X157458Y153152D01*
X157409Y153130D01*
X157360Y153106D01*
X157311Y153078D01*
X157267Y153048D01*
X157262Y153045D01*
X157248Y153032D01*
X157229Y153013D01*
X157202Y152988D01*
X157175Y152953D01*
X157144Y152912D01*
X157117Y152863D01*
X157090Y152808D01*
Y152805D01*
X157087Y152800D01*
X157084Y152792D01*
X157079Y152781D01*
X157073Y152767D01*
X157068Y152748D01*
X157054Y152707D01*
X157044Y152655D01*
X157033Y152598D01*
X157024Y152532D01*
X157022Y152464D01*
Y152426D01*
X157024Y152407D01*
Y152382D01*
X157027Y152358D01*
X157030Y152328D01*
X157038Y152268D01*
X157052Y152199D01*
X157068Y152134D01*
X157093Y152068D01*
Y152066D01*
X157095Y152060D01*
X157101Y152052D01*
X157106Y152041D01*
X157120Y152011D01*
X157142Y151973D01*
X157169Y151929D01*
X157202Y151885D01*
X157237Y151839D01*
X157278Y151798D01*
X157284Y151793D01*
X157297Y151781D01*
X157322Y151762D01*
X157352Y151741D01*
X157387Y151716D01*
X157431Y151689D01*
X157477Y151664D01*
X157527Y151642D01*
X157529D01*
X157538Y151640D01*
X157548Y151634D01*
X157568Y151629D01*
X157589Y151620D01*
X157614Y151612D01*
X157644Y151604D01*
X157677Y151596D01*
X157712Y151585D01*
X157753Y151577D01*
X157838Y151563D01*
X157933Y151552D01*
X158034Y151547D01*
X158037D01*
X158048D01*
X158067D01*
X158089Y151549D01*
X158119D01*
X158152Y151552D01*
X158190Y151558D01*
X158231Y151560D01*
X158321Y151574D01*
X158414Y151596D01*
X158510Y151623D01*
X158599Y151661D01*
X158602Y151664D01*
X158610Y151667D01*
X158621Y151672D01*
X158638Y151683D01*
X158654Y151694D01*
X158676Y151711D01*
X158725Y151746D01*
X158780Y151795D01*
X158837Y151853D01*
X158889Y151918D01*
X158914Y151956D01*
X158935Y151997D01*
Y152000D01*
X158941Y152008D01*
X158946Y152019D01*
X158952Y152035D01*
X158960Y152057D01*
X158971Y152082D01*
X158979Y152109D01*
X158990Y152139D01*
X159001Y152172D01*
X159009Y152210D01*
X159028Y152289D01*
X159039Y152377D01*
X159045Y152470D01*
Y152491D01*
X159042Y152508D01*
Y152527D01*
X159039Y152549D01*
X159036Y152573D01*
X159034Y152603D01*
X159025Y152666D01*
X159009Y152737D01*
X158990Y152813D01*
X158963Y152890D01*
Y152893D01*
X158960Y152898D01*
X158954Y152909D01*
X158949Y152925D01*
X158941Y152942D01*
X158930Y152961D01*
X158908Y153007D01*
X158881Y153059D01*
X158851Y153111D01*
X158821Y153160D01*
X158785Y153204D01*
X158313D01*
Y152464D01*
X158015D01*
Y153532D01*
X158952D01*
X158954Y153529D01*
D02*
G37*
G36*
X159301Y150548D02*
X158777Y150215D01*
X158774Y150212D01*
X158766Y150209D01*
X158755Y150201D01*
X158739Y150190D01*
X158720Y150179D01*
X158698Y150163D01*
X158649Y150130D01*
X158591Y150092D01*
X158534Y150054D01*
X158479Y150013D01*
X158430Y149974D01*
X158428D01*
X158425Y149969D01*
X158411Y149958D01*
X158389Y149942D01*
X158365Y149917D01*
X158337Y149892D01*
X158310Y149862D01*
X158283Y149832D01*
X158264Y149805D01*
X158261Y149802D01*
X158256Y149791D01*
X158247Y149778D01*
X158237Y149759D01*
X158226Y149734D01*
X158215Y149709D01*
X158204Y149682D01*
X158195Y149652D01*
Y149649D01*
X158193Y149641D01*
X158190Y149628D01*
X158187Y149609D01*
Y149581D01*
X158185Y149548D01*
X158182Y149510D01*
Y149082D01*
X159301D01*
Y148749D01*
X156781D01*
Y149920D01*
X156784Y149950D01*
Y149980D01*
X156787Y150015D01*
X156790Y150056D01*
X156798Y150138D01*
X156811Y150223D01*
X156828Y150305D01*
X156839Y150340D01*
X156850Y150376D01*
Y150378D01*
X156852Y150384D01*
X156858Y150392D01*
X156863Y150406D01*
X156880Y150438D01*
X156904Y150477D01*
X156937Y150523D01*
X156981Y150569D01*
X157030Y150616D01*
X157090Y150657D01*
X157093D01*
X157098Y150662D01*
X157106Y150668D01*
X157120Y150673D01*
X157136Y150681D01*
X157155Y150690D01*
X157177Y150700D01*
X157202Y150711D01*
X157259Y150731D01*
X157322Y150747D01*
X157393Y150758D01*
X157469Y150763D01*
X157472D01*
X157480D01*
X157497D01*
X157513Y150760D01*
X157538Y150758D01*
X157565Y150755D01*
X157595Y150750D01*
X157628Y150741D01*
X157699Y150720D01*
X157737Y150706D01*
X157775Y150690D01*
X157813Y150670D01*
X157852Y150646D01*
X157887Y150619D01*
X157922Y150589D01*
X157925Y150586D01*
X157931Y150580D01*
X157939Y150569D01*
X157952Y150556D01*
X157966Y150537D01*
X157983Y150515D01*
X158002Y150487D01*
X158021Y150455D01*
X158040Y150419D01*
X158059Y150381D01*
X158078Y150337D01*
X158097Y150288D01*
X158114Y150236D01*
X158130Y150179D01*
X158144Y150116D01*
X158155Y150051D01*
Y150054D01*
X158157Y150056D01*
X158166Y150073D01*
X158179Y150097D01*
X158195Y150127D01*
X158215Y150160D01*
X158234Y150193D01*
X158258Y150225D01*
X158280Y150253D01*
X158283Y150256D01*
X158286Y150258D01*
X158294Y150266D01*
X158305Y150277D01*
X158318Y150291D01*
X158335Y150307D01*
X158373Y150343D01*
X158422Y150384D01*
X158479Y150430D01*
X158545Y150479D01*
X158616Y150529D01*
X159301Y150965D01*
Y150548D01*
D02*
G37*
G36*
X157079Y147569D02*
X159301D01*
Y147236D01*
X157079D01*
Y146406D01*
X156781D01*
Y148399D01*
X157079D01*
Y147569D01*
D02*
G37*
G36*
X160000Y144312D02*
X159776D01*
Y146362D01*
X160000D01*
Y144312D01*
D02*
G37*
G36*
X158520Y144222D02*
X158539Y144217D01*
X158570Y144206D01*
X158602Y144195D01*
X158643Y144178D01*
X158687Y144162D01*
X158733Y144140D01*
X158785Y144116D01*
X158834Y144088D01*
X158889Y144058D01*
X158941Y144023D01*
X158990Y143985D01*
X159039Y143944D01*
X159086Y143897D01*
X159129Y143848D01*
X159132Y143845D01*
X159137Y143834D01*
X159148Y143821D01*
X159162Y143799D01*
X159178Y143774D01*
X159197Y143742D01*
X159216Y143706D01*
X159236Y143663D01*
X159255Y143616D01*
X159274Y143567D01*
X159293Y143512D01*
X159309Y143452D01*
X159323Y143389D01*
X159334Y143324D01*
X159339Y143256D01*
X159342Y143182D01*
Y143144D01*
X159339Y143114D01*
X159337Y143081D01*
X159334Y143040D01*
X159328Y142996D01*
X159320Y142947D01*
X159312Y142895D01*
X159301Y142841D01*
X159288Y142786D01*
X159274Y142732D01*
X159255Y142674D01*
X159233Y142620D01*
X159208Y142568D01*
X159178Y142519D01*
X159176Y142516D01*
X159170Y142508D01*
X159162Y142494D01*
X159148Y142478D01*
X159129Y142456D01*
X159110Y142431D01*
X159086Y142404D01*
X159055Y142374D01*
X159023Y142344D01*
X158987Y142311D01*
X158949Y142281D01*
X158905Y142248D01*
X158859Y142216D01*
X158810Y142186D01*
X158755Y142158D01*
X158698Y142131D01*
X158695Y142128D01*
X158684Y142125D01*
X158665Y142120D01*
X158643Y142112D01*
X158613Y142101D01*
X158580Y142090D01*
X158539Y142079D01*
X158496Y142066D01*
X158447Y142055D01*
X158395Y142041D01*
X158340Y142030D01*
X158280Y142022D01*
X158155Y142005D01*
X158089Y142003D01*
X158024Y142000D01*
X158018D01*
X158007D01*
X157985D01*
X157958Y142003D01*
X157922Y142005D01*
X157882Y142008D01*
X157838Y142014D01*
X157789Y142019D01*
X157737Y142027D01*
X157682Y142035D01*
X157565Y142063D01*
X157508Y142082D01*
X157450Y142101D01*
X157390Y142123D01*
X157336Y142150D01*
X157333Y142153D01*
X157322Y142158D01*
X157308Y142166D01*
X157286Y142177D01*
X157262Y142194D01*
X157235Y142213D01*
X157204Y142235D01*
X157169Y142259D01*
X157136Y142289D01*
X157098Y142319D01*
X157063Y142355D01*
X157024Y142393D01*
X156989Y142434D01*
X156953Y142478D01*
X156921Y142527D01*
X156891Y142576D01*
X156888Y142579D01*
X156885Y142590D01*
X156877Y142603D01*
X156866Y142625D01*
X156855Y142650D01*
X156841Y142683D01*
X156828Y142718D01*
X156814Y142756D01*
X156800Y142800D01*
X156787Y142849D01*
X156773Y142898D01*
X156762Y142953D01*
X156743Y143065D01*
X156740Y143125D01*
X156738Y143187D01*
Y143223D01*
X156740Y143250D01*
X156743Y143283D01*
X156749Y143321D01*
X156754Y143362D01*
X156762Y143409D01*
X156773Y143458D01*
X156784Y143510D01*
X156800Y143561D01*
X156820Y143616D01*
X156841Y143671D01*
X156869Y143723D01*
X156896Y143774D01*
X156931Y143824D01*
X156934Y143826D01*
X156940Y143834D01*
X156951Y143848D01*
X156967Y143865D01*
X156986Y143886D01*
X157011Y143911D01*
X157038Y143936D01*
X157071Y143966D01*
X157106Y143996D01*
X157147Y144026D01*
X157191Y144056D01*
X157240Y144083D01*
X157292Y144113D01*
X157349Y144138D01*
X157409Y144162D01*
X157472Y144184D01*
X157548Y143856D01*
X157546D01*
X157538Y143851D01*
X157521Y143848D01*
X157502Y143840D01*
X157480Y143832D01*
X157456Y143818D01*
X157396Y143791D01*
X157330Y143755D01*
X157262Y143709D01*
X157199Y143660D01*
X157172Y143630D01*
X157147Y143600D01*
X157144Y143597D01*
X157142Y143592D01*
X157136Y143583D01*
X157128Y143570D01*
X157117Y143553D01*
X157106Y143534D01*
X157095Y143512D01*
X157084Y143485D01*
X157073Y143455D01*
X157063Y143425D01*
X157041Y143354D01*
X157027Y143272D01*
X157022Y143228D01*
Y143155D01*
X157024Y143133D01*
X157027Y143108D01*
X157030Y143078D01*
X157033Y143046D01*
X157038Y143013D01*
X157057Y142934D01*
X157082Y142852D01*
X157098Y142811D01*
X157117Y142770D01*
X157139Y142732D01*
X157164Y142693D01*
X157166Y142691D01*
X157169Y142685D01*
X157177Y142674D01*
X157188Y142661D01*
X157202Y142647D01*
X157221Y142628D01*
X157240Y142609D01*
X157262Y142587D01*
X157289Y142565D01*
X157317Y142541D01*
X157379Y142497D01*
X157453Y142456D01*
X157538Y142420D01*
X157540D01*
X157548Y142418D01*
X157562Y142412D01*
X157579Y142410D01*
X157600Y142404D01*
X157625Y142396D01*
X157655Y142390D01*
X157685Y142382D01*
X157720Y142374D01*
X157759Y142368D01*
X157841Y142355D01*
X157928Y142347D01*
X158021Y142344D01*
X158024D01*
X158034D01*
X158051D01*
X158075Y142347D01*
X158103D01*
X158135Y142349D01*
X158171Y142352D01*
X158212Y142355D01*
X158256Y142360D01*
X158299Y142366D01*
X158395Y142382D01*
X158490Y142407D01*
X158583Y142437D01*
X158586D01*
X158594Y142442D01*
X158605Y142448D01*
X158621Y142453D01*
X158643Y142464D01*
X158665Y142478D01*
X158717Y142508D01*
X158777Y142549D01*
X158834Y142598D01*
X158892Y142658D01*
X158916Y142691D01*
X158941Y142726D01*
Y142729D01*
X158946Y142734D01*
X158952Y142745D01*
X158960Y142762D01*
X158968Y142781D01*
X158979Y142803D01*
X158987Y142827D01*
X158998Y142854D01*
X159020Y142917D01*
X159039Y142991D01*
X159053Y143070D01*
X159055Y143111D01*
X159058Y143155D01*
Y143182D01*
X159055Y143201D01*
X159053Y143226D01*
X159050Y143253D01*
X159045Y143286D01*
X159039Y143319D01*
X159020Y143395D01*
X159006Y143433D01*
X158990Y143474D01*
X158971Y143515D01*
X158949Y143553D01*
X158924Y143592D01*
X158897Y143630D01*
X158894Y143632D01*
X158889Y143638D01*
X158881Y143649D01*
X158867Y143663D01*
X158851Y143676D01*
X158829Y143695D01*
X158804Y143714D01*
X158777Y143736D01*
X158744Y143758D01*
X158709Y143780D01*
X158670Y143802D01*
X158627Y143824D01*
X158580Y143843D01*
X158529Y143862D01*
X158474Y143881D01*
X158417Y143895D01*
X158501Y144228D01*
X158507D01*
X158520Y144222D01*
D02*
G37*
G36*
X15613Y138276D02*
X13563D01*
Y138500D01*
X15613D01*
Y138276D01*
D02*
G37*
G36*
X12424Y137839D02*
X12454D01*
X12487Y137837D01*
X12525Y137834D01*
X12569Y137828D01*
X12659Y137818D01*
X12755Y137801D01*
X12850Y137777D01*
X12943Y137744D01*
X12946D01*
X12954Y137738D01*
X12965Y137733D01*
X12981Y137725D01*
X13001Y137714D01*
X13022Y137703D01*
X13074Y137670D01*
X13131Y137629D01*
X13192Y137577D01*
X13252Y137517D01*
X13304Y137446D01*
X13306Y137443D01*
X13309Y137438D01*
X13314Y137427D01*
X13323Y137411D01*
X13333Y137392D01*
X13344Y137370D01*
X13358Y137343D01*
X13369Y137312D01*
X13383Y137282D01*
X13394Y137247D01*
X13415Y137168D01*
X13432Y137083D01*
X13437Y137037D01*
X13440Y136990D01*
X13126Y136963D01*
Y136966D01*
Y136971D01*
X13123Y136982D01*
X13121Y136996D01*
X13118Y137012D01*
X13115Y137029D01*
X13104Y137075D01*
X13091Y137124D01*
X13074Y137176D01*
X13052Y137228D01*
X13025Y137277D01*
X13022Y137282D01*
X13009Y137296D01*
X12990Y137318D01*
X12962Y137345D01*
X12927Y137378D01*
X12883Y137408D01*
X12831Y137441D01*
X12771Y137471D01*
X12768D01*
X12763Y137474D01*
X12755Y137476D01*
X12741Y137482D01*
X12725Y137487D01*
X12706Y137495D01*
X12684Y137501D01*
X12659Y137506D01*
X12602Y137520D01*
X12534Y137534D01*
X12463Y137542D01*
X12383Y137545D01*
X12351D01*
X12334Y137542D01*
X12315D01*
X12271Y137536D01*
X12220Y137531D01*
X12162Y137523D01*
X12105Y137509D01*
X12050Y137490D01*
X12048D01*
X12045Y137487D01*
X12037Y137485D01*
X12026Y137479D01*
X12001Y137465D01*
X11969Y137449D01*
X11933Y137427D01*
X11895Y137400D01*
X11862Y137370D01*
X11832Y137334D01*
X11829Y137329D01*
X11821Y137318D01*
X11807Y137296D01*
X11794Y137269D01*
X11783Y137236D01*
X11769Y137200D01*
X11761Y137160D01*
X11758Y137119D01*
Y137116D01*
Y137113D01*
Y137100D01*
X11761Y137075D01*
X11767Y137048D01*
X11775Y137015D01*
X11788Y136979D01*
X11805Y136944D01*
X11829Y136911D01*
X11832Y136908D01*
X11843Y136898D01*
X11859Y136881D01*
X11884Y136859D01*
X11914Y136837D01*
X11955Y136813D01*
X12001Y136788D01*
X12056Y136764D01*
X12061Y136761D01*
X12067Y136758D01*
X12078Y136756D01*
X12089Y136753D01*
X12105Y136747D01*
X12127Y136739D01*
X12149Y136734D01*
X12179Y136725D01*
X12209Y136715D01*
X12247Y136706D01*
X12288Y136696D01*
X12334Y136682D01*
X12383Y136671D01*
X12441Y136654D01*
X12504Y136641D01*
X12506D01*
X12517Y136638D01*
X12536Y136633D01*
X12558Y136627D01*
X12588Y136619D01*
X12621Y136611D01*
X12654Y136600D01*
X12692Y136589D01*
X12774Y136565D01*
X12853Y136537D01*
X12891Y136523D01*
X12927Y136510D01*
X12959Y136496D01*
X12987Y136483D01*
X12990D01*
X12995Y136477D01*
X13003Y136472D01*
X13017Y136466D01*
X13050Y136447D01*
X13088Y136420D01*
X13134Y136384D01*
X13178Y136346D01*
X13222Y136300D01*
X13257Y136250D01*
Y136248D01*
X13260Y136245D01*
X13265Y136237D01*
X13271Y136226D01*
X13284Y136196D01*
X13301Y136158D01*
X13317Y136111D01*
X13331Y136057D01*
X13342Y135997D01*
X13344Y135934D01*
Y135931D01*
Y135926D01*
Y135915D01*
X13342Y135901D01*
Y135885D01*
X13339Y135866D01*
X13331Y135816D01*
X13317Y135762D01*
X13301Y135705D01*
X13273Y135642D01*
X13238Y135579D01*
Y135576D01*
X13232Y135571D01*
X13227Y135563D01*
X13219Y135552D01*
X13192Y135522D01*
X13156Y135483D01*
X13112Y135442D01*
X13058Y135401D01*
X12995Y135361D01*
X12921Y135325D01*
X12919D01*
X12913Y135322D01*
X12899Y135317D01*
X12886Y135311D01*
X12867Y135306D01*
X12842Y135298D01*
X12815Y135290D01*
X12785Y135281D01*
X12752Y135273D01*
X12717Y135265D01*
X12640Y135251D01*
X12553Y135240D01*
X12460Y135238D01*
X12414D01*
X12389Y135240D01*
X12359Y135243D01*
X12329Y135246D01*
X12293Y135249D01*
X12217Y135259D01*
X12132Y135276D01*
X12048Y135301D01*
X11966Y135330D01*
X11963D01*
X11958Y135336D01*
X11944Y135339D01*
X11930Y135347D01*
X11914Y135358D01*
X11892Y135369D01*
X11846Y135396D01*
X11791Y135434D01*
X11737Y135481D01*
X11685Y135532D01*
X11638Y135595D01*
X11636Y135598D01*
X11633Y135603D01*
X11627Y135612D01*
X11619Y135625D01*
X11611Y135642D01*
X11600Y135661D01*
X11592Y135685D01*
X11578Y135710D01*
X11556Y135767D01*
X11537Y135836D01*
X11521Y135909D01*
X11513Y135991D01*
X11832Y136016D01*
Y136013D01*
X11835Y136005D01*
Y135994D01*
X11838Y135977D01*
X11843Y135956D01*
X11848Y135934D01*
X11865Y135882D01*
X11887Y135825D01*
X11919Y135765D01*
X11958Y135707D01*
X11982Y135683D01*
X12009Y135658D01*
X12012Y135655D01*
X12015Y135653D01*
X12026Y135647D01*
X12037Y135639D01*
X12053Y135631D01*
X12072Y135620D01*
X12094Y135609D01*
X12119Y135595D01*
X12149Y135584D01*
X12181Y135573D01*
X12217Y135563D01*
X12255Y135554D01*
X12299Y135546D01*
X12345Y135541D01*
X12394Y135535D01*
X12474D01*
X12495Y135538D01*
X12520D01*
X12547Y135541D01*
X12580Y135543D01*
X12613Y135549D01*
X12686Y135563D01*
X12757Y135582D01*
X12826Y135609D01*
X12858Y135628D01*
X12886Y135647D01*
X12889D01*
X12891Y135653D01*
X12908Y135666D01*
X12930Y135691D01*
X12954Y135724D01*
X12979Y135762D01*
X13001Y135808D01*
X13017Y135857D01*
X13020Y135885D01*
X13022Y135915D01*
Y135917D01*
Y135920D01*
X13020Y135937D01*
X13017Y135961D01*
X13011Y135991D01*
X12998Y136027D01*
X12981Y136065D01*
X12959Y136100D01*
X12927Y136136D01*
X12921Y136139D01*
X12916Y136144D01*
X12905Y136152D01*
X12891Y136160D01*
X12875Y136169D01*
X12853Y136179D01*
X12829Y136193D01*
X12798Y136207D01*
X12763Y136221D01*
X12722Y136234D01*
X12676Y136250D01*
X12621Y136267D01*
X12564Y136283D01*
X12498Y136302D01*
X12424Y136319D01*
X12419D01*
X12405Y136321D01*
X12386Y136327D01*
X12359Y136335D01*
X12326Y136341D01*
X12288Y136352D01*
X12247Y136360D01*
X12203Y136373D01*
X12111Y136398D01*
X12018Y136423D01*
X11974Y136436D01*
X11936Y136450D01*
X11897Y136463D01*
X11868Y136477D01*
X11865D01*
X11857Y136483D01*
X11846Y136488D01*
X11832Y136496D01*
X11813Y136504D01*
X11791Y136518D01*
X11745Y136548D01*
X11690Y136584D01*
X11638Y136627D01*
X11586Y136679D01*
X11564Y136706D01*
X11543Y136734D01*
Y136736D01*
X11537Y136742D01*
X11532Y136750D01*
X11526Y136761D01*
X11518Y136775D01*
X11510Y136794D01*
X11488Y136837D01*
X11469Y136889D01*
X11452Y136949D01*
X11442Y137018D01*
X11436Y137091D01*
Y137094D01*
Y137100D01*
Y137110D01*
X11439Y137124D01*
Y137143D01*
X11442Y137162D01*
X11450Y137214D01*
X11463Y137271D01*
X11485Y137334D01*
X11515Y137400D01*
X11532Y137435D01*
X11553Y137468D01*
Y137471D01*
X11559Y137476D01*
X11564Y137485D01*
X11575Y137498D01*
X11600Y137528D01*
X11638Y137569D01*
X11685Y137613D01*
X11742Y137659D01*
X11807Y137703D01*
X11884Y137744D01*
X11887D01*
X11895Y137749D01*
X11906Y137752D01*
X11922Y137760D01*
X11941Y137766D01*
X11966Y137774D01*
X11993Y137785D01*
X12026Y137793D01*
X12059Y137801D01*
X12097Y137812D01*
X12179Y137826D01*
X12269Y137837D01*
X12367Y137842D01*
X12400D01*
X12424Y137839D01*
D02*
G37*
G36*
X17824Y135281D02*
X16653D01*
X16623Y135284D01*
X16593D01*
X16558Y135287D01*
X16517Y135290D01*
X16435Y135298D01*
X16350Y135311D01*
X16268Y135328D01*
X16233Y135339D01*
X16197Y135350D01*
X16195D01*
X16189Y135352D01*
X16181Y135358D01*
X16167Y135363D01*
X16135Y135380D01*
X16096Y135404D01*
X16050Y135437D01*
X16003Y135481D01*
X15957Y135530D01*
X15916Y135590D01*
Y135593D01*
X15911Y135598D01*
X15905Y135606D01*
X15900Y135620D01*
X15891Y135636D01*
X15883Y135655D01*
X15872Y135677D01*
X15861Y135702D01*
X15842Y135759D01*
X15826Y135822D01*
X15815Y135893D01*
X15810Y135969D01*
Y135972D01*
Y135980D01*
Y135997D01*
X15812Y136013D01*
X15815Y136038D01*
X15818Y136065D01*
X15823Y136095D01*
X15832Y136128D01*
X15853Y136199D01*
X15867Y136237D01*
X15883Y136275D01*
X15902Y136313D01*
X15927Y136352D01*
X15954Y136387D01*
X15984Y136423D01*
X15987Y136425D01*
X15992Y136431D01*
X16003Y136439D01*
X16017Y136452D01*
X16036Y136466D01*
X16058Y136483D01*
X16085Y136502D01*
X16118Y136521D01*
X16154Y136540D01*
X16192Y136559D01*
X16236Y136578D01*
X16285Y136597D01*
X16337Y136614D01*
X16394Y136630D01*
X16457Y136644D01*
X16522Y136654D01*
X16519D01*
X16517Y136657D01*
X16500Y136665D01*
X16476Y136679D01*
X16446Y136696D01*
X16413Y136715D01*
X16380Y136734D01*
X16347Y136758D01*
X16320Y136780D01*
X16317Y136783D01*
X16315Y136786D01*
X16307Y136794D01*
X16296Y136805D01*
X16282Y136818D01*
X16265Y136835D01*
X16230Y136873D01*
X16189Y136922D01*
X16143Y136979D01*
X16093Y137045D01*
X16044Y137116D01*
X15608Y137801D01*
X16025D01*
X16358Y137277D01*
X16361Y137274D01*
X16364Y137266D01*
X16372Y137255D01*
X16383Y137239D01*
X16394Y137220D01*
X16410Y137198D01*
X16443Y137149D01*
X16481Y137091D01*
X16519Y137034D01*
X16560Y136979D01*
X16599Y136930D01*
Y136927D01*
X16604Y136925D01*
X16615Y136911D01*
X16631Y136889D01*
X16656Y136865D01*
X16680Y136837D01*
X16711Y136810D01*
X16740Y136783D01*
X16768Y136764D01*
X16771Y136761D01*
X16781Y136756D01*
X16795Y136747D01*
X16814Y136736D01*
X16839Y136725D01*
X16863Y136715D01*
X16891Y136704D01*
X16921Y136696D01*
X16924D01*
X16932Y136693D01*
X16945Y136690D01*
X16964Y136687D01*
X16992D01*
X17025Y136685D01*
X17063Y136682D01*
X17491D01*
Y137801D01*
X17824D01*
Y135281D01*
D02*
G37*
G36*
X21379D02*
X21035D01*
X20655Y136936D01*
Y136939D01*
X20653Y136947D01*
X20650Y136960D01*
X20644Y136979D01*
X20639Y137004D01*
X20633Y137031D01*
X20625Y137061D01*
X20617Y137097D01*
X20609Y137135D01*
X20601Y137176D01*
X20584Y137261D01*
X20565Y137353D01*
X20549Y137449D01*
Y137443D01*
X20543Y137433D01*
X20541Y137411D01*
X20533Y137386D01*
X20527Y137353D01*
X20519Y137318D01*
X20508Y137280D01*
X20500Y137241D01*
X20478Y137160D01*
X20470Y137121D01*
X20459Y137083D01*
X20451Y137050D01*
X20445Y137023D01*
X20440Y137001D01*
X20434Y136985D01*
X19954Y135281D01*
X19552D01*
X19195Y136559D01*
X19192Y136565D01*
X19189Y136581D01*
X19181Y136605D01*
X19173Y136641D01*
X19162Y136682D01*
X19148Y136731D01*
X19135Y136786D01*
X19118Y136848D01*
X19102Y136914D01*
X19086Y136985D01*
X19069Y137059D01*
X19053Y137135D01*
X19023Y137291D01*
X18995Y137449D01*
Y137446D01*
X18993Y137438D01*
X18990Y137424D01*
X18987Y137408D01*
X18982Y137383D01*
X18976Y137356D01*
X18968Y137326D01*
X18960Y137291D01*
X18952Y137252D01*
X18944Y137212D01*
X18933Y137165D01*
X18922Y137119D01*
X18897Y137015D01*
X18870Y136903D01*
X18474Y135281D01*
X18138D01*
X18829Y137801D01*
X19154D01*
X19681Y135882D01*
Y135879D01*
X19683Y135871D01*
X19686Y135860D01*
X19692Y135844D01*
X19697Y135825D01*
X19703Y135803D01*
X19716Y135754D01*
X19730Y135705D01*
X19744Y135655D01*
X19749Y135634D01*
X19755Y135614D01*
X19760Y135598D01*
X19763Y135587D01*
Y135590D01*
X19765Y135595D01*
Y135603D01*
X19771Y135617D01*
X19774Y135631D01*
X19776Y135650D01*
X19787Y135688D01*
X19798Y135734D01*
X19812Y135786D01*
X19826Y135836D01*
X19839Y135882D01*
X20369Y137801D01*
X20715D01*
X21379Y135281D01*
D02*
G37*
G36*
X11210D02*
X10866D01*
X10486Y136936D01*
Y136939D01*
X10483Y136947D01*
X10481Y136960D01*
X10475Y136979D01*
X10470Y137004D01*
X10464Y137031D01*
X10456Y137061D01*
X10448Y137097D01*
X10440Y137135D01*
X10431Y137176D01*
X10415Y137261D01*
X10396Y137353D01*
X10380Y137449D01*
Y137443D01*
X10374Y137433D01*
X10372Y137411D01*
X10363Y137386D01*
X10358Y137353D01*
X10350Y137318D01*
X10339Y137280D01*
X10330Y137241D01*
X10309Y137160D01*
X10300Y137121D01*
X10290Y137083D01*
X10281Y137050D01*
X10276Y137023D01*
X10270Y137001D01*
X10265Y136985D01*
X9785Y135281D01*
X9383D01*
X9026Y136559D01*
X9023Y136565D01*
X9020Y136581D01*
X9012Y136605D01*
X9004Y136641D01*
X8993Y136682D01*
X8979Y136731D01*
X8965Y136786D01*
X8949Y136848D01*
X8933Y136914D01*
X8916Y136985D01*
X8900Y137059D01*
X8884Y137135D01*
X8854Y137291D01*
X8826Y137449D01*
Y137446D01*
X8824Y137438D01*
X8821Y137424D01*
X8818Y137408D01*
X8813Y137383D01*
X8807Y137356D01*
X8799Y137326D01*
X8791Y137291D01*
X8783Y137252D01*
X8774Y137212D01*
X8764Y137165D01*
X8753Y137119D01*
X8728Y137015D01*
X8701Y136903D01*
X8305Y135281D01*
X7969D01*
X8660Y137801D01*
X8985D01*
X9511Y135882D01*
Y135879D01*
X9514Y135871D01*
X9517Y135860D01*
X9522Y135844D01*
X9528Y135825D01*
X9533Y135803D01*
X9547Y135754D01*
X9561Y135705D01*
X9574Y135655D01*
X9580Y135634D01*
X9585Y135614D01*
X9591Y135598D01*
X9593Y135587D01*
Y135590D01*
X9596Y135595D01*
Y135603D01*
X9602Y135617D01*
X9604Y135631D01*
X9607Y135650D01*
X9618Y135688D01*
X9629Y135734D01*
X9642Y135786D01*
X9656Y135836D01*
X9670Y135882D01*
X10199Y137801D01*
X10546D01*
X11210Y135281D01*
D02*
G37*
G36*
X23500D02*
X22463D01*
X22408Y135284D01*
X22345Y135287D01*
X22283Y135292D01*
X22222Y135298D01*
X22192Y135301D01*
X22168Y135306D01*
X22165D01*
X22160Y135309D01*
X22149D01*
X22138Y135311D01*
X22121Y135317D01*
X22102Y135320D01*
X22059Y135333D01*
X22009Y135350D01*
X21958Y135371D01*
X21906Y135396D01*
X21857Y135426D01*
X21854D01*
X21851Y135429D01*
X21835Y135442D01*
X21813Y135461D01*
X21783Y135489D01*
X21753Y135522D01*
X21717Y135565D01*
X21685Y135612D01*
X21655Y135669D01*
Y135672D01*
X21652Y135677D01*
X21646Y135685D01*
X21641Y135696D01*
X21635Y135710D01*
X21630Y135729D01*
X21614Y135770D01*
X21600Y135822D01*
X21586Y135879D01*
X21578Y135945D01*
X21575Y136013D01*
Y136016D01*
Y136027D01*
Y136043D01*
X21578Y136068D01*
X21581Y136095D01*
X21586Y136125D01*
X21592Y136160D01*
X21600Y136201D01*
X21611Y136242D01*
X21624Y136286D01*
X21641Y136330D01*
X21663Y136376D01*
X21685Y136423D01*
X21712Y136469D01*
X21745Y136513D01*
X21780Y136556D01*
X21783Y136559D01*
X21791Y136565D01*
X21802Y136575D01*
X21821Y136592D01*
X21843Y136608D01*
X21873Y136627D01*
X21908Y136646D01*
X21949Y136665D01*
X21998Y136687D01*
X22050Y136706D01*
X22113Y136725D01*
X22179Y136742D01*
X22255Y136756D01*
X22337Y136767D01*
X22424Y136775D01*
X22523Y136777D01*
X23167D01*
Y137801D01*
X23500D01*
Y135281D01*
D02*
G37*
G36*
X175797Y71260D02*
X175830Y71257D01*
X175868Y71251D01*
X175909Y71246D01*
X175955Y71238D01*
X176004Y71227D01*
X176056Y71216D01*
X176108Y71200D01*
X176163Y71180D01*
X176217Y71159D01*
X176269Y71131D01*
X176321Y71104D01*
X176370Y71069D01*
X176373Y71066D01*
X176381Y71060D01*
X176395Y71049D01*
X176411Y71033D01*
X176433Y71014D01*
X176458Y70989D01*
X176482Y70962D01*
X176512Y70929D01*
X176542Y70894D01*
X176572Y70853D01*
X176602Y70809D01*
X176629Y70760D01*
X176660Y70708D01*
X176684Y70651D01*
X176709Y70591D01*
X176731Y70528D01*
X176403Y70451D01*
Y70454D01*
X176398Y70463D01*
X176395Y70479D01*
X176387Y70498D01*
X176378Y70520D01*
X176365Y70544D01*
X176337Y70604D01*
X176302Y70670D01*
X176256Y70738D01*
X176206Y70801D01*
X176176Y70828D01*
X176146Y70853D01*
X176144Y70856D01*
X176138Y70858D01*
X176130Y70864D01*
X176116Y70872D01*
X176100Y70883D01*
X176081Y70894D01*
X176059Y70905D01*
X176032Y70916D01*
X176002Y70927D01*
X175972Y70938D01*
X175901Y70959D01*
X175819Y70973D01*
X175775Y70978D01*
X175701D01*
X175680Y70976D01*
X175655Y70973D01*
X175625Y70970D01*
X175592Y70968D01*
X175559Y70962D01*
X175480Y70943D01*
X175398Y70918D01*
X175357Y70902D01*
X175316Y70883D01*
X175278Y70861D01*
X175240Y70837D01*
X175237Y70834D01*
X175232Y70831D01*
X175221Y70823D01*
X175207Y70812D01*
X175194Y70798D01*
X175174Y70779D01*
X175155Y70760D01*
X175134Y70738D01*
X175112Y70711D01*
X175087Y70684D01*
X175043Y70621D01*
X175002Y70547D01*
X174967Y70463D01*
Y70460D01*
X174964Y70451D01*
X174959Y70438D01*
X174956Y70421D01*
X174951Y70400D01*
X174942Y70375D01*
X174937Y70345D01*
X174929Y70315D01*
X174921Y70280D01*
X174915Y70241D01*
X174901Y70159D01*
X174893Y70072D01*
X174890Y69979D01*
Y69977D01*
Y69966D01*
Y69949D01*
X174893Y69925D01*
Y69897D01*
X174896Y69865D01*
X174899Y69829D01*
X174901Y69788D01*
X174907Y69744D01*
X174912Y69701D01*
X174929Y69605D01*
X174953Y69510D01*
X174983Y69417D01*
Y69414D01*
X174989Y69406D01*
X174994Y69395D01*
X175000Y69379D01*
X175011Y69357D01*
X175024Y69335D01*
X175054Y69283D01*
X175095Y69223D01*
X175144Y69166D01*
X175205Y69108D01*
X175237Y69084D01*
X175273Y69059D01*
X175276D01*
X175281Y69054D01*
X175292Y69048D01*
X175308Y69040D01*
X175327Y69032D01*
X175349Y69021D01*
X175374Y69013D01*
X175401Y69002D01*
X175464Y68980D01*
X175538Y68961D01*
X175617Y68947D01*
X175658Y68945D01*
X175701Y68942D01*
X175729D01*
X175748Y68945D01*
X175772Y68947D01*
X175800Y68950D01*
X175832Y68955D01*
X175865Y68961D01*
X175942Y68980D01*
X175980Y68994D01*
X176021Y69010D01*
X176062Y69029D01*
X176100Y69051D01*
X176138Y69076D01*
X176176Y69103D01*
X176179Y69106D01*
X176184Y69111D01*
X176196Y69119D01*
X176209Y69133D01*
X176223Y69149D01*
X176242Y69171D01*
X176261Y69196D01*
X176283Y69223D01*
X176305Y69256D01*
X176327Y69291D01*
X176348Y69330D01*
X176370Y69373D01*
X176389Y69420D01*
X176408Y69472D01*
X176427Y69526D01*
X176441Y69583D01*
X176774Y69499D01*
Y69493D01*
X176769Y69480D01*
X176763Y69461D01*
X176752Y69431D01*
X176742Y69398D01*
X176725Y69357D01*
X176709Y69313D01*
X176687Y69267D01*
X176662Y69215D01*
X176635Y69166D01*
X176605Y69111D01*
X176569Y69059D01*
X176531Y69010D01*
X176490Y68961D01*
X176444Y68915D01*
X176395Y68871D01*
X176392Y68868D01*
X176381Y68863D01*
X176367Y68852D01*
X176346Y68838D01*
X176321Y68822D01*
X176288Y68803D01*
X176253Y68783D01*
X176209Y68764D01*
X176163Y68745D01*
X176114Y68726D01*
X176059Y68707D01*
X175999Y68691D01*
X175936Y68677D01*
X175871Y68666D01*
X175802Y68661D01*
X175729Y68658D01*
X175690D01*
X175660Y68661D01*
X175628Y68663D01*
X175587Y68666D01*
X175543Y68672D01*
X175494Y68680D01*
X175442Y68688D01*
X175387Y68699D01*
X175333Y68713D01*
X175278Y68726D01*
X175221Y68745D01*
X175166Y68767D01*
X175114Y68792D01*
X175065Y68822D01*
X175063Y68824D01*
X175054Y68830D01*
X175041Y68838D01*
X175024Y68852D01*
X175002Y68871D01*
X174978Y68890D01*
X174951Y68915D01*
X174921Y68945D01*
X174890Y68977D01*
X174858Y69013D01*
X174828Y69051D01*
X174795Y69095D01*
X174762Y69141D01*
X174732Y69190D01*
X174705Y69245D01*
X174678Y69302D01*
X174675Y69305D01*
X174672Y69316D01*
X174667Y69335D01*
X174659Y69357D01*
X174648Y69387D01*
X174637Y69420D01*
X174626Y69461D01*
X174612Y69504D01*
X174601Y69553D01*
X174588Y69605D01*
X174577Y69660D01*
X174568Y69720D01*
X174552Y69845D01*
X174549Y69911D01*
X174547Y69977D01*
Y69982D01*
Y69993D01*
Y70015D01*
X174549Y70042D01*
X174552Y70078D01*
X174555Y70118D01*
X174560Y70162D01*
X174566Y70211D01*
X174574Y70263D01*
X174582Y70318D01*
X174609Y70435D01*
X174628Y70493D01*
X174648Y70550D01*
X174669Y70610D01*
X174697Y70665D01*
X174699Y70667D01*
X174705Y70678D01*
X174713Y70692D01*
X174724Y70714D01*
X174740Y70738D01*
X174759Y70766D01*
X174781Y70796D01*
X174806Y70831D01*
X174836Y70864D01*
X174866Y70902D01*
X174901Y70938D01*
X174940Y70976D01*
X174981Y71011D01*
X175024Y71047D01*
X175073Y71079D01*
X175123Y71109D01*
X175125Y71112D01*
X175136Y71115D01*
X175150Y71123D01*
X175172Y71134D01*
X175196Y71145D01*
X175229Y71159D01*
X175265Y71172D01*
X175303Y71186D01*
X175346Y71200D01*
X175396Y71213D01*
X175445Y71227D01*
X175499Y71238D01*
X175611Y71257D01*
X175671Y71260D01*
X175734Y71262D01*
X175770D01*
X175797Y71260D01*
D02*
G37*
G36*
X186605Y69764D02*
Y69758D01*
Y69747D01*
Y69728D01*
Y69701D01*
X186602Y69668D01*
X186600Y69633D01*
X186597Y69592D01*
X186594Y69545D01*
X186583Y69450D01*
X186569Y69349D01*
X186548Y69250D01*
X186534Y69204D01*
X186518Y69160D01*
Y69157D01*
X186515Y69149D01*
X186509Y69138D01*
X186501Y69122D01*
X186490Y69103D01*
X186479Y69081D01*
X186447Y69032D01*
X186427Y69002D01*
X186406Y68975D01*
X186378Y68942D01*
X186351Y68912D01*
X186318Y68882D01*
X186285Y68852D01*
X186247Y68824D01*
X186206Y68797D01*
X186204Y68794D01*
X186196Y68792D01*
X186185Y68783D01*
X186165Y68775D01*
X186144Y68764D01*
X186116Y68753D01*
X186086Y68740D01*
X186048Y68729D01*
X186010Y68715D01*
X185966Y68702D01*
X185917Y68691D01*
X185865Y68680D01*
X185808Y68672D01*
X185748Y68663D01*
X185685Y68661D01*
X185619Y68658D01*
X185584D01*
X185559Y68661D01*
X185529D01*
X185497Y68663D01*
X185456Y68669D01*
X185415Y68674D01*
X185322Y68688D01*
X185224Y68710D01*
X185128Y68740D01*
X185082Y68756D01*
X185038Y68778D01*
X185035Y68781D01*
X185027Y68783D01*
X185016Y68792D01*
X185002Y68800D01*
X184983Y68814D01*
X184961Y68830D01*
X184940Y68846D01*
X184915Y68868D01*
X184861Y68917D01*
X184809Y68977D01*
X184759Y69048D01*
X184738Y69089D01*
X184719Y69130D01*
Y69133D01*
X184716Y69141D01*
X184710Y69155D01*
X184705Y69174D01*
X184697Y69196D01*
X184688Y69226D01*
X184680Y69258D01*
X184672Y69297D01*
X184661Y69340D01*
X184653Y69387D01*
X184645Y69439D01*
X184639Y69496D01*
X184631Y69556D01*
X184628Y69622D01*
X184623Y69690D01*
Y69764D01*
Y71219D01*
X184956D01*
Y69764D01*
Y69761D01*
Y69750D01*
Y69734D01*
Y69709D01*
X184959Y69682D01*
Y69652D01*
X184961Y69616D01*
X184964Y69581D01*
X184970Y69502D01*
X184981Y69422D01*
X184997Y69346D01*
X185005Y69310D01*
X185016Y69280D01*
Y69278D01*
X185019Y69275D01*
X185022Y69267D01*
X185027Y69256D01*
X185043Y69226D01*
X185065Y69193D01*
X185092Y69152D01*
X185128Y69114D01*
X185172Y69076D01*
X185224Y69040D01*
X185226D01*
X185232Y69037D01*
X185240Y69032D01*
X185251Y69026D01*
X185265Y69021D01*
X185284Y69016D01*
X185303Y69007D01*
X185325Y68999D01*
X185379Y68985D01*
X185442Y68972D01*
X185513Y68961D01*
X185589Y68958D01*
X185625D01*
X185650Y68961D01*
X185679Y68964D01*
X185715Y68966D01*
X185753Y68972D01*
X185794Y68980D01*
X185879Y68999D01*
X185923Y69013D01*
X185966Y69029D01*
X186007Y69048D01*
X186045Y69070D01*
X186081Y69095D01*
X186114Y69125D01*
X186116Y69128D01*
X186122Y69133D01*
X186127Y69144D01*
X186138Y69157D01*
X186149Y69177D01*
X186163Y69201D01*
X186179Y69231D01*
X186193Y69267D01*
X186206Y69308D01*
X186223Y69354D01*
X186236Y69406D01*
X186247Y69463D01*
X186258Y69529D01*
X186266Y69600D01*
X186269Y69679D01*
X186272Y69764D01*
Y71219D01*
X186605D01*
Y69764D01*
D02*
G37*
G36*
X188964Y70921D02*
X188134D01*
Y68699D01*
X187801D01*
Y70921D01*
X186971D01*
Y71219D01*
X188964D01*
Y70921D01*
D02*
G37*
G36*
X171429Y71216D02*
X171492Y71213D01*
X171555Y71208D01*
X171615Y71202D01*
X171645Y71200D01*
X171669Y71194D01*
X171672D01*
X171677Y71191D01*
X171688D01*
X171699Y71189D01*
X171715Y71183D01*
X171735Y71180D01*
X171778Y71167D01*
X171827Y71150D01*
X171879Y71129D01*
X171931Y71104D01*
X171980Y71074D01*
X171983D01*
X171986Y71071D01*
X172002Y71058D01*
X172024Y71039D01*
X172054Y71011D01*
X172084Y70978D01*
X172120Y70935D01*
X172152Y70888D01*
X172182Y70831D01*
Y70828D01*
X172185Y70823D01*
X172191Y70815D01*
X172196Y70804D01*
X172202Y70790D01*
X172207Y70771D01*
X172223Y70730D01*
X172237Y70678D01*
X172251Y70621D01*
X172259Y70555D01*
X172262Y70487D01*
Y70484D01*
Y70473D01*
Y70457D01*
X172259Y70432D01*
X172256Y70405D01*
X172251Y70375D01*
X172245Y70340D01*
X172237Y70299D01*
X172226Y70258D01*
X172212Y70214D01*
X172196Y70170D01*
X172174Y70124D01*
X172152Y70078D01*
X172125Y70031D01*
X172092Y69987D01*
X172057Y69944D01*
X172054Y69941D01*
X172046Y69936D01*
X172035Y69925D01*
X172016Y69908D01*
X171994Y69892D01*
X171964Y69873D01*
X171929Y69854D01*
X171888Y69835D01*
X171838Y69813D01*
X171786Y69794D01*
X171724Y69775D01*
X171658Y69758D01*
X171582Y69744D01*
X171500Y69734D01*
X171413Y69725D01*
X171314Y69723D01*
X170670D01*
Y68699D01*
X170337D01*
Y71219D01*
X171374D01*
X171429Y71216D01*
D02*
G37*
G36*
X169993Y70921D02*
X169163D01*
Y68699D01*
X168830D01*
Y70921D01*
X168000D01*
Y71219D01*
X169993D01*
Y70921D01*
D02*
G37*
G36*
X183042Y71260D02*
X183075Y71257D01*
X183110Y71254D01*
X183149Y71249D01*
X183193Y71241D01*
X183242Y71232D01*
X183291Y71221D01*
X183343Y71208D01*
X183397Y71191D01*
X183452Y71172D01*
X183506Y71150D01*
X183558Y71126D01*
X183613Y71096D01*
X183616Y71093D01*
X183626Y71088D01*
X183640Y71079D01*
X183659Y71066D01*
X183684Y71049D01*
X183708Y71028D01*
X183738Y71003D01*
X183771Y70976D01*
X183807Y70943D01*
X183842Y70907D01*
X183878Y70869D01*
X183913Y70828D01*
X183946Y70785D01*
X183981Y70736D01*
X184011Y70684D01*
X184042Y70629D01*
X184044Y70626D01*
X184047Y70615D01*
X184055Y70599D01*
X184063Y70577D01*
X184077Y70550D01*
X184088Y70514D01*
X184101Y70476D01*
X184115Y70432D01*
X184129Y70386D01*
X184142Y70334D01*
X184156Y70277D01*
X184167Y70219D01*
X184175Y70157D01*
X184183Y70091D01*
X184186Y70026D01*
X184189Y69955D01*
Y69949D01*
Y69938D01*
Y69916D01*
X184186Y69889D01*
X184183Y69856D01*
X184181Y69818D01*
X184175Y69775D01*
X184170Y69725D01*
X184162Y69674D01*
X184151Y69619D01*
X184140Y69562D01*
X184123Y69504D01*
X184104Y69444D01*
X184085Y69387D01*
X184061Y69327D01*
X184033Y69269D01*
X184031Y69267D01*
X184025Y69256D01*
X184017Y69239D01*
X184006Y69220D01*
X183990Y69196D01*
X183970Y69166D01*
X183946Y69133D01*
X183921Y69098D01*
X183891Y69062D01*
X183859Y69024D01*
X183820Y68985D01*
X183782Y68947D01*
X183741Y68912D01*
X183695Y68876D01*
X183646Y68841D01*
X183594Y68811D01*
X183591Y68808D01*
X183580Y68805D01*
X183566Y68797D01*
X183545Y68786D01*
X183517Y68775D01*
X183487Y68762D01*
X183452Y68748D01*
X183411Y68734D01*
X183367Y68721D01*
X183321Y68707D01*
X183269Y68693D01*
X183217Y68682D01*
X183102Y68663D01*
X183042Y68661D01*
X182982Y68658D01*
X182947D01*
X182922Y68661D01*
X182892Y68663D01*
X182854Y68666D01*
X182816Y68672D01*
X182769Y68680D01*
X182723Y68688D01*
X182671Y68699D01*
X182619Y68713D01*
X182565Y68729D01*
X182510Y68748D01*
X182455Y68773D01*
X182401Y68797D01*
X182346Y68827D01*
X182343Y68830D01*
X182335Y68835D01*
X182319Y68846D01*
X182300Y68860D01*
X182278Y68876D01*
X182251Y68898D01*
X182221Y68923D01*
X182188Y68950D01*
X182152Y68983D01*
X182120Y69018D01*
X182084Y69056D01*
X182049Y69098D01*
X182013Y69144D01*
X181980Y69190D01*
X181950Y69242D01*
X181920Y69297D01*
X181918Y69300D01*
X181915Y69310D01*
X181907Y69327D01*
X181898Y69349D01*
X181887Y69376D01*
X181877Y69409D01*
X181863Y69444D01*
X181849Y69488D01*
X181836Y69532D01*
X181822Y69581D01*
X181811Y69633D01*
X181800Y69687D01*
X181784Y69802D01*
X181781Y69865D01*
X181778Y69925D01*
Y69927D01*
Y69933D01*
Y69941D01*
Y69952D01*
X181781Y69968D01*
Y69985D01*
X181784Y70028D01*
X181789Y70080D01*
X181797Y70143D01*
X181806Y70209D01*
X181819Y70282D01*
X181838Y70362D01*
X181860Y70441D01*
X181887Y70522D01*
X181920Y70604D01*
X181958Y70686D01*
X182002Y70763D01*
X182054Y70839D01*
X182114Y70907D01*
X182117Y70910D01*
X182131Y70924D01*
X182150Y70940D01*
X182174Y70962D01*
X182210Y70989D01*
X182248Y71019D01*
X182294Y71052D01*
X182349Y71085D01*
X182409Y71118D01*
X182475Y71150D01*
X182545Y71180D01*
X182625Y71208D01*
X182706Y71230D01*
X182794Y71246D01*
X182887Y71260D01*
X182985Y71262D01*
X183018D01*
X183042Y71260D01*
D02*
G37*
G36*
X178347D02*
X178379Y71257D01*
X178415Y71254D01*
X178453Y71249D01*
X178497Y71241D01*
X178546Y71232D01*
X178595Y71221D01*
X178647Y71208D01*
X178702Y71191D01*
X178756Y71172D01*
X178811Y71150D01*
X178863Y71126D01*
X178917Y71096D01*
X178920Y71093D01*
X178931Y71088D01*
X178945Y71079D01*
X178964Y71066D01*
X178988Y71049D01*
X179013Y71028D01*
X179043Y71003D01*
X179076Y70976D01*
X179111Y70943D01*
X179147Y70907D01*
X179182Y70869D01*
X179218Y70828D01*
X179250Y70785D01*
X179286Y70736D01*
X179316Y70684D01*
X179346Y70629D01*
X179349Y70626D01*
X179351Y70615D01*
X179359Y70599D01*
X179368Y70577D01*
X179381Y70550D01*
X179392Y70514D01*
X179406Y70476D01*
X179420Y70432D01*
X179433Y70386D01*
X179447Y70334D01*
X179461Y70277D01*
X179472Y70219D01*
X179480Y70157D01*
X179488Y70091D01*
X179491Y70026D01*
X179493Y69955D01*
Y69949D01*
Y69938D01*
Y69916D01*
X179491Y69889D01*
X179488Y69856D01*
X179485Y69818D01*
X179480Y69775D01*
X179474Y69725D01*
X179466Y69674D01*
X179455Y69619D01*
X179444Y69562D01*
X179428Y69504D01*
X179409Y69444D01*
X179390Y69387D01*
X179365Y69327D01*
X179338Y69269D01*
X179335Y69267D01*
X179330Y69256D01*
X179321Y69239D01*
X179310Y69220D01*
X179294Y69196D01*
X179275Y69166D01*
X179250Y69133D01*
X179226Y69098D01*
X179196Y69062D01*
X179163Y69024D01*
X179125Y68985D01*
X179086Y68947D01*
X179046Y68912D01*
X178999Y68876D01*
X178950Y68841D01*
X178898Y68811D01*
X178895Y68808D01*
X178884Y68805D01*
X178871Y68797D01*
X178849Y68786D01*
X178822Y68775D01*
X178792Y68762D01*
X178756Y68748D01*
X178715Y68734D01*
X178672Y68721D01*
X178625Y68707D01*
X178573Y68693D01*
X178521Y68682D01*
X178407Y68663D01*
X178347Y68661D01*
X178287Y68658D01*
X178251D01*
X178227Y68661D01*
X178197Y68663D01*
X178158Y68666D01*
X178120Y68672D01*
X178074Y68680D01*
X178027Y68688D01*
X177975Y68699D01*
X177924Y68713D01*
X177869Y68729D01*
X177814Y68748D01*
X177760Y68773D01*
X177705Y68797D01*
X177650Y68827D01*
X177648Y68830D01*
X177640Y68835D01*
X177623Y68846D01*
X177604Y68860D01*
X177582Y68876D01*
X177555Y68898D01*
X177525Y68923D01*
X177492Y68950D01*
X177457Y68983D01*
X177424Y69018D01*
X177389Y69056D01*
X177353Y69098D01*
X177318Y69144D01*
X177285Y69190D01*
X177255Y69242D01*
X177225Y69297D01*
X177222Y69300D01*
X177219Y69310D01*
X177211Y69327D01*
X177203Y69349D01*
X177192Y69376D01*
X177181Y69409D01*
X177167Y69444D01*
X177154Y69488D01*
X177140Y69532D01*
X177126Y69581D01*
X177115Y69633D01*
X177104Y69687D01*
X177088Y69802D01*
X177085Y69865D01*
X177083Y69925D01*
Y69927D01*
Y69933D01*
Y69941D01*
Y69952D01*
X177085Y69968D01*
Y69985D01*
X177088Y70028D01*
X177094Y70080D01*
X177102Y70143D01*
X177110Y70209D01*
X177124Y70282D01*
X177143Y70362D01*
X177165Y70441D01*
X177192Y70522D01*
X177225Y70604D01*
X177263Y70686D01*
X177307Y70763D01*
X177358Y70839D01*
X177418Y70907D01*
X177421Y70910D01*
X177435Y70924D01*
X177454Y70940D01*
X177479Y70962D01*
X177514Y70989D01*
X177552Y71019D01*
X177599Y71052D01*
X177653Y71085D01*
X177713Y71118D01*
X177779Y71150D01*
X177850Y71180D01*
X177929Y71208D01*
X178011Y71230D01*
X178098Y71246D01*
X178191Y71260D01*
X178289Y71262D01*
X178322D01*
X178347Y71260D01*
D02*
G37*
G36*
X181647Y68000D02*
X179597D01*
Y68224D01*
X181647D01*
Y68000D01*
D02*
G37*
G36*
X174410D02*
X172360D01*
Y68224D01*
X174410D01*
Y68000D01*
D02*
G37*
G36*
X54982Y28106D02*
Y28100D01*
Y28089D01*
Y28070D01*
Y28043D01*
X54979Y28010D01*
X54976Y27975D01*
X54974Y27934D01*
X54971Y27887D01*
X54960Y27792D01*
X54947Y27691D01*
X54925Y27592D01*
X54911Y27546D01*
X54895Y27502D01*
Y27499D01*
X54892Y27491D01*
X54886Y27480D01*
X54878Y27464D01*
X54867Y27445D01*
X54856Y27423D01*
X54824Y27374D01*
X54804Y27344D01*
X54783Y27317D01*
X54755Y27284D01*
X54728Y27254D01*
X54695Y27224D01*
X54663Y27194D01*
X54624Y27167D01*
X54583Y27139D01*
X54581Y27136D01*
X54572Y27134D01*
X54562Y27125D01*
X54542Y27117D01*
X54521Y27106D01*
X54493Y27095D01*
X54463Y27082D01*
X54425Y27071D01*
X54387Y27057D01*
X54343Y27044D01*
X54294Y27033D01*
X54242Y27022D01*
X54185Y27014D01*
X54125Y27005D01*
X54062Y27003D01*
X53996Y27000D01*
X53961D01*
X53936Y27003D01*
X53906D01*
X53874Y27005D01*
X53833Y27011D01*
X53792Y27016D01*
X53699Y27030D01*
X53601Y27052D01*
X53505Y27082D01*
X53459Y27098D01*
X53415Y27120D01*
X53412Y27123D01*
X53404Y27125D01*
X53393Y27134D01*
X53379Y27142D01*
X53360Y27156D01*
X53338Y27172D01*
X53317Y27188D01*
X53292Y27210D01*
X53237Y27259D01*
X53186Y27319D01*
X53136Y27390D01*
X53115Y27431D01*
X53096Y27472D01*
Y27475D01*
X53093Y27483D01*
X53087Y27497D01*
X53082Y27516D01*
X53074Y27538D01*
X53066Y27568D01*
X53057Y27601D01*
X53049Y27639D01*
X53038Y27683D01*
X53030Y27729D01*
X53022Y27781D01*
X53016Y27838D01*
X53008Y27898D01*
X53005Y27964D01*
X53000Y28032D01*
Y28106D01*
Y29561D01*
X53333D01*
Y28106D01*
Y28103D01*
Y28092D01*
Y28076D01*
Y28051D01*
X53336Y28024D01*
Y27994D01*
X53338Y27958D01*
X53341Y27923D01*
X53347Y27843D01*
X53358Y27764D01*
X53374Y27688D01*
X53382Y27652D01*
X53393Y27622D01*
Y27620D01*
X53396Y27617D01*
X53399Y27609D01*
X53404Y27598D01*
X53420Y27568D01*
X53442Y27535D01*
X53470Y27494D01*
X53505Y27456D01*
X53549Y27418D01*
X53601Y27382D01*
X53603D01*
X53609Y27379D01*
X53617Y27374D01*
X53628Y27369D01*
X53641Y27363D01*
X53661Y27358D01*
X53680Y27349D01*
X53702Y27341D01*
X53756Y27328D01*
X53819Y27314D01*
X53890Y27303D01*
X53966Y27300D01*
X54002D01*
X54026Y27303D01*
X54057Y27306D01*
X54092Y27308D01*
X54130Y27314D01*
X54171Y27322D01*
X54256Y27341D01*
X54299Y27355D01*
X54343Y27371D01*
X54384Y27390D01*
X54422Y27412D01*
X54458Y27437D01*
X54491Y27467D01*
X54493Y27470D01*
X54499Y27475D01*
X54504Y27486D01*
X54515Y27499D01*
X54526Y27519D01*
X54540Y27543D01*
X54556Y27573D01*
X54570Y27609D01*
X54583Y27650D01*
X54600Y27696D01*
X54613Y27748D01*
X54624Y27805D01*
X54635Y27871D01*
X54643Y27942D01*
X54646Y28021D01*
X54649Y28106D01*
Y29561D01*
X54982D01*
Y28106D01*
D02*
G37*
G36*
X63344Y29566D02*
X63374Y29563D01*
X63410Y29558D01*
X63450Y29553D01*
X63491Y29544D01*
X63538Y29533D01*
X63584Y29520D01*
X63633Y29503D01*
X63680Y29484D01*
X63729Y29460D01*
X63775Y29432D01*
X63819Y29402D01*
X63860Y29367D01*
X63863Y29364D01*
X63868Y29359D01*
X63879Y29345D01*
X63893Y29331D01*
X63909Y29312D01*
X63928Y29288D01*
X63947Y29260D01*
X63966Y29228D01*
X63986Y29195D01*
X64005Y29157D01*
X64024Y29116D01*
X64040Y29072D01*
X64054Y29023D01*
X64065Y28974D01*
X64070Y28922D01*
X64073Y28867D01*
Y28865D01*
Y28862D01*
Y28854D01*
Y28843D01*
X64070Y28813D01*
X64065Y28774D01*
X64056Y28728D01*
X64046Y28679D01*
X64032Y28624D01*
X64010Y28570D01*
Y28567D01*
X64007Y28564D01*
X64005Y28556D01*
X63999Y28545D01*
X63983Y28515D01*
X63961Y28477D01*
X63931Y28431D01*
X63895Y28379D01*
X63854Y28324D01*
X63803Y28264D01*
X63800Y28261D01*
X63797Y28256D01*
X63786Y28248D01*
X63775Y28234D01*
X63759Y28218D01*
X63740Y28198D01*
X63718Y28174D01*
X63691Y28149D01*
X63658Y28119D01*
X63622Y28087D01*
X63584Y28048D01*
X63541Y28010D01*
X63494Y27966D01*
X63442Y27923D01*
X63385Y27874D01*
X63325Y27822D01*
X63322Y27819D01*
X63314Y27811D01*
X63297Y27800D01*
X63281Y27784D01*
X63257Y27764D01*
X63232Y27742D01*
X63175Y27693D01*
X63115Y27641D01*
X63057Y27587D01*
X63030Y27562D01*
X63005Y27540D01*
X62984Y27519D01*
X62967Y27502D01*
X62964Y27499D01*
X62954Y27489D01*
X62940Y27472D01*
X62921Y27450D01*
X62899Y27426D01*
X62877Y27398D01*
X62833Y27338D01*
X64076D01*
Y27041D01*
X62407D01*
Y27046D01*
Y27060D01*
Y27082D01*
X62410Y27109D01*
X62413Y27142D01*
X62421Y27177D01*
X62429Y27216D01*
X62443Y27254D01*
Y27257D01*
X62446Y27262D01*
X62449Y27270D01*
X62454Y27284D01*
X62462Y27297D01*
X62470Y27317D01*
X62492Y27360D01*
X62520Y27412D01*
X62555Y27470D01*
X62596Y27530D01*
X62645Y27590D01*
X62648Y27592D01*
X62651Y27598D01*
X62659Y27606D01*
X62672Y27620D01*
X62686Y27633D01*
X62705Y27652D01*
X62724Y27674D01*
X62749Y27699D01*
X62776Y27726D01*
X62806Y27753D01*
X62839Y27786D01*
X62877Y27819D01*
X62915Y27854D01*
X62959Y27890D01*
X63003Y27928D01*
X63052Y27969D01*
X63057Y27972D01*
X63071Y27986D01*
X63090Y28002D01*
X63117Y28026D01*
X63150Y28054D01*
X63188Y28087D01*
X63232Y28122D01*
X63276Y28163D01*
X63368Y28248D01*
X63459Y28338D01*
X63502Y28381D01*
X63543Y28425D01*
X63579Y28466D01*
X63609Y28504D01*
X63612Y28507D01*
X63614Y28512D01*
X63622Y28523D01*
X63631Y28537D01*
X63644Y28556D01*
X63655Y28575D01*
X63682Y28624D01*
X63710Y28682D01*
X63734Y28744D01*
X63751Y28810D01*
X63753Y28843D01*
X63756Y28875D01*
Y28878D01*
Y28884D01*
Y28895D01*
X63753Y28905D01*
Y28922D01*
X63748Y28941D01*
X63740Y28982D01*
X63723Y29031D01*
X63699Y29083D01*
X63685Y29110D01*
X63666Y29135D01*
X63647Y29159D01*
X63622Y29184D01*
X63620Y29187D01*
X63617Y29189D01*
X63609Y29195D01*
X63598Y29203D01*
X63584Y29214D01*
X63568Y29225D01*
X63530Y29250D01*
X63478Y29271D01*
X63420Y29293D01*
X63352Y29307D01*
X63314Y29312D01*
X63254D01*
X63238Y29309D01*
X63218D01*
X63196Y29304D01*
X63147Y29296D01*
X63090Y29280D01*
X63030Y29255D01*
X63000Y29239D01*
X62970Y29222D01*
X62943Y29200D01*
X62915Y29176D01*
X62913Y29173D01*
X62910Y29170D01*
X62904Y29162D01*
X62893Y29151D01*
X62885Y29138D01*
X62874Y29121D01*
X62861Y29102D01*
X62850Y29080D01*
X62836Y29056D01*
X62825Y29028D01*
X62803Y28963D01*
X62787Y28892D01*
X62784Y28851D01*
X62782Y28807D01*
X62465Y28840D01*
Y28845D01*
X62468Y28856D01*
X62470Y28873D01*
X62473Y28897D01*
X62479Y28927D01*
X62487Y28963D01*
X62495Y29001D01*
X62509Y29042D01*
X62522Y29083D01*
X62539Y29129D01*
X62560Y29173D01*
X62582Y29217D01*
X62610Y29263D01*
X62640Y29304D01*
X62672Y29345D01*
X62711Y29381D01*
X62713Y29383D01*
X62722Y29389D01*
X62732Y29397D01*
X62749Y29411D01*
X62771Y29424D01*
X62798Y29441D01*
X62828Y29457D01*
X62863Y29476D01*
X62902Y29493D01*
X62945Y29509D01*
X62992Y29525D01*
X63044Y29539D01*
X63098Y29553D01*
X63156Y29561D01*
X63218Y29566D01*
X63284Y29569D01*
X63319D01*
X63344Y29566D01*
D02*
G37*
G36*
X62230Y29263D02*
X61400D01*
Y27041D01*
X61067D01*
Y29263D01*
X60237D01*
Y29561D01*
X62230D01*
Y29263D01*
D02*
G37*
G36*
X59091Y29558D02*
X59121D01*
X59156Y29555D01*
X59197Y29553D01*
X59279Y29544D01*
X59364Y29531D01*
X59446Y29514D01*
X59481Y29503D01*
X59517Y29493D01*
X59519D01*
X59525Y29490D01*
X59533Y29484D01*
X59547Y29479D01*
X59579Y29462D01*
X59618Y29438D01*
X59664Y29405D01*
X59710Y29361D01*
X59757Y29312D01*
X59798Y29252D01*
Y29250D01*
X59803Y29244D01*
X59809Y29236D01*
X59814Y29222D01*
X59822Y29206D01*
X59830Y29187D01*
X59841Y29165D01*
X59852Y29140D01*
X59871Y29083D01*
X59888Y29020D01*
X59899Y28949D01*
X59904Y28873D01*
Y28870D01*
Y28862D01*
Y28845D01*
X59901Y28829D01*
X59899Y28804D01*
X59896Y28777D01*
X59891Y28747D01*
X59882Y28714D01*
X59860Y28643D01*
X59847Y28605D01*
X59830Y28567D01*
X59811Y28529D01*
X59787Y28490D01*
X59759Y28455D01*
X59729Y28420D01*
X59727Y28417D01*
X59721Y28411D01*
X59710Y28403D01*
X59697Y28389D01*
X59677Y28376D01*
X59656Y28359D01*
X59628Y28340D01*
X59596Y28321D01*
X59560Y28302D01*
X59522Y28283D01*
X59478Y28264D01*
X59429Y28245D01*
X59377Y28229D01*
X59320Y28212D01*
X59257Y28198D01*
X59192Y28188D01*
X59194D01*
X59197Y28185D01*
X59213Y28177D01*
X59238Y28163D01*
X59268Y28147D01*
X59301Y28127D01*
X59334Y28108D01*
X59366Y28084D01*
X59394Y28062D01*
X59396Y28059D01*
X59399Y28056D01*
X59407Y28048D01*
X59418Y28037D01*
X59432Y28024D01*
X59448Y28007D01*
X59484Y27969D01*
X59525Y27920D01*
X59571Y27863D01*
X59620Y27797D01*
X59669Y27726D01*
X60106Y27041D01*
X59689D01*
X59355Y27565D01*
X59353Y27568D01*
X59350Y27576D01*
X59342Y27587D01*
X59331Y27603D01*
X59320Y27622D01*
X59303Y27644D01*
X59271Y27693D01*
X59233Y27751D01*
X59194Y27808D01*
X59153Y27863D01*
X59115Y27912D01*
Y27915D01*
X59110Y27917D01*
X59099Y27931D01*
X59082Y27953D01*
X59058Y27977D01*
X59033Y28005D01*
X59003Y28032D01*
X58973Y28059D01*
X58946Y28078D01*
X58943Y28081D01*
X58932Y28087D01*
X58919Y28095D01*
X58899Y28106D01*
X58875Y28117D01*
X58850Y28127D01*
X58823Y28138D01*
X58793Y28147D01*
X58790D01*
X58782Y28149D01*
X58768Y28152D01*
X58749Y28155D01*
X58722D01*
X58689Y28157D01*
X58651Y28160D01*
X58223D01*
Y27041D01*
X57889D01*
Y29561D01*
X59061D01*
X59091Y29558D01*
D02*
G37*
G36*
X57619Y27041D02*
X57240D01*
X56947Y27803D01*
X55888D01*
X55615Y27041D01*
X55263D01*
X56227Y29561D01*
X56587D01*
X57619Y27041D01*
D02*
G37*
G36*
X155289Y63276D02*
X153238D01*
Y63500D01*
X155289D01*
Y63276D01*
D02*
G37*
G36*
X157500Y60281D02*
X156329D01*
X156299Y60284D01*
X156269D01*
X156233Y60287D01*
X156192Y60290D01*
X156110Y60298D01*
X156026Y60311D01*
X155944Y60328D01*
X155908Y60339D01*
X155873Y60350D01*
X155870D01*
X155865Y60352D01*
X155857Y60358D01*
X155843Y60363D01*
X155810Y60380D01*
X155772Y60404D01*
X155726Y60437D01*
X155679Y60481D01*
X155633Y60530D01*
X155592Y60590D01*
Y60593D01*
X155586Y60598D01*
X155581Y60606D01*
X155575Y60620D01*
X155567Y60636D01*
X155559Y60655D01*
X155548Y60677D01*
X155537Y60702D01*
X155518Y60759D01*
X155502Y60822D01*
X155491Y60893D01*
X155485Y60969D01*
Y60972D01*
Y60980D01*
Y60997D01*
X155488Y61013D01*
X155491Y61038D01*
X155493Y61065D01*
X155499Y61095D01*
X155507Y61128D01*
X155529Y61199D01*
X155543Y61237D01*
X155559Y61275D01*
X155578Y61313D01*
X155603Y61352D01*
X155630Y61387D01*
X155660Y61422D01*
X155663Y61425D01*
X155668Y61431D01*
X155679Y61439D01*
X155693Y61453D01*
X155712Y61466D01*
X155734Y61483D01*
X155761Y61502D01*
X155794Y61521D01*
X155829Y61540D01*
X155868Y61559D01*
X155911Y61578D01*
X155960Y61597D01*
X156012Y61614D01*
X156070Y61630D01*
X156132Y61644D01*
X156198Y61655D01*
X156195D01*
X156192Y61657D01*
X156176Y61665D01*
X156151Y61679D01*
X156121Y61695D01*
X156089Y61715D01*
X156056Y61734D01*
X156023Y61758D01*
X155996Y61780D01*
X155993Y61783D01*
X155990Y61786D01*
X155982Y61794D01*
X155971Y61805D01*
X155958Y61818D01*
X155941Y61835D01*
X155906Y61873D01*
X155865Y61922D01*
X155818Y61979D01*
X155769Y62045D01*
X155720Y62116D01*
X155283Y62801D01*
X155701D01*
X156034Y62277D01*
X156037Y62274D01*
X156040Y62266D01*
X156048Y62255D01*
X156059Y62239D01*
X156070Y62220D01*
X156086Y62198D01*
X156119Y62149D01*
X156157Y62091D01*
X156195Y62034D01*
X156236Y61979D01*
X156274Y61930D01*
Y61927D01*
X156280Y61925D01*
X156291Y61911D01*
X156307Y61889D01*
X156332Y61865D01*
X156356Y61838D01*
X156386Y61810D01*
X156416Y61783D01*
X156444Y61764D01*
X156446Y61761D01*
X156457Y61756D01*
X156471Y61747D01*
X156490Y61737D01*
X156515Y61725D01*
X156539Y61715D01*
X156566Y61704D01*
X156596Y61695D01*
X156599D01*
X156607Y61693D01*
X156621Y61690D01*
X156640Y61687D01*
X156667D01*
X156700Y61685D01*
X156738Y61682D01*
X157167D01*
Y62801D01*
X157500D01*
Y60281D01*
D02*
G37*
G36*
X149875D02*
X148704D01*
X148674Y60284D01*
X148644D01*
X148608Y60287D01*
X148567Y60290D01*
X148486Y60298D01*
X148401Y60311D01*
X148319Y60328D01*
X148284Y60339D01*
X148248Y60350D01*
X148245D01*
X148240Y60352D01*
X148232Y60358D01*
X148218Y60363D01*
X148185Y60380D01*
X148147Y60404D01*
X148101Y60437D01*
X148054Y60481D01*
X148008Y60530D01*
X147967Y60590D01*
Y60593D01*
X147961Y60598D01*
X147956Y60606D01*
X147950Y60620D01*
X147942Y60636D01*
X147934Y60655D01*
X147923Y60677D01*
X147912Y60702D01*
X147893Y60759D01*
X147877Y60822D01*
X147866Y60893D01*
X147860Y60969D01*
Y60972D01*
Y60980D01*
Y60997D01*
X147863Y61013D01*
X147866Y61038D01*
X147869Y61065D01*
X147874Y61095D01*
X147882Y61128D01*
X147904Y61199D01*
X147918Y61237D01*
X147934Y61275D01*
X147953Y61313D01*
X147978Y61352D01*
X148005Y61387D01*
X148035Y61422D01*
X148038Y61425D01*
X148043Y61431D01*
X148054Y61439D01*
X148068Y61453D01*
X148087Y61466D01*
X148109Y61483D01*
X148136Y61502D01*
X148169Y61521D01*
X148204Y61540D01*
X148243Y61559D01*
X148286Y61578D01*
X148335Y61597D01*
X148387Y61614D01*
X148445Y61630D01*
X148507Y61644D01*
X148573Y61655D01*
X148570D01*
X148567Y61657D01*
X148551Y61665D01*
X148527Y61679D01*
X148496Y61695D01*
X148464Y61715D01*
X148431Y61734D01*
X148398Y61758D01*
X148371Y61780D01*
X148368Y61783D01*
X148365Y61786D01*
X148357Y61794D01*
X148346Y61805D01*
X148333Y61818D01*
X148316Y61835D01*
X148281Y61873D01*
X148240Y61922D01*
X148193Y61979D01*
X148144Y62045D01*
X148095Y62116D01*
X147658Y62801D01*
X148076D01*
X148409Y62277D01*
X148412Y62274D01*
X148415Y62266D01*
X148423Y62255D01*
X148434Y62239D01*
X148445Y62220D01*
X148461Y62198D01*
X148494Y62149D01*
X148532Y62091D01*
X148570Y62034D01*
X148611Y61979D01*
X148649Y61930D01*
Y61927D01*
X148655Y61925D01*
X148666Y61911D01*
X148682Y61889D01*
X148707Y61865D01*
X148731Y61838D01*
X148761Y61810D01*
X148791Y61783D01*
X148819Y61764D01*
X148821Y61761D01*
X148832Y61756D01*
X148846Y61747D01*
X148865Y61737D01*
X148890Y61725D01*
X148914Y61715D01*
X148942Y61704D01*
X148971Y61695D01*
X148974D01*
X148982Y61693D01*
X148996Y61690D01*
X149015Y61687D01*
X149042D01*
X149075Y61685D01*
X149113Y61682D01*
X149542D01*
Y62801D01*
X149875D01*
Y60281D01*
D02*
G37*
G36*
X143973Y62839D02*
X144006Y62837D01*
X144047Y62834D01*
X144090Y62828D01*
X144139Y62820D01*
X144191Y62812D01*
X144246Y62801D01*
X144300Y62787D01*
X144355Y62774D01*
X144412Y62755D01*
X144467Y62733D01*
X144519Y62708D01*
X144568Y62678D01*
X144571Y62676D01*
X144579Y62670D01*
X144593Y62662D01*
X144609Y62648D01*
X144631Y62629D01*
X144655Y62610D01*
X144683Y62586D01*
X144713Y62555D01*
X144743Y62523D01*
X144775Y62487D01*
X144806Y62449D01*
X144838Y62405D01*
X144871Y62359D01*
X144901Y62310D01*
X144928Y62255D01*
X144956Y62198D01*
X144958Y62195D01*
X144961Y62184D01*
X144967Y62165D01*
X144975Y62143D01*
X144986Y62113D01*
X144997Y62080D01*
X145008Y62040D01*
X145021Y61996D01*
X145032Y61947D01*
X145046Y61895D01*
X145057Y61840D01*
X145065Y61780D01*
X145081Y61655D01*
X145084Y61589D01*
X145087Y61523D01*
Y61518D01*
Y61507D01*
Y61485D01*
X145084Y61458D01*
X145081Y61422D01*
X145079Y61382D01*
X145073Y61338D01*
X145068Y61289D01*
X145059Y61237D01*
X145051Y61182D01*
X145024Y61065D01*
X145005Y61007D01*
X144986Y60950D01*
X144964Y60890D01*
X144937Y60836D01*
X144934Y60833D01*
X144928Y60822D01*
X144920Y60808D01*
X144909Y60786D01*
X144893Y60762D01*
X144874Y60734D01*
X144852Y60704D01*
X144827Y60669D01*
X144797Y60636D01*
X144767Y60598D01*
X144732Y60562D01*
X144694Y60524D01*
X144653Y60489D01*
X144609Y60453D01*
X144560Y60421D01*
X144511Y60391D01*
X144508Y60388D01*
X144497Y60385D01*
X144483Y60377D01*
X144462Y60366D01*
X144437Y60355D01*
X144404Y60341D01*
X144369Y60328D01*
X144331Y60314D01*
X144287Y60300D01*
X144238Y60287D01*
X144188Y60273D01*
X144134Y60262D01*
X144022Y60243D01*
X143962Y60240D01*
X143899Y60238D01*
X143864D01*
X143836Y60240D01*
X143804Y60243D01*
X143765Y60249D01*
X143724Y60254D01*
X143678Y60262D01*
X143629Y60273D01*
X143577Y60284D01*
X143525Y60300D01*
X143471Y60320D01*
X143416Y60341D01*
X143364Y60369D01*
X143312Y60396D01*
X143263Y60431D01*
X143260Y60434D01*
X143252Y60440D01*
X143238Y60451D01*
X143222Y60467D01*
X143200Y60486D01*
X143176Y60511D01*
X143151Y60538D01*
X143121Y60571D01*
X143091Y60606D01*
X143061Y60647D01*
X143031Y60691D01*
X143004Y60740D01*
X142974Y60792D01*
X142949Y60849D01*
X142924Y60909D01*
X142903Y60972D01*
X143230Y61049D01*
Y61046D01*
X143236Y61038D01*
X143238Y61021D01*
X143247Y61002D01*
X143255Y60980D01*
X143269Y60956D01*
X143296Y60896D01*
X143331Y60830D01*
X143378Y60762D01*
X143427Y60699D01*
X143457Y60672D01*
X143487Y60647D01*
X143490Y60644D01*
X143495Y60642D01*
X143503Y60636D01*
X143517Y60628D01*
X143533Y60617D01*
X143552Y60606D01*
X143574Y60595D01*
X143602Y60584D01*
X143632Y60574D01*
X143662Y60562D01*
X143733Y60541D01*
X143815Y60527D01*
X143858Y60522D01*
X143932D01*
X143954Y60524D01*
X143978Y60527D01*
X144008Y60530D01*
X144041Y60532D01*
X144074Y60538D01*
X144153Y60557D01*
X144235Y60582D01*
X144276Y60598D01*
X144317Y60617D01*
X144355Y60639D01*
X144393Y60664D01*
X144396Y60666D01*
X144402Y60669D01*
X144412Y60677D01*
X144426Y60688D01*
X144440Y60702D01*
X144459Y60721D01*
X144478Y60740D01*
X144500Y60762D01*
X144522Y60789D01*
X144546Y60816D01*
X144590Y60879D01*
X144631Y60953D01*
X144666Y61038D01*
Y61040D01*
X144669Y61049D01*
X144675Y61062D01*
X144677Y61079D01*
X144683Y61100D01*
X144691Y61125D01*
X144696Y61155D01*
X144704Y61185D01*
X144713Y61221D01*
X144718Y61259D01*
X144732Y61341D01*
X144740Y61428D01*
X144743Y61521D01*
Y61523D01*
Y61534D01*
Y61551D01*
X144740Y61575D01*
Y61603D01*
X144737Y61635D01*
X144735Y61671D01*
X144732Y61712D01*
X144726Y61756D01*
X144721Y61799D01*
X144704Y61895D01*
X144680Y61990D01*
X144650Y62083D01*
Y62086D01*
X144644Y62094D01*
X144639Y62105D01*
X144633Y62121D01*
X144623Y62143D01*
X144609Y62165D01*
X144579Y62217D01*
X144538Y62277D01*
X144489Y62334D01*
X144429Y62392D01*
X144396Y62416D01*
X144360Y62441D01*
X144358D01*
X144352Y62446D01*
X144341Y62452D01*
X144325Y62460D01*
X144306Y62468D01*
X144284Y62479D01*
X144260Y62487D01*
X144232Y62498D01*
X144169Y62520D01*
X144096Y62539D01*
X144017Y62553D01*
X143976Y62555D01*
X143932Y62558D01*
X143905D01*
X143886Y62555D01*
X143861Y62553D01*
X143834Y62550D01*
X143801Y62545D01*
X143768Y62539D01*
X143692Y62520D01*
X143653Y62506D01*
X143613Y62490D01*
X143572Y62471D01*
X143533Y62449D01*
X143495Y62424D01*
X143457Y62397D01*
X143454Y62394D01*
X143449Y62389D01*
X143438Y62381D01*
X143424Y62367D01*
X143411Y62351D01*
X143391Y62329D01*
X143372Y62304D01*
X143350Y62277D01*
X143329Y62244D01*
X143307Y62209D01*
X143285Y62170D01*
X143263Y62127D01*
X143244Y62080D01*
X143225Y62029D01*
X143206Y61974D01*
X143192Y61917D01*
X142859Y62001D01*
Y62007D01*
X142865Y62020D01*
X142870Y62040D01*
X142881Y62069D01*
X142892Y62102D01*
X142908Y62143D01*
X142924Y62187D01*
X142946Y62233D01*
X142971Y62285D01*
X142998Y62334D01*
X143028Y62389D01*
X143064Y62441D01*
X143102Y62490D01*
X143143Y62539D01*
X143189Y62586D01*
X143238Y62629D01*
X143241Y62632D01*
X143252Y62637D01*
X143266Y62648D01*
X143288Y62662D01*
X143312Y62678D01*
X143345Y62697D01*
X143380Y62717D01*
X143424Y62736D01*
X143471Y62755D01*
X143520Y62774D01*
X143574Y62793D01*
X143634Y62809D01*
X143697Y62823D01*
X143763Y62834D01*
X143831Y62839D01*
X143905Y62842D01*
X143943D01*
X143973Y62839D01*
D02*
G37*
G36*
X152987Y60281D02*
X151289D01*
Y60579D01*
X152654D01*
Y61360D01*
X151472D01*
Y61657D01*
X152654D01*
Y62801D01*
X152987D01*
Y60281D01*
D02*
G37*
G36*
X150801D02*
X150468D01*
Y62801D01*
X150801D01*
Y60281D01*
D02*
G37*
G36*
X147331D02*
X145507D01*
Y60579D01*
X146998D01*
Y61349D01*
X145603D01*
Y61646D01*
X146998D01*
Y62504D01*
X145450D01*
Y62801D01*
X147331D01*
Y60281D01*
D02*
G37*
G36*
X141808Y60579D02*
X142638D01*
Y60281D01*
X140645D01*
Y60579D01*
X141475D01*
Y62801D01*
X141808D01*
Y60579D01*
D02*
G37*
G36*
X140315Y60281D02*
X139982D01*
Y62504D01*
X138740D01*
Y62801D01*
X140315D01*
Y60281D01*
D02*
G37*
G36*
X137612Y60833D02*
X137617Y60838D01*
X137631Y60852D01*
X137656Y60871D01*
X137691Y60898D01*
X137732Y60931D01*
X137784Y60967D01*
X137841Y61005D01*
X137907Y61046D01*
X137909D01*
X137915Y61051D01*
X137923Y61057D01*
X137937Y61062D01*
X137953Y61073D01*
X137972Y61081D01*
X138016Y61106D01*
X138065Y61130D01*
X138120Y61158D01*
X138177Y61182D01*
X138232Y61204D01*
Y60906D01*
X138229Y60904D01*
X138221Y60901D01*
X138207Y60893D01*
X138188Y60885D01*
X138166Y60874D01*
X138139Y60857D01*
X138109Y60841D01*
X138079Y60825D01*
X138008Y60781D01*
X137931Y60729D01*
X137852Y60675D01*
X137778Y60612D01*
X137776Y60609D01*
X137770Y60603D01*
X137759Y60595D01*
X137746Y60582D01*
X137732Y60565D01*
X137713Y60549D01*
X137672Y60502D01*
X137626Y60453D01*
X137579Y60396D01*
X137538Y60336D01*
X137503Y60273D01*
X137303D01*
Y62801D01*
X137612D01*
Y60833D01*
D02*
G37*
%LPC*%
G36*
X63667Y168893D02*
X62914D01*
X62894Y168890D01*
X62872D01*
X62821Y168887D01*
X62763Y168881D01*
X62703Y168873D01*
X62646Y168862D01*
X62594Y168846D01*
X62591D01*
X62589Y168843D01*
X62572Y168838D01*
X62550Y168827D01*
X62520Y168811D01*
X62490Y168789D01*
X62458Y168764D01*
X62425Y168731D01*
X62397Y168696D01*
X62395Y168691D01*
X62387Y168677D01*
X62376Y168658D01*
X62362Y168628D01*
X62351Y168595D01*
X62340Y168557D01*
X62332Y168513D01*
X62329Y168469D01*
Y168467D01*
Y168461D01*
Y168453D01*
X62332Y168439D01*
Y168426D01*
X62335Y168406D01*
X62346Y168366D01*
X62362Y168319D01*
X62384Y168270D01*
X62417Y168224D01*
X62438Y168199D01*
X62460Y168177D01*
X62463Y168175D01*
X62466Y168172D01*
X62474Y168166D01*
X62485Y168158D01*
X62498Y168150D01*
X62518Y168139D01*
X62537Y168128D01*
X62561Y168117D01*
X62589Y168106D01*
X62619Y168098D01*
X62651Y168087D01*
X62687Y168079D01*
X62728Y168071D01*
X62771Y168065D01*
X62818Y168060D01*
X63667D01*
Y168893D01*
D02*
G37*
G36*
X59173Y170004D02*
X58595D01*
X58573Y170001D01*
X58548D01*
X58494Y169998D01*
X58431Y169993D01*
X58365Y169984D01*
X58302Y169974D01*
X58245Y169960D01*
X58242D01*
X58240Y169957D01*
X58232Y169954D01*
X58221Y169952D01*
X58196Y169941D01*
X58163Y169927D01*
X58128Y169908D01*
X58090Y169886D01*
X58051Y169859D01*
X58019Y169829D01*
X58016Y169826D01*
X58013Y169823D01*
X57999Y169807D01*
X57978Y169780D01*
X57950Y169744D01*
X57923Y169698D01*
X57893Y169643D01*
X57863Y169580D01*
X57836Y169509D01*
Y169507D01*
X57833Y169501D01*
X57830Y169490D01*
X57825Y169474D01*
X57819Y169455D01*
X57814Y169430D01*
X57808Y169403D01*
X57800Y169373D01*
X57795Y169340D01*
X57789Y169302D01*
X57784Y169264D01*
X57778Y169220D01*
X57770Y169127D01*
X57767Y169024D01*
Y169018D01*
Y169007D01*
Y168985D01*
X57770Y168958D01*
Y168925D01*
X57773Y168887D01*
X57778Y168846D01*
X57784Y168800D01*
X57800Y168701D01*
X57822Y168600D01*
X57855Y168505D01*
X57877Y168458D01*
X57898Y168418D01*
X57901Y168415D01*
X57904Y168409D01*
X57912Y168398D01*
X57923Y168382D01*
X57934Y168366D01*
X57950Y168347D01*
X57986Y168303D01*
X58032Y168254D01*
X58087Y168207D01*
X58147Y168164D01*
X58180Y168147D01*
X58215Y168131D01*
X58218D01*
X58221Y168128D01*
X58229Y168125D01*
X58240Y168123D01*
X58256Y168120D01*
X58272Y168114D01*
X58294Y168109D01*
X58319Y168104D01*
X58346Y168101D01*
X58379Y168095D01*
X58414Y168090D01*
X58453Y168087D01*
X58496Y168084D01*
X58543Y168082D01*
X58592Y168079D01*
X59173D01*
Y170004D01*
D02*
G37*
G36*
X86252Y165392D02*
X85498D01*
X85479Y165390D01*
X85457D01*
X85405Y165387D01*
X85348Y165382D01*
X85288Y165373D01*
X85231Y165362D01*
X85179Y165346D01*
X85176D01*
X85173Y165343D01*
X85157Y165338D01*
X85135Y165327D01*
X85105Y165311D01*
X85075Y165289D01*
X85042Y165264D01*
X85010Y165231D01*
X84982Y165196D01*
X84980Y165190D01*
X84971Y165177D01*
X84961Y165158D01*
X84947Y165128D01*
X84936Y165095D01*
X84925Y165057D01*
X84917Y165013D01*
X84914Y164969D01*
Y164967D01*
Y164961D01*
Y164953D01*
X84917Y164939D01*
Y164926D01*
X84920Y164907D01*
X84930Y164866D01*
X84947Y164819D01*
X84969Y164770D01*
X85001Y164724D01*
X85023Y164699D01*
X85045Y164677D01*
X85048Y164674D01*
X85051Y164672D01*
X85059Y164666D01*
X85070Y164658D01*
X85083Y164650D01*
X85102Y164639D01*
X85122Y164628D01*
X85146Y164617D01*
X85173Y164606D01*
X85203Y164598D01*
X85236Y164587D01*
X85272Y164579D01*
X85313Y164571D01*
X85356Y164565D01*
X85403Y164560D01*
X86252D01*
Y165392D01*
D02*
G37*
G36*
X91927Y165480D02*
X91248D01*
X91226Y165477D01*
X91199D01*
X91168Y165474D01*
X91133Y165469D01*
X91098Y165463D01*
X91021Y165450D01*
X90945Y165428D01*
X90909Y165414D01*
X90876Y165398D01*
X90844Y165382D01*
X90816Y165360D01*
X90814Y165357D01*
X90811Y165354D01*
X90803Y165346D01*
X90794Y165338D01*
X90773Y165311D01*
X90748Y165272D01*
X90724Y165223D01*
X90702Y165166D01*
X90685Y165098D01*
X90683Y165062D01*
X90680Y165021D01*
Y165018D01*
Y165013D01*
Y165005D01*
Y164994D01*
X90685Y164964D01*
X90691Y164928D01*
X90699Y164885D01*
X90715Y164841D01*
X90734Y164795D01*
X90762Y164751D01*
X90764Y164745D01*
X90775Y164732D01*
X90794Y164713D01*
X90816Y164691D01*
X90849Y164666D01*
X90885Y164642D01*
X90926Y164620D01*
X90972Y164603D01*
X90975D01*
X90988Y164601D01*
X91010Y164595D01*
X91043Y164590D01*
X91062D01*
X91084Y164587D01*
X91111Y164584D01*
X91138Y164582D01*
X91171D01*
X91204Y164579D01*
X91927D01*
Y165480D01*
D02*
G37*
G36*
X113336Y9421D02*
X112755D01*
Y7496D01*
X113334D01*
X113356Y7499D01*
X113380D01*
X113435Y7502D01*
X113497Y7507D01*
X113563Y7515D01*
X113626Y7526D01*
X113683Y7540D01*
X113686D01*
X113689Y7543D01*
X113697Y7546D01*
X113708Y7548D01*
X113732Y7559D01*
X113765Y7573D01*
X113801Y7592D01*
X113839Y7614D01*
X113877Y7641D01*
X113910Y7671D01*
X113912Y7674D01*
X113915Y7677D01*
X113929Y7693D01*
X113951Y7720D01*
X113978Y7756D01*
X114005Y7802D01*
X114035Y7857D01*
X114065Y7920D01*
X114093Y7991D01*
Y7993D01*
X114095Y7999D01*
X114098Y8010D01*
X114103Y8026D01*
X114109Y8045D01*
X114114Y8070D01*
X114120Y8097D01*
X114128Y8127D01*
X114134Y8160D01*
X114139Y8198D01*
X114145Y8236D01*
X114150Y8280D01*
X114158Y8373D01*
X114161Y8477D01*
Y8482D01*
Y8493D01*
Y8515D01*
X114158Y8542D01*
Y8575D01*
X114155Y8613D01*
X114150Y8654D01*
X114145Y8700D01*
X114128Y8799D01*
X114106Y8900D01*
X114074Y8995D01*
X114052Y9042D01*
X114030Y9082D01*
X114027Y9085D01*
X114024Y9091D01*
X114016Y9102D01*
X114005Y9118D01*
X113994Y9134D01*
X113978Y9154D01*
X113943Y9197D01*
X113896Y9246D01*
X113841Y9293D01*
X113781Y9336D01*
X113749Y9353D01*
X113713Y9369D01*
X113710D01*
X113708Y9372D01*
X113699Y9375D01*
X113689Y9377D01*
X113672Y9380D01*
X113656Y9386D01*
X113634Y9391D01*
X113609Y9397D01*
X113582Y9399D01*
X113549Y9405D01*
X113514Y9410D01*
X113476Y9413D01*
X113432Y9416D01*
X113385Y9418D01*
X113336Y9421D01*
D02*
G37*
G36*
X103893D02*
X103170D01*
Y8520D01*
X103850D01*
X103872Y8523D01*
X103899D01*
X103929Y8526D01*
X103964Y8531D01*
X104000Y8536D01*
X104076Y8550D01*
X104153Y8572D01*
X104188Y8586D01*
X104221Y8602D01*
X104254Y8618D01*
X104281Y8640D01*
X104284Y8643D01*
X104287Y8646D01*
X104295Y8654D01*
X104303Y8662D01*
X104325Y8689D01*
X104349Y8728D01*
X104374Y8777D01*
X104396Y8834D01*
X104412Y8902D01*
X104415Y8938D01*
X104418Y8979D01*
Y8981D01*
Y8987D01*
Y8995D01*
Y9006D01*
X104412Y9036D01*
X104407Y9072D01*
X104398Y9115D01*
X104382Y9159D01*
X104363Y9205D01*
X104336Y9249D01*
X104333Y9255D01*
X104322Y9268D01*
X104303Y9287D01*
X104281Y9309D01*
X104248Y9334D01*
X104213Y9358D01*
X104172Y9380D01*
X104125Y9397D01*
X104123D01*
X104109Y9399D01*
X104087Y9405D01*
X104054Y9410D01*
X104035D01*
X104014Y9413D01*
X103986Y9416D01*
X103959Y9418D01*
X103926D01*
X103893Y9421D01*
D02*
G37*
G36*
X132667Y21393D02*
X131913D01*
X131894Y21390D01*
X131872D01*
X131821Y21387D01*
X131763Y21382D01*
X131703Y21373D01*
X131646Y21362D01*
X131594Y21346D01*
X131591D01*
X131589Y21343D01*
X131572Y21338D01*
X131550Y21327D01*
X131520Y21311D01*
X131490Y21289D01*
X131458Y21264D01*
X131425Y21231D01*
X131397Y21196D01*
X131395Y21191D01*
X131387Y21177D01*
X131376Y21158D01*
X131362Y21128D01*
X131351Y21095D01*
X131340Y21057D01*
X131332Y21013D01*
X131329Y20969D01*
Y20967D01*
Y20961D01*
Y20953D01*
X131332Y20939D01*
Y20926D01*
X131335Y20907D01*
X131346Y20866D01*
X131362Y20819D01*
X131384Y20770D01*
X131417Y20724D01*
X131439Y20699D01*
X131460Y20677D01*
X131463Y20674D01*
X131466Y20672D01*
X131474Y20666D01*
X131485Y20658D01*
X131499Y20650D01*
X131518Y20639D01*
X131537Y20628D01*
X131561Y20617D01*
X131589Y20606D01*
X131619Y20598D01*
X131651Y20587D01*
X131687Y20579D01*
X131728Y20571D01*
X131772Y20565D01*
X131818Y20560D01*
X132667D01*
Y21393D01*
D02*
G37*
G36*
X128173Y22504D02*
X127595D01*
X127573Y22501D01*
X127548D01*
X127494Y22498D01*
X127431Y22493D01*
X127365Y22485D01*
X127303Y22474D01*
X127245Y22460D01*
X127243D01*
X127240Y22457D01*
X127232Y22454D01*
X127221Y22452D01*
X127196Y22441D01*
X127163Y22427D01*
X127128Y22408D01*
X127090Y22386D01*
X127051Y22359D01*
X127019Y22329D01*
X127016Y22326D01*
X127013Y22323D01*
X126999Y22307D01*
X126978Y22280D01*
X126950Y22244D01*
X126923Y22198D01*
X126893Y22143D01*
X126863Y22080D01*
X126836Y22009D01*
Y22007D01*
X126833Y22001D01*
X126830Y21990D01*
X126825Y21974D01*
X126819Y21955D01*
X126814Y21930D01*
X126808Y21903D01*
X126800Y21873D01*
X126795Y21840D01*
X126789Y21802D01*
X126784Y21764D01*
X126778Y21720D01*
X126770Y21627D01*
X126767Y21523D01*
Y21518D01*
Y21507D01*
Y21485D01*
X126770Y21458D01*
Y21425D01*
X126773Y21387D01*
X126778Y21346D01*
X126784Y21300D01*
X126800Y21201D01*
X126822Y21100D01*
X126855Y21005D01*
X126877Y20958D01*
X126899Y20917D01*
X126901Y20915D01*
X126904Y20909D01*
X126912Y20898D01*
X126923Y20882D01*
X126934Y20866D01*
X126950Y20846D01*
X126986Y20803D01*
X127032Y20754D01*
X127087Y20707D01*
X127147Y20664D01*
X127180Y20647D01*
X127215Y20631D01*
X127218D01*
X127221Y20628D01*
X127229Y20625D01*
X127240Y20623D01*
X127256Y20620D01*
X127272Y20614D01*
X127294Y20609D01*
X127319Y20604D01*
X127346Y20601D01*
X127379Y20595D01*
X127415Y20590D01*
X127453Y20587D01*
X127496Y20584D01*
X127543Y20582D01*
X127592Y20579D01*
X128173D01*
Y22504D01*
D02*
G37*
G36*
X123234Y37510D02*
X122374D01*
X122639Y36811D01*
Y36809D01*
X122645Y36798D01*
X122650Y36781D01*
X122658Y36757D01*
X122669Y36732D01*
X122680Y36700D01*
X122694Y36664D01*
X122707Y36626D01*
X122735Y36541D01*
X122765Y36454D01*
X122795Y36366D01*
X122819Y36285D01*
Y36287D01*
X122822Y36295D01*
X122825Y36309D01*
X122828Y36325D01*
X122833Y36350D01*
X122838Y36375D01*
X122847Y36405D01*
X122855Y36437D01*
X122863Y36473D01*
X122874Y36511D01*
X122899Y36593D01*
X122926Y36680D01*
X122956Y36770D01*
X123234Y37510D01*
D02*
G37*
G36*
X127848Y38245D02*
X127269D01*
X127248Y38242D01*
X127223D01*
X127168Y38239D01*
X127105Y38234D01*
X127040Y38225D01*
X126977Y38215D01*
X126920Y38201D01*
X126917D01*
X126914Y38198D01*
X126906Y38195D01*
X126895Y38193D01*
X126871Y38182D01*
X126838Y38168D01*
X126803Y38149D01*
X126764Y38127D01*
X126726Y38100D01*
X126693Y38070D01*
X126690Y38067D01*
X126688Y38065D01*
X126674Y38048D01*
X126652Y38021D01*
X126625Y37985D01*
X126598Y37939D01*
X126568Y37884D01*
X126538Y37821D01*
X126510Y37751D01*
Y37748D01*
X126508Y37742D01*
X126505Y37731D01*
X126499Y37715D01*
X126494Y37696D01*
X126488Y37671D01*
X126483Y37644D01*
X126475Y37614D01*
X126469Y37581D01*
X126464Y37543D01*
X126459Y37505D01*
X126453Y37461D01*
X126445Y37368D01*
X126442Y37265D01*
Y37259D01*
Y37248D01*
Y37226D01*
X126445Y37199D01*
Y37166D01*
X126448Y37128D01*
X126453Y37087D01*
X126459Y37041D01*
X126475Y36942D01*
X126497Y36841D01*
X126530Y36746D01*
X126551Y36700D01*
X126573Y36658D01*
X126576Y36656D01*
X126579Y36650D01*
X126587Y36639D01*
X126598Y36623D01*
X126609Y36607D01*
X126625Y36588D01*
X126661Y36544D01*
X126707Y36495D01*
X126761Y36448D01*
X126822Y36405D01*
X126854Y36388D01*
X126890Y36372D01*
X126893D01*
X126895Y36369D01*
X126903Y36366D01*
X126914Y36364D01*
X126931Y36361D01*
X126947Y36356D01*
X126969Y36350D01*
X126994Y36345D01*
X127021Y36342D01*
X127054Y36336D01*
X127089Y36331D01*
X127127Y36328D01*
X127171Y36325D01*
X127217Y36323D01*
X127267Y36320D01*
X127848D01*
Y38245D01*
D02*
G37*
G36*
X143556Y98766D02*
X142833D01*
Y97865D01*
X143513D01*
X143535Y97868D01*
X143562D01*
X143592Y97870D01*
X143627Y97876D01*
X143663Y97881D01*
X143739Y97895D01*
X143816Y97917D01*
X143851Y97931D01*
X143884Y97947D01*
X143917Y97963D01*
X143944Y97985D01*
X143947Y97988D01*
X143950Y97991D01*
X143958Y97999D01*
X143966Y98007D01*
X143988Y98034D01*
X144012Y98072D01*
X144037Y98122D01*
X144059Y98179D01*
X144075Y98247D01*
X144078Y98283D01*
X144081Y98324D01*
Y98326D01*
Y98332D01*
Y98340D01*
Y98351D01*
X144075Y98381D01*
X144070Y98416D01*
X144062Y98460D01*
X144045Y98504D01*
X144026Y98550D01*
X143999Y98594D01*
X143996Y98599D01*
X143985Y98613D01*
X143966Y98632D01*
X143944Y98654D01*
X143911Y98678D01*
X143876Y98703D01*
X143835Y98725D01*
X143789Y98741D01*
X143786D01*
X143772Y98744D01*
X143750Y98750D01*
X143718Y98755D01*
X143698D01*
X143677Y98758D01*
X143649Y98760D01*
X143622Y98763D01*
X143589D01*
X143556Y98766D01*
D02*
G37*
G36*
X33586Y55510D02*
X32726D01*
X32991Y54811D01*
Y54809D01*
X32996Y54798D01*
X33002Y54781D01*
X33010Y54757D01*
X33021Y54732D01*
X33032Y54699D01*
X33045Y54664D01*
X33059Y54626D01*
X33086Y54541D01*
X33116Y54454D01*
X33146Y54366D01*
X33171Y54285D01*
Y54287D01*
X33174Y54295D01*
X33176Y54309D01*
X33179Y54325D01*
X33184Y54350D01*
X33190Y54375D01*
X33198Y54405D01*
X33206Y54437D01*
X33215Y54473D01*
X33226Y54511D01*
X33250Y54593D01*
X33277Y54680D01*
X33307Y54770D01*
X33586Y55510D01*
D02*
G37*
G36*
X40348Y56245D02*
X39769D01*
X39748Y56242D01*
X39723D01*
X39668Y56239D01*
X39606Y56234D01*
X39540Y56226D01*
X39477Y56215D01*
X39420Y56201D01*
X39417D01*
X39414Y56198D01*
X39406Y56195D01*
X39395Y56193D01*
X39371Y56182D01*
X39338Y56168D01*
X39303Y56149D01*
X39264Y56127D01*
X39226Y56100D01*
X39193Y56070D01*
X39191Y56067D01*
X39188Y56064D01*
X39174Y56048D01*
X39152Y56021D01*
X39125Y55985D01*
X39098Y55939D01*
X39068Y55884D01*
X39038Y55822D01*
X39010Y55751D01*
Y55748D01*
X39008Y55742D01*
X39005Y55731D01*
X38999Y55715D01*
X38994Y55696D01*
X38989Y55671D01*
X38983Y55644D01*
X38975Y55614D01*
X38969Y55581D01*
X38964Y55543D01*
X38958Y55505D01*
X38953Y55461D01*
X38945Y55368D01*
X38942Y55265D01*
Y55259D01*
Y55248D01*
Y55226D01*
X38945Y55199D01*
Y55166D01*
X38948Y55128D01*
X38953Y55087D01*
X38958Y55041D01*
X38975Y54942D01*
X38997Y54841D01*
X39029Y54746D01*
X39051Y54699D01*
X39073Y54659D01*
X39076Y54656D01*
X39079Y54650D01*
X39087Y54639D01*
X39098Y54623D01*
X39109Y54607D01*
X39125Y54588D01*
X39160Y54544D01*
X39207Y54495D01*
X39261Y54448D01*
X39322Y54405D01*
X39354Y54388D01*
X39390Y54372D01*
X39393D01*
X39395Y54369D01*
X39404Y54366D01*
X39414Y54364D01*
X39431Y54361D01*
X39447Y54356D01*
X39469Y54350D01*
X39494Y54345D01*
X39521Y54342D01*
X39554Y54336D01*
X39589Y54331D01*
X39627Y54328D01*
X39671Y54325D01*
X39717Y54323D01*
X39767Y54320D01*
X40348D01*
Y56245D01*
D02*
G37*
G36*
X46667Y75393D02*
X45913D01*
X45894Y75390D01*
X45873D01*
X45821Y75387D01*
X45763Y75382D01*
X45703Y75373D01*
X45646Y75362D01*
X45594Y75346D01*
X45591D01*
X45589Y75343D01*
X45572Y75338D01*
X45550Y75327D01*
X45520Y75311D01*
X45490Y75289D01*
X45458Y75264D01*
X45425Y75231D01*
X45397Y75196D01*
X45395Y75190D01*
X45387Y75177D01*
X45376Y75158D01*
X45362Y75128D01*
X45351Y75095D01*
X45340Y75057D01*
X45332Y75013D01*
X45329Y74969D01*
Y74967D01*
Y74961D01*
Y74953D01*
X45332Y74939D01*
Y74926D01*
X45335Y74906D01*
X45346Y74866D01*
X45362Y74819D01*
X45384Y74770D01*
X45417Y74724D01*
X45439Y74699D01*
X45460Y74677D01*
X45463Y74674D01*
X45466Y74672D01*
X45474Y74666D01*
X45485Y74658D01*
X45499Y74650D01*
X45518Y74639D01*
X45537Y74628D01*
X45561Y74617D01*
X45589Y74606D01*
X45619Y74598D01*
X45651Y74587D01*
X45687Y74579D01*
X45728Y74571D01*
X45772Y74565D01*
X45818Y74560D01*
X46667D01*
Y75393D01*
D02*
G37*
G36*
X42173Y76504D02*
X41595D01*
X41573Y76501D01*
X41548D01*
X41494Y76498D01*
X41431Y76493D01*
X41365Y76485D01*
X41302Y76474D01*
X41245Y76460D01*
X41243D01*
X41240Y76457D01*
X41232Y76454D01*
X41221Y76452D01*
X41196Y76441D01*
X41163Y76427D01*
X41128Y76408D01*
X41090Y76386D01*
X41051Y76359D01*
X41019Y76329D01*
X41016Y76326D01*
X41013Y76323D01*
X40999Y76307D01*
X40978Y76280D01*
X40950Y76244D01*
X40923Y76198D01*
X40893Y76143D01*
X40863Y76080D01*
X40836Y76010D01*
Y76007D01*
X40833Y76001D01*
X40830Y75990D01*
X40825Y75974D01*
X40819Y75955D01*
X40814Y75930D01*
X40808Y75903D01*
X40800Y75873D01*
X40795Y75840D01*
X40789Y75802D01*
X40784Y75764D01*
X40778Y75720D01*
X40770Y75627D01*
X40767Y75524D01*
Y75518D01*
Y75507D01*
Y75485D01*
X40770Y75458D01*
Y75425D01*
X40773Y75387D01*
X40778Y75346D01*
X40784Y75300D01*
X40800Y75201D01*
X40822Y75100D01*
X40855Y75005D01*
X40877Y74958D01*
X40898Y74917D01*
X40901Y74915D01*
X40904Y74909D01*
X40912Y74898D01*
X40923Y74882D01*
X40934Y74866D01*
X40950Y74847D01*
X40986Y74803D01*
X41032Y74754D01*
X41087Y74707D01*
X41147Y74664D01*
X41180Y74647D01*
X41215Y74631D01*
X41218D01*
X41221Y74628D01*
X41229Y74625D01*
X41240Y74623D01*
X41256Y74620D01*
X41273Y74614D01*
X41294Y74609D01*
X41319Y74603D01*
X41346Y74601D01*
X41379Y74595D01*
X41414Y74590D01*
X41453Y74587D01*
X41496Y74584D01*
X41543Y74582D01*
X41592Y74579D01*
X42173D01*
Y76504D01*
D02*
G37*
G36*
X63667Y150892D02*
X62914D01*
X62894Y150890D01*
X62872D01*
X62821Y150887D01*
X62763Y150882D01*
X62703Y150873D01*
X62646Y150862D01*
X62594Y150846D01*
X62591D01*
X62589Y150843D01*
X62572Y150838D01*
X62550Y150827D01*
X62520Y150811D01*
X62490Y150789D01*
X62458Y150764D01*
X62425Y150731D01*
X62397Y150696D01*
X62395Y150690D01*
X62387Y150677D01*
X62376Y150658D01*
X62362Y150628D01*
X62351Y150595D01*
X62340Y150557D01*
X62332Y150513D01*
X62329Y150469D01*
Y150467D01*
Y150461D01*
Y150453D01*
X62332Y150439D01*
Y150426D01*
X62335Y150407D01*
X62346Y150366D01*
X62362Y150319D01*
X62384Y150270D01*
X62417Y150224D01*
X62438Y150199D01*
X62460Y150177D01*
X62463Y150174D01*
X62466Y150172D01*
X62474Y150166D01*
X62485Y150158D01*
X62498Y150150D01*
X62518Y150139D01*
X62537Y150128D01*
X62561Y150117D01*
X62589Y150106D01*
X62619Y150098D01*
X62651Y150087D01*
X62687Y150079D01*
X62728Y150071D01*
X62771Y150065D01*
X62818Y150060D01*
X63667D01*
Y150892D01*
D02*
G37*
G36*
X59173Y150980D02*
X58494D01*
X58472Y150977D01*
X58444D01*
X58414Y150974D01*
X58379Y150969D01*
X58343Y150963D01*
X58267Y150950D01*
X58191Y150928D01*
X58155Y150914D01*
X58122Y150898D01*
X58090Y150882D01*
X58062Y150860D01*
X58060Y150857D01*
X58057Y150854D01*
X58049Y150846D01*
X58040Y150838D01*
X58019Y150811D01*
X57994Y150772D01*
X57969Y150723D01*
X57948Y150666D01*
X57931Y150598D01*
X57929Y150562D01*
X57926Y150521D01*
Y150519D01*
Y150513D01*
Y150505D01*
Y150494D01*
X57931Y150464D01*
X57937Y150428D01*
X57945Y150385D01*
X57961Y150341D01*
X57980Y150295D01*
X58008Y150251D01*
X58010Y150245D01*
X58021Y150232D01*
X58040Y150213D01*
X58062Y150191D01*
X58095Y150166D01*
X58131Y150142D01*
X58171Y150120D01*
X58218Y150103D01*
X58221D01*
X58234Y150101D01*
X58256Y150095D01*
X58289Y150090D01*
X58308D01*
X58330Y150087D01*
X58357Y150084D01*
X58384Y150082D01*
X58417D01*
X58450Y150079D01*
X59173D01*
Y150980D01*
D02*
G37*
G36*
X56826D02*
X56146D01*
X56124Y150977D01*
X56097D01*
X56067Y150974D01*
X56031Y150969D01*
X55996Y150963D01*
X55919Y150950D01*
X55843Y150928D01*
X55807Y150914D01*
X55774Y150898D01*
X55742Y150882D01*
X55714Y150860D01*
X55712Y150857D01*
X55709Y150854D01*
X55701Y150846D01*
X55693Y150838D01*
X55671Y150811D01*
X55646Y150772D01*
X55622Y150723D01*
X55600Y150666D01*
X55583Y150598D01*
X55581Y150562D01*
X55578Y150521D01*
Y150519D01*
Y150513D01*
Y150505D01*
Y150494D01*
X55583Y150464D01*
X55589Y150428D01*
X55597Y150385D01*
X55613Y150341D01*
X55633Y150295D01*
X55660Y150251D01*
X55663Y150245D01*
X55673Y150232D01*
X55693Y150213D01*
X55714Y150191D01*
X55747Y150166D01*
X55783Y150142D01*
X55824Y150120D01*
X55870Y150103D01*
X55873D01*
X55887Y150101D01*
X55908Y150095D01*
X55941Y150090D01*
X55960D01*
X55982Y150087D01*
X56009Y150084D01*
X56037Y150082D01*
X56069D01*
X56102Y150079D01*
X56826D01*
Y150980D01*
D02*
G37*
G36*
X44126Y153504D02*
X43547D01*
X43525Y153501D01*
X43501D01*
X43446Y153498D01*
X43383Y153493D01*
X43318Y153484D01*
X43255Y153473D01*
X43198Y153460D01*
X43195D01*
X43192Y153457D01*
X43184Y153454D01*
X43173Y153452D01*
X43148Y153441D01*
X43116Y153427D01*
X43080Y153408D01*
X43042Y153386D01*
X43004Y153359D01*
X42971Y153329D01*
X42968Y153326D01*
X42965Y153323D01*
X42952Y153307D01*
X42930Y153280D01*
X42903Y153244D01*
X42875Y153198D01*
X42845Y153143D01*
X42815Y153080D01*
X42788Y153009D01*
Y153007D01*
X42785Y153001D01*
X42783Y152990D01*
X42777Y152974D01*
X42772Y152955D01*
X42766Y152930D01*
X42761Y152903D01*
X42753Y152873D01*
X42747Y152840D01*
X42742Y152802D01*
X42736Y152764D01*
X42731Y152720D01*
X42722Y152627D01*
X42720Y152524D01*
Y152518D01*
Y152507D01*
Y152485D01*
X42722Y152458D01*
Y152425D01*
X42725Y152387D01*
X42731Y152346D01*
X42736Y152300D01*
X42753Y152201D01*
X42774Y152100D01*
X42807Y152005D01*
X42829Y151958D01*
X42851Y151917D01*
X42854Y151915D01*
X42856Y151909D01*
X42864Y151898D01*
X42875Y151882D01*
X42886Y151866D01*
X42903Y151846D01*
X42938Y151803D01*
X42985Y151754D01*
X43039Y151707D01*
X43099Y151663D01*
X43132Y151647D01*
X43167Y151631D01*
X43170D01*
X43173Y151628D01*
X43181Y151625D01*
X43192Y151623D01*
X43208Y151620D01*
X43225Y151614D01*
X43247Y151609D01*
X43271Y151603D01*
X43299Y151601D01*
X43331Y151595D01*
X43367Y151590D01*
X43405Y151587D01*
X43449Y151584D01*
X43495Y151582D01*
X43544Y151579D01*
X44126D01*
Y153504D01*
D02*
G37*
G36*
X38860Y153558D02*
X38843D01*
X38824Y153555D01*
X38797Y153553D01*
X38764Y153550D01*
X38728Y153544D01*
X38685Y153536D01*
X38641Y153525D01*
X38592Y153512D01*
X38543Y153495D01*
X38491Y153473D01*
X38439Y153446D01*
X38387Y153416D01*
X38335Y153383D01*
X38286Y153342D01*
X38240Y153296D01*
X38237Y153293D01*
X38229Y153282D01*
X38218Y153269D01*
X38202Y153247D01*
X38183Y153220D01*
X38161Y153187D01*
X38139Y153149D01*
X38117Y153102D01*
X38095Y153053D01*
X38070Y152996D01*
X38051Y152936D01*
X38032Y152867D01*
X38016Y152794D01*
X38005Y152717D01*
X37997Y152633D01*
X37994Y152545D01*
Y152543D01*
Y152532D01*
Y152515D01*
X37997Y152494D01*
Y152466D01*
X37999Y152436D01*
X38002Y152401D01*
X38008Y152362D01*
X38019Y152278D01*
X38038Y152188D01*
X38065Y152098D01*
X38100Y152007D01*
Y152005D01*
X38106Y151997D01*
X38111Y151986D01*
X38120Y151969D01*
X38131Y151950D01*
X38144Y151928D01*
X38177Y151876D01*
X38221Y151819D01*
X38273Y151762D01*
X38333Y151705D01*
X38404Y151653D01*
X38406Y151650D01*
X38412Y151647D01*
X38423Y151642D01*
X38439Y151634D01*
X38458Y151623D01*
X38480Y151612D01*
X38505Y151601D01*
X38535Y151587D01*
X38567Y151576D01*
X38600Y151565D01*
X38677Y151543D01*
X38761Y151530D01*
X38808Y151524D01*
X38870D01*
X38887Y151527D01*
X38914D01*
X38944Y151532D01*
X38980Y151538D01*
X39018Y151546D01*
X39061Y151554D01*
X39108Y151568D01*
X39157Y151584D01*
X39209Y151603D01*
X39258Y151628D01*
X39310Y151655D01*
X39362Y151688D01*
X39414Y151726D01*
X39463Y151770D01*
X39466Y151773D01*
X39474Y151781D01*
X39487Y151797D01*
X39501Y151816D01*
X39523Y151844D01*
X39542Y151876D01*
X39567Y151917D01*
X39588Y151961D01*
X39613Y152016D01*
X39638Y152076D01*
X39657Y152141D01*
X39676Y152215D01*
X39692Y152294D01*
X39706Y152382D01*
X39714Y152477D01*
X39717Y152581D01*
Y152586D01*
Y152600D01*
X39714Y152624D01*
Y152657D01*
X39709Y152696D01*
X39703Y152739D01*
X39698Y152788D01*
X39687Y152840D01*
X39673Y152898D01*
X39657Y152957D01*
X39638Y153015D01*
X39613Y153075D01*
X39586Y153135D01*
X39553Y153192D01*
X39517Y153247D01*
X39474Y153299D01*
X39471Y153302D01*
X39463Y153310D01*
X39449Y153323D01*
X39430Y153340D01*
X39406Y153359D01*
X39375Y153381D01*
X39343Y153405D01*
X39305Y153427D01*
X39263Y153452D01*
X39214Y153476D01*
X39165Y153498D01*
X39111Y153517D01*
X39053Y153534D01*
X38991Y153547D01*
X38928Y153555D01*
X38860Y153558D01*
D02*
G37*
G36*
X35521Y35418D02*
X35518D01*
X35513D01*
X35505D01*
X35494D01*
X35464Y35412D01*
X35428Y35407D01*
X35385Y35398D01*
X35341Y35382D01*
X35295Y35363D01*
X35251Y35336D01*
X35245Y35333D01*
X35232Y35322D01*
X35213Y35303D01*
X35191Y35281D01*
X35166Y35248D01*
X35142Y35213D01*
X35120Y35172D01*
X35103Y35125D01*
Y35123D01*
X35101Y35109D01*
X35095Y35087D01*
X35090Y35054D01*
Y35035D01*
X35087Y35013D01*
X35084Y34986D01*
X35082Y34959D01*
Y34926D01*
X35079Y34893D01*
Y34170D01*
X35980D01*
Y34850D01*
X35977Y34872D01*
Y34899D01*
X35974Y34929D01*
X35969Y34964D01*
X35963Y35000D01*
X35950Y35076D01*
X35928Y35153D01*
X35914Y35188D01*
X35898Y35221D01*
X35882Y35254D01*
X35860Y35281D01*
X35857Y35284D01*
X35854Y35287D01*
X35846Y35295D01*
X35838Y35303D01*
X35811Y35325D01*
X35772Y35349D01*
X35723Y35374D01*
X35666Y35396D01*
X35598Y35412D01*
X35562Y35415D01*
X35521Y35418D01*
D02*
G37*
G36*
X158414Y154891D02*
X157278D01*
X158414Y154097D01*
Y154891D01*
D02*
G37*
G36*
X157469Y150419D02*
X157467D01*
X157461D01*
X157453D01*
X157439Y150417D01*
X157426D01*
X157406Y150414D01*
X157366Y150403D01*
X157319Y150387D01*
X157270Y150365D01*
X157224Y150332D01*
X157199Y150310D01*
X157177Y150288D01*
X157175Y150285D01*
X157172Y150283D01*
X157166Y150275D01*
X157158Y150264D01*
X157150Y150250D01*
X157139Y150231D01*
X157128Y150212D01*
X157117Y150187D01*
X157106Y150160D01*
X157098Y150130D01*
X157087Y150097D01*
X157079Y150062D01*
X157071Y150021D01*
X157065Y149977D01*
X157060Y149931D01*
Y149082D01*
X157893D01*
Y149835D01*
X157890Y149854D01*
Y149876D01*
X157887Y149928D01*
X157882Y149985D01*
X157873Y150045D01*
X157862Y150103D01*
X157846Y150154D01*
Y150157D01*
X157843Y150160D01*
X157838Y150176D01*
X157827Y150198D01*
X157811Y150228D01*
X157789Y150258D01*
X157764Y150291D01*
X157731Y150324D01*
X157696Y150351D01*
X157691Y150354D01*
X157677Y150362D01*
X157658Y150373D01*
X157628Y150387D01*
X157595Y150397D01*
X157557Y150408D01*
X157513Y150417D01*
X157469Y150419D01*
D02*
G37*
G36*
X17491Y136392D02*
X16738D01*
X16719Y136390D01*
X16697D01*
X16645Y136387D01*
X16588Y136381D01*
X16528Y136373D01*
X16470Y136362D01*
X16418Y136346D01*
X16416D01*
X16413Y136343D01*
X16397Y136338D01*
X16375Y136327D01*
X16345Y136311D01*
X16315Y136289D01*
X16282Y136264D01*
X16249Y136231D01*
X16222Y136196D01*
X16219Y136190D01*
X16211Y136177D01*
X16200Y136158D01*
X16186Y136128D01*
X16175Y136095D01*
X16164Y136057D01*
X16156Y136013D01*
X16154Y135969D01*
Y135967D01*
Y135961D01*
Y135953D01*
X16156Y135939D01*
Y135926D01*
X16159Y135907D01*
X16170Y135866D01*
X16186Y135819D01*
X16208Y135770D01*
X16241Y135724D01*
X16263Y135699D01*
X16285Y135677D01*
X16287Y135675D01*
X16290Y135672D01*
X16298Y135666D01*
X16309Y135658D01*
X16323Y135650D01*
X16342Y135639D01*
X16361Y135628D01*
X16386Y135617D01*
X16413Y135606D01*
X16443Y135598D01*
X16476Y135587D01*
X16511Y135579D01*
X16552Y135571D01*
X16596Y135565D01*
X16642Y135560D01*
X17491D01*
Y136392D01*
D02*
G37*
G36*
X23167Y136480D02*
X22487D01*
X22465Y136477D01*
X22438D01*
X22408Y136474D01*
X22373Y136469D01*
X22337Y136463D01*
X22261Y136450D01*
X22184Y136428D01*
X22149Y136414D01*
X22116Y136398D01*
X22083Y136381D01*
X22056Y136360D01*
X22053Y136357D01*
X22050Y136354D01*
X22042Y136346D01*
X22034Y136338D01*
X22012Y136311D01*
X21988Y136272D01*
X21963Y136223D01*
X21941Y136166D01*
X21925Y136098D01*
X21922Y136062D01*
X21919Y136021D01*
Y136019D01*
Y136013D01*
Y136005D01*
Y135994D01*
X21925Y135964D01*
X21930Y135928D01*
X21938Y135885D01*
X21955Y135841D01*
X21974Y135795D01*
X22001Y135751D01*
X22004Y135746D01*
X22015Y135732D01*
X22034Y135713D01*
X22056Y135691D01*
X22089Y135666D01*
X22124Y135642D01*
X22165Y135620D01*
X22211Y135603D01*
X22214D01*
X22228Y135601D01*
X22250Y135595D01*
X22283Y135590D01*
X22302D01*
X22323Y135587D01*
X22351Y135584D01*
X22378Y135582D01*
X22411D01*
X22444Y135579D01*
X23167D01*
Y136480D01*
D02*
G37*
G36*
X171393Y70921D02*
X170670D01*
Y70020D01*
X171350D01*
X171372Y70023D01*
X171399D01*
X171429Y70026D01*
X171464Y70031D01*
X171500Y70037D01*
X171576Y70050D01*
X171653Y70072D01*
X171688Y70086D01*
X171721Y70102D01*
X171754Y70118D01*
X171781Y70140D01*
X171784Y70143D01*
X171786Y70146D01*
X171795Y70154D01*
X171803Y70162D01*
X171825Y70189D01*
X171849Y70228D01*
X171874Y70277D01*
X171896Y70334D01*
X171912Y70402D01*
X171915Y70438D01*
X171918Y70479D01*
Y70482D01*
Y70487D01*
Y70495D01*
Y70506D01*
X171912Y70536D01*
X171907Y70572D01*
X171898Y70615D01*
X171882Y70659D01*
X171863Y70705D01*
X171836Y70749D01*
X171833Y70755D01*
X171822Y70768D01*
X171803Y70787D01*
X171781Y70809D01*
X171748Y70834D01*
X171713Y70858D01*
X171672Y70880D01*
X171625Y70897D01*
X171623D01*
X171609Y70899D01*
X171587Y70905D01*
X171555Y70910D01*
X171535D01*
X171513Y70913D01*
X171486Y70916D01*
X171459Y70918D01*
X171426D01*
X171393Y70921D01*
D02*
G37*
G36*
X183031Y70976D02*
X182969D01*
X182952Y70973D01*
X182925D01*
X182895Y70968D01*
X182859Y70962D01*
X182821Y70954D01*
X182778Y70946D01*
X182731Y70932D01*
X182682Y70916D01*
X182630Y70897D01*
X182581Y70872D01*
X182529Y70845D01*
X182477Y70812D01*
X182425Y70774D01*
X182376Y70730D01*
X182373Y70727D01*
X182365Y70719D01*
X182352Y70703D01*
X182338Y70684D01*
X182316Y70656D01*
X182297Y70623D01*
X182272Y70583D01*
X182251Y70539D01*
X182226Y70484D01*
X182202Y70424D01*
X182182Y70359D01*
X182163Y70285D01*
X182147Y70206D01*
X182133Y70118D01*
X182125Y70023D01*
X182122Y69919D01*
Y69914D01*
Y69900D01*
X182125Y69876D01*
Y69843D01*
X182131Y69805D01*
X182136Y69761D01*
X182141Y69712D01*
X182152Y69660D01*
X182166Y69603D01*
X182182Y69542D01*
X182202Y69485D01*
X182226Y69425D01*
X182253Y69365D01*
X182286Y69308D01*
X182322Y69253D01*
X182365Y69201D01*
X182368Y69199D01*
X182376Y69190D01*
X182390Y69177D01*
X182409Y69160D01*
X182433Y69141D01*
X182464Y69119D01*
X182496Y69095D01*
X182535Y69073D01*
X182576Y69048D01*
X182625Y69024D01*
X182674Y69002D01*
X182728Y68983D01*
X182786Y68966D01*
X182849Y68953D01*
X182911Y68945D01*
X182980Y68942D01*
X182996D01*
X183015Y68945D01*
X183042Y68947D01*
X183075Y68950D01*
X183110Y68955D01*
X183154Y68964D01*
X183198Y68975D01*
X183247Y68988D01*
X183296Y69005D01*
X183348Y69026D01*
X183400Y69054D01*
X183452Y69084D01*
X183504Y69117D01*
X183553Y69157D01*
X183599Y69204D01*
X183602Y69207D01*
X183610Y69218D01*
X183621Y69231D01*
X183637Y69253D01*
X183657Y69280D01*
X183678Y69313D01*
X183700Y69351D01*
X183722Y69398D01*
X183744Y69447D01*
X183768Y69504D01*
X183788Y69564D01*
X183807Y69633D01*
X183823Y69706D01*
X183834Y69783D01*
X183842Y69867D01*
X183845Y69955D01*
Y69957D01*
Y69968D01*
Y69985D01*
X183842Y70007D01*
Y70034D01*
X183839Y70064D01*
X183837Y70099D01*
X183831Y70138D01*
X183820Y70222D01*
X183801Y70312D01*
X183774Y70402D01*
X183738Y70493D01*
Y70495D01*
X183733Y70503D01*
X183728Y70514D01*
X183719Y70531D01*
X183708Y70550D01*
X183695Y70572D01*
X183662Y70623D01*
X183618Y70681D01*
X183566Y70738D01*
X183506Y70796D01*
X183435Y70847D01*
X183433Y70850D01*
X183427Y70853D01*
X183416Y70858D01*
X183400Y70867D01*
X183381Y70877D01*
X183359Y70888D01*
X183334Y70899D01*
X183304Y70913D01*
X183272Y70924D01*
X183239Y70935D01*
X183162Y70957D01*
X183078Y70970D01*
X183031Y70976D01*
D02*
G37*
G36*
X178336D02*
X178273D01*
X178257Y70973D01*
X178229D01*
X178199Y70968D01*
X178164Y70962D01*
X178126Y70954D01*
X178082Y70946D01*
X178035Y70932D01*
X177986Y70916D01*
X177935Y70897D01*
X177885Y70872D01*
X177833Y70845D01*
X177782Y70812D01*
X177730Y70774D01*
X177681Y70730D01*
X177678Y70727D01*
X177670Y70719D01*
X177656Y70703D01*
X177642Y70684D01*
X177620Y70656D01*
X177601Y70623D01*
X177577Y70583D01*
X177555Y70539D01*
X177530Y70484D01*
X177506Y70424D01*
X177487Y70359D01*
X177468Y70285D01*
X177451Y70206D01*
X177438Y70118D01*
X177429Y70023D01*
X177427Y69919D01*
Y69914D01*
Y69900D01*
X177429Y69876D01*
Y69843D01*
X177435Y69805D01*
X177440Y69761D01*
X177446Y69712D01*
X177457Y69660D01*
X177470Y69603D01*
X177487Y69542D01*
X177506Y69485D01*
X177530Y69425D01*
X177558Y69365D01*
X177591Y69308D01*
X177626Y69253D01*
X177670Y69201D01*
X177672Y69199D01*
X177681Y69190D01*
X177694Y69177D01*
X177713Y69160D01*
X177738Y69141D01*
X177768Y69119D01*
X177801Y69095D01*
X177839Y69073D01*
X177880Y69048D01*
X177929Y69024D01*
X177978Y69002D01*
X178033Y68983D01*
X178090Y68966D01*
X178153Y68953D01*
X178216Y68945D01*
X178284Y68942D01*
X178300D01*
X178319Y68945D01*
X178347Y68947D01*
X178379Y68950D01*
X178415Y68955D01*
X178459Y68964D01*
X178502Y68975D01*
X178551Y68988D01*
X178601Y69005D01*
X178653Y69026D01*
X178704Y69054D01*
X178756Y69084D01*
X178808Y69117D01*
X178857Y69157D01*
X178904Y69204D01*
X178906Y69207D01*
X178914Y69218D01*
X178926Y69231D01*
X178942Y69253D01*
X178961Y69280D01*
X178983Y69313D01*
X179005Y69351D01*
X179026Y69398D01*
X179048Y69447D01*
X179073Y69504D01*
X179092Y69564D01*
X179111Y69633D01*
X179128Y69706D01*
X179138Y69783D01*
X179147Y69867D01*
X179149Y69955D01*
Y69957D01*
Y69968D01*
Y69985D01*
X179147Y70007D01*
Y70034D01*
X179144Y70064D01*
X179141Y70099D01*
X179136Y70138D01*
X179125Y70222D01*
X179106Y70312D01*
X179078Y70402D01*
X179043Y70493D01*
Y70495D01*
X179037Y70503D01*
X179032Y70514D01*
X179024Y70531D01*
X179013Y70550D01*
X178999Y70572D01*
X178966Y70623D01*
X178923Y70681D01*
X178871Y70738D01*
X178811Y70796D01*
X178740Y70847D01*
X178737Y70850D01*
X178732Y70853D01*
X178721Y70858D01*
X178704Y70867D01*
X178685Y70877D01*
X178663Y70888D01*
X178639Y70899D01*
X178609Y70913D01*
X178576Y70924D01*
X178543Y70935D01*
X178467Y70957D01*
X178382Y70970D01*
X178336Y70976D01*
D02*
G37*
G36*
X59071Y29282D02*
X58223D01*
Y28450D01*
X58976D01*
X58995Y28452D01*
X59017D01*
X59069Y28455D01*
X59126Y28460D01*
X59186Y28469D01*
X59244Y28480D01*
X59295Y28496D01*
X59298D01*
X59301Y28499D01*
X59317Y28504D01*
X59339Y28515D01*
X59369Y28532D01*
X59399Y28553D01*
X59432Y28578D01*
X59465Y28611D01*
X59492Y28646D01*
X59495Y28652D01*
X59503Y28665D01*
X59514Y28684D01*
X59527Y28714D01*
X59538Y28747D01*
X59549Y28785D01*
X59557Y28829D01*
X59560Y28873D01*
Y28875D01*
Y28881D01*
Y28889D01*
X59557Y28903D01*
Y28916D01*
X59555Y28936D01*
X59544Y28977D01*
X59527Y29023D01*
X59506Y29072D01*
X59473Y29118D01*
X59451Y29143D01*
X59429Y29165D01*
X59426Y29168D01*
X59424Y29170D01*
X59416Y29176D01*
X59404Y29184D01*
X59391Y29192D01*
X59372Y29203D01*
X59353Y29214D01*
X59328Y29225D01*
X59301Y29236D01*
X59271Y29244D01*
X59238Y29255D01*
X59202Y29263D01*
X59162Y29271D01*
X59118Y29277D01*
X59071Y29282D01*
D02*
G37*
G36*
X56399Y29299D02*
Y29296D01*
X56396Y29288D01*
X56393Y29274D01*
X56391Y29258D01*
X56385Y29233D01*
X56380Y29208D01*
X56371Y29179D01*
X56363Y29146D01*
X56355Y29110D01*
X56344Y29072D01*
X56320Y28990D01*
X56292Y28903D01*
X56262Y28813D01*
X55984Y28073D01*
X56844D01*
X56579Y28772D01*
Y28774D01*
X56573Y28785D01*
X56568Y28802D01*
X56560Y28826D01*
X56549Y28851D01*
X56538Y28884D01*
X56524Y28919D01*
X56511Y28957D01*
X56483Y29042D01*
X56453Y29129D01*
X56423Y29217D01*
X56399Y29299D01*
D02*
G37*
G36*
X157167Y61392D02*
X156413D01*
X156394Y61390D01*
X156372D01*
X156321Y61387D01*
X156263Y61382D01*
X156203Y61373D01*
X156146Y61362D01*
X156094Y61346D01*
X156091D01*
X156089Y61343D01*
X156072Y61338D01*
X156050Y61327D01*
X156020Y61311D01*
X155990Y61289D01*
X155958Y61264D01*
X155925Y61231D01*
X155897Y61196D01*
X155895Y61190D01*
X155887Y61177D01*
X155876Y61158D01*
X155862Y61128D01*
X155851Y61095D01*
X155840Y61057D01*
X155832Y61013D01*
X155829Y60969D01*
Y60967D01*
Y60961D01*
Y60953D01*
X155832Y60939D01*
Y60926D01*
X155835Y60906D01*
X155846Y60866D01*
X155862Y60819D01*
X155884Y60770D01*
X155917Y60724D01*
X155938Y60699D01*
X155960Y60677D01*
X155963Y60675D01*
X155966Y60672D01*
X155974Y60666D01*
X155985Y60658D01*
X155999Y60650D01*
X156018Y60639D01*
X156037Y60628D01*
X156061Y60617D01*
X156089Y60606D01*
X156119Y60598D01*
X156151Y60587D01*
X156187Y60579D01*
X156228Y60571D01*
X156272Y60565D01*
X156318Y60560D01*
X157167D01*
Y61392D01*
D02*
G37*
G36*
X149542D02*
X148789D01*
X148769Y61390D01*
X148748D01*
X148696Y61387D01*
X148638Y61382D01*
X148578Y61373D01*
X148521Y61362D01*
X148469Y61346D01*
X148466D01*
X148464Y61343D01*
X148447Y61338D01*
X148425Y61327D01*
X148396Y61311D01*
X148365Y61289D01*
X148333Y61264D01*
X148300Y61231D01*
X148273Y61196D01*
X148270Y61190D01*
X148262Y61177D01*
X148251Y61158D01*
X148237Y61128D01*
X148226Y61095D01*
X148215Y61057D01*
X148207Y61013D01*
X148204Y60969D01*
Y60967D01*
Y60961D01*
Y60953D01*
X148207Y60939D01*
Y60926D01*
X148210Y60906D01*
X148221Y60866D01*
X148237Y60819D01*
X148259Y60770D01*
X148292Y60724D01*
X148314Y60699D01*
X148335Y60677D01*
X148338Y60675D01*
X148341Y60672D01*
X148349Y60666D01*
X148360Y60658D01*
X148374Y60650D01*
X148393Y60639D01*
X148412Y60628D01*
X148436Y60617D01*
X148464Y60606D01*
X148494Y60598D01*
X148527Y60587D01*
X148562Y60579D01*
X148603Y60571D01*
X148647Y60565D01*
X148693Y60560D01*
X149542D01*
Y61392D01*
D02*
G37*
%LPD*%
D10*
X57295Y167334D02*
X70705D01*
X57295D02*
Y174666D01*
X70705D01*
Y167334D02*
Y174666D01*
X112331Y154114D02*
Y180886D01*
X80047D02*
X112331D01*
X80047Y154114D02*
Y180886D01*
Y154114D02*
X112331D01*
X126295Y19834D02*
X139705D01*
X126295D02*
Y27166D01*
X139705D01*
Y19834D02*
Y27166D01*
X125610Y35449D02*
X139390D01*
X125610D02*
Y41551D01*
X139390D01*
Y35449D02*
Y41551D01*
X126555Y82917D02*
Y110083D01*
Y82917D02*
X158445D01*
Y110083D01*
X126555D02*
X158445D01*
X39094Y53350D02*
X50906D01*
X39094D02*
Y59650D01*
X50906D01*
Y53350D02*
Y59650D01*
X40701Y74449D02*
X53299D01*
X40701D02*
Y80551D01*
X53299D01*
Y74449D02*
Y80551D01*
X58673Y149949D02*
X69327D01*
X58673D02*
Y156051D01*
X69327D01*
Y149949D02*
Y156051D01*
X12122Y132909D02*
X34878D01*
X12122D02*
Y144091D01*
X34878D01*
Y132909D02*
Y144091D01*
X164205Y59834D02*
Y67166D01*
X150795D02*
X164205D01*
X150795Y59834D02*
Y67166D01*
Y59834D02*
X164205D01*
D14*
X29110Y152154D02*
X42890D01*
X29110D02*
Y158846D01*
X42890D01*
Y152154D02*
Y158846D01*
X41622Y32591D02*
X64378D01*
Y21409D02*
Y32591D01*
X41622Y21409D02*
X64378D01*
X41622D02*
Y32591D01*
M02*
