G04*
G04 #@! TF.GenerationSoftware,Altium Limited,Altium Designer,23.1.1 (15)*
G04*
G04 Layer_Color=8421504*
%FSLAX25Y25*%
%MOIN*%
G70*
G04*
G04 #@! TF.SameCoordinates,2A32F405-7E1A-4497-8D0E-C4D04B09633D*
G04*
G04*
G04 #@! TF.FilePolarity,Positive*
G04*
G01*
G75*
%ADD15R,0.03347X0.05118*%
%ADD16R,0.05906X0.12992*%
%ADD17R,0.05906X0.04724*%
%ADD18R,0.06299X0.13780*%
%ADD19R,0.07835X0.02756*%
%ADD20R,0.07835X0.03150*%
%ADD21R,0.07835X0.03543*%
%ADD22R,0.03150X0.03150*%
%ADD23R,0.04546X0.05363*%
%ADD24R,0.04724X0.04724*%
D15*
X72846Y74500D02*
D03*
X66154D02*
D03*
X72346Y65000D02*
D03*
X65654D02*
D03*
X125654Y72000D02*
D03*
X132346D02*
D03*
D16*
X104098Y102000D02*
D03*
D17*
X78902Y92945D02*
D03*
Y102000D02*
D03*
Y111055D02*
D03*
D18*
X122000Y106024D02*
D03*
Y83976D02*
D03*
D19*
X146000Y93547D02*
D03*
Y97484D02*
D03*
D20*
Y89532D02*
D03*
Y101500D02*
D03*
D21*
Y84689D02*
D03*
Y106343D02*
D03*
D22*
X106500Y75724D02*
D03*
X110240Y66276D02*
D03*
X102760D02*
D03*
D23*
X72948Y134500D02*
D03*
X66052D02*
D03*
X126552Y63000D02*
D03*
X133448D02*
D03*
D24*
X99634Y148000D02*
D03*
X91366D02*
D03*
M02*
