G04*
G04 #@! TF.GenerationSoftware,Altium Limited,Altium Designer,23.1.1 (15)*
G04*
G04 Layer_Color=16711935*
%FSLAX25Y25*%
%MOIN*%
G70*
G04*
G04 #@! TF.SameCoordinates,610C7C08-74D4-44FC-BCD4-38041F97A8CA*
G04*
G04*
G04 #@! TF.FilePolarity,Positive*
G04*
G01*
G75*
%ADD10C,0.00394*%
%ADD11C,0.00591*%
%ADD14C,0.00787*%
%ADD15C,0.01500*%
D10*
X93323Y79146D02*
X108677D01*
Y59854D02*
Y79146D01*
X93323Y59854D02*
X108677D01*
X93323D02*
Y79146D01*
Y74146D02*
X98323Y79146D01*
X163689Y84213D02*
Y105787D01*
X188492D01*
Y84213D02*
Y105787D01*
X163689Y84213D02*
X188492D01*
X50354Y99823D02*
Y115177D01*
X69646D01*
Y99823D02*
Y115177D01*
X50354Y99823D02*
X69646D01*
X50354Y104823D02*
X55354Y99823D01*
X10689Y108713D02*
X35492D01*
Y130287D01*
X10689D02*
X35492D01*
X10689Y108713D02*
Y130287D01*
X92823Y113146D02*
X108177D01*
Y93854D02*
Y113146D01*
X92823Y93854D02*
X108177D01*
X92823D02*
Y113146D01*
Y108146D02*
X97823Y113146D01*
X16600Y51253D02*
Y102748D01*
X26400Y51252D02*
Y102748D01*
X16599Y51253D02*
X26400Y51252D01*
X16600Y102748D02*
X26400D01*
X127669Y48146D02*
X136331D01*
X127669Y53854D02*
X136331D01*
Y48146D02*
Y53854D01*
X127669Y48146D02*
Y53854D01*
X173331Y50343D02*
Y55657D01*
X164669Y50343D02*
Y55657D01*
Y50343D02*
X173331D01*
X164669Y55657D02*
X173331D01*
X66331Y154343D02*
Y159657D01*
X57669Y154343D02*
Y159657D01*
Y154343D02*
X66331D01*
X57669Y159657D02*
X66331D01*
D11*
X130795Y9000D02*
G03*
X130795Y9000I-5295J0D01*
G01*
X39795Y34500D02*
G03*
X39795Y34500I-5295J0D01*
G01*
X180669Y142000D02*
G03*
X180669Y142000I-20669J0D01*
G01*
D14*
X60063Y168539D02*
X67937D01*
X60063D02*
Y173461D01*
X67937D01*
Y168539D02*
Y173461D01*
X129063Y21039D02*
X136937D01*
X129063D02*
Y25961D01*
X136937D01*
Y21039D02*
Y25961D01*
X128366Y35843D02*
X136634D01*
X128366D02*
Y41157D01*
X136634D01*
Y35843D02*
Y41157D01*
X135217Y83311D02*
Y109689D01*
Y83311D02*
X149783D01*
Y109689D01*
X135217D02*
X149783D01*
X40866Y53744D02*
X49134D01*
X40866D02*
Y59256D01*
X49134D01*
Y53744D02*
Y59256D01*
X42866Y74843D02*
X51134D01*
X42866D02*
Y80157D01*
X51134D01*
Y74843D02*
Y80157D01*
X12516Y133303D02*
X34484D01*
X12516D02*
Y143697D01*
X34484D01*
Y133303D02*
Y143697D01*
X172937Y63539D02*
Y68461D01*
X165063D02*
X172937D01*
X165063Y63539D02*
Y68461D01*
Y63539D02*
X172937D01*
D15*
X31571Y152547D02*
X40429D01*
X31571D02*
Y158453D01*
X40429D01*
Y152547D02*
Y158453D01*
X46516Y38697D02*
X68484D01*
Y28303D02*
Y38697D01*
X46516Y28303D02*
X68484D01*
X46516D02*
Y38697D01*
X150941Y34209D02*
X156059D01*
Y22791D02*
Y34209D01*
X150941Y22791D02*
X156059D01*
X150941D02*
Y34209D01*
Y30429D02*
X154720Y34209D01*
M02*
