G04*
G04 #@! TF.GenerationSoftware,Altium Limited,Altium Designer,23.1.1 (15)*
G04*
G04 Layer_Color=16711935*
%FSLAX25Y25*%
%MOIN*%
G70*
G04*
G04 #@! TF.SameCoordinates,21B55FED-B8B4-48E4-904C-F60C8F1E3AA0*
G04*
G04*
G04 #@! TF.FilePolarity,Positive*
G04*
G01*
G75*
%ADD12C,0.00394*%
%ADD13C,0.00787*%
%ADD14C,0.01500*%
D12*
X114189Y116213D02*
X138992D01*
Y137787D01*
X114189D02*
X138992D01*
X114189Y116213D02*
Y137787D01*
X73012Y115248D02*
X111988D01*
Y137886D01*
X73012D02*
X111988D01*
X73012Y115248D02*
Y137886D01*
X62669Y132343D02*
Y137657D01*
X71331Y132343D02*
Y137657D01*
X62669D02*
X71331D01*
X62669Y132343D02*
X71331D01*
X124169Y67657D02*
X132831D01*
X124169Y62343D02*
X132831D01*
X124169D02*
Y67657D01*
X132831Y62343D02*
Y67657D01*
X73189Y62713D02*
Y84287D01*
X97992D01*
Y62713D02*
Y84287D01*
X73189Y62713D02*
X97992D01*
X71252Y49100D02*
X122747D01*
X71252Y58900D02*
X122748D01*
X122747Y49099D02*
X122748Y58900D01*
X71252Y49100D02*
Y58900D01*
D13*
X82717Y113689D02*
X97283D01*
Y87311D02*
Y113689D01*
X82717Y87311D02*
X97283D01*
X82717D02*
Y113689D01*
X107614Y108886D02*
X134386D01*
X107614Y82114D02*
Y108886D01*
Y82114D02*
X134386D01*
Y108886D01*
X61000Y131250D02*
X71000D01*
X61000Y70750D02*
Y131250D01*
Y70750D02*
X71000D01*
Y131250D01*
X136480Y114575D02*
X148921D01*
X136480Y79772D02*
Y114575D01*
Y79772D02*
X148921D01*
Y114575D01*
X101398Y64457D02*
X113602D01*
Y71543D01*
X101398D02*
X113602D01*
X101398Y64457D02*
Y71543D01*
X99539Y86937D02*
X104461D01*
X99539Y79063D02*
Y86937D01*
Y79063D02*
X104461D01*
Y86937D01*
D14*
X123071Y68547D02*
X131929D01*
X123071D02*
Y74453D01*
X131929D01*
Y68547D02*
Y74453D01*
M02*
