G04*
G04 #@! TF.GenerationSoftware,Altium Limited,Altium Designer,23.1.1 (15)*
G04*
G04 Layer_Color=0*
%FSLAX25Y25*%
%MOIN*%
G70*
G04*
G04 #@! TF.SameCoordinates,610C7C08-74D4-44FC-BCD4-38041F97A8CA*
G04*
G04*
G04 #@! TF.FilePolarity,Positive*
G04*
G01*
G75*
%ADD10C,0.00394*%
%ADD15C,0.01500*%
D10*
X62032Y171000D02*
X65969D01*
X64000Y169032D02*
Y172969D01*
X131032Y23500D02*
X134969D01*
X133000Y21532D02*
Y25469D01*
X130532Y38500D02*
X134469D01*
X132500Y36532D02*
Y40469D01*
X142500Y94532D02*
Y98469D01*
X140531Y96500D02*
X144468D01*
X43032Y56500D02*
X46969D01*
X45000Y54532D02*
Y58469D01*
X45032Y77500D02*
X48969D01*
X47000Y75532D02*
Y79469D01*
X160000Y140032D02*
Y143969D01*
X158032Y142000D02*
X161969D01*
X21532Y138500D02*
X25469D01*
X23500Y136532D02*
Y140469D01*
X169000Y64032D02*
Y67969D01*
X167032Y66000D02*
X170969D01*
D15*
X123532Y9000D02*
X127469D01*
X125500Y7031D02*
Y10968D01*
X34032Y155500D02*
X37969D01*
X36000Y153532D02*
Y157469D01*
X32532Y34500D02*
X36469D01*
X34500Y32532D02*
Y36469D01*
X55531Y33500D02*
X59468D01*
X57500Y31532D02*
Y35469D01*
M02*
