G04*
G04 #@! TF.GenerationSoftware,Altium Limited,Altium Designer,23.1.1 (15)*
G04*
G04 Layer_Color=128*
%FSLAX25Y25*%
%MOIN*%
G70*
G04*
G04 #@! TF.SameCoordinates,4416291F-A030-49B4-A21B-4109523D90D4*
G04*
G04*
G04 #@! TF.FilePolarity,Positive*
G04*
G01*
G75*
%ADD23R,0.03543X0.04724*%
%ADD25R,0.04000X0.05315*%
%ADD27R,0.04331X0.02559*%
%ADD54R,0.05512X0.03937*%
%ADD55O,0.08268X0.01000*%
G04:AMPARAMS|DCode=56|XSize=43.31mil|YSize=23.62mil|CornerRadius=2.01mil|HoleSize=0mil|Usage=FLASHONLY|Rotation=180.000|XOffset=0mil|YOffset=0mil|HoleType=Round|Shape=RoundedRectangle|*
%AMROUNDEDRECTD56*
21,1,0.04331,0.01961,0,0,180.0*
21,1,0.03929,0.02362,0,0,180.0*
1,1,0.00402,-0.01965,0.00980*
1,1,0.00402,0.01965,0.00980*
1,1,0.00402,0.01965,-0.00980*
1,1,0.00402,-0.01965,-0.00980*
%
%ADD56ROUNDEDRECTD56*%
%ADD57R,0.04349X0.05339*%
%ADD58R,0.04152X0.05339*%
%ADD59R,0.03740X0.05315*%
%ADD60R,0.03740X0.05512*%
%ADD61R,0.04724X0.02362*%
%ADD62R,0.04724X0.01500*%
%ADD63R,0.04528X0.05315*%
%ADD64R,0.03347X0.02362*%
%ADD65R,0.04134X0.05709*%
%ADD66R,0.03378X0.04969*%
D23*
X151634Y121000D02*
D03*
X143366D02*
D03*
D25*
X144146Y54500D02*
D03*
D27*
X45634Y77780D02*
D03*
Y70220D02*
D03*
X37366Y74000D02*
D03*
D54*
X50382Y140500D02*
D03*
X60618D02*
D03*
X155837Y37000D02*
D03*
X145601D02*
D03*
D55*
X86083Y30984D02*
D03*
Y33543D02*
D03*
Y36102D02*
D03*
Y38661D02*
D03*
Y41220D02*
D03*
Y43780D02*
D03*
Y46339D02*
D03*
Y48898D02*
D03*
Y51457D02*
D03*
Y54016D02*
D03*
X108917Y30984D02*
D03*
Y33543D02*
D03*
Y36102D02*
D03*
Y38661D02*
D03*
Y41220D02*
D03*
Y43780D02*
D03*
Y46339D02*
D03*
Y48898D02*
D03*
Y51457D02*
D03*
Y54016D02*
D03*
D56*
X67618Y61240D02*
D03*
Y57500D02*
D03*
Y53760D02*
D03*
X57382D02*
D03*
Y57500D02*
D03*
Y61240D02*
D03*
D57*
X61759Y173500D02*
D03*
X56241D02*
D03*
X62241Y81500D02*
D03*
X67759D02*
D03*
X68759Y98500D02*
D03*
X63241D02*
D03*
D58*
X62357Y157000D02*
D03*
X56643D02*
D03*
D59*
X99768Y178500D02*
D03*
X106067D02*
D03*
X99768Y132000D02*
D03*
X106067D02*
D03*
X99768Y147500D02*
D03*
X106067D02*
D03*
X99768Y163000D02*
D03*
X106067D02*
D03*
D60*
X99858Y116000D02*
D03*
X107142D02*
D03*
X144358Y71000D02*
D03*
X151642D02*
D03*
D61*
X107579Y98240D02*
D03*
Y90760D02*
D03*
D62*
X117421D02*
D03*
Y94500D02*
D03*
Y98240D02*
D03*
D63*
X149854Y54500D02*
D03*
D64*
X87224Y171240D02*
D03*
Y163760D02*
D03*
X77776Y167500D02*
D03*
X77551Y144740D02*
D03*
X87000Y141000D02*
D03*
Y148480D02*
D03*
D65*
X143858Y136500D02*
D03*
X151142D02*
D03*
D66*
X149559Y154500D02*
D03*
X143441D02*
D03*
M02*
