M48
;Layer_Color=9474304
;FILE_FORMAT=2:5
INCH,TZ
;TYPE=PLATED
T1F00S00C0.01000
T3F00S00C0.03543
T4F00S00C0.04016
T5F00S00C0.05118
%
T01
X59487Y66288
X68040Y62600
X74100Y60000
X77400Y70000
X71100Y72600
X81800Y85300
X88000Y88500
X86400Y94700
X95523Y92200
X96600Y99500
Y102500
X90000Y106000
X92000Y114400
X95400Y111500
X85400Y115000
X87700Y128400
X96400Y139300
X104500Y117902
X109300Y116200
X112757Y111000
X112800Y97900
X109400Y99506
X109000Y88400
X116050Y93766
X119657Y96634
X133900Y95200
X135800Y104500
Y114181
X128900Y115100
X136500Y130500
X124800Y143400
X112252Y77300
X102300Y58500
X91900Y62500
X127093Y58741
X59200Y84300
X48400Y83900
X50400Y78846
X72100Y117400
T03
X54500Y88000
Y98000
Y108000
Y118000
X82657Y124500
X92500
X102343
X103000Y144500
X113000
X93000
X83000
T04
X77000Y54000
X87000
X97000
X107000
X117000
X66000Y76000
Y86000
Y96000
Y106000
Y116000
Y126000
T05
X85000Y68500
Y78500
X126000Y122000
Y132000
M30
