G04*
G04 #@! TF.GenerationSoftware,Altium Limited,Altium Designer,23.1.1 (15)*
G04*
G04 Layer_Color=16711935*
%FSLAX25Y25*%
%MOIN*%
G70*
G04*
G04 #@! TF.SameCoordinates,21B55FED-B8B4-48E4-904C-F60C8F1E3AA0*
G04*
G04*
G04 #@! TF.FilePolarity,Negative*
G04*
G01*
G75*
%ADD25R,0.04147X0.05918*%
%ADD26C,0.06706*%
%ADD27R,0.06706X0.06706*%
%ADD28C,0.08477*%
%ADD29R,0.08477X0.08477*%
%ADD30C,0.06312*%
%ADD31C,0.06181*%
%ADD32R,0.06181X0.06181*%
G04:AMPARAMS|DCode=33|XSize=39.37mil|YSize=66.93mil|CornerRadius=19.68mil|HoleSize=0mil|Usage=FLASHONLY|Rotation=270.000|XOffset=0mil|YOffset=0mil|HoleType=Round|Shape=RoundedRectangle|*
%AMROUNDEDRECTD33*
21,1,0.03937,0.02756,0,0,270.0*
21,1,0.00000,0.06693,0,0,270.0*
1,1,0.03937,-0.01378,0.00000*
1,1,0.03937,-0.01378,0.00000*
1,1,0.03937,0.01378,0.00000*
1,1,0.03937,0.01378,0.00000*
%
%ADD33ROUNDEDRECTD33*%
%ADD34R,0.06706X0.06706*%
%ADD35R,0.06784X0.06784*%
%ADD36C,0.06784*%
%ADD37C,0.03800*%
%ADD48R,0.04546X0.05363*%
%ADD49R,0.04152X0.05339*%
%ADD53R,0.05709X0.03740*%
%ADD54R,0.03740X0.05709*%
%ADD59R,0.05918X0.04147*%
%ADD60R,0.03950X0.03950*%
%ADD61R,0.06607X0.02572*%
%ADD62R,0.05918X0.06509*%
%ADD63R,0.03359X0.06804*%
%ADD64R,0.06312X0.04737*%
%ADD65R,0.04800X0.06115*%
%ADD66R,0.05328X0.06115*%
D25*
X141654Y106000D02*
D03*
X148346D02*
D03*
X95154Y73000D02*
D03*
X101846D02*
D03*
X95654Y65500D02*
D03*
X102346D02*
D03*
D26*
X113000Y144500D02*
D03*
X103000D02*
D03*
X93000D02*
D03*
X54500Y88000D02*
D03*
Y98000D02*
D03*
Y108000D02*
D03*
D27*
X83000Y144500D02*
D03*
D28*
X126000Y132000D02*
D03*
X85000Y78500D02*
D03*
D29*
X126000Y122000D02*
D03*
X85000Y68500D02*
D03*
D30*
X82657Y124500D02*
D03*
X92500D02*
D03*
X102343D02*
D03*
D31*
X66000Y76000D02*
D03*
Y86000D02*
D03*
Y96000D02*
D03*
Y106000D02*
D03*
Y116000D02*
D03*
D32*
Y126000D02*
D03*
D33*
X143370Y80165D02*
D03*
Y114181D02*
D03*
D34*
X54500Y118000D02*
D03*
D35*
X117000Y54000D02*
D03*
D36*
X107000D02*
D03*
X97000D02*
D03*
X87000D02*
D03*
X77000D02*
D03*
D37*
X88000Y88500D02*
D03*
X116050Y93766D02*
D03*
X119657Y96634D02*
D03*
X104500Y117902D02*
D03*
X136500Y130500D02*
D03*
X127093Y58741D02*
D03*
X133900Y95200D02*
D03*
X90000Y106000D02*
D03*
X87700Y128400D02*
D03*
X91900Y62500D02*
D03*
X71100Y72600D02*
D03*
X74100Y60000D02*
D03*
X96600Y99500D02*
D03*
X112252Y77300D02*
D03*
X128900Y115100D02*
D03*
X95400Y111500D02*
D03*
X112800Y97900D02*
D03*
X50400Y78846D02*
D03*
X59200Y84300D02*
D03*
X109300Y116200D02*
D03*
X124800Y143400D02*
D03*
X96400Y139300D02*
D03*
X81800Y85300D02*
D03*
X77400Y70000D02*
D03*
X85400Y115000D02*
D03*
X86400Y94700D02*
D03*
X92000Y114400D02*
D03*
X72100Y117400D02*
D03*
X68040Y62600D02*
D03*
X95523Y92200D02*
D03*
X102300Y58500D02*
D03*
X59487Y66288D02*
D03*
X48400Y83900D02*
D03*
X109400Y99506D02*
D03*
X135800Y114181D02*
D03*
Y104500D02*
D03*
X109000Y88400D02*
D03*
X112757Y111000D02*
D03*
X96600Y102500D02*
D03*
D48*
X135052Y121500D02*
D03*
X141948D02*
D03*
X101948Y82000D02*
D03*
X95052D02*
D03*
D49*
X147857Y91000D02*
D03*
X142143D02*
D03*
D53*
X114000Y124339D02*
D03*
Y116661D02*
D03*
D54*
X132839Y72000D02*
D03*
X125161D02*
D03*
D59*
X56000Y78846D02*
D03*
Y72154D02*
D03*
X75500Y75154D02*
D03*
Y81846D02*
D03*
D60*
X68000Y57776D02*
D03*
X71740Y67224D02*
D03*
X64260D02*
D03*
D61*
X79433Y90984D02*
D03*
Y93543D02*
D03*
Y96102D02*
D03*
Y98661D02*
D03*
Y101220D02*
D03*
Y103780D02*
D03*
Y106339D02*
D03*
Y108898D02*
D03*
Y111457D02*
D03*
Y114016D02*
D03*
X102567D02*
D03*
Y111457D02*
D03*
Y108898D02*
D03*
Y106339D02*
D03*
Y103780D02*
D03*
Y101220D02*
D03*
Y98661D02*
D03*
Y96102D02*
D03*
Y93543D02*
D03*
Y90984D02*
D03*
D62*
X112752Y63500D02*
D03*
X119248D02*
D03*
X112252Y71000D02*
D03*
X118748D02*
D03*
D63*
X116500Y106177D02*
D03*
X121500D02*
D03*
X126500D02*
D03*
X131500D02*
D03*
Y84823D02*
D03*
X126500D02*
D03*
X121500D02*
D03*
X116500D02*
D03*
D64*
X114618Y134000D02*
D03*
X104382D02*
D03*
D65*
X147854Y99000D02*
D03*
D66*
X142146D02*
D03*
M02*
