G04*
G04 #@! TF.GenerationSoftware,Altium Limited,Altium Designer,23.1.1 (15)*
G04*
G04 Layer_Color=32768*
%FSLAX25Y25*%
%MOIN*%
G70*
G04*
G04 #@! TF.SameCoordinates,2A32F405-7E1A-4497-8D0E-C4D04B09633D*
G04*
G04*
G04 #@! TF.FilePolarity,Positive*
G04*
G01*
G75*
%ADD11C,0.00394*%
%ADD12C,0.00787*%
%ADD13C,0.01500*%
%ADD62C,0.00197*%
D11*
X67531Y74500D02*
X71469D01*
X69500Y72531D02*
Y76469D01*
X67031Y65000D02*
X70969D01*
X69000Y63031D02*
Y66969D01*
X129000Y70031D02*
Y73969D01*
X127031Y72000D02*
X130969D01*
X110752Y111776D02*
Y141224D01*
X143429D01*
Y111776D02*
Y141224D01*
X110752Y111776D02*
X143429D01*
X74776Y114252D02*
X114224D01*
X74776D02*
Y146929D01*
X114224D01*
Y114252D02*
Y146929D01*
X72276Y58252D02*
X101724D01*
X72276D02*
Y90929D01*
X101724D01*
Y58252D02*
Y90929D01*
D12*
X52106Y130144D02*
X62894D01*
X52106Y68856D02*
Y130144D01*
Y68856D02*
X62894D01*
Y130144D01*
X75555Y88417D02*
Y115583D01*
Y88417D02*
X107445D01*
Y115583D01*
X75555D02*
X107445D01*
X135587Y114886D02*
X150311D01*
X135587Y76146D02*
Y114886D01*
Y76146D02*
X150311D01*
Y114886D01*
X99504Y64307D02*
X113496D01*
Y77693D01*
X99504D02*
X113496D01*
X99504Y64307D02*
Y77693D01*
X62795Y130834D02*
X76205D01*
X62795D02*
Y138166D01*
X76205D01*
Y130834D02*
Y138166D01*
X136705Y59334D02*
Y66666D01*
X123295D02*
X136705D01*
X123295Y59334D02*
Y66666D01*
Y59334D02*
X136705D01*
D13*
X88610Y144654D02*
X102390D01*
X88610D02*
Y151346D01*
X102390D01*
Y144654D02*
Y151346D01*
D62*
X75012Y71547D02*
Y77453D01*
X63988Y71547D02*
Y77453D01*
Y71547D02*
X75012D01*
X63988Y77453D02*
X75012D01*
X74512Y62047D02*
Y67953D01*
X63488Y62047D02*
Y67953D01*
Y62047D02*
X74512D01*
X63488Y67953D02*
X74512D01*
X123488Y74953D02*
X134512D01*
X123488Y69047D02*
X134512D01*
X123488D02*
Y74953D01*
X134512Y69047D02*
Y74953D01*
X122000Y93032D02*
Y96969D01*
X120032Y95000D02*
X123969D01*
X136173Y76299D02*
Y113701D01*
X107827Y76299D02*
X136173D01*
X107827D02*
Y113701D01*
X136173D01*
X70366Y49713D02*
X123634D01*
X70366Y61287D02*
X123634D01*
Y49713D02*
Y61287D01*
X70366Y49713D02*
Y61287D01*
M02*
