G04*
G04 #@! TF.GenerationSoftware,Altium Limited,Altium Designer,23.1.1 (15)*
G04*
G04 Layer_Color=32768*
%FSLAX25Y25*%
%MOIN*%
G70*
G04*
G04 #@! TF.SameCoordinates,B1DE690B-BA36-4FB7-BAA6-9E49350ABFFB*
G04*
G04*
G04 #@! TF.FilePolarity,Positive*
G04*
G01*
G75*
%ADD11C,0.00394*%
%ADD13C,0.00787*%
%ADD15C,0.01500*%
D11*
X100284Y61449D02*
G03*
X100284Y61449I-1969J0D01*
G01*
X98677Y99646D02*
X103677Y94646D01*
Y80354D02*
Y99646D01*
X88323Y80354D02*
X103677D01*
X88323D02*
Y99646D01*
X103677D01*
X97177Y127146D02*
X102177Y122146D01*
Y107854D02*
Y127146D01*
X86823Y107854D02*
X102177D01*
X86823D02*
Y127146D01*
X102177D01*
X142650Y51646D02*
X151350D01*
X142650Y57354D02*
X151350D01*
X142650Y51646D02*
Y57354D01*
X151350Y51646D02*
Y57354D01*
D13*
X136508Y92008D02*
X162492D01*
X136508D02*
Y117992D01*
X162492D01*
Y92008D02*
Y117992D01*
X60063Y160461D02*
X67937D01*
X60063Y155539D02*
Y160461D01*
Y155539D02*
X67937D01*
Y160461D01*
X152331Y68146D02*
Y73854D01*
X143669Y68146D02*
X152331D01*
X143669D02*
Y73854D01*
X152331D01*
D15*
X143563Y39362D02*
X151437D01*
X143563Y34638D02*
Y39362D01*
Y34638D02*
X151437D01*
Y39362D01*
X84142Y39008D02*
X101858D01*
X84142Y64992D02*
X101858D01*
X84142Y39008D02*
Y64992D01*
X101858Y39008D02*
Y64992D01*
M02*
