G04*
G04 #@! TF.GenerationSoftware,Altium Limited,Altium Designer,23.1.1 (15)*
G04*
G04 Layer_Color=32768*
%FSLAX25Y25*%
%MOIN*%
G70*
G04*
G04 #@! TF.SameCoordinates,610C7C08-74D4-44FC-BCD4-38041F97A8CA*
G04*
G04*
G04 #@! TF.FilePolarity,Positive*
G04*
G01*
G75*
%ADD10C,0.00394*%
%ADD14C,0.00787*%
%ADD15C,0.01500*%
%ADD64C,0.00197*%
D10*
X159752Y80276D02*
Y109724D01*
X192429D01*
Y80276D02*
Y109724D01*
X159752Y80276D02*
X192429D01*
X6752Y104776D02*
X39429D01*
Y134224D01*
X6752D02*
X39429D01*
X6752Y104776D02*
Y134224D01*
X132000Y49032D02*
Y52969D01*
X130031Y51000D02*
X133969D01*
X167031Y53000D02*
X170969D01*
X169000Y51031D02*
Y54969D01*
X60031Y157000D02*
X63969D01*
X62000Y155031D02*
Y158969D01*
D14*
X131189Y9000D02*
G03*
X119811Y9000I-5689J0D01*
G01*
D02*
G03*
X131189Y9000I5689J0D01*
G01*
X34500Y28811D02*
G03*
X34500Y40189I0J5689D01*
G01*
D02*
G03*
X34500Y28811I0J-5689D01*
G01*
X160000Y163063D02*
G03*
X160000Y120937I0J-21063D01*
G01*
D02*
G03*
X160000Y163063I0J21063D01*
G01*
X57295Y167334D02*
X70705D01*
X57295D02*
Y174666D01*
X70705D01*
Y167334D02*
Y174666D01*
X126295Y19834D02*
X139705D01*
X126295D02*
Y27166D01*
X139705D01*
Y19834D02*
Y27166D01*
X125610Y35449D02*
X139390D01*
X125610D02*
Y41551D01*
X139390D01*
Y35449D02*
Y41551D01*
X126555Y82917D02*
Y110083D01*
Y82917D02*
X158445D01*
Y110083D01*
X126555D02*
X158445D01*
X39094Y53350D02*
X50906D01*
X39094D02*
Y59650D01*
X50906D01*
Y53350D02*
Y59650D01*
X40701Y74449D02*
X53299D01*
X40701D02*
Y80551D01*
X53299D01*
Y74449D02*
Y80551D01*
X12122Y132909D02*
X34878D01*
X12122D02*
Y144091D01*
X34878D01*
Y132909D02*
Y144091D01*
X175705Y62334D02*
Y69666D01*
X162295D02*
X175705D01*
X162295Y62334D02*
Y69666D01*
Y62334D02*
X175705D01*
D15*
X29110Y152154D02*
X42890D01*
X29110D02*
Y158846D01*
X42890D01*
Y152154D02*
Y158846D01*
X46122Y39091D02*
X68878D01*
Y27909D02*
Y39091D01*
X46122Y27909D02*
X68878D01*
X46122D02*
Y39091D01*
X146217Y35390D02*
X160783D01*
Y21610D02*
Y35390D01*
X146217Y21610D02*
X160783D01*
X146217D02*
Y35390D01*
D64*
X86335Y80327D02*
X115665D01*
Y58673D02*
Y80327D01*
X86335Y58673D02*
X115665D01*
X86335D02*
Y80327D01*
X49173Y92835D02*
Y122165D01*
X70827D01*
Y92835D02*
Y122165D01*
X49173Y92835D02*
X70827D01*
X85835Y114327D02*
X115165D01*
Y92673D02*
Y114327D01*
X85835Y92673D02*
X115165D01*
X85835D02*
Y114327D01*
X15713Y50366D02*
Y103634D01*
X27287Y50366D02*
Y103634D01*
X15713Y50366D02*
X27287D01*
X15713Y103634D02*
X27287D01*
X126685Y47654D02*
X137315D01*
X126685Y54346D02*
X137315D01*
Y47654D02*
Y54346D01*
X126685Y47654D02*
Y54346D01*
X174512Y50047D02*
Y55953D01*
X163488Y50047D02*
Y55953D01*
Y50047D02*
X174512D01*
X163488Y55953D02*
X174512D01*
X67512Y154047D02*
Y159953D01*
X56488Y154047D02*
Y159953D01*
Y154047D02*
X67512D01*
X56488Y159953D02*
X67512D01*
M02*
