G04*
G04 #@! TF.GenerationSoftware,Altium Limited,Altium Designer,23.1.1 (15)*
G04*
G04 Layer_Color=16711935*
%FSLAX25Y25*%
%MOIN*%
G70*
G04*
G04 #@! TF.SameCoordinates,4416291F-A030-49B4-A21B-4109523D90D4*
G04*
G04*
G04 #@! TF.FilePolarity,Positive*
G04*
G01*
G75*
%ADD10C,0.00787*%
%ADD11C,0.00394*%
%ADD14C,0.01500*%
%ADD76C,0.00197*%
D10*
X53673Y176748D02*
X64327D01*
X53673Y170252D02*
Y176748D01*
Y170252D02*
X64327D01*
Y176748D01*
X54173Y160248D02*
X64827D01*
X54173Y153752D02*
Y160248D01*
Y153752D02*
X64827D01*
Y160248D01*
X59673Y78252D02*
X70327D01*
Y84748D01*
X59673D02*
X70327D01*
X59673Y78252D02*
Y84748D01*
X60673Y101748D02*
X71327D01*
X60673Y95252D02*
Y101748D01*
Y95252D02*
X71327D01*
Y101748D01*
X109799Y111866D02*
Y120134D01*
X97201Y111866D02*
X109799D01*
X97201D02*
Y120134D01*
X109799D01*
X154299Y66866D02*
Y75134D01*
X141701Y66866D02*
X154299D01*
X141701D02*
Y75134D01*
X154299D01*
X141201Y117949D02*
Y124051D01*
X153799D01*
Y117949D02*
Y124051D01*
X141201Y117949D02*
X153799D01*
X141358Y151449D02*
Y157551D01*
X151642D01*
Y151449D02*
Y157551D01*
X141358Y151449D02*
X151642D01*
D11*
X100949Y178500D02*
X104886D01*
X102917Y176532D02*
Y180469D01*
X147000Y52532D02*
Y56469D01*
X145032Y54500D02*
X148969D01*
X145532Y136500D02*
X149469D01*
X147500Y134532D02*
Y138469D01*
X100949Y132000D02*
X104886D01*
X102917Y130032D02*
Y133969D01*
X100949Y147500D02*
X104886D01*
X102917Y145532D02*
Y149469D01*
X100949Y163000D02*
X104886D01*
X102917Y161032D02*
Y164969D01*
D14*
X159380Y33457D02*
Y40543D01*
X142057Y33457D02*
X159380D01*
X142057D02*
Y40543D01*
X159380D01*
X150719Y35031D02*
Y38968D01*
X148750Y37000D02*
X152687D01*
X97500Y40531D02*
Y44469D01*
X95531Y42500D02*
X99469D01*
X80079Y27539D02*
X114921D01*
X80079Y57461D02*
X114921D01*
X80079Y27539D02*
Y57461D01*
X114921Y27539D02*
Y57461D01*
X54823Y64488D02*
X70177D01*
X54823Y50512D02*
Y64488D01*
Y50512D02*
X70177D01*
Y64488D01*
X34217Y80890D02*
X48783D01*
X34217Y67110D02*
Y80890D01*
Y67110D02*
X48783D01*
Y80890D01*
X120768Y87512D02*
Y101488D01*
X104232Y87512D02*
X120768D01*
X104232D02*
Y101488D01*
X120768D01*
X75118Y174390D02*
X89882D01*
X75118Y160610D02*
Y174390D01*
Y160610D02*
X89882D01*
Y174390D01*
X89657Y137850D02*
Y151630D01*
X74894Y137850D02*
X89657D01*
X74894D02*
Y151630D01*
X89657D01*
D76*
X46838Y136957D02*
Y144043D01*
X64161D01*
Y136957D02*
Y144043D01*
X46838Y136957D02*
X64161D01*
X55500Y138532D02*
Y142469D01*
X53531Y140500D02*
X57468D01*
X97406Y175350D02*
Y181650D01*
X108429Y175350D02*
Y181650D01*
X97406Y175350D02*
X108429D01*
X97406Y181650D02*
X108429D01*
X141488Y51154D02*
X152512D01*
X141488Y57846D02*
X152512D01*
X141488Y51154D02*
Y57846D01*
X152512Y51154D02*
Y57846D01*
X140807Y132563D02*
Y140437D01*
X154193Y132563D02*
Y140437D01*
X140807Y132563D02*
X154193D01*
X140807Y140437D02*
X154193D01*
X97406Y128850D02*
Y135150D01*
X108429Y128850D02*
Y135150D01*
X97406Y128850D02*
X108429D01*
X97406Y135150D02*
X108429D01*
X97406Y144350D02*
Y150650D01*
X108429Y144350D02*
Y150650D01*
X97406Y144350D02*
X108429D01*
X97406Y150650D02*
X108429D01*
X97406Y159850D02*
Y166150D01*
X108429Y159850D02*
Y166150D01*
X97406Y159850D02*
X108429D01*
X97406Y166150D02*
X108429D01*
M02*
