G04*
G04 #@! TF.GenerationSoftware,Altium Limited,Altium Designer,23.1.1 (15)*
G04*
G04 Layer_Color=2752767*
%FSLAX25Y25*%
%MOIN*%
G70*
G04*
G04 #@! TF.SameCoordinates,610C7C08-74D4-44FC-BCD4-38041F97A8CA*
G04*
G04*
G04 #@! TF.FilePolarity,Positive*
G04*
G01*
G75*
%ADD65C,0.00500*%
%ADD66C,0.00667*%
D65*
X98000Y136500D02*
X96000Y140500D01*
X100000D01*
X98000Y136500D01*
Y168000D02*
X96000Y172000D01*
X100000D01*
X98000Y168000D01*
X58500Y16500D02*
X59500Y18500D01*
X58500Y20500D01*
X60500Y19500D01*
X62500Y20500D01*
X61500Y18500D01*
X62500Y16500D01*
X60500Y17500D01*
X58500Y16500D01*
X68500D02*
X69500Y18500D01*
X68500Y20500D01*
X70500Y19500D01*
X72500Y20500D01*
X71500Y18500D01*
X72500Y16500D01*
X70500Y17500D01*
X68500Y16500D01*
X78500D02*
X79500Y18500D01*
X78500Y20500D01*
X80500Y19500D01*
X82500Y20500D01*
X81500Y18500D01*
X82500Y16500D01*
X80500Y17500D01*
X78500Y16500D01*
X88500D02*
X89500Y18500D01*
X88500Y20500D01*
X90500Y19500D01*
X92500Y20500D01*
X91500Y18500D01*
X92500Y16500D01*
X90500Y17500D01*
X88500Y16500D01*
X173500Y90000D02*
X175500Y92000D01*
X177500Y90000D01*
X175500Y88000D01*
X173500Y90000D01*
Y100000D02*
X175500Y102000D01*
X177500Y100000D01*
X175500Y98000D01*
X173500Y100000D01*
X123500Y7000D02*
Y11000D01*
X127500D01*
Y7000D01*
X123500D01*
X20500Y124500D02*
X22500Y126500D01*
X24500Y124500D01*
X22500Y122500D01*
X20500Y124500D01*
Y114500D02*
X22500Y116500D01*
X24500Y114500D01*
X22500Y112500D01*
X20500Y114500D01*
X124500Y137000D02*
X122500Y141000D01*
X126500D01*
X124500Y137000D01*
Y168500D02*
X122500Y172500D01*
X126500D01*
X124500Y168500D01*
X32500Y32500D02*
Y36500D01*
X36500D01*
Y32500D01*
X32500D01*
X19500Y55000D02*
Y59000D01*
X23500D01*
Y55000D01*
X19500D01*
Y65000D02*
Y69000D01*
X23500D01*
Y65000D01*
X19500D01*
Y75000D02*
Y79000D01*
X23500D01*
Y75000D01*
X19500D01*
Y85000D02*
Y89000D01*
X23500D01*
Y85000D01*
X19500D01*
Y95000D02*
Y99000D01*
X23500D01*
Y95000D01*
X19500D01*
X26500Y136500D02*
Y140500D01*
X30500D01*
Y136500D01*
X26500D01*
X16500D02*
Y140500D01*
X20500D01*
Y136500D01*
X16500D01*
X50500Y31500D02*
Y35500D01*
X54500D01*
Y31500D01*
X50500D01*
X60500D02*
Y35500D01*
X64500D01*
Y31500D01*
X60500D01*
X75500Y82500D02*
X76500Y83500D01*
X77500D01*
X76500Y84500D01*
X77500Y85500D01*
X76500D01*
X75500Y86500D01*
X74500Y85500D01*
X73500D01*
X74500Y84500D01*
X73500Y83500D01*
X74500D01*
X75500Y82500D01*
X165093Y34706D02*
X166093Y35706D01*
X167093D01*
X166093Y36706D01*
X167093Y37706D01*
X166093D01*
X165093Y38706D01*
X164093Y37706D01*
X163093D01*
X164093Y36706D01*
X163093Y35706D01*
X164093D01*
X165093Y34706D01*
X160195Y43268D02*
X161195Y44268D01*
X162195D01*
X161195Y45268D01*
X162195Y46268D01*
X161195D01*
X160195Y47268D01*
X159195Y46268D01*
X158195D01*
X159195Y45268D01*
X158195Y44268D01*
X159195D01*
X160195Y43268D01*
X111500Y35500D02*
X112500Y36500D01*
X113500D01*
X112500Y37500D01*
X113500Y38500D01*
X112500D01*
X111500Y39500D01*
X110500Y38500D01*
X109500D01*
X110500Y37500D01*
X109500Y36500D01*
X110500D01*
X111500Y35500D01*
X118500Y49000D02*
X119500Y50000D01*
X120500D01*
X119500Y51000D01*
X120500Y52000D01*
X119500D01*
X118500Y53000D01*
X117500Y52000D01*
X116500D01*
X117500Y51000D01*
X116500Y50000D01*
X117500D01*
X118500Y49000D01*
X142261Y80761D02*
X143261Y81761D01*
X144261D01*
X143261Y82761D01*
X144261Y83761D01*
X143261D01*
X142261Y84761D01*
X141261Y83761D01*
X140261D01*
X141261Y82761D01*
X140261Y81761D01*
X141261D01*
X142261Y80761D01*
X134800Y73550D02*
X135800Y74550D01*
X136800D01*
X135800Y75550D01*
X136800Y76550D01*
X135800D01*
X134800Y77550D01*
X133800Y76550D01*
X132800D01*
X133800Y75550D01*
X132800Y74550D01*
X133800D01*
X134800Y73550D01*
X49500Y147500D02*
X50500Y148500D01*
X51500D01*
X50500Y149500D01*
X51500Y150500D01*
X50500D01*
X49500Y151500D01*
X48500Y150500D01*
X47500D01*
X48500Y149500D01*
X47500Y148500D01*
X48500D01*
X49500Y147500D01*
X52500Y104325D02*
X53500Y105325D01*
X54500D01*
X53500Y106325D01*
X54500Y107325D01*
X53500D01*
X52500Y108325D01*
X51500Y107325D01*
X50500D01*
X51500Y106325D01*
X50500Y105325D01*
X51500D01*
X52500Y104325D01*
X79000Y88000D02*
X80000Y89000D01*
X81000D01*
X80000Y90000D01*
X81000Y91000D01*
X80000D01*
X79000Y92000D01*
X78000Y91000D01*
X77000D01*
X78000Y90000D01*
X77000Y89000D01*
X78000D01*
X79000Y88000D01*
X90815Y84715D02*
X91815Y85715D01*
X92815D01*
X91815Y86715D01*
X92815Y87715D01*
X91815D01*
X90815Y88715D01*
X89815Y87715D01*
X88815D01*
X89815Y86715D01*
X88815Y85715D01*
X89815D01*
X90815Y84715D01*
X77000Y122500D02*
X78000Y123500D01*
X79000D01*
X78000Y124500D01*
X79000Y125500D01*
X78000D01*
X77000Y126500D01*
X76000Y125500D01*
X75000D01*
X76000Y124500D01*
X75000Y123500D01*
X76000D01*
X77000Y122500D01*
X75250Y107500D02*
X76250Y108500D01*
X77250D01*
X76250Y109500D01*
X77250Y110500D01*
X76250D01*
X75250Y111500D01*
X74250Y110500D01*
X73250D01*
X74250Y109500D01*
X73250Y108500D01*
X74250D01*
X75250Y107500D01*
X111500Y85500D02*
X112500Y86500D01*
X113500D01*
X112500Y87500D01*
X113500Y88500D01*
X112500D01*
X111500Y89500D01*
X110500Y88500D01*
X109500D01*
X110500Y87500D01*
X109500Y86500D01*
X110500D01*
X111500Y85500D01*
X67350Y85321D02*
X68350Y86321D01*
X69350D01*
X68350Y87321D01*
X69350Y88321D01*
X68350D01*
X67350Y89321D01*
X66350Y88321D01*
X65350D01*
X66350Y87321D01*
X65350Y86321D01*
X66350D01*
X67350Y85321D01*
X72032Y39500D02*
X73032Y40500D01*
X74032D01*
X73032Y41500D01*
X74032Y42500D01*
X73032D01*
X72032Y43500D01*
X71032Y42500D01*
X70032D01*
X71032Y41500D01*
X70032Y40500D01*
X71032D01*
X72032Y39500D01*
X62500Y47000D02*
X63500Y48000D01*
X64500D01*
X63500Y49000D01*
X64500Y50000D01*
X63500D01*
X62500Y51000D01*
X61500Y50000D01*
X60500D01*
X61500Y49000D01*
X60500Y48000D01*
X61500D01*
X62500Y47000D01*
X61000Y54000D02*
X62000Y55000D01*
X63000D01*
X62000Y56000D01*
X63000Y57000D01*
X62000D01*
X61000Y58000D01*
X60000Y57000D01*
X59000D01*
X60000Y56000D01*
X59000Y55000D01*
X60000D01*
X61000Y54000D01*
X72032Y32559D02*
X73032Y33559D01*
X74032D01*
X73032Y34559D01*
X74032Y35559D01*
X73032D01*
X72032Y36559D01*
X71032Y35559D01*
X70032D01*
X71032Y34559D01*
X70032Y33559D01*
X71032D01*
X72032Y32559D01*
X83000Y37500D02*
X84000Y38500D01*
X85000D01*
X84000Y39500D01*
X85000Y40500D01*
X84000D01*
X83000Y41500D01*
X82000Y40500D01*
X81000D01*
X82000Y39500D01*
X81000Y38500D01*
X82000D01*
X83000Y37500D01*
X116500Y122000D02*
X117500Y123000D01*
X118500D01*
X117500Y124000D01*
X118500Y125000D01*
X117500D01*
X116500Y126000D01*
X115500Y125000D01*
X114500D01*
X115500Y124000D01*
X114500Y123000D01*
X115500D01*
X116500Y122000D01*
X87500Y52220D02*
X88500Y53220D01*
X89500D01*
X88500Y54220D01*
X89500Y55221D01*
X88500D01*
X87500Y56221D01*
X86500Y55221D01*
X85500D01*
X86500Y54220D01*
X85500Y53220D01*
X86500D01*
X87500Y52220D01*
Y41500D02*
X88500Y42500D01*
X89500D01*
X88500Y43500D01*
X89500Y44500D01*
X88500D01*
X87500Y45500D01*
X86500Y44500D01*
X85500D01*
X86500Y43500D01*
X85500Y42500D01*
X86500D01*
X87500Y41500D01*
Y33150D02*
X88500Y34150D01*
X89500D01*
X88500Y35150D01*
X89500Y36150D01*
X88500D01*
X87500Y37150D01*
X86500Y36150D01*
X85500D01*
X86500Y35150D01*
X85500Y34150D01*
X86500D01*
X87500Y33150D01*
X109000Y27500D02*
X110000Y28500D01*
X111000D01*
X110000Y29500D01*
X111000Y30500D01*
X110000D01*
X109000Y31500D01*
X108000Y30500D01*
X107000D01*
X108000Y29500D01*
X107000Y28500D01*
X108000D01*
X109000Y27500D01*
X93500Y31000D02*
X94500Y32000D01*
X95500D01*
X94500Y33000D01*
X95500Y34000D01*
X94500D01*
X93500Y35000D01*
X92500Y34000D01*
X91500D01*
X92500Y33000D01*
X91500Y32000D01*
X92500D01*
X93500Y31000D01*
X33700Y82400D02*
X34700Y83400D01*
X35700D01*
X34700Y84400D01*
X35700Y85400D01*
X34700D01*
X33700Y86400D01*
X32700Y85400D01*
X31700D01*
X32700Y84400D01*
X31700Y83400D01*
X32700D01*
X33700Y82400D01*
X37900Y103300D02*
X38900Y104300D01*
X39900D01*
X38900Y105300D01*
X39900Y106300D01*
X38900D01*
X37900Y107300D01*
X36900Y106300D01*
X35900D01*
X36900Y105300D01*
X35900Y104300D01*
X36900D01*
X37900Y103300D01*
D66*
X162000Y132157D02*
G03*
X162000Y132157I-2000J0D01*
G01*
Y151843D02*
G03*
X162000Y151843I-2000J0D01*
G01*
M02*
