M48
;Layer_Color=9474304
;FILE_FORMAT=2:5
INCH,TZ
;TYPE=PLATED
T1F00S00C0.01000
T3F00S00C0.03543
T4F00S00C0.04016
T5F00S00C0.05118
%
T01
X60333Y68000
X78000Y88700
X88345Y102055
X92500Y103812
X92256Y98612
X113000Y95100
X122000
X127700
X130600Y87800
X137400
X138100Y93800
X130500Y113000
X112737Y111166
X112500Y105500
X111500Y80000
X118000Y71500
Y67500
X125750Y56050
X104990Y140966
X106146Y144796
X89500Y137800
X50400Y119300
X51000Y99500
T03
X69000Y84000
Y94000
Y104000
Y114000
T04
X57500Y74500
Y84500
Y94500
Y104500
Y114500
Y124500
X77000Y55500
X87000
X97000
X107000
X117000
T05
X82000Y74000
X92000
X94500Y130000
X104500
X84500
X126500Y131500
Y121500
M30
