M48
;Layer_Color=9474304
;FILE_FORMAT=2:5
INCH,TZ
;TYPE=PLATED
T1F00S00C0.01000
T2F00S00C0.03150
T3F00S00C0.04016
T4F00S00C0.05118
T5F00S00C0.08661
%
T01
X69800Y12900
X64500Y36500
X68500Y40800
X97500Y42000
X97000Y35500
X88690Y23009
X119000Y12000
X125250Y13050
X110500Y66000
X103700Y63200
Y74256
X118000Y83510
X137399Y77800
X139360Y91500
X144500Y108000
X154000Y113000
X135039Y114039
X117700Y114000
X98900Y97400
X82400Y84300
X84650Y67179
X81019Y64019
X59200Y70700
X44000Y90500
X38000Y91000
X41000Y110000
X62330Y107670
X71500Y107700
X77300Y114000
X77500Y154100
X117700Y153400
X156700Y82900
X140600Y173500
X45216Y167050
X48100Y162300
X31866
T02
X160000Y132157
Y151843
T03
X34500Y34500
X48000Y27000
X58000
X79236Y19134
X108764
X100500Y6500
X94000Y65000
X21500Y67000
Y57000
Y77000
Y87000
Y97000
X18500Y138500
X28500
X177500Y67000
T04
X22500Y114500
Y124500
X175500Y100000
Y90000
T05
X125000Y137000
Y168500
M30
