G04*
G04 #@! TF.GenerationSoftware,Altium Limited,Altium Designer,23.1.1 (15)*
G04*
G04 Layer_Color=32896*
%FSLAX25Y25*%
%MOIN*%
G70*
G04*
G04 #@! TF.SameCoordinates,2A32F405-7E1A-4497-8D0E-C4D04B09633D*
G04*
G04*
G04 #@! TF.FilePolarity,Positive*
G04*
G01*
G75*
%ADD10C,0.00984*%
%ADD12C,0.00787*%
%ADD13C,0.01500*%
%ADD14C,0.01000*%
%ADD60C,0.02362*%
D10*
X80622Y113417D02*
G03*
X80622Y113417I-492J0D01*
G01*
D12*
X124067Y57071D02*
X133933D01*
X124067Y65929D02*
X133933D01*
X127567Y66071D02*
X137433D01*
X127567Y74929D02*
X137433D01*
X115854Y85201D02*
Y97799D01*
Y85201D02*
X135146D01*
Y97799D01*
X115854D02*
X135146D01*
X115343Y99177D02*
Y105181D01*
X118665Y119803D02*
Y120197D01*
X114335Y119803D02*
Y120197D01*
X64567Y132071D02*
X74433D01*
X64567Y140929D02*
X74433D01*
D13*
X107492Y96291D02*
Y107709D01*
X81508Y96291D02*
Y107709D01*
Y96291D02*
X107492D01*
X81508Y107709D02*
X107492D01*
D14*
X47834Y105332D02*
X48501Y105999D01*
X49834D01*
X50500Y105332D01*
Y102666D01*
X49834Y102000D01*
X48501D01*
X47834Y102666D01*
X43835Y105332D02*
X44502Y105999D01*
X45835D01*
X46501Y105332D01*
Y104666D01*
X45835Y103999D01*
X44502D01*
X43835Y103333D01*
Y102666D01*
X44502Y102000D01*
X45835D01*
X46501Y102666D01*
X78326Y101625D02*
Y105624D01*
X76327D01*
X75660Y104958D01*
Y103625D01*
X76327Y102958D01*
X78326D01*
X76993D02*
X75660Y101625D01*
X104160Y123458D02*
X104827Y124124D01*
X106159D01*
X106826Y123458D01*
Y120792D01*
X106159Y120125D01*
X104827D01*
X104160Y120792D01*
Y122125D01*
X105493D01*
X85420Y123030D02*
Y120365D01*
X84087Y119032D01*
X82754Y120365D01*
Y123030D01*
X136420Y122530D02*
Y119865D01*
X135087Y118532D01*
X133754Y119865D01*
Y122530D01*
X82920Y68030D02*
Y65365D01*
X81587Y64032D01*
X80254Y65365D01*
Y68030D01*
X75334Y114832D02*
X76001Y115499D01*
X77334D01*
X78000Y114832D01*
Y112167D01*
X77334Y111500D01*
X76001D01*
X75334Y112167D01*
Y113499D01*
X76667D01*
X78500Y84999D02*
Y82333D01*
X77167Y81000D01*
X75834Y82333D01*
Y84999D01*
X45834Y94832D02*
X46501Y95499D01*
X47834D01*
X48500Y94832D01*
Y92166D01*
X47834Y91500D01*
X46501D01*
X45834Y92166D01*
X46334Y115832D02*
X47001Y116499D01*
X48334D01*
X49000Y115832D01*
Y113166D01*
X48334Y112500D01*
X47001D01*
X46334Y113166D01*
Y114499D01*
X47667D01*
X69500Y54000D02*
Y57999D01*
X67501D01*
X66834Y57332D01*
Y55999D01*
X67501Y55333D01*
X69500D01*
X68167D02*
X66834Y54000D01*
X88500Y49499D02*
Y45500D01*
X86501D01*
X85834Y46166D01*
Y48832D01*
X86501Y49499D01*
X88500D01*
X95334Y48332D02*
X96001Y48999D01*
X97334D01*
X98000Y48332D01*
Y45666D01*
X97334Y45000D01*
X96001D01*
X95334Y45666D01*
Y46999D01*
X96667D01*
X105834Y48332D02*
X106501Y48999D01*
X107834D01*
X108500Y48332D01*
Y45666D01*
X107834Y45000D01*
X106501D01*
X105834Y45666D01*
X116000Y49499D02*
Y46833D01*
X114667Y45500D01*
X113334Y46833D01*
Y49499D01*
X121330Y59334D02*
Y63333D01*
X119331D01*
X118665Y62666D01*
Y61333D01*
X119331Y60667D01*
X121330D01*
X119997D02*
X118665Y59334D01*
X117332Y58667D02*
X114666D01*
X110667Y62666D02*
X111334Y63333D01*
X112666D01*
X113333Y62666D01*
Y60000D01*
X112666Y59334D01*
X111334D01*
X110667Y60000D01*
X106668Y62666D02*
X107335Y63333D01*
X108668D01*
X109334Y62666D01*
Y60000D01*
X108668Y59334D01*
X107335D01*
X106668Y60000D01*
X102670Y59334D02*
X105335D01*
X102670Y62000D01*
Y62666D01*
X103336Y63333D01*
X104669D01*
X105335Y62666D01*
X141164Y77334D02*
Y81333D01*
X139164D01*
X138498Y80666D01*
Y79333D01*
X139164Y78667D01*
X141164D01*
X139831D02*
X138498Y77334D01*
X137165Y76667D02*
X134499D01*
X130501Y80666D02*
X131167Y81333D01*
X132500D01*
X133167Y80666D01*
Y78000D01*
X132500Y77334D01*
X131167D01*
X130501Y78000D01*
X126502Y80666D02*
X127168Y81333D01*
X128501D01*
X129168Y80666D01*
Y78000D01*
X128501Y77334D01*
X127168D01*
X126502Y78000D01*
X125169Y77334D02*
X123836D01*
X124503D01*
Y81333D01*
X125169Y80666D01*
X118657Y130833D02*
X119323Y131499D01*
X120656D01*
X121322Y130833D01*
Y128167D01*
X120656Y127501D01*
X119323D01*
X118657Y128167D01*
Y129500D01*
X119989D01*
X117324Y127501D02*
Y131499D01*
X115324D01*
X114658Y130833D01*
Y129500D01*
X115324Y128833D01*
X117324D01*
X115991D02*
X114658Y127501D01*
X113325D02*
Y131499D01*
X111992Y130166D01*
X110659Y131499D01*
Y127501D01*
X106660D02*
X109326D01*
X106660Y130166D01*
Y130833D01*
X107327Y131499D01*
X108660D01*
X109326Y130833D01*
X105327Y127501D02*
X103995D01*
X104661D01*
Y131499D01*
X105327Y130833D01*
X101995Y131499D02*
Y127501D01*
X99996D01*
X99329Y128167D01*
Y128833D01*
X99996Y129500D01*
X101995D01*
X99996D01*
X99329Y130166D01*
Y130833D01*
X99996Y131499D01*
X101995D01*
X97996Y127501D02*
Y131499D01*
X95997D01*
X95331Y130833D01*
Y129500D01*
X95997Y128833D01*
X97996D01*
X96663D02*
X95331Y127501D01*
X91332Y131499D02*
X92665Y130833D01*
X93998Y129500D01*
Y128167D01*
X93331Y127501D01*
X91998D01*
X91332Y128167D01*
Y128833D01*
X91998Y129500D01*
X93998D01*
X89999Y127501D02*
X88666D01*
X89333D01*
Y131499D01*
X89999Y130833D01*
X86667Y127501D02*
Y130166D01*
X85334Y131499D01*
X84001Y130166D01*
Y127501D01*
Y129500D01*
X86667D01*
X80669Y127501D02*
Y131499D01*
X82668Y129500D01*
X80002D01*
X78669Y131499D02*
X76003D01*
Y130833D01*
X78669Y128167D01*
Y127501D01*
X72005Y131499D02*
X73338Y130833D01*
X74671Y129500D01*
Y128167D01*
X74004Y127501D01*
X72671D01*
X72005Y128167D01*
Y128833D01*
X72671Y129500D01*
X74671D01*
X70672Y127501D02*
Y131499D01*
X69339Y130166D01*
X68006Y131499D01*
Y127501D01*
X64007Y131499D02*
X66673D01*
Y127501D01*
X64007D01*
X66673Y129500D02*
X65340D01*
X62674Y127501D02*
X61342D01*
X62008D01*
Y131499D01*
X62674Y130833D01*
X56676Y131499D02*
X59342D01*
Y129500D01*
X58009Y130166D01*
X57343D01*
X56676Y129500D01*
Y128167D01*
X57343Y127501D01*
X58676D01*
X59342Y128167D01*
X55344Y131499D02*
Y127501D01*
Y128833D01*
X52678Y131499D01*
X54677Y129500D01*
X52678Y127501D01*
X100831Y143333D02*
X100164Y143999D01*
X98832D01*
X98165Y143333D01*
Y140667D01*
X98832Y140001D01*
X100164D01*
X100831Y140667D01*
Y143333D01*
X96166Y140001D02*
X94833D01*
X94166Y140667D01*
Y142000D01*
X94833Y142666D01*
X96166D01*
X96832Y142000D01*
Y140667D01*
X96166Y140001D01*
X92834Y143999D02*
Y140001D01*
Y142000D01*
X92167Y142666D01*
X90834D01*
X90168Y142000D01*
Y140001D01*
X88835D02*
Y142666D01*
X88168D01*
X87502Y142000D01*
Y140001D01*
Y142000D01*
X86835Y142666D01*
X86169Y142000D01*
Y140001D01*
X122167Y109010D02*
Y110343D01*
Y109677D01*
X126166D01*
X125500Y109010D01*
Y112343D02*
X126166Y113009D01*
Y114342D01*
X125500Y115008D01*
X122834D01*
X122167Y114342D01*
Y113009D01*
X122834Y112343D01*
X125500D01*
X126166Y116341D02*
X122167D01*
X123500D01*
X126166Y119007D01*
X124167Y117008D01*
X122167Y119007D01*
X126166Y127005D02*
Y124339D01*
X124167D01*
X124833Y125672D01*
Y126338D01*
X124167Y127005D01*
X122834D01*
X122167Y126338D01*
Y125005D01*
X122834Y124339D01*
Y128337D02*
X126166Y131670D01*
Y128337D02*
X126833D01*
Y129004D01*
X126166D01*
Y128337D01*
X122167Y131003D02*
X122834D01*
Y131670D01*
X122167D01*
Y131003D01*
X125500Y137001D02*
X126166Y137668D01*
Y139001D01*
X125500Y139667D01*
X122834D01*
X122167Y139001D01*
Y137668D01*
X122834Y137001D01*
X125500D01*
Y141000D02*
X126166Y141666D01*
Y142999D01*
X125500Y143666D01*
X124833D01*
X124167Y142999D01*
X123500Y143666D01*
X122834D01*
X122167Y142999D01*
Y141666D01*
X122834Y141000D01*
X123500D01*
X124167Y141666D01*
X124833Y141000D01*
X125500D01*
X124167Y141666D02*
Y142999D01*
X125500Y144999D02*
X126166Y145665D01*
Y146998D01*
X125500Y147664D01*
X122834D01*
X122167Y146998D01*
Y145665D01*
X122834Y144999D01*
X125500D01*
X126166Y151663D02*
Y148997D01*
X124167D01*
X124833Y150330D01*
Y150997D01*
X124167Y151663D01*
X122834D01*
X122167Y150997D01*
Y149664D01*
X122834Y148997D01*
X122167Y154329D02*
X123500Y152996D01*
X124833D01*
X126166Y154329D01*
X122167Y158994D02*
Y156328D01*
X124833Y158994D01*
X125500D01*
X126166Y158328D01*
Y156995D01*
X125500Y156328D01*
Y160327D02*
X126166Y160994D01*
Y162326D01*
X125500Y162993D01*
X122834D01*
X122167Y162326D01*
Y160994D01*
X122834Y160327D01*
X125500D01*
X122167Y164326D02*
Y165659D01*
Y164992D01*
X126166D01*
X125500Y164326D01*
X122167Y170324D02*
Y167658D01*
X124833Y170324D01*
X125500D01*
X126166Y169657D01*
Y168324D01*
X125500Y167658D01*
X122167Y171657D02*
X123500Y172990D01*
X124833D01*
X126166Y171657D01*
X99324Y128833D02*
X99991Y129499D01*
X101324D01*
X101990Y128833D01*
Y126167D01*
X101324Y125501D01*
X99991D01*
X99324Y126167D01*
X97991Y128833D02*
X97325Y129499D01*
X95992D01*
X95325Y128833D01*
Y126167D01*
X95992Y125501D01*
X97325D01*
X97991Y126167D01*
Y128833D01*
X93993D02*
X93326Y129499D01*
X91993D01*
X91327Y128833D01*
Y128166D01*
X91993Y127500D01*
X91327Y126833D01*
Y126167D01*
X91993Y125501D01*
X93326D01*
X93993Y126167D01*
Y126833D01*
X93326Y127500D01*
X93993Y128166D01*
Y128833D01*
X93326Y127500D02*
X91993D01*
X89994Y128833D02*
X89327Y129499D01*
X87994D01*
X87328Y128833D01*
Y126167D01*
X87994Y125501D01*
X89327D01*
X89994Y126167D01*
Y128833D01*
X83329Y129499D02*
X85995D01*
Y127500D01*
X84662Y128166D01*
X83996D01*
X83329Y127500D01*
Y126167D01*
X83996Y125501D01*
X85329D01*
X85995Y126167D01*
X79331Y128833D02*
X79997Y129499D01*
X81330D01*
X81997Y128833D01*
Y126167D01*
X81330Y125501D01*
X79997D01*
X79331Y126167D01*
X77998Y125501D02*
X76665D01*
X77331D01*
Y129499D01*
X77998Y128833D01*
X74665D02*
X73999Y129499D01*
X72666D01*
X72000Y128833D01*
Y126167D01*
X72666Y125501D01*
X73999D01*
X74665Y126167D01*
Y128833D01*
X68667Y125501D02*
Y129499D01*
X70667Y127500D01*
X68001D01*
X66668Y129499D02*
Y125501D01*
Y126833D01*
X64002Y129499D01*
X66002Y127500D01*
X64002Y125501D01*
X60004Y129499D02*
X62669D01*
Y127500D01*
X61336Y128166D01*
X60670D01*
X60004Y127500D01*
Y126167D01*
X60670Y125501D01*
X62003D01*
X62669Y126167D01*
X58671Y125501D02*
Y129499D01*
X56671D01*
X56005Y128833D01*
Y127500D01*
X56671Y126833D01*
X58671D01*
X57338D02*
X56005Y125501D01*
X54672D02*
Y128166D01*
X53339Y129499D01*
X52006Y128166D01*
Y125501D01*
Y127500D01*
X54672D01*
X50673Y129499D02*
Y125501D01*
X48007D01*
X46674Y129499D02*
X44009D01*
X45342D01*
Y125501D01*
X42676Y129499D02*
Y126167D01*
X42009Y125501D01*
X40676D01*
X40010Y126167D01*
Y129499D01*
X133491Y137333D02*
X132825Y137999D01*
X131492D01*
X130825Y137333D01*
Y134667D01*
X131492Y134001D01*
X132825D01*
X133491Y134667D01*
Y137333D01*
X129493D02*
X128826Y137999D01*
X127493D01*
X126827Y137333D01*
Y136667D01*
X127493Y136000D01*
X126827Y135334D01*
Y134667D01*
X127493Y134001D01*
X128826D01*
X129493Y134667D01*
Y135334D01*
X128826Y136000D01*
X129493Y136667D01*
Y137333D01*
X128826Y136000D02*
X127493D01*
X125494Y137333D02*
X124827Y137999D01*
X123495D01*
X122828Y137333D01*
Y134667D01*
X123495Y134001D01*
X124827D01*
X125494Y134667D01*
Y137333D01*
X118829Y137999D02*
X121495D01*
Y136000D01*
X120162Y136667D01*
X119496D01*
X118829Y136000D01*
Y134667D01*
X119496Y134001D01*
X120829D01*
X121495Y134667D01*
X117497Y137333D02*
X116830Y137999D01*
X115497D01*
X114831Y137333D01*
Y136667D01*
X115497Y136000D01*
X116164D01*
X115497D01*
X114831Y135334D01*
Y134667D01*
X115497Y134001D01*
X116830D01*
X117497Y134667D01*
X110832Y137333D02*
X111498Y137999D01*
X112831D01*
X113498Y137333D01*
Y134667D01*
X112831Y134001D01*
X111498D01*
X110832Y134667D01*
X109499Y134001D02*
X108166D01*
X108833D01*
Y137999D01*
X109499Y137333D01*
X106167D02*
X105500Y137999D01*
X104167D01*
X103501Y137333D01*
Y134667D01*
X104167Y134001D01*
X105500D01*
X106167Y134667D01*
Y137333D01*
X102168D02*
X101502Y137999D01*
X100169D01*
X99502Y137333D01*
Y136667D01*
X100169Y136000D01*
X100835D01*
X100169D01*
X99502Y135334D01*
Y134667D01*
X100169Y134001D01*
X101502D01*
X102168Y134667D01*
X95503Y137999D02*
X96837D01*
X96170D01*
Y134667D01*
X96837Y134001D01*
X97503D01*
X98169Y134667D01*
X94171Y134001D02*
Y136667D01*
X92838Y137999D01*
X91505Y136667D01*
Y134001D01*
Y136000D01*
X94171D01*
X90172Y137999D02*
X87506D01*
X88839D01*
Y134001D01*
X83507D02*
X86173D01*
X83507Y136667D01*
Y137333D01*
X84174Y137999D01*
X85507D01*
X86173Y137333D01*
X82174Y134001D02*
Y136667D01*
X80842Y137999D01*
X79509Y136667D01*
Y134001D01*
Y136000D01*
X82174D01*
D60*
X86626Y103772D02*
G03*
X86626Y103772I-1181J0D01*
G01*
M02*
