G04*
G04 #@! TF.GenerationSoftware,Altium Limited,Altium Designer,23.1.1 (15)*
G04*
G04 Layer_Color=65535*
%FSLAX25Y25*%
%MOIN*%
G70*
G04*
G04 #@! TF.SameCoordinates,21B55FED-B8B4-48E4-904C-F60C8F1E3AA0*
G04*
G04*
G04 #@! TF.FilePolarity,Positive*
G04*
G01*
G75*
%ADD10C,0.01000*%
%ADD11C,0.00984*%
%ADD12C,0.00394*%
%ADD13C,0.00787*%
%ADD14C,0.01500*%
D10*
X148875Y75781D02*
G03*
X140554Y62578I-3875J-6781D01*
G01*
X91000Y153166D02*
X92333Y150500D01*
X93666Y153166D01*
X121666Y145999D02*
Y142000D01*
X119667D01*
X119000Y142666D01*
Y143999D01*
X119667Y144666D01*
X121666D01*
X74333Y142500D02*
X74999D01*
X75666Y143166D01*
Y146499D01*
X73666D01*
X73000Y145832D01*
Y144499D01*
X73666Y143833D01*
X75666D01*
X80500Y49666D02*
Y47000D01*
Y48333D01*
X81166Y48999D01*
X81833Y49666D01*
X82499D01*
X89666Y49999D02*
Y46000D01*
X87666D01*
X87000Y46666D01*
Y47999D01*
X87666Y48666D01*
X89666D01*
X96833Y45500D02*
X97499D01*
X98166Y46166D01*
Y49499D01*
X96166D01*
X95500Y48832D01*
Y47499D01*
X96166Y46833D01*
X98166D01*
X107666Y49166D02*
X105666D01*
X105000Y48499D01*
Y47166D01*
X105666Y46500D01*
X107666D01*
X113000Y49166D02*
X114333Y46500D01*
X115666Y49166D01*
X103666Y113832D02*
X102999Y114499D01*
X101666D01*
X101000Y113832D01*
Y111167D01*
X101666Y110500D01*
X102999D01*
X103666Y111167D01*
Y112499D01*
X102333D01*
X92500Y112000D02*
Y112666D01*
X93166D01*
Y112000D01*
X92500D01*
X100500Y82333D02*
X103166D01*
X101833Y83666D02*
Y81000D01*
X141500Y120999D02*
X144166D01*
X142833D01*
Y117000D01*
X145499Y118999D02*
X148164D01*
X146832Y120332D02*
Y117666D01*
X45500Y106000D02*
Y109999D01*
X47499D01*
X48166Y109332D01*
Y107999D01*
X47499Y107333D01*
X45500D01*
X46833D02*
X48166Y106000D01*
X62666Y134832D02*
X61999Y135499D01*
X60666D01*
X60000Y134832D01*
Y132167D01*
X60666Y131500D01*
X61999D01*
X62666Y132167D01*
Y133499D01*
X61333D01*
X46000Y88999D02*
Y86333D01*
X47333Y85000D01*
X48666Y86333D01*
Y88999D01*
X65001Y67833D02*
X64334Y68499D01*
X63001D01*
X62335Y67833D01*
Y67166D01*
X63001Y66500D01*
X64334D01*
X65001Y65834D01*
Y65167D01*
X64334Y64501D01*
X63001D01*
X62335Y65167D01*
X66334Y64501D02*
Y68499D01*
X68333D01*
X68999Y67833D01*
Y66500D01*
X68333Y65834D01*
X66334D01*
X70332Y68499D02*
X71665D01*
X70999D01*
Y64501D01*
X70332D01*
X71665D01*
X48668Y128499D02*
Y124501D01*
X50668D01*
X51334Y125167D01*
Y125833D01*
X50668Y126500D01*
X48668D01*
X50668D01*
X51334Y127166D01*
Y127833D01*
X50668Y128499D01*
X48668D01*
X52667D02*
Y124501D01*
X55333D01*
X59332Y128499D02*
X56666D01*
Y124501D01*
X59332D01*
X56666Y126500D02*
X57999D01*
D11*
X71988Y109752D02*
G03*
X71988Y109752I-492J0D01*
G01*
X121492Y115579D02*
G03*
X121492Y115579I-492J0D01*
G01*
X66492Y133323D02*
G03*
X66492Y133323I-492J0D01*
G01*
X154197Y86425D02*
G03*
X154197Y86425I-492J0D01*
G01*
X136653Y71500D02*
G03*
X136653Y71500I-492J0D01*
G01*
D12*
X126000Y113732D02*
G03*
X126000Y114126I0J197D01*
G01*
D02*
G03*
X126000Y113732I0J-197D01*
G01*
X85000Y60626D02*
G03*
X85000Y60232I0J-197D01*
G01*
D02*
G03*
X85000Y60626I0J197D01*
G01*
D13*
X70059Y124500D02*
G03*
X70453Y124500I197J0D01*
G01*
D02*
G03*
X70059Y124500I-197J0D01*
G01*
D02*
G03*
X70453Y124500I197J0D01*
G01*
X82717Y113689D02*
X97283D01*
Y87311D02*
Y113689D01*
X82717Y87311D02*
X97283D01*
X82717D02*
Y113689D01*
X78000Y139500D02*
Y149500D01*
X118000D01*
X78000Y139500D02*
X118000D01*
Y149500D01*
X114189Y116213D02*
X138992D01*
Y137787D01*
X114189D02*
X138992D01*
X114189Y116213D02*
Y137787D01*
X73012Y115248D02*
X111988D01*
Y137886D01*
X73012D02*
X111988D01*
X73012Y115248D02*
Y137886D01*
X111551Y82114D02*
X116374D01*
X125626D02*
X130449D01*
X107614Y86051D02*
X111551Y82114D01*
X130449D02*
X134386Y86051D01*
X107614D02*
Y108886D01*
X134386Y86051D02*
Y108886D01*
X125626D02*
X134386D01*
X107614D02*
X116374D01*
X61000Y131250D02*
X71000D01*
X61000Y70750D02*
Y131250D01*
Y70750D02*
X71000D01*
Y131250D01*
X66803Y137165D02*
X67197D01*
X66803Y132835D02*
X67197D01*
X128303Y67165D02*
X128697D01*
X128303Y62835D02*
X128697D01*
X148193Y114575D02*
X148921D01*
X136480D02*
X138547D01*
X136480Y79772D02*
Y114575D01*
X148193Y79772D02*
X148921D01*
X136480D02*
X138547D01*
X148921D02*
Y83098D01*
Y111248D02*
Y114575D01*
X106811Y64457D02*
X108189D01*
X113602Y66327D02*
Y71543D01*
X101398D02*
X104449D01*
X110551D02*
X113602D01*
X101398Y66327D02*
Y71543D01*
X49500Y123000D02*
X59500D01*
Y83000D02*
Y123000D01*
X49500Y83000D02*
Y123000D01*
Y83000D02*
X59500D01*
X73189Y62713D02*
Y84287D01*
X97992D01*
Y62713D02*
Y84287D01*
X73189Y62713D02*
X97992D01*
X71252Y49100D02*
X122748D01*
X71252Y58900D02*
X122748D01*
Y49100D02*
Y58900D01*
X71252Y49100D02*
Y58900D01*
X106256Y77279D02*
Y88721D01*
X97744Y77279D02*
Y88721D01*
D14*
X127500Y68547D02*
Y74453D01*
M02*
