G04*
G04 #@! TF.GenerationSoftware,Altium Limited,Altium Designer,23.1.1 (15)*
G04*
G04 Layer_Color=8421504*
%FSLAX25Y25*%
%MOIN*%
G70*
G04*
G04 #@! TF.SameCoordinates,8F56B089-623F-4E0B-BF77-A0BA02D5B38D*
G04*
G04*
G04 #@! TF.FilePolarity,Positive*
G04*
G01*
G75*
%ADD16R,0.03567X0.05157*%
%ADD17R,0.03963X0.05544*%
%ADD18R,0.03150X0.03150*%
%ADD19R,0.04546X0.05363*%
%ADD20R,0.06004X0.02559*%
%ADD21R,0.04724X0.04724*%
%ADD22R,0.03543X0.04331*%
%ADD23R,0.03543X0.04724*%
%ADD24R,0.04000X0.05315*%
%ADD25R,0.03347X0.05118*%
D16*
X128945Y64000D02*
D03*
X135055D02*
D03*
D17*
X129256Y78000D02*
D03*
X136744D02*
D03*
D18*
X158224Y34500D02*
D03*
X148776Y30760D02*
D03*
Y38240D02*
D03*
D19*
X73448Y181000D02*
D03*
X66552D02*
D03*
X136448Y23500D02*
D03*
X129552D02*
D03*
X165552Y66000D02*
D03*
X172448D02*
D03*
D20*
X122823Y110500D02*
D03*
Y105500D02*
D03*
Y100500D02*
D03*
Y95500D02*
D03*
X144177D02*
D03*
Y100500D02*
D03*
Y105500D02*
D03*
Y110500D02*
D03*
D21*
X136634Y38500D02*
D03*
X128366D02*
D03*
X47634Y167000D02*
D03*
X39366D02*
D03*
D22*
X46480Y50000D02*
D03*
X39000D02*
D03*
D23*
X47134Y63500D02*
D03*
X38866D02*
D03*
D24*
X134756Y51000D02*
D03*
X129244D02*
D03*
D25*
X172346Y53000D02*
D03*
X165654D02*
D03*
X73346Y168500D02*
D03*
X66654D02*
D03*
M02*
