G04*
G04 #@! TF.GenerationSoftware,Altium Limited,Altium Designer,23.1.1 (15)*
G04*
G04 Layer_Color=255*
%FSLAX25Y25*%
%MOIN*%
G70*
G04*
G04 #@! TF.SameCoordinates,610C7C08-74D4-44FC-BCD4-38041F97A8CA*
G04*
G04*
G04 #@! TF.FilePolarity,Positive*
G04*
G01*
G75*
%ADD16R,0.06004X0.02559*%
%ADD17R,0.04546X0.05363*%
%ADD18R,0.02559X0.06004*%
%ADD19R,0.04724X0.04724*%
%ADD20R,0.05906X0.12992*%
%ADD21R,0.05906X0.04724*%
%ADD22R,0.03543X0.04331*%
%ADD23R,0.03543X0.04724*%
%ADD24R,0.04000X0.05315*%
%ADD25R,0.04331X0.02559*%
%ADD26R,0.03347X0.05118*%
%ADD37C,0.06181*%
%ADD40R,0.05118X0.05118*%
%ADD41C,0.05118*%
%ADD42R,0.06181X0.06181*%
%ADD44C,0.11811*%
%ADD45C,0.05906*%
%ADD46R,0.05906X0.05906*%
%ADD47R,0.07677X0.07677*%
%ADD48C,0.07677*%
%ADD49R,0.05984X0.05984*%
%ADD50C,0.05984*%
D16*
X90323Y77000D02*
D03*
Y72000D02*
D03*
Y67000D02*
D03*
Y62000D02*
D03*
X111677D02*
D03*
Y67000D02*
D03*
Y72000D02*
D03*
Y77000D02*
D03*
X89823Y111000D02*
D03*
Y106000D02*
D03*
Y101000D02*
D03*
Y96000D02*
D03*
X111177D02*
D03*
Y101000D02*
D03*
Y106000D02*
D03*
Y111000D02*
D03*
D17*
X67448Y171000D02*
D03*
X60552D02*
D03*
X136448Y23500D02*
D03*
X129552D02*
D03*
X165552Y66000D02*
D03*
X172448D02*
D03*
D18*
X52500Y96823D02*
D03*
X57500D02*
D03*
X62500D02*
D03*
X67500D02*
D03*
Y118177D02*
D03*
X62500D02*
D03*
X57500D02*
D03*
X52500D02*
D03*
D19*
X136634Y38500D02*
D03*
X128366D02*
D03*
X40134Y155500D02*
D03*
X31866D02*
D03*
D20*
X155098Y96500D02*
D03*
D21*
X129902Y87445D02*
D03*
Y96500D02*
D03*
Y105555D02*
D03*
D22*
X48740Y56500D02*
D03*
X41260D02*
D03*
D23*
X51134Y77500D02*
D03*
X42866D02*
D03*
D24*
X134756Y51000D02*
D03*
X129244D02*
D03*
D25*
X149366Y32280D02*
D03*
Y24720D02*
D03*
X157634Y28500D02*
D03*
D26*
X172346Y53000D02*
D03*
X165654D02*
D03*
X65346Y157000D02*
D03*
X58654D02*
D03*
D37*
X125500Y9000D02*
D03*
X34500Y34500D02*
D03*
X18500Y138500D02*
D03*
X62500Y33500D02*
D03*
D40*
X160000Y132157D02*
D03*
D41*
Y151843D02*
D03*
D42*
X28500Y138500D02*
D03*
X52500Y33500D02*
D03*
D44*
X98000Y138500D02*
D03*
Y170000D02*
D03*
X124500Y139000D02*
D03*
Y170500D02*
D03*
D45*
X60500Y18500D02*
D03*
X70500D02*
D03*
X80500D02*
D03*
D46*
X90500D02*
D03*
D47*
X175500Y90000D02*
D03*
X22500Y114500D02*
D03*
D48*
X175500Y100000D02*
D03*
X22500Y124500D02*
D03*
D49*
X21500Y57000D02*
D03*
D50*
Y67000D02*
D03*
Y77000D02*
D03*
Y87000D02*
D03*
Y97000D02*
D03*
M02*
