G04*
G04 #@! TF.GenerationSoftware,Altium Limited,Altium Designer,23.1.1 (15)*
G04*
G04 Layer_Color=128*
%FSLAX25Y25*%
%MOIN*%
G70*
G04*
G04 #@! TF.SameCoordinates,610C7C08-74D4-44FC-BCD4-38041F97A8CA*
G04*
G04*
G04 #@! TF.FilePolarity,Positive*
G04*
G01*
G75*
%ADD24R,0.04000X0.05315*%
%ADD25R,0.04331X0.02559*%
%ADD52R,0.13780X0.11811*%
%ADD53R,0.05512X0.03937*%
%ADD54O,0.08268X0.01000*%
G04:AMPARAMS|DCode=55|XSize=43.31mil|YSize=23.62mil|CornerRadius=2.01mil|HoleSize=0mil|Usage=FLASHONLY|Rotation=180.000|XOffset=0mil|YOffset=0mil|HoleType=Round|Shape=RoundedRectangle|*
%AMROUNDEDRECTD55*
21,1,0.04331,0.01961,0,0,180.0*
21,1,0.03929,0.02362,0,0,180.0*
1,1,0.00402,-0.01965,0.00980*
1,1,0.00402,0.01965,0.00980*
1,1,0.00402,0.01965,-0.00980*
1,1,0.00402,-0.01965,-0.00980*
%
%ADD55ROUNDEDRECTD55*%
%ADD56R,0.04349X0.05339*%
%ADD57R,0.04152X0.05339*%
%ADD58R,0.03740X0.05512*%
%ADD59R,0.04528X0.05315*%
D24*
X144146Y54500D02*
D03*
D25*
X48634Y87280D02*
D03*
Y79720D02*
D03*
X40366Y83500D02*
D03*
D52*
X149500Y95157D02*
D03*
Y114843D02*
D03*
D53*
X59382Y142000D02*
D03*
X69618D02*
D03*
X152618Y37000D02*
D03*
X142382D02*
D03*
D54*
X76583Y49484D02*
D03*
Y52043D02*
D03*
Y54602D02*
D03*
Y57161D02*
D03*
Y59720D02*
D03*
Y62280D02*
D03*
Y64839D02*
D03*
Y67398D02*
D03*
Y69957D02*
D03*
Y72516D02*
D03*
X99417Y49484D02*
D03*
Y52043D02*
D03*
Y54602D02*
D03*
Y57161D02*
D03*
Y59720D02*
D03*
Y62280D02*
D03*
Y64839D02*
D03*
Y67398D02*
D03*
Y69957D02*
D03*
Y72516D02*
D03*
D55*
X49618Y66240D02*
D03*
Y62500D02*
D03*
Y58760D02*
D03*
X39382D02*
D03*
Y62500D02*
D03*
Y66240D02*
D03*
D56*
X66759Y173500D02*
D03*
X61241D02*
D03*
X62241Y108000D02*
D03*
X67759D02*
D03*
Y123500D02*
D03*
X62241D02*
D03*
D57*
X66857Y158000D02*
D03*
X61143D02*
D03*
D58*
X144358Y71000D02*
D03*
X151642D02*
D03*
D59*
X149854Y54500D02*
D03*
M02*
