G04*
G04 #@! TF.GenerationSoftware,Altium Limited,Altium Designer,23.1.1 (15)*
G04*
G04 Layer_Color=128*
%FSLAX25Y25*%
%MOIN*%
G70*
G04*
G04 #@! TF.SameCoordinates,1AAF2E7D-96E3-414E-BA3B-76B57EA757C3*
G04*
G04*
G04 #@! TF.FilePolarity,Positive*
G04*
G01*
G75*
%ADD32C,0.00500*%
D32*
X208895Y267500D02*
X212438D01*
X210667Y265728D02*
Y269272D01*
X198895Y267500D02*
X202438D01*
X200667Y265728D02*
Y269272D01*
X188895Y267500D02*
X192438D01*
X190667Y265728D02*
Y269272D01*
X178895Y267500D02*
X182438D01*
X180667Y265728D02*
Y269272D01*
X182562Y17000D02*
X186105D01*
X184333Y15228D02*
Y18772D01*
X192562Y17000D02*
X196105D01*
X194333Y15228D02*
Y18772D01*
X202562Y17000D02*
X206105D01*
X204333Y15228D02*
Y18772D01*
X212562Y17000D02*
X216105D01*
X214333Y15228D02*
Y18772D01*
X182562Y45500D02*
X186105D01*
X184333Y43728D02*
Y47272D01*
X192562Y45500D02*
X196105D01*
X194333Y43728D02*
Y47272D01*
X202562Y45500D02*
X206105D01*
X204333Y43728D02*
Y47272D01*
X212562Y45500D02*
X216105D01*
X214333Y43728D02*
Y47272D01*
X336787Y175508D02*
X341512D01*
X339150Y173146D02*
Y177870D01*
X336787Y141492D02*
X341512D01*
X339150Y139130D02*
Y143854D01*
X321827Y175508D02*
X326551D01*
X324189Y173146D02*
Y177870D01*
X321827Y141492D02*
X326551D01*
X324189Y139130D02*
Y143854D01*
X273228Y267000D02*
X276772D01*
X275000Y265228D02*
Y268772D01*
X263228Y267000D02*
X266772D01*
X265000Y265228D02*
Y268772D01*
X253228Y267000D02*
X256772D01*
X255000Y265228D02*
Y268772D01*
X243228Y267000D02*
X246772D01*
X245000Y265228D02*
Y268772D01*
X273228Y295500D02*
X276772D01*
X275000Y293728D02*
Y297272D01*
X263228Y295500D02*
X266772D01*
X265000Y293728D02*
Y297272D01*
X253228Y295500D02*
X256772D01*
X255000Y293728D02*
Y297272D01*
X243228Y295500D02*
X246772D01*
X245000Y293728D02*
Y297272D01*
X208895Y295000D02*
X212438D01*
X210667Y293228D02*
Y296772D01*
X198895Y295000D02*
X202438D01*
X200667Y293228D02*
Y296772D01*
X188895Y295000D02*
X192438D01*
X190667Y293228D02*
Y296772D01*
X178895Y295000D02*
X182438D01*
X180667Y293228D02*
Y296772D01*
X149062Y267000D02*
X152605D01*
X150833Y265228D02*
Y268772D01*
X139062Y267000D02*
X142605D01*
X140833Y265228D02*
Y268772D01*
X129062Y267000D02*
X132605D01*
X130833Y265228D02*
Y268772D01*
X119062Y267000D02*
X122605D01*
X120833Y265228D02*
Y268772D01*
X149062Y294500D02*
X152605D01*
X150833Y292728D02*
Y296272D01*
X139062Y294500D02*
X142605D01*
X140833Y292728D02*
Y296272D01*
X129062Y294500D02*
X132605D01*
X130833Y292728D02*
Y296272D01*
X119062Y294500D02*
X122605D01*
X120833Y292728D02*
Y296272D01*
X84228Y268000D02*
X87772D01*
X86000Y266228D02*
Y269772D01*
X74228Y268000D02*
X77772D01*
X76000Y266228D02*
Y269772D01*
X64228Y268000D02*
X67772D01*
X66000Y266228D02*
Y269772D01*
X54228Y268000D02*
X57772D01*
X56000Y266228D02*
Y269772D01*
X84228Y295000D02*
X87772D01*
X86000Y293228D02*
Y296772D01*
X74228Y295000D02*
X77772D01*
X76000Y293228D02*
Y296772D01*
X64228Y295000D02*
X67772D01*
X66000Y293228D02*
Y296772D01*
X54228Y295000D02*
X57772D01*
X56000Y293228D02*
Y296772D01*
X243728Y45500D02*
X247272D01*
X245500Y43728D02*
Y47272D01*
X253728Y45500D02*
X257272D01*
X255500Y43728D02*
Y47272D01*
X263728Y45500D02*
X267272D01*
X265500Y43728D02*
Y47272D01*
X273728Y45500D02*
X277272D01*
X275500Y43728D02*
Y47272D01*
X243728Y17000D02*
X247272D01*
X245500Y15228D02*
Y18772D01*
X253728Y17000D02*
X257272D01*
X255500Y15228D02*
Y18772D01*
X263728Y17000D02*
X267272D01*
X265500Y15228D02*
Y18772D01*
X273728Y17000D02*
X277272D01*
X275500Y15228D02*
Y18772D01*
X121395Y45500D02*
X124938D01*
X123167Y43728D02*
Y47272D01*
X131395Y45500D02*
X134938D01*
X133167Y43728D02*
Y47272D01*
X141395Y45500D02*
X144938D01*
X143167Y43728D02*
Y47272D01*
X151395Y45500D02*
X154938D01*
X153167Y43728D02*
Y47272D01*
X121395Y17000D02*
X124938D01*
X123167Y15228D02*
Y18772D01*
X131395Y17000D02*
X134938D01*
X133167Y15228D02*
Y18772D01*
X141395Y17000D02*
X144938D01*
X143167Y15228D02*
Y18772D01*
X151395Y17000D02*
X154938D01*
X153167Y15228D02*
Y18772D01*
X60228Y45500D02*
X63772D01*
X62000Y43728D02*
Y47272D01*
X70228Y45500D02*
X73772D01*
X72000Y43728D02*
Y47272D01*
X80228Y45500D02*
X83772D01*
X82000Y43728D02*
Y47272D01*
X90228Y45500D02*
X93772D01*
X92000Y43728D02*
Y47272D01*
X60228Y17000D02*
X63772D01*
X62000Y15228D02*
Y18772D01*
X70228Y17000D02*
X73772D01*
X72000Y15228D02*
Y18772D01*
X80228Y17000D02*
X83772D01*
X82000Y15228D02*
Y18772D01*
X90228Y17000D02*
X93772D01*
X92000Y15228D02*
Y18772D01*
X104100Y142500D02*
X106900D01*
X105500Y141100D02*
Y143900D01*
X209800Y160200D02*
X212600D01*
X211200Y158800D02*
Y161600D01*
X294000Y156200D02*
X296800D01*
X295400Y154800D02*
Y157600D01*
M02*
