G04*
G04 #@! TF.GenerationSoftware,Altium Limited,Altium Designer,23.1.1 (15)*
G04*
G04 Layer_Color=32768*
%FSLAX25Y25*%
%MOIN*%
G70*
G04*
G04 #@! TF.SameCoordinates,1AAF2E7D-96E3-414E-BA3B-76B57EA757C3*
G04*
G04*
G04 #@! TF.FilePolarity,Positive*
G04*
G01*
G75*
%ADD11C,0.00787*%
D11*
X342449Y196610D02*
X348551D01*
Y210390D01*
X342449D02*
X348551D01*
X342449Y196610D02*
Y210390D01*
X320449Y138933D02*
X350075D01*
Y178067D01*
X320449D02*
X350075D01*
X320449Y138933D02*
Y178067D01*
X120555Y143917D02*
Y171083D01*
Y143917D02*
X152445D01*
Y171083D01*
X120555D02*
X152445D01*
X198205Y172334D02*
Y179666D01*
X184795D02*
X198205D01*
X184795Y172334D02*
Y179666D01*
Y172334D02*
X198205D01*
X79327Y143752D02*
Y150248D01*
X68673D02*
X79327D01*
X68673Y143752D02*
Y150248D01*
Y143752D02*
X79327D01*
X195827Y151752D02*
Y158248D01*
X185173D02*
X195827D01*
X185173Y151752D02*
Y158248D01*
Y151752D02*
X195827D01*
X79327Y165752D02*
Y172248D01*
X68673D02*
X79327D01*
X68673Y165752D02*
Y172248D01*
Y165752D02*
X79327D01*
X195827Y131252D02*
Y137748D01*
X185173D02*
X195827D01*
X185173Y131252D02*
Y137748D01*
Y131252D02*
X195827D01*
M02*
