G04*
G04 #@! TF.GenerationSoftware,Altium Limited,Altium Designer,23.1.1 (15)*
G04*
G04 Layer_Color=16711935*
%FSLAX25Y25*%
%MOIN*%
G70*
G04*
G04 #@! TF.SameCoordinates,1AAF2E7D-96E3-414E-BA3B-76B57EA757C3*
G04*
G04*
G04 #@! TF.FilePolarity,Positive*
G04*
G01*
G75*
%ADD11C,0.00787*%
D11*
X342843Y199366D02*
X348157D01*
Y207634D01*
X342843D02*
X348157D01*
X342843Y199366D02*
Y207634D01*
X322319Y140409D02*
X349681D01*
Y176591D01*
X322319D02*
X349681D01*
X322319Y140409D02*
Y176591D01*
X129217Y144311D02*
Y170689D01*
Y144311D02*
X143783D01*
Y170689D01*
X129217D02*
X143783D01*
X195437Y173539D02*
Y178461D01*
X187563D02*
X195437D01*
X187563Y173539D02*
Y178461D01*
Y173539D02*
X195437D01*
X77937Y144539D02*
Y149461D01*
X70063D02*
X77937D01*
X70063Y144539D02*
Y149461D01*
Y144539D02*
X77937D01*
X194437Y152539D02*
Y157461D01*
X186563D02*
X194437D01*
X186563Y152539D02*
Y157461D01*
Y152539D02*
X194437D01*
X77937Y166539D02*
Y171461D01*
X70063D02*
X77937D01*
X70063Y166539D02*
Y171461D01*
Y166539D02*
X77937D01*
X194437Y132039D02*
Y136961D01*
X186563D02*
X194437D01*
X186563Y132039D02*
Y136961D01*
Y132039D02*
X194437D01*
M02*
