G04*
G04 #@! TF.GenerationSoftware,Altium Limited,Altium Designer,23.1.1 (15)*
G04*
G04 Layer_Color=16711935*
%FSLAX25Y25*%
%MOIN*%
G70*
G04*
G04 #@! TF.SameCoordinates,1AAF2E7D-96E3-414E-BA3B-76B57EA757C3*
G04*
G04*
G04 #@! TF.FilePolarity,Positive*
G04*
G01*
G75*
%ADD11C,0.00787*%
G36*
X344352Y219124D02*
X344385Y219121D01*
X344423Y219118D01*
X344467Y219113D01*
X344516Y219107D01*
X344568Y219099D01*
X344622Y219088D01*
X344680Y219077D01*
X344737Y219061D01*
X344797Y219042D01*
X344854Y219023D01*
X344914Y218998D01*
X344972Y218971D01*
X344974Y218968D01*
X344985Y218963D01*
X345002Y218954D01*
X345021Y218944D01*
X345045Y218927D01*
X345075Y218908D01*
X345108Y218884D01*
X345144Y218859D01*
X345179Y218829D01*
X345217Y218796D01*
X345256Y218758D01*
X345294Y218720D01*
X345329Y218679D01*
X345365Y218632D01*
X345400Y218583D01*
X345430Y218531D01*
X345433Y218529D01*
X345436Y218518D01*
X345444Y218504D01*
X345455Y218482D01*
X345466Y218455D01*
X345479Y218425D01*
X345493Y218389D01*
X345507Y218349D01*
X345520Y218305D01*
X345534Y218258D01*
X345548Y218207D01*
X345559Y218155D01*
X345578Y218040D01*
X345581Y217980D01*
X345583Y217920D01*
Y217884D01*
X345581Y217860D01*
X345578Y217830D01*
X345575Y217792D01*
X345569Y217753D01*
X345561Y217707D01*
X345553Y217660D01*
X345542Y217609D01*
X345529Y217557D01*
X345512Y217502D01*
X345493Y217448D01*
X345468Y217393D01*
X345444Y217338D01*
X345414Y217284D01*
X345411Y217281D01*
X345406Y217273D01*
X345395Y217256D01*
X345381Y217237D01*
X345365Y217215D01*
X345343Y217188D01*
X345318Y217158D01*
X345291Y217125D01*
X345258Y217090D01*
X345223Y217057D01*
X345185Y217022D01*
X345144Y216986D01*
X345097Y216951D01*
X345051Y216918D01*
X344999Y216888D01*
X344944Y216858D01*
X344942Y216855D01*
X344931Y216852D01*
X344914Y216844D01*
X344893Y216836D01*
X344865Y216825D01*
X344832Y216814D01*
X344797Y216801D01*
X344753Y216787D01*
X344710Y216773D01*
X344660Y216760D01*
X344609Y216749D01*
X344554Y216738D01*
X344439Y216721D01*
X344376Y216719D01*
X344317Y216716D01*
X344314D01*
X344308D01*
X344300D01*
X344289D01*
X344273Y216719D01*
X344256D01*
X344213Y216721D01*
X344161Y216727D01*
X344098Y216735D01*
X344033Y216743D01*
X343959Y216757D01*
X343880Y216776D01*
X343800Y216798D01*
X343719Y216825D01*
X343637Y216858D01*
X343555Y216896D01*
X343478Y216940D01*
X343402Y216992D01*
X343334Y217052D01*
X343331Y217054D01*
X343317Y217068D01*
X343301Y217087D01*
X343279Y217112D01*
X343252Y217147D01*
X343222Y217185D01*
X343189Y217232D01*
X343156Y217286D01*
X343124Y217347D01*
X343091Y217412D01*
X343061Y217483D01*
X343033Y217562D01*
X343011Y217644D01*
X342995Y217731D01*
X342982Y217824D01*
X342979Y217923D01*
Y217955D01*
X342982Y217980D01*
X342984Y218013D01*
X342987Y218048D01*
X342992Y218086D01*
X343001Y218130D01*
X343009Y218179D01*
X343020Y218228D01*
X343033Y218280D01*
X343050Y218335D01*
X343069Y218389D01*
X343091Y218444D01*
X343115Y218496D01*
X343145Y218550D01*
X343148Y218553D01*
X343154Y218564D01*
X343162Y218578D01*
X343175Y218597D01*
X343192Y218621D01*
X343214Y218646D01*
X343238Y218676D01*
X343265Y218709D01*
X343298Y218744D01*
X343334Y218780D01*
X343372Y218815D01*
X343413Y218851D01*
X343457Y218884D01*
X343506Y218919D01*
X343558Y218949D01*
X343612Y218979D01*
X343615Y218982D01*
X343626Y218985D01*
X343642Y218993D01*
X343664Y219001D01*
X343691Y219015D01*
X343727Y219025D01*
X343765Y219039D01*
X343809Y219053D01*
X343855Y219067D01*
X343907Y219080D01*
X343964Y219094D01*
X344022Y219105D01*
X344084Y219113D01*
X344150Y219121D01*
X344215Y219124D01*
X344286Y219127D01*
X344292D01*
X344303D01*
X344325D01*
X344352Y219124D01*
D02*
G37*
G36*
X344344Y216356D02*
X344374D01*
X344407Y216353D01*
X344442Y216350D01*
X344521Y216342D01*
X344606Y216328D01*
X344693Y216312D01*
X344781Y216290D01*
X344783D01*
X344792Y216287D01*
X344802Y216282D01*
X344816Y216279D01*
X344835Y216271D01*
X344857Y216263D01*
X344909Y216244D01*
X344966Y216219D01*
X345029Y216189D01*
X345089Y216156D01*
X345146Y216118D01*
X345149D01*
X345152Y216113D01*
X345160Y216107D01*
X345171Y216099D01*
X345196Y216080D01*
X345228Y216050D01*
X345267Y216017D01*
X345305Y215979D01*
X345340Y215935D01*
X345376Y215889D01*
Y215886D01*
X345378Y215883D01*
X345389Y215867D01*
X345403Y215840D01*
X345422Y215804D01*
X345441Y215760D01*
X345463Y215709D01*
X345482Y215649D01*
X345501Y215586D01*
Y215583D01*
X345504Y215578D01*
Y215569D01*
X345507Y215556D01*
X345510Y215539D01*
X345515Y215517D01*
X345518Y215496D01*
X345520Y215471D01*
X345529Y215411D01*
X345537Y215343D01*
X345539Y215266D01*
X345542Y215184D01*
Y214275D01*
X343022D01*
Y215214D01*
X343025Y215242D01*
Y215275D01*
X343028Y215307D01*
X343031Y215381D01*
X343039Y215455D01*
X343047Y215528D01*
X343055Y215561D01*
X343061Y215591D01*
Y215594D01*
X343063Y215602D01*
X343066Y215613D01*
X343072Y215627D01*
X343077Y215646D01*
X343082Y215668D01*
X343102Y215720D01*
X343126Y215777D01*
X343156Y215837D01*
X343194Y215900D01*
X343241Y215960D01*
X343244Y215962D01*
X343249Y215968D01*
X343257Y215979D01*
X343271Y215992D01*
X343287Y216009D01*
X343309Y216028D01*
X343331Y216050D01*
X343358Y216072D01*
X343388Y216096D01*
X343421Y216121D01*
X343457Y216145D01*
X343495Y216170D01*
X343579Y216216D01*
X343672Y216257D01*
X343675D01*
X343683Y216263D01*
X343700Y216266D01*
X343719Y216274D01*
X343743Y216282D01*
X343773Y216290D01*
X343806Y216298D01*
X343844Y216309D01*
X343888Y216317D01*
X343934Y216325D01*
X343983Y216334D01*
X344035Y216342D01*
X344090Y216350D01*
X344147Y216353D01*
X344270Y216358D01*
X344273D01*
X344284D01*
X344297D01*
X344319D01*
X344344Y216356D01*
D02*
G37*
G36*
X345542Y212304D02*
X343022D01*
Y212637D01*
X345245D01*
Y213879D01*
X345542D01*
Y212304D01*
D02*
G37*
G36*
X346241Y210036D02*
X346017D01*
Y212086D01*
X346241D01*
Y210036D01*
D02*
G37*
G36*
X344344Y209899D02*
X344374D01*
X344407Y209896D01*
X344442Y209894D01*
X344521Y209886D01*
X344606Y209872D01*
X344693Y209855D01*
X344781Y209834D01*
X344783D01*
X344792Y209831D01*
X344802Y209825D01*
X344816Y209823D01*
X344835Y209815D01*
X344857Y209806D01*
X344909Y209787D01*
X344966Y209763D01*
X345029Y209733D01*
X345089Y209700D01*
X345146Y209662D01*
X345149D01*
X345152Y209656D01*
X345160Y209651D01*
X345171Y209643D01*
X345196Y209623D01*
X345228Y209593D01*
X345267Y209561D01*
X345305Y209522D01*
X345340Y209479D01*
X345376Y209432D01*
Y209430D01*
X345378Y209427D01*
X345389Y209410D01*
X345403Y209383D01*
X345422Y209348D01*
X345441Y209304D01*
X345463Y209252D01*
X345482Y209192D01*
X345501Y209129D01*
Y209126D01*
X345504Y209121D01*
Y209113D01*
X345507Y209099D01*
X345510Y209083D01*
X345515Y209061D01*
X345518Y209039D01*
X345520Y209015D01*
X345529Y208955D01*
X345537Y208886D01*
X345539Y208810D01*
X345542Y208728D01*
Y207819D01*
X343022D01*
Y208758D01*
X343025Y208785D01*
Y208818D01*
X343028Y208851D01*
X343031Y208925D01*
X343039Y208998D01*
X343047Y209072D01*
X343055Y209105D01*
X343061Y209135D01*
Y209137D01*
X343063Y209146D01*
X343066Y209157D01*
X343072Y209170D01*
X343077Y209189D01*
X343082Y209211D01*
X343102Y209263D01*
X343126Y209320D01*
X343156Y209380D01*
X343194Y209443D01*
X343241Y209503D01*
X343244Y209506D01*
X343249Y209511D01*
X343257Y209522D01*
X343271Y209536D01*
X343287Y209552D01*
X343309Y209572D01*
X343331Y209593D01*
X343358Y209615D01*
X343388Y209640D01*
X343421Y209664D01*
X343457Y209689D01*
X343495Y209714D01*
X343579Y209760D01*
X343672Y209801D01*
X343675D01*
X343683Y209806D01*
X343700Y209809D01*
X343719Y209817D01*
X343743Y209825D01*
X343773Y209834D01*
X343806Y209842D01*
X343844Y209853D01*
X343888Y209861D01*
X343934Y209869D01*
X343983Y209877D01*
X344035Y209886D01*
X344090Y209894D01*
X344147Y209896D01*
X344270Y209902D01*
X344273D01*
X344284D01*
X344297D01*
X344319D01*
X344344Y209899D01*
D02*
G37*
G36*
X345542Y205479D02*
X343022D01*
Y207303D01*
X343320D01*
Y205812D01*
X344090D01*
Y207207D01*
X344387D01*
Y205812D01*
X345245D01*
Y207360D01*
X345542D01*
Y205479D01*
D02*
G37*
G36*
Y203500D02*
X343022D01*
Y203833D01*
X345245D01*
Y205075D01*
X345542D01*
Y203500D01*
D02*
G37*
G36*
X335962Y166463D02*
X333994D01*
X333999Y166458D01*
X334013Y166444D01*
X334032Y166420D01*
X334059Y166384D01*
X334092Y166343D01*
X334127Y166291D01*
X334166Y166234D01*
X334207Y166169D01*
Y166166D01*
X334212Y166160D01*
X334218Y166152D01*
X334223Y166139D01*
X334234Y166122D01*
X334242Y166103D01*
X334267Y166059D01*
X334291Y166010D01*
X334318Y165956D01*
X334343Y165898D01*
X334365Y165844D01*
X334067D01*
X334065Y165846D01*
X334062Y165855D01*
X334054Y165868D01*
X334046Y165887D01*
X334035Y165909D01*
X334018Y165937D01*
X334002Y165967D01*
X333985Y165997D01*
X333942Y166068D01*
X333890Y166144D01*
X333835Y166223D01*
X333772Y166297D01*
X333770Y166300D01*
X333764Y166305D01*
X333756Y166316D01*
X333742Y166330D01*
X333726Y166343D01*
X333710Y166362D01*
X333663Y166403D01*
X333614Y166450D01*
X333557Y166496D01*
X333497Y166537D01*
X333434Y166573D01*
Y166772D01*
X335962D01*
Y166463D01*
D02*
G37*
G36*
X335279Y165270D02*
X335296D01*
X335339Y165265D01*
X335391Y165254D01*
X335446Y165240D01*
X335506Y165221D01*
X335563Y165197D01*
X335566D01*
X335569Y165194D01*
X335577Y165189D01*
X335588Y165183D01*
X335615Y165167D01*
X335648Y165145D01*
X335686Y165120D01*
X335724Y165087D01*
X335763Y165052D01*
X335798Y165011D01*
X335801Y165006D01*
X335812Y164992D01*
X335825Y164967D01*
X335845Y164935D01*
X335864Y164896D01*
X335886Y164850D01*
X335905Y164795D01*
X335921Y164735D01*
Y164733D01*
X335924Y164727D01*
Y164719D01*
X335927Y164705D01*
X335929Y164689D01*
X335935Y164670D01*
X335937Y164648D01*
X335940Y164623D01*
X335946Y164596D01*
X335948Y164563D01*
X335957Y164495D01*
X335959Y164416D01*
X335962Y164329D01*
Y163370D01*
X333442D01*
Y164361D01*
X333445Y164386D01*
Y164416D01*
X333448Y164446D01*
X333453Y164481D01*
X333461Y164552D01*
X333475Y164632D01*
X333494Y164705D01*
X333521Y164776D01*
Y164779D01*
X333524Y164785D01*
X333529Y164793D01*
X333535Y164806D01*
X333554Y164836D01*
X333579Y164877D01*
X333611Y164921D01*
X333652Y164965D01*
X333701Y165008D01*
X333756Y165049D01*
X333759D01*
X333764Y165055D01*
X333772Y165058D01*
X333783Y165066D01*
X333797Y165074D01*
X333816Y165082D01*
X333857Y165101D01*
X333906Y165118D01*
X333964Y165134D01*
X334024Y165145D01*
X334089Y165150D01*
X334092D01*
X334097D01*
X334106D01*
X334117D01*
X334146Y165145D01*
X334188Y165139D01*
X334234Y165128D01*
X334286Y165112D01*
X334338Y165090D01*
X334392Y165060D01*
X334395D01*
X334398Y165058D01*
X334406Y165052D01*
X334417Y165044D01*
X334441Y165025D01*
X334474Y164995D01*
X334510Y164959D01*
X334548Y164913D01*
X334586Y164861D01*
X334622Y164798D01*
Y164801D01*
X334624Y164809D01*
X334630Y164820D01*
X334635Y164836D01*
X334643Y164855D01*
X334652Y164877D01*
X334676Y164926D01*
X334706Y164984D01*
X334747Y165041D01*
X334793Y165098D01*
X334851Y165148D01*
X334854Y165150D01*
X334859Y165153D01*
X334867Y165158D01*
X334878Y165167D01*
X334894Y165178D01*
X334914Y165189D01*
X334935Y165199D01*
X334960Y165210D01*
X335015Y165232D01*
X335080Y165254D01*
X335154Y165268D01*
X335192Y165273D01*
X335233D01*
X335236D01*
X335241D01*
X335249D01*
X335263D01*
X335279Y165270D01*
D02*
G37*
G36*
X335285Y162928D02*
X335304D01*
X335323Y162925D01*
X335375Y162917D01*
X335432Y162903D01*
X335495Y162882D01*
X335561Y162852D01*
X335596Y162835D01*
X335629Y162813D01*
X335632D01*
X335637Y162808D01*
X335645Y162803D01*
X335659Y162792D01*
X335689Y162767D01*
X335730Y162729D01*
X335774Y162682D01*
X335820Y162625D01*
X335864Y162559D01*
X335905Y162483D01*
Y162480D01*
X335910Y162472D01*
X335913Y162461D01*
X335921Y162445D01*
X335927Y162426D01*
X335935Y162401D01*
X335946Y162374D01*
X335954Y162341D01*
X335962Y162308D01*
X335973Y162270D01*
X335986Y162188D01*
X335998Y162098D01*
X336003Y162000D01*
Y161967D01*
X336000Y161943D01*
Y161913D01*
X335998Y161880D01*
X335995Y161841D01*
X335989Y161798D01*
X335978Y161708D01*
X335962Y161612D01*
X335937Y161517D01*
X335905Y161424D01*
Y161421D01*
X335899Y161413D01*
X335894Y161402D01*
X335886Y161386D01*
X335875Y161366D01*
X335864Y161345D01*
X335831Y161293D01*
X335790Y161235D01*
X335738Y161175D01*
X335678Y161115D01*
X335607Y161064D01*
X335604Y161061D01*
X335599Y161058D01*
X335588Y161053D01*
X335572Y161044D01*
X335553Y161033D01*
X335531Y161022D01*
X335503Y161009D01*
X335473Y160998D01*
X335443Y160984D01*
X335408Y160973D01*
X335329Y160951D01*
X335244Y160935D01*
X335198Y160930D01*
X335151Y160927D01*
X335124Y161241D01*
X335127D01*
X335132D01*
X335143Y161244D01*
X335157Y161246D01*
X335173Y161249D01*
X335189Y161252D01*
X335236Y161263D01*
X335285Y161276D01*
X335337Y161293D01*
X335389Y161315D01*
X335438Y161342D01*
X335443Y161345D01*
X335457Y161358D01*
X335479Y161377D01*
X335506Y161405D01*
X335539Y161440D01*
X335569Y161484D01*
X335602Y161536D01*
X335632Y161596D01*
Y161599D01*
X335634Y161604D01*
X335637Y161612D01*
X335643Y161626D01*
X335648Y161642D01*
X335656Y161661D01*
X335662Y161683D01*
X335667Y161708D01*
X335681Y161765D01*
X335694Y161833D01*
X335703Y161904D01*
X335705Y161984D01*
Y162016D01*
X335703Y162033D01*
Y162052D01*
X335697Y162095D01*
X335692Y162147D01*
X335683Y162205D01*
X335670Y162262D01*
X335651Y162317D01*
Y162319D01*
X335648Y162322D01*
X335645Y162330D01*
X335640Y162341D01*
X335626Y162366D01*
X335610Y162399D01*
X335588Y162434D01*
X335561Y162472D01*
X335531Y162505D01*
X335495Y162535D01*
X335490Y162538D01*
X335479Y162546D01*
X335457Y162559D01*
X335430Y162573D01*
X335397Y162584D01*
X335361Y162598D01*
X335320Y162606D01*
X335279Y162609D01*
X335277D01*
X335274D01*
X335260D01*
X335236Y162606D01*
X335209Y162601D01*
X335176Y162592D01*
X335140Y162579D01*
X335105Y162562D01*
X335072Y162538D01*
X335069Y162535D01*
X335058Y162524D01*
X335042Y162508D01*
X335020Y162483D01*
X334998Y162453D01*
X334974Y162412D01*
X334949Y162366D01*
X334925Y162311D01*
X334922Y162306D01*
X334919Y162300D01*
X334916Y162289D01*
X334914Y162278D01*
X334908Y162262D01*
X334900Y162240D01*
X334894Y162218D01*
X334886Y162188D01*
X334875Y162158D01*
X334867Y162120D01*
X334856Y162079D01*
X334843Y162033D01*
X334832Y161984D01*
X334815Y161926D01*
X334802Y161863D01*
Y161861D01*
X334799Y161850D01*
X334793Y161831D01*
X334788Y161809D01*
X334780Y161779D01*
X334772Y161746D01*
X334761Y161713D01*
X334750Y161675D01*
X334725Y161593D01*
X334698Y161514D01*
X334684Y161476D01*
X334671Y161440D01*
X334657Y161407D01*
X334643Y161380D01*
Y161377D01*
X334638Y161372D01*
X334632Y161364D01*
X334627Y161350D01*
X334608Y161317D01*
X334581Y161279D01*
X334545Y161233D01*
X334507Y161189D01*
X334460Y161145D01*
X334411Y161110D01*
X334409D01*
X334406Y161107D01*
X334398Y161102D01*
X334387Y161096D01*
X334357Y161083D01*
X334318Y161066D01*
X334272Y161050D01*
X334218Y161036D01*
X334157Y161025D01*
X334095Y161022D01*
X334092D01*
X334086D01*
X334075D01*
X334062Y161025D01*
X334046D01*
X334026Y161028D01*
X333977Y161036D01*
X333923Y161050D01*
X333865Y161066D01*
X333803Y161093D01*
X333740Y161129D01*
X333737D01*
X333732Y161135D01*
X333723Y161140D01*
X333712Y161148D01*
X333682Y161175D01*
X333644Y161211D01*
X333603Y161255D01*
X333562Y161309D01*
X333521Y161372D01*
X333486Y161446D01*
Y161448D01*
X333483Y161454D01*
X333478Y161468D01*
X333472Y161481D01*
X333467Y161500D01*
X333459Y161525D01*
X333450Y161552D01*
X333442Y161582D01*
X333434Y161615D01*
X333426Y161650D01*
X333412Y161727D01*
X333401Y161814D01*
X333399Y161907D01*
Y161953D01*
X333401Y161978D01*
X333404Y162008D01*
X333407Y162038D01*
X333409Y162074D01*
X333420Y162150D01*
X333437Y162235D01*
X333461Y162319D01*
X333491Y162401D01*
Y162404D01*
X333497Y162409D01*
X333500Y162423D01*
X333508Y162437D01*
X333519Y162453D01*
X333529Y162475D01*
X333557Y162521D01*
X333595Y162576D01*
X333642Y162630D01*
X333693Y162682D01*
X333756Y162729D01*
X333759Y162732D01*
X333764Y162734D01*
X333772Y162740D01*
X333786Y162748D01*
X333803Y162756D01*
X333822Y162767D01*
X333846Y162775D01*
X333871Y162789D01*
X333928Y162811D01*
X333996Y162830D01*
X334070Y162846D01*
X334152Y162854D01*
X334176Y162535D01*
X334174D01*
X334166Y162532D01*
X334155D01*
X334138Y162530D01*
X334117Y162524D01*
X334095Y162519D01*
X334043Y162502D01*
X333985Y162480D01*
X333925Y162448D01*
X333868Y162409D01*
X333843Y162385D01*
X333819Y162357D01*
X333816Y162355D01*
X333814Y162352D01*
X333808Y162341D01*
X333800Y162330D01*
X333792Y162314D01*
X333781Y162295D01*
X333770Y162273D01*
X333756Y162248D01*
X333745Y162218D01*
X333734Y162186D01*
X333723Y162150D01*
X333715Y162112D01*
X333707Y162068D01*
X333701Y162022D01*
X333696Y161973D01*
Y161893D01*
X333699Y161872D01*
Y161847D01*
X333701Y161820D01*
X333704Y161787D01*
X333710Y161754D01*
X333723Y161680D01*
X333742Y161609D01*
X333770Y161541D01*
X333789Y161509D01*
X333808Y161481D01*
Y161478D01*
X333814Y161476D01*
X333827Y161459D01*
X333852Y161437D01*
X333884Y161413D01*
X333923Y161388D01*
X333969Y161366D01*
X334018Y161350D01*
X334046Y161347D01*
X334075Y161345D01*
X334078D01*
X334081D01*
X334097Y161347D01*
X334122Y161350D01*
X334152Y161356D01*
X334188Y161369D01*
X334226Y161386D01*
X334261Y161407D01*
X334297Y161440D01*
X334299Y161446D01*
X334305Y161451D01*
X334313Y161462D01*
X334321Y161476D01*
X334329Y161492D01*
X334340Y161514D01*
X334354Y161539D01*
X334368Y161568D01*
X334381Y161604D01*
X334395Y161645D01*
X334411Y161691D01*
X334428Y161746D01*
X334444Y161803D01*
X334463Y161869D01*
X334480Y161943D01*
Y161948D01*
X334482Y161962D01*
X334488Y161981D01*
X334496Y162008D01*
X334501Y162041D01*
X334512Y162079D01*
X334521Y162120D01*
X334534Y162164D01*
X334559Y162257D01*
X334583Y162349D01*
X334597Y162393D01*
X334611Y162431D01*
X334624Y162469D01*
X334638Y162499D01*
Y162502D01*
X334643Y162510D01*
X334649Y162521D01*
X334657Y162535D01*
X334665Y162554D01*
X334679Y162576D01*
X334709Y162622D01*
X334744Y162677D01*
X334788Y162729D01*
X334840Y162781D01*
X334867Y162803D01*
X334894Y162824D01*
X334897D01*
X334903Y162830D01*
X334911Y162835D01*
X334922Y162841D01*
X334935Y162849D01*
X334955Y162857D01*
X334998Y162879D01*
X335050Y162898D01*
X335110Y162914D01*
X335178Y162925D01*
X335252Y162931D01*
X335255D01*
X335260D01*
X335271D01*
X335285Y162928D01*
D02*
G37*
G36*
X334993Y160479D02*
X335028Y160477D01*
X335069Y160474D01*
X335116Y160471D01*
X335211Y160460D01*
X335312Y160447D01*
X335410Y160425D01*
X335457Y160411D01*
X335501Y160395D01*
X335503D01*
X335511Y160392D01*
X335522Y160386D01*
X335539Y160378D01*
X335558Y160367D01*
X335580Y160356D01*
X335629Y160324D01*
X335659Y160304D01*
X335686Y160283D01*
X335719Y160255D01*
X335749Y160228D01*
X335779Y160195D01*
X335809Y160163D01*
X335836Y160124D01*
X335864Y160083D01*
X335866Y160081D01*
X335869Y160073D01*
X335877Y160062D01*
X335886Y160043D01*
X335896Y160021D01*
X335907Y159993D01*
X335921Y159963D01*
X335932Y159925D01*
X335946Y159887D01*
X335959Y159843D01*
X335970Y159794D01*
X335981Y159742D01*
X335989Y159685D01*
X335998Y159625D01*
X336000Y159562D01*
X336003Y159496D01*
Y159461D01*
X336000Y159436D01*
Y159406D01*
X335998Y159374D01*
X335992Y159333D01*
X335986Y159292D01*
X335973Y159199D01*
X335951Y159101D01*
X335921Y159005D01*
X335905Y158959D01*
X335883Y158915D01*
X335880Y158912D01*
X335877Y158904D01*
X335869Y158893D01*
X335861Y158879D01*
X335847Y158860D01*
X335831Y158838D01*
X335815Y158817D01*
X335793Y158792D01*
X335744Y158738D01*
X335683Y158686D01*
X335613Y158636D01*
X335572Y158615D01*
X335531Y158596D01*
X335528D01*
X335520Y158593D01*
X335506Y158587D01*
X335487Y158582D01*
X335465Y158574D01*
X335435Y158565D01*
X335402Y158557D01*
X335364Y158549D01*
X335320Y158538D01*
X335274Y158530D01*
X335222Y158522D01*
X335165Y158516D01*
X335105Y158508D01*
X335039Y158505D01*
X334971Y158500D01*
X334897D01*
X333442D01*
Y158833D01*
X334897D01*
X334900D01*
X334911D01*
X334927D01*
X334952D01*
X334979Y158836D01*
X335009D01*
X335045Y158838D01*
X335080Y158841D01*
X335159Y158847D01*
X335239Y158858D01*
X335315Y158874D01*
X335350Y158882D01*
X335381Y158893D01*
X335383D01*
X335386Y158896D01*
X335394Y158899D01*
X335405Y158904D01*
X335435Y158920D01*
X335468Y158942D01*
X335509Y158970D01*
X335547Y159005D01*
X335585Y159049D01*
X335621Y159101D01*
Y159103D01*
X335624Y159109D01*
X335629Y159117D01*
X335634Y159128D01*
X335640Y159142D01*
X335645Y159161D01*
X335653Y159180D01*
X335662Y159202D01*
X335675Y159256D01*
X335689Y159319D01*
X335700Y159390D01*
X335703Y159466D01*
Y159502D01*
X335700Y159527D01*
X335697Y159556D01*
X335694Y159592D01*
X335689Y159630D01*
X335681Y159671D01*
X335662Y159756D01*
X335648Y159800D01*
X335632Y159843D01*
X335613Y159884D01*
X335591Y159922D01*
X335566Y159958D01*
X335536Y159991D01*
X335533Y159993D01*
X335528Y159999D01*
X335517Y160004D01*
X335503Y160015D01*
X335484Y160026D01*
X335460Y160040D01*
X335430Y160056D01*
X335394Y160070D01*
X335353Y160083D01*
X335307Y160100D01*
X335255Y160113D01*
X335198Y160124D01*
X335132Y160135D01*
X335061Y160143D01*
X334982Y160146D01*
X334897Y160149D01*
X333442D01*
Y160482D01*
X334897D01*
X334903D01*
X334914D01*
X334933D01*
X334960D01*
X334993Y160479D01*
D02*
G37*
G36*
X139888Y157500D02*
X139579D01*
Y159468D01*
X139574Y159463D01*
X139560Y159449D01*
X139536Y159430D01*
X139500Y159403D01*
X139459Y159370D01*
X139407Y159335D01*
X139350Y159296D01*
X139285Y159255D01*
X139282D01*
X139276Y159250D01*
X139268Y159244D01*
X139254Y159239D01*
X139238Y159228D01*
X139219Y159220D01*
X139175Y159195D01*
X139126Y159171D01*
X139072Y159143D01*
X139014Y159119D01*
X138960Y159097D01*
Y159395D01*
X138962Y159397D01*
X138971Y159400D01*
X138984Y159408D01*
X139003Y159416D01*
X139025Y159427D01*
X139052Y159444D01*
X139083Y159460D01*
X139113Y159476D01*
X139183Y159520D01*
X139260Y159572D01*
X139339Y159627D01*
X139413Y159689D01*
X139416Y159692D01*
X139421Y159698D01*
X139432Y159706D01*
X139446Y159719D01*
X139459Y159736D01*
X139478Y159752D01*
X139519Y159799D01*
X139566Y159848D01*
X139612Y159905D01*
X139653Y159965D01*
X139689Y160028D01*
X139888D01*
Y157500D01*
D02*
G37*
G36*
X137592Y160017D02*
X137655Y160014D01*
X137717Y160009D01*
X137778Y160003D01*
X137808Y160001D01*
X137832Y159995D01*
X137835D01*
X137840Y159992D01*
X137851D01*
X137862Y159990D01*
X137879Y159984D01*
X137898Y159982D01*
X137941Y159968D01*
X137990Y159951D01*
X138042Y159930D01*
X138094Y159905D01*
X138143Y159875D01*
X138146D01*
X138149Y159872D01*
X138165Y159859D01*
X138187Y159840D01*
X138217Y159812D01*
X138247Y159780D01*
X138283Y159736D01*
X138315Y159689D01*
X138345Y159632D01*
Y159629D01*
X138348Y159624D01*
X138354Y159616D01*
X138359Y159605D01*
X138365Y159591D01*
X138370Y159572D01*
X138386Y159531D01*
X138400Y159479D01*
X138414Y159422D01*
X138422Y159356D01*
X138425Y159288D01*
Y159285D01*
Y159274D01*
Y159258D01*
X138422Y159233D01*
X138419Y159206D01*
X138414Y159176D01*
X138408Y159141D01*
X138400Y159100D01*
X138389Y159059D01*
X138375Y159015D01*
X138359Y158971D01*
X138337Y158925D01*
X138315Y158879D01*
X138288Y158832D01*
X138255Y158789D01*
X138220Y158745D01*
X138217Y158742D01*
X138209Y158737D01*
X138198Y158726D01*
X138179Y158709D01*
X138157Y158693D01*
X138127Y158674D01*
X138092Y158655D01*
X138051Y158636D01*
X138001Y158614D01*
X137950Y158595D01*
X137887Y158576D01*
X137821Y158559D01*
X137745Y158545D01*
X137663Y158535D01*
X137576Y158526D01*
X137477Y158524D01*
X136833D01*
Y157500D01*
X136500D01*
Y160020D01*
X137537D01*
X137592Y160017D01*
D02*
G37*
G36*
X189289Y175776D02*
X187239D01*
Y176000D01*
X189289D01*
Y175776D01*
D02*
G37*
G36*
X184790D02*
X182739D01*
Y176000D01*
X184790D01*
Y175776D01*
D02*
G37*
G36*
X191500Y172781D02*
X190329D01*
X190299Y172784D01*
X190269D01*
X190233Y172787D01*
X190192Y172790D01*
X190111Y172798D01*
X190026Y172811D01*
X189944Y172828D01*
X189908Y172839D01*
X189873Y172850D01*
X189870D01*
X189865Y172852D01*
X189857Y172858D01*
X189843Y172863D01*
X189810Y172880D01*
X189772Y172904D01*
X189725Y172937D01*
X189679Y172981D01*
X189633Y173030D01*
X189592Y173090D01*
Y173093D01*
X189586Y173098D01*
X189581Y173106D01*
X189575Y173120D01*
X189567Y173136D01*
X189559Y173155D01*
X189548Y173177D01*
X189537Y173202D01*
X189518Y173259D01*
X189502Y173322D01*
X189491Y173393D01*
X189485Y173469D01*
Y173472D01*
Y173480D01*
Y173497D01*
X189488Y173513D01*
X189491Y173538D01*
X189494Y173565D01*
X189499Y173595D01*
X189507Y173628D01*
X189529Y173699D01*
X189543Y173737D01*
X189559Y173775D01*
X189578Y173813D01*
X189603Y173852D01*
X189630Y173887D01*
X189660Y173923D01*
X189663Y173925D01*
X189668Y173931D01*
X189679Y173939D01*
X189693Y173952D01*
X189712Y173966D01*
X189734Y173983D01*
X189761Y174002D01*
X189794Y174021D01*
X189829Y174040D01*
X189867Y174059D01*
X189911Y174078D01*
X189960Y174097D01*
X190012Y174114D01*
X190069Y174130D01*
X190132Y174144D01*
X190198Y174155D01*
X190195D01*
X190192Y174157D01*
X190176Y174165D01*
X190151Y174179D01*
X190121Y174196D01*
X190089Y174215D01*
X190056Y174234D01*
X190023Y174258D01*
X189996Y174280D01*
X189993Y174283D01*
X189990Y174286D01*
X189982Y174294D01*
X189971Y174305D01*
X189958Y174318D01*
X189941Y174335D01*
X189906Y174373D01*
X189865Y174422D01*
X189818Y174479D01*
X189769Y174545D01*
X189720Y174616D01*
X189283Y175301D01*
X189701D01*
X190034Y174777D01*
X190037Y174774D01*
X190040Y174766D01*
X190048Y174755D01*
X190059Y174739D01*
X190069Y174720D01*
X190086Y174698D01*
X190119Y174649D01*
X190157Y174591D01*
X190195Y174534D01*
X190236Y174479D01*
X190274Y174430D01*
Y174428D01*
X190280Y174425D01*
X190291Y174411D01*
X190307Y174389D01*
X190332Y174365D01*
X190356Y174337D01*
X190386Y174310D01*
X190416Y174283D01*
X190444Y174264D01*
X190446Y174261D01*
X190457Y174256D01*
X190471Y174247D01*
X190490Y174237D01*
X190515Y174225D01*
X190539Y174215D01*
X190566Y174204D01*
X190596Y174196D01*
X190599D01*
X190607Y174193D01*
X190621Y174190D01*
X190640Y174187D01*
X190667D01*
X190700Y174185D01*
X190738Y174182D01*
X191167D01*
Y175301D01*
X191500D01*
Y172781D01*
D02*
G37*
G36*
X187006D02*
X186067D01*
X186040Y172784D01*
X186007D01*
X185975Y172787D01*
X185901Y172790D01*
X185827Y172798D01*
X185753Y172806D01*
X185721Y172814D01*
X185691Y172820D01*
X185688D01*
X185680Y172822D01*
X185669Y172825D01*
X185655Y172830D01*
X185636Y172836D01*
X185614Y172841D01*
X185562Y172861D01*
X185505Y172885D01*
X185445Y172915D01*
X185382Y172953D01*
X185322Y173000D01*
X185319Y173003D01*
X185314Y173008D01*
X185303Y173016D01*
X185289Y173030D01*
X185273Y173046D01*
X185254Y173068D01*
X185232Y173090D01*
X185210Y173117D01*
X185186Y173147D01*
X185161Y173180D01*
X185136Y173215D01*
X185112Y173254D01*
X185065Y173338D01*
X185024Y173431D01*
Y173434D01*
X185019Y173442D01*
X185016Y173458D01*
X185008Y173477D01*
X185000Y173502D01*
X184992Y173532D01*
X184984Y173565D01*
X184973Y173603D01*
X184964Y173647D01*
X184956Y173693D01*
X184948Y173742D01*
X184940Y173794D01*
X184932Y173849D01*
X184929Y173906D01*
X184924Y174029D01*
Y174032D01*
Y174043D01*
Y174056D01*
Y174078D01*
X184926Y174103D01*
Y174133D01*
X184929Y174165D01*
X184932Y174201D01*
X184940Y174280D01*
X184953Y174365D01*
X184970Y174452D01*
X184992Y174539D01*
Y174542D01*
X184994Y174550D01*
X185000Y174561D01*
X185003Y174575D01*
X185011Y174594D01*
X185019Y174616D01*
X185038Y174668D01*
X185063Y174725D01*
X185093Y174788D01*
X185126Y174848D01*
X185164Y174905D01*
Y174908D01*
X185169Y174911D01*
X185175Y174919D01*
X185183Y174930D01*
X185202Y174954D01*
X185232Y174987D01*
X185265Y175025D01*
X185303Y175064D01*
X185347Y175099D01*
X185393Y175135D01*
X185396D01*
X185398Y175137D01*
X185415Y175148D01*
X185442Y175162D01*
X185478Y175181D01*
X185521Y175200D01*
X185573Y175222D01*
X185633Y175241D01*
X185696Y175260D01*
X185699D01*
X185704Y175263D01*
X185712D01*
X185726Y175266D01*
X185742Y175268D01*
X185764Y175274D01*
X185786Y175277D01*
X185811Y175279D01*
X185871Y175287D01*
X185939Y175296D01*
X186015Y175298D01*
X186097Y175301D01*
X187006D01*
Y172781D01*
D02*
G37*
G36*
X182521D02*
X182188D01*
Y175004D01*
X180946D01*
Y175301D01*
X182521D01*
Y172781D01*
D02*
G37*
G36*
X180550D02*
X179611D01*
X179584Y172784D01*
X179551D01*
X179518Y172787D01*
X179444Y172790D01*
X179371Y172798D01*
X179297Y172806D01*
X179264Y172814D01*
X179234Y172820D01*
X179231D01*
X179223Y172822D01*
X179212Y172825D01*
X179199Y172830D01*
X179180Y172836D01*
X179158Y172841D01*
X179106Y172861D01*
X179049Y172885D01*
X178988Y172915D01*
X178926Y172953D01*
X178866Y173000D01*
X178863Y173003D01*
X178857Y173008D01*
X178847Y173016D01*
X178833Y173030D01*
X178816Y173046D01*
X178797Y173068D01*
X178776Y173090D01*
X178754Y173117D01*
X178729Y173147D01*
X178705Y173180D01*
X178680Y173215D01*
X178655Y173254D01*
X178609Y173338D01*
X178568Y173431D01*
Y173434D01*
X178563Y173442D01*
X178560Y173458D01*
X178552Y173477D01*
X178543Y173502D01*
X178535Y173532D01*
X178527Y173565D01*
X178516Y173603D01*
X178508Y173647D01*
X178500Y173693D01*
X178492Y173742D01*
X178483Y173794D01*
X178475Y173849D01*
X178472Y173906D01*
X178467Y174029D01*
Y174032D01*
Y174043D01*
Y174056D01*
Y174078D01*
X178470Y174103D01*
Y174133D01*
X178472Y174165D01*
X178475Y174201D01*
X178483Y174280D01*
X178497Y174365D01*
X178513Y174452D01*
X178535Y174539D01*
Y174542D01*
X178538Y174550D01*
X178543Y174561D01*
X178546Y174575D01*
X178554Y174594D01*
X178563Y174616D01*
X178582Y174668D01*
X178606Y174725D01*
X178636Y174788D01*
X178669Y174848D01*
X178707Y174905D01*
Y174908D01*
X178713Y174911D01*
X178718Y174919D01*
X178726Y174930D01*
X178745Y174954D01*
X178776Y174987D01*
X178808Y175025D01*
X178847Y175064D01*
X178890Y175099D01*
X178937Y175135D01*
X178939D01*
X178942Y175137D01*
X178958Y175148D01*
X178986Y175162D01*
X179021Y175181D01*
X179065Y175200D01*
X179117Y175222D01*
X179177Y175241D01*
X179240Y175260D01*
X179242D01*
X179248Y175263D01*
X179256D01*
X179270Y175266D01*
X179286Y175268D01*
X179308Y175274D01*
X179330Y175277D01*
X179354Y175279D01*
X179414Y175287D01*
X179483Y175296D01*
X179559Y175298D01*
X179641Y175301D01*
X180550D01*
Y172781D01*
D02*
G37*
G36*
X176965Y175339D02*
X176996Y175337D01*
X177034Y175334D01*
X177072Y175329D01*
X177118Y175320D01*
X177165Y175312D01*
X177217Y175301D01*
X177269Y175287D01*
X177323Y175271D01*
X177378Y175252D01*
X177432Y175227D01*
X177487Y175203D01*
X177541Y175173D01*
X177544Y175170D01*
X177552Y175165D01*
X177569Y175154D01*
X177588Y175140D01*
X177610Y175124D01*
X177637Y175102D01*
X177667Y175077D01*
X177700Y175050D01*
X177735Y175017D01*
X177768Y174982D01*
X177804Y174943D01*
X177839Y174903D01*
X177875Y174856D01*
X177907Y174810D01*
X177937Y174758D01*
X177967Y174703D01*
X177970Y174701D01*
X177973Y174690D01*
X177981Y174673D01*
X177989Y174651D01*
X178000Y174624D01*
X178011Y174591D01*
X178025Y174556D01*
X178038Y174512D01*
X178052Y174469D01*
X178066Y174419D01*
X178077Y174367D01*
X178087Y174313D01*
X178104Y174198D01*
X178107Y174135D01*
X178109Y174075D01*
Y174073D01*
Y174067D01*
Y174059D01*
Y174048D01*
X178107Y174032D01*
Y174015D01*
X178104Y173972D01*
X178098Y173920D01*
X178090Y173857D01*
X178082Y173792D01*
X178068Y173718D01*
X178049Y173639D01*
X178027Y173559D01*
X178000Y173477D01*
X177967Y173396D01*
X177929Y173314D01*
X177885Y173237D01*
X177834Y173161D01*
X177774Y173093D01*
X177771Y173090D01*
X177757Y173076D01*
X177738Y173060D01*
X177714Y173038D01*
X177678Y173011D01*
X177640Y172981D01*
X177593Y172948D01*
X177539Y172915D01*
X177479Y172882D01*
X177413Y172850D01*
X177342Y172820D01*
X177263Y172792D01*
X177181Y172771D01*
X177094Y172754D01*
X177001Y172740D01*
X176903Y172738D01*
X176870D01*
X176845Y172740D01*
X176813Y172743D01*
X176777Y172746D01*
X176739Y172751D01*
X176695Y172759D01*
X176646Y172768D01*
X176597Y172779D01*
X176545Y172792D01*
X176490Y172809D01*
X176436Y172828D01*
X176381Y172850D01*
X176329Y172874D01*
X176275Y172904D01*
X176272Y172907D01*
X176261Y172912D01*
X176248Y172921D01*
X176228Y172934D01*
X176204Y172951D01*
X176179Y172973D01*
X176149Y172997D01*
X176117Y173024D01*
X176081Y173057D01*
X176046Y173093D01*
X176010Y173131D01*
X175975Y173172D01*
X175942Y173215D01*
X175906Y173265D01*
X175876Y173317D01*
X175846Y173371D01*
X175844Y173374D01*
X175841Y173385D01*
X175833Y173401D01*
X175824Y173423D01*
X175811Y173450D01*
X175800Y173486D01*
X175786Y173524D01*
X175773Y173568D01*
X175759Y173614D01*
X175745Y173666D01*
X175732Y173723D01*
X175721Y173781D01*
X175712Y173843D01*
X175704Y173909D01*
X175701Y173974D01*
X175699Y174045D01*
Y174051D01*
Y174062D01*
Y174084D01*
X175701Y174111D01*
X175704Y174144D01*
X175707Y174182D01*
X175712Y174225D01*
X175718Y174275D01*
X175726Y174327D01*
X175737Y174381D01*
X175748Y174439D01*
X175764Y174496D01*
X175783Y174556D01*
X175803Y174613D01*
X175827Y174673D01*
X175854Y174731D01*
X175857Y174733D01*
X175863Y174744D01*
X175871Y174761D01*
X175882Y174780D01*
X175898Y174804D01*
X175917Y174834D01*
X175942Y174867D01*
X175966Y174903D01*
X175996Y174938D01*
X176029Y174976D01*
X176067Y175014D01*
X176106Y175053D01*
X176146Y175088D01*
X176193Y175124D01*
X176242Y175159D01*
X176294Y175189D01*
X176297Y175192D01*
X176308Y175195D01*
X176321Y175203D01*
X176343Y175214D01*
X176370Y175225D01*
X176400Y175238D01*
X176436Y175252D01*
X176477Y175266D01*
X176521Y175279D01*
X176567Y175293D01*
X176619Y175307D01*
X176671Y175318D01*
X176785Y175337D01*
X176845Y175339D01*
X176905Y175342D01*
X176941D01*
X176965Y175339D01*
D02*
G37*
G36*
X71688Y146776D02*
X69638D01*
Y147000D01*
X71688D01*
Y146776D01*
D02*
G37*
G36*
X63730Y143781D02*
X62559D01*
X62529Y143784D01*
X62499D01*
X62463Y143787D01*
X62422Y143790D01*
X62340Y143798D01*
X62256Y143811D01*
X62174Y143828D01*
X62138Y143839D01*
X62103Y143850D01*
X62100D01*
X62094Y143852D01*
X62086Y143858D01*
X62073Y143863D01*
X62040Y143880D01*
X62002Y143904D01*
X61955Y143937D01*
X61909Y143981D01*
X61862Y144030D01*
X61822Y144090D01*
Y144093D01*
X61816Y144098D01*
X61811Y144106D01*
X61805Y144120D01*
X61797Y144136D01*
X61789Y144155D01*
X61778Y144177D01*
X61767Y144202D01*
X61748Y144259D01*
X61731Y144322D01*
X61721Y144393D01*
X61715Y144469D01*
Y144472D01*
Y144480D01*
Y144497D01*
X61718Y144513D01*
X61721Y144538D01*
X61723Y144565D01*
X61729Y144595D01*
X61737Y144628D01*
X61759Y144699D01*
X61772Y144737D01*
X61789Y144775D01*
X61808Y144813D01*
X61832Y144852D01*
X61860Y144887D01*
X61890Y144922D01*
X61892Y144925D01*
X61898Y144931D01*
X61909Y144939D01*
X61923Y144952D01*
X61942Y144966D01*
X61963Y144983D01*
X61991Y145002D01*
X62024Y145021D01*
X62059Y145040D01*
X62097Y145059D01*
X62141Y145078D01*
X62190Y145097D01*
X62242Y145114D01*
X62299Y145130D01*
X62362Y145144D01*
X62428Y145155D01*
X62425D01*
X62422Y145157D01*
X62406Y145166D01*
X62381Y145179D01*
X62351Y145195D01*
X62318Y145215D01*
X62286Y145234D01*
X62253Y145258D01*
X62226Y145280D01*
X62223Y145283D01*
X62220Y145286D01*
X62212Y145294D01*
X62201Y145305D01*
X62187Y145318D01*
X62171Y145335D01*
X62135Y145373D01*
X62094Y145422D01*
X62048Y145479D01*
X61999Y145545D01*
X61950Y145616D01*
X61513Y146301D01*
X61931D01*
X62264Y145777D01*
X62266Y145774D01*
X62269Y145766D01*
X62277Y145755D01*
X62288Y145739D01*
X62299Y145720D01*
X62316Y145698D01*
X62348Y145649D01*
X62387Y145591D01*
X62425Y145534D01*
X62466Y145479D01*
X62504Y145430D01*
Y145428D01*
X62510Y145425D01*
X62520Y145411D01*
X62537Y145389D01*
X62561Y145365D01*
X62586Y145337D01*
X62616Y145310D01*
X62646Y145283D01*
X62673Y145264D01*
X62676Y145261D01*
X62687Y145256D01*
X62701Y145247D01*
X62720Y145237D01*
X62744Y145226D01*
X62769Y145215D01*
X62796Y145204D01*
X62826Y145195D01*
X62829D01*
X62837Y145193D01*
X62851Y145190D01*
X62870Y145187D01*
X62897D01*
X62930Y145185D01*
X62968Y145182D01*
X63397D01*
Y146301D01*
X63730D01*
Y143781D01*
D02*
G37*
G36*
X67284D02*
X66940D01*
X66561Y145436D01*
Y145439D01*
X66558Y145447D01*
X66555Y145460D01*
X66550Y145479D01*
X66544Y145504D01*
X66539Y145531D01*
X66531Y145561D01*
X66523Y145597D01*
X66514Y145635D01*
X66506Y145676D01*
X66490Y145761D01*
X66471Y145853D01*
X66454Y145949D01*
Y145943D01*
X66449Y145933D01*
X66446Y145911D01*
X66438Y145886D01*
X66432Y145853D01*
X66424Y145818D01*
X66413Y145780D01*
X66405Y145741D01*
X66383Y145660D01*
X66375Y145621D01*
X66364Y145583D01*
X66356Y145550D01*
X66351Y145523D01*
X66345Y145501D01*
X66340Y145485D01*
X65859Y143781D01*
X65458D01*
X65100Y145059D01*
X65097Y145064D01*
X65095Y145081D01*
X65087Y145105D01*
X65078Y145141D01*
X65067Y145182D01*
X65054Y145231D01*
X65040Y145286D01*
X65024Y145348D01*
X65007Y145414D01*
X64991Y145485D01*
X64975Y145559D01*
X64958Y145635D01*
X64928Y145791D01*
X64901Y145949D01*
Y145946D01*
X64898Y145938D01*
X64895Y145924D01*
X64893Y145908D01*
X64887Y145884D01*
X64882Y145856D01*
X64874Y145826D01*
X64865Y145791D01*
X64857Y145752D01*
X64849Y145712D01*
X64838Y145665D01*
X64827Y145619D01*
X64803Y145515D01*
X64775Y145403D01*
X64380Y143781D01*
X64044D01*
X64734Y146301D01*
X65059D01*
X65586Y144382D01*
Y144379D01*
X65589Y144371D01*
X65592Y144360D01*
X65597Y144344D01*
X65603Y144325D01*
X65608Y144303D01*
X65622Y144254D01*
X65635Y144204D01*
X65649Y144155D01*
X65654Y144133D01*
X65660Y144114D01*
X65665Y144098D01*
X65668Y144087D01*
Y144090D01*
X65671Y144095D01*
Y144104D01*
X65676Y144117D01*
X65679Y144131D01*
X65682Y144150D01*
X65693Y144188D01*
X65704Y144235D01*
X65717Y144286D01*
X65731Y144336D01*
X65745Y144382D01*
X66274Y146301D01*
X66621D01*
X67284Y143781D01*
D02*
G37*
G36*
X72886Y146339D02*
X72919Y146337D01*
X72960Y146334D01*
X73004Y146328D01*
X73053Y146320D01*
X73105Y146312D01*
X73159Y146301D01*
X73214Y146288D01*
X73268Y146274D01*
X73326Y146255D01*
X73380Y146233D01*
X73432Y146208D01*
X73481Y146178D01*
X73484Y146176D01*
X73492Y146170D01*
X73506Y146162D01*
X73522Y146148D01*
X73544Y146129D01*
X73569Y146110D01*
X73596Y146086D01*
X73626Y146055D01*
X73656Y146023D01*
X73689Y145987D01*
X73719Y145949D01*
X73752Y145905D01*
X73784Y145859D01*
X73814Y145810D01*
X73842Y145755D01*
X73869Y145698D01*
X73872Y145695D01*
X73874Y145684D01*
X73880Y145665D01*
X73888Y145643D01*
X73899Y145613D01*
X73910Y145580D01*
X73921Y145539D01*
X73935Y145496D01*
X73945Y145447D01*
X73959Y145395D01*
X73970Y145340D01*
X73978Y145280D01*
X73995Y145155D01*
X73997Y145089D01*
X74000Y145024D01*
Y145018D01*
Y145007D01*
Y144985D01*
X73997Y144958D01*
X73995Y144922D01*
X73992Y144882D01*
X73986Y144838D01*
X73981Y144789D01*
X73973Y144737D01*
X73965Y144682D01*
X73937Y144565D01*
X73918Y144508D01*
X73899Y144450D01*
X73877Y144390D01*
X73850Y144336D01*
X73847Y144333D01*
X73842Y144322D01*
X73834Y144308D01*
X73823Y144286D01*
X73806Y144262D01*
X73787Y144235D01*
X73765Y144204D01*
X73741Y144169D01*
X73711Y144136D01*
X73681Y144098D01*
X73645Y144063D01*
X73607Y144024D01*
X73566Y143989D01*
X73522Y143953D01*
X73473Y143921D01*
X73424Y143891D01*
X73421Y143888D01*
X73410Y143885D01*
X73397Y143877D01*
X73375Y143866D01*
X73350Y143855D01*
X73318Y143841D01*
X73282Y143828D01*
X73244Y143814D01*
X73200Y143800D01*
X73151Y143787D01*
X73102Y143773D01*
X73047Y143762D01*
X72935Y143743D01*
X72875Y143740D01*
X72812Y143738D01*
X72777D01*
X72750Y143740D01*
X72717Y143743D01*
X72679Y143749D01*
X72638Y143754D01*
X72591Y143762D01*
X72542Y143773D01*
X72490Y143784D01*
X72439Y143800D01*
X72384Y143820D01*
X72329Y143841D01*
X72277Y143869D01*
X72225Y143896D01*
X72176Y143931D01*
X72174Y143934D01*
X72166Y143940D01*
X72152Y143951D01*
X72136Y143967D01*
X72114Y143986D01*
X72089Y144011D01*
X72065Y144038D01*
X72035Y144071D01*
X72004Y144106D01*
X71974Y144147D01*
X71944Y144191D01*
X71917Y144240D01*
X71887Y144292D01*
X71863Y144349D01*
X71838Y144409D01*
X71816Y144472D01*
X72144Y144548D01*
Y144546D01*
X72149Y144538D01*
X72152Y144521D01*
X72160Y144502D01*
X72168Y144480D01*
X72182Y144456D01*
X72209Y144396D01*
X72245Y144330D01*
X72291Y144262D01*
X72340Y144199D01*
X72370Y144172D01*
X72400Y144147D01*
X72403Y144144D01*
X72408Y144142D01*
X72417Y144136D01*
X72430Y144128D01*
X72447Y144117D01*
X72466Y144106D01*
X72488Y144095D01*
X72515Y144084D01*
X72545Y144073D01*
X72575Y144063D01*
X72646Y144041D01*
X72728Y144027D01*
X72772Y144022D01*
X72845D01*
X72867Y144024D01*
X72892Y144027D01*
X72922Y144030D01*
X72954Y144033D01*
X72987Y144038D01*
X73066Y144057D01*
X73148Y144082D01*
X73189Y144098D01*
X73230Y144117D01*
X73268Y144139D01*
X73307Y144164D01*
X73309Y144166D01*
X73315Y144169D01*
X73326Y144177D01*
X73339Y144188D01*
X73353Y144202D01*
X73372Y144221D01*
X73391Y144240D01*
X73413Y144262D01*
X73435Y144289D01*
X73460Y144316D01*
X73503Y144379D01*
X73544Y144453D01*
X73580Y144538D01*
Y144540D01*
X73582Y144548D01*
X73588Y144562D01*
X73590Y144579D01*
X73596Y144600D01*
X73604Y144625D01*
X73610Y144655D01*
X73618Y144685D01*
X73626Y144720D01*
X73632Y144759D01*
X73645Y144841D01*
X73653Y144928D01*
X73656Y145021D01*
Y145024D01*
Y145034D01*
Y145051D01*
X73653Y145075D01*
Y145103D01*
X73651Y145135D01*
X73648Y145171D01*
X73645Y145212D01*
X73640Y145256D01*
X73634Y145299D01*
X73618Y145395D01*
X73593Y145490D01*
X73563Y145583D01*
Y145586D01*
X73558Y145594D01*
X73552Y145605D01*
X73547Y145621D01*
X73536Y145643D01*
X73522Y145665D01*
X73492Y145717D01*
X73451Y145777D01*
X73402Y145834D01*
X73342Y145892D01*
X73309Y145916D01*
X73274Y145941D01*
X73271D01*
X73266Y145946D01*
X73255Y145952D01*
X73238Y145960D01*
X73219Y145968D01*
X73197Y145979D01*
X73173Y145987D01*
X73146Y145998D01*
X73083Y146020D01*
X73009Y146039D01*
X72930Y146053D01*
X72889Y146055D01*
X72845Y146058D01*
X72818D01*
X72799Y146055D01*
X72774Y146053D01*
X72747Y146050D01*
X72714Y146045D01*
X72681Y146039D01*
X72605Y146020D01*
X72567Y146006D01*
X72526Y145990D01*
X72485Y145971D01*
X72447Y145949D01*
X72408Y145924D01*
X72370Y145897D01*
X72368Y145894D01*
X72362Y145889D01*
X72351Y145881D01*
X72338Y145867D01*
X72324Y145851D01*
X72305Y145829D01*
X72286Y145804D01*
X72264Y145777D01*
X72242Y145744D01*
X72220Y145709D01*
X72198Y145670D01*
X72176Y145627D01*
X72157Y145580D01*
X72138Y145529D01*
X72119Y145474D01*
X72105Y145417D01*
X71772Y145501D01*
Y145507D01*
X71778Y145520D01*
X71783Y145539D01*
X71794Y145570D01*
X71805Y145602D01*
X71821Y145643D01*
X71838Y145687D01*
X71860Y145733D01*
X71884Y145785D01*
X71912Y145834D01*
X71942Y145889D01*
X71977Y145941D01*
X72015Y145990D01*
X72056Y146039D01*
X72103Y146086D01*
X72152Y146129D01*
X72155Y146132D01*
X72166Y146137D01*
X72179Y146148D01*
X72201Y146162D01*
X72225Y146178D01*
X72258Y146197D01*
X72294Y146216D01*
X72338Y146236D01*
X72384Y146255D01*
X72433Y146274D01*
X72488Y146293D01*
X72548Y146309D01*
X72610Y146323D01*
X72676Y146334D01*
X72744Y146339D01*
X72818Y146342D01*
X72856D01*
X72886Y146339D01*
D02*
G37*
G36*
X69406Y143781D02*
X68368D01*
X68313Y143784D01*
X68251Y143787D01*
X68188Y143792D01*
X68128Y143798D01*
X68098Y143800D01*
X68073Y143806D01*
X68071D01*
X68065Y143809D01*
X68054D01*
X68043Y143811D01*
X68027Y143817D01*
X68008Y143820D01*
X67964Y143833D01*
X67915Y143850D01*
X67863Y143871D01*
X67811Y143896D01*
X67762Y143926D01*
X67759D01*
X67756Y143929D01*
X67740Y143942D01*
X67718Y143962D01*
X67688Y143989D01*
X67658Y144022D01*
X67623Y144065D01*
X67590Y144112D01*
X67560Y144169D01*
Y144172D01*
X67557Y144177D01*
X67552Y144185D01*
X67546Y144196D01*
X67541Y144210D01*
X67535Y144229D01*
X67519Y144270D01*
X67505Y144322D01*
X67492Y144379D01*
X67484Y144445D01*
X67481Y144513D01*
Y144516D01*
Y144527D01*
Y144543D01*
X67484Y144568D01*
X67486Y144595D01*
X67492Y144625D01*
X67497Y144660D01*
X67505Y144701D01*
X67516Y144742D01*
X67530Y144786D01*
X67546Y144830D01*
X67568Y144876D01*
X67590Y144922D01*
X67617Y144969D01*
X67650Y145013D01*
X67686Y145056D01*
X67688Y145059D01*
X67696Y145064D01*
X67707Y145075D01*
X67726Y145092D01*
X67748Y145108D01*
X67778Y145127D01*
X67814Y145146D01*
X67855Y145166D01*
X67904Y145187D01*
X67956Y145206D01*
X68019Y145226D01*
X68084Y145242D01*
X68161Y145256D01*
X68243Y145266D01*
X68330Y145275D01*
X68428Y145277D01*
X69072D01*
Y146301D01*
X69406D01*
Y143781D01*
D02*
G37*
G36*
X61360Y146296D02*
Y146282D01*
Y146260D01*
X61357Y146233D01*
X61355Y146200D01*
X61347Y146165D01*
X61338Y146126D01*
X61325Y146088D01*
Y146086D01*
X61322Y146080D01*
X61319Y146072D01*
X61314Y146058D01*
X61306Y146045D01*
X61297Y146025D01*
X61276Y145982D01*
X61248Y145930D01*
X61213Y145873D01*
X61172Y145812D01*
X61123Y145752D01*
X61120Y145750D01*
X61117Y145744D01*
X61109Y145736D01*
X61095Y145722D01*
X61082Y145709D01*
X61063Y145690D01*
X61044Y145668D01*
X61019Y145643D01*
X60992Y145616D01*
X60962Y145589D01*
X60929Y145556D01*
X60891Y145523D01*
X60852Y145488D01*
X60809Y145452D01*
X60765Y145414D01*
X60716Y145373D01*
X60710Y145370D01*
X60697Y145357D01*
X60678Y145340D01*
X60650Y145316D01*
X60618Y145288D01*
X60579Y145256D01*
X60536Y145220D01*
X60492Y145179D01*
X60399Y145095D01*
X60309Y145004D01*
X60265Y144961D01*
X60224Y144917D01*
X60189Y144876D01*
X60159Y144838D01*
X60156Y144835D01*
X60154Y144830D01*
X60145Y144819D01*
X60137Y144805D01*
X60123Y144786D01*
X60113Y144767D01*
X60085Y144718D01*
X60058Y144660D01*
X60033Y144598D01*
X60017Y144532D01*
X60014Y144499D01*
X60012Y144467D01*
Y144464D01*
Y144458D01*
Y144448D01*
X60014Y144437D01*
Y144420D01*
X60020Y144401D01*
X60028Y144360D01*
X60044Y144311D01*
X60069Y144259D01*
X60083Y144232D01*
X60102Y144207D01*
X60121Y144183D01*
X60145Y144158D01*
X60148Y144155D01*
X60151Y144153D01*
X60159Y144147D01*
X60170Y144139D01*
X60184Y144128D01*
X60200Y144117D01*
X60238Y144093D01*
X60290Y144071D01*
X60347Y144049D01*
X60416Y144035D01*
X60454Y144030D01*
X60514D01*
X60530Y144033D01*
X60549D01*
X60571Y144038D01*
X60620Y144046D01*
X60678Y144063D01*
X60738Y144087D01*
X60768Y144104D01*
X60798Y144120D01*
X60825Y144142D01*
X60852Y144166D01*
X60855Y144169D01*
X60858Y144172D01*
X60863Y144180D01*
X60874Y144191D01*
X60882Y144204D01*
X60893Y144221D01*
X60907Y144240D01*
X60918Y144262D01*
X60931Y144286D01*
X60943Y144314D01*
X60964Y144379D01*
X60981Y144450D01*
X60983Y144491D01*
X60986Y144535D01*
X61303Y144502D01*
Y144497D01*
X61300Y144486D01*
X61297Y144469D01*
X61295Y144445D01*
X61289Y144415D01*
X61281Y144379D01*
X61273Y144341D01*
X61259Y144300D01*
X61246Y144259D01*
X61229Y144213D01*
X61207Y144169D01*
X61185Y144125D01*
X61158Y144079D01*
X61128Y144038D01*
X61095Y143997D01*
X61057Y143962D01*
X61054Y143959D01*
X61046Y143953D01*
X61035Y143945D01*
X61019Y143931D01*
X60997Y143918D01*
X60970Y143902D01*
X60940Y143885D01*
X60904Y143866D01*
X60866Y143850D01*
X60822Y143833D01*
X60776Y143817D01*
X60724Y143803D01*
X60669Y143790D01*
X60612Y143781D01*
X60549Y143776D01*
X60484Y143773D01*
X60448D01*
X60424Y143776D01*
X60394Y143779D01*
X60358Y143784D01*
X60317Y143790D01*
X60276Y143798D01*
X60230Y143809D01*
X60184Y143822D01*
X60134Y143839D01*
X60088Y143858D01*
X60039Y143882D01*
X59992Y143910D01*
X59949Y143940D01*
X59908Y143975D01*
X59905Y143978D01*
X59900Y143983D01*
X59889Y143997D01*
X59875Y144011D01*
X59859Y144030D01*
X59839Y144054D01*
X59820Y144082D01*
X59801Y144114D01*
X59782Y144147D01*
X59763Y144185D01*
X59744Y144226D01*
X59728Y144270D01*
X59714Y144319D01*
X59703Y144368D01*
X59698Y144420D01*
X59695Y144475D01*
Y144477D01*
Y144480D01*
Y144488D01*
Y144499D01*
X59698Y144529D01*
X59703Y144568D01*
X59711Y144614D01*
X59722Y144663D01*
X59736Y144718D01*
X59758Y144772D01*
Y144775D01*
X59760Y144778D01*
X59763Y144786D01*
X59769Y144797D01*
X59785Y144827D01*
X59807Y144865D01*
X59837Y144912D01*
X59872Y144964D01*
X59913Y145018D01*
X59965Y145078D01*
X59968Y145081D01*
X59971Y145086D01*
X59982Y145095D01*
X59992Y145108D01*
X60009Y145124D01*
X60028Y145144D01*
X60050Y145168D01*
X60077Y145193D01*
X60110Y145223D01*
X60145Y145256D01*
X60184Y145294D01*
X60227Y145332D01*
X60274Y145376D01*
X60325Y145419D01*
X60383Y145468D01*
X60443Y145520D01*
X60446Y145523D01*
X60454Y145531D01*
X60470Y145542D01*
X60487Y145559D01*
X60511Y145578D01*
X60536Y145600D01*
X60593Y145649D01*
X60653Y145701D01*
X60710Y145755D01*
X60738Y145780D01*
X60762Y145802D01*
X60784Y145823D01*
X60800Y145840D01*
X60803Y145843D01*
X60814Y145853D01*
X60828Y145870D01*
X60847Y145892D01*
X60869Y145916D01*
X60891Y145943D01*
X60934Y146004D01*
X59692D01*
Y146301D01*
X61360D01*
Y146296D01*
D02*
G37*
G36*
X188289Y154776D02*
X186239D01*
Y155000D01*
X188289D01*
Y154776D01*
D02*
G37*
G36*
X190500Y151781D02*
X189329D01*
X189299Y151784D01*
X189269D01*
X189233Y151787D01*
X189192Y151790D01*
X189111Y151798D01*
X189026Y151811D01*
X188944Y151828D01*
X188909Y151839D01*
X188873Y151850D01*
X188870D01*
X188865Y151852D01*
X188857Y151858D01*
X188843Y151863D01*
X188810Y151880D01*
X188772Y151904D01*
X188725Y151937D01*
X188679Y151981D01*
X188633Y152030D01*
X188592Y152090D01*
Y152093D01*
X188586Y152098D01*
X188581Y152106D01*
X188575Y152120D01*
X188567Y152136D01*
X188559Y152155D01*
X188548Y152177D01*
X188537Y152202D01*
X188518Y152259D01*
X188502Y152322D01*
X188491Y152393D01*
X188485Y152469D01*
Y152472D01*
Y152480D01*
Y152497D01*
X188488Y152513D01*
X188491Y152538D01*
X188494Y152565D01*
X188499Y152595D01*
X188507Y152628D01*
X188529Y152699D01*
X188543Y152737D01*
X188559Y152775D01*
X188578Y152813D01*
X188603Y152851D01*
X188630Y152887D01*
X188660Y152922D01*
X188663Y152925D01*
X188668Y152931D01*
X188679Y152939D01*
X188693Y152953D01*
X188712Y152966D01*
X188734Y152983D01*
X188761Y153002D01*
X188794Y153021D01*
X188829Y153040D01*
X188867Y153059D01*
X188911Y153078D01*
X188960Y153097D01*
X189012Y153114D01*
X189069Y153130D01*
X189132Y153144D01*
X189198Y153155D01*
X189195D01*
X189192Y153157D01*
X189176Y153165D01*
X189151Y153179D01*
X189121Y153196D01*
X189089Y153215D01*
X189056Y153234D01*
X189023Y153258D01*
X188996Y153280D01*
X188993Y153283D01*
X188990Y153286D01*
X188982Y153294D01*
X188971Y153305D01*
X188958Y153318D01*
X188941Y153335D01*
X188906Y153373D01*
X188865Y153422D01*
X188818Y153479D01*
X188769Y153545D01*
X188720Y153616D01*
X188283Y154301D01*
X188701D01*
X189034Y153777D01*
X189037Y153774D01*
X189040Y153766D01*
X189048Y153755D01*
X189059Y153739D01*
X189069Y153720D01*
X189086Y153698D01*
X189119Y153649D01*
X189157Y153591D01*
X189195Y153534D01*
X189236Y153479D01*
X189274Y153430D01*
Y153428D01*
X189280Y153425D01*
X189291Y153411D01*
X189307Y153389D01*
X189332Y153365D01*
X189356Y153338D01*
X189386Y153310D01*
X189416Y153283D01*
X189444Y153264D01*
X189446Y153261D01*
X189457Y153256D01*
X189471Y153247D01*
X189490Y153236D01*
X189515Y153226D01*
X189539Y153215D01*
X189566Y153204D01*
X189596Y153196D01*
X189599D01*
X189607Y153193D01*
X189621Y153190D01*
X189640Y153187D01*
X189667D01*
X189700Y153185D01*
X189738Y153182D01*
X190167D01*
Y154301D01*
X190500D01*
Y151781D01*
D02*
G37*
G36*
X184988Y154339D02*
X185021Y154337D01*
X185062Y154334D01*
X185106Y154329D01*
X185155Y154320D01*
X185207Y154312D01*
X185261Y154301D01*
X185316Y154288D01*
X185370Y154274D01*
X185428Y154255D01*
X185482Y154233D01*
X185534Y154208D01*
X185583Y154178D01*
X185586Y154176D01*
X185594Y154170D01*
X185608Y154162D01*
X185624Y154148D01*
X185646Y154129D01*
X185671Y154110D01*
X185698Y154086D01*
X185728Y154056D01*
X185758Y154023D01*
X185791Y153987D01*
X185821Y153949D01*
X185854Y153905D01*
X185886Y153859D01*
X185916Y153810D01*
X185944Y153755D01*
X185971Y153698D01*
X185974Y153695D01*
X185976Y153684D01*
X185982Y153665D01*
X185990Y153643D01*
X186001Y153613D01*
X186012Y153580D01*
X186023Y153540D01*
X186037Y153496D01*
X186047Y153447D01*
X186061Y153395D01*
X186072Y153340D01*
X186080Y153280D01*
X186097Y153155D01*
X186099Y153089D01*
X186102Y153024D01*
Y153018D01*
Y153007D01*
Y152985D01*
X186099Y152958D01*
X186097Y152922D01*
X186094Y152882D01*
X186088Y152838D01*
X186083Y152789D01*
X186075Y152737D01*
X186066Y152682D01*
X186039Y152565D01*
X186020Y152508D01*
X186001Y152450D01*
X185979Y152390D01*
X185952Y152336D01*
X185949Y152333D01*
X185944Y152322D01*
X185935Y152308D01*
X185925Y152286D01*
X185908Y152262D01*
X185889Y152235D01*
X185867Y152205D01*
X185843Y152169D01*
X185813Y152136D01*
X185783Y152098D01*
X185747Y152063D01*
X185709Y152024D01*
X185668Y151989D01*
X185624Y151953D01*
X185575Y151921D01*
X185526Y151891D01*
X185523Y151888D01*
X185512Y151885D01*
X185499Y151877D01*
X185477Y151866D01*
X185452Y151855D01*
X185419Y151841D01*
X185384Y151828D01*
X185346Y151814D01*
X185302Y151801D01*
X185253Y151787D01*
X185204Y151773D01*
X185149Y151762D01*
X185037Y151743D01*
X184977Y151740D01*
X184915Y151738D01*
X184879D01*
X184852Y151740D01*
X184819Y151743D01*
X184781Y151749D01*
X184740Y151754D01*
X184693Y151762D01*
X184644Y151773D01*
X184592Y151784D01*
X184540Y151801D01*
X184486Y151820D01*
X184431Y151841D01*
X184379Y151869D01*
X184327Y151896D01*
X184278Y151932D01*
X184276Y151934D01*
X184267Y151940D01*
X184254Y151951D01*
X184237Y151967D01*
X184216Y151986D01*
X184191Y152011D01*
X184167Y152038D01*
X184136Y152071D01*
X184106Y152106D01*
X184076Y152147D01*
X184046Y152191D01*
X184019Y152240D01*
X183989Y152292D01*
X183964Y152349D01*
X183940Y152409D01*
X183918Y152472D01*
X184246Y152549D01*
Y152546D01*
X184251Y152538D01*
X184254Y152521D01*
X184262Y152502D01*
X184270Y152480D01*
X184284Y152456D01*
X184311Y152396D01*
X184347Y152330D01*
X184393Y152262D01*
X184442Y152199D01*
X184472Y152172D01*
X184502Y152147D01*
X184505Y152145D01*
X184510Y152142D01*
X184519Y152136D01*
X184532Y152128D01*
X184549Y152117D01*
X184568Y152106D01*
X184590Y152095D01*
X184617Y152084D01*
X184647Y152074D01*
X184677Y152063D01*
X184748Y152041D01*
X184830Y152027D01*
X184873Y152022D01*
X184947D01*
X184969Y152024D01*
X184994Y152027D01*
X185024Y152030D01*
X185056Y152032D01*
X185089Y152038D01*
X185168Y152057D01*
X185250Y152082D01*
X185291Y152098D01*
X185332Y152117D01*
X185370Y152139D01*
X185409Y152164D01*
X185411Y152166D01*
X185417Y152169D01*
X185428Y152177D01*
X185441Y152188D01*
X185455Y152202D01*
X185474Y152221D01*
X185493Y152240D01*
X185515Y152262D01*
X185537Y152289D01*
X185562Y152316D01*
X185605Y152379D01*
X185646Y152453D01*
X185682Y152538D01*
Y152540D01*
X185684Y152549D01*
X185690Y152562D01*
X185693Y152578D01*
X185698Y152600D01*
X185706Y152625D01*
X185712Y152655D01*
X185720Y152685D01*
X185728Y152720D01*
X185733Y152759D01*
X185747Y152841D01*
X185755Y152928D01*
X185758Y153021D01*
Y153024D01*
Y153034D01*
Y153051D01*
X185755Y153075D01*
Y153103D01*
X185753Y153136D01*
X185750Y153171D01*
X185747Y153212D01*
X185742Y153256D01*
X185736Y153299D01*
X185720Y153395D01*
X185695Y153490D01*
X185665Y153583D01*
Y153586D01*
X185660Y153594D01*
X185654Y153605D01*
X185649Y153621D01*
X185638Y153643D01*
X185624Y153665D01*
X185594Y153717D01*
X185553Y153777D01*
X185504Y153834D01*
X185444Y153892D01*
X185411Y153916D01*
X185376Y153941D01*
X185373D01*
X185368Y153946D01*
X185357Y153952D01*
X185340Y153960D01*
X185321Y153968D01*
X185299Y153979D01*
X185275Y153987D01*
X185248Y153998D01*
X185185Y154020D01*
X185111Y154039D01*
X185032Y154053D01*
X184991Y154056D01*
X184947Y154058D01*
X184920D01*
X184901Y154056D01*
X184876Y154053D01*
X184849Y154050D01*
X184816Y154045D01*
X184783Y154039D01*
X184707Y154020D01*
X184669Y154006D01*
X184628Y153990D01*
X184587Y153971D01*
X184549Y153949D01*
X184510Y153924D01*
X184472Y153897D01*
X184469Y153894D01*
X184464Y153889D01*
X184453Y153881D01*
X184440Y153867D01*
X184426Y153851D01*
X184407Y153829D01*
X184388Y153804D01*
X184366Y153777D01*
X184344Y153744D01*
X184322Y153709D01*
X184300Y153671D01*
X184278Y153627D01*
X184259Y153580D01*
X184240Y153529D01*
X184221Y153474D01*
X184207Y153417D01*
X183874Y153501D01*
Y153507D01*
X183880Y153520D01*
X183885Y153540D01*
X183896Y153569D01*
X183907Y153602D01*
X183923Y153643D01*
X183940Y153687D01*
X183962Y153733D01*
X183986Y153785D01*
X184014Y153834D01*
X184044Y153889D01*
X184079Y153941D01*
X184117Y153990D01*
X184158Y154039D01*
X184205Y154086D01*
X184254Y154129D01*
X184256Y154132D01*
X184267Y154137D01*
X184281Y154148D01*
X184303Y154162D01*
X184327Y154178D01*
X184360Y154197D01*
X184396Y154217D01*
X184440Y154236D01*
X184486Y154255D01*
X184535Y154274D01*
X184590Y154293D01*
X184650Y154309D01*
X184712Y154323D01*
X184778Y154334D01*
X184846Y154339D01*
X184920Y154342D01*
X184958D01*
X184988Y154339D01*
D02*
G37*
G36*
X182447D02*
X182479Y154337D01*
X182520Y154334D01*
X182564Y154329D01*
X182613Y154320D01*
X182665Y154312D01*
X182720Y154301D01*
X182774Y154288D01*
X182829Y154274D01*
X182886Y154255D01*
X182941Y154233D01*
X182993Y154208D01*
X183042Y154178D01*
X183044Y154176D01*
X183053Y154170D01*
X183066Y154162D01*
X183083Y154148D01*
X183105Y154129D01*
X183129Y154110D01*
X183156Y154086D01*
X183186Y154056D01*
X183216Y154023D01*
X183249Y153987D01*
X183279Y153949D01*
X183312Y153905D01*
X183345Y153859D01*
X183375Y153810D01*
X183402Y153755D01*
X183429Y153698D01*
X183432Y153695D01*
X183435Y153684D01*
X183440Y153665D01*
X183449Y153643D01*
X183459Y153613D01*
X183470Y153580D01*
X183481Y153540D01*
X183495Y153496D01*
X183506Y153447D01*
X183519Y153395D01*
X183530Y153340D01*
X183539Y153280D01*
X183555Y153155D01*
X183558Y153089D01*
X183560Y153024D01*
Y153018D01*
Y153007D01*
Y152985D01*
X183558Y152958D01*
X183555Y152922D01*
X183552Y152882D01*
X183547Y152838D01*
X183541Y152789D01*
X183533Y152737D01*
X183525Y152682D01*
X183498Y152565D01*
X183478Y152508D01*
X183459Y152450D01*
X183438Y152390D01*
X183410Y152336D01*
X183407Y152333D01*
X183402Y152322D01*
X183394Y152308D01*
X183383Y152286D01*
X183367Y152262D01*
X183347Y152235D01*
X183326Y152205D01*
X183301Y152169D01*
X183271Y152136D01*
X183241Y152098D01*
X183205Y152063D01*
X183167Y152024D01*
X183126Y151989D01*
X183083Y151953D01*
X183034Y151921D01*
X182984Y151891D01*
X182982Y151888D01*
X182971Y151885D01*
X182957Y151877D01*
X182935Y151866D01*
X182911Y151855D01*
X182878Y151841D01*
X182842Y151828D01*
X182804Y151814D01*
X182761Y151801D01*
X182711Y151787D01*
X182662Y151773D01*
X182608Y151762D01*
X182496Y151743D01*
X182436Y151740D01*
X182373Y151738D01*
X182337D01*
X182310Y151740D01*
X182277Y151743D01*
X182239Y151749D01*
X182198Y151754D01*
X182152Y151762D01*
X182103Y151773D01*
X182051Y151784D01*
X181999Y151801D01*
X181944Y151820D01*
X181890Y151841D01*
X181838Y151869D01*
X181786Y151896D01*
X181737Y151932D01*
X181734Y151934D01*
X181726Y151940D01*
X181712Y151951D01*
X181696Y151967D01*
X181674Y151986D01*
X181649Y152011D01*
X181625Y152038D01*
X181595Y152071D01*
X181565Y152106D01*
X181535Y152147D01*
X181505Y152191D01*
X181477Y152240D01*
X181447Y152292D01*
X181423Y152349D01*
X181398Y152409D01*
X181376Y152472D01*
X181704Y152549D01*
Y152546D01*
X181709Y152538D01*
X181712Y152521D01*
X181720Y152502D01*
X181729Y152480D01*
X181742Y152456D01*
X181770Y152396D01*
X181805Y152330D01*
X181851Y152262D01*
X181901Y152199D01*
X181931Y152172D01*
X181961Y152147D01*
X181963Y152145D01*
X181969Y152142D01*
X181977Y152136D01*
X181991Y152128D01*
X182007Y152117D01*
X182026Y152106D01*
X182048Y152095D01*
X182075Y152084D01*
X182105Y152074D01*
X182135Y152063D01*
X182206Y152041D01*
X182288Y152027D01*
X182332Y152022D01*
X182406D01*
X182427Y152024D01*
X182452Y152027D01*
X182482Y152030D01*
X182515Y152032D01*
X182548Y152038D01*
X182627Y152057D01*
X182709Y152082D01*
X182750Y152098D01*
X182791Y152117D01*
X182829Y152139D01*
X182867Y152164D01*
X182870Y152166D01*
X182875Y152169D01*
X182886Y152177D01*
X182900Y152188D01*
X182913Y152202D01*
X182932Y152221D01*
X182952Y152240D01*
X182973Y152262D01*
X182995Y152289D01*
X183020Y152316D01*
X183063Y152379D01*
X183105Y152453D01*
X183140Y152538D01*
Y152540D01*
X183143Y152549D01*
X183148Y152562D01*
X183151Y152578D01*
X183156Y152600D01*
X183165Y152625D01*
X183170Y152655D01*
X183178Y152685D01*
X183186Y152720D01*
X183192Y152759D01*
X183205Y152841D01*
X183214Y152928D01*
X183216Y153021D01*
Y153024D01*
Y153034D01*
Y153051D01*
X183214Y153075D01*
Y153103D01*
X183211Y153136D01*
X183208Y153171D01*
X183205Y153212D01*
X183200Y153256D01*
X183195Y153299D01*
X183178Y153395D01*
X183154Y153490D01*
X183124Y153583D01*
Y153586D01*
X183118Y153594D01*
X183113Y153605D01*
X183107Y153621D01*
X183096Y153643D01*
X183083Y153665D01*
X183053Y153717D01*
X183012Y153777D01*
X182963Y153834D01*
X182903Y153892D01*
X182870Y153916D01*
X182834Y153941D01*
X182832D01*
X182826Y153946D01*
X182815Y153952D01*
X182799Y153960D01*
X182780Y153968D01*
X182758Y153979D01*
X182733Y153987D01*
X182706Y153998D01*
X182643Y154020D01*
X182569Y154039D01*
X182490Y154053D01*
X182449Y154056D01*
X182406Y154058D01*
X182378D01*
X182359Y154056D01*
X182335Y154053D01*
X182307Y154050D01*
X182275Y154045D01*
X182242Y154039D01*
X182165Y154020D01*
X182127Y154006D01*
X182086Y153990D01*
X182045Y153971D01*
X182007Y153949D01*
X181969Y153924D01*
X181931Y153897D01*
X181928Y153894D01*
X181922Y153889D01*
X181912Y153881D01*
X181898Y153867D01*
X181884Y153851D01*
X181865Y153829D01*
X181846Y153804D01*
X181824Y153777D01*
X181802Y153744D01*
X181780Y153709D01*
X181759Y153671D01*
X181737Y153627D01*
X181718Y153580D01*
X181699Y153529D01*
X181679Y153474D01*
X181666Y153417D01*
X181333Y153501D01*
Y153507D01*
X181338Y153520D01*
X181344Y153540D01*
X181354Y153569D01*
X181366Y153602D01*
X181382Y153643D01*
X181398Y153687D01*
X181420Y153733D01*
X181445Y153785D01*
X181472Y153834D01*
X181502Y153889D01*
X181537Y153941D01*
X181576Y153990D01*
X181617Y154039D01*
X181663Y154086D01*
X181712Y154129D01*
X181715Y154132D01*
X181726Y154137D01*
X181739Y154148D01*
X181761Y154162D01*
X181786Y154178D01*
X181819Y154197D01*
X181854Y154217D01*
X181898Y154236D01*
X181944Y154255D01*
X181993Y154274D01*
X182048Y154293D01*
X182108Y154309D01*
X182171Y154323D01*
X182236Y154334D01*
X182305Y154339D01*
X182378Y154342D01*
X182416D01*
X182447Y154339D01*
D02*
G37*
G36*
X180192Y152333D02*
X180197Y152338D01*
X180211Y152352D01*
X180235Y152371D01*
X180271Y152398D01*
X180312Y152431D01*
X180364Y152467D01*
X180421Y152505D01*
X180486Y152546D01*
X180489D01*
X180495Y152551D01*
X180503Y152557D01*
X180516Y152562D01*
X180533Y152573D01*
X180552Y152581D01*
X180596Y152606D01*
X180645Y152630D01*
X180699Y152658D01*
X180757Y152682D01*
X180811Y152704D01*
Y152407D01*
X180808Y152404D01*
X180800Y152401D01*
X180787Y152393D01*
X180768Y152385D01*
X180746Y152374D01*
X180719Y152357D01*
X180688Y152341D01*
X180658Y152325D01*
X180587Y152281D01*
X180511Y152229D01*
X180432Y152174D01*
X180358Y152112D01*
X180355Y152109D01*
X180350Y152103D01*
X180339Y152095D01*
X180325Y152082D01*
X180312Y152065D01*
X180293Y152049D01*
X180252Y152003D01*
X180205Y151953D01*
X180159Y151896D01*
X180118Y151836D01*
X180082Y151773D01*
X179883D01*
Y154301D01*
X180192D01*
Y152333D01*
D02*
G37*
G36*
X71688Y168776D02*
X69638D01*
Y169000D01*
X71688D01*
Y168776D01*
D02*
G37*
G36*
X63730Y165781D02*
X62559D01*
X62529Y165784D01*
X62498D01*
X62463Y165787D01*
X62422Y165790D01*
X62340Y165798D01*
X62256Y165811D01*
X62174Y165828D01*
X62138Y165839D01*
X62103Y165850D01*
X62100D01*
X62094Y165852D01*
X62086Y165858D01*
X62073Y165863D01*
X62040Y165880D01*
X62002Y165904D01*
X61955Y165937D01*
X61909Y165981D01*
X61862Y166030D01*
X61822Y166090D01*
Y166093D01*
X61816Y166098D01*
X61811Y166106D01*
X61805Y166120D01*
X61797Y166136D01*
X61789Y166155D01*
X61778Y166177D01*
X61767Y166202D01*
X61748Y166259D01*
X61731Y166322D01*
X61721Y166393D01*
X61715Y166469D01*
Y166472D01*
Y166480D01*
Y166497D01*
X61718Y166513D01*
X61721Y166538D01*
X61723Y166565D01*
X61729Y166595D01*
X61737Y166628D01*
X61759Y166699D01*
X61772Y166737D01*
X61789Y166775D01*
X61808Y166813D01*
X61832Y166851D01*
X61860Y166887D01*
X61890Y166922D01*
X61892Y166925D01*
X61898Y166931D01*
X61909Y166939D01*
X61923Y166953D01*
X61942Y166966D01*
X61963Y166983D01*
X61991Y167002D01*
X62024Y167021D01*
X62059Y167040D01*
X62097Y167059D01*
X62141Y167078D01*
X62190Y167097D01*
X62242Y167114D01*
X62299Y167130D01*
X62362Y167144D01*
X62428Y167155D01*
X62425D01*
X62422Y167157D01*
X62406Y167166D01*
X62381Y167179D01*
X62351Y167195D01*
X62318Y167215D01*
X62286Y167234D01*
X62253Y167258D01*
X62226Y167280D01*
X62223Y167283D01*
X62220Y167286D01*
X62212Y167294D01*
X62201Y167305D01*
X62187Y167318D01*
X62171Y167335D01*
X62135Y167373D01*
X62094Y167422D01*
X62048Y167479D01*
X61999Y167545D01*
X61950Y167616D01*
X61513Y168301D01*
X61931D01*
X62264Y167777D01*
X62266Y167774D01*
X62269Y167766D01*
X62277Y167755D01*
X62288Y167739D01*
X62299Y167720D01*
X62316Y167698D01*
X62348Y167649D01*
X62387Y167591D01*
X62425Y167534D01*
X62466Y167479D01*
X62504Y167430D01*
Y167428D01*
X62510Y167425D01*
X62520Y167411D01*
X62537Y167389D01*
X62561Y167365D01*
X62586Y167338D01*
X62616Y167310D01*
X62646Y167283D01*
X62673Y167264D01*
X62676Y167261D01*
X62687Y167256D01*
X62701Y167247D01*
X62720Y167236D01*
X62744Y167226D01*
X62769Y167215D01*
X62796Y167204D01*
X62826Y167195D01*
X62829D01*
X62837Y167193D01*
X62851Y167190D01*
X62870Y167187D01*
X62897D01*
X62930Y167185D01*
X62968Y167182D01*
X63397D01*
Y168301D01*
X63730D01*
Y165781D01*
D02*
G37*
G36*
X67284D02*
X66940D01*
X66561Y167436D01*
Y167438D01*
X66558Y167447D01*
X66555Y167460D01*
X66550Y167479D01*
X66544Y167504D01*
X66539Y167531D01*
X66531Y167561D01*
X66523Y167597D01*
X66514Y167635D01*
X66506Y167676D01*
X66490Y167761D01*
X66471Y167853D01*
X66454Y167949D01*
Y167944D01*
X66449Y167933D01*
X66446Y167911D01*
X66438Y167886D01*
X66432Y167853D01*
X66424Y167818D01*
X66413Y167780D01*
X66405Y167742D01*
X66383Y167660D01*
X66375Y167621D01*
X66364Y167583D01*
X66356Y167550D01*
X66351Y167523D01*
X66345Y167501D01*
X66340Y167485D01*
X65859Y165781D01*
X65458D01*
X65100Y167059D01*
X65097Y167064D01*
X65095Y167081D01*
X65087Y167105D01*
X65078Y167141D01*
X65067Y167182D01*
X65054Y167231D01*
X65040Y167286D01*
X65024Y167348D01*
X65007Y167414D01*
X64991Y167485D01*
X64975Y167559D01*
X64958Y167635D01*
X64928Y167791D01*
X64901Y167949D01*
Y167946D01*
X64898Y167938D01*
X64895Y167924D01*
X64893Y167908D01*
X64887Y167884D01*
X64882Y167856D01*
X64874Y167826D01*
X64865Y167791D01*
X64857Y167752D01*
X64849Y167711D01*
X64838Y167665D01*
X64827Y167619D01*
X64803Y167515D01*
X64775Y167403D01*
X64380Y165781D01*
X64044D01*
X64734Y168301D01*
X65059D01*
X65586Y166382D01*
Y166379D01*
X65589Y166371D01*
X65592Y166360D01*
X65597Y166344D01*
X65602Y166325D01*
X65608Y166303D01*
X65622Y166254D01*
X65635Y166205D01*
X65649Y166155D01*
X65654Y166133D01*
X65660Y166114D01*
X65665Y166098D01*
X65668Y166087D01*
Y166090D01*
X65671Y166095D01*
Y166103D01*
X65676Y166117D01*
X65679Y166131D01*
X65682Y166150D01*
X65693Y166188D01*
X65704Y166235D01*
X65717Y166286D01*
X65731Y166336D01*
X65745Y166382D01*
X66274Y168301D01*
X66621D01*
X67284Y165781D01*
D02*
G37*
G36*
X72886Y168339D02*
X72919Y168337D01*
X72960Y168334D01*
X73004Y168328D01*
X73053Y168320D01*
X73105Y168312D01*
X73159Y168301D01*
X73214Y168288D01*
X73268Y168274D01*
X73326Y168255D01*
X73380Y168233D01*
X73432Y168208D01*
X73481Y168178D01*
X73484Y168176D01*
X73492Y168170D01*
X73506Y168162D01*
X73522Y168148D01*
X73544Y168129D01*
X73569Y168110D01*
X73596Y168086D01*
X73626Y168055D01*
X73656Y168023D01*
X73689Y167987D01*
X73719Y167949D01*
X73752Y167905D01*
X73784Y167859D01*
X73814Y167810D01*
X73842Y167755D01*
X73869Y167698D01*
X73872Y167695D01*
X73874Y167684D01*
X73880Y167665D01*
X73888Y167643D01*
X73899Y167613D01*
X73910Y167580D01*
X73921Y167540D01*
X73935Y167496D01*
X73945Y167447D01*
X73959Y167395D01*
X73970Y167340D01*
X73978Y167280D01*
X73995Y167155D01*
X73997Y167089D01*
X74000Y167024D01*
Y167018D01*
Y167007D01*
Y166985D01*
X73997Y166958D01*
X73995Y166922D01*
X73992Y166882D01*
X73986Y166838D01*
X73981Y166789D01*
X73973Y166737D01*
X73965Y166682D01*
X73937Y166565D01*
X73918Y166508D01*
X73899Y166450D01*
X73877Y166390D01*
X73850Y166336D01*
X73847Y166333D01*
X73842Y166322D01*
X73834Y166308D01*
X73823Y166286D01*
X73806Y166262D01*
X73787Y166235D01*
X73765Y166205D01*
X73741Y166169D01*
X73711Y166136D01*
X73681Y166098D01*
X73645Y166063D01*
X73607Y166024D01*
X73566Y165989D01*
X73522Y165953D01*
X73473Y165921D01*
X73424Y165891D01*
X73421Y165888D01*
X73410Y165885D01*
X73397Y165877D01*
X73375Y165866D01*
X73350Y165855D01*
X73317Y165841D01*
X73282Y165828D01*
X73244Y165814D01*
X73200Y165800D01*
X73151Y165787D01*
X73102Y165773D01*
X73047Y165762D01*
X72935Y165743D01*
X72875Y165740D01*
X72812Y165738D01*
X72777D01*
X72750Y165740D01*
X72717Y165743D01*
X72679Y165749D01*
X72638Y165754D01*
X72591Y165762D01*
X72542Y165773D01*
X72490Y165784D01*
X72439Y165800D01*
X72384Y165820D01*
X72329Y165841D01*
X72277Y165869D01*
X72225Y165896D01*
X72176Y165931D01*
X72174Y165934D01*
X72166Y165940D01*
X72152Y165951D01*
X72135Y165967D01*
X72114Y165986D01*
X72089Y166011D01*
X72065Y166038D01*
X72034Y166071D01*
X72004Y166106D01*
X71974Y166147D01*
X71944Y166191D01*
X71917Y166240D01*
X71887Y166292D01*
X71862Y166349D01*
X71838Y166409D01*
X71816Y166472D01*
X72144Y166549D01*
Y166546D01*
X72149Y166538D01*
X72152Y166521D01*
X72160Y166502D01*
X72168Y166480D01*
X72182Y166456D01*
X72209Y166396D01*
X72245Y166330D01*
X72291Y166262D01*
X72340Y166199D01*
X72370Y166172D01*
X72400Y166147D01*
X72403Y166145D01*
X72408Y166142D01*
X72417Y166136D01*
X72430Y166128D01*
X72447Y166117D01*
X72466Y166106D01*
X72488Y166095D01*
X72515Y166084D01*
X72545Y166074D01*
X72575Y166063D01*
X72646Y166041D01*
X72728Y166027D01*
X72772Y166022D01*
X72845D01*
X72867Y166024D01*
X72892Y166027D01*
X72922Y166030D01*
X72954Y166033D01*
X72987Y166038D01*
X73066Y166057D01*
X73148Y166082D01*
X73189Y166098D01*
X73230Y166117D01*
X73268Y166139D01*
X73307Y166164D01*
X73309Y166166D01*
X73315Y166169D01*
X73326Y166177D01*
X73339Y166188D01*
X73353Y166202D01*
X73372Y166221D01*
X73391Y166240D01*
X73413Y166262D01*
X73435Y166289D01*
X73460Y166316D01*
X73503Y166379D01*
X73544Y166453D01*
X73580Y166538D01*
Y166540D01*
X73582Y166549D01*
X73588Y166562D01*
X73590Y166578D01*
X73596Y166600D01*
X73604Y166625D01*
X73610Y166655D01*
X73618Y166685D01*
X73626Y166720D01*
X73632Y166759D01*
X73645Y166841D01*
X73653Y166928D01*
X73656Y167021D01*
Y167024D01*
Y167034D01*
Y167051D01*
X73653Y167075D01*
Y167103D01*
X73651Y167136D01*
X73648Y167171D01*
X73645Y167212D01*
X73640Y167256D01*
X73634Y167299D01*
X73618Y167395D01*
X73593Y167490D01*
X73563Y167583D01*
Y167586D01*
X73558Y167594D01*
X73552Y167605D01*
X73547Y167621D01*
X73536Y167643D01*
X73522Y167665D01*
X73492Y167717D01*
X73451Y167777D01*
X73402Y167834D01*
X73342Y167892D01*
X73309Y167916D01*
X73274Y167941D01*
X73271D01*
X73266Y167946D01*
X73255Y167952D01*
X73238Y167960D01*
X73219Y167968D01*
X73197Y167979D01*
X73173Y167987D01*
X73146Y167998D01*
X73083Y168020D01*
X73009Y168039D01*
X72930Y168053D01*
X72889Y168055D01*
X72845Y168058D01*
X72818D01*
X72799Y168055D01*
X72774Y168053D01*
X72747Y168050D01*
X72714Y168045D01*
X72681Y168039D01*
X72605Y168020D01*
X72567Y168006D01*
X72526Y167990D01*
X72485Y167971D01*
X72447Y167949D01*
X72408Y167924D01*
X72370Y167897D01*
X72368Y167894D01*
X72362Y167889D01*
X72351Y167881D01*
X72338Y167867D01*
X72324Y167851D01*
X72305Y167829D01*
X72286Y167804D01*
X72264Y167777D01*
X72242Y167744D01*
X72220Y167709D01*
X72198Y167671D01*
X72176Y167627D01*
X72157Y167580D01*
X72138Y167529D01*
X72119Y167474D01*
X72105Y167417D01*
X71772Y167501D01*
Y167507D01*
X71778Y167520D01*
X71783Y167540D01*
X71794Y167569D01*
X71805Y167602D01*
X71821Y167643D01*
X71838Y167687D01*
X71860Y167733D01*
X71884Y167785D01*
X71912Y167834D01*
X71942Y167889D01*
X71977Y167941D01*
X72015Y167990D01*
X72056Y168039D01*
X72103Y168086D01*
X72152Y168129D01*
X72154Y168132D01*
X72166Y168137D01*
X72179Y168148D01*
X72201Y168162D01*
X72225Y168178D01*
X72258Y168197D01*
X72294Y168217D01*
X72338Y168236D01*
X72384Y168255D01*
X72433Y168274D01*
X72488Y168293D01*
X72548Y168309D01*
X72610Y168323D01*
X72676Y168334D01*
X72744Y168339D01*
X72818Y168342D01*
X72856D01*
X72886Y168339D01*
D02*
G37*
G36*
X69405Y165781D02*
X68368D01*
X68313Y165784D01*
X68251Y165787D01*
X68188Y165792D01*
X68128Y165798D01*
X68098Y165800D01*
X68073Y165806D01*
X68071D01*
X68065Y165809D01*
X68054D01*
X68043Y165811D01*
X68027Y165817D01*
X68008Y165820D01*
X67964Y165833D01*
X67915Y165850D01*
X67863Y165872D01*
X67811Y165896D01*
X67762Y165926D01*
X67759D01*
X67756Y165929D01*
X67740Y165943D01*
X67718Y165962D01*
X67688Y165989D01*
X67658Y166022D01*
X67623Y166065D01*
X67590Y166112D01*
X67560Y166169D01*
Y166172D01*
X67557Y166177D01*
X67552Y166185D01*
X67546Y166196D01*
X67541Y166210D01*
X67535Y166229D01*
X67519Y166270D01*
X67505Y166322D01*
X67492Y166379D01*
X67484Y166445D01*
X67481Y166513D01*
Y166516D01*
Y166527D01*
Y166543D01*
X67484Y166568D01*
X67486Y166595D01*
X67492Y166625D01*
X67497Y166660D01*
X67505Y166701D01*
X67516Y166742D01*
X67530Y166786D01*
X67546Y166830D01*
X67568Y166876D01*
X67590Y166922D01*
X67617Y166969D01*
X67650Y167013D01*
X67686Y167056D01*
X67688Y167059D01*
X67696Y167064D01*
X67707Y167075D01*
X67726Y167092D01*
X67748Y167108D01*
X67778Y167127D01*
X67814Y167146D01*
X67855Y167166D01*
X67904Y167187D01*
X67956Y167206D01*
X68019Y167226D01*
X68084Y167242D01*
X68161Y167256D01*
X68243Y167266D01*
X68330Y167275D01*
X68428Y167277D01*
X69072D01*
Y168301D01*
X69405D01*
Y165781D01*
D02*
G37*
G36*
X60462Y166333D02*
X60467Y166338D01*
X60481Y166352D01*
X60506Y166371D01*
X60541Y166398D01*
X60582Y166431D01*
X60634Y166467D01*
X60691Y166505D01*
X60757Y166546D01*
X60760D01*
X60765Y166551D01*
X60773Y166557D01*
X60787Y166562D01*
X60803Y166573D01*
X60822Y166581D01*
X60866Y166606D01*
X60915Y166630D01*
X60970Y166658D01*
X61027Y166682D01*
X61082Y166704D01*
Y166407D01*
X61079Y166404D01*
X61071Y166401D01*
X61057Y166393D01*
X61038Y166385D01*
X61016Y166374D01*
X60989Y166357D01*
X60959Y166341D01*
X60929Y166325D01*
X60858Y166281D01*
X60781Y166229D01*
X60702Y166174D01*
X60628Y166112D01*
X60626Y166109D01*
X60620Y166103D01*
X60609Y166095D01*
X60596Y166082D01*
X60582Y166065D01*
X60563Y166049D01*
X60522Y166003D01*
X60476Y165953D01*
X60429Y165896D01*
X60388Y165836D01*
X60353Y165773D01*
X60154D01*
Y168301D01*
X60462D01*
Y166333D01*
D02*
G37*
G36*
X188289Y134276D02*
X186239D01*
Y134500D01*
X188289D01*
Y134276D01*
D02*
G37*
G36*
X190500Y131281D02*
X189329D01*
X189299Y131284D01*
X189269D01*
X189233Y131287D01*
X189192Y131290D01*
X189111Y131298D01*
X189026Y131311D01*
X188944Y131328D01*
X188908Y131339D01*
X188873Y131350D01*
X188870D01*
X188865Y131352D01*
X188857Y131358D01*
X188843Y131363D01*
X188810Y131380D01*
X188772Y131404D01*
X188725Y131437D01*
X188679Y131481D01*
X188633Y131530D01*
X188592Y131590D01*
Y131593D01*
X188586Y131598D01*
X188581Y131606D01*
X188575Y131620D01*
X188567Y131636D01*
X188559Y131655D01*
X188548Y131677D01*
X188537Y131702D01*
X188518Y131759D01*
X188502Y131822D01*
X188491Y131893D01*
X188485Y131969D01*
Y131972D01*
Y131980D01*
Y131997D01*
X188488Y132013D01*
X188491Y132038D01*
X188494Y132065D01*
X188499Y132095D01*
X188507Y132128D01*
X188529Y132199D01*
X188543Y132237D01*
X188559Y132275D01*
X188578Y132313D01*
X188603Y132352D01*
X188630Y132387D01*
X188660Y132422D01*
X188663Y132425D01*
X188668Y132431D01*
X188679Y132439D01*
X188693Y132452D01*
X188712Y132466D01*
X188734Y132483D01*
X188761Y132502D01*
X188794Y132521D01*
X188829Y132540D01*
X188867Y132559D01*
X188911Y132578D01*
X188960Y132597D01*
X189012Y132614D01*
X189069Y132630D01*
X189132Y132644D01*
X189198Y132655D01*
X189195D01*
X189192Y132657D01*
X189176Y132666D01*
X189151Y132679D01*
X189121Y132695D01*
X189089Y132715D01*
X189056Y132734D01*
X189023Y132758D01*
X188996Y132780D01*
X188993Y132783D01*
X188990Y132786D01*
X188982Y132794D01*
X188971Y132805D01*
X188958Y132818D01*
X188941Y132835D01*
X188906Y132873D01*
X188865Y132922D01*
X188818Y132979D01*
X188769Y133045D01*
X188720Y133116D01*
X188283Y133801D01*
X188701D01*
X189034Y133277D01*
X189037Y133274D01*
X189040Y133266D01*
X189048Y133255D01*
X189059Y133239D01*
X189069Y133220D01*
X189086Y133198D01*
X189119Y133149D01*
X189157Y133091D01*
X189195Y133034D01*
X189236Y132979D01*
X189274Y132930D01*
Y132928D01*
X189280Y132925D01*
X189291Y132911D01*
X189307Y132889D01*
X189332Y132865D01*
X189356Y132837D01*
X189386Y132810D01*
X189416Y132783D01*
X189444Y132764D01*
X189446Y132761D01*
X189457Y132756D01*
X189471Y132747D01*
X189490Y132737D01*
X189515Y132726D01*
X189539Y132715D01*
X189566Y132704D01*
X189596Y132695D01*
X189599D01*
X189607Y132693D01*
X189621Y132690D01*
X189640Y132687D01*
X189667D01*
X189700Y132685D01*
X189738Y132682D01*
X190167D01*
Y133801D01*
X190500D01*
Y131281D01*
D02*
G37*
G36*
X184988Y133839D02*
X185021Y133837D01*
X185062Y133834D01*
X185106Y133828D01*
X185155Y133820D01*
X185207Y133812D01*
X185261Y133801D01*
X185316Y133788D01*
X185370Y133774D01*
X185428Y133755D01*
X185482Y133733D01*
X185534Y133708D01*
X185583Y133678D01*
X185586Y133676D01*
X185594Y133670D01*
X185608Y133662D01*
X185624Y133648D01*
X185646Y133629D01*
X185671Y133610D01*
X185698Y133586D01*
X185728Y133555D01*
X185758Y133523D01*
X185791Y133487D01*
X185821Y133449D01*
X185854Y133405D01*
X185886Y133359D01*
X185916Y133310D01*
X185944Y133255D01*
X185971Y133198D01*
X185974Y133195D01*
X185976Y133184D01*
X185982Y133165D01*
X185990Y133143D01*
X186001Y133113D01*
X186012Y133080D01*
X186023Y133039D01*
X186037Y132996D01*
X186047Y132947D01*
X186061Y132895D01*
X186072Y132840D01*
X186080Y132780D01*
X186097Y132655D01*
X186099Y132589D01*
X186102Y132524D01*
Y132518D01*
Y132507D01*
Y132485D01*
X186099Y132458D01*
X186097Y132422D01*
X186094Y132382D01*
X186088Y132338D01*
X186083Y132289D01*
X186075Y132237D01*
X186066Y132182D01*
X186039Y132065D01*
X186020Y132008D01*
X186001Y131950D01*
X185979Y131890D01*
X185952Y131836D01*
X185949Y131833D01*
X185944Y131822D01*
X185935Y131808D01*
X185924Y131786D01*
X185908Y131762D01*
X185889Y131735D01*
X185867Y131704D01*
X185843Y131669D01*
X185813Y131636D01*
X185783Y131598D01*
X185747Y131563D01*
X185709Y131524D01*
X185668Y131489D01*
X185624Y131453D01*
X185575Y131421D01*
X185526Y131391D01*
X185523Y131388D01*
X185512Y131385D01*
X185499Y131377D01*
X185477Y131366D01*
X185452Y131355D01*
X185419Y131341D01*
X185384Y131328D01*
X185346Y131314D01*
X185302Y131300D01*
X185253Y131287D01*
X185204Y131273D01*
X185149Y131262D01*
X185037Y131243D01*
X184977Y131240D01*
X184915Y131238D01*
X184879D01*
X184852Y131240D01*
X184819Y131243D01*
X184781Y131249D01*
X184740Y131254D01*
X184693Y131262D01*
X184644Y131273D01*
X184592Y131284D01*
X184540Y131300D01*
X184486Y131320D01*
X184431Y131341D01*
X184379Y131369D01*
X184327Y131396D01*
X184278Y131431D01*
X184276Y131434D01*
X184267Y131440D01*
X184254Y131451D01*
X184237Y131467D01*
X184216Y131486D01*
X184191Y131511D01*
X184166Y131538D01*
X184136Y131571D01*
X184106Y131606D01*
X184076Y131647D01*
X184046Y131691D01*
X184019Y131740D01*
X183989Y131792D01*
X183964Y131849D01*
X183940Y131909D01*
X183918Y131972D01*
X184246Y132048D01*
Y132046D01*
X184251Y132038D01*
X184254Y132021D01*
X184262Y132002D01*
X184270Y131980D01*
X184284Y131956D01*
X184311Y131896D01*
X184347Y131830D01*
X184393Y131762D01*
X184442Y131699D01*
X184472Y131672D01*
X184502Y131647D01*
X184505Y131644D01*
X184510Y131642D01*
X184519Y131636D01*
X184532Y131628D01*
X184549Y131617D01*
X184568Y131606D01*
X184590Y131595D01*
X184617Y131584D01*
X184647Y131573D01*
X184677Y131563D01*
X184748Y131541D01*
X184830Y131527D01*
X184873Y131522D01*
X184947D01*
X184969Y131524D01*
X184994Y131527D01*
X185024Y131530D01*
X185056Y131533D01*
X185089Y131538D01*
X185168Y131557D01*
X185250Y131582D01*
X185291Y131598D01*
X185332Y131617D01*
X185370Y131639D01*
X185409Y131664D01*
X185411Y131666D01*
X185417Y131669D01*
X185428Y131677D01*
X185441Y131688D01*
X185455Y131702D01*
X185474Y131721D01*
X185493Y131740D01*
X185515Y131762D01*
X185537Y131789D01*
X185562Y131816D01*
X185605Y131879D01*
X185646Y131953D01*
X185682Y132038D01*
Y132040D01*
X185684Y132048D01*
X185690Y132062D01*
X185693Y132079D01*
X185698Y132100D01*
X185706Y132125D01*
X185712Y132155D01*
X185720Y132185D01*
X185728Y132220D01*
X185733Y132259D01*
X185747Y132341D01*
X185755Y132428D01*
X185758Y132521D01*
Y132524D01*
Y132534D01*
Y132551D01*
X185755Y132575D01*
Y132603D01*
X185753Y132635D01*
X185750Y132671D01*
X185747Y132712D01*
X185742Y132756D01*
X185736Y132799D01*
X185720Y132895D01*
X185695Y132990D01*
X185665Y133083D01*
Y133086D01*
X185660Y133094D01*
X185654Y133105D01*
X185649Y133121D01*
X185638Y133143D01*
X185624Y133165D01*
X185594Y133217D01*
X185553Y133277D01*
X185504Y133334D01*
X185444Y133392D01*
X185411Y133416D01*
X185376Y133441D01*
X185373D01*
X185368Y133446D01*
X185357Y133452D01*
X185340Y133460D01*
X185321Y133468D01*
X185299Y133479D01*
X185275Y133487D01*
X185248Y133498D01*
X185185Y133520D01*
X185111Y133539D01*
X185032Y133553D01*
X184991Y133555D01*
X184947Y133558D01*
X184920D01*
X184901Y133555D01*
X184876Y133553D01*
X184849Y133550D01*
X184816Y133545D01*
X184783Y133539D01*
X184707Y133520D01*
X184669Y133506D01*
X184628Y133490D01*
X184587Y133471D01*
X184549Y133449D01*
X184510Y133424D01*
X184472Y133397D01*
X184469Y133394D01*
X184464Y133389D01*
X184453Y133381D01*
X184439Y133367D01*
X184426Y133351D01*
X184407Y133329D01*
X184388Y133304D01*
X184366Y133277D01*
X184344Y133244D01*
X184322Y133209D01*
X184300Y133170D01*
X184278Y133127D01*
X184259Y133080D01*
X184240Y133029D01*
X184221Y132974D01*
X184207Y132917D01*
X183874Y133001D01*
Y133007D01*
X183880Y133020D01*
X183885Y133039D01*
X183896Y133070D01*
X183907Y133102D01*
X183923Y133143D01*
X183940Y133187D01*
X183962Y133233D01*
X183986Y133285D01*
X184014Y133334D01*
X184044Y133389D01*
X184079Y133441D01*
X184117Y133490D01*
X184158Y133539D01*
X184205Y133586D01*
X184254Y133629D01*
X184256Y133632D01*
X184267Y133637D01*
X184281Y133648D01*
X184303Y133662D01*
X184327Y133678D01*
X184360Y133697D01*
X184396Y133716D01*
X184439Y133736D01*
X184486Y133755D01*
X184535Y133774D01*
X184590Y133793D01*
X184650Y133809D01*
X184712Y133823D01*
X184778Y133834D01*
X184846Y133839D01*
X184920Y133842D01*
X184958D01*
X184988Y133839D01*
D02*
G37*
G36*
X182447D02*
X182479Y133837D01*
X182520Y133834D01*
X182564Y133828D01*
X182613Y133820D01*
X182665Y133812D01*
X182720Y133801D01*
X182774Y133788D01*
X182829Y133774D01*
X182886Y133755D01*
X182941Y133733D01*
X182992Y133708D01*
X183042Y133678D01*
X183044Y133676D01*
X183053Y133670D01*
X183066Y133662D01*
X183083Y133648D01*
X183105Y133629D01*
X183129Y133610D01*
X183156Y133586D01*
X183186Y133555D01*
X183216Y133523D01*
X183249Y133487D01*
X183279Y133449D01*
X183312Y133405D01*
X183345Y133359D01*
X183375Y133310D01*
X183402Y133255D01*
X183429Y133198D01*
X183432Y133195D01*
X183435Y133184D01*
X183440Y133165D01*
X183448Y133143D01*
X183459Y133113D01*
X183470Y133080D01*
X183481Y133039D01*
X183495Y132996D01*
X183506Y132947D01*
X183519Y132895D01*
X183530Y132840D01*
X183538Y132780D01*
X183555Y132655D01*
X183558Y132589D01*
X183560Y132524D01*
Y132518D01*
Y132507D01*
Y132485D01*
X183558Y132458D01*
X183555Y132422D01*
X183552Y132382D01*
X183547Y132338D01*
X183541Y132289D01*
X183533Y132237D01*
X183525Y132182D01*
X183498Y132065D01*
X183478Y132008D01*
X183459Y131950D01*
X183438Y131890D01*
X183410Y131836D01*
X183407Y131833D01*
X183402Y131822D01*
X183394Y131808D01*
X183383Y131786D01*
X183367Y131762D01*
X183347Y131735D01*
X183326Y131704D01*
X183301Y131669D01*
X183271Y131636D01*
X183241Y131598D01*
X183205Y131563D01*
X183167Y131524D01*
X183126Y131489D01*
X183083Y131453D01*
X183034Y131421D01*
X182984Y131391D01*
X182982Y131388D01*
X182971Y131385D01*
X182957Y131377D01*
X182935Y131366D01*
X182911Y131355D01*
X182878Y131341D01*
X182842Y131328D01*
X182804Y131314D01*
X182761Y131300D01*
X182711Y131287D01*
X182662Y131273D01*
X182608Y131262D01*
X182496Y131243D01*
X182436Y131240D01*
X182373Y131238D01*
X182337D01*
X182310Y131240D01*
X182277Y131243D01*
X182239Y131249D01*
X182198Y131254D01*
X182152Y131262D01*
X182103Y131273D01*
X182051Y131284D01*
X181999Y131300D01*
X181944Y131320D01*
X181890Y131341D01*
X181838Y131369D01*
X181786Y131396D01*
X181737Y131431D01*
X181734Y131434D01*
X181726Y131440D01*
X181712Y131451D01*
X181696Y131467D01*
X181674Y131486D01*
X181649Y131511D01*
X181625Y131538D01*
X181595Y131571D01*
X181565Y131606D01*
X181535Y131647D01*
X181505Y131691D01*
X181477Y131740D01*
X181447Y131792D01*
X181423Y131849D01*
X181398Y131909D01*
X181376Y131972D01*
X181704Y132048D01*
Y132046D01*
X181709Y132038D01*
X181712Y132021D01*
X181720Y132002D01*
X181728Y131980D01*
X181742Y131956D01*
X181770Y131896D01*
X181805Y131830D01*
X181851Y131762D01*
X181901Y131699D01*
X181931Y131672D01*
X181961Y131647D01*
X181963Y131644D01*
X181969Y131642D01*
X181977Y131636D01*
X181991Y131628D01*
X182007Y131617D01*
X182026Y131606D01*
X182048Y131595D01*
X182075Y131584D01*
X182105Y131573D01*
X182135Y131563D01*
X182206Y131541D01*
X182288Y131527D01*
X182332Y131522D01*
X182406D01*
X182427Y131524D01*
X182452Y131527D01*
X182482Y131530D01*
X182515Y131533D01*
X182547Y131538D01*
X182627Y131557D01*
X182709Y131582D01*
X182750Y131598D01*
X182791Y131617D01*
X182829Y131639D01*
X182867Y131664D01*
X182870Y131666D01*
X182875Y131669D01*
X182886Y131677D01*
X182900Y131688D01*
X182913Y131702D01*
X182932Y131721D01*
X182952Y131740D01*
X182973Y131762D01*
X182995Y131789D01*
X183020Y131816D01*
X183063Y131879D01*
X183105Y131953D01*
X183140Y132038D01*
Y132040D01*
X183143Y132048D01*
X183148Y132062D01*
X183151Y132079D01*
X183156Y132100D01*
X183165Y132125D01*
X183170Y132155D01*
X183178Y132185D01*
X183186Y132220D01*
X183192Y132259D01*
X183205Y132341D01*
X183214Y132428D01*
X183216Y132521D01*
Y132524D01*
Y132534D01*
Y132551D01*
X183214Y132575D01*
Y132603D01*
X183211Y132635D01*
X183208Y132671D01*
X183205Y132712D01*
X183200Y132756D01*
X183195Y132799D01*
X183178Y132895D01*
X183154Y132990D01*
X183124Y133083D01*
Y133086D01*
X183118Y133094D01*
X183113Y133105D01*
X183107Y133121D01*
X183096Y133143D01*
X183083Y133165D01*
X183053Y133217D01*
X183012Y133277D01*
X182963Y133334D01*
X182902Y133392D01*
X182870Y133416D01*
X182834Y133441D01*
X182832D01*
X182826Y133446D01*
X182815Y133452D01*
X182799Y133460D01*
X182780Y133468D01*
X182758Y133479D01*
X182733Y133487D01*
X182706Y133498D01*
X182643Y133520D01*
X182569Y133539D01*
X182490Y133553D01*
X182449Y133555D01*
X182406Y133558D01*
X182378D01*
X182359Y133555D01*
X182335Y133553D01*
X182307Y133550D01*
X182274Y133545D01*
X182242Y133539D01*
X182165Y133520D01*
X182127Y133506D01*
X182086Y133490D01*
X182045Y133471D01*
X182007Y133449D01*
X181969Y133424D01*
X181931Y133397D01*
X181928Y133394D01*
X181922Y133389D01*
X181911Y133381D01*
X181898Y133367D01*
X181884Y133351D01*
X181865Y133329D01*
X181846Y133304D01*
X181824Y133277D01*
X181802Y133244D01*
X181780Y133209D01*
X181759Y133170D01*
X181737Y133127D01*
X181718Y133080D01*
X181699Y133029D01*
X181679Y132974D01*
X181666Y132917D01*
X181333Y133001D01*
Y133007D01*
X181338Y133020D01*
X181344Y133039D01*
X181354Y133070D01*
X181366Y133102D01*
X181382Y133143D01*
X181398Y133187D01*
X181420Y133233D01*
X181445Y133285D01*
X181472Y133334D01*
X181502Y133389D01*
X181537Y133441D01*
X181576Y133490D01*
X181617Y133539D01*
X181663Y133586D01*
X181712Y133629D01*
X181715Y133632D01*
X181726Y133637D01*
X181739Y133648D01*
X181761Y133662D01*
X181786Y133678D01*
X181819Y133697D01*
X181854Y133716D01*
X181898Y133736D01*
X181944Y133755D01*
X181993Y133774D01*
X182048Y133793D01*
X182108Y133809D01*
X182171Y133823D01*
X182236Y133834D01*
X182305Y133839D01*
X182378Y133842D01*
X182416D01*
X182447Y133839D01*
D02*
G37*
G36*
X181090Y133796D02*
Y133782D01*
Y133760D01*
X181087Y133733D01*
X181084Y133700D01*
X181076Y133665D01*
X181068Y133626D01*
X181054Y133588D01*
Y133586D01*
X181052Y133580D01*
X181049Y133572D01*
X181043Y133558D01*
X181035Y133545D01*
X181027Y133525D01*
X181005Y133482D01*
X180978Y133430D01*
X180942Y133373D01*
X180901Y133312D01*
X180852Y133252D01*
X180850Y133250D01*
X180847Y133244D01*
X180839Y133236D01*
X180825Y133222D01*
X180811Y133209D01*
X180792Y133190D01*
X180773Y133168D01*
X180748Y133143D01*
X180721Y133116D01*
X180691Y133089D01*
X180658Y133056D01*
X180620Y133023D01*
X180582Y132988D01*
X180538Y132952D01*
X180495Y132914D01*
X180445Y132873D01*
X180440Y132870D01*
X180426Y132857D01*
X180407Y132840D01*
X180380Y132816D01*
X180347Y132788D01*
X180309Y132756D01*
X180265Y132720D01*
X180222Y132679D01*
X180129Y132595D01*
X180039Y132504D01*
X179995Y132461D01*
X179954Y132417D01*
X179919Y132376D01*
X179888Y132338D01*
X179886Y132335D01*
X179883Y132330D01*
X179875Y132319D01*
X179867Y132305D01*
X179853Y132286D01*
X179842Y132267D01*
X179815Y132218D01*
X179788Y132160D01*
X179763Y132098D01*
X179747Y132032D01*
X179744Y131999D01*
X179741Y131967D01*
Y131964D01*
Y131958D01*
Y131948D01*
X179744Y131937D01*
Y131920D01*
X179749Y131901D01*
X179757Y131860D01*
X179774Y131811D01*
X179798Y131759D01*
X179812Y131732D01*
X179831Y131707D01*
X179850Y131683D01*
X179875Y131658D01*
X179878Y131655D01*
X179880Y131653D01*
X179888Y131647D01*
X179899Y131639D01*
X179913Y131628D01*
X179929Y131617D01*
X179968Y131593D01*
X180020Y131571D01*
X180077Y131549D01*
X180145Y131535D01*
X180183Y131530D01*
X180243D01*
X180260Y131533D01*
X180279D01*
X180301Y131538D01*
X180350Y131546D01*
X180407Y131563D01*
X180467Y131587D01*
X180497Y131604D01*
X180527Y131620D01*
X180555Y131642D01*
X180582Y131666D01*
X180585Y131669D01*
X180587Y131672D01*
X180593Y131680D01*
X180604Y131691D01*
X180612Y131704D01*
X180623Y131721D01*
X180637Y131740D01*
X180648Y131762D01*
X180661Y131786D01*
X180672Y131814D01*
X180694Y131879D01*
X180710Y131950D01*
X180713Y131991D01*
X180716Y132035D01*
X181032Y132002D01*
Y131997D01*
X181030Y131986D01*
X181027Y131969D01*
X181024Y131945D01*
X181019Y131915D01*
X181010Y131879D01*
X181002Y131841D01*
X180989Y131800D01*
X180975Y131759D01*
X180959Y131713D01*
X180937Y131669D01*
X180915Y131625D01*
X180888Y131579D01*
X180858Y131538D01*
X180825Y131497D01*
X180787Y131462D01*
X180784Y131459D01*
X180776Y131453D01*
X180765Y131445D01*
X180748Y131431D01*
X180727Y131418D01*
X180699Y131402D01*
X180669Y131385D01*
X180634Y131366D01*
X180596Y131350D01*
X180552Y131333D01*
X180506Y131317D01*
X180454Y131303D01*
X180399Y131290D01*
X180342Y131281D01*
X180279Y131276D01*
X180213Y131273D01*
X180178D01*
X180153Y131276D01*
X180123Y131279D01*
X180088Y131284D01*
X180047Y131290D01*
X180006Y131298D01*
X179959Y131309D01*
X179913Y131322D01*
X179864Y131339D01*
X179817Y131358D01*
X179768Y131382D01*
X179722Y131410D01*
X179678Y131440D01*
X179637Y131475D01*
X179635Y131478D01*
X179629Y131483D01*
X179618Y131497D01*
X179605Y131511D01*
X179588Y131530D01*
X179569Y131554D01*
X179550Y131582D01*
X179531Y131614D01*
X179512Y131647D01*
X179493Y131685D01*
X179474Y131726D01*
X179457Y131770D01*
X179444Y131819D01*
X179433Y131868D01*
X179427Y131920D01*
X179424Y131975D01*
Y131977D01*
Y131980D01*
Y131988D01*
Y131999D01*
X179427Y132029D01*
X179433Y132068D01*
X179441Y132114D01*
X179452Y132163D01*
X179465Y132218D01*
X179487Y132272D01*
Y132275D01*
X179490Y132278D01*
X179493Y132286D01*
X179498Y132297D01*
X179515Y132327D01*
X179536Y132365D01*
X179566Y132412D01*
X179602Y132464D01*
X179643Y132518D01*
X179695Y132578D01*
X179697Y132581D01*
X179700Y132586D01*
X179711Y132595D01*
X179722Y132608D01*
X179738Y132624D01*
X179757Y132644D01*
X179779Y132668D01*
X179807Y132693D01*
X179839Y132723D01*
X179875Y132756D01*
X179913Y132794D01*
X179957Y132832D01*
X180003Y132876D01*
X180055Y132919D01*
X180112Y132968D01*
X180172Y133020D01*
X180175Y133023D01*
X180183Y133031D01*
X180200Y133042D01*
X180216Y133059D01*
X180241Y133078D01*
X180265Y133100D01*
X180323Y133149D01*
X180383Y133201D01*
X180440Y133255D01*
X180467Y133280D01*
X180492Y133302D01*
X180514Y133323D01*
X180530Y133340D01*
X180533Y133343D01*
X180544Y133353D01*
X180557Y133370D01*
X180577Y133392D01*
X180598Y133416D01*
X180620Y133443D01*
X180664Y133504D01*
X179422D01*
Y133801D01*
X181090D01*
Y133796D01*
D02*
G37*
%LPC*%
G36*
X344286Y218782D02*
X344284D01*
X344273D01*
X344256D01*
X344235Y218780D01*
X344207D01*
X344177Y218777D01*
X344142Y218774D01*
X344104Y218769D01*
X344019Y218758D01*
X343929Y218739D01*
X343839Y218712D01*
X343749Y218676D01*
X343746D01*
X343738Y218671D01*
X343727Y218665D01*
X343710Y218657D01*
X343691Y218646D01*
X343670Y218632D01*
X343618Y218600D01*
X343560Y218556D01*
X343503Y218504D01*
X343446Y218444D01*
X343394Y218373D01*
X343391Y218370D01*
X343388Y218365D01*
X343383Y218354D01*
X343375Y218338D01*
X343364Y218318D01*
X343353Y218297D01*
X343342Y218272D01*
X343328Y218242D01*
X343317Y218209D01*
X343306Y218177D01*
X343285Y218100D01*
X343271Y218015D01*
X343265Y217969D01*
Y217906D01*
X343268Y217890D01*
Y217863D01*
X343274Y217832D01*
X343279Y217797D01*
X343287Y217759D01*
X343295Y217715D01*
X343309Y217669D01*
X343325Y217620D01*
X343345Y217568D01*
X343369Y217519D01*
X343396Y217467D01*
X343429Y217415D01*
X343467Y217363D01*
X343511Y217314D01*
X343514Y217311D01*
X343522Y217303D01*
X343538Y217289D01*
X343558Y217276D01*
X343585Y217254D01*
X343618Y217235D01*
X343658Y217210D01*
X343702Y217188D01*
X343757Y217164D01*
X343817Y217139D01*
X343882Y217120D01*
X343956Y217101D01*
X344035Y217085D01*
X344123Y217071D01*
X344218Y217063D01*
X344322Y217060D01*
X344327D01*
X344341D01*
X344366Y217063D01*
X344398D01*
X344437Y217068D01*
X344480Y217074D01*
X344529Y217079D01*
X344581Y217090D01*
X344639Y217104D01*
X344699Y217120D01*
X344756Y217139D01*
X344816Y217164D01*
X344876Y217191D01*
X344933Y217224D01*
X344988Y217259D01*
X345040Y217303D01*
X345043Y217306D01*
X345051Y217314D01*
X345064Y217327D01*
X345081Y217347D01*
X345100Y217371D01*
X345122Y217401D01*
X345146Y217434D01*
X345168Y217472D01*
X345193Y217513D01*
X345217Y217562D01*
X345239Y217611D01*
X345258Y217666D01*
X345275Y217723D01*
X345288Y217786D01*
X345297Y217849D01*
X345299Y217917D01*
Y217934D01*
X345297Y217953D01*
X345294Y217980D01*
X345291Y218013D01*
X345286Y218048D01*
X345277Y218092D01*
X345267Y218135D01*
X345253Y218185D01*
X345236Y218234D01*
X345215Y218286D01*
X345187Y218338D01*
X345157Y218389D01*
X345125Y218441D01*
X345084Y218490D01*
X345037Y218537D01*
X345035Y218540D01*
X345023Y218548D01*
X345010Y218559D01*
X344988Y218575D01*
X344961Y218594D01*
X344928Y218616D01*
X344890Y218638D01*
X344843Y218660D01*
X344794Y218682D01*
X344737Y218706D01*
X344677Y218725D01*
X344609Y218744D01*
X344535Y218761D01*
X344458Y218772D01*
X344374Y218780D01*
X344286Y218782D01*
D02*
G37*
G36*
X344265Y216014D02*
X344259D01*
X344248D01*
X344226D01*
X344199Y216012D01*
X344166D01*
X344128Y216009D01*
X344087Y216003D01*
X344041Y215998D01*
X343942Y215982D01*
X343841Y215960D01*
X343746Y215927D01*
X343700Y215905D01*
X343658Y215883D01*
X343656Y215880D01*
X343650Y215878D01*
X343639Y215870D01*
X343623Y215859D01*
X343607Y215848D01*
X343588Y215831D01*
X343544Y215796D01*
X343495Y215750D01*
X343448Y215695D01*
X343405Y215635D01*
X343388Y215602D01*
X343372Y215567D01*
Y215564D01*
X343369Y215561D01*
X343366Y215553D01*
X343364Y215542D01*
X343361Y215526D01*
X343355Y215509D01*
X343350Y215487D01*
X343345Y215463D01*
X343342Y215436D01*
X343336Y215403D01*
X343331Y215367D01*
X343328Y215329D01*
X343325Y215285D01*
X343323Y215239D01*
X343320Y215190D01*
Y214608D01*
X345245D01*
Y215187D01*
X345242Y215209D01*
Y215233D01*
X345239Y215288D01*
X345234Y215351D01*
X345226Y215416D01*
X345215Y215479D01*
X345201Y215537D01*
Y215539D01*
X345198Y215542D01*
X345196Y215550D01*
X345193Y215561D01*
X345182Y215586D01*
X345168Y215618D01*
X345149Y215654D01*
X345127Y215692D01*
X345100Y215730D01*
X345070Y215763D01*
X345067Y215766D01*
X345064Y215769D01*
X345048Y215782D01*
X345021Y215804D01*
X344985Y215831D01*
X344939Y215859D01*
X344884Y215889D01*
X344822Y215919D01*
X344750Y215946D01*
X344748D01*
X344742Y215949D01*
X344731Y215951D01*
X344715Y215957D01*
X344696Y215962D01*
X344671Y215968D01*
X344644Y215973D01*
X344614Y215982D01*
X344581Y215987D01*
X344543Y215992D01*
X344505Y215998D01*
X344461Y216003D01*
X344368Y216012D01*
X344265Y216014D01*
D02*
G37*
G36*
Y209558D02*
X344259D01*
X344248D01*
X344226D01*
X344199Y209555D01*
X344166D01*
X344128Y209552D01*
X344087Y209547D01*
X344041Y209542D01*
X343942Y209525D01*
X343841Y209503D01*
X343746Y209471D01*
X343700Y209449D01*
X343658Y209427D01*
X343656Y209424D01*
X343650Y209421D01*
X343639Y209413D01*
X343623Y209402D01*
X343607Y209391D01*
X343588Y209375D01*
X343544Y209339D01*
X343495Y209293D01*
X343448Y209239D01*
X343405Y209178D01*
X343388Y209146D01*
X343372Y209110D01*
Y209107D01*
X343369Y209105D01*
X343366Y209097D01*
X343364Y209086D01*
X343361Y209069D01*
X343355Y209053D01*
X343350Y209031D01*
X343345Y209006D01*
X343342Y208979D01*
X343336Y208946D01*
X343331Y208911D01*
X343328Y208873D01*
X343325Y208829D01*
X343323Y208783D01*
X343320Y208733D01*
Y208152D01*
X345245D01*
Y208731D01*
X345242Y208752D01*
Y208777D01*
X345239Y208832D01*
X345234Y208894D01*
X345226Y208960D01*
X345215Y209023D01*
X345201Y209080D01*
Y209083D01*
X345198Y209086D01*
X345196Y209094D01*
X345193Y209105D01*
X345182Y209129D01*
X345168Y209162D01*
X345149Y209197D01*
X345127Y209236D01*
X345100Y209274D01*
X345070Y209307D01*
X345067Y209309D01*
X345064Y209312D01*
X345048Y209326D01*
X345021Y209348D01*
X344985Y209375D01*
X344939Y209402D01*
X344884Y209432D01*
X344822Y209462D01*
X344750Y209490D01*
X344748D01*
X344742Y209492D01*
X344731Y209495D01*
X344715Y209501D01*
X344696Y209506D01*
X344671Y209511D01*
X344644Y209517D01*
X344614Y209525D01*
X344581Y209531D01*
X344543Y209536D01*
X344505Y209542D01*
X344461Y209547D01*
X344368Y209555D01*
X344265Y209558D01*
D02*
G37*
G36*
X335233Y164929D02*
X335230D01*
X335228D01*
X335219D01*
X335209D01*
X335184Y164926D01*
X335148Y164921D01*
X335110Y164910D01*
X335069Y164899D01*
X335028Y164880D01*
X334987Y164855D01*
X334982Y164853D01*
X334971Y164842D01*
X334952Y164825D01*
X334930Y164804D01*
X334906Y164774D01*
X334884Y164738D01*
X334862Y164700D01*
X334843Y164653D01*
Y164651D01*
X334840Y164648D01*
X334837Y164640D01*
X334835Y164629D01*
X334832Y164615D01*
X334829Y164602D01*
X334824Y164582D01*
X334821Y164561D01*
X334815Y164533D01*
X334813Y164506D01*
X334810Y164476D01*
X334804Y164443D01*
X334802Y164369D01*
X334799Y164285D01*
Y163703D01*
X335664D01*
Y164386D01*
X335662Y164421D01*
Y164457D01*
X335659Y164495D01*
X335656Y164531D01*
X335653Y164558D01*
Y164563D01*
X335651Y164577D01*
X335645Y164599D01*
X335637Y164626D01*
X335629Y164656D01*
X335615Y164686D01*
X335602Y164719D01*
X335585Y164749D01*
X335582Y164752D01*
X335577Y164763D01*
X335566Y164776D01*
X335550Y164795D01*
X335531Y164814D01*
X335506Y164836D01*
X335479Y164858D01*
X335446Y164877D01*
X335440Y164880D01*
X335430Y164885D01*
X335410Y164894D01*
X335383Y164905D01*
X335353Y164913D01*
X335318Y164921D01*
X335277Y164926D01*
X335233Y164929D01*
D02*
G37*
G36*
X334127Y164823D02*
X334125D01*
X334122D01*
X334106D01*
X334084Y164820D01*
X334054Y164814D01*
X334018Y164806D01*
X333980Y164795D01*
X333942Y164782D01*
X333906Y164760D01*
X333901Y164757D01*
X333890Y164749D01*
X333874Y164735D01*
X333854Y164716D01*
X333833Y164692D01*
X333811Y164662D01*
X333792Y164629D01*
X333775Y164588D01*
X333772Y164582D01*
Y164577D01*
X333770Y164566D01*
X333767Y164555D01*
X333764Y164539D01*
X333762Y164520D01*
X333756Y164500D01*
X333753Y164476D01*
X333751Y164446D01*
X333748Y164416D01*
X333745Y164380D01*
X333742Y164342D01*
Y164301D01*
X333740Y164255D01*
Y163703D01*
X334501D01*
Y164301D01*
X334499Y164323D01*
Y164369D01*
X334496Y164421D01*
X334490Y164476D01*
X334482Y164525D01*
X334480Y164547D01*
X334474Y164566D01*
Y164569D01*
X334471Y164571D01*
X334466Y164588D01*
X334458Y164610D01*
X334444Y164637D01*
X334428Y164667D01*
X334406Y164700D01*
X334379Y164730D01*
X334349Y164757D01*
X334343Y164760D01*
X334332Y164768D01*
X334313Y164779D01*
X334289Y164790D01*
X334256Y164801D01*
X334218Y164812D01*
X334176Y164820D01*
X334127Y164823D01*
D02*
G37*
G36*
X137557Y159722D02*
X136833D01*
Y158821D01*
X137513D01*
X137535Y158824D01*
X137562D01*
X137592Y158827D01*
X137627Y158832D01*
X137663Y158838D01*
X137739Y158851D01*
X137816Y158873D01*
X137851Y158887D01*
X137884Y158903D01*
X137917Y158920D01*
X137944Y158941D01*
X137947Y158944D01*
X137950Y158947D01*
X137958Y158955D01*
X137966Y158963D01*
X137988Y158991D01*
X138012Y159029D01*
X138037Y159078D01*
X138059Y159135D01*
X138075Y159204D01*
X138078Y159239D01*
X138081Y159280D01*
Y159283D01*
Y159288D01*
Y159296D01*
Y159307D01*
X138075Y159337D01*
X138070Y159373D01*
X138061Y159416D01*
X138045Y159460D01*
X138026Y159506D01*
X137999Y159550D01*
X137996Y159556D01*
X137985Y159569D01*
X137966Y159588D01*
X137944Y159610D01*
X137911Y159635D01*
X137876Y159659D01*
X137835Y159681D01*
X137788Y159698D01*
X137786D01*
X137772Y159700D01*
X137750Y159706D01*
X137717Y159711D01*
X137698D01*
X137677Y159714D01*
X137649Y159717D01*
X137622Y159719D01*
X137589D01*
X137557Y159722D01*
D02*
G37*
G36*
X191167Y173892D02*
X190413D01*
X190394Y173890D01*
X190373D01*
X190321Y173887D01*
X190263Y173882D01*
X190203Y173873D01*
X190146Y173863D01*
X190094Y173846D01*
X190091D01*
X190089Y173843D01*
X190072Y173838D01*
X190050Y173827D01*
X190020Y173811D01*
X189990Y173789D01*
X189958Y173764D01*
X189925Y173731D01*
X189898Y173696D01*
X189895Y173690D01*
X189887Y173677D01*
X189876Y173658D01*
X189862Y173628D01*
X189851Y173595D01*
X189840Y173557D01*
X189832Y173513D01*
X189829Y173469D01*
Y173467D01*
Y173461D01*
Y173453D01*
X189832Y173439D01*
Y173426D01*
X189835Y173407D01*
X189846Y173366D01*
X189862Y173319D01*
X189884Y173270D01*
X189917Y173224D01*
X189938Y173199D01*
X189960Y173177D01*
X189963Y173175D01*
X189966Y173172D01*
X189974Y173166D01*
X189985Y173158D01*
X189998Y173150D01*
X190018Y173139D01*
X190037Y173128D01*
X190061Y173117D01*
X190089Y173106D01*
X190119Y173098D01*
X190151Y173087D01*
X190187Y173079D01*
X190228Y173071D01*
X190271Y173065D01*
X190318Y173060D01*
X191167D01*
Y173892D01*
D02*
G37*
G36*
X186673Y175004D02*
X186095D01*
X186073Y175001D01*
X186048D01*
X185994Y174998D01*
X185931Y174993D01*
X185865Y174985D01*
X185802Y174974D01*
X185745Y174960D01*
X185742D01*
X185740Y174957D01*
X185731Y174954D01*
X185721Y174952D01*
X185696Y174941D01*
X185663Y174927D01*
X185628Y174908D01*
X185590Y174886D01*
X185551Y174859D01*
X185519Y174829D01*
X185516Y174826D01*
X185513Y174823D01*
X185500Y174807D01*
X185478Y174780D01*
X185450Y174744D01*
X185423Y174698D01*
X185393Y174643D01*
X185363Y174580D01*
X185336Y174510D01*
Y174507D01*
X185333Y174501D01*
X185330Y174490D01*
X185325Y174474D01*
X185319Y174455D01*
X185314Y174430D01*
X185308Y174403D01*
X185300Y174373D01*
X185295Y174340D01*
X185289Y174302D01*
X185284Y174264D01*
X185278Y174220D01*
X185270Y174127D01*
X185267Y174023D01*
Y174018D01*
Y174007D01*
Y173985D01*
X185270Y173958D01*
Y173925D01*
X185273Y173887D01*
X185278Y173846D01*
X185284Y173800D01*
X185300Y173701D01*
X185322Y173600D01*
X185355Y173505D01*
X185377Y173458D01*
X185398Y173417D01*
X185401Y173415D01*
X185404Y173409D01*
X185412Y173398D01*
X185423Y173382D01*
X185434Y173366D01*
X185450Y173346D01*
X185486Y173303D01*
X185532Y173254D01*
X185587Y173207D01*
X185647Y173164D01*
X185680Y173147D01*
X185715Y173131D01*
X185718D01*
X185721Y173128D01*
X185729Y173125D01*
X185740Y173123D01*
X185756Y173120D01*
X185773Y173114D01*
X185794Y173109D01*
X185819Y173103D01*
X185846Y173101D01*
X185879Y173095D01*
X185915Y173090D01*
X185953Y173087D01*
X185996Y173084D01*
X186043Y173082D01*
X186092Y173079D01*
X186673D01*
Y175004D01*
D02*
G37*
G36*
X180217D02*
X179638D01*
X179616Y175001D01*
X179592D01*
X179537Y174998D01*
X179474Y174993D01*
X179409Y174985D01*
X179346Y174974D01*
X179289Y174960D01*
X179286D01*
X179283Y174957D01*
X179275Y174954D01*
X179264Y174952D01*
X179240Y174941D01*
X179207Y174927D01*
X179171Y174908D01*
X179133Y174886D01*
X179095Y174859D01*
X179062Y174829D01*
X179059Y174826D01*
X179057Y174823D01*
X179043Y174807D01*
X179021Y174780D01*
X178994Y174744D01*
X178967Y174698D01*
X178937Y174643D01*
X178907Y174580D01*
X178879Y174510D01*
Y174507D01*
X178876Y174501D01*
X178874Y174490D01*
X178868Y174474D01*
X178863Y174455D01*
X178857Y174430D01*
X178852Y174403D01*
X178844Y174373D01*
X178838Y174340D01*
X178833Y174302D01*
X178827Y174264D01*
X178822Y174220D01*
X178814Y174127D01*
X178811Y174023D01*
Y174018D01*
Y174007D01*
Y173985D01*
X178814Y173958D01*
Y173925D01*
X178816Y173887D01*
X178822Y173846D01*
X178827Y173800D01*
X178844Y173701D01*
X178866Y173600D01*
X178898Y173505D01*
X178920Y173458D01*
X178942Y173417D01*
X178945Y173415D01*
X178947Y173409D01*
X178956Y173398D01*
X178967Y173382D01*
X178978Y173366D01*
X178994Y173346D01*
X179029Y173303D01*
X179076Y173254D01*
X179130Y173207D01*
X179191Y173164D01*
X179223Y173147D01*
X179259Y173131D01*
X179261D01*
X179264Y173128D01*
X179272Y173125D01*
X179283Y173123D01*
X179300Y173120D01*
X179316Y173114D01*
X179338Y173109D01*
X179362Y173103D01*
X179390Y173101D01*
X179422Y173095D01*
X179458Y173090D01*
X179496Y173087D01*
X179540Y173084D01*
X179586Y173082D01*
X179635Y173079D01*
X180217D01*
Y175004D01*
D02*
G37*
G36*
X176908Y175058D02*
X176892D01*
X176873Y175056D01*
X176845Y175053D01*
X176813Y175050D01*
X176777Y175045D01*
X176734Y175036D01*
X176690Y175025D01*
X176641Y175012D01*
X176592Y174995D01*
X176540Y174974D01*
X176488Y174946D01*
X176436Y174916D01*
X176384Y174883D01*
X176335Y174843D01*
X176288Y174796D01*
X176286Y174793D01*
X176277Y174783D01*
X176267Y174769D01*
X176250Y174747D01*
X176231Y174720D01*
X176209Y174687D01*
X176188Y174649D01*
X176166Y174602D01*
X176144Y174553D01*
X176119Y174496D01*
X176100Y174436D01*
X176081Y174367D01*
X176065Y174294D01*
X176054Y174217D01*
X176046Y174133D01*
X176043Y174045D01*
Y174043D01*
Y174032D01*
Y174015D01*
X176046Y173994D01*
Y173966D01*
X176048Y173936D01*
X176051Y173901D01*
X176056Y173863D01*
X176067Y173778D01*
X176086Y173688D01*
X176114Y173598D01*
X176149Y173508D01*
Y173505D01*
X176155Y173497D01*
X176160Y173486D01*
X176168Y173469D01*
X176179Y173450D01*
X176193Y173428D01*
X176226Y173377D01*
X176269Y173319D01*
X176321Y173262D01*
X176381Y173205D01*
X176452Y173153D01*
X176455Y173150D01*
X176461Y173147D01*
X176471Y173142D01*
X176488Y173134D01*
X176507Y173123D01*
X176529Y173112D01*
X176553Y173101D01*
X176583Y173087D01*
X176616Y173076D01*
X176649Y173065D01*
X176725Y173044D01*
X176810Y173030D01*
X176856Y173024D01*
X176919D01*
X176936Y173027D01*
X176963D01*
X176993Y173032D01*
X177028Y173038D01*
X177067Y173046D01*
X177110Y173054D01*
X177157Y173068D01*
X177206Y173084D01*
X177258Y173103D01*
X177307Y173128D01*
X177359Y173155D01*
X177410Y173188D01*
X177462Y173226D01*
X177512Y173270D01*
X177514Y173273D01*
X177522Y173281D01*
X177536Y173297D01*
X177550Y173317D01*
X177572Y173344D01*
X177591Y173377D01*
X177615Y173417D01*
X177637Y173461D01*
X177662Y173516D01*
X177686Y173576D01*
X177705Y173641D01*
X177725Y173715D01*
X177741Y173794D01*
X177754Y173882D01*
X177763Y173977D01*
X177765Y174081D01*
Y174086D01*
Y174100D01*
X177763Y174125D01*
Y174157D01*
X177757Y174196D01*
X177752Y174239D01*
X177746Y174288D01*
X177735Y174340D01*
X177722Y174398D01*
X177705Y174458D01*
X177686Y174515D01*
X177662Y174575D01*
X177634Y174635D01*
X177602Y174692D01*
X177566Y174747D01*
X177522Y174799D01*
X177520Y174802D01*
X177512Y174810D01*
X177498Y174823D01*
X177479Y174840D01*
X177454Y174859D01*
X177424Y174881D01*
X177391Y174905D01*
X177353Y174927D01*
X177312Y174952D01*
X177263Y174976D01*
X177214Y174998D01*
X177159Y175017D01*
X177102Y175034D01*
X177039Y175047D01*
X176976Y175056D01*
X176908Y175058D01*
D02*
G37*
G36*
X63397Y144893D02*
X62643D01*
X62624Y144890D01*
X62602D01*
X62550Y144887D01*
X62493Y144882D01*
X62433Y144873D01*
X62376Y144862D01*
X62324Y144846D01*
X62321D01*
X62318Y144843D01*
X62302Y144838D01*
X62280Y144827D01*
X62250Y144811D01*
X62220Y144789D01*
X62187Y144764D01*
X62155Y144731D01*
X62127Y144696D01*
X62125Y144691D01*
X62116Y144677D01*
X62105Y144658D01*
X62092Y144628D01*
X62081Y144595D01*
X62070Y144557D01*
X62062Y144513D01*
X62059Y144469D01*
Y144467D01*
Y144461D01*
Y144453D01*
X62062Y144439D01*
Y144426D01*
X62064Y144406D01*
X62075Y144366D01*
X62092Y144319D01*
X62114Y144270D01*
X62146Y144224D01*
X62168Y144199D01*
X62190Y144177D01*
X62193Y144175D01*
X62195Y144172D01*
X62204Y144166D01*
X62215Y144158D01*
X62228Y144150D01*
X62247Y144139D01*
X62266Y144128D01*
X62291Y144117D01*
X62318Y144106D01*
X62348Y144098D01*
X62381Y144087D01*
X62417Y144079D01*
X62458Y144071D01*
X62501Y144065D01*
X62548Y144060D01*
X63397D01*
Y144893D01*
D02*
G37*
G36*
X69072Y144980D02*
X68393D01*
X68371Y144977D01*
X68344D01*
X68313Y144974D01*
X68278Y144969D01*
X68243Y144964D01*
X68166Y144950D01*
X68090Y144928D01*
X68054Y144914D01*
X68021Y144898D01*
X67989Y144882D01*
X67961Y144860D01*
X67959Y144857D01*
X67956Y144854D01*
X67948Y144846D01*
X67939Y144838D01*
X67918Y144811D01*
X67893Y144772D01*
X67869Y144723D01*
X67847Y144666D01*
X67830Y144598D01*
X67827Y144562D01*
X67825Y144521D01*
Y144518D01*
Y144513D01*
Y144505D01*
Y144494D01*
X67830Y144464D01*
X67836Y144428D01*
X67844Y144385D01*
X67860Y144341D01*
X67879Y144295D01*
X67907Y144251D01*
X67909Y144246D01*
X67920Y144232D01*
X67939Y144213D01*
X67961Y144191D01*
X67994Y144166D01*
X68029Y144142D01*
X68071Y144120D01*
X68117Y144104D01*
X68120D01*
X68133Y144101D01*
X68155Y144095D01*
X68188Y144090D01*
X68207D01*
X68229Y144087D01*
X68256Y144084D01*
X68283Y144082D01*
X68316D01*
X68349Y144079D01*
X69072D01*
Y144980D01*
D02*
G37*
G36*
X190167Y152892D02*
X189413D01*
X189394Y152890D01*
X189373D01*
X189321Y152887D01*
X189263Y152882D01*
X189203Y152873D01*
X189146Y152863D01*
X189094Y152846D01*
X189091D01*
X189089Y152843D01*
X189072Y152838D01*
X189050Y152827D01*
X189020Y152811D01*
X188990Y152789D01*
X188958Y152764D01*
X188925Y152731D01*
X188898Y152696D01*
X188895Y152690D01*
X188887Y152677D01*
X188876Y152658D01*
X188862Y152628D01*
X188851Y152595D01*
X188840Y152557D01*
X188832Y152513D01*
X188829Y152469D01*
Y152467D01*
Y152461D01*
Y152453D01*
X188832Y152439D01*
Y152426D01*
X188835Y152407D01*
X188846Y152366D01*
X188862Y152319D01*
X188884Y152270D01*
X188917Y152224D01*
X188938Y152199D01*
X188960Y152177D01*
X188963Y152174D01*
X188966Y152172D01*
X188974Y152166D01*
X188985Y152158D01*
X188999Y152150D01*
X189018Y152139D01*
X189037Y152128D01*
X189061Y152117D01*
X189089Y152106D01*
X189119Y152098D01*
X189151Y152087D01*
X189187Y152079D01*
X189228Y152071D01*
X189272Y152065D01*
X189318Y152060D01*
X190167D01*
Y152892D01*
D02*
G37*
G36*
X63397Y166893D02*
X62643D01*
X62624Y166890D01*
X62602D01*
X62550Y166887D01*
X62493Y166882D01*
X62433Y166873D01*
X62376Y166862D01*
X62324Y166846D01*
X62321D01*
X62318Y166843D01*
X62302Y166838D01*
X62280Y166827D01*
X62250Y166811D01*
X62220Y166789D01*
X62187Y166764D01*
X62155Y166731D01*
X62127Y166696D01*
X62125Y166691D01*
X62116Y166677D01*
X62105Y166658D01*
X62092Y166628D01*
X62081Y166595D01*
X62070Y166557D01*
X62062Y166513D01*
X62059Y166469D01*
Y166467D01*
Y166461D01*
Y166453D01*
X62062Y166439D01*
Y166426D01*
X62064Y166407D01*
X62075Y166366D01*
X62092Y166319D01*
X62114Y166270D01*
X62146Y166224D01*
X62168Y166199D01*
X62190Y166177D01*
X62193Y166174D01*
X62195Y166172D01*
X62204Y166166D01*
X62215Y166158D01*
X62228Y166150D01*
X62247Y166139D01*
X62266Y166128D01*
X62291Y166117D01*
X62318Y166106D01*
X62348Y166098D01*
X62381Y166087D01*
X62417Y166079D01*
X62458Y166071D01*
X62501Y166065D01*
X62548Y166060D01*
X63397D01*
Y166893D01*
D02*
G37*
G36*
X69072Y166980D02*
X68393D01*
X68371Y166977D01*
X68344D01*
X68313Y166974D01*
X68278Y166969D01*
X68243Y166964D01*
X68166Y166950D01*
X68090Y166928D01*
X68054Y166914D01*
X68021Y166898D01*
X67989Y166882D01*
X67961Y166860D01*
X67958Y166857D01*
X67956Y166854D01*
X67948Y166846D01*
X67939Y166838D01*
X67918Y166811D01*
X67893Y166772D01*
X67868Y166723D01*
X67847Y166666D01*
X67830Y166598D01*
X67827Y166562D01*
X67825Y166521D01*
Y166518D01*
Y166513D01*
Y166505D01*
Y166494D01*
X67830Y166464D01*
X67836Y166428D01*
X67844Y166385D01*
X67860Y166341D01*
X67879Y166295D01*
X67907Y166251D01*
X67909Y166245D01*
X67920Y166232D01*
X67939Y166213D01*
X67961Y166191D01*
X67994Y166166D01*
X68029Y166142D01*
X68071Y166120D01*
X68117Y166103D01*
X68120D01*
X68133Y166101D01*
X68155Y166095D01*
X68188Y166090D01*
X68207D01*
X68229Y166087D01*
X68256Y166084D01*
X68283Y166082D01*
X68316D01*
X68349Y166079D01*
X69072D01*
Y166980D01*
D02*
G37*
G36*
X190167Y132393D02*
X189413D01*
X189394Y132390D01*
X189373D01*
X189321Y132387D01*
X189263Y132382D01*
X189203Y132373D01*
X189146Y132362D01*
X189094Y132346D01*
X189091D01*
X189089Y132343D01*
X189072Y132338D01*
X189050Y132327D01*
X189020Y132311D01*
X188990Y132289D01*
X188958Y132264D01*
X188925Y132231D01*
X188898Y132196D01*
X188895Y132191D01*
X188887Y132177D01*
X188876Y132158D01*
X188862Y132128D01*
X188851Y132095D01*
X188840Y132057D01*
X188832Y132013D01*
X188829Y131969D01*
Y131967D01*
Y131961D01*
Y131953D01*
X188832Y131939D01*
Y131926D01*
X188835Y131906D01*
X188846Y131866D01*
X188862Y131819D01*
X188884Y131770D01*
X188917Y131724D01*
X188938Y131699D01*
X188960Y131677D01*
X188963Y131675D01*
X188966Y131672D01*
X188974Y131666D01*
X188985Y131658D01*
X188998Y131650D01*
X189018Y131639D01*
X189037Y131628D01*
X189061Y131617D01*
X189089Y131606D01*
X189119Y131598D01*
X189151Y131587D01*
X189187Y131579D01*
X189228Y131571D01*
X189271Y131565D01*
X189318Y131560D01*
X190167D01*
Y132393D01*
D02*
G37*
%LPD*%
D11*
X342449Y196610D02*
X348551D01*
Y210390D01*
X342449D02*
X348551D01*
X342449Y196610D02*
Y210390D01*
X320449Y138933D02*
X350075D01*
Y178067D01*
X320449D02*
X350075D01*
X320449Y138933D02*
Y178067D01*
X120555Y143917D02*
Y171083D01*
Y143917D02*
X152445D01*
Y171083D01*
X120555D02*
X152445D01*
X198205Y172334D02*
Y179666D01*
X184795D02*
X198205D01*
X184795Y172334D02*
Y179666D01*
Y172334D02*
X198205D01*
X79327Y143752D02*
Y150248D01*
X68673D02*
X79327D01*
X68673Y143752D02*
Y150248D01*
Y143752D02*
X79327D01*
X195827Y151752D02*
Y158248D01*
X185173D02*
X195827D01*
X185173Y151752D02*
Y158248D01*
Y151752D02*
X195827D01*
X79327Y165752D02*
Y172248D01*
X68673D02*
X79327D01*
X68673Y165752D02*
Y172248D01*
Y165752D02*
X79327D01*
X195827Y131252D02*
Y137748D01*
X185173D02*
X195827D01*
X185173Y131252D02*
Y137748D01*
Y131252D02*
X195827D01*
M02*
