G04*
G04 #@! TF.GenerationSoftware,Altium Limited,Altium Designer,23.1.1 (15)*
G04*
G04 Layer_Color=2752767*
%FSLAX25Y25*%
%MOIN*%
G70*
G04*
G04 #@! TF.SameCoordinates,1AAF2E7D-96E3-414E-BA3B-76B57EA757C3*
G04*
G04*
G04 #@! TF.FilePolarity,Positive*
G04*
G01*
G75*
%ADD31C,0.00667*%
%ADD32C,0.00500*%
D31*
X212667Y267500D02*
G03*
X212667Y267500I-2000J0D01*
G01*
X202667D02*
G03*
X202667Y267500I-2000J0D01*
G01*
X192667D02*
G03*
X192667Y267500I-2000J0D01*
G01*
X182667D02*
G03*
X182667Y267500I-2000J0D01*
G01*
X186333Y17000D02*
G03*
X186333Y17000I-2000J0D01*
G01*
X196333D02*
G03*
X196333Y17000I-2000J0D01*
G01*
X206333D02*
G03*
X206333Y17000I-2000J0D01*
G01*
X216333D02*
G03*
X216333Y17000I-2000J0D01*
G01*
X186333Y45500D02*
G03*
X186333Y45500I-2000J0D01*
G01*
X196333D02*
G03*
X196333Y45500I-2000J0D01*
G01*
X206333D02*
G03*
X206333Y45500I-2000J0D01*
G01*
X216333D02*
G03*
X216333Y45500I-2000J0D01*
G01*
X277000Y267000D02*
G03*
X277000Y267000I-2000J0D01*
G01*
X267000D02*
G03*
X267000Y267000I-2000J0D01*
G01*
X257000D02*
G03*
X257000Y267000I-2000J0D01*
G01*
X247000D02*
G03*
X247000Y267000I-2000J0D01*
G01*
X277000Y295500D02*
G03*
X277000Y295500I-2000J0D01*
G01*
X267000D02*
G03*
X267000Y295500I-2000J0D01*
G01*
X257000D02*
G03*
X257000Y295500I-2000J0D01*
G01*
X247000D02*
G03*
X247000Y295500I-2000J0D01*
G01*
X212667Y295000D02*
G03*
X212667Y295000I-2000J0D01*
G01*
X202667D02*
G03*
X202667Y295000I-2000J0D01*
G01*
X192667D02*
G03*
X192667Y295000I-2000J0D01*
G01*
X182667D02*
G03*
X182667Y295000I-2000J0D01*
G01*
X152833Y267000D02*
G03*
X152833Y267000I-2000J0D01*
G01*
X142833D02*
G03*
X142833Y267000I-2000J0D01*
G01*
X132833D02*
G03*
X132833Y267000I-2000J0D01*
G01*
X122833D02*
G03*
X122833Y267000I-2000J0D01*
G01*
X152833Y294500D02*
G03*
X152833Y294500I-2000J0D01*
G01*
X142833D02*
G03*
X142833Y294500I-2000J0D01*
G01*
X132833D02*
G03*
X132833Y294500I-2000J0D01*
G01*
X122833D02*
G03*
X122833Y294500I-2000J0D01*
G01*
X88000Y268000D02*
G03*
X88000Y268000I-2000J0D01*
G01*
X78000D02*
G03*
X78000Y268000I-2000J0D01*
G01*
X68000D02*
G03*
X68000Y268000I-2000J0D01*
G01*
X58000D02*
G03*
X58000Y268000I-2000J0D01*
G01*
X88000Y295000D02*
G03*
X88000Y295000I-2000J0D01*
G01*
X78000D02*
G03*
X78000Y295000I-2000J0D01*
G01*
X68000D02*
G03*
X68000Y295000I-2000J0D01*
G01*
X58000D02*
G03*
X58000Y295000I-2000J0D01*
G01*
X247500Y45500D02*
G03*
X247500Y45500I-2000J0D01*
G01*
X257500D02*
G03*
X257500Y45500I-2000J0D01*
G01*
X267500D02*
G03*
X267500Y45500I-2000J0D01*
G01*
X277500D02*
G03*
X277500Y45500I-2000J0D01*
G01*
X247500Y17000D02*
G03*
X247500Y17000I-2000J0D01*
G01*
X257500D02*
G03*
X257500Y17000I-2000J0D01*
G01*
X267500D02*
G03*
X267500Y17000I-2000J0D01*
G01*
X277500D02*
G03*
X277500Y17000I-2000J0D01*
G01*
X125167Y45500D02*
G03*
X125167Y45500I-2000J0D01*
G01*
X135167D02*
G03*
X135167Y45500I-2000J0D01*
G01*
X145167D02*
G03*
X145167Y45500I-2000J0D01*
G01*
X155167D02*
G03*
X155167Y45500I-2000J0D01*
G01*
X125167Y17000D02*
G03*
X125167Y17000I-2000J0D01*
G01*
X135167D02*
G03*
X135167Y17000I-2000J0D01*
G01*
X145167D02*
G03*
X145167Y17000I-2000J0D01*
G01*
X155167D02*
G03*
X155167Y17000I-2000J0D01*
G01*
X64000Y45500D02*
G03*
X64000Y45500I-2000J0D01*
G01*
X74000D02*
G03*
X74000Y45500I-2000J0D01*
G01*
X84000D02*
G03*
X84000Y45500I-2000J0D01*
G01*
X94000D02*
G03*
X94000Y45500I-2000J0D01*
G01*
X64000Y17000D02*
G03*
X64000Y17000I-2000J0D01*
G01*
X74000D02*
G03*
X74000Y17000I-2000J0D01*
G01*
X84000D02*
G03*
X84000Y17000I-2000J0D01*
G01*
X94000D02*
G03*
X94000Y17000I-2000J0D01*
G01*
D32*
X337150Y173508D02*
Y177508D01*
X341150D01*
Y173508D01*
X337150D01*
Y139492D02*
Y143492D01*
X341150D01*
Y139492D01*
X337150D01*
X322189Y173508D02*
Y177508D01*
X326189D01*
Y173508D01*
X322189D01*
Y139492D02*
Y143492D01*
X326189D01*
Y139492D01*
X322189D01*
X105500Y140500D02*
X103500Y144500D01*
X107500D01*
X105500Y140500D01*
X211200Y158200D02*
X209200Y162200D01*
X213200D01*
X211200Y158200D01*
X295400Y154200D02*
X293400Y158200D01*
X297400D01*
X295400Y154200D01*
M02*
