G04*
G04 #@! TF.GenerationSoftware,Altium Limited,Altium Designer,23.1.1 (15)*
G04*
G04 Layer_Physical_Order=2*
G04 Layer_Color=16711680*
%FSLAX25Y25*%
%MOIN*%
G70*
G04*
G04 #@! TF.SameCoordinates,1AAF2E7D-96E3-414E-BA3B-76B57EA757C3*
G04*
G04*
G04 #@! TF.FilePolarity,Positive*
G04*
G01*
G75*
G04:AMPARAMS|DCode=24|XSize=43.31mil|YSize=66.93mil|CornerRadius=21.65mil|HoleSize=0mil|Usage=FLASHONLY|Rotation=90.000|XOffset=0mil|YOffset=0mil|HoleType=Round|Shape=RoundedRectangle|*
%AMROUNDEDRECTD24*
21,1,0.04331,0.02362,0,0,90.0*
21,1,0.00000,0.06693,0,0,90.0*
1,1,0.04331,0.01181,0.00000*
1,1,0.04331,0.01181,0.00000*
1,1,0.04331,-0.01181,0.00000*
1,1,0.04331,-0.01181,0.00000*
%
%ADD24ROUNDEDRECTD24*%
%ADD26C,0.01500*%
%ADD27C,0.05906*%
%ADD28R,0.05906X0.05906*%
%ADD29C,0.05000*%
D24*
X339150Y175508D02*
D03*
Y141492D02*
D03*
X324189Y175508D02*
D03*
Y141492D02*
D03*
D26*
X86000Y123000D02*
X105500Y142500D01*
Y248500D01*
X86000Y82667D02*
Y123000D01*
Y268000D02*
X105500Y248500D01*
X86000Y82667D02*
X123167Y45500D01*
X62000D02*
X73500Y57000D01*
Y255500D01*
X86000Y268000D01*
X123167Y17000D02*
X127967Y21800D01*
X179533D01*
X184333Y17000D01*
X86000Y295000D02*
X96900Y305900D01*
X139433D01*
X150833Y294500D01*
X184333Y45500D02*
X189133Y50300D01*
X240700D01*
X245500Y45500D01*
X150833Y267000D02*
X168167Y249667D01*
X192833D01*
X210667Y267500D01*
Y295000D02*
X223367Y282300D01*
X261800D01*
X275000Y295500D01*
X92000Y17000D02*
X96800Y12200D01*
X148367D01*
X153167Y17000D01*
Y45500D02*
X157967Y40700D01*
X209533D01*
X214333Y45500D01*
X228533Y31300D01*
X261300D01*
X275500Y45500D01*
X324189Y141492D02*
X339150D01*
X56000Y295000D02*
X69500Y281500D01*
X107833D01*
X120833Y294500D01*
X324189Y175508D02*
X339150D01*
X120833Y267000D02*
X134633Y280800D01*
X167367D01*
X180667Y267500D01*
Y295000D02*
X192367Y306700D01*
X233800D01*
X245000Y295500D01*
X211200Y160200D02*
X291400D01*
X295400Y156200D01*
D27*
X210667Y267500D02*
D03*
X200667D02*
D03*
X190667D02*
D03*
X184333Y17000D02*
D03*
X194333D02*
D03*
X204333D02*
D03*
X184333Y45500D02*
D03*
X194333D02*
D03*
X204333D02*
D03*
X275000Y267000D02*
D03*
X265000D02*
D03*
X255000D02*
D03*
X275000Y295500D02*
D03*
X265000D02*
D03*
X255000D02*
D03*
X210667Y295000D02*
D03*
X200667D02*
D03*
X190667D02*
D03*
X150833Y267000D02*
D03*
X140833D02*
D03*
X130833D02*
D03*
X150833Y294500D02*
D03*
X140833D02*
D03*
X130833D02*
D03*
X86000Y268000D02*
D03*
X76000D02*
D03*
X66000D02*
D03*
X86000Y295000D02*
D03*
X76000D02*
D03*
X66000D02*
D03*
X245500Y45500D02*
D03*
X255500D02*
D03*
X265500D02*
D03*
X245500Y17000D02*
D03*
X255500D02*
D03*
X265500D02*
D03*
X123167Y45500D02*
D03*
X133167D02*
D03*
X143167D02*
D03*
X123167Y17000D02*
D03*
X133167D02*
D03*
X143167D02*
D03*
X62000Y45500D02*
D03*
X72000D02*
D03*
X82000D02*
D03*
X62000Y17000D02*
D03*
X72000D02*
D03*
X82000D02*
D03*
D28*
X180667Y267500D02*
D03*
X214333Y17000D02*
D03*
Y45500D02*
D03*
X245000Y267000D02*
D03*
Y295500D02*
D03*
X180667Y295000D02*
D03*
X120833Y267000D02*
D03*
Y294500D02*
D03*
X56000Y268000D02*
D03*
Y295000D02*
D03*
X275500Y45500D02*
D03*
Y17000D02*
D03*
X153167Y45500D02*
D03*
Y17000D02*
D03*
X92000Y45500D02*
D03*
Y17000D02*
D03*
D29*
X105500Y142500D02*
D03*
X211200Y160200D02*
D03*
X295400Y156200D02*
D03*
M02*
