G04*
G04 #@! TF.GenerationSoftware,Altium Limited,Altium Designer,23.1.1 (15)*
G04*
G04 Layer_Color=65535*
%FSLAX25Y25*%
%MOIN*%
G70*
G04*
G04 #@! TF.SameCoordinates,1AAF2E7D-96E3-414E-BA3B-76B57EA757C3*
G04*
G04*
G04 #@! TF.FilePolarity,Positive*
G04*
G01*
G75*
%ADD10C,0.00984*%
%ADD11C,0.00787*%
%ADD12C,0.01000*%
D10*
X345992Y194642D02*
G03*
X345992Y194642I-492J0D01*
G01*
X319760Y147673D02*
G03*
X319760Y147673I-492J0D01*
G01*
X118488Y166752D02*
G03*
X118488Y166752I-492J0D01*
G01*
D11*
X349339Y199366D02*
Y207634D01*
X341661Y199366D02*
Y207634D01*
X175667Y262500D02*
Y272500D01*
X215667D01*
X175667Y262500D02*
X215667D01*
Y272500D01*
X219333Y12000D02*
Y22000D01*
X179333Y12000D02*
X219333D01*
X179333Y22000D02*
X219333D01*
X179333Y12000D02*
Y22000D01*
X219333Y40500D02*
Y50500D01*
X179333Y40500D02*
X219333D01*
X179333Y50500D02*
X219333D01*
X179333Y40500D02*
Y50500D01*
X329012Y140409D02*
X334327D01*
X329012Y176591D02*
X334327D01*
X129217Y144311D02*
Y170689D01*
Y144311D02*
X143783D01*
Y170689D01*
X129217D02*
X143783D01*
X185779Y171744D02*
X197221D01*
X185779Y180256D02*
X197221D01*
X69067Y142571D02*
X78933D01*
X69067Y151429D02*
X78933D01*
X185567Y150571D02*
X195433D01*
X185567Y159429D02*
X195433D01*
X69067Y164571D02*
X78933D01*
X69067Y173429D02*
X78933D01*
X185567Y130071D02*
X195433D01*
X185567Y138929D02*
X195433D01*
X240000Y262000D02*
Y272000D01*
X280000D01*
X240000Y262000D02*
X280000D01*
Y272000D01*
X240000Y290500D02*
Y300500D01*
X280000D01*
X240000Y290500D02*
X280000D01*
Y300500D01*
X175667Y290000D02*
Y300000D01*
X215667D01*
X175667Y290000D02*
X215667D01*
Y300000D01*
X115833Y262000D02*
Y272000D01*
X155833D01*
X115833Y262000D02*
X155833D01*
Y272000D01*
X115833Y289500D02*
Y299500D01*
X155833D01*
X115833Y289500D02*
X155833D01*
Y299500D01*
X51000Y263000D02*
Y273000D01*
X91000D01*
X51000Y263000D02*
X91000D01*
Y273000D01*
X51000Y290000D02*
Y300000D01*
X91000D01*
X51000Y290000D02*
X91000D01*
Y300000D01*
X280500Y40500D02*
Y50500D01*
X240500Y40500D02*
X280500D01*
X240500Y50500D02*
X280500D01*
X240500Y40500D02*
Y50500D01*
X280500Y12000D02*
Y22000D01*
X240500Y12000D02*
X280500D01*
X240500Y22000D02*
X280500D01*
X240500Y12000D02*
Y22000D01*
X158167Y40500D02*
Y50500D01*
X118167Y40500D02*
X158167D01*
X118167Y50500D02*
X158167D01*
X118167Y40500D02*
Y50500D01*
X158167Y12000D02*
Y22000D01*
X118167Y12000D02*
X158167D01*
X118167Y22000D02*
X158167D01*
X118167Y12000D02*
Y22000D01*
X97000Y40500D02*
Y50500D01*
X57000Y40500D02*
X97000D01*
X57000Y50500D02*
X97000D01*
X57000Y40500D02*
Y50500D01*
X97000Y12000D02*
Y22000D01*
X57000Y12000D02*
X97000D01*
X57000Y22000D02*
X97000D01*
X57000Y12000D02*
Y22000D01*
D12*
X47499Y269498D02*
X46499Y270498D01*
X44500D01*
X43500Y269498D01*
Y265500D01*
X44500Y264500D01*
X46499D01*
X47499Y265500D01*
Y267499D01*
X45499D01*
X348667Y7166D02*
Y4500D01*
X346001Y7166D01*
X345335D01*
X344668Y6499D01*
Y5167D01*
X345335Y4500D01*
X348667Y8499D02*
Y9832D01*
Y9165D01*
X344668D01*
X345335Y8499D01*
Y11831D02*
X344668Y12497D01*
Y13830D01*
X345335Y14497D01*
X346001D01*
X346668Y13830D01*
Y13164D01*
Y13830D01*
X347334Y14497D01*
X348001D01*
X348667Y13830D01*
Y12497D01*
X348001Y11831D01*
X349334Y15830D02*
Y18496D01*
X345335Y22494D02*
X344668Y21828D01*
Y20495D01*
X345335Y19828D01*
X346001D01*
X346668Y20495D01*
Y21828D01*
X347334Y22494D01*
X348001D01*
X348667Y21828D01*
Y20495D01*
X348001Y19828D01*
X344668Y23827D02*
X348667D01*
X346668D01*
X346001Y24494D01*
Y25826D01*
X346668Y26493D01*
X348667D01*
X346001Y28492D02*
Y29825D01*
X346668Y30492D01*
X348667D01*
Y28492D01*
X348001Y27826D01*
X347334Y28492D01*
Y30492D01*
X348667Y31824D02*
X346001D01*
Y33824D01*
X346668Y34490D01*
X348667D01*
X350000Y37156D02*
Y37823D01*
X349334Y38489D01*
X346001D01*
Y36490D01*
X346668Y35823D01*
X348001D01*
X348667Y36490D01*
Y38489D01*
X344668Y39822D02*
X348667D01*
X346668D01*
X346001Y40488D01*
Y41821D01*
X346668Y42488D01*
X348667D01*
X346001Y44487D02*
Y45820D01*
X346668Y46486D01*
X348667D01*
Y44487D01*
X348001Y43821D01*
X347334Y44487D01*
Y46486D01*
X348667Y47819D02*
Y49152D01*
Y48486D01*
X346001D01*
Y47819D01*
X349334Y51152D02*
Y53817D01*
X344668Y55150D02*
X348667D01*
Y57150D01*
X348001Y57816D01*
X347334D01*
X346668Y57150D01*
Y55150D01*
Y57150D01*
X346001Y57816D01*
X345335D01*
X344668Y57150D01*
Y55150D01*
Y59149D02*
X348667D01*
Y61815D01*
X344668Y65814D02*
Y63148D01*
X348667D01*
Y65814D01*
X346668Y63148D02*
Y64481D01*
X349334Y67146D02*
Y69812D01*
X344668Y71145D02*
X348667D01*
Y73145D01*
X348001Y73811D01*
X345335D01*
X344668Y73145D01*
Y71145D01*
X348667Y77143D02*
Y75810D01*
X348001Y75144D01*
X346668D01*
X346001Y75810D01*
Y77143D01*
X346668Y77810D01*
X347334D01*
Y75144D01*
X348667Y79143D02*
X346001D01*
Y79809D01*
X346668Y80475D01*
X348667D01*
X346668D01*
X346001Y81142D01*
X346668Y81808D01*
X348667D01*
Y83808D02*
Y85141D01*
X348001Y85807D01*
X346668D01*
X346001Y85141D01*
Y83808D01*
X346668Y83141D01*
X348001D01*
X348667Y83808D01*
X349334Y87140D02*
Y89806D01*
X344668Y91139D02*
X348667D01*
Y93138D01*
X348001Y93805D01*
X347334D01*
X346668D01*
X346001Y93138D01*
Y91139D01*
X348667Y95804D02*
Y97137D01*
X348001Y97803D01*
X346668D01*
X346001Y97137D01*
Y95804D01*
X346668Y95137D01*
X348001D01*
X348667Y95804D01*
X346001Y99803D02*
Y101136D01*
X346668Y101802D01*
X348667D01*
Y99803D01*
X348001Y99136D01*
X347334Y99803D01*
Y101802D01*
X346001Y103135D02*
X348667D01*
X347334D01*
X346668Y103801D01*
X346001Y104468D01*
Y105134D01*
X344668Y109799D02*
X348667D01*
Y107800D01*
X348001Y107134D01*
X346668D01*
X346001Y107800D01*
Y109799D01*
X349334Y111132D02*
Y113798D01*
X344668Y115131D02*
X347334D01*
X348667Y116464D01*
X347334Y117797D01*
X344668D01*
X348667Y119130D02*
Y120463D01*
Y119796D01*
X344668D01*
X345335Y119130D01*
X348667Y122462D02*
X348001D01*
Y123128D01*
X348667D01*
Y122462D01*
X345335Y125794D02*
X344668Y126461D01*
Y127794D01*
X345335Y128460D01*
X348001D01*
X348667Y127794D01*
Y126461D01*
X348001Y125794D01*
X345335D01*
X348667Y129793D02*
X348001D01*
Y130459D01*
X348667D01*
Y129793D01*
X345335Y133125D02*
X344668Y133792D01*
Y135125D01*
X345335Y135791D01*
X348001D01*
X348667Y135125D01*
Y133792D01*
X348001Y133125D01*
X345335D01*
X243500Y10498D02*
Y6499D01*
X245499Y4500D01*
X247499Y6499D01*
Y10498D01*
X277999Y9498D02*
X276999Y10498D01*
X275000D01*
X274000Y9498D01*
Y5500D01*
X275000Y4500D01*
X276999D01*
X277999Y5500D01*
Y7499D01*
X275999D01*
X319300Y187498D02*
Y182500D01*
X320300Y181500D01*
X322299D01*
X323299Y182500D01*
Y187498D01*
X329297Y186498D02*
X328297Y187498D01*
X326298D01*
X325298Y186498D01*
Y185499D01*
X326298Y184499D01*
X328297D01*
X329297Y183499D01*
Y182500D01*
X328297Y181500D01*
X326298D01*
X325298Y182500D01*
X331296Y187498D02*
Y181500D01*
X334295D01*
X335295Y182500D01*
Y183499D01*
X334295Y184499D01*
X331296D01*
X334295D01*
X335295Y185499D01*
Y186498D01*
X334295Y187498D01*
X331296D01*
X337294Y181500D02*
X339294D01*
X338294D01*
Y187498D01*
X337294Y186498D01*
X185400Y162400D02*
Y168398D01*
X188399D01*
X189399Y167398D01*
Y165399D01*
X188399Y164399D01*
X185400D01*
X187399D02*
X189399Y162400D01*
X191398D02*
Y168398D01*
X193397Y166399D01*
X195397Y168398D01*
Y162400D01*
X201395Y167398D02*
X200395Y168398D01*
X198396D01*
X197396Y167398D01*
Y163400D01*
X198396Y162400D01*
X200395D01*
X201395Y163400D01*
X207393Y168398D02*
X203394D01*
Y165399D01*
X205394D01*
X203394D01*
Y162400D01*
X209392Y167398D02*
X210392Y168398D01*
X212391D01*
X213391Y167398D01*
Y163400D01*
X212391Y162400D01*
X210392D01*
X209392Y163400D01*
Y167398D01*
X215390D02*
X216390Y168398D01*
X218389D01*
X219389Y167398D01*
Y166399D01*
X218389Y165399D01*
X219389Y164399D01*
Y163400D01*
X218389Y162400D01*
X216390D01*
X215390Y163400D01*
Y164399D01*
X216390Y165399D01*
X215390Y166399D01*
Y167398D01*
X216390Y165399D02*
X218389D01*
X221388Y167398D02*
X222388Y168398D01*
X224387D01*
X225387Y167398D01*
Y163400D01*
X224387Y162400D01*
X222388D01*
X221388Y163400D01*
Y167398D01*
X231385Y168398D02*
X227386D01*
Y165399D01*
X229386Y166399D01*
X230385D01*
X231385Y165399D01*
Y163400D01*
X230385Y162400D01*
X228386D01*
X227386Y163400D01*
X237383Y168398D02*
X235384D01*
X236384D01*
Y163400D01*
X235384Y162400D01*
X234384D01*
X233384Y163400D01*
X239383Y168398D02*
X243381D01*
X241382D01*
Y162400D01*
X245381D02*
X247380D01*
X246380D01*
Y168398D01*
X245381Y167398D01*
X250379D02*
X251379Y168398D01*
X253378D01*
X254378Y167398D01*
Y166399D01*
X253378Y165399D01*
X254378Y164399D01*
Y163400D01*
X253378Y162400D01*
X251379D01*
X250379Y163400D01*
Y164399D01*
X251379Y165399D01*
X250379Y166399D01*
Y167398D01*
X251379Y165399D02*
X253378D01*
X256377Y167398D02*
X257377Y168398D01*
X259376D01*
X260376Y167398D01*
Y163400D01*
X259376Y162400D01*
X257377D01*
X256377Y163400D01*
Y167398D01*
X262375Y162400D02*
Y168398D01*
X265374D01*
X266374Y167398D01*
Y165399D01*
X265374Y164399D01*
X262375D01*
X264374D02*
X266374Y162400D01*
X185800Y120700D02*
Y126698D01*
X188799D01*
X189799Y125698D01*
Y123699D01*
X188799Y122699D01*
X185800D01*
X187799D02*
X189799Y120700D01*
X191798D02*
Y126698D01*
X195797Y120700D01*
Y126698D01*
X197796D02*
X201795D01*
Y125698D01*
X197796Y121700D01*
Y120700D01*
X203794Y125698D02*
X204794Y126698D01*
X206793D01*
X207793Y125698D01*
Y124699D01*
X206793Y123699D01*
X205793D01*
X206793D01*
X207793Y122699D01*
Y121700D01*
X206793Y120700D01*
X204794D01*
X203794Y121700D01*
X209792Y120700D02*
Y126698D01*
X212791D01*
X213791Y125698D01*
Y123699D01*
X212791Y122699D01*
X209792D01*
X211792D02*
X213791Y120700D01*
X219789D02*
X215790D01*
X219789Y124699D01*
Y125698D01*
X218789Y126698D01*
X216790D01*
X215790Y125698D01*
X221788Y120700D02*
Y124699D01*
X223788Y126698D01*
X225787Y124699D01*
Y120700D01*
Y123699D01*
X221788D01*
X227786Y126698D02*
X231785D01*
X229786D01*
Y120700D01*
X233785Y126698D02*
X237783D01*
X235784D01*
Y120700D01*
X239783Y126698D02*
Y120700D01*
X242782D01*
X243781Y121700D01*
Y125698D01*
X242782Y126698D01*
X239783D01*
X249779D02*
X245781D01*
Y123699D01*
X247780Y124699D01*
X248780D01*
X249779Y123699D01*
Y121700D01*
X248780Y120700D01*
X246780D01*
X245781Y121700D01*
X251779Y120700D02*
X253778D01*
X252778D01*
Y126698D01*
X251779Y125698D01*
X256777D02*
X257777Y126698D01*
X259776D01*
X260776Y125698D01*
Y121700D01*
X259776Y120700D01*
X257777D01*
X256777Y121700D01*
Y125698D01*
X262775Y120700D02*
X264774D01*
X263775D01*
Y126698D01*
X262775Y125698D01*
X267774Y120700D02*
Y124699D01*
X269773Y126698D01*
X271772Y124699D01*
Y120700D01*
Y123699D01*
X267774D01*
X273772Y125698D02*
X274771Y126698D01*
X276771D01*
X277770Y125698D01*
Y121700D01*
X276771Y120700D01*
X274771D01*
X273772Y121700D01*
Y125698D01*
X283768Y126698D02*
X279770D01*
Y123699D01*
X281769Y124699D01*
X282769D01*
X283768Y123699D01*
Y121700D01*
X282769Y120700D01*
X280769D01*
X279770Y121700D01*
X185800Y141200D02*
Y147198D01*
X188799D01*
X189799Y146198D01*
Y144199D01*
X188799Y143199D01*
X185800D01*
X187799D02*
X189799Y141200D01*
X191798D02*
Y147198D01*
X195797Y141200D01*
Y147198D01*
X197796D02*
X201795D01*
Y146198D01*
X197796Y142200D01*
Y141200D01*
X203794Y146198D02*
X204794Y147198D01*
X206793D01*
X207793Y146198D01*
Y145199D01*
X206793Y144199D01*
X205793D01*
X206793D01*
X207793Y143199D01*
Y142200D01*
X206793Y141200D01*
X204794D01*
X203794Y142200D01*
X209792Y141200D02*
Y147198D01*
X212791D01*
X213791Y146198D01*
Y144199D01*
X212791Y143199D01*
X209792D01*
X211792D02*
X213791Y141200D01*
X219789D02*
X215790D01*
X219789Y145199D01*
Y146198D01*
X218789Y147198D01*
X216790D01*
X215790Y146198D01*
X221788Y141200D02*
Y145199D01*
X223788Y147198D01*
X225787Y145199D01*
Y141200D01*
Y144199D01*
X221788D01*
X227786Y147198D02*
X231785D01*
X229786D01*
Y141200D01*
X233785Y147198D02*
X237783D01*
X235784D01*
Y141200D01*
X239783Y147198D02*
Y141200D01*
X242782D01*
X243781Y142200D01*
Y146198D01*
X242782Y147198D01*
X239783D01*
X249779D02*
X245781D01*
Y144199D01*
X247780Y145199D01*
X248780D01*
X249779Y144199D01*
Y142200D01*
X248780Y141200D01*
X246780D01*
X245781Y142200D01*
X251779Y141200D02*
X253778D01*
X252778D01*
Y147198D01*
X251779Y146198D01*
X256777D02*
X257777Y147198D01*
X259776D01*
X260776Y146198D01*
Y142200D01*
X259776Y141200D01*
X257777D01*
X256777Y142200D01*
Y146198D01*
X262775Y141200D02*
X264774D01*
X263775D01*
Y147198D01*
X262775Y146198D01*
X267774Y141200D02*
Y145199D01*
X269773Y147198D01*
X271772Y145199D01*
Y141200D01*
Y144199D01*
X267774D01*
X273772Y146198D02*
X274771Y147198D01*
X276771D01*
X277770Y146198D01*
Y142200D01*
X276771Y141200D01*
X274771D01*
X273772Y142200D01*
Y146198D01*
X283768Y147198D02*
X279770D01*
Y144199D01*
X281769Y145199D01*
X282769D01*
X283768Y144199D01*
Y142200D01*
X282769Y141200D01*
X280769D01*
X279770Y142200D01*
X118000Y174500D02*
Y180498D01*
X120999D01*
X121999Y179498D01*
Y177499D01*
X120999Y176499D01*
X118000D01*
X123998Y174500D02*
X125997D01*
X124998D01*
Y180498D01*
X123998Y179498D01*
X334001Y194507D02*
X339999D01*
Y198505D01*
X334001Y204503D02*
Y200504D01*
X339999D01*
Y204503D01*
X337000Y200504D02*
Y202504D01*
X334001Y206503D02*
X339999D01*
Y209502D01*
X339000Y210501D01*
X335001D01*
X334001Y209502D01*
Y206503D01*
X340999Y212501D02*
Y216499D01*
X334001Y218499D02*
X339999D01*
Y222497D01*
X334001Y224497D02*
X339999D01*
Y227496D01*
X339000Y228496D01*
X335001D01*
X334001Y227496D01*
Y224497D01*
Y233494D02*
Y231494D01*
X335001Y230495D01*
X339000D01*
X339999Y231494D01*
Y233494D01*
X339000Y234493D01*
X335001D01*
X334001Y233494D01*
X73299Y138198D02*
X72299Y139198D01*
X70300D01*
X69300Y138198D01*
Y134200D01*
X70300Y133200D01*
X72299D01*
X73299Y134200D01*
X79297Y138198D02*
X78297Y139198D01*
X76298D01*
X75298Y138198D01*
Y134200D01*
X76298Y133200D01*
X78297D01*
X79297Y134200D01*
X81296Y138198D02*
X82296Y139198D01*
X84295D01*
X85295Y138198D01*
Y134200D01*
X84295Y133200D01*
X82296D01*
X81296Y134200D01*
Y138198D01*
X87294D02*
X88294Y139198D01*
X90293D01*
X91293Y138198D01*
Y137199D01*
X90293Y136199D01*
X91293Y135199D01*
Y134200D01*
X90293Y133200D01*
X88294D01*
X87294Y134200D01*
Y135199D01*
X88294Y136199D01*
X87294Y137199D01*
Y138198D01*
X88294Y136199D02*
X90293D01*
X93292Y138198D02*
X94292Y139198D01*
X96291D01*
X97291Y138198D01*
Y134200D01*
X96291Y133200D01*
X94292D01*
X93292Y134200D01*
Y138198D01*
X103289Y139198D02*
X99290D01*
Y136199D01*
X101290Y137199D01*
X102289D01*
X103289Y136199D01*
Y134200D01*
X102289Y133200D01*
X100290D01*
X99290Y134200D01*
X105288Y133200D02*
Y139198D01*
X107288Y137199D01*
X109287Y139198D01*
Y133200D01*
X111286Y139198D02*
Y133200D01*
Y135199D01*
X115285Y139198D01*
X112286Y136199D01*
X115285Y133200D01*
X117285Y139198D02*
X121283Y133200D01*
Y139198D02*
X117285Y133200D01*
X127281Y139198D02*
X123283D01*
Y136199D01*
X125282Y137199D01*
X126282D01*
X127281Y136199D01*
Y134200D01*
X126282Y133200D01*
X124282D01*
X123283Y134200D01*
X129281Y133200D02*
Y139198D01*
X132280D01*
X133279Y138198D01*
Y136199D01*
X132280Y135199D01*
X129281D01*
X131280D02*
X133279Y133200D01*
X135279Y138198D02*
X136278Y139198D01*
X138278D01*
X139277Y138198D01*
Y137199D01*
X138278Y136199D01*
X139277Y135199D01*
Y134200D01*
X138278Y133200D01*
X136278D01*
X135279Y134200D01*
Y135199D01*
X136278Y136199D01*
X135279Y137199D01*
Y138198D01*
X136278Y136199D02*
X138278D01*
X141277Y139198D02*
Y133200D01*
X144276D01*
X145275Y134200D01*
Y135199D01*
X144276Y136199D01*
X141277D01*
X144276D01*
X145275Y137199D01*
Y138198D01*
X144276Y139198D01*
X141277D01*
X147275D02*
Y133200D01*
X150274D01*
X151274Y134200D01*
Y135199D01*
X150274Y136199D01*
X147275D01*
X150274D01*
X151274Y137199D01*
Y138198D01*
X150274Y139198D01*
X147275D01*
X157272Y133200D02*
X153273D01*
X157272Y137199D01*
Y138198D01*
X156272Y139198D01*
X154272D01*
X153273Y138198D01*
X163270Y133200D02*
X159271D01*
X163270Y137199D01*
Y138198D01*
X162270Y139198D01*
X160271D01*
X159271Y138198D01*
X169268Y139198D02*
X167268Y138198D01*
X165269Y136199D01*
Y134200D01*
X166269Y133200D01*
X168268D01*
X169268Y134200D01*
Y135199D01*
X168268Y136199D01*
X165269D01*
X73299Y160198D02*
X72299Y161198D01*
X70300D01*
X69300Y160198D01*
Y156200D01*
X70300Y155200D01*
X72299D01*
X73299Y156200D01*
X79297Y160198D02*
X78297Y161198D01*
X76298D01*
X75298Y160198D01*
Y156200D01*
X76298Y155200D01*
X78297D01*
X79297Y156200D01*
X81296Y160198D02*
X82296Y161198D01*
X84295D01*
X85295Y160198D01*
Y156200D01*
X84295Y155200D01*
X82296D01*
X81296Y156200D01*
Y160198D01*
X87294D02*
X88294Y161198D01*
X90293D01*
X91293Y160198D01*
Y159199D01*
X90293Y158199D01*
X91293Y157199D01*
Y156200D01*
X90293Y155200D01*
X88294D01*
X87294Y156200D01*
Y157199D01*
X88294Y158199D01*
X87294Y159199D01*
Y160198D01*
X88294Y158199D02*
X90293D01*
X93292Y160198D02*
X94292Y161198D01*
X96291D01*
X97291Y160198D01*
Y156200D01*
X96291Y155200D01*
X94292D01*
X93292Y156200D01*
Y160198D01*
X103289Y161198D02*
X99290D01*
Y158199D01*
X101290Y159199D01*
X102289D01*
X103289Y158199D01*
Y156200D01*
X102289Y155200D01*
X100290D01*
X99290Y156200D01*
X105288Y155200D02*
Y161198D01*
X107288Y159199D01*
X109287Y161198D01*
Y155200D01*
X111286Y161198D02*
Y155200D01*
Y157199D01*
X115285Y161198D01*
X112286Y158199D01*
X115285Y155200D01*
X117285Y161198D02*
X121283Y155200D01*
Y161198D02*
X117285Y155200D01*
X127281Y161198D02*
X123283D01*
Y158199D01*
X125282Y159199D01*
X126282D01*
X127281Y158199D01*
Y156200D01*
X126282Y155200D01*
X124282D01*
X123283Y156200D01*
X129281Y155200D02*
Y161198D01*
X132280D01*
X133279Y160198D01*
Y158199D01*
X132280Y157199D01*
X129281D01*
X131280D02*
X133279Y155200D01*
X135279Y160198D02*
X136278Y161198D01*
X138278D01*
X139277Y160198D01*
Y159199D01*
X138278Y158199D01*
X139277Y157199D01*
Y156200D01*
X138278Y155200D01*
X136278D01*
X135279Y156200D01*
Y157199D01*
X136278Y158199D01*
X135279Y159199D01*
Y160198D01*
X136278Y158199D02*
X138278D01*
X141277Y161198D02*
Y155200D01*
X144276D01*
X145275Y156200D01*
Y157199D01*
X144276Y158199D01*
X141277D01*
X144276D01*
X145275Y159199D01*
Y160198D01*
X144276Y161198D01*
X141277D01*
X147275D02*
Y155200D01*
X150274D01*
X151274Y156200D01*
Y157199D01*
X150274Y158199D01*
X147275D01*
X150274D01*
X151274Y159199D01*
Y160198D01*
X150274Y161198D01*
X147275D01*
X157272Y155200D02*
X153273D01*
X157272Y159199D01*
Y160198D01*
X156272Y161198D01*
X154272D01*
X153273Y160198D01*
X163270Y155200D02*
X159271D01*
X163270Y159199D01*
Y160198D01*
X162270Y161198D01*
X160271D01*
X159271Y160198D01*
X169268Y161198D02*
X167268Y160198D01*
X165269Y158199D01*
Y156200D01*
X166269Y155200D01*
X168268D01*
X169268Y156200D01*
Y157199D01*
X168268Y158199D01*
X165269D01*
X57600Y31398D02*
Y25400D01*
X60599D01*
X61599Y26400D01*
Y27399D01*
X60599Y28399D01*
X57600D01*
X60599D01*
X61599Y29399D01*
Y30398D01*
X60599Y31398D01*
X57600D01*
X63598D02*
Y25400D01*
X67597D01*
X73595Y31398D02*
X69596D01*
Y25400D01*
X73595D01*
X69596Y28399D02*
X71596D01*
X75594Y30398D02*
X76594Y31398D01*
X78593D01*
X79593Y30398D01*
Y29399D01*
X78593Y28399D01*
X79593Y27399D01*
Y26400D01*
X78593Y25400D01*
X76594D01*
X75594Y26400D01*
Y27399D01*
X76594Y28399D01*
X75594Y29399D01*
Y30398D01*
X76594Y28399D02*
X78593D01*
X57600Y60898D02*
Y54900D01*
X60599D01*
X61599Y55900D01*
Y56899D01*
X60599Y57899D01*
X57600D01*
X60599D01*
X61599Y58899D01*
Y59898D01*
X60599Y60898D01*
X57600D01*
X63598D02*
Y54900D01*
X67597D01*
X73595Y60898D02*
X69596D01*
Y54900D01*
X73595D01*
X69596Y57899D02*
X71596D01*
X75594Y59898D02*
X76594Y60898D01*
X78593D01*
X79593Y59898D01*
Y58899D01*
X78593Y57899D01*
X79593Y56899D01*
Y55900D01*
X78593Y54900D01*
X76594D01*
X75594Y55900D01*
Y56899D01*
X76594Y57899D01*
X75594Y58899D01*
Y59898D01*
X76594Y57899D02*
X78593D01*
X81592Y53900D02*
X85591D01*
X87590Y54900D02*
X89590D01*
X88590D01*
Y60898D01*
X87590Y59898D01*
X118800Y31398D02*
Y25400D01*
X121799D01*
X122799Y26400D01*
Y27399D01*
X121799Y28399D01*
X118800D01*
X121799D01*
X122799Y29399D01*
Y30398D01*
X121799Y31398D01*
X118800D01*
X124798D02*
Y25400D01*
X128797D01*
X134795Y31398D02*
X130796D01*
Y25400D01*
X134795D01*
X130796Y28399D02*
X132796D01*
X136794Y31398D02*
X140793D01*
Y30398D01*
X136794Y26400D01*
Y25400D01*
X118800Y60898D02*
Y54900D01*
X121799D01*
X122799Y55900D01*
Y56899D01*
X121799Y57899D01*
X118800D01*
X121799D01*
X122799Y58899D01*
Y59898D01*
X121799Y60898D01*
X118800D01*
X124798D02*
Y54900D01*
X128797D01*
X134795Y60898D02*
X130796D01*
Y54900D01*
X134795D01*
X130796Y57899D02*
X132796D01*
X136794Y60898D02*
X140793D01*
Y59898D01*
X136794Y55900D01*
Y54900D01*
X142792Y53900D02*
X146791D01*
X148790Y54900D02*
X150790D01*
X149790D01*
Y60898D01*
X148790Y59898D01*
X179900Y31398D02*
Y25400D01*
X182899D01*
X183899Y26400D01*
Y27399D01*
X182899Y28399D01*
X179900D01*
X182899D01*
X183899Y29399D01*
Y30398D01*
X182899Y31398D01*
X179900D01*
X185898D02*
Y25400D01*
X189897D01*
X195895Y31398D02*
X191896D01*
Y25400D01*
X195895D01*
X191896Y28399D02*
X193895D01*
X201893Y31398D02*
X199893Y30398D01*
X197894Y28399D01*
Y26400D01*
X198894Y25400D01*
X200893D01*
X201893Y26400D01*
Y27399D01*
X200893Y28399D01*
X197894D01*
X179900Y60898D02*
Y54900D01*
X182899D01*
X183899Y55900D01*
Y56899D01*
X182899Y57899D01*
X179900D01*
X182899D01*
X183899Y58899D01*
Y59898D01*
X182899Y60898D01*
X179900D01*
X185898D02*
Y54900D01*
X189897D01*
X195895Y60898D02*
X191896D01*
Y54900D01*
X195895D01*
X191896Y57899D02*
X193895D01*
X201893Y60898D02*
X199893Y59898D01*
X197894Y57899D01*
Y55900D01*
X198894Y54900D01*
X200893D01*
X201893Y55900D01*
Y56899D01*
X200893Y57899D01*
X197894D01*
X203892Y53900D02*
X207891D01*
X209890Y54900D02*
X211890D01*
X210890D01*
Y60898D01*
X209890Y59898D01*
X241100Y31398D02*
Y25400D01*
X244099D01*
X245099Y26400D01*
Y27399D01*
X244099Y28399D01*
X241100D01*
X244099D01*
X245099Y29399D01*
Y30398D01*
X244099Y31398D01*
X241100D01*
X247098D02*
Y25400D01*
X251097D01*
X257095Y31398D02*
X253096D01*
Y25400D01*
X257095D01*
X253096Y28399D02*
X255096D01*
X263093Y31398D02*
X259094D01*
Y28399D01*
X261093Y29399D01*
X262093D01*
X263093Y28399D01*
Y26400D01*
X262093Y25400D01*
X260094D01*
X259094Y26400D01*
X241100Y60898D02*
Y54900D01*
X244099D01*
X245099Y55900D01*
Y56899D01*
X244099Y57899D01*
X241100D01*
X244099D01*
X245099Y58899D01*
Y59898D01*
X244099Y60898D01*
X241100D01*
X247098D02*
Y54900D01*
X251097D01*
X257095Y60898D02*
X253096D01*
Y54900D01*
X257095D01*
X253096Y57899D02*
X255096D01*
X263093Y60898D02*
X259094D01*
Y57899D01*
X261093Y58899D01*
X262093D01*
X263093Y57899D01*
Y55900D01*
X262093Y54900D01*
X260094D01*
X259094Y55900D01*
X265092Y53900D02*
X269091D01*
X271090Y54900D02*
X273090D01*
X272090D01*
Y60898D01*
X271090Y59898D01*
X51600Y309398D02*
Y303400D01*
X54599D01*
X55599Y304400D01*
Y305399D01*
X54599Y306399D01*
X51600D01*
X54599D01*
X55599Y307399D01*
Y308398D01*
X54599Y309398D01*
X51600D01*
X57598D02*
Y303400D01*
X61597D01*
X67595Y309398D02*
X63596D01*
Y303400D01*
X67595D01*
X63596Y306399D02*
X65596D01*
X72593Y303400D02*
Y309398D01*
X69594Y306399D01*
X73593D01*
X51600Y283398D02*
Y277400D01*
X54599D01*
X55599Y278400D01*
Y279399D01*
X54599Y280399D01*
X51600D01*
X54599D01*
X55599Y281399D01*
Y282398D01*
X54599Y283398D01*
X51600D01*
X57598D02*
Y277400D01*
X61597D01*
X67595Y283398D02*
X63596D01*
Y277400D01*
X67595D01*
X63596Y280399D02*
X65596D01*
X72593Y277400D02*
Y283398D01*
X69594Y280399D01*
X73593D01*
X75592Y276400D02*
X79591D01*
X81590Y277400D02*
X83590D01*
X82590D01*
Y283398D01*
X81590Y282398D01*
X116400Y308898D02*
Y302900D01*
X119399D01*
X120399Y303900D01*
Y304899D01*
X119399Y305899D01*
X116400D01*
X119399D01*
X120399Y306899D01*
Y307898D01*
X119399Y308898D01*
X116400D01*
X122398D02*
Y302900D01*
X126397D01*
X132395Y308898D02*
X128396D01*
Y302900D01*
X132395D01*
X128396Y305899D02*
X130395D01*
X134394Y307898D02*
X135394Y308898D01*
X137393D01*
X138393Y307898D01*
Y306899D01*
X137393Y305899D01*
X136393D01*
X137393D01*
X138393Y304899D01*
Y303900D01*
X137393Y302900D01*
X135394D01*
X134394Y303900D01*
X116400Y282398D02*
Y276400D01*
X119399D01*
X120399Y277400D01*
Y278399D01*
X119399Y279399D01*
X116400D01*
X119399D01*
X120399Y280399D01*
Y281398D01*
X119399Y282398D01*
X116400D01*
X122398D02*
Y276400D01*
X126397D01*
X132395Y282398D02*
X128396D01*
Y276400D01*
X132395D01*
X128396Y279399D02*
X130395D01*
X134394Y281398D02*
X135394Y282398D01*
X137393D01*
X138393Y281398D01*
Y280399D01*
X137393Y279399D01*
X136393D01*
X137393D01*
X138393Y278399D01*
Y277400D01*
X137393Y276400D01*
X135394D01*
X134394Y277400D01*
X140392Y275400D02*
X144391D01*
X146390Y276400D02*
X148390D01*
X147390D01*
Y282398D01*
X146390Y281398D01*
X176300Y309398D02*
Y303400D01*
X179299D01*
X180299Y304400D01*
Y305399D01*
X179299Y306399D01*
X176300D01*
X179299D01*
X180299Y307399D01*
Y308398D01*
X179299Y309398D01*
X176300D01*
X182298D02*
Y303400D01*
X186297D01*
X192295Y309398D02*
X188296D01*
Y303400D01*
X192295D01*
X188296Y306399D02*
X190296D01*
X198293Y303400D02*
X194294D01*
X198293Y307399D01*
Y308398D01*
X197293Y309398D01*
X195294D01*
X194294Y308398D01*
X176300Y282898D02*
Y276900D01*
X179299D01*
X180299Y277900D01*
Y278899D01*
X179299Y279899D01*
X176300D01*
X179299D01*
X180299Y280899D01*
Y281898D01*
X179299Y282898D01*
X176300D01*
X182298D02*
Y276900D01*
X186297D01*
X192295Y282898D02*
X188296D01*
Y276900D01*
X192295D01*
X188296Y279899D02*
X190296D01*
X198293Y276900D02*
X194294D01*
X198293Y280899D01*
Y281898D01*
X197293Y282898D01*
X195294D01*
X194294Y281898D01*
X200292Y275900D02*
X204291D01*
X206290Y276900D02*
X208290D01*
X207290D01*
Y282898D01*
X206290Y281898D01*
X240600Y309898D02*
Y303900D01*
X243599D01*
X244599Y304900D01*
Y305899D01*
X243599Y306899D01*
X240600D01*
X243599D01*
X244599Y307899D01*
Y308898D01*
X243599Y309898D01*
X240600D01*
X246598D02*
Y303900D01*
X250597D01*
X256595Y309898D02*
X252596D01*
Y303900D01*
X256595D01*
X252596Y306899D02*
X254595D01*
X258594Y303900D02*
X260594D01*
X259594D01*
Y309898D01*
X258594Y308898D01*
X240600Y282398D02*
Y276400D01*
X243599D01*
X244599Y277400D01*
Y278399D01*
X243599Y279399D01*
X240600D01*
X243599D01*
X244599Y280399D01*
Y281398D01*
X243599Y282398D01*
X240600D01*
X246598D02*
Y276400D01*
X250597D01*
X256595Y282398D02*
X252596D01*
Y276400D01*
X256595D01*
X252596Y279399D02*
X254595D01*
X258594Y276400D02*
X260594D01*
X259594D01*
Y282398D01*
X258594Y281398D01*
X263593Y275400D02*
X267591D01*
X269591Y276400D02*
X271590D01*
X270590D01*
Y282398D01*
X269591Y281398D01*
M02*
