G04*
G04 #@! TF.GenerationSoftware,Altium Limited,Altium Designer,23.1.1 (15)*
G04*
G04 Layer_Color=255*
%FSLAX25Y25*%
%MOIN*%
G70*
G04*
G04 #@! TF.SameCoordinates,1AAF2E7D-96E3-414E-BA3B-76B57EA757C3*
G04*
G04*
G04 #@! TF.FilePolarity,Positive*
G04*
G01*
G75*
%ADD13R,0.04724X0.04724*%
%ADD14R,0.04724X0.02756*%
%ADD15R,0.04724X0.02992*%
%ADD16R,0.04724X0.03150*%
%ADD17R,0.05906X0.12992*%
%ADD18R,0.05906X0.04724*%
%ADD19R,0.04546X0.05363*%
%ADD20R,0.04349X0.05339*%
%ADD21R,0.03367X0.05339*%
G04:AMPARAMS|DCode=24|XSize=43.31mil|YSize=66.93mil|CornerRadius=21.65mil|HoleSize=0mil|Usage=FLASHONLY|Rotation=90.000|XOffset=0mil|YOffset=0mil|HoleType=Round|Shape=RoundedRectangle|*
%AMROUNDEDRECTD24*
21,1,0.04331,0.02362,0,0,90.0*
21,1,0.00000,0.06693,0,0,90.0*
1,1,0.04331,0.01181,0.00000*
1,1,0.04331,0.01181,0.00000*
1,1,0.04331,-0.01181,0.00000*
1,1,0.04331,-0.01181,0.00000*
%
%ADD24ROUNDEDRECTD24*%
%ADD27C,0.05906*%
%ADD28R,0.05906X0.05906*%
D13*
X345500Y207634D02*
D03*
Y199366D02*
D03*
D14*
X324189Y160469D02*
D03*
Y156532D02*
D03*
D15*
Y164484D02*
D03*
Y152516D02*
D03*
D16*
Y169327D02*
D03*
Y147673D02*
D03*
D17*
X149098Y157500D02*
D03*
D18*
X123902Y148445D02*
D03*
Y157500D02*
D03*
Y166555D02*
D03*
D19*
X188052Y176000D02*
D03*
X194948D02*
D03*
D20*
X71241Y147000D02*
D03*
X76759D02*
D03*
X71241Y169000D02*
D03*
X76759D02*
D03*
D21*
X187250Y155000D02*
D03*
X193750D02*
D03*
X187250Y134500D02*
D03*
X193750D02*
D03*
D24*
X339150Y175508D02*
D03*
Y141492D02*
D03*
X324189Y175508D02*
D03*
Y141492D02*
D03*
D27*
X210667Y267500D02*
D03*
X200667D02*
D03*
X190667D02*
D03*
X184333Y17000D02*
D03*
X194333D02*
D03*
X204333D02*
D03*
X184333Y45500D02*
D03*
X194333D02*
D03*
X204333D02*
D03*
X275000Y267000D02*
D03*
X265000D02*
D03*
X255000D02*
D03*
X275000Y295500D02*
D03*
X265000D02*
D03*
X255000D02*
D03*
X210667Y295000D02*
D03*
X200667D02*
D03*
X190667D02*
D03*
X150833Y267000D02*
D03*
X140833D02*
D03*
X130833D02*
D03*
X150833Y294500D02*
D03*
X140833D02*
D03*
X130833D02*
D03*
X86000Y268000D02*
D03*
X76000D02*
D03*
X66000D02*
D03*
X86000Y295000D02*
D03*
X76000D02*
D03*
X66000D02*
D03*
X245500Y45500D02*
D03*
X255500D02*
D03*
X265500D02*
D03*
X245500Y17000D02*
D03*
X255500D02*
D03*
X265500D02*
D03*
X123167Y45500D02*
D03*
X133167D02*
D03*
X143167D02*
D03*
X123167Y17000D02*
D03*
X133167D02*
D03*
X143167D02*
D03*
X62000Y45500D02*
D03*
X72000D02*
D03*
X82000D02*
D03*
X62000Y17000D02*
D03*
X72000D02*
D03*
X82000D02*
D03*
D28*
X180667Y267500D02*
D03*
X214333Y17000D02*
D03*
Y45500D02*
D03*
X245000Y267000D02*
D03*
Y295500D02*
D03*
X180667Y295000D02*
D03*
X120833Y267000D02*
D03*
Y294500D02*
D03*
X56000Y268000D02*
D03*
Y295000D02*
D03*
X275500Y45500D02*
D03*
Y17000D02*
D03*
X153167Y45500D02*
D03*
Y17000D02*
D03*
X92000Y45500D02*
D03*
Y17000D02*
D03*
M02*
