M48
;Layer_Color=9474304
;FILE_FORMAT=2:5
INCH,TZ
;TYPE=PLATED
T2F00S00C0.02800
T3F00S00C0.03543
%
T02
X105500Y142500
X295400Y156200
X211200Y160200
T03
X62000Y17000
X72000
X82000
X92000
Y45500
X82000
X72000
X62000
X123167
X133167
X143167
X153167
Y17000
X143167
X133167
X123167
X184333
X194333
X204333
X214333
Y45500
X204333
X194333
X184333
X245500
X255500
X265500
X275500
Y17000
X265500
X255500
X245500
X245000Y267000
X255000
X265000
X275000
Y295500
X265000
X255000
X245000
X210667Y295000
X200667
X190667
X180667
Y267500
X190667
X200667
X210667
X150833Y267000
X140833
X130833
X120833
Y294500
X130833
X140833
X150833
X86000Y295000
X76000
X66000
X56000
Y268000
X66000
X76000
X86000
M30
