G04*
G04 #@! TF.GenerationSoftware,Altium Limited,Altium Designer,23.1.1 (15)*
G04*
G04 Layer_Physical_Order=2*
G04 Layer_Color=16711680*
%FSLAX25Y25*%
%MOIN*%
G70*
G04*
G04 #@! TF.SameCoordinates,45878567-CE0E-41C7-ACDA-4C7A12290E7D*
G04*
G04*
G04 #@! TF.FilePolarity,Positive*
G04*
G01*
G75*
%ADD12C,0.01000*%
G04:AMPARAMS|DCode=13|XSize=43.31mil|YSize=23.62mil|CornerRadius=2.01mil|HoleSize=0mil|Usage=FLASHONLY|Rotation=180.000|XOffset=0mil|YOffset=0mil|HoleType=Round|Shape=RoundedRectangle|*
%AMROUNDEDRECTD13*
21,1,0.04331,0.01961,0,0,180.0*
21,1,0.03929,0.02362,0,0,180.0*
1,1,0.00402,-0.01965,0.00980*
1,1,0.00402,0.01965,0.00980*
1,1,0.00402,0.01965,-0.00980*
1,1,0.00402,-0.01965,-0.00980*
%
%ADD13ROUNDEDRECTD13*%
%ADD16R,0.05906X0.05906*%
%ADD17C,0.05906*%
D12*
X6500Y30499D02*
X13259Y23740D01*
X14882D01*
X6500Y20499D02*
X6999Y20000D01*
X14882D01*
X6500Y10499D02*
X12261Y16260D01*
X14882D01*
X27240D02*
X33500Y10000D01*
X25118Y16260D02*
X27240D01*
X25118Y20000D02*
X33500D01*
X27240Y23740D02*
X33500Y30000D01*
X25118Y23740D02*
X27240D01*
D13*
X25118D02*
D03*
Y20000D02*
D03*
Y16260D02*
D03*
X14882D02*
D03*
Y20000D02*
D03*
Y23740D02*
D03*
D16*
X6500Y10499D02*
D03*
X33500Y30000D02*
D03*
D17*
X6500Y20499D02*
D03*
Y30499D02*
D03*
X33500Y20000D02*
D03*
Y10000D02*
D03*
M02*
