G04*
G04 #@! TF.GenerationSoftware,Altium Limited,Altium Designer,23.1.1 (15)*
G04*
G04 Layer_Physical_Order=1*
G04 Layer_Color=255*
%FSLAX25Y25*%
%MOIN*%
G70*
G04*
G04 #@! TF.SameCoordinates,45878567-CE0E-41C7-ACDA-4C7A12290E7D*
G04*
G04*
G04 #@! TF.FilePolarity,Positive*
G04*
G01*
G75*
%ADD12C,0.01000*%
G04:AMPARAMS|DCode=13|XSize=43.31mil|YSize=23.62mil|CornerRadius=2.01mil|HoleSize=0mil|Usage=FLASHONLY|Rotation=180.000|XOffset=0mil|YOffset=0mil|HoleType=Round|Shape=RoundedRectangle|*
%AMROUNDEDRECTD13*
21,1,0.04331,0.01961,0,0,180.0*
21,1,0.03929,0.02362,0,0,180.0*
1,1,0.00402,-0.01965,0.00980*
1,1,0.00402,0.01965,0.00980*
1,1,0.00402,0.01965,-0.00980*
1,1,0.00402,-0.01965,-0.00980*
%
%ADD13ROUNDEDRECTD13*%
%ADD16R,0.05906X0.05906*%
%ADD17C,0.05906*%
D12*
X16501Y30499D02*
X19000Y28000D01*
Y17000D02*
Y28000D01*
X6500Y30499D02*
X16501D01*
X2633Y25500D02*
X10500D01*
X2047Y24914D02*
X2633Y25500D01*
X2047Y14952D02*
Y24914D01*
X37367Y15500D02*
X37953Y16086D01*
Y24547D01*
X33500Y29000D02*
X37953Y24547D01*
X25878Y15500D02*
X37367D01*
X25118Y16260D02*
X25878Y15500D01*
X33500Y29000D02*
Y30000D01*
X2047Y14952D02*
X6500Y10499D01*
X10500Y25500D02*
X12260Y23740D01*
X14882D01*
X18260Y16260D02*
X19000Y17000D01*
X14882Y16260D02*
X18260D01*
X6500Y20499D02*
X6999Y20000D01*
X14882D01*
X25118D02*
X33500D01*
X23500Y10000D02*
X33500D01*
X21000Y12500D02*
X23500Y10000D01*
X21000Y12500D02*
Y22500D01*
X22240Y23740D01*
X25118D01*
D13*
X14882Y16260D02*
D03*
Y20000D02*
D03*
Y23740D02*
D03*
X25118D02*
D03*
Y20000D02*
D03*
Y16260D02*
D03*
D16*
X6500Y10499D02*
D03*
X33500Y30000D02*
D03*
D17*
X6500Y20499D02*
D03*
Y30499D02*
D03*
X33500Y20000D02*
D03*
Y10000D02*
D03*
M02*
