G04*
G04 #@! TF.GenerationSoftware,Altium Limited,Altium Designer,23.1.1 (15)*
G04*
G04 Layer_Color=32896*
%FSLAX25Y25*%
%MOIN*%
G70*
G04*
G04 #@! TF.SameCoordinates,45878567-CE0E-41C7-ACDA-4C7A12290E7D*
G04*
G04*
G04 #@! TF.FilePolarity,Positive*
G04*
G01*
G75*
%ADD10C,0.00984*%
%ADD11C,0.00787*%
%ADD12C,0.01000*%
D10*
X30039Y23740D02*
G03*
X30039Y23740I-492J0D01*
G01*
D11*
X18228Y26004D02*
X21772D01*
X18228Y13996D02*
X21772D01*
D12*
X29663Y10333D02*
X30330Y10999D01*
X31663D01*
X32329Y10333D01*
Y9667D01*
X31663Y9000D01*
X30330D01*
X29663Y8333D01*
Y7667D01*
X30330Y7001D01*
X31663D01*
X32329Y7667D01*
X26331Y10999D02*
X27664D01*
X28330Y10333D01*
Y7667D01*
X27664Y7001D01*
X26331D01*
X25664Y7667D01*
Y10333D01*
X26331Y10999D01*
X24332D02*
X21666D01*
X22999D01*
Y7001D01*
X17667D02*
X20333D01*
X17667Y9667D01*
Y10333D01*
X18334Y10999D01*
X19667D01*
X20333Y10333D01*
X16334D02*
X15668Y10999D01*
X14335D01*
X13668Y10333D01*
Y9667D01*
X14335Y9000D01*
X15001D01*
X14335D01*
X13668Y8333D01*
Y7667D01*
X14335Y7001D01*
X15668D01*
X16334Y7667D01*
X12336Y9000D02*
X9670D01*
X5671Y10999D02*
X7004Y10333D01*
X8337Y9000D01*
Y7667D01*
X7670Y7001D01*
X6337D01*
X5671Y7667D01*
Y8333D01*
X6337Y9000D01*
X8337D01*
M02*
