G04*
G04 #@! TF.GenerationSoftware,Altium Limited,Altium Designer,23.1.1 (15)*
G04*
G04 Layer_Color=32896*
%FSLAX25Y25*%
%MOIN*%
G70*
G04*
G04 #@! TF.SameCoordinates,45878567-CE0E-41C7-ACDA-4C7A12290E7D*
G04*
G04*
G04 #@! TF.FilePolarity,Positive*
G04*
G01*
G75*
%ADD11C,0.00787*%
G36*
X15733Y22506D02*
X15774Y22446D01*
X15820Y22389D01*
X15867Y22340D01*
X15908Y22293D01*
X15927Y22277D01*
X15940Y22260D01*
X15954Y22247D01*
X15965Y22239D01*
X15971Y22233D01*
X15973Y22230D01*
X16047Y22168D01*
X16126Y22113D01*
X16203Y22061D01*
X16274Y22017D01*
X16304Y22001D01*
X16334Y21985D01*
X16361Y21968D01*
X16383Y21957D01*
X16402Y21949D01*
X16416Y21941D01*
X16424Y21938D01*
X16427Y21936D01*
Y21638D01*
X16372Y21660D01*
X16315Y21684D01*
X16260Y21712D01*
X16211Y21736D01*
X16167Y21761D01*
X16148Y21769D01*
X16132Y21780D01*
X16118Y21785D01*
X16110Y21791D01*
X16104Y21796D01*
X16102D01*
X16036Y21837D01*
X15979Y21876D01*
X15927Y21911D01*
X15886Y21944D01*
X15850Y21971D01*
X15826Y21990D01*
X15812Y22004D01*
X15807Y22009D01*
Y20041D01*
X15498D01*
Y22569D01*
X15698D01*
X15733Y22506D01*
D02*
G37*
G36*
X18051Y22602D02*
X18111Y22599D01*
X18223Y22580D01*
X18277Y22569D01*
X18327Y22555D01*
X18376Y22542D01*
X18419Y22528D01*
X18458Y22514D01*
X18493Y22501D01*
X18526Y22487D01*
X18550Y22476D01*
X18572Y22465D01*
X18586Y22457D01*
X18597Y22454D01*
X18600Y22452D01*
X18649Y22422D01*
X18698Y22389D01*
X18742Y22353D01*
X18782Y22318D01*
X18821Y22279D01*
X18856Y22244D01*
X18886Y22206D01*
X18916Y22173D01*
X18941Y22138D01*
X18963Y22107D01*
X18982Y22080D01*
X18998Y22056D01*
X19009Y22034D01*
X19017Y22020D01*
X19023Y22009D01*
X19025Y22006D01*
X19053Y21952D01*
X19075Y21892D01*
X19094Y21835D01*
X19113Y21777D01*
X19140Y21660D01*
X19148Y21605D01*
X19157Y21553D01*
X19162Y21504D01*
X19167Y21461D01*
X19170Y21420D01*
X19173Y21384D01*
X19176Y21357D01*
Y21335D01*
Y21324D01*
Y21318D01*
X19173Y21253D01*
X19170Y21188D01*
X19154Y21062D01*
X19146Y21002D01*
X19135Y20947D01*
X19121Y20895D01*
X19110Y20846D01*
X19096Y20803D01*
X19085Y20762D01*
X19075Y20729D01*
X19064Y20699D01*
X19056Y20677D01*
X19050Y20658D01*
X19047Y20647D01*
X19045Y20644D01*
X19017Y20587D01*
X18990Y20532D01*
X18960Y20483D01*
X18927Y20437D01*
X18894Y20393D01*
X18864Y20355D01*
X18832Y20319D01*
X18802Y20287D01*
X18771Y20257D01*
X18744Y20232D01*
X18720Y20213D01*
X18698Y20194D01*
X18681Y20180D01*
X18668Y20172D01*
X18660Y20166D01*
X18657Y20164D01*
X18608Y20134D01*
X18556Y20109D01*
X18501Y20087D01*
X18444Y20068D01*
X18389Y20055D01*
X18335Y20041D01*
X18280Y20030D01*
X18228Y20022D01*
X18179Y20014D01*
X18135Y20008D01*
X18094Y20005D01*
X18062Y20003D01*
X18032Y20000D01*
X17993D01*
X17920Y20003D01*
X17852Y20008D01*
X17786Y20019D01*
X17723Y20033D01*
X17663Y20049D01*
X17609Y20068D01*
X17559Y20087D01*
X17513Y20106D01*
X17469Y20125D01*
X17434Y20145D01*
X17401Y20164D01*
X17377Y20180D01*
X17355Y20194D01*
X17341Y20205D01*
X17330Y20210D01*
X17327Y20213D01*
X17278Y20257D01*
X17232Y20303D01*
X17191Y20352D01*
X17153Y20401D01*
X17117Y20453D01*
X17087Y20508D01*
X17060Y20557D01*
X17035Y20609D01*
X17013Y20655D01*
X16997Y20699D01*
X16981Y20740D01*
X16970Y20773D01*
X16959Y20803D01*
X16953Y20822D01*
X16948Y20835D01*
Y20841D01*
X17281Y20925D01*
X17295Y20868D01*
X17314Y20813D01*
X17333Y20762D01*
X17352Y20715D01*
X17374Y20672D01*
X17396Y20633D01*
X17417Y20598D01*
X17439Y20565D01*
X17461Y20538D01*
X17480Y20513D01*
X17499Y20491D01*
X17513Y20475D01*
X17527Y20461D01*
X17538Y20453D01*
X17543Y20448D01*
X17546Y20445D01*
X17584Y20418D01*
X17622Y20393D01*
X17660Y20371D01*
X17701Y20352D01*
X17742Y20336D01*
X17781Y20322D01*
X17857Y20303D01*
X17890Y20298D01*
X17922Y20292D01*
X17950Y20289D01*
X17974Y20287D01*
X17993Y20284D01*
X18021D01*
X18065Y20287D01*
X18105Y20289D01*
X18185Y20303D01*
X18258Y20322D01*
X18321Y20344D01*
X18348Y20355D01*
X18373Y20363D01*
X18395Y20374D01*
X18414Y20382D01*
X18430Y20390D01*
X18441Y20396D01*
X18447Y20401D01*
X18449D01*
X18485Y20426D01*
X18518Y20450D01*
X18578Y20508D01*
X18627Y20565D01*
X18668Y20625D01*
X18698Y20677D01*
X18711Y20699D01*
X18722Y20721D01*
X18728Y20737D01*
X18733Y20748D01*
X18739Y20756D01*
Y20759D01*
X18769Y20852D01*
X18793Y20947D01*
X18810Y21043D01*
X18815Y21087D01*
X18821Y21130D01*
X18823Y21171D01*
X18826Y21207D01*
X18829Y21239D01*
Y21267D01*
X18832Y21291D01*
Y21308D01*
Y21318D01*
Y21321D01*
X18829Y21414D01*
X18821Y21501D01*
X18807Y21583D01*
X18802Y21622D01*
X18793Y21657D01*
X18785Y21687D01*
X18780Y21717D01*
X18771Y21742D01*
X18766Y21764D01*
X18763Y21780D01*
X18758Y21794D01*
X18755Y21802D01*
Y21804D01*
X18720Y21889D01*
X18679Y21963D01*
X18635Y22026D01*
X18610Y22053D01*
X18589Y22080D01*
X18567Y22102D01*
X18548Y22121D01*
X18529Y22140D01*
X18515Y22154D01*
X18501Y22165D01*
X18490Y22173D01*
X18485Y22176D01*
X18482Y22178D01*
X18444Y22203D01*
X18406Y22225D01*
X18365Y22244D01*
X18324Y22260D01*
X18242Y22285D01*
X18163Y22304D01*
X18130Y22309D01*
X18097Y22312D01*
X18067Y22315D01*
X18043Y22318D01*
X18021Y22320D01*
X17947D01*
X17903Y22315D01*
X17821Y22301D01*
X17751Y22279D01*
X17720Y22269D01*
X17691Y22258D01*
X17663Y22247D01*
X17641Y22236D01*
X17622Y22225D01*
X17606Y22214D01*
X17592Y22206D01*
X17584Y22200D01*
X17579Y22198D01*
X17576Y22195D01*
X17546Y22170D01*
X17516Y22143D01*
X17467Y22080D01*
X17420Y22012D01*
X17385Y21946D01*
X17357Y21886D01*
X17344Y21862D01*
X17336Y21840D01*
X17327Y21821D01*
X17325Y21804D01*
X17319Y21796D01*
Y21794D01*
X16992Y21870D01*
X17013Y21933D01*
X17038Y21993D01*
X17063Y22050D01*
X17093Y22102D01*
X17120Y22151D01*
X17150Y22195D01*
X17180Y22236D01*
X17210Y22271D01*
X17240Y22304D01*
X17265Y22331D01*
X17289Y22356D01*
X17311Y22375D01*
X17327Y22391D01*
X17341Y22402D01*
X17349Y22408D01*
X17352Y22411D01*
X17401Y22446D01*
X17453Y22473D01*
X17505Y22501D01*
X17559Y22523D01*
X17614Y22542D01*
X17666Y22558D01*
X17718Y22569D01*
X17767Y22580D01*
X17813Y22588D01*
X17854Y22593D01*
X17892Y22599D01*
X17925Y22602D01*
X17953Y22604D01*
X17988D01*
X18051Y22602D01*
D02*
G37*
G36*
X20000Y20041D02*
X19667D01*
Y22561D01*
X20000D01*
Y20041D01*
D02*
G37*
D11*
X12323Y26988D02*
X27677D01*
X12323Y13012D02*
Y26988D01*
Y13012D02*
X27677D01*
Y26988D01*
M02*
