G04*
G04 #@! TF.GenerationSoftware,Altium Limited,Altium Designer,23.1.1 (15)*
G04*
G04 Layer_Color=16711935*
%FSLAX25Y25*%
%MOIN*%
G70*
G04*
G04 #@! TF.SameCoordinates,45878567-CE0E-41C7-ACDA-4C7A12290E7D*
G04*
G04*
G04 #@! TF.FilePolarity,Positive*
G04*
G01*
G75*
%ADD11C,0.00787*%
G36*
X18062Y19997D02*
X18094Y19995D01*
X18135Y19992D01*
X18179Y19986D01*
X18228Y19978D01*
X18280Y19970D01*
X18335Y19959D01*
X18389Y19945D01*
X18444Y19932D01*
X18501Y19913D01*
X18556Y19891D01*
X18608Y19866D01*
X18657Y19836D01*
X18660Y19834D01*
X18668Y19828D01*
X18681Y19820D01*
X18698Y19806D01*
X18720Y19787D01*
X18744Y19768D01*
X18771Y19743D01*
X18802Y19713D01*
X18832Y19681D01*
X18864Y19645D01*
X18894Y19607D01*
X18927Y19563D01*
X18960Y19517D01*
X18990Y19468D01*
X19017Y19413D01*
X19045Y19356D01*
X19047Y19353D01*
X19050Y19342D01*
X19055Y19323D01*
X19064Y19301D01*
X19075Y19271D01*
X19085Y19238D01*
X19096Y19197D01*
X19110Y19154D01*
X19121Y19105D01*
X19135Y19053D01*
X19146Y18998D01*
X19154Y18938D01*
X19170Y18812D01*
X19173Y18747D01*
X19176Y18681D01*
Y18676D01*
Y18665D01*
Y18643D01*
X19173Y18616D01*
X19170Y18580D01*
X19167Y18540D01*
X19162Y18496D01*
X19157Y18447D01*
X19148Y18395D01*
X19140Y18340D01*
X19113Y18223D01*
X19094Y18166D01*
X19075Y18108D01*
X19053Y18048D01*
X19025Y17993D01*
X19023Y17991D01*
X19017Y17980D01*
X19009Y17966D01*
X18998Y17944D01*
X18982Y17920D01*
X18963Y17892D01*
X18941Y17862D01*
X18916Y17827D01*
X18886Y17794D01*
X18856Y17756D01*
X18821Y17720D01*
X18782Y17682D01*
X18742Y17647D01*
X18698Y17611D01*
X18649Y17579D01*
X18599Y17549D01*
X18597Y17546D01*
X18586Y17543D01*
X18572Y17535D01*
X18550Y17524D01*
X18526Y17513D01*
X18493Y17499D01*
X18458Y17486D01*
X18419Y17472D01*
X18376Y17458D01*
X18327Y17445D01*
X18277Y17431D01*
X18223Y17420D01*
X18111Y17401D01*
X18051Y17398D01*
X17988Y17396D01*
X17953D01*
X17925Y17398D01*
X17892Y17401D01*
X17854Y17406D01*
X17813Y17412D01*
X17767Y17420D01*
X17718Y17431D01*
X17666Y17442D01*
X17614Y17458D01*
X17559Y17478D01*
X17505Y17499D01*
X17453Y17527D01*
X17401Y17554D01*
X17352Y17589D01*
X17349Y17592D01*
X17341Y17598D01*
X17327Y17608D01*
X17311Y17625D01*
X17289Y17644D01*
X17265Y17669D01*
X17240Y17696D01*
X17210Y17729D01*
X17180Y17764D01*
X17150Y17805D01*
X17120Y17849D01*
X17093Y17898D01*
X17063Y17950D01*
X17038Y18007D01*
X17013Y18067D01*
X16992Y18130D01*
X17319Y18206D01*
Y18204D01*
X17325Y18195D01*
X17327Y18179D01*
X17336Y18160D01*
X17344Y18138D01*
X17357Y18114D01*
X17385Y18054D01*
X17420Y17988D01*
X17467Y17920D01*
X17516Y17857D01*
X17546Y17830D01*
X17576Y17805D01*
X17579Y17802D01*
X17584Y17800D01*
X17592Y17794D01*
X17606Y17786D01*
X17622Y17775D01*
X17641Y17764D01*
X17663Y17753D01*
X17691Y17742D01*
X17720Y17731D01*
X17751Y17720D01*
X17821Y17699D01*
X17903Y17685D01*
X17947Y17680D01*
X18021D01*
X18043Y17682D01*
X18067Y17685D01*
X18097Y17688D01*
X18130Y17691D01*
X18163Y17696D01*
X18242Y17715D01*
X18324Y17740D01*
X18365Y17756D01*
X18406Y17775D01*
X18444Y17797D01*
X18482Y17821D01*
X18485Y17824D01*
X18490Y17827D01*
X18501Y17835D01*
X18515Y17846D01*
X18529Y17860D01*
X18548Y17879D01*
X18567Y17898D01*
X18589Y17920D01*
X18610Y17947D01*
X18635Y17974D01*
X18679Y18037D01*
X18720Y18111D01*
X18755Y18195D01*
Y18198D01*
X18758Y18206D01*
X18763Y18220D01*
X18766Y18236D01*
X18771Y18258D01*
X18780Y18283D01*
X18785Y18313D01*
X18793Y18343D01*
X18802Y18378D01*
X18807Y18417D01*
X18821Y18498D01*
X18829Y18586D01*
X18832Y18679D01*
Y18681D01*
Y18692D01*
Y18709D01*
X18829Y18733D01*
Y18761D01*
X18826Y18793D01*
X18823Y18829D01*
X18821Y18870D01*
X18815Y18914D01*
X18810Y18957D01*
X18793Y19053D01*
X18769Y19148D01*
X18739Y19241D01*
Y19244D01*
X18733Y19252D01*
X18728Y19263D01*
X18722Y19279D01*
X18711Y19301D01*
X18698Y19323D01*
X18668Y19375D01*
X18627Y19435D01*
X18578Y19492D01*
X18518Y19550D01*
X18485Y19574D01*
X18449Y19599D01*
X18447D01*
X18441Y19604D01*
X18430Y19610D01*
X18414Y19618D01*
X18395Y19626D01*
X18373Y19637D01*
X18348Y19645D01*
X18321Y19656D01*
X18258Y19678D01*
X18185Y19697D01*
X18105Y19711D01*
X18065Y19713D01*
X18021Y19716D01*
X17993D01*
X17974Y19713D01*
X17950Y19711D01*
X17922Y19708D01*
X17890Y19703D01*
X17857Y19697D01*
X17781Y19678D01*
X17742Y19664D01*
X17701Y19648D01*
X17660Y19629D01*
X17622Y19607D01*
X17584Y19582D01*
X17546Y19555D01*
X17543Y19552D01*
X17538Y19547D01*
X17527Y19539D01*
X17513Y19525D01*
X17499Y19509D01*
X17480Y19487D01*
X17461Y19462D01*
X17439Y19435D01*
X17417Y19402D01*
X17396Y19367D01*
X17374Y19329D01*
X17352Y19285D01*
X17333Y19238D01*
X17314Y19186D01*
X17295Y19132D01*
X17281Y19075D01*
X16948Y19159D01*
Y19165D01*
X16953Y19178D01*
X16959Y19197D01*
X16970Y19227D01*
X16981Y19260D01*
X16997Y19301D01*
X17013Y19345D01*
X17035Y19391D01*
X17060Y19443D01*
X17087Y19492D01*
X17117Y19547D01*
X17153Y19599D01*
X17191Y19648D01*
X17232Y19697D01*
X17278Y19743D01*
X17327Y19787D01*
X17330Y19790D01*
X17341Y19795D01*
X17355Y19806D01*
X17377Y19820D01*
X17401Y19836D01*
X17434Y19855D01*
X17469Y19874D01*
X17513Y19894D01*
X17559Y19913D01*
X17608Y19932D01*
X17663Y19951D01*
X17723Y19967D01*
X17786Y19981D01*
X17852Y19992D01*
X17920Y19997D01*
X17993Y20000D01*
X18032D01*
X18062Y19997D01*
D02*
G37*
G36*
X20000Y17439D02*
X19667D01*
Y19959D01*
X20000D01*
Y17439D01*
D02*
G37*
G36*
X16705Y19954D02*
Y19940D01*
Y19918D01*
X16702Y19891D01*
X16700Y19858D01*
X16691Y19823D01*
X16683Y19784D01*
X16669Y19746D01*
Y19743D01*
X16667Y19738D01*
X16664Y19730D01*
X16658Y19716D01*
X16650Y19703D01*
X16642Y19683D01*
X16620Y19640D01*
X16593Y19588D01*
X16557Y19531D01*
X16517Y19470D01*
X16467Y19410D01*
X16465Y19408D01*
X16462Y19402D01*
X16454Y19394D01*
X16440Y19380D01*
X16427Y19367D01*
X16407Y19348D01*
X16388Y19326D01*
X16364Y19301D01*
X16336Y19274D01*
X16306Y19247D01*
X16274Y19214D01*
X16235Y19181D01*
X16197Y19146D01*
X16153Y19110D01*
X16110Y19072D01*
X16061Y19031D01*
X16055Y19028D01*
X16041Y19015D01*
X16022Y18998D01*
X15995Y18974D01*
X15962Y18946D01*
X15924Y18914D01*
X15880Y18878D01*
X15837Y18837D01*
X15744Y18752D01*
X15654Y18662D01*
X15610Y18619D01*
X15569Y18575D01*
X15534Y18534D01*
X15504Y18496D01*
X15501Y18493D01*
X15498Y18488D01*
X15490Y18477D01*
X15482Y18463D01*
X15468Y18444D01*
X15457Y18425D01*
X15430Y18376D01*
X15403Y18318D01*
X15378Y18256D01*
X15362Y18190D01*
X15359Y18157D01*
X15356Y18124D01*
Y18122D01*
Y18116D01*
Y18105D01*
X15359Y18094D01*
Y18078D01*
X15364Y18059D01*
X15373Y18018D01*
X15389Y17969D01*
X15414Y17917D01*
X15427Y17890D01*
X15446Y17865D01*
X15465Y17841D01*
X15490Y17816D01*
X15493Y17813D01*
X15495Y17811D01*
X15504Y17805D01*
X15515Y17797D01*
X15528Y17786D01*
X15545Y17775D01*
X15583Y17751D01*
X15635Y17729D01*
X15692Y17707D01*
X15760Y17693D01*
X15799Y17688D01*
X15859D01*
X15875Y17691D01*
X15894D01*
X15916Y17696D01*
X15965Y17704D01*
X16022Y17720D01*
X16082Y17745D01*
X16113Y17761D01*
X16142Y17778D01*
X16170Y17800D01*
X16197Y17824D01*
X16200Y17827D01*
X16203Y17830D01*
X16208Y17838D01*
X16219Y17849D01*
X16227Y17862D01*
X16238Y17879D01*
X16252Y17898D01*
X16263Y17920D01*
X16276Y17944D01*
X16287Y17972D01*
X16309Y18037D01*
X16326Y18108D01*
X16328Y18149D01*
X16331Y18193D01*
X16648Y18160D01*
Y18155D01*
X16645Y18144D01*
X16642Y18127D01*
X16639Y18103D01*
X16634Y18073D01*
X16626Y18037D01*
X16618Y17999D01*
X16604Y17958D01*
X16590Y17917D01*
X16574Y17871D01*
X16552Y17827D01*
X16530Y17783D01*
X16503Y17737D01*
X16473Y17696D01*
X16440Y17655D01*
X16402Y17619D01*
X16399Y17617D01*
X16391Y17611D01*
X16380Y17603D01*
X16364Y17589D01*
X16342Y17576D01*
X16315Y17559D01*
X16285Y17543D01*
X16249Y17524D01*
X16211Y17507D01*
X16167Y17491D01*
X16121Y17475D01*
X16069Y17461D01*
X16014Y17447D01*
X15957Y17439D01*
X15894Y17434D01*
X15829Y17431D01*
X15793D01*
X15768Y17434D01*
X15739Y17437D01*
X15703Y17442D01*
X15662Y17447D01*
X15621Y17456D01*
X15575Y17467D01*
X15528Y17480D01*
X15479Y17497D01*
X15433Y17516D01*
X15384Y17540D01*
X15337Y17568D01*
X15293Y17598D01*
X15253Y17633D01*
X15250Y17636D01*
X15244Y17641D01*
X15233Y17655D01*
X15220Y17669D01*
X15203Y17688D01*
X15184Y17712D01*
X15165Y17740D01*
X15146Y17772D01*
X15127Y17805D01*
X15108Y17843D01*
X15089Y17884D01*
X15072Y17928D01*
X15059Y17977D01*
X15048Y18026D01*
X15042Y18078D01*
X15040Y18133D01*
Y18135D01*
Y18138D01*
Y18146D01*
Y18157D01*
X15042Y18187D01*
X15048Y18225D01*
X15056Y18272D01*
X15067Y18321D01*
X15081Y18376D01*
X15102Y18430D01*
Y18433D01*
X15105Y18436D01*
X15108Y18444D01*
X15113Y18455D01*
X15130Y18485D01*
X15152Y18523D01*
X15182Y18570D01*
X15217Y18621D01*
X15258Y18676D01*
X15310Y18736D01*
X15313Y18739D01*
X15315Y18744D01*
X15326Y18752D01*
X15337Y18766D01*
X15354Y18782D01*
X15373Y18802D01*
X15394Y18826D01*
X15422Y18851D01*
X15455Y18881D01*
X15490Y18914D01*
X15528Y18952D01*
X15572Y18990D01*
X15618Y19034D01*
X15670Y19077D01*
X15728Y19126D01*
X15788Y19178D01*
X15790Y19181D01*
X15799Y19189D01*
X15815Y19200D01*
X15831Y19217D01*
X15856Y19236D01*
X15880Y19257D01*
X15938Y19307D01*
X15998Y19358D01*
X16055Y19413D01*
X16082Y19438D01*
X16107Y19459D01*
X16129Y19481D01*
X16145Y19498D01*
X16148Y19500D01*
X16159Y19511D01*
X16173Y19528D01*
X16192Y19550D01*
X16214Y19574D01*
X16235Y19601D01*
X16279Y19661D01*
X15037D01*
Y19959D01*
X16705D01*
Y19954D01*
D02*
G37*
D11*
X27677Y13012D02*
Y26988D01*
X12323D02*
X27677D01*
X12323Y13012D02*
Y26988D01*
Y13012D02*
X27677D01*
M02*
