G04*
G04 #@! TF.GenerationSoftware,Altium Limited,Altium Designer,23.1.1 (15)*
G04*
G04 Layer_Color=65535*
%FSLAX25Y25*%
%MOIN*%
G70*
G04*
G04 #@! TF.SameCoordinates,45878567-CE0E-41C7-ACDA-4C7A12290E7D*
G04*
G04*
G04 #@! TF.FilePolarity,Positive*
G04*
G01*
G75*
%ADD10C,0.00984*%
%ADD11C,0.00787*%
%ADD12C,0.01000*%
D10*
X30039Y16260D02*
G03*
X30039Y16260I-492J0D01*
G01*
D11*
X18228Y26004D02*
X21772D01*
X18228Y13996D02*
X21772D01*
X11500Y5499D02*
Y35499D01*
X1500D02*
X11500D01*
X1500Y5499D02*
Y35499D01*
Y5499D02*
X11500D01*
X28500Y5000D02*
Y35000D01*
Y5000D02*
X38500D01*
Y35000D01*
X28500D02*
X38500D01*
D12*
X35500Y36500D02*
Y37500D01*
X36500D01*
Y36500D01*
X35500D01*
X1668Y4999D02*
Y1000D01*
Y2999D01*
X4334D01*
Y4999D01*
Y1000D01*
X5667Y4999D02*
Y1000D01*
X7666D01*
X8333Y1667D01*
Y4332D01*
X7666Y4999D01*
X5667D01*
X12332Y1000D02*
X9666D01*
X12332Y3666D01*
Y4332D01*
X11665Y4999D01*
X10332D01*
X9666Y4332D01*
X18335Y36999D02*
Y33001D01*
Y35000D01*
X21001D01*
Y36999D01*
Y33001D01*
X22333Y36999D02*
Y33001D01*
X24333D01*
X24999Y33667D01*
Y36333D01*
X24333Y36999D01*
X22333D01*
X26332Y33001D02*
X27665D01*
X26999D01*
Y36999D01*
X26332Y36333D01*
M02*
